<svg xmlns="http://www.w3.org/2000/svg" viewBox="0 0 499.839 277.402"><path d="M-.161-.375h500v277.777h-500z"/><path fill="#bf0000" d="M166.507-.375h166.668v277.777H166.507z"/><path fill="#090" d="M333.175-.375h166.664v277.777H333.175z"/><g><path d="M262.425 155.184l5.391.004c.02 2.039 1.215 4.223 2.887 5.477h-10.328c1.62-1.466 2.061-3.204 2.05-5.481zM306.604 140.379c-.039.227.578.57.727.395.664-.801 1.531-2.367 1.715-3.312.055-.277-.832-.59-1.023-.363-.626.745-1.227 2.288-1.419 3.28zM223.311 188.953c-.664 2.344-10.449-2.207-11.539-4.566 5.602 2.965 11.668 2.343 11.539 4.566zM192.382 141.09c.488.586 1.316.191.562-.594-.617-.641-.414-.84-.785-1.613-.375-.867-.355-1.344-.801-1.961-.395-.59-.992.008-.59.504.5.586.359 1.016.664 1.582.571.965.426 1.472.95 2.082zM205.546 156.973c1.574.773 2.766 2.707 2.848 4.285.129 1.805.395 3.34 1.207 4.629-1.297-.363-1.918-2.43-2.102-4.406-.191-2.043-1.289-2.934-1.953-4.508zM208.819 160.762c1.094 2.012 2.613 2.777 2.695 4.27.129 1.719.262 1.805.723 3.492-1.281-.344-1.598-.453-1.953-3.02-.207-1.809-1.652-3.082-1.465-4.742z" fill="#fff" stroke="#bd6b00" stroke-width=".085"/><path d="M234.265 171.566c1.664 1.367 2.746 2.926 3.25 4.938.527 1.879 1.266 3.371 2.352 5.059-1.77-1.203-2.883-2.84-3.438-4.816-.489-1.942-1.059-3.392-2.164-5.181zM265.456 171.566c-1.703 1.375-2.809 2.945-3.324 4.969-.535 1.887-1.297 3.391-2.402 5.086 1.805-1.211 2.938-2.859 3.508-4.844.499-1.953 1.085-3.41 2.218-5.211zM263.358 171.566c-1.824 1.438-3.547 3.066-4.055 5.09-.543 1.887-.867 3.332-2.098 5.211 1.93-1.211 2.695-3.043 3.266-5.031.493-1.949 1.641-3.41 2.887-5.27zM242.722 179.367c.609 1.152 1.316 2.91 2.59 2.59.023-.883-1.376-1.5-2.59-2.59zM244.62 179.758c2.477 1.012 4.613.762 4.879 2.32-2.32.25-3.168-.703-4.879-2.32zM256.753 179.516c-.617 1.086-1.336 2.742-2.625 2.441-.02-.832 1.398-1.41 2.625-2.441zM255.018 179.848c-2.512.965-4.68.723-4.945 2.203 2.356.234 3.215-.668 4.945-2.203z" fill="#fff"/><path d="M222.308 129.82c-.797-1.277-1.746 1.777-5.023 4.047-1.527 1.035-2.59 3.805-2.598 5.621-.055 1.25.137 2.496 0 3.703-.09.766-.887 2.465-.34 2.898 1.438 1.066 3.305 3.504 4.172 4.34.746.656 1.399-3.383 1.961-5.195.594-1.938.332-4.25 2-6.047 1.18-1.207 4.164-2.395 3.832-2.934l-4.004-6.433z" fill="#fff" stroke="#bd6b00" stroke-width=".085"/><path d="M222.14 139.727a6.529 6.529 0 0 0-1.07-1.672c-.449-.512-.984-.941-1.574-1.152-.562-.207-1.145-.484-1.547-.984a2.418 2.418 0 0 1-.469-.945c-.078-.355-.078-.785-.02-1.273-.066.055-.109.113-.184.164-1.52 1.035-2.582 3.805-2.598 5.621-.02.504-.02.996 0 1.496.117.312.227.613.383.801.207.25.465.414.731.527.527.227 1.141.273 1.711.484.59.207 1.191.684 1.715 1.25.496.539.875 1.16 1.125 1.715.047-.156.102-.391.141-.527.55-1.755.456-3.798 1.656-5.505z" fill="#bf0000" stroke="#bd6b00" stroke-width=".085"/><path d="M217.468 133.605c-.312 2.164.895 2.887 2.027 3.305 1.18.422 2.145 1.684 2.645 2.824M214.55 140.734c.504 1.867 1.805 1.633 2.945 2.051 1.18.422 2.422 1.906 2.914 3.055" fill="none" stroke="#bd6b00" stroke-width=".085"/><path d="M221.202 128.5l.598-.383 11.449 19.293-.598.383-11.449-19.293z" fill="#fff" stroke="#bd6b00" stroke-width=".085"/><path d="M222.436 127.734a1.322 1.322 0 0 1-2.644.008v-.004a1.322 1.322 0 0 1 2.644-.008v.004zM277.534 130.211c.793-1.328 1.75 1.832 5.016 4.188 1.527 1.07 2.594 3.934 2.598 5.816.047 1.293-.133 2.586 0 3.832.09.793.891 2.547.34 3-1.438 1.109-3.301 3.625-4.172 4.496-.746.676-1.395-3.508-1.953-5.379-.602-2.008-.332-4.406-2-6.258-1.188-1.254-4.172-2.484-3.832-3.039l4.003-6.656z" fill="#fff" stroke="#bd6b00" stroke-width=".085"/><path d="M282.421 134.285c.062.508.07.949-.02 1.309a2.264 2.264 0 0 1-.469.945c-.414.508-1.023.797-1.586 1.012-.59.219-1.145.625-1.613 1.125a5.918 5.918 0 0 0-1.086 1.695c1.27 1.785 1.152 3.938 1.711 5.785l.121.465a6.495 6.495 0 0 1 1.145-1.754c.523-.555 1.125-1.008 1.719-1.227.566-.219 1.156-.254 1.672-.465.258-.109.504-.258.707-.504.168-.211.305-.531.422-.906.02-.523.02-1.031 0-1.551-.008-1.883-1.055-4.734-2.578-5.809-.055-.038-.09-.081-.145-.12z" fill="#bf0000" stroke="#bd6b00" stroke-width=".085"/><path d="M278.64 128.844l-.598-.395-11.449 19.965.598.395 11.449-19.965z" fill="#fff" stroke="#bd6b00" stroke-width=".085"/><path d="M282.429 134.191c.312 2.242-.949 2.922-2.09 3.359-1.172.43-2.203 1.645-2.699 2.824m7.582 1.224c-.492 1.934-1.742 1.598-2.879 2.035-1.176.43-2.418 1.852-2.91 3.031" fill="none" stroke="#bd6b00" stroke-width=".085"/><path d="M277.405 128.055c0 .75.59 1.367 1.312 1.367.734 0 1.324-.613 1.324-1.363v-.004c0-.758-.59-1.371-1.316-1.371-.727-.004-1.32.606-1.32 1.363v.008zM232.226 112.238h4.644v1.066h-4.644zM232.226 114.258h4.644v8.891h-4.644zM231.944 111.02l5.148.031c.203-1.746-1.539-3.629-2.555-3.609-1.003.046-2.632 1.906-2.593 3.578zM262.714 112.27h4.641v1.062h-4.641zM262.714 114.285h4.641v8.894h-4.641zM262.436 111.051l5.148.031c.203-1.746-1.539-3.633-2.559-3.613-1.007.051-2.628 1.906-2.589 3.582z" fill="#fff" stroke="#bd6b00" stroke-width=".085"/><path fill="#fff" stroke="#bd6b00" stroke-width=".085" d="M232.226 112.238h4.644v1.066h-4.644zM232.226 114.258h4.644v8.891h-4.644zM231.944 111.02l5.148.031c.203-1.746-1.539-3.629-2.555-3.609-1.003.046-2.632 1.906-2.593 3.578zM262.714 112.27h4.641v1.062h-4.641zM262.714 114.285h4.641v8.894h-4.641zM262.436 111.051l5.148.031c.203-1.746-1.539-3.633-2.559-3.613-1.007.051-2.628 1.906-2.589 3.582z"/><path d="M228.366 124.66l2.949 3.25 36.73.062 3.016-3.254-9.398-.117-4.578-3.195-14.75-.055-4.277 3.309h-9.692z" fill="#fff"/><path d="M243.401 120.93l12.68-.016c1.719-.906 2.254-3.805 2.246-5.426-.02-4.797-3.379-7.09-6.742-7.215-.5-.027-1.086-.418-1.219-.875-.332-1.043-.246-1.707-.613-1.668-.324-.004-.223.605-.512 1.582-.156.484-.699.961-1.25.988-4.184.211-6.883 3.27-6.781 7.188.074 2.586.371 4.137 2.191 5.442z" fill="#fff" stroke="#bd6b00" stroke-width=".085"/><path d="M245.081 109.969c-.98.414-1.726 1.535-2.195 2.824-.461 1.289-.637 2.754-.422 3.934v.019c.082.406.191.699.32.906.129.207.27.332.445.359.172.035.332-.059.422-.199a.855.855 0 0 0 .121-.543c-.094-1.211-.086-2.41.203-3.488a4.975 4.975 0 0 1 1.914-2.824c.191-.141.297-.297.324-.461a.445.445 0 0 0-.184-.402c-.233-.199-.6-.266-.948-.125zm.102.281c.238-.098.543-.039.664.062.062.051.07.086.062.141-.008.055-.047.152-.203.262-1.105.82-1.707 1.852-2.016 2.984-.305 1.129-.297 2.359-.203 3.59a.54.54 0 0 1-.082.363c-.039.07-.066.09-.113.078-.055-.008-.164-.078-.266-.238-.102-.168-.203-.426-.285-.809-.203-1.105-.02-2.547.43-3.789.445-1.242 1.16-2.285 2.012-2.644z" fill="#bd6b00"/><path d="M246.737 111.238c-.984.414-1.613 1.477-1.961 2.703-.34 1.223-.395 2.621-.176 3.789.164.828.605 1.266 1.023 1.332a.564.564 0 0 0 .551-.223c.121-.168.168-.398.102-.684-.246-.969-.34-2.172-.164-3.266.172-1.094.605-2.07 1.434-2.664.188-.137.297-.297.316-.461.027-.164-.062-.328-.176-.426-.238-.189-.605-.24-.949-.1zm.121.286c.238-.098.523-.039.645.062.062.047.09.082.082.137-.008.059-.074.152-.223.266-.91.648-1.371 1.715-1.555 2.859-.176 1.145-.066 2.367.184 3.367.055.23 0 .383-.062.465-.059.082-.133.121-.258.102-.25-.035-.637-.359-.793-1.109-.203-1.117-.141-2.496.184-3.672.331-1.173.941-2.118 1.796-2.477zM254.495 110.031c-.34-.141-.73-.074-.961.121a.425.425 0 0 0-.164.402c.02.164.129.324.316.465a4.942 4.942 0 0 1 1.922 2.82c.285 1.082.277 2.277.184 3.488a.867.867 0 0 0 .113.547c.094.141.277.23.449.199.168-.035.312-.152.445-.363.125-.207.238-.496.32-.91v-.016c.215-1.18.039-2.645-.422-3.934-.468-1.287-1.217-2.405-2.202-2.819zm-.113.282c.852.359 1.586 1.398 2.031 2.641.449 1.246.605 2.684.402 3.793-.074.379-.176.641-.277.805-.102.164-.191.23-.246.242-.055.012-.094-.012-.141-.082-.043-.066-.074-.195-.055-.363.086-1.227.094-2.453-.203-3.586-.305-1.133-.918-2.164-2.023-2.984h-.02c-.148-.113-.191-.207-.195-.262-.008-.059.02-.09.082-.141.114-.102.399-.161.645-.063z" fill="#bd6b00"/><path d="M252.847 111.301c-.344-.141-.73-.098-.969.102a.496.496 0 0 0-.184.422c.027.168.156.328.348.465.82.59 1.258 1.566 1.43 2.664.168 1.09.074 2.297-.164 3.262-.066.285-.047.516.082.688a.596.596 0 0 0 .562.219c.43-.062.863-.5 1.031-1.328a8.838 8.838 0 0 0-.184-3.812c-.339-1.225-.976-2.268-1.952-2.682zm-.121.285c.855.355 1.465 1.305 1.789 2.477.332 1.176.367 2.555.164 3.668-.148.75-.516 1.074-.766 1.109-.125.02-.227-.016-.277-.102-.062-.082-.098-.234-.043-.461.25-1.004.34-2.223.164-3.367-.184-1.145-.645-2.215-1.555-2.863-.156-.109-.195-.203-.203-.262-.008-.055 0-.094.062-.145.122-.097.426-.156.665-.054z" fill="#bd6b00"/><path d="M222.526 166.148h54.492l-4.879-3.973h-44.738l-4.875 3.973z" fill="#fff"/><g fill="#fff" stroke="#bd6b00"><path stroke-width=".08481873" d="M231.979 130.379h5.176v7.164h-5.176zM232.28 141.64h4.996v1.505h-4.996zM232.156 144.293h5.121v5.598h-5.121zM231.796 151.035h5.602v3.133h-5.602zM232.483 140.297H237l.895-1.492h-6.22l.81 1.492zM238.573 134.805l.04-3.918h3.113c-1.223 1.008-2.36 2.23-3.153 3.918zM262.346 130.379h5.094v7.164h-5.094zM262.444 141.64h4.91v1.505h-4.91zM262.444 144.293h5.005v5.598h-5.005zM262.269 151.035h5.5v3.133h-5.5z"/><path d="M266.948 140.297h-4.438l-.883-1.492h6.113l-.792 1.492zM260.96 134.805l-.044-3.918h-3.058c1.2 1.008 2.32 2.23 3.101 3.918z" stroke-width=".08601336"/></g><path d="M232.78 136.41c.035.84.977.469.977.043 0-1.289.02-2.688-.035-3.602-.004-.676 1.609-.504 1.602-.09.008 1.09.02 2.586.027 3.863-.012.621 1.039.566 1.023 0-.008-1.426-.008-3.5 0-4.551.016-1.348-3.547-1.32-3.574-.031 0 1.063-.02 2.962-.02 4.368zM263.249 136.562c.035.84.984.465.984.043 0-1.293.016-2.688-.039-3.605-.008-.676 1.605-.504 1.598-.086.008 1.086.023 2.586.027 3.863-.012.621 1.012.566 1 0-.008-1.457.02-3.5.023-4.555.008-1.348-3.543-1.316-3.57-.027 0 1.063-.023 2.961-.023 4.367zM232.792 144.953h3.672v4.574h-3.672z" fill="none" stroke="#bd6b00" stroke-width=".085"/><path fill="#fff" stroke="#bd6b00" stroke-width=".085" d="M235.14 146.848h1.297v.754h-1.297zM232.882 146.848h1.262v.754h-1.262z"/><path fill="#fff" stroke="#bd6b00" stroke-width=".085" d="M234.143 145.012h.996v1.867h-.996zM234.143 147.57h.996v1.992h-.996z"/><path fill="none" stroke="#bd6b00" stroke-width=".085" d="M263.143 144.922h3.668v4.574h-3.668z"/><path fill="#fff" stroke="#bd6b00" stroke-width=".085" d="M265.487 146.82h1.297v.75h-1.297zM263.229 146.82h1.262v.75h-1.262zM264.499 144.984h.988v1.863h-.988zM264.499 147.539h.988v1.988h-.988zM259.8 145.195h.629v4.543h-.629z"/><path d="M247.518 151.215l.988 2.98h2.258l-1.805-2.98h-1.441zm-1.269 2.98l.574 2.949 2.648.031-.965-2.98h-2.257zm4.488.032l1.84 2.918h3.758l-2.945-2.949-2.653.031zm-22.222 6.679c2-1.855 3.277-3.441 3.281-5.719h4.879c.012 1.277.473 2.039 1.18 1.988l4.938-.031-.035-2.918h-3.582v-15.93c-.137-5.629 6.844-8.91 9.691-8.883l-16.945-.027v-.512h35.645l.031.512-17.191.027c5.102.012 10.016 4.84 10.059 8.914v4.516h-.666l-.035-4.453c0-4.457-5.609-8.625-10.113-8.492-3.891.113-9.934 3.824-9.871 8.461v1.383l9.242.062-.094 1.594 1.449.926 2.898.922-.043 2.395 2.074.613.016 2.391 2.488 1.066v2.477l1.582.969-.078 2.516 2.137 1.504h-5.059l3.16 3.52h-4.664l-2.312-3.52h-3.074l1.383 3.492-3.281-.027-.785-3.465h-4.004l.027 3.73h-14.328v-.001zm14.3-9.664v2.953h3.434l-.691-2.953h-2.743z" fill="#fff" stroke="#bd6b00" stroke-width=".085"/><path fill="none" stroke="#bd6b00" stroke-width=".085" d="M242.999 146.035h2.137v4.906h-2.137z"/><path d="M239.976 151.289h2.09l-.016-3.609c-.027-1.57 1.383-3.156 2.055-3.203.754-.031 1.851 1.477 1.894 3.078l.027 3.746 2.215-.008V142l-8.266.043v9.246h.001zM256.487 153.441h2.594v2.016h-2.594zM254.948 149.98h2.594v2.016h-2.594zM252.452 146.516h2.594v2.02h-2.594zM250.319 143.598h2.59v2.016h-2.59z" fill="none" stroke="#bd6b00" stroke-width=".085"/><path d="M248.601 151.305l2.645.09 4.73 4.184v-2.469l-1.594-1.141v-1.961l-2.32-1.324v-2.105l-2.258-.754v-2.859l-1.148-.934-.055 9.273z" fill="none" stroke="#bd6b00" stroke-width=".085"/><path fill="#fff" stroke="#bd6b00" stroke-width=".085" d="M259.8 145.195h.629v4.543h-.629z"/><path d="M213.702 99.145c.23 3.59-.879 5.559-2.785 5.262-.524-1.993.672-3.333 2.785-5.262zM209.534 107.102c-1.695-.863-.477-7.426.176-10.18.48 3.547 1.281 8.586-.176 10.18z" fill="#fff" stroke="#bd6b00" stroke-width=".085" stroke-linejoin="round"/><path d="M210.136 107.41c2.844.988 5.094-2.07 5.852-5.617-2.345 3.238-6.165 3.238-5.852 5.617zM207.98 110.723c-2.223-.586-.887-7.555-.481-10.34.488 2.875 2.019 9.387.481 10.34z" fill="#fff" stroke="#bd6b00" stroke-width=".085" stroke-linejoin="round"/><path d="M208.733 110.508c.129-2.402 2.523-1.707 4.176-2.988-.269 1.199-1.289 3.324-4.176 2.988zM206.015 113.727c-2.207-.594-.875-8.094-1.004-11.184.644 2.668 2.691 10.457 1.004 11.184zM207.042 113.406c1.805.586 4.199-.586 4.383-2.738-1.555 1.055-4.035.25-4.383 2.738z" fill="#fff" stroke="#bd6b00" stroke-width=".085" stroke-linejoin="round"/><path d="M204.37 117.035c-2.105.172-1.164-6.219-1.164-12.164.774 5.559 2.883 10.645 1.164 12.164z" fill="#fff" stroke="#bd6b00" stroke-width=".085" stroke-linejoin="round"/><path d="M205.097 116.75c1.426.711 3.977-.43 4.699-2.832-2.57 1.117-4.285.027-4.699 2.832z" fill="#fff" stroke="#bd6b00" stroke-width=".085" stroke-linejoin="round"/><path d="M213.702 99.145c.23 3.59-.879 5.559-2.785 5.262-.524-1.993.672-3.333 2.785-5.262zM209.534 107.102c-1.695-.863-.477-7.426.176-10.18.48 3.547 1.281 8.586-.176 10.18z" fill="#fff" stroke="#bd6b00" stroke-width=".085"/><path d="M210.136 107.41c2.844.988 5.094-2.07 5.852-5.617-2.345 3.238-6.165 3.238-5.852 5.617zM207.98 110.723c-2.223-.586-.887-7.555-.481-10.34.488 2.875 2.019 9.387.481 10.34z" fill="#fff" stroke="#bd6b00" stroke-width=".085"/><path d="M208.733 110.508c.129-2.402 2.523-1.707 4.176-2.988-.269 1.199-1.289 3.324-4.176 2.988zM206.015 113.727c-2.207-.594-.875-8.094-1.004-11.184.644 2.668 2.691 10.457 1.004 11.184zM207.042 113.406c1.805.586 4.199-.586 4.383-2.738-1.555 1.055-4.035.25-4.383 2.738z" fill="#fff" stroke="#bd6b00" stroke-width=".085"/><path d="M204.37 117.035c-2.105.172-1.164-6.219-1.164-12.164.774 5.559 2.883 10.645 1.164 12.164z" fill="#fff" stroke="#bd6b00" stroke-width=".085"/><path d="M205.097 116.75c1.426.711 3.977-.43 4.699-2.832-2.57 1.117-4.285.027-4.699 2.832z" fill="#fff" stroke="#bd6b00" stroke-width=".085"/><path d="M221.64 102.465c-.375 3.117-1.648 4.93-3.555 4.629-.524-1.992 1.023-3.266 3.555-4.629zM216.605 110.465c3.16.449 4.301-1.977 6.422-5.078-2.977 2.156-6.544 2.605-6.422 5.078z" fill="#fff" stroke="#bd6b00" stroke-width=".085" stroke-linejoin="round"/><path d="M215.702 110.106c-1.719-2.066-.051-4.66 1.262-6.875-.285 3.293.836 5.121-1.262 6.875zM214.944 113.52c-.195-2.02 3.25-2.473 4.809-3.594-.527 1.168-1.324 4.312-4.809 3.594z" fill="#fff" stroke="#bd6b00" stroke-width=".085" stroke-linejoin="round"/><path d="M214.226 113.563c-2.387-.266-1.398-4.312.312-6.559-.719 3.102 1.254 5.258-.312 6.559z" fill="#fff" stroke="#bd6b00" stroke-width=".085" stroke-linejoin="round"/><path d="M212.429 116.934c-2.715-1.199-.977-4.598.039-6.605-.434 2.636 1.738 4.648-.039 6.605z" fill="#fff" stroke="#bd6b00" stroke-width=".085" stroke-linejoin="round"/><path d="M212.964 116.621c1.426 1.856 4.199-.555 4.77-3.367-2.415 2.008-4.2 1.672-4.77 3.367z" fill="#fff" stroke="#bd6b00" stroke-width=".085" stroke-linejoin="round"/><path d="M221.64 102.465c-.375 3.117-1.648 4.93-3.555 4.629-.524-1.992 1.023-3.266 3.555-4.629zM216.605 110.465c3.16.449 4.301-1.977 6.422-5.078-2.977 2.156-6.544 2.605-6.422 5.078z" fill="#fff" stroke="#bd6b00" stroke-width=".085"/><path d="M215.702 110.106c-1.719-2.066-.051-4.66 1.262-6.875-.285 3.293.836 5.121-1.262 6.875zM214.944 113.52c-.195-2.02 3.25-2.473 4.809-3.594-.527 1.168-1.324 4.312-4.809 3.594z" fill="#fff" stroke="#bd6b00" stroke-width=".085"/><path d="M214.226 113.563c-2.387-.266-1.398-4.312.312-6.559-.719 3.102 1.254 5.258-.312 6.559z" fill="#fff" stroke="#bd6b00" stroke-width=".085"/><path d="M212.429 116.934c-2.715-1.199-.977-4.598.039-6.605-.434 2.636 1.738 4.648-.039 6.605z" fill="#fff" stroke="#bd6b00" stroke-width=".085"/><path d="M212.964 116.621c1.426 1.856 4.199-.555 4.77-3.367-2.415 2.008-4.2 1.672-4.77 3.367z" fill="#fff" stroke="#bd6b00" stroke-width=".085"/><path d="M278.21 102.777c.359 1.621.449 4.812 3.324 4.184.422-2.965-1.996-3.102-3.324-4.184z" fill="#fff" stroke="#bd6b00" stroke-width=".085" stroke-linejoin="round"/><path d="M283.108 110.422c-.102-3.059-3.398-2.383-6.246-4.902.778 2.652 3.539 5.886 6.246 4.902z" fill="#fff" stroke="#bd6b00" stroke-width=".085" stroke-linejoin="round"/><path d="M283.784 110.063c1.934-1.336.449-4.242-1.348-6.789.672 2.773-.808 5.32 1.348 6.789zM284.64 113.52c-3.121.242-3.676-1.316-4.902-3.324 2.128 1.378 4.976.511 4.902 3.324zM285.397 113.613c-1.477-1.219.363-3.824-.27-6.43 1.173 1.649 2.97 5.587.27 6.43z" fill="#fff" stroke="#bd6b00" stroke-width=".085" stroke-linejoin="round"/><path d="M286.702 116.848c-3.113.73-4.117-.918-4.898-3.688 2.531 2.324 3.941 1.227 4.898 3.688z" fill="#fff" stroke="#bd6b00" stroke-width=".085" stroke-linejoin="round"/><path d="M287.155 116.801c2.172-.027 1.195-4.328.09-6.293.297 2.367-1.602 5.094-.09 6.293z" fill="#fff" stroke="#bd6b00" stroke-width=".085" stroke-linejoin="round"/><path d="M278.21 102.777c.359 1.621.449 4.812 3.324 4.184.422-2.965-1.996-3.102-3.324-4.184z" fill="#fff" stroke="#bd6b00" stroke-width=".085"/><path d="M283.108 110.422c-.102-3.059-3.398-2.383-6.246-4.902.778 2.652 3.539 5.886 6.246 4.902z" fill="#fff" stroke="#bd6b00" stroke-width=".085"/><path d="M283.784 110.063c1.934-1.336.449-4.242-1.348-6.789.672 2.773-.808 5.32 1.348 6.789zM284.64 113.52c-3.121.242-3.676-1.316-4.902-3.324 2.128 1.378 4.976.511 4.902 3.324zM285.397 113.613c-1.477-1.219.363-3.824-.27-6.43 1.173 1.649 2.97 5.587.27 6.43z" fill="#fff" stroke="#bd6b00" stroke-width=".085"/><path d="M286.702 116.848c-3.113.73-4.117-.918-4.898-3.688 2.531 2.324 3.941 1.227 4.898 3.688z" fill="#fff" stroke="#bd6b00" stroke-width=".085"/><path d="M287.155 116.801c2.172-.027 1.195-4.328.09-6.293.297 2.367-1.602 5.094-.09 6.293z" fill="#fff" stroke="#bd6b00" stroke-width=".085"/><path d="M285.827 99.168c.395 1.801-.359 5.352 2.516 5.324 1.199-2.031-1.364-3.945-2.516-5.324z" fill="#fff" stroke="#bd6b00" stroke-width=".085" stroke-linejoin="round"/><path d="M290.14 107.188c1.816-1.242.184-5.32-.379-9.918-.442 4.097-1.41 8.57.379 9.918z" fill="#fff" stroke="#bd6b00" stroke-width=".085" stroke-linejoin="round"/><path d="M289.171 107.504c.223-2.242-3.309-2.742-5.73-5.711.62 2.383 2.413 5.859 5.73 5.711zM291.593 110.996c-1.906-1.723.359-6.68.445-10.519.301 3.543 1.859 9.894-.445 10.519zM290.507 110.5c-2.781.18-3.52-1.859-3.848-3.027 1.5 1.082 3.859.57 3.848 3.027zM293.3 113.574c2.137-.086 1.352-8.207 1.051-10.777-.211 2.73-2.442 9.789-1.051 10.777zM292.362 113.43c-1.848.281-3.727-.793-4.238-2.633 1.602.695 4.246.144 4.238 2.633z" fill="#fff" stroke="#bd6b00" stroke-width=".085" stroke-linejoin="round"/><path d="M295.022 116.949c2.293.93 1.473-9.66 1.172-12.102-.207 3.114-2.929 10.778-1.172 12.102z" fill="#fff" stroke="#bd6b00" stroke-width=".085" stroke-linejoin="round"/><path d="M294.487 116.949c-2.305.34-4-1.066-4.66-2.992 2.356.875 4.18.563 4.66 2.992z" fill="#fff" stroke="#bd6b00" stroke-width=".085" stroke-linejoin="round"/><path d="M292.827 129.508c.281-2.762-1.84-7.797-.336-10.473.207-.371-.453-1.348-.871-.758-.66.949-1.344 3.648-1.629 2.652-.301-1.086-.348-3-1.324-3.375-.621-.219-1.504-.363-1.262.605.23.926.773 2.207.18 2.289-.34.051-1.336-1.262-2.172-1.871-.672-.539-1.668.309-.684 1.117 3.188 2.603 6.286 3.779 8.098 9.814z" fill="#fff" stroke="#bd6b00" stroke-width=".085"/><path d="M292.827 129.508c.281-2.762-1.84-7.797-.336-10.473.207-.371-.453-1.348-.871-.758-.66.949-1.344 3.648-1.629 2.652-.301-1.086-.348-3-1.324-3.375-.621-.219-1.504-.363-1.262.605.23.926.773 2.207.18 2.289-.34.051-1.336-1.262-2.172-1.871-.672-.539-1.668.309-.684 1.117 3.188 2.603 6.286 3.779 8.098 9.814zM285.827 99.168c.395 1.801-.359 5.352 2.516 5.324 1.199-2.031-1.364-3.945-2.516-5.324z" fill="#fff" stroke="#bd6b00" stroke-width=".085"/><path d="M290.14 107.188c1.816-1.242.184-5.32-.379-9.918-.442 4.097-1.41 8.57.379 9.918z" fill="#fff" stroke="#bd6b00" stroke-width=".085"/><path d="M289.171 107.504c.223-2.242-3.309-2.742-5.73-5.711.62 2.383 2.413 5.859 5.73 5.711zM291.593 110.996c-1.906-1.723.359-6.68.445-10.519.301 3.543 1.859 9.894-.445 10.519zM290.507 110.5c-2.781.18-3.52-1.859-3.848-3.027 1.5 1.082 3.859.57 3.848 3.027zM293.3 113.574c2.137-.086 1.352-8.207 1.051-10.777-.211 2.73-2.442 9.789-1.051 10.777zM292.362 113.43c-1.848.281-3.727-.793-4.238-2.633 1.602.695 4.246.144 4.238 2.633z" fill="#fff" stroke="#bd6b00" stroke-width=".085"/><path d="M295.022 116.949c2.293.93 1.473-9.66 1.172-12.102-.207 3.114-2.929 10.778-1.172 12.102z" fill="#fff" stroke="#bd6b00" stroke-width=".085"/><path d="M294.487 116.949c-2.305.34-4-1.066-4.66-2.992 2.356.875 4.18.563 4.66 2.992z" fill="#fff" stroke="#bd6b00" stroke-width=".085"/><path d="M300.843 127.664c.785-.82.555-1.133-.598-1.148-.918-.055-2.727.566-3.418.062-.633-.461-.379-2.414-.66-3.312-.121-.5-.473-1.289-1.258-.062-2.328 3.75-5.23 8.246-6.473 12.648-.676 2.469-.34 6.445 2.281 8.551l1.855-5.422c.884-2.575 5.638-8.758 8.271-11.317z" fill="#fff"/><path d="M303.452 120.93c-1.051 3.371-1.684 6.129-.164 6.457 1.617-.278.91-3.539.164-6.457zM303.343 130.383c1.723.914 3.582-3.477 3.195-6.938-.867 2.969-3.793 4.797-3.195 6.938zM302.706 130.301c.266-2.398-.719-2.336-2.008-4.625.137 2.59.781 4.754 2.008 4.625z" fill="#fff" stroke="#bd6b00" stroke-width=".085" stroke-linejoin="round"/><path d="M303.268 133.809c2.016.57 4.32-4.219 4.23-7.762-.831 3.918-5.198 5.484-4.23 7.762z" fill="#fff" stroke="#bd6b00" stroke-width=".085" stroke-linejoin="round"/><path d="M302.612 133.723c.805-1.855-.836-1.629-1.926-4.957-.367 3.445.157 5.015 1.926 4.957zM303.194 137.336c2.609.449 3.961-5.32 5.258-8.078-2.57 3.621-5.644 5.637-5.258 8.078z" fill="#fff" stroke="#bd6b00" stroke-width=".085" stroke-linejoin="round"/><path d="M302.593 137.137c.758-2.129-1.398-2.008-2.531-5.188.175 4.031.706 5.489 2.531 5.188zM303.343 140.797c1.648.121 4.621-4.488 4.68-7.34-1.411 3.137-5.84 5.215-4.68 7.34z" fill="#fff" stroke="#bd6b00" stroke-width=".085" stroke-linejoin="round"/><path d="M302.124 140.266c.684-2.219-1.234-2.234-2.09-4.719-.055 3.742.527 5.015 2.09 4.719zM302.179 144.262c2.914.512 3.66-3.328 5.375-7.234-1.696 3.109-5.528 4.855-5.375 7.234z" fill="#fff" stroke="#bd6b00" stroke-width=".085" stroke-linejoin="round"/><path d="M301.968 143.73c.949-2.004-1.242-2.008-2.41-5.004-.059 4.239.671 5.485 2.41 5.004z" fill="#fff" stroke="#bd6b00" stroke-width=".085" stroke-linejoin="round"/><path d="M303.452 120.93c-1.051 3.371-1.684 6.129-.164 6.457 1.617-.278.91-3.539.164-6.457zM303.343 130.383c1.723.914 3.582-3.477 3.195-6.938-.867 2.969-3.793 4.797-3.195 6.938zM302.706 130.301c.266-2.398-.719-2.336-2.008-4.625.137 2.59.781 4.754 2.008 4.625z" fill="#fff" stroke="#bd6b00" stroke-width=".085"/><path d="M303.268 133.809c2.016.57 4.32-4.219 4.23-7.762-.831 3.918-5.198 5.484-4.23 7.762z" fill="#fff" stroke="#bd6b00" stroke-width=".085"/><path d="M302.612 133.723c.805-1.855-.836-1.629-1.926-4.957-.367 3.445.157 5.015 1.926 4.957zM303.194 137.336c2.609.449 3.961-5.32 5.258-8.078-2.57 3.621-5.644 5.637-5.258 8.078z" fill="#fff" stroke="#bd6b00" stroke-width=".085"/><path d="M302.593 137.137c.758-2.129-1.398-2.008-2.531-5.188.175 4.031.706 5.489 2.531 5.188zM303.343 140.797c1.648.121 4.621-4.488 4.68-7.34-1.411 3.137-5.84 5.215-4.68 7.34z" fill="#fff" stroke="#bd6b00" stroke-width=".085"/><path d="M302.124 140.266c.684-2.219-1.234-2.234-2.09-4.719-.055 3.742.527 5.015 2.09 4.719zM302.179 144.262c2.914.512 3.66-3.328 5.375-7.234-1.696 3.109-5.528 4.855-5.375 7.234z" fill="#fff" stroke="#bd6b00" stroke-width=".085"/><path d="M301.968 143.73c.949-2.004-1.242-2.008-2.41-5.004-.059 4.239.671 5.485 2.41 5.004zM291.393 147.422c-2.555.016-3.059-3.609-3.059-4.574 1.263.242 3.54 2.531 3.059 4.574z" fill="#fff" stroke="#bd6b00" stroke-width=".085"/><path d="M291.393 147.422c-2.555.016-3.059-3.609-3.059-4.574 1.263.242 3.54 2.531 3.059 4.574z" fill="#fff" stroke="#bd6b00" stroke-width=".085"/><path d="M296.503 130.953c-1.055 3.371-1.473 4.992-.051 6.07 1.859-1.035.793-3.148.051-6.07zM295.917 139.762c.781-2.484-1.137-3.086-2.156-5.887-.11 3.699.422 6.41 2.156 5.887z" fill="#fff" stroke="#bd6b00" stroke-width=".085" stroke-linejoin="round"/><path d="M296.679 140.301c1.363.527 3.043-2.633 2.113-5.797-.953 2.848-3.309 3.531-2.113 5.797zM295.241 143.133c1.32-2.039-.773-2.145-1.84-4.988-.062 3.742.285 5.285 1.84 4.988z" fill="#fff" stroke="#bd6b00" stroke-width=".085" stroke-linejoin="round"/><path d="M295.241 146.641c1.004-2.312-1.18-2.008-2.469-4.859-.062 4.241.645 5.156 2.469 4.859zM296.229 143.27c1.141.027 3.355-1.965 2.699-4.449-.96 2.081-3.667 1.87-2.699 4.449z" fill="#fff" stroke="#bd6b00" stroke-width=".085" stroke-linejoin="round"/><path d="M295.917 146.277c1.859.387 3.262-2.457 3.051-4.402-1.45 1.809-3.442 1.961-3.051 4.402z" fill="#fff" stroke="#bd6b00" stroke-width=".085" stroke-linejoin="round"/><path d="M296.503 130.953c-1.055 3.371-1.473 4.992-.051 6.07 1.859-1.035.793-3.148.051-6.07zM295.917 139.762c.781-2.484-1.137-3.086-2.156-5.887-.11 3.699.422 6.41 2.156 5.887z" fill="#fff" stroke="#bd6b00" stroke-width=".085"/><path d="M296.679 140.301c1.363.527 3.043-2.633 2.113-5.797-.953 2.848-3.309 3.531-2.113 5.797zM295.241 143.133c1.32-2.039-.773-2.145-1.84-4.988-.062 3.742.285 5.285 1.84 4.988z" fill="#fff" stroke="#bd6b00" stroke-width=".085"/><path d="M295.241 146.641c1.004-2.312-1.18-2.008-2.469-4.859-.062 4.241.645 5.156 2.469 4.859zM296.229 143.27c1.141.027 3.355-1.965 2.699-4.449-.96 2.081-3.667 1.87-2.699 4.449z" fill="#fff" stroke="#bd6b00" stroke-width=".085"/><path d="M295.917 146.277c1.859.387 3.262-2.457 3.051-4.402-1.45 1.809-3.442 1.961-3.051 4.402z" fill="#fff" stroke="#bd6b00" stroke-width=".085"/><path d="M307.554 141.512c.23-.297.883.008.719.727-.148.961-1.57 5.934-4.012 7.641-1.746 1.262-10.895 3.293-15.043 4.16-2.285.461-4.199 1.602-5.691 3.43.617-2.391 1.113-4.156 1.914-6.32.781-1.902 2.84-3.984 4.977-4.098 3.961-.141 9.094-.48 12.824-2.109 1.925-.806 3.077-1.9 4.312-3.431z" fill="#fff"/><path d="M301.952 153.242c.422-1.672-.113-2.215.348-4.836-2.516 3.371-1.574 4.965-.348 4.836z" fill="#fff" stroke="#bd6b00" stroke-width=".085" stroke-linejoin="round"/><path d="M302.226 153.656c1.668.461 5.996-3.328 6.117-6.156-1.168 2.035-7.012 4.227-6.117 6.156zM299.511 156.152c1.141-.621.816-3.254-.215-4.141-.211 2.567-1.766 4.083.215 4.141z" fill="#fff" stroke="#bd6b00" stroke-width=".085" stroke-linejoin="round"/><path d="M300.686 156.867c2.008.633 4.285-3.012 5.945-4.602-1.89 1.637-7.613 2.419-5.945 4.602zM297.917 158.684c1.406-.922.098-2.742-.004-6.34-1.418 2.597-1.703 6.156.004 6.34z" fill="#fff" stroke="#bd6b00" stroke-width=".085" stroke-linejoin="round"/><path d="M298.183 159.609c.719.961 6.035-2.355 7.363-4.812-4.543 3.379-8.543 2.93-7.363 4.812zM297.655 162.605c1.301-.953-1.129-3.449-1.629-6.809.028 4.091-.527 7.2 1.629 6.809z" fill="#fff" stroke="#bd6b00" stroke-width=".085" stroke-linejoin="round"/><path d="M299.069 161.48c.66 1.051 4.715-1.734 6.457-4.766-2.683 2.36-7.207 2.985-6.457 4.766zM294.921 166.066c1.473-.262 1.27-3.98.148-7.008-1.265 3.657-1.824 7.368-.148 7.008z" fill="#fff" stroke="#bd6b00" stroke-width=".085" stroke-linejoin="round"/><path d="M298.616 164.039c.504.602 6.484-3.59 6.395-5.293-1.891 2.719-8.211 3.262-6.395 5.293zM291.671 169.535c2.027-.836 1.074-4.117 1.473-7.656-1.594 3.457-3.477 6.93-1.473 7.656z" fill="#fff" stroke="#bd6b00" stroke-width=".085" stroke-linejoin="round"/><path d="M295.464 166.691c.324 1.113 5.195-.949 7.539-4.344-2.832 2.204-8.348 2.508-7.539 4.344z" fill="#fff" stroke="#bd6b00" stroke-width=".085" stroke-linejoin="round"/><path d="M292.323 170.062c1.043 1.742 7.086-1.449 7.961-4.453-1.945 2.594-8.691 2.207-7.961 4.453z" fill="#fff" stroke="#bd6b00" stroke-width=".085" stroke-linejoin="round"/><path d="M295.089 171.414c1.113.125 3.691-1.988 4.418-3.09-2.078 1.028-4.879 2.442-4.418 3.09zM285.995 158.441c1.316.191 3.047-2.23 1.895-4.684-.579 2.446-4.418 4.231-1.895 4.684zM288.823 156.988c1.02.574 3.594-2.172 3.27-3.965-1.446 2.293-4.332 2.954-3.27 3.965z" fill="#fff" stroke="#bd6b00" stroke-width=".085" stroke-linejoin="round"/><path d="M285.808 161.023c.996.961 5.859-3.977 7.309-6.227-4.212 3.591-8.516 4.493-7.309 6.227zM284.655 163.98c.77 1.168 4.012-2.363 6.062-5.309-2.597 2.567-6.999 3.743-6.062 5.309z" fill="#fff" stroke="#bd6b00" stroke-width=".085" stroke-linejoin="round"/><path d="M284.979 161.16c.793-2.094-.523-2.43-1.121-5.035-1.172 1.441-1.043 5.426 1.121 5.035zM283.683 164.051c1.574-.438-.977-3.121-1.504-5.031-.246 3.515-.203 5.273 1.504 5.031zM282.143 166.582c1.457-.531-.82-1.859-1.051-4.793-.726 1.078-1.105 5.18 1.051 4.793z" fill="#fff" stroke="#bd6b00" stroke-width=".085" stroke-linejoin="round"/><path d="M279.976 167.199c.922-.496.539-2.891-.883-3.207-.332 1.879-.285 3.238.883 3.207z" fill="#fff" stroke="#bd6b00" stroke-width=".085" stroke-linejoin="round"/><path d="M285.995 158.441c1.316.191 3.047-2.23 1.895-4.684-.579 2.446-4.418 4.231-1.895 4.684zM288.823 156.988c1.02.574 3.594-2.172 3.27-3.965-1.446 2.293-4.332 2.954-3.27 3.965z" fill="#fff" stroke="#bd6b00" stroke-width=".085"/><path d="M285.808 161.023c.996.961 5.859-3.977 7.309-6.227-4.212 3.591-8.516 4.493-7.309 6.227zM284.655 163.98c.77 1.168 4.012-2.363 6.062-5.309-2.597 2.567-6.999 3.743-6.062 5.309z" fill="#fff" stroke="#bd6b00" stroke-width=".085"/><path d="M284.979 161.16c.793-2.094-.523-2.43-1.121-5.035-1.172 1.441-1.043 5.426 1.121 5.035zM283.683 164.051c1.574-.438-.977-3.121-1.504-5.031-.246 3.515-.203 5.273 1.504 5.031zM282.143 166.582c1.457-.531-.82-1.859-1.051-4.793-.726 1.078-1.105 5.18 1.051 4.793z" fill="#fff" stroke="#bd6b00" stroke-width=".085"/><path d="M279.976 167.199c.922-.496.539-2.891-.883-3.207-.332 1.879-.285 3.238.883 3.207zM301.952 153.242c.422-1.672-.113-2.215.348-4.836-2.516 3.371-1.574 4.965-.348 4.836z" fill="#fff" stroke="#bd6b00" stroke-width=".085"/><path d="M302.226 153.656c1.668.461 5.996-3.328 6.117-6.156-1.168 2.035-7.012 4.227-6.117 6.156zM299.511 156.152c1.141-.621.816-3.254-.215-4.141-.211 2.567-1.766 4.083.215 4.141z" fill="#fff" stroke="#bd6b00" stroke-width=".085"/><path d="M300.686 156.867c2.008.633 4.285-3.012 5.945-4.602-1.89 1.637-7.613 2.419-5.945 4.602zM297.917 158.684c1.406-.922.098-2.742-.004-6.34-1.418 2.597-1.703 6.156.004 6.34z" fill="#fff" stroke="#bd6b00" stroke-width=".085"/><path d="M298.183 159.609c.719.961 6.035-2.355 7.363-4.812-4.543 3.379-8.543 2.93-7.363 4.812zM297.655 162.605c1.301-.953-1.129-3.449-1.629-6.809.028 4.091-.527 7.2 1.629 6.809z" fill="#fff" stroke="#bd6b00" stroke-width=".085"/><path d="M299.069 161.48c.66 1.051 4.715-1.734 6.457-4.766-2.683 2.36-7.207 2.985-6.457 4.766zM294.921 166.066c1.473-.262 1.27-3.98.148-7.008-1.265 3.657-1.824 7.368-.148 7.008z" fill="#fff" stroke="#bd6b00" stroke-width=".085"/><path d="M298.616 164.039c.504.602 6.484-3.59 6.395-5.293-1.891 2.719-8.211 3.262-6.395 5.293zM291.671 169.535c2.027-.836 1.074-4.117 1.473-7.656-1.594 3.457-3.477 6.93-1.473 7.656z" fill="#fff" stroke="#bd6b00" stroke-width=".085"/><path d="M295.464 166.691c.324 1.113 5.195-.949 7.539-4.344-2.832 2.204-8.348 2.508-7.539 4.344z" fill="#fff" stroke="#bd6b00" stroke-width=".085"/><path d="M292.323 170.062c1.043 1.742 7.086-1.449 7.961-4.453-1.945 2.594-8.691 2.207-7.961 4.453z" fill="#fff" stroke="#bd6b00" stroke-width=".085"/><path d="M295.089 171.414c1.113.125 3.691-1.988 4.418-3.09-2.078 1.028-4.879 2.442-4.418 3.09z" fill="#fff" stroke="#bd6b00" stroke-width=".085"/><path d="M298.339 171.488c.367-.07.867-.195.406.379-3.648 4.512-4.699 5.758-10.016 5.121-5.371-.711-6.645-2.172-10.41-4.289-2.008-1.184-4.949-1.449-7.176-.715-1.031.344-1.66.359-.914-.387.738-.746 1.621-1.762 2.527-2.461 2.008-1.543 5.398-2.215 8.172-1.715 3.922.617 7.164 3.121 11.027 4.066 2.036.47 4.267.404 6.384.001z" fill="#fff"/><path d="M267.624 179.43c-.672.082-1.098 1.402-1.43.512-.562-1.449-.172-2.602.469-2.473.738.203 2 1.894.961 1.961z" fill="#fff" stroke="#bd6b00" stroke-width=".085"/><path d="M267.624 179.43c-.672.082-1.098 1.402-1.43.512-.562-1.449-.172-2.602.469-2.473.738.203 2 1.894.961 1.961z" fill="#fff" stroke="#bd6b00" stroke-width=".085"/><path d="M274.995 173.547c1.906.492 2.402-1.703 2.59-3.301-1.715.371-3.52 1.367-2.59 3.301zM274.237 175.496c.332 1.52 4.062-.047 4.789-2.18-2.648 1.547-5.265-.136-4.789 2.18z" fill="#fff"/><path d="M272.901 175.418c1.703.281.754-2.387.656-5.02-.956 2.145-2.312 4.793-.656 5.02zM270.749 177.941c1.852.23.68-3.344.18-5.75-.614 2.231-1.953 5.555-.18 5.75z" fill="#fff"/><path d="M271.851 178.023c.223 2.023 4.055-.242 6.293-1.484-2.95.457-6.626-.5-6.293 1.484zM269.741 180.855c.23 2.02 4.062-.242 6.293-1.488-2.949.457-6.625-.5-6.293 1.488z" fill="#fff"/><path d="M268.765 180.773c1.762.047.469-3.797-.035-6.199-.61 2.227-1.77 6.121.035 6.199zM267.245 183.234c.223 2.023 3.73.027 5.898-1.363-2.976.633-6.23-.625-5.898 1.363z" fill="#fff"/><path d="M274.995 173.547c1.906.492 2.402-1.703 2.59-3.301-1.715.371-3.52 1.367-2.59 3.301zM274.237 175.496c.332 1.52 4.062-.047 4.789-2.18-2.648 1.547-5.265-.136-4.789 2.18z" fill="#fff" stroke="#bd6b00" stroke-width=".085"/><path d="M272.901 175.418c1.703.281.754-2.387.656-5.02-.956 2.145-2.312 4.793-.656 5.02zM270.749 177.941c1.852.23.68-3.344.18-5.75-.614 2.231-1.953 5.555-.18 5.75z" fill="#fff" stroke="#bd6b00" stroke-width=".085"/><path d="M271.851 178.023c.223 2.023 4.055-.242 6.293-1.484-2.95.457-6.626-.5-6.293 1.484zM269.741 180.855c.23 2.02 4.062-.242 6.293-1.488-2.949.457-6.625-.5-6.293 1.488z" fill="#fff" stroke="#bd6b00" stroke-width=".085"/><path d="M268.765 180.773c1.762.047.469-3.797-.035-6.199-.61 2.227-1.77 6.121.035 6.199zM267.245 183.234c.223 2.023 3.73.027 5.898-1.363-2.976.633-6.23-.625-5.898 1.363z" fill="#fff" stroke="#bd6b00" stroke-width=".085"/><path d="M286.96 179.84c1.043 1.742 4.914-1.27 7.031-2.824-3.039.937-7.765.578-7.031 2.824z" fill="#fff" stroke="#bd6b00" stroke-width=".085" stroke-linejoin="round"/><path d="M283.007 181.652c.379 2 6.91.348 7.84-1.133-3.008 1.274-8.2-.597-7.84 1.133z" fill="#fff" stroke="#bd6b00" stroke-width=".085" stroke-linejoin="round"/><path d="M279.925 183.184c.207 1.094 5.195.68 7.727-.176-2.735.34-8.227-1.586-7.727.176z" fill="#fff" stroke="#bd6b00" stroke-width=".085" stroke-linejoin="round"/><path d="M277.323 184.488c.012 1.008 5.824 1.582 7.777-.047-3.906.575-8.171-2.375-7.777.047z" fill="#fff" stroke="#bd6b00" stroke-width=".085" stroke-linejoin="round"/><path d="M272.726 185.43c-.219 1.398 6.102 1.102 8.082.398-3.391-.258-7.77-2.461-8.082-.398z" fill="#fff" stroke="#bd6b00" stroke-width=".085" stroke-linejoin="round"/><path d="M272.628 184.156c1.426 1.309 5.094-4.531 6.289-7.105-2.82 2.941-7.91 5.965-6.289 7.105z" fill="#fff" stroke="#bd6b00" stroke-width=".085" stroke-linejoin="round"/><path d="M276.788 183.172c1.695 1.125 3.254-2.996 4.113-6.023-1.613 2.613-5.734 4.308-4.113 6.023z" fill="#fff" stroke="#bd6b00" stroke-width=".085" stroke-linejoin="round"/><path d="M280.069 182.039c1.695 1.125 2.652-2.605 3.059-4.938-1.16 2.008-4.688 3.223-3.059 4.938z" fill="#fff" stroke="#bd6b00" stroke-width=".085" stroke-linejoin="round"/><path d="M283.241 180.051c1.695 1.129 3.828-2 3.332-5.086-.652 3.18-4.957 3.375-3.332 5.086zM276.808 188.832c.832 2.129 9.621-1.859 11.094-4.52-2.821 2.387-11.915 2.059-11.094 4.52z" fill="#fff" stroke="#bd6b00" stroke-width=".085" stroke-linejoin="round"/><path d="M286.96 179.84c1.043 1.742 4.914-1.27 7.031-2.824-3.039.937-7.765.578-7.031 2.824z" fill="#fff" stroke="#bd6b00" stroke-width=".085"/><path d="M283.007 181.652c.379 2 6.91.348 7.84-1.133-3.008 1.274-8.2-.597-7.84 1.133z" fill="#fff" stroke="#bd6b00" stroke-width=".085"/><path d="M279.925 183.184c.207 1.094 5.195.68 7.727-.176-2.735.34-8.227-1.586-7.727.176z" fill="#fff" stroke="#bd6b00" stroke-width=".085"/><path d="M277.323 184.488c.012 1.008 5.824 1.582 7.777-.047-3.906.575-8.171-2.375-7.777.047z" fill="#fff" stroke="#bd6b00" stroke-width=".085"/><path d="M272.726 185.43c-.219 1.398 6.102 1.102 8.082.398-3.391-.258-7.77-2.461-8.082-.398z" fill="#fff" stroke="#bd6b00" stroke-width=".085"/><path d="M272.628 184.156c1.426 1.309 5.094-4.531 6.289-7.105-2.82 2.941-7.91 5.965-6.289 7.105z" fill="#fff" stroke="#bd6b00" stroke-width=".085"/><path d="M276.788 183.172c1.695 1.125 3.254-2.996 4.113-6.023-1.613 2.613-5.734 4.308-4.113 6.023z" fill="#fff" stroke="#bd6b00" stroke-width=".085"/><path d="M280.069 182.039c1.695 1.125 2.652-2.605 3.059-4.938-1.16 2.008-4.688 3.223-3.059 4.938z" fill="#fff" stroke="#bd6b00" stroke-width=".085"/><path d="M283.241 180.051c1.695 1.129 3.828-2 3.332-5.086-.652 3.18-4.957 3.375-3.332 5.086zM276.808 188.832c.832 2.129 9.621-1.859 11.094-4.52-2.821 2.387-11.915 2.059-11.094 4.52zM206.772 129.688c-.277-2.762 1.797-7.797.324-10.473-.203-.371.441-1.352.855-.758.652.949 1.316 3.648 1.594 2.652.297-1.086.348-3 1.301-3.375.613-.215 1.48-.359 1.242.605-.23.926-.758 2.207-.176 2.289.34.051 1.309-1.262 2.129-1.871.66-.539 1.641.309.68 1.117-3.132 2.607-6.171 3.778-7.949 9.814z" fill="#fff" stroke="#bd6b00" stroke-width=".085"/><path d="M206.772 129.688c-.277-2.762 1.797-7.797.324-10.473-.203-.371.441-1.352.855-.758.652.949 1.316 3.648 1.594 2.652.297-1.086.348-3 1.301-3.375.613-.215 1.48-.359 1.242.605-.23.926-.758 2.207-.176 2.289.34.051 1.309-1.262 2.129-1.871.66-.539 1.641.309.68 1.117-3.132 2.607-6.171 3.778-7.949 9.814z" fill="#fff" stroke="#bd6b00" stroke-width=".085"/><path d="M201.136 171.316c-.363-.066-.875-.191-.414.379 3.664 4.516 4.723 5.758 10.066 5.121 5.398-.711 6.688-2.168 10.465-4.289 2.012-1.184 4.961-1.449 7.199-.715 1.047.344 1.676.363.93-.387-.746-.746-1.625-1.762-2.551-2.457-2.004-1.547-5.422-2.215-8.203-1.719-3.941.617-7.195 3.125-11.082 4.074-2.047.466-4.285.396-6.41-.007z" fill="#fff"/><path d="M231.972 179.387c.68.082 1.113 1.406 1.445.508.57-1.441.172-2.598-.469-2.469-.75.203-2.027 1.894-.976 1.961z" fill="#fff" stroke="#bd6b00" stroke-width=".085"/><path d="M231.972 179.387c.68.082 1.113 1.406 1.445.508.57-1.441.172-2.598-.469-2.469-.75.203-2.027 1.894-.976 1.961z" fill="#fff" stroke="#bd6b00" stroke-width=".085"/><path d="M230.456 180.613c1.824.418 1.801-3.984-.07-5.852.82 2.829-1.371 5.415.07 5.852zM229.741 180.578c.121 2.09-5.133-.273-6.48-1.902 3.105 1.32 6.332.226 6.48 1.902zM227.436 177.59c.191 2.027-4.559.246-5.953-1.336 3.114 1.004 5.75-.332 5.953 1.336zM228.319 177.875c1.824.418 1.523-4.137-.254-5.699.856 3.039-1.191 5.262.254 5.699zM226.386 175.109c1.832.414.781-3.508-.57-5.074.218 2.86-.684 4.844.57 5.074zM225.421 175.09c.191 2.086-3.5.484-4.938-1.488 3.086 1.007 4.735-.18 4.938 1.488zM224.417 173.508c1.195-.863-.074-3.137-2.352-2.996.223 1.375 1.012 3.793 2.352 2.996zM233.417 182.945c.121 2.09-5.133 1.051-6.789-1.176 3.316.622 6.633-.496 6.789 1.176zM198.612 127.492c-.777-.82-.555-1.129.605-1.145.922-.059 2.738.562 3.43.062.641-.461.383-2.41.668-3.312.121-.504.473-1.293 1.262-.062 2.336 3.746 5.254 8.238 6.5 12.645.688 2.469.043 6.324-2.223 8.91.074-2.207-.746-3.688-1.75-5.535-1.242-2.43-5.839-9-8.492-11.563z" fill="#fff"/><path d="M208.249 147.18c2.57.016 3.012-3.43 3.012-4.395-1.262.242-3.493 2.348-3.012 4.395z" fill="#fff"/><path d="M208.249 147.18c2.57.016 3.012-3.43 3.012-4.395-1.262.242-3.493 2.348-3.012 4.395z" fill="#fff"/><path d="M230.456 180.613c1.824.418 1.801-3.984-.07-5.852.82 2.829-1.371 5.415.07 5.852zM229.741 180.578c.121 2.09-5.133-.273-6.48-1.902 3.105 1.32 6.332.226 6.48 1.902zM227.436 177.59c.191 2.027-4.559.246-5.953-1.336 3.114 1.004 5.75-.332 5.953 1.336zM228.319 177.875c1.824.418 1.523-4.137-.254-5.699.856 3.039-1.191 5.262.254 5.699zM226.386 175.109c1.832.414.781-3.508-.57-5.074.218 2.86-.684 4.844.57 5.074zM225.421 175.09c.191 2.086-3.5.484-4.938-1.488 3.086 1.007 4.735-.18 4.938 1.488zM224.417 173.508c1.195-.863-.074-3.137-2.352-2.996.223 1.375 1.012 3.793 2.352 2.996zM233.417 182.945c.121 2.09-5.133 1.051-6.789-1.176 3.316.622 6.633-.496 6.789 1.176z" fill="#fff" stroke="#bd6b00" stroke-width=".085"/><path d="M212.538 179.203c.188 2.09-5.547-.211-6.98-2.184 3.085 1.008 6.777.516 6.98 2.184zM216.058 180.098c1.199-.863-1.25-3.082-3.195-3.598.222 1.371 1.851 4.395 3.195 3.598zM216.425 181.539c.125 1.875-6.152.848-7.793-.887 5.398.977 7.613-.722 7.793.887z" fill="#fff" stroke="#bd6b00" stroke-width=".085" stroke-linejoin="round"/><path d="M219.366 182.793c.691 1.742-5.336 1.316-7.453.301 3.426-.032 6.973-1.516 7.453-.301z" fill="#fff" stroke="#bd6b00" stroke-width=".085" stroke-linejoin="round"/><path d="M222.186 184.062c.664 1.562-4.914 1.531-7.629.664 3.594-.027 6.965-2.21 7.629-.664zM226.237 184.902c.988 1.848-4.891 2.027-6.805 1.117 3.407-.468 5.961-2.574 6.805-1.117zM219.347 181.742c-1.867 1.18-1.77-2.301-3.258-4.711 2.34 2.129 4.531 3.582 3.258 4.711z" fill="#fff" stroke="#bd6b00" stroke-width=".085" stroke-linejoin="round"/><path d="M222.667 182.988c-1.57 1.391-2.824-3.383-4.25-6.062 2.305 2.551 5.703 4.91 4.25 6.062zM227.05 184.32c-1.328 1.543-5.176-4.531-6.57-7.691 2.128 2.465 7.628 6.387 6.57 7.691z" fill="#fff" stroke="#bd6b00" stroke-width=".085" stroke-linejoin="round"/><path d="M212.538 179.203c.188 2.09-5.547-.211-6.98-2.184 3.085 1.008 6.777.516 6.98 2.184zM216.058 180.098c1.199-.863-1.25-3.082-3.195-3.598.222 1.371 1.851 4.395 3.195 3.598zM216.425 181.539c.125 1.875-6.152.848-7.793-.887 5.398.977 7.613-.722 7.793.887z" fill="#fff" stroke="#bd6b00" stroke-width=".085"/><path d="M219.366 182.793c.691 1.742-5.336 1.316-7.453.301 3.426-.032 6.973-1.516 7.453-.301z" fill="#fff" stroke="#bd6b00" stroke-width=".085"/><path d="M222.186 184.062c.664 1.562-4.914 1.531-7.629.664 3.594-.027 6.965-2.21 7.629-.664zM226.237 184.902c.988 1.848-4.891 2.027-6.805 1.117 3.407-.468 5.961-2.574 6.805-1.117zM219.347 181.742c-1.867 1.18-1.77-2.301-3.258-4.711 2.34 2.129 4.531 3.582 3.258 4.711z" fill="#fff" stroke="#bd6b00" stroke-width=".085"/><path d="M222.667 182.988c-1.57 1.391-2.824-3.383-4.25-6.062 2.305 2.551 5.703 4.91 4.25 6.062zM227.05 184.32c-1.328 1.543-5.176-4.531-6.57-7.691 2.128 2.465 7.628 6.387 6.57 7.691zM223.311 188.953c-.664 2.344-10.449-2.207-11.539-4.566 5.602 2.965 11.668 2.343 11.539 4.566z" fill="#fff" stroke="#bd6b00" stroke-width=".085"/><path d="M191.874 141.344c-.23-.301-.891.004-.727.723.156.969 1.582 5.934 4.035 7.645 1.75 1.262 10.945 3.293 15.117 4.152 2.293.465 4.211 1.609 5.715 3.438-.621-2.387-1.117-4.16-1.926-6.324-.777-1.902-2.848-3.98-4.996-4.094-3.98-.141-9.145-.484-12.887-2.109-1.933-.81-3.093-1.9-4.331-3.431z" fill="#fff"/><path d="M214.706 161.008c1.254.926 2.641-2.391 1.047-5.539-.051 3.031-2.465 4.051-1.047 5.539z" fill="#fff" stroke="#bd6b00" stroke-width=".085" stroke-linejoin="round"/><path d="M215.913 164.051c1.738.531 2.281-2.539 1.133-5 .191 2.644-2.731 4.234-1.133 5z" fill="#fff" stroke="#bd6b00" stroke-width=".085" stroke-linejoin="round"/><path d="M217.237 166.488c1.676.836 2.312-2.27 1.105-4.578.13 2.945-2.402 3.813-1.105 4.578z" fill="#fff" stroke="#bd6b00" stroke-width=".085" stroke-linejoin="round"/><path d="M216.546 166.68c-.664 1.984-4.523-1.719-5.168-3.727 2.394 2.375 5.648 2.113 5.168 3.727z" fill="#fff" stroke="#bd6b00" stroke-width=".085" stroke-linejoin="round"/><path d="M214.796 163.637c-.754 1.988-5.602-3.129-6.672-5.59 2.391 2.375 7.215 4.191 6.672 5.59z" fill="#fff" stroke="#bd6b00" stroke-width=".085" stroke-linejoin="round"/><path d="M213.839 160.656c-.758 2.258-6.027-3.762-7.52-5.895 2.508 2.348 8.082 4.255 7.52 5.895zM213.671 158.426c1.852-.359-.109-1.906-2.383-4.418-.109 2.644.328 4.492 2.383 4.418z" fill="#fff" stroke="#bd6b00" stroke-width=".085" stroke-linejoin="round"/><path d="M210.538 156.918c.797-.871-.77-1.242-2.715-3.422-.285 1.469 1.805 4.164 2.715 3.422zM219.522 166.727c1.016.598 1.707-1.484.445-3.371-.288 2.042-1.374 2.609-.445 3.371z" fill="#fff" stroke="#bd6b00" stroke-width=".085" stroke-linejoin="round"/><path d="M214.706 161.008c1.254.926 2.641-2.391 1.047-5.539-.051 3.031-2.465 4.051-1.047 5.539z" fill="#fff" stroke="#bd6b00" stroke-width=".085"/><path d="M215.913 164.051c1.738.531 2.281-2.539 1.133-5 .191 2.644-2.731 4.234-1.133 5z" fill="#fff" stroke="#bd6b00" stroke-width=".085"/><path d="M217.237 166.488c1.676.836 2.312-2.27 1.105-4.578.13 2.945-2.402 3.813-1.105 4.578z" fill="#fff" stroke="#bd6b00" stroke-width=".085"/><path d="M216.546 166.68c-.664 1.984-4.523-1.719-5.168-3.727 2.394 2.375 5.648 2.113 5.168 3.727z" fill="#fff" stroke="#bd6b00" stroke-width=".085"/><path d="M214.796 163.637c-.754 1.988-5.602-3.129-6.672-5.59 2.391 2.375 7.215 4.191 6.672 5.59z" fill="#fff" stroke="#bd6b00" stroke-width=".085"/><path d="M213.839 160.656c-.758 2.258-6.027-3.762-7.52-5.895 2.508 2.348 8.082 4.255 7.52 5.895zM213.671 158.426c1.852-.359-.109-1.906-2.383-4.418-.109 2.644.328 4.492 2.383 4.418z" fill="#fff" stroke="#bd6b00" stroke-width=".085"/><path d="M210.538 156.918c.797-.871-.77-1.242-2.715-3.422-.285 1.469 1.805 4.164 2.715 3.422zM219.522 166.727c1.016.598 1.707-1.484.445-3.371-.288 2.042-1.374 2.609-.445 3.371z" fill="#fff" stroke="#bd6b00" stroke-width=".085"/><path d="M197.46 153.598c-2.156 1.289-5.578-3.867-6.496-5.988 1.894 2.433 6.906 4.656 6.496 5.988z" fill="#fff" stroke="#bd6b00" stroke-width=".085" stroke-linejoin="round"/><path d="M199.3 156.609c-1.195 1.32-4.953-2.273-6.262-4.09 2.016 1.743 6.785 1.946 6.262 4.09z" fill="#fff" stroke="#bd6b00" stroke-width=".085" stroke-linejoin="round"/><path d="M201.339 159.301c-.391 1.809-5.871-2.254-7.152-4.18 2.359 2.231 7.511 2.027 7.152 4.18z" fill="#fff" stroke="#bd6b00" stroke-width=".085" stroke-linejoin="round"/><path d="M200.499 161.258c-.848 1.625-5.305-2.406-6.375-4.508 2.727 2.379 7.059 2.895 6.375 4.508zM198.206 153.332c1.406-1.484.809-2.18-.215-4.516-.562 2.399-1.406 3.356.215 4.516zM200.073 156.133c2.551.113.027-2.992-.578-5.602.223 2.969-.656 5.317.578 5.602z" fill="#fff" stroke="#bd6b00" stroke-width=".085" stroke-linejoin="round"/><path d="M201.698 158.602c1.773-.398 1.262-2.902-.094-5.93.278 3.269-1.499 5.164.094 5.93zM201.097 163.547c-.664 1.984-5.691-2.621-6.492-4.359 2.542 2.136 6.945 2.871 6.492 4.359z" fill="#fff" stroke="#bd6b00" stroke-width=".085" stroke-linejoin="round"/><path d="M204.108 166.648c-.754 1.988-6.023-2.047-7.637-4.238 3.172 2.5 8.028 2.266 7.637 4.238z" fill="#fff" stroke="#bd6b00" stroke-width=".085" stroke-linejoin="round"/><path d="M207.179 169.777c-.84 2.77-6.355-1.652-8-3.812 3.511 2.672 8.449 1.844 8 3.812zM202.007 162.664c1.488.777 2.094-3.473 1.254-6.473.011 3.274-3.004 5.707-1.254 6.473z" fill="#fff" stroke="#bd6b00" stroke-width=".085" stroke-linejoin="round"/><path d="M204.561 166.035c1.797.535 1.227-4.043-.312-7.012-.195 2.942-1.523 5.735.312 7.012zM207.749 169.199c2.016.109.629-3.93-1.031-6.203.285 2.969-.653 5.859 1.031 6.203zM204.23 170.926c-.606 1.02-2.082-.875-4.504-2.254 2.175.57 4.773 1.301 4.504 2.254z" fill="#fff" stroke="#bd6b00" stroke-width=".085" stroke-linejoin="round"/><path d="M197.46 153.598c-2.156 1.289-5.578-3.867-6.496-5.988 1.894 2.433 6.906 4.656 6.496 5.988z" fill="#fff" stroke="#bd6b00" stroke-width=".085"/><path d="M199.3 156.609c-1.195 1.32-4.953-2.273-6.262-4.09 2.016 1.743 6.785 1.946 6.262 4.09z" fill="#fff" stroke="#bd6b00" stroke-width=".085"/><path d="M201.339 159.301c-.391 1.809-5.871-2.254-7.152-4.18 2.359 2.231 7.511 2.027 7.152 4.18z" fill="#fff" stroke="#bd6b00" stroke-width=".085"/><path d="M200.499 161.258c-.848 1.625-5.305-2.406-6.375-4.508 2.727 2.379 7.059 2.895 6.375 4.508zM198.206 153.332c1.406-1.484.809-2.18-.215-4.516-.562 2.399-1.406 3.356.215 4.516zM200.073 156.133c2.551.113.027-2.992-.578-5.602.223 2.969-.656 5.317.578 5.602z" fill="#fff" stroke="#bd6b00" stroke-width=".085"/><path d="M201.698 158.602c1.773-.398 1.262-2.902-.094-5.93.278 3.269-1.499 5.164.094 5.93zM201.097 163.547c-.664 1.984-5.691-2.621-6.492-4.359 2.542 2.136 6.945 2.871 6.492 4.359z" fill="#fff" stroke="#bd6b00" stroke-width=".085"/><path d="M204.108 166.648c-.754 1.988-6.023-2.047-7.637-4.238 3.172 2.5 8.028 2.266 7.637 4.238z" fill="#fff" stroke="#bd6b00" stroke-width=".085"/><path d="M207.179 169.777c-.84 2.77-6.355-1.652-8-3.812 3.511 2.672 8.449 1.844 8 3.812zM202.007 162.664c1.488.777 2.094-3.473 1.254-6.473.011 3.274-3.004 5.707-1.254 6.473z" fill="#fff" stroke="#bd6b00" stroke-width=".085"/><path d="M204.561 166.035c1.797.535 1.227-4.043-.312-7.012-.195 2.942-1.523 5.735.312 7.012zM207.749 169.199c2.016.109.629-3.93-1.031-6.203.285 2.969-.653 5.859 1.031 6.203zM204.23 170.926c-.606 1.02-2.082-.875-4.504-2.254 2.175.57 4.773 1.301 4.504 2.254z" fill="#fff" stroke="#bd6b00" stroke-width=".085"/><path d="M203.077 136.895c1.879-1.391.445-3.984 0-6.449-.605 2.339-2.191 5.406 0 6.449zM203.015 140.355c-2.82-.34-2.395-3.98-2.48-6.289.847 3.137 3.159 3.664 2.48 6.289zM203.456 139.879c2.387-.137 2.258-2.852 2.387-5.594-1.207 2.524-2.637 2.918-2.387 5.594z" fill="#fff" stroke="#bd6b00" stroke-width=".085" stroke-linejoin="round"/><path d="M203.362 143.246c-1.852.152-2.816-1.668-3.242-4.512 1.762 2.618 3.363 1.801 3.242 4.512zM204.034 143.023c2.379.309 2-2.465 1.902-4.508-.73 1.946-2.671 2.563-1.902 4.508z" fill="#fff" stroke="#bd6b00" stroke-width=".085" stroke-linejoin="round"/><path d="M200.315 141.852c.191 1.809 1.336 4.922 3.176 4.223.758-2.223-1.621-2.669-3.176-4.223z" fill="#fff" stroke="#bd6b00" stroke-width=".085" stroke-linejoin="round"/><path d="M204.061 146.266c-.82-1.586 1.875-2.383 2.445-4.449.333 2.956.055 4.894-2.445 4.449z" fill="#fff" stroke="#bd6b00" stroke-width=".085" stroke-linejoin="round"/><path d="M203.077 136.895c1.879-1.391.445-3.984 0-6.449-.605 2.339-2.191 5.406 0 6.449zM203.015 140.355c-2.82-.34-2.395-3.98-2.48-6.289.847 3.137 3.159 3.664 2.48 6.289zM203.456 139.879c2.387-.137 2.258-2.852 2.387-5.594-1.207 2.524-2.637 2.918-2.387 5.594z" fill="#fff" stroke="#bd6b00" stroke-width=".085"/><path d="M203.362 143.246c-1.852.152-2.816-1.668-3.242-4.512 1.762 2.618 3.363 1.801 3.242 4.512zM204.034 143.023c2.379.309 2-2.465 1.902-4.508-.73 1.946-2.671 2.563-1.902 4.508z" fill="#fff" stroke="#bd6b00" stroke-width=".085"/><path d="M200.315 141.852c.191 1.809 1.336 4.922 3.176 4.223.758-2.223-1.621-2.669-3.176-4.223z" fill="#fff" stroke="#bd6b00" stroke-width=".085"/><path d="M204.061 146.266c-.82-1.586 1.875-2.383 2.445-4.449.333 2.956.055 4.894-2.445 4.449z" fill="#fff" stroke="#bd6b00" stroke-width=".085"/><path d="M196.378 127.441c1.484-1.598.176-4.133-.273-6.602-.602 2.341-1.649 5.442.273 6.602zM196.327 130.414c-2.602.266-3.234-5.031-3.496-7.316.848 3.136 3.844 4.574 3.496 7.316zM196.866 130.371c1.844-.953 1.414-3.004 1.992-4.543-1.242 1.891-2.367 2.16-1.992 4.543z" fill="#fff" stroke="#bd6b00" stroke-width=".085" stroke-linejoin="round"/><path d="M196.355 133.836c-2.727.234-4.352-5.641-4.434-7.949.847 3.133 4.754 4.84 4.434 7.949zM196.87 133.746c2.566-.586 2.258-2.242 1.871-4.93-.812 2.704-2.242 2.129-1.871 4.93z" fill="#fff" stroke="#bd6b00" stroke-width=".085" stroke-linejoin="round"/><path d="M196.315 137.223c-2.996.512-2.781-4.23-5.168-7.672 2.063 2.554 5.77 5.777 5.168 7.672zM196.995 137.062c2.262.066 2.488-3.34 2.359-4.723-.523 1.376-3.183 2.684-2.359 4.723z" fill="#fff" stroke="#bd6b00" stroke-width=".085" stroke-linejoin="round"/><path d="M191.636 133.57c1.125 3.648 2.719 7.301 4.68 7.027.941-2.077-1.86-2.339-4.68-7.027z" fill="#fff" stroke="#bd6b00" stroke-width=".085" stroke-linejoin="round"/><path d="M197.026 140.062c-.828-1.586 1.879-2.383 2.449-4.449.325 2.957.055 4.895-2.449 4.449zM192.409 137.738c1.605 3.285 2.324 7.062 4.531 6.512.821-2.555-2.437-3.09-4.531-6.512z" fill="#fff" stroke="#bd6b00" stroke-width=".085" stroke-linejoin="round"/><path d="M197.401 143.633c-.949-1.742 1.75-2.355 2.414-4.754.36 3.137.02 5.379-2.414 4.754z" fill="#fff" stroke="#bd6b00" stroke-width=".085" stroke-linejoin="round"/><path d="M196.378 127.441c1.484-1.598.176-4.133-.273-6.602-.602 2.341-1.649 5.442.273 6.602zM196.327 130.414c-2.602.266-3.234-5.031-3.496-7.316.848 3.136 3.844 4.574 3.496 7.316zM196.866 130.371c1.844-.953 1.414-3.004 1.992-4.543-1.242 1.891-2.367 2.16-1.992 4.543z" fill="#fff" stroke="#bd6b00" stroke-width=".085"/><path d="M196.355 133.836c-2.727.234-4.352-5.641-4.434-7.949.847 3.133 4.754 4.84 4.434 7.949zM196.87 133.746c2.566-.586 2.258-2.242 1.871-4.93-.812 2.704-2.242 2.129-1.871 4.93z" fill="#fff" stroke="#bd6b00" stroke-width=".085"/><path d="M196.315 137.223c-2.996.512-2.781-4.23-5.168-7.672 2.063 2.554 5.77 5.777 5.168 7.672zM196.995 137.062c2.262.066 2.488-3.34 2.359-4.723-.523 1.376-3.183 2.684-2.359 4.723z" fill="#fff" stroke="#bd6b00" stroke-width=".085"/><path d="M191.636 133.57c1.125 3.648 2.719 7.301 4.68 7.027.941-2.077-1.86-2.339-4.68-7.027z" fill="#fff" stroke="#bd6b00" stroke-width=".085"/><path d="M197.026 140.062c-.828-1.586 1.879-2.383 2.449-4.449.325 2.957.055 4.895-2.449 4.449zM192.409 137.738c1.605 3.285 2.324 7.062 4.531 6.512.821-2.555-2.437-3.09-4.531-6.512z" fill="#fff" stroke="#bd6b00" stroke-width=".085"/><path d="M197.401 143.633c-.949-1.742 1.75-2.355 2.414-4.754.36 3.137.02 5.379-2.414 4.754zM202.018 121.383c1.582.43 3.242-1.344 2.664-4-1.808.449-2.636 2.09-2.664 4zM196.96 120.059c.137.746 1.043.812.781-.242-.219-.859-.258-1.5 0-2.195.359-.875.234-2.359-.027-2.984-.273-.656-1.16-.273-.789.242.414.59.434 1.828.156 2.41-.371.851-.27 1.98-.121 2.769z" fill="#fff" stroke="#bd6b00" stroke-width=".085"/><path d="M202.018 121.383c1.582.43 3.242-1.344 2.664-4-1.808.449-2.636 2.09-2.664 4zM196.96 120.059c.137.746 1.043.812.781-.242-.219-.859-.258-1.5 0-2.195.359-.875.234-2.359-.027-2.984-.273-.656-1.16-.273-.789.242.414.59.434 1.828.156 2.41-.371.851-.27 1.98-.121 2.769zM202.425 117.215c-.148 1.168-1.137 1.273-.855-.379.246-1.336.285-2.344 0-3.43-.387-1.363-.25-3.688.035-4.656.293-1.02 1.262-.426.848.379-.441.926-.469 2.859-.156 3.758.401 1.332.292 3.097.128 4.328zM209.792 128.883c-.613.898-1.59.375-1.039-1.066.469-1 .516-2.238 1.039-2.969.723-1.105 1.953-2.031 2.648-2.699.727-.715 1.324-.027.66.586-.801.801-1.676 1.805-2.156 2.562-.902 1.469-.504 2.644-1.152 3.586zM211.718 130.324c-.613.898-1.859.352-.91-.883.781-.996 1.887-1.816 1.973-2.848.062-1.312.828-3.293 1.527-3.965.719-.711 1.551.289.785.77-.867.562-1.43 2.871-1.41 3.762-.036 1.293-1.317 2.227-1.965 3.164z" fill="#fff" stroke="#bd6b00" stroke-width=".085"/><path d="M211.718 130.324c-.613.898-1.859.352-.91-.883.781-.996 1.887-1.816 1.973-2.848.062-1.312.828-3.293 1.527-3.965.719-.711 1.551.289.785.77-.867.562-1.43 2.871-1.41 3.762-.036 1.293-1.317 2.227-1.965 3.164zM209.792 128.883c-.613.898-1.59.375-1.039-1.066.469-1 .516-2.238 1.039-2.969.723-1.105 1.953-2.031 2.648-2.699.727-.715 1.324-.027.66.586-.801.801-1.676 1.805-2.156 2.562-.902 1.469-.504 2.644-1.152 3.586zM199.64 124.231c-.074 1.266.949 1.574.902-.262-.051-1.922-1.406-3.68-.57-6.605.434-1.434.441-4.055.176-5.445-.23-1.387-1.215-.48-.84.598.41 1.246-.078 3.641-.395 4.844-.941 3.502.781 5.213.727 6.87z" fill="#fff" stroke="#bd6b00" stroke-width=".085"/><path d="M199.64 124.231c-.074 1.266.949 1.574.902-.262-.051-1.922-1.406-3.68-.57-6.605.434-1.434.441-4.055.176-5.445-.23-1.387-1.215-.48-.84.598.41 1.246-.078 3.641-.395 4.844-.941 3.502.781 5.213.727 6.87zM202.425 117.215c-.148 1.168-1.137 1.273-.855-.379.246-1.336.285-2.344 0-3.43-.387-1.363-.25-3.688.035-4.656.293-1.02 1.262-.426.848.379-.441.926-.469 2.859-.156 3.758.401 1.332.292 3.097.128 4.328zM192.382 141.09c.488.586 1.316.191.562-.594-.617-.641-.414-.84-.785-1.613-.375-.867-.355-1.344-.801-1.961-.395-.59-.992.008-.59.504.5.586.359 1.016.664 1.582.571.965.426 1.472.95 2.082zM205.546 156.973c1.574.773 2.766 2.707 2.848 4.285.129 1.805.395 3.34 1.207 4.629-1.297-.363-1.918-2.43-2.102-4.406-.191-2.043-1.289-2.934-1.953-4.508zM208.819 160.762c1.094 2.012 2.613 2.777 2.695 4.27.129 1.719.262 1.805.723 3.492-1.281-.344-1.598-.453-1.953-3.02-.207-1.809-1.652-3.082-1.465-4.742zM282.936 166.84c.328 1.113 4.777-.918 7.035-5.363-2.956 3.23-7.753 3.195-7.035 5.363z" fill="#fff" stroke="#bd6b00" stroke-width=".085"/><path d="M282.936 166.84c.328 1.113 4.777-.918 7.035-5.363-2.956 3.23-7.753 3.195-7.035 5.363z" fill="#fff" stroke="#bd6b00" stroke-width=".085"/><path d="M290.351 160.082c-1.355 1.883-3.16 3.246-3.242 4.738-.141 1.715-.277 1.805-.758 3.492 1.34-.344 1.672-.453 2.039-3.02.222-1.808 2.164-3.55 1.961-5.21z" fill="#fff" stroke="#bd6b00" stroke-width=".085"/><path d="M290.351 160.082c-1.355 1.883-3.16 3.246-3.242 4.738-.141 1.715-.277 1.805-.758 3.492 1.34-.344 1.672-.453 2.039-3.02.222-1.808 2.164-3.55 1.961-5.21z" fill="#fff" stroke="#bd6b00" stroke-width=".085"/><path d="M292.554 157.484c-1.648.773-2.027 2.055-2.09 3.645-.031 1.836-.5 3.258-1.355 4.547 1.703.234 2.008-2.43 2.203-4.406.199-2.047.542-2.211 1.242-3.786z" fill="#fff" stroke="#bd6b00" stroke-width=".085"/><path d="M292.554 157.484c-1.648.773-2.027 2.055-2.09 3.645-.031 1.836-.5 3.258-1.355 4.547 1.703.234 2.008-2.43 2.203-4.406.199-2.047.542-2.211 1.242-3.786zM297.159 117.133c.141 1.164 1.117 1.27.832-.383-.234-1.336-.27-2.336 0-3.43.383-1.363.258-3.688-.023-4.656-.293-1.02-1.242-.422-.844.379.441.926.461 2.859.164 3.762-.402 1.328-.293 3.097-.129 4.328z" fill="#fff" stroke="#bd6b00" stroke-width=".085"/><path d="M297.159 117.133c.141 1.164 1.117 1.27.832-.383-.234-1.336-.27-2.336 0-3.43.383-1.363.258-3.688-.023-4.656-.293-1.02-1.242-.422-.844.379.441.926.461 2.859.164 3.762-.402 1.328-.293 3.097-.129 4.328zM299.897 124.145c.074 1.266-.93 1.578-.887-.266.047-1.918 1.383-3.676.562-6.602-.434-1.43-.441-4.051-.176-5.445.23-1.379 1.191-.477.828.598-.41 1.246.074 3.641.387 4.844.927 3.507-.768 5.214-.714 6.871z" fill="#fff" stroke="#bd6b00" stroke-width=".085"/><path d="M299.897 124.145c.074 1.266-.93 1.578-.887-.266.047-1.918 1.383-3.676.562-6.602-.434-1.43-.441-4.051-.176-5.445.23-1.379 1.191-.477.828.598-.41 1.246.074 3.641.387 4.844.927 3.507-.768 5.214-.714 6.871zM302.538 119.969c-.137.75-1.031.816-.77-.238.211-.855.254-1.5 0-2.199-.352-.871-.234-2.359.027-2.977.266-.656 1.141-.273.77.238-.402.598-.422 1.828-.145 2.41.36.852.266 1.985.118 2.766z" fill="#fff" stroke="#bd6b00" stroke-width=".085"/><path d="M302.538 119.969c-.137.75-1.031.816-.77-.238.211-.855.254-1.5 0-2.199-.352-.871-.234-2.359.027-2.977.266-.656 1.141-.273.77.238-.402.598-.422 1.828-.145 2.41.36.852.266 1.985.118 2.766zM297.058 121.43c-1.316.562-3.02-3.18-1.766-3.883.976-.246 3.211 3.176 1.766 3.883z" fill="#fff" stroke="#bd6b00" stroke-width=".085"/><path d="M297.058 121.43c-1.316.562-3.02-3.18-1.766-3.883.976-.246 3.211 3.176 1.766 3.883zM289.671 128.836c.59.895 1.535.379.996-1.066-.445-1-.492-2.238-.996-2.969-.699-1.109-1.883-2.031-2.562-2.699-.691-.715-1.27-.027-.629.586.77.801 1.613 1.801 2.082 2.559.867 1.476.488 2.644 1.109 3.589z" fill="#fff" stroke="#bd6b00" stroke-width=".085"/><path d="M289.671 128.836c.59.895 1.535.379.996-1.066-.445-1-.492-2.238-.996-2.969-.699-1.109-1.883-2.031-2.562-2.699-.691-.715-1.27-.027-.629.586.77.801 1.613 1.801 2.082 2.559.867 1.476.488 2.644 1.109 3.589zM288.05 129.797c.59.898 1.793.348.875-.887-.75-.996-1.824-1.812-1.906-2.848-.059-1.305-.797-3.293-1.469-3.961-.699-.715-1.508.289-.762.766.836.566 1.383 2.875 1.363 3.766.028 1.293 1.27 2.222 1.899 3.164z" fill="#fff" stroke="#bd6b00" stroke-width=".085"/><path d="M288.05 129.797c.59.898 1.793.348.875-.887-.75-.996-1.824-1.812-1.906-2.848-.059-1.305-.797-3.293-1.469-3.961-.699-.715-1.508.289-.762.766.836.566 1.383 2.875 1.363 3.766.028 1.293 1.27 2.222 1.899 3.164z" fill="#fff" stroke="#bd6b00" stroke-width=".085"/><path d="M236.315 171.566c1.781 1.426 3.465 3.047 3.973 5.062.523 1.875.84 3.312 2.047 5.176-1.891-1.203-2.637-3.023-3.195-4.996-.489-1.941-1.606-3.39-2.825-5.242z" fill="#fff"/><path d="M268.257 194.422c.031.762.121 1.375.574 1.984-2.629-1.055-6.348-.488-8.883.695-1.133.539-2.504-.621-1.172-1.719 1.883-1.53 6.258-.659 9.481-.96zm-37.106-.043c.043.719-.039 1.375-.305 2.004 2.855-1.184 5.93-.195 8.816.961 1.98.824 2.145-.594 1.789-1.09-.594-.871-1.762-1.832-3.238-1.852a461.82 461.82 0 0 0-7.062-.023zm2.422-13.961c-.801-.344-1.73-.012-2.555.863-2.797 2.73-6.07 5.398-8.715 7.473-.984.855-1.996 2.395 2.215 3.934.152.055 3.215 1.191 5.164 1.262.793-.023.793 1.164.645 1.48-.336.633-.098.871-.773 1.48-.707.594.078 1.367.629.844 2.375-2.055 6.211-.742 9.914.465.875.238 2.477.172 2.461-1.035.023-1.316.973-2.246 1.555-2.281 1.512.266 8.98.348 11.277.07 1.344-.176 1.426 1.836 2.145 2.629.496.527 2.398.668 3.703.09 2.582-1.199 6.516-1.199 8.117-.055.656.504 1.18.094.805-.414-.48-.699-.473-1.02-.711-1.574-.602-1.219-.121-1.52.508-1.609 7.137-.918 9.406-3.352 7.223-5.336-2.805-2.469-5.941-4.953-8.645-7.871-.734-.773-1.215-1.086-2.742-.449-4.656 2.121-10.57 3.668-16.363 3.781-5.38.046-12.783-2.446-15.857-3.747zM257.315 176.32a.704.704 0 0 0-.48-.746 20.85 20.85 0 0 0-1.684-.543c-.629-.148-.98.301-.98.602-.008.496-.027.918 0 1.297.031.465.121.5.414.57.473.082 1.082.16 1.559.48.379.234.738.051.93-.359.12-.316.187-.926.241-1.301zM250.495 176.32c-.047-.348.141-.684.398-.777.504-.211.996-.262 1.527-.242.582-.008.73.125.73.426.008.492.027.977 0 1.352-.027.469-.02.504-.285.574-.418.078-1.137.102-1.57.418-.332.234-.719.051-.742-.391.016-.332-.011-.985-.058-1.36zM242.214 176.234c-.055-.352.191-.66.48-.75a18.903 18.903 0 0 1 1.684-.543c.637-.152.996.301.996.602 0 .496.027.918 0 1.293-.035.469-.121.504-.422.57-.473.082-1.09.164-1.566.484-.379.23-.746.051-.934-.363-.125-.308-.191-.922-.238-1.293zM249.061 176.234c.051-.352-.141-.688-.398-.781-.5-.211-1.004-.262-1.531-.242-.59-.008-.742.121-.742.422-.004.496-.027.977 0 1.355.027.465.023.504.285.57.43.078 1.152.102 1.582.422.34.234.727.051.746-.391a11.52 11.52 0 0 1 .058-1.355z" fill="#fff"/><path d="M267.022 180.797a4.616 4.616 0 0 0-1.074.262c-5.758 2.023-11.039 3.438-16.555 3.426-5.375-.008-11.004-1.488-16.062-3.566-.293-.125-.617-.105-.949-.02-.328.082-.652.234-.863.441-2.351 2.34-4.895 4.613-7.621 6.676-.414.312-.348 1.113.316 1.387h.023c5.355 1.926 10.59 5.508 25.566 5.367 15.113-.145 20.481-3.641 25.281-5.242.34-.129.684-.324.848-.625a.694.694 0 0 0 .039-.527c-.066-.184-.184-.355-.406-.543h-.02c-2.719-2.227-5.645-4.004-7.562-6.711-.211-.31-.59-.364-.961-.325zm.02.277c.324-.027.574.023.703.207 1.961 2.777 4.918 4.562 7.617 6.773.195.164.285.312.324.422a.306.306 0 0 1-.02.281c-.094.184-.379.371-.684.488-4.863 1.621-10.113 5.098-25.18 5.242-14.914.137-20.062-3.422-25.465-5.367-.488-.199-.441-.746-.266-.887 2.738-2.066 5.309-4.348 7.664-6.691.16-.16.418-.289.703-.363.285-.074.59-.082.789 0 5.086 2.09 10.719 3.598 16.144 3.609 5.562.012 10.914-1.422 16.676-3.449.288-.105.663-.23.995-.265z" fill="#bd6b00"/><path d="M230.3 83.395c-.043-.891 1.336-.957 1.18.266-.203 1.523 2.875 5.383 3.125 7.762.176 1.594-.938 2.992-2.027 3.859-1.352 1.043-3.418.898-4.387.301-.586-.469-1.121-2.086-.68-2.723.156-.215.855 2.367 2.402 2.359 2.102-.016 3.805-1.594 3.863-3.004.11-2.449-3.437-6.328-3.476-8.82zM236.448 89.453c.355-.25.902.836.516 1.105-.324.216-.961-.808-.516-1.105zM237.386 87.25c-.176.086-.531-.035-.422-.18.488-.707 1.539-1.766 2.301-2.133.23-.113.637.301.5.5-.454.653-1.559 1.419-2.379 1.813zM245.511 80.805c.195-.41 1.363-.867 1.66-1.141.277-.281.406.234.293.484-.199.406-1.207 1.094-1.648 1.113-.239.009-.423-.21-.305-.456zM248.288 80.934c.254-.715 1.074-1.797 1.637-2.152.293-.184.805-.039.711.234-.215.605-1.219 1.664-1.891 2.164-.203.183-.515-.078-.457-.246zM245.901 82.727c-.168.082-.074.441.09.496.344.117.977.141 1.27-.02.414-.254.223-1.836-.332-.992-.375.52-.653.355-1.028.516zM241.202 86.344c-.852-.66.227-1.59 1.113-.941 1.734 1.305-2.578 6.309-4.93 8.648-.43.457-.801-.695-.25-1.191 1.68-1.43 3.254-3.133 4.352-4.895.211-.34.406-1.074-.285-1.621zM251.05 82.043c.109-.633-1.023.016-1.043-.828-.008-.441 1.238-.754 1.754-.242.883.891.227 2.395-1.238 2.492-1.223.055-3.258 1.73-2.945 2.086.352.434 3.516.723 5.359.434 1.137-.16.895.859-.273.996-1.125.133-2.039.012-3.098.344-1.242.352-1.777 2.016-2.469 2.637-.156.109-.57-.543-.414-.789.504-.777 1.297-1.965 2.164-2.309.547-.219-1.52-.289-2.176-.477-.523-.16-.375-.824-.172-1.195.266-.578 2.211-2.523 3-2.492.738.027 1.484-.184 1.551-.657zM254.331 82.211c.367-.32.559-.859.945-1.191.211-.211.543.039.488.551-.047.402-.586.742-.949 1.051-.293.214-.64-.259-.484-.411zM258.511 80.723c.543-.059.676.996.082 1.164-.36.121-.68-1.098-.082-1.164zM257.132 83.977c-.012.906.434.82 1.289.789.828-.031 1.562.023 1.555-.797 0-.848-.469-1.586-.605-1.012-.121.543-.215 1.43-.527 1.047-.301-.332-.184-.406-.691.137-.285.305-.32-.145-.488-.426-.123-.168-.533.137-.533.262zM251.186 88.602c-.203 1.195-.019 2.875.598 2.894.758.02 2.324-2.621 3.062-3.992.449-.77 1.215-.898.895-.102-.48 1.234-.438 3.867-.012 4.645.223.418 1.914-.383 2.184-.977.496-1.082.09-3.074.266-4.289.082-.797.812-.969.777-.227-.074 1.324-.203 3.754-.105 4.855.055.633 1.863 1.57 2.156-.352.156-1.207.777-2.398-.027-3.734-.504-.84.73-.734 1.395.41.461.777-.391 2.062-.359 3.062.074 1.527-1.117 2.398-1.98 2.414-.77.02-1.273-.93-1.902-.945-.707-.043-1.426 1.094-2.008 1.055-2.246-.156-1.059-3.441-1.742-3.48-.762-.047-1.664 3.219-2.598 3.102-.93-.109-1.887-2.66-1.5-3.742.342-1.004 1.002-1.238.9-.597zM262.077 83.414c-1.098-.668.066-2.41.605-1.797 1.035 1.238 2.082 4.184 2.805 4.426.469.152.441-2.176.766-3.234.211-.781 1.16-.527.977.477-.059.336-1.234 4.145-1.145 4.293.82 1.625 1.621 3.277 2.129 5.023.211.754-.691.246-.801.09-.574-.863-1.586-4.164-1.586-4.012-.469 2.32-.574 3.008-1.062 4.98-.156.629-1.086.516-.875-.598.203-.914 1.531-5.414 1.457-5.547-1.047-1.843-2-3.304-3.27-4.101z" fill="#fff"/><path d="M264.058 94.125c-.312-.039-.785.68.738.961 2.035.367 4.266-.316 4.953-2.312.777-2.383 1.293-4.633 1.707-5.48.508-.992 1.16-.91.68-2.355-.34-1.039-.977-.727-1.105-.172-.359 1.52-1.711 6.422-2.129 7.324-.798 1.651-2.403 2.304-4.844 2.034z" fill="#fff"/><path d="M268.132 86.297c-.215-.465-.723-.102-.637.41.055.465.43.715.809.699.445-.016 1.391.016 1.391-.723 0-.523-.41-.957-.715-.387-.29.524-.665.47-.848.001zM268.643 84.344c-.156.105-.016.688.168.68.664-.023 1.605-.238 2.117-.586.148-.105.078-.453-.129-.445-.64.019-1.663.003-2.156.351zM274.292 85.801c.48-.754 1.809-.828 1.336.242-.34.742-3.648 7.137-4.105 7.945-.488.914-.895.461-.539-.246.472-.918 3.159-7.722 3.308-7.941z" fill="#fff"/><path d="M269.311 95.313c-.141-.508-.926-1.262-.84.102.156 2.469 3.555 1.688 4.578.809.938-.828.121 2.789 1.363 3.176.684.219 1.965-.715 2.605-1.531 1.75-2.273 2.859-5.535 4.551-7.781.637-.879-.348-1.504-.746-.809-1.465 2.465-3.289 7.477-5.277 8.781-1.621 1.035-1.141-1.336-1.199-2.047-.07-.527-.707-1.297-1.555-.59-.598.461-1.52.844-2.352.77-.487-.029-.897-.025-1.128-.88z" fill="#fff"/><path d="M275.37 90.731c.02-.141-.719-.203-.68.508.02.531.66.672.766.598.992-.724-.215-.364-.086-1.106zM273.925 93.621c-.195.051-.379.672.082.711.418.027 2.074-.149 2.527-.121.301-.016.41-.578-.223-.547-.765.035-1.777-.152-2.386-.043zM284.858 92.887c.676-2.535 2.316.395.875 1.84-2.234 2.184-2.902 6.355-6.445 6.984-.957.207-2.637-.43-3.133-.781-.195-.137.129-1.043.727-.602.859.672 2.637.824 3.582.059 2.012-1.977 3.648-4.59 4.394-7.5zM233.952 82.879c.266.012.984.945.938 1.234-.035.137-.766-.023-.996-.211-.172-.144-.102-1.031.058-1.023zm-3.465 6.742c-.656.359.109 1.066.598.766 1.844-1.195 4.617-2.449 5.195-4.816.184-.801.93-2.031 1.641-2.305.684-.266 1.676 1.234 2.32.051.379-.672 1.715.445 2.035-.277.391-.875.207-1.352.223-2.191-.027-.547-.449-.711-.754.18-.156.398.027.805-.102 1.016-.094.16-.398.312-.574.18-.164-.121-.055-.465-.441-.613-.156-.078-.402-.145-.504.055-.469.828-.727 1.602-1.375.719-.578-.762-.867-2.07-1.297-.273-.156.633-1.113 1.551-1.68 1.551-.715 0-.539-1.867-2.09-1.582-.801.168-.746 1.699-.633 2.266.199.789 2.539.227 2.422.742-.398 1.777-2.882 3.48-4.984 4.531zM215.847 98.137c-.102.301.297 1.113.703 1.172.41.031.613-.879.484-1.172-.098-.215-1.121-.211-1.187 0zM217.991 101.289c-.258-.281-1.027.473-.402 1 .348.281 1.613.691 1.969.098.465-.766-.469-3.539-.051-3.906.32-.289 1.82 1.852 2.566 2.004 1.734.242 1.32-2.98 3.191-2.758 1.277.172 1.418-1.43 1.242-2.426-.141-.957-1.695-2.336-2.398-2.953-.938-.781-1.359.574-.773 1.02.758.609 2.086 1.832 2.305 2.645.102.383-.93 1.137-1.301.934-.875-.473-1.691-2.516-2.449-2.98-.258-.16-.895.195-.59.84.344.68 1.871 1.734 1.961 2.465.086.66-.68 2.094-1.184 2.094-.547 0-1.953-1.73-2.387-2.551-.215-.391-.977-.352-1.059.188-.129.812.117 2.527.312 3.586.154 1.005-.565 1.052-.952.7zM215.358 95.758c-.219.25.516.73.656.609.285-.246 1.379-1.488 1.168-1.926-.191-.387-1.688-1.238-1.934-.82-.453.731 1.41 1.055 1.121 1.27-.143.086-.659.441-1.011.867zM218.058 90.305s.469 1.605.855.934c.305-.465-.855-.934-.855-.934zM218.823 92.859c-.168.094-.656.477-.34.68.496.293 1.852.527 1.562-.438-.18-.566 2.047.016 1.504-1.52-.141-.426-.812-1.043-1.145-1.129-.211-.055-.918.336-.477.551.324.168 1.309.742.941 1.125-.414.391-.703-.176-1.211-.086-.258.047-.098.781-.238.988-.08.107-.451-.249-.596-.171zM222.358 86.75c-.285.141-.789.902-.801 1.254-.016.188.188.445.352.367.293-.148.754-.867.766-1.199.015-.207-.149-.512-.317-.422zM224.186 86.555c-.543-.66.578-1.645 1.078-.32.309.836 3.543 5.094 4.207 6.539.469.977-.02 1.383-.598.68-1.64-2.095-2.983-4.696-4.687-6.899zM227.511 86.641c.578-.625 1.758-1.902 1.438-2.613-.242-.613-.957-.555-1.086-.41-.695.832.504.625.328.91-.355.668-.715 1.039-.898 1.684-.04.151.108.542.218.429z" fill="#fff"/><path d="M277.69 88.734c-.414-.336.406-1.965.969-1.324 1.523 1.766 2.238 7.508 2.68 11.801 0 0-.695.574-.695.484-.001-2.293-.922-9.289-2.954-10.961z" fill="#fff"/><path d="M278.624 98.762c.277-.77 3.949-6.926 4.43-8.281.242-.656 1.293 1.121.27 2.078-.902.812-3.574 5.184-4.066 6.715-.228.691-.927.363-.634-.512zM243.433 83.149c-.492-1.133.742-1.555.93-.746.855 3.73 2.91 6.555 4.477 9.094.469.789.094 1.266-1.051.535-.793-.543-1.602-2.527-1.988-2.605-.703-.129-2.398 3.223-5.852 2.266-.895-.254-.832-2.906-.855-4.082-.031-.551.57-.695.598.051.027 1.086-.008 3.336 1.379 3.41 1.129.059 3.633-1.535 4.164-2.781.463-1.283-1.263-3.834-1.802-5.142z" fill="#fff"/><path d="M278.624 98.762c.277-.77 3.949-6.926 4.43-8.281.242-.656 1.293 1.121.27 2.078-.902.812-3.574 5.184-4.066 6.715-.228.691-.927.363-.634-.512z" fill="#fff"/><path d="M284.858 92.887c.676-2.535 2.316.395.875 1.84-2.234 2.184-2.902 6.355-6.445 6.984-.957.207-2.637-.43-3.133-.781-.195-.137.129-1.043.727-.602.859.672 2.637.824 3.582.059 2.012-1.977 3.648-4.59 4.394-7.5zM248.081 101.109c-.164.18-.645.152-.691.406-.191.961 0 1.441-.211 2.359-.203.883-.816.914-.773.199.055-.934.828-2.246.277-2.332-.359-.086-.637-.566-.266-.809.707-.488 1.086-.414 1.566-.269.172.056.219.306.098.446z" fill="#fff"/><path d="M247.585 99.863c-.938.816-1.805 1.148-2.664 2.184-.348.418-.34 1.012-.551 1.547-.211.578-.883.691-1.09.57-.355-.234-.309-1.293-.695-.723-.336.527-.547 1.254-1.043 1.242-.441-.008-1.274-.914-.856-.961 1.453-.148 1.438-1.312 1.981-1.391.613-.078.652.965 1.031.754.293-.148.434-1.367.754-1.691.984-1.008 1.762-1.539 2.773-2.277.508-.406.868.324.36.746zM250.987 102.992c-.746.148-.617 1.113-.398 1.23.359.168.922.242 1.133-.863.094-.457.184 2.258 1.18 1.211.57-.633 1.992.113 2.586-.68.426-.531.555-.902.23-1.684-.105-.238-.68-.125-.652.457.035.488-.348 1.086-.828.984-.238-.047.129-1.191-.109-1.504-.129-.172-.332-.152-.461.027-.176.246.184 1.344-.414 1.492-.758.176-.359-.738-.676-.902-1.04-.518-1.134.139-1.591.232zM256.827 101.145c.551-.156.375-.156 1.242-.863.332-.254.398.492.367.785-.07.5-.66.148-.844.59-.27.57-.16 1.902-.25 2.445-.059.273-.508.25-.555.031-.121-.66.094-1.305.074-2.133-.007-.281-.405-.719-.034-.855zM253.608 99.453c-.137.598-.125 1.09-.125 1.5.027.332.641.121.633.074-.027-.523.086-1.25-.062-1.453-.086-.109-.418-.234-.446-.121z" fill="#fff"/><path d="M306.604 140.379c-.039.227.578.57.727.395.664-.801 1.531-2.367 1.715-3.312.055-.277-.832-.59-1.023-.363-.626.745-1.227 2.288-1.419 3.28z" fill="#fff" stroke="#bd6b00" stroke-width=".085"/><path d="M244.565 171.824c0 .383-.055.93-.176 1.652h-.262c0-.492-.023-.871-.07-1.137a5.337 5.337 0 0 0-.258-.941 4.341 4.341 0 0 0-.352-.785 7.129 7.129 0 0 0-.605-.871l.531-1.32c.25.316.426.559.527.73.117.191.23.441.332.738.109.293.191.605.246.93.06.325.087.66.087 1.004M248.757 169.27c0 .406-.074.703-.223.91-.156.199-.414.344-.781.43.102.371.176.664.211.875a4.26 4.26 0 0 1 .02 1.238c-.012.191-.047.445-.094.77h-.242c0-.289-.016-.539-.051-.742a3.726 3.726 0 0 0-.129-.594c-.02-.047-.094-.25-.23-.609a6.394 6.394 0 0 0-.406-.902c-.133-.234-.344-.57-.648-.996l.41-1.242c.219.316.41.535.578.652a.963.963 0 0 0 .582.176c.488 0 .727-.262.727-.793h.258c0 .172 0 .32.008.434.01.111.01.244.01.393M252.608 172.184l-.309 1.293c-.199-.055-.355-.207-.484-.461a2.733 2.733 0 0 1-.223-.797 8.302 8.302 0 0 1-.062-1.004c-.262.07-.465.105-.621.105-.301 0-.551-.078-.754-.238a.747.747 0 0 1-.293-.605c0-.527.137-1.004.406-1.422.274-.422.586-.633.926-.633.262 0 .445.074.547.223.117.168.191.352.219.562.02.211.031.613.031 1.215 0 .539.051.918.129 1.141.074.171.231.378.488.621m-1.164-2.149c-.055-.328-.227-.492-.516-.492a.624.624 0 0 0-.352.105c-.109.066-.164.129-.164.176 0 .176.211.262.625.262.134 0 .271-.016.407-.051M256.686 171.867l-.156 1.566c-.312-.215-.59-.605-.855-1.168-.27-.59-.551-1.426-.828-2.508-.242 1.043-.434 1.809-.59 2.293-.156.48-.305.828-.453 1.027a1.96 1.96 0 0 1-.48.41l.031-1.504c.285-.391.484-.684.598-.887a4.55 4.55 0 0 0 .422-1.059c.109-.402.211-.945.297-1.625h.285c.176.68.348 1.223.508 1.625.156.379.332.715.535 1.008.143.205.374.475.686.822" fill="#fff"/><path d="M268.542 186.68c.207.242.352.484.438.719.082.234.145.566.18 1l-.469.043a4.846 4.846 0 0 0-.578-.918 11.73 11.73 0 0 0-.699-.719 27.252 27.252 0 0 0-.98-.91c-.34-.297-.77-.641-1.289-1.031a2.263 2.263 0 0 1-.348-.293c-.074-.082-.137-.25-.176-.504a6.05 6.05 0 0 1-.082-.949l1.637 1.328c.609.512 1.125.957 1.523 1.344.312.3.589.597.843.89m-5.801-3.496l-.094 1.203-1.926-.055.141-1.227 1.879.079m5.067 5.378l-4.586 1.398-.848-1.168 3.969-1.211a6.028 6.028 0 0 0-.422-.52 1.799 1.799 0 0 0-.52-.359.89.89 0 0 1-.277.582 1.604 1.604 0 0 1-.66.375 2.099 2.099 0 0 1-1.051.047c-.352-.078-.609-.23-.781-.465-.242-.332-.371-.785-.391-1.344-.016-.613.148-.973.508-1.082.461-.145 1.086-.016 1.871.383.793.398 1.398.887 1.816 1.473l1.372 1.891m-3.528-2.449a2.286 2.286 0 0 0-.516-.18.685.685 0 0 0-.344.004.419.419 0 0 0-.277.227c-.051.105-.035.215.039.316.047.07.121.113.238.133a.801.801 0 0 0 .367-.035.596.596 0 0 0 .254-.145c.083-.074.157-.179.239-.32m-4.91-.937l-.277 1.191-1.906-.176.285-1.203 1.898.188m4.523 4.64l-1.016.238a3.192 3.192 0 0 1-1.039.074 2.152 2.152 0 0 1-.914-.309c-.172.309-.469.566-.891.773a4.575 4.575 0 0 1-.977.336l-.723.164-.664-1.215.723-.164c.383-.086.637-.16.781-.219.141-.066.32-.172.527-.32a3.606 3.606 0 0 0-.562-.293.79.79 0 0 0-.461-.051.243.243 0 0 0-.129.066.405.405 0 0 0-.074.16l-.316.039c-.293-.535-.359-.953-.199-1.246.164-.301.551-.52 1.176-.66.637-.148 1.18-.18 1.625-.102.461.078.762.258.918.539a.813.813 0 0 1 .094.473c-.02.156-.102.387-.238.684a.85.85 0 0 0 .332.078c.129.004.246 0 .348-.023l1.016-.234.663 1.212m-4.867 1.133l-.992.156c-.555.09-1.008.004-1.363-.254-.398-.281-.738-.809-1.023-1.578l-.488-1.309c-.113-.301-.266-.52-.453-.668-.09-.07-.277-.16-.559-.277l.34-1.27c.367.203.652.414.848.637.23.258.43.602.59 1.035l.34.91c.238.641.469 1.07.691 1.301.176.184.379.258.609.223l.992-.152.468 1.246m-4.246-4.554l-.637 1.129-1.82-.418.652-1.141 1.805.43m1.059 5.109l-4.523.41-.277-1.277 3.805-.344a1.44 1.44 0 0 0-.41-.512c-.086-.074-.285-.199-.594-.379l.336-1.168c.422.234.727.492.918.77.195.277.359.707.48 1.273l.265 1.227m-3.637.578a10.4 10.4 0 0 1-1.348-.121 6.613 6.613 0 0 1-1.047-.273 3.566 3.566 0 0 1-.773.23 6.1 6.1 0 0 1-.996.027l-1.188-.039c-.324-.012-.582-.078-.766-.191-.176-.117-.332-.309-.461-.566a2.462 2.462 0 0 1-.941.539 3.167 3.167 0 0 1-1.023.109l-1.047-.031.102-1.289 1.047.035c.508.02.941-.059 1.293-.234.461-.23.715-.594.754-1.082l.477.059c-.016.102-.035.215-.055.348-.02.125-.043.27-.047.426-.016.164.059.301.223.41a.974.974 0 0 0 .57.18l.895.031c.59.02 1.016-.02 1.281-.117.312-.121.488-.359.516-.711a.29.29 0 0 1 .121-.199 2.37 2.37 0 0 1 .285-.145l.293-.133v.246c-.008.102-.008.168-.008.199a3.15 3.15 0 0 1-.176.684c.176.062.371.121.598.168.215.047.453.09.695.121.008-.109-.039-.254-.148-.426-.109-.172-.16-.293-.156-.348.008-.082.027-.148.07-.191.012-.012.066-.062.168-.137l.664-.527c.117.203.191.391.23.555.047.164.062.367.043.609l-.145 1.784m-6.863-5.281l-1.145.805-.863-.531-.848.633-1.133-.684 1.078-.77.918.512.887-.648 1.106.683m-1.797 4.922l-4.426-.727.48-1.246 3.723.609a1.07 1.07 0 0 0-.074-.574c-.043-.09-.156-.254-.34-.492l.988-1.004c.258.316.387.629.41.938.02.305-.074.742-.301 1.301l-.46 1.195m-3.731-.575l-.953-.23c-.539-.129-.844-.363-.918-.707-.082-.375.09-.938.508-1.684l.727-1.262c.164-.285.23-.527.199-.715-.016-.09-.09-.234-.227-.434l1.379-.93c.129.301.184.578.156.832-.035.301-.172.66-.41 1.078l-.5.871c-.352.621-.535 1.066-.543 1.336-.008.215.094.352.32.406l.953.23-.691 1.209m-2.269-4.796l-1.555.66-1.062-1.043 1.566-.66 1.051 1.043m-.66 4.015c-.324.383-.645.668-.949.859a2.536 2.536 0 0 1-1.043.355c-.379.047-.863.027-1.438-.07a8.896 8.896 0 0 1-1.684-.414c-1.031-.371-1.726-.777-2.082-1.227-.352-.441-.336-.887.043-1.34a4.173 4.173 0 0 1 1.16-.957c.492-.281 1.266-.602 2.312-.961l.234.312c-.82.316-1.383.559-1.695.723a2.41 2.41 0 0 0-.738.582c-.242.289-.211.609.109.965.332.359.883.672 1.66.953.766.273 1.5.41 2.184.406.688-.008 1.149-.148 1.379-.426.148-.168.242-.359.289-.559.055-.199.09-.543.102-1.02l1.508-.922c0 .461-.02.77-.062.926-.082.285-.27.613-.582.984l-.707.831" fill="#bf0000"/><path d="M249.55 93.477l-.941 3.609-1.309-2.418v2.477l-2.82-3.344.976 3.59-2.539-2.156 1.351 2.438-4.496-2.902 2.863 3.348-3.602-1.777 2.574 2.18-5.887-2.219 5.684 2.801c2.082-1.023 4.93-1.652 8.105-1.652 3.152 0 6.023.637 8.098 1.652 0 0 .035-.004.039 0l5.645-2.801-5.805 2.238 2.535-2.199-3.559 1.754 2.82-3.324-4.504 2.902 1.355-2.438-2.535 2.156.984-3.59-2.828 3.367.039-2.5-1.309 2.418-.934-3.61z" fill="#fff"/></g></svg>