<svg xmlns="http://www.w3.org/2000/svg" viewBox="0 0 499.839 277.402"><path fill="#ec1c2e" d="M499.839 277.402V-.375h-500v277.777h500z"/><path d="M249.839 78.977c-2.707-.449-2.781-1.27-1.418-3.156.582-.797.109-1.266-1.777-.723-1.398.406-2.973-1.523-3.676-2.414-.652-.82-.586-.965.191-.965.777 0 2.227-.68 2.613-1.168.387-.48.293-1.062-.773-.871-1.062.195-4.223-1.398-5.422-2.996-.578-.777-.68-1.16.293-1.453.969-.293 1.934-.875 2.613-1.356.676-.484.289-1.066-.969-1.262-1.258-.191-4.004-1.66-5.227-3.195-.387-.484-.773-1.062.387-1.355 1.156-.289 3.965-2.223 4.742-3.289.777-1.062.871-2.227-1.356-1.258-2.23.965-6.676 1.258-9.293.68-5.516-2.617-13.551-6.004-16.652-1.066-5.227-.293-11.52-.582-10.355 5.902 1.039-.098 1.609-.691 1.934-1.352.461-.941 2.016-1.109 3.484-.582 1.281.461 2.328 1.137 1.383 2.277-.484.582-2.375.863-3.535.582-1.164-.289-3.32-.637-4.574-.777-.844-.098-2.516-1.16-3.293-2.664-.777-1.496-2.754-3.289-4.016-2.227-1.258 1.066.242 2.859 1.496 3.973 1.262 1.113 3.824 2.516 5.184 2.516 1.793 0 3.531.438 4.453.629.434 3.414 4.938 4.969 8.707 4.871 3.781-.098 8.766 1.734 13.363 5.531C234.3 76.731 238.515 93 228.448 93c-6.293 0-5.324-6.297-5.137-9.879.199-3.582-1.742-7.457-6-9.004-4.258-1.547-12.973-4.551-15.391-5.906-.969-.676-1.992 1.719-2.129 3.105-.098.961-1.188 1.047-4.262.09-8.711-2.711-16.652-7.355-20.426-14.523-3.777-7.156-10.895-.117-7.359 5.906 4.262 7.266 18.492 13.168 27.496 14.332 4.18.539 4.145 5.539.191 6.094-8.227 1.164-16.277 1.004-21.301-5.516-3.867-5.035-7.68-.504-5.996 3.484 3.578 8.52 15.734 12.109 27.59 6.395 2.805-1.359 5.816-1.129 3.387 2.223-6.102 8.422-14.219 9.723-24.398 3.484-3-1.84-5.32-1.547-5.996-.383-1.191 2.035-1.734 3.883 1.742 6.383 7.645 5.52 16.504 5.129 23.617 1.457 2.812-1.457 7.941-2.613 3.391 3.391-4.551 6-16.168 9.098-20.906 5.707-4.75-3.391-10.656-.293-6.879 4.938 3.777 5.227 11.617 3.871 15.199 1.938 3.582-1.938 9.102-4.551 11.422-5.617 2.324-1.066 3.41.75.777 3.777-5.906 6.777-11.992 12.465-20.234 9.777-4.742-1.551-9.102-1.742-7.84 4.066 1.258 5.809 11.035 6.199 15.875 3.289 4.84-2.902 9.195-6.195 12.098-9 2.902-2.809 5.848-2.703 2.617 2.031-7.262 10.648-13.461 18.445-23.816 16.457-9.582-1.836-7.199 3.91-5.133 5.711 5.914 5.129 16.27 3.777 28.66-11.422.969-1.188 2.59-.844 1.742 1.355-5.52 14.23-14.719 23.426-23.621 21.199-4.637-1.156-9.156 1.418-4.457 5.516 5.324 4.648 15.008 2.906 21.98-4.836 6.969-7.746 11.227-13.262 12.777-16.168 1.551-2.906 3.871-3 3.578.773-.285 3.781-3.098 11.133-8.031 13.551-2.555 1.258-4.84 4.07 0 6.199 4.84 2.129 10.551-6.484 15.195-19.07.547-1.477 3.75-1.848 3.684.965-.102 3.973-2.035 7.262-4.164 9.199-2.133 1.938-.465 5.176 2.418 3.871 4.066-1.836 6.633-4.539 8.227-8.617.875-2.227 2.844-2.988 1.746.488-3.293 10.453-10.648 15.484-20.332 20.328 1.457 1.457 2.758 3.051 4.066 4.355-5.953 3.047-12.195 5.082-17.137 7.113-3.918-2.609-7.402-4.066-9.145-6.535-.582-3.336-4.645-4.789-7.262-3.336-4.5-1.742-7.695-1.309-7.988 2.902 2.613-.438 4.793-.875 6.68.871.871 2.031 3.633 3.047 6.246 2.18 2.902 1.742 5.371 3.488 7.113 4.645-5.516-.141-9.582-.434-12.488-.727-2.758-2.758-5.371-2.758-7.402-.871-3.34-.723-5.953.824-6.828 3.73 2.516-.293 4.844-1.164 6.488-.293 1.355 2.516 5.129 2.617 7.551.773 3.676-.09 10.844-.191 12.488-.191a3414.837 3414.837 0 0 1-6.777 4.066c-5.711-1.16-8.809 1.066-8.422 5.227-1.352 2.129-1.262 5.129.387 6.488.387-1.742 1.355-3.969 2.711-5.227 3.484.68 6-.484 7.066-4.359 2.223-1.449 5.133-3.289 6.293-4.062 1.16-.773 2.09-1.668 4.746-.484 2.613 1.16 5.035 2.125 6.582 3 .867 3.387 4.16 3.582 6.289 2.031 1.359.777 2.52 2.133 3.293 3.582 1.258-2.227.582-5.223-1.84-6-.871-2.613-3.969-3.484-6.195-2.227-1.84-.773-4.453-2.035-5.613-2.52 3.773-1.355 13.359-4.934 16.75-6.391 3.191 2.422 6.773 4.746 9.387 4.07.387-2.328 1.586-4.238 3.195-7.555 2.566-5.277 5.762-10.211 8.375-13.262 2.613-3.051 5.258-1.301 5.082 2.906-.438 10.16-7.941 25.363-18.973 25.941-3.773.203-5.281.969-3.199 3.773 1.941 2.617 7.941 2.957 11.281.488 3.34-2.469 4.5-2.324 3.824.969-.68 3.289-4.457 4.543-7.262 4.746-4.066.289-8.715 1.738-4.938 5.227 3.773 3.48 9.973 1.547 14.523-3.684 1.582-1.809 2.82-2.324 2.711.582-.195 5.035-3.195 8.227-6.297 8.906-3.094.68-6.191 1.496-5.32 3.297 1.453 3 6.293 3.477 9 2.031 2.711-1.457 5.617-4.164 6.199-5.812.582-1.645 1.766-.707 1.449 1.547-.676 4.844-4.066 4.746-4.066 8.719 0 3.965 3.297 7.844 7.164 12.195 3.875-4.352 7.164-8.23 7.164-12.195 0-3.973-3.387-3.875-4.062-8.719-.316-2.254.871-3.191 1.453-1.547.578 1.648 3.48 4.355 6.191 5.812 2.715 1.445 7.547.969 9.008-2.031.867-1.801-2.234-2.617-5.324-3.297-3.102-.68-6.105-3.871-6.301-8.906-.109-2.906 1.133-2.391 2.715-.582 4.547 5.23 10.746 7.164 14.516 3.684 3.777-3.488-.867-4.938-4.934-5.227-2.797-.203-6.582-1.457-7.258-4.746-.68-3.293.48-3.438 3.824-.969 3.336 2.469 9.34 2.129 11.277-.488 2.074-2.805.578-3.57-3.195-3.773-11.039-.578-18.539-15.781-18.973-25.941-.184-4.207 2.469-5.957 5.082-2.906 2.609 3.051 5.809 7.984 8.375 13.262 1.609 3.316 2.805 5.227 3.191 7.555 2.609.676 6.199-1.648 9.391-4.07 3.391 1.457 12.977 5.035 16.754 6.391-1.168.484-3.777 1.746-5.625 2.52-2.219-1.258-5.32-.387-6.191 2.227-2.418.777-3.094 3.773-1.84 6 .777-1.449 1.938-2.805 3.293-3.582 2.129 1.551 5.422 1.355 6.293-2.031 1.551-.875 3.973-1.84 6.582-3 2.656-1.184 3.582-.289 4.742.484 1.16.773 4.07 2.613 6.293 4.062 1.066 3.875 3.582 5.039 7.066 4.359 1.359 1.258 2.324 3.484 2.711 5.227 1.648-1.359 1.738-4.359.391-6.488.387-4.16-2.715-6.387-8.422-5.227-1.457-.867-4.363-2.613-6.781-4.066 1.648 0 8.812.102 12.488.191 2.422 1.844 6.199 1.742 7.555-.773 1.645-.871 3.969 0 6.484.293-.875-2.906-3.484-4.453-6.824-3.73-2.031-1.887-4.645-1.887-7.406.871-2.902.293-6.973.586-12.488.727 1.742-1.156 4.211-2.902 7.113-4.645 2.617.867 5.375-.148 6.246-2.18 1.891-1.746 4.066-1.309 6.68-.871-.293-4.211-3.484-4.645-7.988-2.902-2.609-1.453-6.676 0-7.262 3.336-1.742 2.469-5.223 3.926-9.148 6.535-4.934-2.031-11.18-4.066-17.129-7.113 1.305-1.305 2.609-2.898 4.066-4.355-9.684-4.844-17.043-9.875-20.336-20.328-1.09-3.477.871-2.715 1.742-.488 1.598 4.078 4.16 6.781 8.23 8.617 2.883 1.305 4.555-1.934 2.422-3.871-2.129-1.938-4.066-5.227-4.16-9.199-.07-2.812 3.129-2.441 3.68-.965 4.645 12.586 10.355 21.199 15.188 19.07 4.848-2.129 2.562-4.941 0-6.199-4.934-2.418-7.734-9.77-8.027-13.551-.293-3.773 2.031-3.68 3.582-.773 1.547 2.906 5.809 8.422 12.781 16.168 6.965 7.742 16.645 9.484 21.969 4.836 4.699-4.098.184-6.672-4.449-5.516-8.906 2.227-18.102-6.969-23.617-21.199-.859-2.199.773-2.543 1.738-1.355 12.391 15.199 22.75 16.551 28.656 11.422 2.066-1.801 4.453-7.547-5.133-5.711-10.355 1.988-16.551-5.809-23.816-16.457-3.227-4.734-.289-4.84 2.613-2.031 2.906 2.805 7.266 6.098 12.105 9 4.836 2.91 14.617 2.52 15.875-3.289 1.262-5.809-3.102-5.617-7.84-4.066-8.242 2.688-14.332-3-20.238-9.777-2.629-3.027-1.547-4.844.781-3.777 2.32 1.066 7.84 3.68 11.422 5.617 3.582 1.934 11.418 3.289 15.195-1.938 3.777-5.23-2.129-8.328-6.871-4.938-4.742 3.391-16.359.293-20.91-5.707-4.551-6.004.582-4.848 3.387-3.391 7.117 3.672 15.973 4.062 23.621-1.457 3.473-2.5 2.93-4.348 1.742-6.383-.676-1.164-2.996-1.457-6 .383-10.18 6.238-18.297 4.938-24.398-3.484-2.43-3.352.582-3.582 3.391-2.223 11.852 5.715 24.012 2.125 27.594-6.395 1.676-3.988-2.133-8.519-6.008-3.484-5.012 6.52-13.07 6.68-21.297 5.516-3.953-.555-3.988-5.555.195-6.094 9-1.164 23.234-7.066 27.496-14.332 3.531-6.023-3.586-13.062-7.359-5.906-3.777 7.168-11.711 11.812-20.426 14.523-3.074.957-4.164.871-4.266-.09-.137-1.387-1.152-3.781-2.125-3.105-2.418 1.355-11.133 4.359-15.395 5.906-4.258 1.547-6.195 5.422-6.004 9.004.199 3.582 1.168 9.879-5.129 9.879-10.066 0-5.855-16.27.102-21.191 4.59-3.797 9.582-5.629 13.359-5.531 3.773.098 8.273-1.457 8.707-4.871.922-.191 2.664-.629 4.457-.629 1.352 0 3.918-1.402 5.172-2.516 1.266-1.113 2.77-2.906 1.504-3.973-1.254-1.062-3.238.73-4.02 2.227-.773 1.504-2.441 2.566-3.285 2.664-1.258.141-3.414.488-4.582.777-1.156.281-3.043 0-3.527-.582-.945-1.141.098-1.816 1.379-2.277 1.473-.527 3.023-.359 3.484.582.324.66.898 1.254 1.938 1.352 1.164-6.484-5.129-6.195-10.355-5.902-3.098-4.938-11.137-1.551-16.656 1.066-2.613.578-7.066.285-9.289-.68-2.23-.969-2.133.195-1.359 1.258.77 1.066 3.582 3 4.746 3.289 1.16.293.773.871.391 1.355-1.23 1.535-3.973 3.004-5.234 3.195-1.258.195-1.645.777-.961 1.262.672.481 1.641 1.063 2.609 1.356.969.293.871.676.289 1.453-1.195 1.598-4.359 3.191-5.422 2.996-1.062-.191-1.16.391-.773.871.391.488 1.836 1.168 2.613 1.168.773 0 .844.145.195.965-.707.891-2.281 2.82-3.684 2.414-1.887-.543-2.352-.074-1.773.723 1.369 1.886 1.299 2.706-1.416 3.156z"/><path d="M233.237 53.504c-1.672-.836-3.562-1.121-4.984-.508-1.422.613-1.727 2.031-.102 2.543 1.629.508 3.766.508 4.883.203 1.117-.308 1.625-1.527.203-2.238zM287.128 53.504c1.672-.836 3.555-1.121 4.98-.508 1.426.613 1.73 2.031.102 2.543-1.625.508-3.758.508-4.879.203-1.117-.308-1.629-1.527-.203-2.238z" fill="#ec1c2e"/></svg>