<svg xmlns="http://www.w3.org/2000/svg" viewBox="0 0 499.839 277.402"><path fill="#fff" d="M499.839 277.402V-.375H249.714v277.777h250.125z"/><path fill="#006233" d="M249.714 277.402V-.375H-.161v277.777h249.875z"/><g fill="#d21034"><path d="M321.804 185.109c-14.18 22.688-39.41 37.742-68.137 37.742-44.324 0-80.262-35.934-80.262-80.262s35.938-80.262 80.262-80.262c28.726 0 53.957 15.059 68.137 37.742-11.164-11.605-26.828-18.855-44.203-18.855-33.895 0-61.375 27.48-61.375 61.375s27.48 61.375 61.375 61.375c17.375.001 33.039-7.249 44.203-18.855z"/><path d="M298.808 105.047l-16.676 23.273-27.469-8.808 17.133 23.304L254.901 166l27.258-9.031 16.91 23.199-.066-28.867 27.269-8.703-27.355-8.774-.109-28.777z"/></g></svg>