<svg xmlns="http://www.w3.org/2000/svg" viewBox="0 0 499.839 277.402"><path fill="#0018a8" d="M-.161 277.402V-.375h166.664v277.777H-.161z"/><path fill="#d0103a" d="M333.167 277.402V-.375h166.672v277.777H333.167z"/><path fill="#fedf00" d="M166.503 277.402V-.375h166.664v277.777H166.503z"/><g><path d="M249.839 72.981c5.656 0 10.098-2.965 12.895-4.184 2.789-1.223 8.801.281 7.504 7.68-.777 4.414-5.273 7.5-1.867 10 2.395 1.75 9.543 1.242 13.148-2.148-3.836-.953-1.98-5.938 1.863-5.816 1.273-2.504 4.305-2.43 5.461-.566 1.48-1.082 3.957-.465 4.652.621 2.293-1.98 6.363-.387 6.363 2.949 1.086-.469 2.793.621 3.023 2.168 2.328-.93 4.262 1.473 2.871 4.891-2.254 5.5-12.332 11.551-9.305 15.738 1.699-3.562 6.09-2.309 4.652 1.473 7.363-3.023 15.121 2.715 15.121 12.098 0 7.215-6.902 12.488-11.168 12.875 4.109.539 4.109 4.188 3.105 5.973-1.012 1.785-3.648 1.086-4.266-.469-4.578 4.113-3.414 10.391.926 14.352 1.941-2.254 4.344-.777 4.145.652 1.324.352 1.594 1.207 1.75 2.523 3.105 1.844 2.016 7.137-3.797 6.746 6.82 6.824 5.027 17.395-2.867 23.539-13.613 10.586-32.578 3.141-41.301 11.285 6.328.465 6.086 8.684-.504 8.762-1.473 2.477-6.766 2.633-8.453.699l-3.953 3.793-3.957-3.793c-1.688 1.934-6.977 1.777-8.449-.699-6.594-.078-6.828-8.297-.5-8.762-8.73-8.145-27.691-.699-41.301-11.285-7.902-6.145-9.699-16.715-2.871-23.539-5.812.391-6.898-4.902-3.797-6.746.156-1.316.426-2.172 1.742-2.523-.195-1.43 2.211-2.906 4.152-.652 4.344-3.961 5.504-10.238.93-14.352-.617 1.555-3.266 2.254-4.266.469-1.012-1.785-1.012-5.434 3.102-5.973-4.269-.387-11.168-5.66-11.168-12.875 0-9.383 7.758-15.121 15.121-12.098-1.434-3.781 2.945-5.035 4.656-1.473 3.023-4.188-7.059-10.238-9.309-15.738-1.395-3.418.543-5.82 2.863-4.891.238-1.547 1.945-2.637 3.035-2.168 0-3.336 4.066-4.93 6.352-2.949.699-1.086 3.18-1.703 4.66-.621 1.16-1.863 4.184-1.938 5.461.566 3.844-.121 5.703 4.863 1.863 5.816 3.609 3.391 10.754 3.898 13.145 2.148 3.41-2.5-1.082-5.586-1.859-10-1.301-7.398 4.711-8.902 7.5-7.68 2.795 1.219 7.233 4.184 12.897 4.184z" fill="#e48c1a"/><path d="M249.839 72.981c5.656 0 10.098-2.965 12.895-4.184 2.789-1.223 8.801.281 7.504 7.68-.777 4.414-5.273 7.5-1.867 10 2.395 1.75 9.543 1.242 13.148-2.148-3.836-.953-1.98-5.938 1.863-5.816 1.273-2.504 4.305-2.43 5.461-.566 1.48-1.082 3.957-.465 4.652.621 2.293-1.98 6.363-.387 6.363 2.949 1.086-.469 2.793.621 3.023 2.168 2.328-.93 4.262 1.473 2.871 4.891-2.254 5.5-12.332 11.551-9.305 15.738 1.699-3.562 6.09-2.309 4.652 1.473 7.363-3.023 15.121 2.715 15.121 12.098 0 7.215-6.902 12.488-11.168 12.875 4.109.539 4.109 4.188 3.105 5.973-1.012 1.785-3.648 1.086-4.266-.469-4.578 4.113-3.414 10.391.926 14.352 1.941-2.254 4.344-.777 4.145.652 1.324.352 1.594 1.207 1.75 2.523 3.105 1.844 2.016 7.137-3.797 6.746 6.82 6.824 5.027 17.395-2.867 23.539-13.613 10.586-32.578 3.141-41.301 11.285 6.328.465 6.086 8.684-.504 8.762-1.473 2.477-6.766 2.633-8.453.699l-3.953 3.793-3.957-3.793c-1.688 1.934-6.977 1.777-8.449-.699-6.594-.078-6.828-8.297-.5-8.762-8.73-8.145-27.691-.699-41.301-11.285-7.902-6.145-9.699-16.715-2.871-23.539-5.812.391-6.898-4.902-3.797-6.746.156-1.316.426-2.172 1.742-2.523-.195-1.43 2.211-2.906 4.152-.652 4.344-3.961 5.504-10.238.93-14.352-.617 1.555-3.266 2.254-4.266.469-1.012-1.785-1.012-5.434 3.102-5.973-4.269-.387-11.168-5.66-11.168-12.875 0-9.383 7.758-15.121 15.121-12.098-1.434-3.781 2.945-5.035 4.656-1.473 3.023-4.188-7.059-10.238-9.309-15.738-1.395-3.418.543-5.82 2.863-4.891.238-1.547 1.945-2.637 3.035-2.168 0-3.336 4.066-4.93 6.352-2.949.699-1.086 3.18-1.703 4.66-.621 1.16-1.863 4.184-1.938 5.461.566 3.844-.121 5.703 4.863 1.863 5.816 3.609 3.391 10.754 3.898 13.145 2.148 3.41-2.5-1.082-5.586-1.859-10-1.301-7.398 4.711-8.902 7.5-7.68 2.795 1.219 7.233 4.184 12.897 4.184zm-31.68 11.347c-1.512.363-3.762-1.809-1.82-3.512m-.043-2.304c-3.215-.102-6.07 5.84 1.516 9.98 4.262 2.328 14.5 2.637 19.078-.23 4.57-2.871 6.043-2.559 6.742-1.477.699 1.086-.539 1.547-1.238 1.32m-31.559-10.16c-1.246 1.902-2.062 6.555 1.723 9.52m-6.383-8.899c-1.121 1.227-1.121 6.051 2.254 8.375m-8.606-5.425c-.309 2.711 1.781 5.891 3.645 6.816m-6.68-4.648c-.539 2.328.262 5.406 4.484 9.012 4.016 3.438 5.992 7.195 5.992 10.223 0 3.023-1.273 4.465-2.328 5.133-1.547.992-5.039 1.145-6.359-2.266m4.656-1.473c-.617.719-1.492.949-2.25.719m-2.875 6.495c1.406-1.246.324-3.723-2.938-3.723-4.973 0-8.77 3.957-8.77 10 0 6.672 5.504 10.938 10.16 10.625m-6.362-14.347c-4.109 4.266 1.707 14.738 7.758 11.637m-.086-17.09c-2.863-1.766-5.078 3.16-1.848 5.301 2.977 1.977 7.09-1.23 5.059-5.531m100.48 3.128c-1.398-1.246-.316-3.723 2.949-3.723 4.965 0 8.762 3.957 8.762 10 0 6.672-5.5 10.938-10.16 10.625m-1.304-19.8c2.871-1.766 5.074 3.16 1.848 5.301-2.984 1.977-7.09-1.23-5.059-5.531m-91.332-1.45c0 3.258-1.746 10.934-9.25 9.656m9.25-2.617c0 5.004-10.82 10.992-14.254 2.852m12.308 1.117c2.855 2.566 1.406 7.762-1.953 9.351 2.152.113 3.898 1.977 3.898 4.594 0 1.57-.695 4.535-3.375 4.594m-9.265-5.738c2.789.695 6.898-1.008 6.125-5.191-.773-4.195-6.707-3.164-5.195.715m-1.942 8.116c2.484-2.242 8.379 1.863 7.758 12.41-.539 9.133-8.609 12.098-11.086 10.777 1.977.258 2.754-1.391 2.281-2.672-.48-1.316-2.109-2.016-3.602-1.125m1.743-2.522c3.332-.613 4.027 3.457 2.055 4.617m2.097-5.27c.543.602.426 3.184-1.051 3.566m4.583-4.074c-.312 1.625-2.961 3.664-4.582 4.074m8.878-21.245c-.926 1.395.402 3.074 2.172 5.035 2.875 3.184 3.801 9.926-1.008 15.82m-11.089 6.746c4.965-.074 10.941-5.586 11.09-15.273.156-10.316-5.742-14.891-9.852-14.426m5.586 26.133c2.094.156 4.461 1.492 5.004 3.199m1.273 4.594c-4.535-4.652-13.957.234-13.141 8.727.82 8.488 9.426 15.004 30.359 15.234 12.445.141 19.895 4.66 19.895 9.895 0 3.797-4.227 5.734-5.543 5.504m-.499-8.763c2.031 1.742 2.816 4.125 1.387 5.117-1.336.93-3.43.055-2.961-1.922m10.523 6.266c3.379-2.953 2.441-10.16-5.695-14.059m7.484 10.876c1.234-1.004 4.578-5.598-.781-9.848-5.359-4.254-17.637-7.438-28.227-6.32-13.262 1.398-23.293-4.898-22.566-13.609.543-6.512 6.105-6.922 7.91-5.738 1.297.848 1.625 2.773.156 3.648m-2.078-4.137c-3.41 2.098-.555 7.227 3.844 5.82 2.906-.93 3.195-4.48 2.191-7.5-1.176-3.512-6.211-6.676-12.949-1.402m86.347-78.223c1.512.363 3.758-1.809 1.82-3.512m-23.804.313c2.555-1.711 0-3.492-1.633-2.484-1.625 1.012-5.734 1.469-8.062 1.469-2.328 0-6.434-.457-8.066-1.469-1.629-1.008-4.184.773-1.629 2.484m19.078 5.734c-.23 5.738-7.754 3.801-6.125-.926 1.457-4.238 6.594-3.496 10.934-.625-2.094-3.953 4.266-7.754 2.945-11.398-.996-2.758-3.332-2.484-5.738-1.16-2.402 1.316-7.984 3.098-11.398 3.094-3.414.004-8.996-1.777-11.398-3.094-2.406-1.324-4.746-1.598-5.742 1.16-1.316 3.644 5.047 7.445 2.949 11.398 4.34-2.871 9.48-3.613 10.934.625 1.629 4.727-5.895 6.664-6.125.926m42.924-8.351c3.215-.102 6.07 5.84-1.516 9.98-4.258 2.328-14.508 2.637-19.078-.23-4.578-2.871-6.043-2.559-6.746-1.477-.699 1.086.547 1.547 1.242 1.32m31.559-10.16c1.242 1.902 2.055 6.555-1.723 9.52m6.375-8.899c1.129 1.227 1.129 6.051-2.246 8.375m8.609-5.425c.305 2.711-1.785 5.891-3.645 6.816m6.669-4.648c.547 2.328-.258 5.406-4.48 9.012-4.008 3.438-5.988 7.195-5.988 10.223 0 3.023 1.273 4.465 2.324 5.133 1.555.992 5.047 1.145 6.363-2.266m-4.653-1.473c.617.719 1.492.949 2.242.719m10.786 9.05c4.105 4.266-1.703 14.738-7.758 11.637m-9.305-18.77c0 3.258 1.75 10.934 9.25 9.656m-9.25-2.617c0 5.004 10.82 10.992 14.25 2.852m-12.312 1.117c-2.848 2.566-1.395 7.762 1.961 9.351-2.148.113-3.898 1.977-3.898 4.594 0 1.57.695 4.535 3.375 4.594m9.265-5.738c-2.793.695-6.906-1.008-6.125-5.191.773-4.195 6.707-3.164 5.191.715m1.941 8.116c-2.48-2.242-8.375 1.863-7.758 12.41.543 9.133 8.613 12.098 11.094 10.777-1.977.258-2.758-1.391-2.289-2.672.48-1.316 2.113-2.016 3.605-1.125m-1.749-2.522c-3.328-.613-4.027 3.457-2.047 4.617m-2.098-5.27c-.543.602-.426 3.184 1.047 3.566m-4.586-4.074c.32 1.625 2.973 3.664 4.586 4.074m-8.875-21.245c.926 1.395-.41 3.074-2.172 5.035-2.875 3.184-3.797 9.926 1.008 15.82m11.09 6.746c-4.965-.074-10.945-5.586-11.09-15.273-.16-10.316 5.734-14.891 9.844-14.426m-5.578 26.133c-2.098.156-4.461 1.492-5.004 3.199m-1.281 4.594c4.539-4.652 13.965.234 13.148 8.727-.816 8.488-9.426 15.004-30.367 15.234-12.441.141-19.887 4.66-19.887 9.895 0 3.797 4.223 5.734 5.543 5.504m.504-8.763c-2.035 1.742-2.816 4.125-1.398 5.117 1.34.93 3.438.055 2.969-1.922m-10.528 6.266c-3.371-2.953-2.445-10.16 5.703-14.059m-7.484 10.876c-1.246-1.004-4.59-5.598.777-9.848 5.355-4.254 17.637-7.438 28.223-6.32 13.266 1.398 23.297-4.898 22.57-13.609-.543-6.512-6.102-6.922-7.914-5.738-1.297.848-1.629 2.773-.148 3.648m2.074-4.137c3.41 2.098.551 7.227-3.84 5.82-2.906-.93-3.199-4.48-2.191-7.5 1.168-3.512 6.199-6.676 12.949-1.402" fill="none" stroke="#000" stroke-width=".071" stroke-linecap="round" stroke-linejoin="round"/><path d="M292.413 90.434v67.699c0 10.934-7.793 15.469-18.145 15.184-11.691-.336-21.875.52-24.43 5.059-2.559-4.539-12.738-5.395-24.426-5.059-10.352.285-18.148-4.25-18.148-15.184V90.434h85.149z" fill="#e48c1a"/><path d="M292.413 90.434v67.699c0 10.934-7.793 15.469-18.145 15.184-11.691-.336-21.875.52-24.43 5.059-2.559-4.539-12.738-5.395-24.426-5.059-10.352.285-18.148-4.25-18.148-15.184V90.434h85.149z" fill="none" stroke="#000" stroke-width=".071" stroke-linecap="round" stroke-linejoin="round"/><path d="M247.64 172.09v-38.656h-36.438v24.797c0 5.473 2.355 11.328 13.797 11.125 9.742-.18 19.309-.762 22.641 2.734z" fill="#ffe01b"/><path d="M247.64 172.09v-38.656h-36.438v24.797c0 5.473 2.355 11.328 13.797 11.125 9.742-.18 19.309-.762 22.641 2.734z" fill="none" stroke="#000" stroke-width=".071"/><path fill="#ec174c" d="M211.202 94.566v35.356h36.316V94.566h-36.316z"/><path fill="none" stroke="#000" stroke-width=".071" d="M211.202 94.566v35.356h36.316V94.566h-36.316z"/><path fill="#ffe01b" d="M252.073 94.566v35.356h36.406V94.566h-36.406z"/><path fill="none" stroke="#000" stroke-width=".071" d="M252.073 94.566v35.356h36.406V94.566h-36.406z"/><path d="M252.042 172.09v-38.656h36.437v24.797c0 5.473-2.359 11.328-13.797 11.125-9.742-.18-19.32-.762-22.64 2.734z" fill="#ffe01b"/><path d="M252.042 172.09v-38.656h36.437v24.797c0 5.473-2.359 11.328-13.797 11.125-9.742-.18-19.32-.762-22.64 2.734z" fill="none" stroke="#000" stroke-width=".071"/><path fill="#ec174c" d="M278.21 94.566v35.356h5.601V94.566h-5.601z"/><path fill="none" stroke="#000" stroke-width=".071" d="M278.21 94.566v35.356h5.601V94.566h-5.601z"/><path fill="#ec174c" d="M267.589 94.566v35.356h5.601V94.566h-5.601z"/><path fill="none" stroke="#000" stroke-width=".071" d="M267.589 94.566v35.356h5.601V94.566h-5.601z"/><path fill="#ec174c" d="M256.854 94.566v35.356h5.602V94.566h-5.602z"/><path fill="none" stroke="#000" stroke-width=".071" d="M256.854 94.566v35.356h5.602V94.566h-5.602z"/><path d="M218.401 121.102c-1.219-2.68-2.297-3.594-4.605-2.246-2.797 1.629-1.164 4.535.762 6.453l1.352-1.476c-1.781-1.164-1.148-2.449-.566-2.91.582-.469 1.879-.543 2.355.945l.702-.766z" fill="#ffe01b"/><path d="M218.401 121.102c-1.219-2.68-2.297-3.594-4.605-2.246-2.797 1.629-1.164 4.535.762 6.453l1.352-1.476c-1.781-1.164-1.148-2.449-.566-2.91.582-.469 1.879-.543 2.355.945l.702-.766z" fill="none" stroke="#000" stroke-width=".071"/><path d="M237.132 100.625c-6.066 6.582-14.051 15.375-23.164 25.332-.859.945.352 2.332 1.52 1.164 1.168-1.164 14.703-15.844 22.984-24.578.406-.418.527-1.164.438-2.559-.082-1.402.996-2.594 3.188-2.246 2.184.355 2.074 3.363.172 3.055-1.461-.227-1.285 1.516-.172 1.75.836.18 3.352-.203 3.352-2.883 0-2.676-3.328-3.434-5.426-3.172-2.102.258-3.559 1.195-4.027 1.223.32.383.785.785 1.227.844-.406.41-1.285 1.195-1.574 1.285.286.285.9.695 1.482.785z" fill="#ffe01b"/><path d="M237.132 100.625c-6.066 6.582-14.051 15.375-23.164 25.332-.859.945.352 2.332 1.52 1.164 1.168-1.164 14.703-15.844 22.984-24.578.406-.418.527-1.164.438-2.559-.082-1.402.996-2.594 3.188-2.246 2.184.355 2.074 3.363.172 3.055-1.461-.227-1.285 1.516-.172 1.75.836.18 3.352-.203 3.352-2.883 0-2.676-3.328-3.434-5.426-3.172-2.102.258-3.559 1.195-4.027 1.223.32.383.785.785 1.227.844-.406.41-1.285 1.195-1.574 1.285.286.285.9.695 1.482.785z" fill="none" stroke="#000" stroke-width=".071"/><path fill="#ffe01b" d="M233.167 122.172l5.074-13.57-10.207-12.407-10.215 12.407 5.078 13.57h10.27z"/><path fill="none" stroke="#000" stroke-width=".071" d="M233.167 122.172l5.074-13.57-10.207-12.407-10.215 12.407 5.078 13.57h10.27z"/><path fill="#ffe01b" d="M227.39 100.098v19.863h-2.864l-4.316-11.07 7.18-8.793z"/><path fill="none" stroke="#000" stroke-width=".071" d="M227.39 100.098v19.863h-2.864l-4.316-11.07 7.18-8.793z"/><path fill="#ffe01b" d="M228.671 100.098v19.863h2.863l4.313-11.07-7.176-8.793z"/><path fill="none" stroke="#000" stroke-width=".071" d="M228.671 100.098v19.863h2.863l4.313-11.07-7.176-8.793z"/><path d="M229.929 122.172h2.859c-.059 2.363.848 2.945 1.777 3.41.934.469 2.453.781 3.062-1.574.672-2.59 1.895-5.738 5.453-5.008 3.562.73 3.094 5.02 1.93 6.027-1.348 1.168-3.27 1.312-4.172-.523 1.746-.551 2.418-1.891 1.512-2.887-.898-.984-3.105-.27-3.645 2.797-.785 4.52-3.879 4.926-6.035 3.523-2.163-1.394-2.683-3.984-2.741-5.765z" fill="#ffe01b"/><path d="M229.929 122.172h2.859c-.059 2.363.848 2.945 1.777 3.41.934.469 2.453.781 3.062-1.574.672-2.59 1.895-5.738 5.453-5.008 3.562.73 3.094 5.02 1.93 6.027-1.348 1.168-3.27 1.312-4.172-.523 1.746-.551 2.418-1.891 1.512-2.887-.898-.984-3.105-.27-3.645 2.797-.785 4.52-3.879 4.926-6.035 3.523-2.163-1.394-2.683-3.984-2.741-5.765z" fill="none" stroke="#000" stroke-width=".071"/><path d="M218.335 124.098c.734 1.828 2.402 5.383 5.645 4.047 3.234-1.344 3.559-4.809 3.758-5.973h-3.031c-.348 4.078-3.828 5.082-5.461.949l-.911.977z" fill="#ffe01b"/><path d="M218.335 124.098c.734 1.828 2.402 5.383 5.645 4.047 3.234-1.344 3.559-4.809 3.758-5.973h-3.031c-.348 4.078-3.828 5.082-5.461.949l-.911.977z" fill="none" stroke="#000" stroke-width=".071"/><path d="M263.237 144.402c.027.41-.035 1.09-.289 1.516-.371.617-.473.977-.488 1.336-.016.367-.031.535.223.73.309.234.559.48.703.742.145.266.203.32.609.297a5.267 5.267 0 0 1 1.238.035c.57.102.73.121.914-.617.156-.664-.023-.664-.719-.621-.57.031-.949-.098-1.258-.332-.309-.23-.332-.438-.16-.652.176-.223.426-1.008.516-1.383-.25-.152-1.172-.898-1.289-1.051z" fill="#ec174c"/><path d="M263.237 144.402c.027.41-.035 1.09-.289 1.516-.371.617-.473.977-.488 1.336-.016.367-.031.535.223.73.309.234.559.48.703.742.145.266.203.32.609.297a5.267 5.267 0 0 1 1.238.035c.57.102.73.121.914-.617.156-.664-.023-.664-.719-.621-.57.031-.949-.098-1.258-.332-.309-.23-.332-.438-.16-.652.176-.223.426-1.008.516-1.383-.25-.152-1.172-.898-1.289-1.051z" fill="none" stroke="#000" stroke-width=".043" stroke-linecap="round" stroke-linejoin="round"/><path d="M280.21 145.512c.762.988 1.031 1.395 1.059 2.246.027.84-.121 1.605-.469 2.121-.539.809-.539 1.16-.113 1.16 1.219.02 1.469.148 1.605-.352.246-.891.742-.793.641-1.48a12.275 12.275 0 0 1-.051-2.766c.102-.93-.129-1.395-.48-1.922-.352-.527-.816-2.18-.609-3.66 1.449-1.148 1.418-2.773-.496-3.828-1.164-.633-2.738-.547-4.434-.082-1.695.465-3.414.551-4.754.5-1.344-.066-2.512-.207-3.18-.5-.672-.289-2.105-.258-2.832.117-.727.383-1.133.434-1.984.316-.84-.117-1.816-.383-2.098-.922-.16-.309-.039-.801.137-1.109.195-.352.441-.648.656-.852.266-.246.156-.559-.48-.195-.539.309-1.023.789-1.227 1.258-.203.465-.676.66-.867.566-.191-.082-.379-.082-.656-.039-.57.094-.625.102-.914-.348-.297-.453-1.152-1.18-1.883-1.344-.73-.156-.883.043-.371.453.512.402 1.023.867 1.375 1.344.352.473.445.422.32.746-.137.32-.332.781-.363 1.086-.074.801-.453 1.281-.742 1.625-.293.355-.195.602.129.879.32.273.598.219.758.434.164.223.379.66.875.367.496-.293 1.105-.551 1.273-.77.152-.219.797-.348 1.176.102.984 1.145.691 2.184 1.301 2.992.609.824 1.457 2.617 4.172 2.441 2.715-.18 4.957.516 6.855-.066.758-.227 1.918-.668 2.598-.727.676.453 1.383.75 2.094.797-.25.984-1.078 2.176-1.672 2.625-.602.453-1.258 1.484-1.258 1.98 0 .5.211.352.762.324.367-.023.906-.059 1.191-.043.293.012.461-.008.367-.582-.074-.43-.02-.625.32-.934.749-.681 1.921-2.81 2.269-3.958z" fill="#ec174c"/><path d="M280.21 145.512c.762.988 1.031 1.395 1.059 2.246.027.84-.121 1.605-.469 2.121-.539.809-.539 1.16-.113 1.16 1.219.02 1.469.148 1.605-.352.246-.891.742-.793.641-1.48a12.275 12.275 0 0 1-.051-2.766c.102-.93-.129-1.395-.48-1.922-.352-.527-.816-2.18-.609-3.66 1.449-1.148 1.418-2.773-.496-3.828-1.164-.633-2.738-.547-4.434-.082-1.695.465-3.414.551-4.754.5-1.344-.066-2.512-.207-3.18-.5-.672-.289-2.105-.258-2.832.117-.727.383-1.133.434-1.984.316-.84-.117-1.816-.383-2.098-.922-.16-.309-.039-.801.137-1.109.195-.352.441-.648.656-.852.266-.246.156-.559-.48-.195-.539.309-1.023.789-1.227 1.258-.203.465-.676.66-.867.566-.191-.082-.379-.082-.656-.039-.57.094-.625.102-.914-.348-.297-.453-1.152-1.18-1.883-1.344-.73-.156-.883.043-.371.453.512.402 1.023.867 1.375 1.344.352.473.445.422.32.746-.137.32-.332.781-.363 1.086-.074.801-.453 1.281-.742 1.625-.293.355-.195.602.129.879.32.273.598.219.758.434.164.223.379.66.875.367.496-.293 1.105-.551 1.273-.77.152-.219.797-.348 1.176.102.984 1.145.691 2.184 1.301 2.992.609.824 1.457 2.617 4.172 2.441 2.715-.18 4.957.516 6.855-.066.758-.227 1.918-.668 2.598-.727.676.453 1.383.75 2.094.797-.25.984-1.078 2.176-1.672 2.625-.602.453-1.258 1.484-1.258 1.98 0 .5.211.352.762.324.367-.023.906-.059 1.191-.043.293.012.461-.008.367-.582-.074-.43-.02-.625.32-.934.749-.681 1.921-2.81 2.269-3.958z" fill="none" stroke="#000" stroke-width=".043" stroke-linecap="round" stroke-linejoin="round"/><path d="M265.077 142.57c.148 1.074 1.93 2.297 2.16 4.043.23 1.746.344 3.512.199 4.027-.219.75-.207.93.559.898.809-.031 1.082-.031.871-.438a1.33 1.33 0 0 1 .18-1.426c.07-.086.113-.262.008-.582-.102-.32-.27-1.41-.199-2.387.074-.98-.133-1.5.191-2.199.32-.703.871-1.809.844-2.141" fill="#ec174c"/><path d="M265.077 142.57c.148 1.074 1.93 2.297 2.16 4.043.23 1.746.344 3.512.199 4.027-.219.75-.207.93.559.898.809-.031 1.082-.031.871-.438a1.33 1.33 0 0 1 .18-1.426c.07-.086.113-.262.008-.582-.102-.32-.27-1.41-.199-2.387.074-.98-.133-1.5.191-2.199.32-.703.871-1.809.844-2.141" fill="none" stroke="#000" stroke-width=".043" stroke-linecap="round" stroke-linejoin="round"/><path d="M260.069 137.605c-.414-.02-.711.219-.793.598-.043.168-.047.215.289.172.332-.043.57-.191.641-.395.074-.199.086-.367-.137-.375z"/><path d="M262.722 160.969c-.145.535-.891 1.742-1.188 2.062-.293.324-.348.516-.316 1.109.023.598.129.977.363 1.566.23.602.766.953 1.254.824.48-.137.945-.234 1.371-.258.781-.039.871-.109.711-.883-.16-.77-.309-.816-.668-.629-.367.195-.727.305-1.168.195-.238-.055-.273-.289-.332-.762-.047-.332.066-.465.332-.723.332-.316.672-.762.82-1.332-.218-.286-.988-1.009-1.179-1.169z" fill="#ec174c"/><path d="M262.722 160.969c-.145.535-.891 1.742-1.188 2.062-.293.324-.348.516-.316 1.109.023.598.129.977.363 1.566.23.602.766.953 1.254.824.48-.137.945-.234 1.371-.258.781-.039.871-.109.711-.883-.16-.77-.309-.816-.668-.629-.367.195-.727.305-1.168.195-.238-.055-.273-.289-.332-.762-.047-.332.066-.465.332-.723.332-.316.672-.762.82-1.332-.218-.286-.988-1.009-1.179-1.169z" fill="none" stroke="#000" stroke-width=".043" stroke-linecap="round" stroke-linejoin="round"/><path d="M276.991 163.105c-.762-.016-1.508-.418-2.195-1.031-.73.215-2.453.84-4.289 1.016-1.836.176-3.602-.074-4.258-.363-.543-.234-1.285-.246-1.68-.188-.395.059-.656-.113-.891-.438-.23-.32-.73-.789-1.527-1.383-.805-.594-1.633-1.57-2.203-2.723-.102-.203-.684-.191-.836-.18a.927.927 0 0 1-.555-.113c-.203-.117-.523.039-.746.25-.246.234-.727.312-.938.152-.207-.164-.391-.176-.723-.699-.34-.523-.09-.844.402-1.602.371-.559.465-1.461.781-1.957.387-.602.27-.777-.945-1.664-.32-.242-1.035-.566-1.473-.973-.441-.41-.441-.441.156-.453 1.008-.012 2.457.688 2.981 1.328.422.52.309.434.742.406.219-.016.613-.062.832.043.219.102.344-.078.758-.48.484-.477 1.234-1.684 2.016-2.086.457-.23.68-.328.59.281-.086.609-.531 1.348-1.254 2.02-.547.52-.562.688-.242.688.316 0 1.137.441 1.484.727.352.293.875.176 1.547 0 .672-.172 3.824-.348 5.281 0 1.457.355 4.312-.059 6.008-.203 1.691-.145 4.375-.668 5.516.961 1.137 1.633.844 2.734-.469 3.555.172.465.469 1.602.527 2.332.113 1.539.875 2.242 1.105 4.016.145 1.164-.527 1.691-.785 1.715-.266.035-.223.348-.137 1.051.09.703-.195.57-1.004.609-.875.051-.961.031-.961-.434 0-.469.398-.953.961-2.328.617-1.527.113-2.051-.852-2.656-.145.5-.504 1.039-.984 1.445-.48.41-.812 1.152-.812 1.719 0 .57-.34.57-.605.543-.258-.035-.422.102-.332.711.086.617-.09.801-.434.773-.352-.031-.523.043-1.102.043-.582 0-.25-.582-.176-.969.078-.359.543-1.117 1.039-1.844.502-.726.647-1.238.682-1.617z" fill="#ec174c"/><path d="M276.991 163.105c-.762-.016-1.508-.418-2.195-1.031-.73.215-2.453.84-4.289 1.016-1.836.176-3.602-.074-4.258-.363-.543-.234-1.285-.246-1.68-.188-.395.059-.656-.113-.891-.438-.23-.32-.73-.789-1.527-1.383-.805-.594-1.633-1.57-2.203-2.723-.102-.203-.684-.191-.836-.18a.927.927 0 0 1-.555-.113c-.203-.117-.523.039-.746.25-.246.234-.727.312-.938.152-.207-.164-.391-.176-.723-.699-.34-.523-.09-.844.402-1.602.371-.559.465-1.461.781-1.957.387-.602.27-.777-.945-1.664-.32-.242-1.035-.566-1.473-.973-.441-.41-.441-.441.156-.453 1.008-.012 2.457.688 2.981 1.328.422.52.309.434.742.406.219-.016.613-.062.832.043.219.102.344-.078.758-.48.484-.477 1.234-1.684 2.016-2.086.457-.23.68-.328.59.281-.086.609-.531 1.348-1.254 2.02-.547.52-.562.688-.242.688.316 0 1.137.441 1.484.727.352.293.875.176 1.547 0 .672-.172 3.824-.348 5.281 0 1.457.355 4.312-.059 6.008-.203 1.691-.145 4.375-.668 5.516.961 1.137 1.633.844 2.734-.469 3.555.172.465.469 1.602.527 2.332.113 1.539.875 2.242 1.105 4.016.145 1.164-.527 1.691-.785 1.715-.266.035-.223.348-.137 1.051.09.703-.195.57-1.004.609-.875.051-.961.031-.961-.434 0-.469.398-.953.961-2.328.617-1.527.113-2.051-.852-2.656-.145.5-.504 1.039-.984 1.445-.48.41-.812 1.152-.812 1.719 0 .57-.34.57-.605.543-.258-.035-.422.102-.332.711.086.617-.09.801-.434.773-.352-.031-.523.043-1.102.043-.582 0-.25-.582-.176-.969.078-.359.543-1.117 1.039-1.844.502-.726.647-1.238.682-1.617z" fill="none" stroke="#000" stroke-width=".043" stroke-linecap="round" stroke-linejoin="round"/><path d="M264.933 159.773c.828.918 1.465 1.688 1.492 2.387.027.699.547 1.133.492 2.418-.051 1.281.043 1.938-.051 2.297-.156.547-.293.953.027.938.434-.027.914-.074 1.191-.051.277.031.336-.09.148-.488-.168-.359-.176-.758 0-.965.172-.207.188-.609.082-1.117-.102-.512-.168-1.797-.109-2.258.055-.465-.18-1.391.184-1.941.359-.551.559-1.41.531-1.828" fill="#ec174c"/><path d="M264.933 159.773c.828.918 1.465 1.688 1.492 2.387.027.699.547 1.133.492 2.418-.051 1.281.043 1.938-.051 2.297-.156.547-.293.953.027.938.434-.027.914-.074 1.191-.051.277.031.336-.09.148-.488-.168-.359-.176-.758 0-.965.172-.207.188-.609.082-1.117-.102-.512-.168-1.797-.109-2.258.055-.465-.18-1.391.184-1.941.359-.551.559-1.41.531-1.828" fill="none" stroke="#000" stroke-width=".043" stroke-linecap="round" stroke-linejoin="round"/><path d="M259.366 154.512c-.293 0-.719.352-.809.543-.082.188.074.336.398.262a.77.77 0 0 0 .566-.582c.06-.251-.026-.223-.155-.223z"/><path d="M219.569 168.891v-35.457h-4.02v33.895c1.071.675 2.399 1.206 4.02 1.562z" fill="#ec174c"/><path d="M219.569 168.891v-35.457h-4.02v33.895c1.071.675 2.399 1.206 4.02 1.562z" fill="none" stroke="#000" stroke-width=".071"/><path d="M224.999 169.355c.879-.02 1.754-.039 2.625-.055v-35.867h-4.027v35.91c.457.016.918.016 1.402.012z" fill="#ec174c"/><path d="M224.999 169.355c.879-.02 1.754-.039 2.625-.055v-35.867h-4.027v35.91c.457.016.918.016 1.402.012z" fill="none" stroke="#000" stroke-width=".071"/><path d="M235.675 169.223v-35.789h-4.023v35.789c1.378-.02 2.73-.024 4.023 0z" fill="#ec174c"/><path d="M235.675 169.223v-35.789h-4.023v35.789c1.378-.02 2.73-.024 4.023 0z" fill="none" stroke="#000" stroke-width=".071"/><path d="M243.726 170.078v-36.645h-4.02v35.988c1.477.138 2.836.337 4.02.657z" fill="#ec174c"/><path d="M243.726 170.078v-36.645h-4.02v35.988c1.477.138 2.836.337 4.02.657z" fill="none" stroke="#000" stroke-width=".071"/><path d="M207.194 172.609c-.012-.527-.102-.566-.383-.703l.07-.156 2.375.965-.062.148c-.312-.102-.816-.277-.809.363l.016 3.227 2.176-2.277c.535-.586.039-.73-.297-.871l.059-.164 1.535.621-.062.156c-.297-.094-.352-.164-.707.23l-3.66 3.852-.23-.094-.021-5.297zM212.19 178.988c-.16.434.176.684.484.855l-.055.152-2.617-.977.059-.152c.348.066.766.105.934-.332l1.398-3.738c.164-.441-.184-.684-.488-.859l.062-.152 2.605.984-.051.145c-.352-.07-.77-.105-.934.332l-1.397 3.742zM219.292 182.258l.047-.156c.297.027.652.027.785-.434l1.281-4.305-.27-.078c-.531-.16-1.336.117-1.57.902l-.164-.047.457-1.539 4.473 1.324-.461 1.543-.164-.055c.23-.781-.289-1.449-.82-1.605l-.27-.078-1.273 4.297c-.141.457.152.652.41.793l-.047.156-2.414-.718zM224.827 178.762c-.078-.512-.18-.543-.469-.641l.039-.156 2.488.609-.031.164c-.332-.062-.852-.168-.754.465l.469 3.195 1.828-2.559c.449-.656-.059-.73-.41-.82l.039-.168 1.602.398-.043.16c-.305-.055-.363-.109-.664.324l-3.082 4.332-.242-.062-.77-5.241zM230.819 179.727c-.32-.039-.738.035-.859.629-.117.586.195.938 1.035 1.477.617.398 1.145 1.035.957 1.984-.281 1.383-1.57 1.316-2.094 1.211-.34-.07-.844-.242-1.137-.445-.168-.109-.199-.141-.375.09l-.156-.035.371-1.84.156.027c-.066.984.387 1.836 1.188 2.004.676.129 1.07-.309 1.133-.645.109-.516-.238-.922-.984-1.438-.656-.461-1.188-1.125-1.02-1.953.211-1.062.965-1.477 1.836-1.301.473.094.863.348 1.074.492.191.156.277.082.449-.199l.156.031-.34 1.684-.156-.035c-.101-1.223-.718-1.684-1.234-1.738zM235.105 180.957c-.141-.5-.234-.523-.539-.582l.027-.168 2.543.336-.023.172c-.332-.023-.863-.078-.695.543l.82 3.125 1.539-2.742c.371-.699-.141-.719-.508-.773l.024-.168 1.633.219-.02.164c-.309-.02-.379-.07-.629.395l-2.59 4.645-.242-.035-1.34-5.131zM240.39 181.211c-.07-.113-.172-.094-.25-.102l.012-.168 1.688.121 2.523 3.715.199-2.723c.031-.465-.273-.594-.617-.672l.02-.172 1.5.109-.016.164c-.344.004-.594.129-.625.594l-.336 4.766-.273-.016-3.176-4.676-.262 3.633c-.031.469.27.602.617.688l-.016.152-1.57-.109.012-.16c.352-.035.664-.117.699-.586l.277-3.961-.406-.597zM247.784 186.129c-.004.473.395.59.746.652l-.004.156-2.789-.051.004-.156c.344-.051.758-.156.766-.621l.07-3.992c.012-.473-.402-.586-.746-.652l.004-.156 2.793.051-.004.156c-.352.051-.758.156-.769.621l-.071 3.992zM250.241 186.934v-.16c.293-.07.625-.18.613-.656l-.109-4.488-.277.012c-.559.012-1.234.52-1.215 1.336l-.172.004-.043-1.598 4.664-.117.039 1.605-.176.004c-.02-.82-.719-1.297-1.277-1.285l-.277.012.109 4.484c.012.477.344.57.641.625l.004.164-2.524.058zM255.085 184.77l-.461.027.645-2.023s.027.078.91 1.926l-1.094.07.039.34 1.211-.07c.121.238.242.5.379.793.203.512-.137.602-.664.719l.008.152 2.629-.16-.008-.168c-.547-.043-.598-.34-.746-.664-2.074-4.367-2.184-4.578-2.184-4.578l-.277.02-1.586 4.867c-.137.348-.359.652-.609.707l.012.156 1.586-.102-.004-.156c-.453-.074-.816-.094-.605-.742.09-.258.168-.508.246-.73l.613-.043-.04-.341zM260.905 186.32l-.023-.164c.34-.102.738-.27.676-.734l-.52-3.945c-.055-.465-.477-.523-.832-.535l-.02-.16 4.641-.605.219 1.723-.207.023a1.424 1.424 0 0 0-1.566-1.285c-.246.027-.539.07-.746.094-.172.027-.266.113-.199.578l.23 1.809c.312-.039 1.121-.031 1.16-1.32l.164-.016.352 2.719-.195.027c-.289-1.383-1.133-1.164-1.438-1.125l.234 1.859c.062.465.414.527.707.543l.027.168-2.664.346zM268.671 184.996c.863-.156 1.137-1.391.879-2.809-.258-1.422-.941-2.484-1.809-2.328-.867.156-1.148 1.391-.887 2.812.258 1.423.946 2.481 1.817 2.325l.023.176c-1.672.305-2.84-.754-3.109-2.266-.277-1.523.445-2.922 2.129-3.223 1.672-.305 2.836.754 3.105 2.273.277 1.52-.441 2.922-2.125 3.215l-.023-.175zM272.948 181.422l-.477-2.062c-.059-.238.129-.383.453-.473.531-.137 1.035.203 1.203.93.169.718.087 1.265-1.179 1.605l.047.191s.082-.016.203-.047l2.23 2.195 1.488-.34-.035-.16c-.121.023-.219.012-.281-.039l-2.113-2.07c.672-.348 1.066-.879.895-1.609-.238-1.012-1.293-1.199-2.52-.91l-2.531.586.035.16c.344-.02.773-.004.879.449l.902 3.883c.109.457-.156.629-.48.766l.035.156 2.5-.578-.039-.16c-.293.012-.645-.02-.75-.48l-.418-1.801-.047-.192zM278.171 183.074l-.047-.156c.262-.137.562-.332.434-.789l-1.207-4.32-.273.078c-.527.145-1.062.809-.84 1.594l-.168.051-.434-1.551 4.488-1.25.434 1.543-.168.047a1.303 1.303 0 0 0-1.555-.926l-.262.074 1.203 4.32c.125.457.477.469.773.453l.043.156-2.421.676zM284.058 180.492c.145.449.562.43.91.379l.051.152-2.656.852-.051-.156c.312-.156.668-.387.527-.832l-1.219-3.801c-.141-.449-.566-.43-.914-.375l-.043-.156 2.656-.852.047.156c-.316.164-.672.387-.527.836l1.219 3.797zM287.866 179.848c.828-.293.898-1.555.41-2.914-.484-1.363-1.336-2.297-2.156-2-.836.293-.902 1.559-.422 2.918.488 1.363 1.336 2.296 2.168 1.996l.062.176c-1.602.566-2.93-.285-3.449-1.734-.52-1.457-.031-2.957 1.578-3.531 1.602-.57 2.918.289 3.438 1.742.52 1.449.043 2.949-1.566 3.523l-.063-.176zM291.569 175.617c1.203-.531 1.195-1.086.926-1.773-.281-.684-.824-.945-1.332-.73-.309.141-.469.312-.379.535l.785 1.968.082.184.688 1.719c.176.438.52.418.812.355l.059.148-2.379.957-.062-.148c.309-.184.539-.398.363-.832l-1.48-3.695c-.176-.438-.602-.383-.941-.305l-.062-.156 2.422-.973c1.156-.469 2.23-.449 2.621.52.277.695-.023 1.277-.633 1.73l2.398 1.715c.07.051.172.039.277 0l.062.152-1.41.566-2.543-1.828c-.117.047-.191.074-.191.074l-.083-.183zM215.331 175.91c.156-.445-.203-.684-.508-.848l.051-.156 2.465.832c1.191.406 1.988 1.121 1.656 2.105-.238.707-.852.957-1.609.898l.707 2.871c.02.078.102.133.207.184l-.051.152-1.434-.488-.75-3.047c-.109-.035-.191-.07-.191-.07l.066-.188c1.25.379 1.613-.043 1.852-.75.238-.695-.008-1.254-.535-1.414-.324-.098-.555-.07-.637.16l-1.344 3.945c-.148.445.129.652.387.801l-.047.152-2.43-.828.051-.148c.352.062.664.051.812-.391l1.282-3.772z"/><path d="M280.772 155.375c.148.75-.168 1.508-1.102 1.625-.93.117-2.75-.113-3.68-.84-.938-.73-2.148.102-2.422.582-.25.43-.355.961-.371 1.41.211-.488.953-.938 1.422-1.074-.977.363-1.801 1.062-1.414 1.938.066.152.137.332.305-.09.172-.418.891-.996 1.594-1.164.781-.184 2.609-.059 3.453.203.676.211 1.641.398 2.305.031m-1.144 4.305c-.965-.594-3.648-1.996-3.707-3.652m-1.215 3.425c.504-.184 2.121-.84 2.664-1.25m-.469 2.281a2.722 2.722 0 0 0 2.148-1.148m2.508-23.262c.164 1.289-1.34 1.746-2.363 1.719-1.023-.027-1.547-.145-2.477-.641-.938-.496-2.367.262-2.539 1.02-.176.758-.492.977-.465 1.414.52-.555 1.363-1.035 1.793-.992.418.043.723.086 1.047-.043.324-.133.551-.113.949.016 1.223.383 3 .422 4.199-.328m-4.487.745c.223 2.797 2.359 2.988 2.906 3.906a2.778 2.778 0 0 1-1.98.59m-2.094-.796c.777-.133 1.684-.926 2.004-1.543m-4.336-1.555c.102-.305.52-.961.738-1.148" fill="none" stroke="#000" stroke-width=".043" stroke-linecap="round" stroke-linejoin="round"/><path d="M260.108 144.402c-.039-.777.098-1.16.449-1.574.625-.719.711-1.07 1.133-2.18.324-.855 1.141-2.316 1.758-3.281.094-.145.113-.402.676-.215.57.191.578.145.258.766-.324.629-1.266 1.777-1.66 2.562-.613 1.223-.59 1.859-.559 2.586.031.727-.055 1.105-.113 1.488-.055.375-.23.625-1.145.461-.769-.132-.781-.187-.797-.613z" fill="#004fa2"/><path d="M260.108 144.402c-.039-.777.098-1.16.449-1.574.625-.719.711-1.07 1.133-2.18.324-.855 1.141-2.316 1.758-3.281.094-.145.113-.402.676-.215.57.191.578.145.258.766-.324.629-1.266 1.777-1.66 2.562-.613 1.223-.59 1.859-.559 2.586.031.727-.055 1.105-.113 1.488-.055.375-.23.625-1.145.461-.769-.132-.781-.187-.797-.613z" fill="none" stroke="#000" stroke-width=".043" stroke-linecap="round" stroke-linejoin="round"/><path d="M265.233 149.059c.57.098.73.121.914-.617.141-.617.004-.664-.578-.633-.129.012-.164.207-.262.613-.097.402-.226.613-.074.637z" fill="#004fa2"/><path d="M265.233 149.059c.57.098.73.121.914-.617.141-.617.004-.664-.578-.633-.129.012-.164.207-.262.613-.097.402-.226.613-.074.637z" fill="none" stroke="#000" stroke-width=".043"/><path d="M277.62 150.406c.043.582-.074.594-.367.582-.285-.016-.824.02-1.191.043-.551.027-.762.176-.762-.324 0-.117.035-.266.102-.418.102-.227.438-.145.957-.125.523.02 1.234-.105 1.261.242z" fill="#004fa2"/><path d="M277.62 150.406c.043.582-.074.594-.367.582-.285-.016-.824.02-1.191.043-.551.027-.762.176-.762-.324 0-.117.035-.266.102-.418.102-.227.438-.145.957-.125.523.02 1.234-.105 1.261.242z" fill="none" stroke="#000" stroke-width=".043"/><path d="M282.292 150.688c-.137.5-.387.371-1.605.352-.355 0-.426-.25-.109-.801.09-.145.277-.012.828.047.542.054.984.054.886.402z" fill="#004fa2"/><path d="M282.292 150.688c-.137.5-.387.371-1.605.352-.355 0-.426-.25-.109-.801.09-.145.277-.012.828.047.542.054.984.054.886.402z" fill="none" stroke="#000" stroke-width=".043"/><path d="M268.772 150.824c.023.094.051.191.094.277.211.406-.062.406-.871.438-.695.027-.777-.121-.613-.707.043-.168.293-.043.684-.043.386 0 .671-.086.706.035z" fill="#004fa2"/><path d="M268.772 150.824c.023.094.051.191.094.277.211.406-.062.406-.871.438-.695.027-.777-.121-.613-.707.043-.168.293-.043.684-.043.386 0 .671-.086.706.035z" fill="none" stroke="#000" stroke-width=".043"/><path d="M261.936 136.129c0-.266.102-.566.215-.777.195-.352.441-.648.656-.852.266-.246.156-.559-.48-.195-.539.309-1.023.789-1.227 1.258a.891.891 0 0 1-.156.254c-.191.312.082.426.332.508.25.073.645.23.66-.196z" fill="#004fa2"/><path d="M261.936 136.129c0-.266.102-.566.215-.777.195-.352.441-.648.656-.852.266-.246.156-.559-.48-.195-.539.309-1.023.789-1.227 1.258a.891.891 0 0 1-.156.254c-.191.312.082.426.332.508.25.073.645.23.66-.196z" fill="none" stroke="#000" stroke-width=".043"/><path d="M259.14 136.145c-.195-.012-.289-.109-.477-.402-.297-.453-1.152-1.18-1.883-1.344-.73-.156-.883.043-.371.453.512.402 1.023.867 1.375 1.344.266.359.379.422.371.566.082-.172.641-.586.985-.617z" fill="#004fa2"/><path d="M259.14 136.145c-.195-.012-.289-.109-.477-.402-.297-.453-1.152-1.18-1.883-1.344-.73-.156-.883.043-.371.453.512.402 1.023.867 1.375 1.344.266.359.379.422.371.566.082-.172.641-.586.985-.617z" fill="none" stroke="#000" stroke-width=".043"/><path d="M263.034 153.914c-.359.922-1.203 2.496-1.84 3.332-1.234 1.621-1.777 2.148-1.918 2.961-.145.816-.145 1.27.305 1.27.453 0 .863-.016 1.18.016.32.027.48-.367.395-.977-.09-.609-.23-1.277.082-1.648 1.371-1.629 2.48-2.945 3.012-4.602.207-.637 0-.641-.496-.609-.419.027-.564-.126-.72.257z" fill="#004fa2"/><path d="M263.034 153.914c-.359.922-1.203 2.496-1.84 3.332-1.234 1.621-1.777 2.148-1.918 2.961-.145.816-.145 1.27.305 1.27.453 0 .863-.016 1.18.016.32.027.48-.367.395-.977-.09-.609-.23-1.277.082-1.648 1.371-1.629 2.48-2.945 3.012-4.602.207-.637 0-.641-.496-.609-.419.027-.564-.126-.72.257z" fill="none" stroke="#000" stroke-width=".043" stroke-linecap="round" stroke-linejoin="round"/><path d="M261.323 152.734c.082-.086.195-.258.414-.465.723-.672 1.168-1.41 1.254-2.02.09-.609-.133-.512-.59-.281-.781.402-1.531 1.609-2.016 2.086-.156.152-.277.266-.371.363-.148.148.055.441.328.562.274.111.759.009.981-.245z" fill="#004fa2"/><path d="M261.323 152.734c.082-.086.195-.258.414-.465.723-.672 1.168-1.41 1.254-2.02.09-.609-.133-.512-.59-.281-.781.402-1.531 1.609-2.016 2.086-.156.152-.277.266-.371.363-.148.148.055.441.328.562.274.111.759.009.981-.245z" fill="none" stroke="#000" stroke-width=".043"/><path d="M264.343 166.27c.652-.055.727-.152.574-.879-.16-.77-.309-.816-.668-.629-.098.047-.137.055-.23.086-.125.047.039.324.102.68.077.488.093.745.222.742z" fill="#004fa2"/><path d="M264.343 166.27c.652-.055.727-.152.574-.879-.16-.77-.309-.816-.668-.629-.098.047-.137.055-.23.086-.125.047.039.324.102.68.077.488.093.745.222.742z" fill="none" stroke="#000" stroke-width=".043"/><path d="M281.585 167.188c.07.609-.238.492-1.016.531-.875.051-.961.031-.961-.434 0-.125-.008-.273.082-.395.086-.125.391.031.852.043.793.008 1.012-.035 1.043.255z" fill="#004fa2"/><path d="M281.585 167.188c.07.609-.238.492-1.016.531-.875.051-.961.031-.961-.434 0-.125-.008-.273.082-.395.086-.125.391.031.852.043.793.008 1.012-.035 1.043.255z" fill="none" stroke="#000" stroke-width=".043"/><path d="M277.003 166.934c.02.445-.152.582-.453.559-.352-.031-.523.043-1.102.043-.48 0-.332-.395-.227-.754.043-.172.332-.078.602-.043.781.12 1.168-.079 1.18.195z" fill="#004fa2"/><path d="M277.003 166.934c.02.445-.152.582-.453.559-.352-.031-.523.043-1.102.043-.48 0-.332-.395-.227-.754.043-.172.332-.078.602-.043.781.12 1.168-.079 1.18.195z" fill="none" stroke="#000" stroke-width=".043"/><path d="M268.233 167.273c.18.406.129.52-.148.488-.277-.023-.758.023-1.191.051-.258.012-.227-.254-.125-.633.031-.09.273-.031.68-.047.405-.015.734.016.784.141z" fill="#004fa2"/><path d="M268.233 167.273c.18.406.129.52-.148.488-.277-.023-.758.023-1.191.051-.258.012-.227-.254-.125-.633.031-.09.273-.031.68-.047.405-.015.734.016.784.141z" fill="none" stroke="#000" stroke-width=".043"/><path d="M258.55 152.516c-.168.008-.184-.039-.496-.43-.523-.641-1.973-1.34-2.981-1.328-.598.012-.598.043-.156.453.438.406 1.152.73 1.473.973.879.648 1.18.91 1.137 1.238.195-.32.636-.887 1.023-.906z" fill="#004fa2"/><path d="M258.55 152.516c-.168.008-.184-.039-.496-.43-.523-.641-1.973-1.34-2.981-1.328-.598.012-.598.043-.156.453.438.406 1.152.73 1.473.973.879.648 1.18.91 1.137 1.238.195-.32.636-.887 1.023-.906z" fill="none" stroke="#000" stroke-width=".043"/></g></svg>