<svg xmlns="http://www.w3.org/2000/svg" viewBox="0 0 499.839 277.402"><path fill="#ce1126" d="M-.161 138.516h500V-.375h-500v138.891z"/><path d="M499.839 277.402h-500V138.516h500v138.886z"/><g><path d="M306.968 197.562c-1.852 2.434-3.363 4.531-5.457 7.113-1.789 2.203.828 2.098 1.852 2.242 6.926.988 13.938 8.387 16.668 13.648 2.73 5.262 5.906 5.391 7.992 4.285 1.656-.875 4.211-4.602-.582-10.234-5.07-5.945-11.992-11.016-19.012-16.715-.86-.698-1.168-.631-1.461-.339z" fill="none" stroke="#000" stroke-width=".07"/><g fill="#f9d616"><path d="M299.491 187.941c1.512-1.465 2.895-2.941 3.863-4.219l-4.312-3.762c3.293-3.668 5.59-7.395 7.734-11.02l4.984 2.867c1.965-3.32 4.941-9.418 5.965-13.324l-5.422-1.824c1.641-4.652 2.332-8.973 2.93-13.137l5.699.738c.547-3.82.965-10.598.414-14.594l-5.711.391c-.266-4.926-1.277-9.184-2.324-13.258l5.547-1.504c-.949-3.734-3.16-10.156-5.195-13.633l-5.129 2.543c-2.133-4.449-4.695-7.992-7.219-11.363l4.555-3.512c-2.316-3.086-6.809-8.172-10.027-10.609l-3.762 4.316c-3.672-3.297-7.395-5.59-11.02-7.734l2.871-4.984c-3.328-1.965-9.426-4.945-13.332-5.969l-1.82 5.426c-4.652-1.637-8.961-2.34-13.129-2.93l-1.457 13.43c27.113 3.477 48.062 26.645 48.062 54.703 0 16.465-7.215 31.25-18.66 41.355l15.895 11.607zM277.343 203.078c-3.453 1.523-7.758 2.949-10.566 3.668l-1.5-5.555c-4.074 1.043-8.332 2.059-13.258 2.32l.391 5.711c-3.992.555-10.773.133-14.59-.418l.738-5.699c-4.168-.594-8.488-1.289-13.141-2.93l-1.824 5.426c-3.902-1.02-10-4-13.32-5.965l2.863-4.984c-1.848-1.094-3.715-2.227-5.598-3.508l7.777-11.082c8.984 6.344 19.949 10.074 31.789 10.074a54.97 54.97 0 0 0 19.148-3.418s3.336 2.07 7.676 4.797c.625.398 1.699.734 1.852 1.664.778 4.915 1.563 9.899 1.563 9.899zM224.515 125.824c-10.336 15.789-1.562 32.559 12.082 40.352 19.836 11.332 40.938 23.395 64.523 38.988l5.848-7.602c-35.477-26.124-77.977-55.167-82.453-71.738z"/><path d="M306.968 197.562c-1.852 2.434-3.363 4.531-5.457 7.113-1.789 2.203.828 2.098 1.852 2.242 6.926.988 13.938 8.387 16.668 13.648 2.73 5.262 5.906 5.391 7.992 4.285 1.656-.875 4.211-4.602-.582-10.234-5.07-5.945-11.992-11.016-19.012-16.715-.86-.698-1.168-.631-1.461-.339zM251.761 86.254l-5.516 17.152h-18.152l14.738 10.672-5.66 17.141 14.59-10.653 14.593 10.653-5.586-17.285 14.668-10.457h-18.085l-5.59-17.223z"/></g><path d="M310.479 204.098a.684.684 0 0 0 .684-.691.686.686 0 0 0-.684-.688.69.69 0 1 0 0 1.379zM317.499 209.938a.688.688 0 0 0 0-1.375.688.688 0 1 0 0 1.375zM323.929 215.98a.688.688 0 1 0-.691-.684.687.687 0 0 0 .691.684z" stroke="#000" stroke-width=".07"/><path d="M305.018 200.289c-23.395-16.957-48.02-33.691-64.52-48.344" fill="none" stroke="#000" stroke-width=".07"/></g></svg>