<svg xmlns="http://www.w3.org/2000/svg" viewBox="0 0 499.915 277.478"><path d="M499.839 108.305h-500V-.375h500v108.68z"/><path fill="none" stroke="#000" stroke-width=".152" d="M499.839 108.305h-500V-.375h500v108.68z"/><path fill="#fff" d="M499.839 277.402h-500V168.684h500v108.718z"/><path fill="none" stroke="#000" stroke-width=".152" d="M499.839 277.402h-500V168.684h500v108.718z"/><path fill="#0072c6" d="M499.839 168.684h-500v-60.379h500v60.379z"/><path fill="#ce1126" d="M249.89 277.402L-.161-.375v277.777h500V-.375L249.89 277.402z"/><path fill="#fcd116" d="M153.249 108.305l42.742-10.641L160.612 71.5l43.586 6.41-22.566-37.687 37.687 22.566-6.398-43.594 26.148 35.387 10.77-42.746 10.769 42.746 26.149-35.387-6.406 43.594 37.691-22.566-22.563 37.687 43.582-6.41-35.382 26.164 42.754 10.641H153.249z"/></svg>