<svg xmlns="http://www.w3.org/2000/svg" viewBox="0 0 499.839 277.402"><path fill="#74acdf" d="M-.161 184.809h500v92.593h-500v-92.593zM499.839 92.215h-500V-.375h500v92.59z"/><path fill="#fff" d="M499.839 184.809h-500V92.215h500v92.594z"/><path d="M249.839 152.215c7.598 0 13.75-6.152 13.75-13.75 0-7.59-6.152-13.746-13.75-13.746-7.594 0-13.754 6.156-13.754 13.746 0 7.597 6.16 13.75 13.754 13.75z" fill="#ffce46"/><path d="M249.839 152.215c7.598 0 13.75-6.152 13.75-13.75 0-7.59-6.152-13.746-13.75-13.746-7.594 0-13.754 6.156-13.754 13.746 0 7.597 6.16 13.75 13.754 13.75z" fill="none" stroke="#000" stroke-width=".067" stroke-linecap="round" stroke-linejoin="round"/><path d="M249.839 104.473c.816 0 .98 1.742 1.039 4.008.105 4.184.406 7.203.648 12.488.129 2.73-1.336 2.355-1.688 2.355-.355 0-1.816.375-1.691-2.355.246-5.285.551-8.305.656-12.488.055-2.266.212-4.008 1.036-4.008z" fill="#ffce46"/><path d="M249.839 104.473c.816 0 .98 1.742 1.039 4.008.105 4.184.406 7.203.648 12.488.129 2.73-1.336 2.355-1.688 2.355-.355 0-1.816.375-1.691-2.355.246-5.285.551-8.305.656-12.488.055-2.266.212-4.008 1.036-4.008z" fill="none" stroke="#000" stroke-width=".067" stroke-linecap="round" stroke-linejoin="round"/><path d="M243.218 105.141c-1.316.055-1.223 4.328-.176 6.418 1.043 2.094 1.934 3.871 1.742 6.188-.289 3.543-.176 6.305 2.094 5.867.664-.129 1.93-.793 1.074-2.469-.613-1.191-.746-2.555-.789-4.996-.055-3.773-2.348-4.035-2.785-7.082-.356-2.481-.461-3.958-1.16-3.926z" fill="#ffce46"/><path d="M243.218 105.141c-1.316.055-1.223 4.328-.176 6.418 1.043 2.094 1.934 3.871 1.742 6.188-.289 3.543-.176 6.305 2.094 5.867.664-.129 1.93-.793 1.074-2.469-.613-1.191-.746-2.555-.789-4.996-.055-3.773-2.348-4.035-2.785-7.082-.356-2.481-.461-3.958-1.16-3.926z" fill="none" stroke="#000" stroke-width=".067" stroke-linecap="round" stroke-linejoin="round"/><path d="M236.811 107.063c.754-.309 1.574 1.234 2.492 3.309 1.699 3.824 3.137 6.5 5.383 11.289 1.16 2.469-.328 2.684-.664 2.82-.324.133-1.531 1.039-2.457-1.527-1.797-4.977-2.672-7.883-4.172-11.789-.824-2.118-1.335-3.79-.582-4.102z" fill="#ffce46"/><path d="M236.811 107.063c.754-.309 1.574 1.234 2.492 3.309 1.699 3.824 3.137 6.5 5.383 11.289 1.16 2.469-.328 2.684-.664 2.82-.324.133-1.531 1.039-2.457-1.527-1.797-4.977-2.672-7.883-4.172-11.789-.824-2.118-1.335-3.79-.582-4.102z" fill="none" stroke="#000" stroke-width=".067" stroke-linecap="round" stroke-linejoin="round"/><path d="M230.925 110.231c.969-.887 3.926 2.199 4.66 4.418.742 2.219 1.371 4.102 3.145 5.605 2.711 2.305 4.578 4.336 2.672 5.625-.562.383-1.934.812-2.508-.98-.41-1.277-1.277-2.34-2.976-4.086-2.633-2.715-1.195-4.523-3.043-6.984-1.497-2.001-2.462-3.122-1.95-3.598z" fill="#ffce46"/><path d="M230.925 110.231c.969-.887 3.926 2.199 4.66 4.418.742 2.219 1.371 4.102 3.145 5.605 2.711 2.305 4.578 4.336 2.672 5.625-.562.383-1.934.812-2.508-.98-.41-1.277-1.277-2.34-2.976-4.086-2.633-2.715-1.195-4.523-3.043-6.984-1.497-2.001-2.462-3.122-1.95-3.598z" fill="none" stroke="#000" stroke-width=".067" stroke-linecap="round" stroke-linejoin="round"/><path d="M225.768 114.441c.578-.578 1.926.543 3.566 2.105 3.039 2.879 5.387 4.805 9.293 8.367 2.023 1.836.719 2.605.473 2.859-.25.25-1.023 1.551-2.863-.469-3.562-3.914-5.48-6.262-8.363-9.293-1.563-1.643-2.684-2.986-2.106-3.569z" fill="#ffce46"/><path d="M225.768 114.441c.578-.578 1.926.543 3.566 2.105 3.039 2.879 5.387 4.805 9.293 8.367 2.023 1.836.719 2.605.473 2.859-.25.25-1.023 1.551-2.863-.469-3.562-3.914-5.48-6.262-8.363-9.293-1.563-1.643-2.684-2.986-2.106-3.569z" fill="none" stroke="#000" stroke-width=".067" stroke-linecap="round" stroke-linejoin="round"/><path d="M221.561 119.602c-.894.965 2.199 3.918 4.41 4.656 2.223.742 4.105 1.371 5.613 3.145 2.297 2.711 4.332 4.578 5.625 2.668.383-.555.805-1.926-.992-2.5-1.266-.414-2.328-1.285-4.082-2.98-2.707-2.629-4.516-1.191-6.98-3.043-2-1.497-3.121-2.462-3.594-1.946z" fill="#ffce46"/><path d="M221.561 119.602c-.894.965 2.199 3.918 4.41 4.656 2.223.742 4.105 1.371 5.613 3.145 2.297 2.711 4.332 4.578 5.625 2.668.383-.555.805-1.926-.992-2.5-1.266-.414-2.328-1.285-4.082-2.98-2.707-2.629-4.516-1.191-6.98-3.043-2-1.497-3.121-2.462-3.594-1.946z" fill="none" stroke="#000" stroke-width=".067" stroke-linecap="round" stroke-linejoin="round"/><path d="M218.39 125.488c.316-.758 1.988-.238 4.102.574 3.906 1.508 6.812 2.379 11.789 4.176 2.57.93 1.664 2.133 1.523 2.461-.133.324-.344 1.82-2.816.66-4.793-2.246-7.465-3.684-11.289-5.379-2.071-.925-3.622-1.738-3.309-2.492z" fill="#ffce46"/><path d="M218.39 125.488c.316-.758 1.988-.238 4.102.574 3.906 1.508 6.812 2.379 11.789 4.176 2.57.93 1.664 2.133 1.523 2.461-.133.324-.344 1.82-2.816.66-4.793-2.246-7.465-3.684-11.289-5.379-2.071-.925-3.622-1.738-3.309-2.492z" fill="none" stroke="#000" stroke-width=".067" stroke-linecap="round" stroke-linejoin="round"/><path d="M216.472 131.887c.055-1.312 4.324-1.215 6.414-.172 2.094 1.047 3.871 1.934 6.188 1.742 3.543-.289 6.301-.172 5.867 2.09-.125.668-.797 1.938-2.469 1.078-1.191-.613-2.555-.75-4.996-.785-3.777-.059-4.035-2.352-7.086-2.789-2.477-.352-3.95-.465-3.918-1.164z" fill="#ffce46"/><path d="M216.472 131.887c.055-1.312 4.324-1.215 6.414-.172 2.094 1.047 3.871 1.934 6.188 1.742 3.543-.289 6.301-.172 5.867 2.09-.125.668-.797 1.938-2.469 1.078-1.191-.613-2.555-.75-4.996-.785-3.777-.059-4.035-2.352-7.086-2.789-2.477-.352-3.95-.465-3.918-1.164z" fill="none" stroke="#000" stroke-width=".067" stroke-linecap="round" stroke-linejoin="round"/><path d="M215.8 138.512c0-.816 1.746-.977 4.012-1.035 4.184-.109 7.199-.41 12.488-.656 2.73-.125 2.348 1.34 2.348 1.691 0 .355.383 1.816-2.348 1.688-5.289-.242-8.305-.547-12.488-.652-2.266-.056-4.012-.216-4.012-1.036z" fill="#ffce46"/><path d="M215.8 138.512c0-.816 1.746-.977 4.012-1.035 4.184-.109 7.199-.41 12.488-.656 2.73-.125 2.348 1.34 2.348 1.691 0 .355.383 1.816-2.348 1.688-5.289-.242-8.305-.547-12.488-.652-2.266-.056-4.012-.216-4.012-1.036z" fill="none" stroke="#000" stroke-width=".067" stroke-linecap="round" stroke-linejoin="round"/><path d="M216.472 145.133c.055 1.32 4.324 1.223 6.414.176 2.094-1.047 3.871-1.934 6.188-1.742 3.543.289 6.301.172 5.867-2.09-.125-.668-.797-1.934-2.469-1.078-1.191.613-2.555.746-4.996.785-3.777.059-4.035 2.352-7.086 2.785-2.477.355-3.95.469-3.918 1.164z" fill="#ffce46"/><path d="M216.472 145.133c.055 1.32 4.324 1.223 6.414.176 2.094-1.047 3.871-1.934 6.188-1.742 3.543.289 6.301.172 5.867-2.09-.125-.668-.797-1.934-2.469-1.078-1.191.613-2.555.746-4.996.785-3.777.059-4.035 2.352-7.086 2.785-2.477.355-3.95.469-3.918 1.164z" fill="none" stroke="#000" stroke-width=".067" stroke-linecap="round" stroke-linejoin="round"/><path d="M218.39 151.539c-.312-.758 1.238-1.574 3.309-2.492 3.824-1.699 6.496-3.133 11.289-5.383 2.473-1.164 2.684.332 2.816.66.141.328 1.047 1.535-1.523 2.465-4.977 1.793-7.883 2.668-11.789 4.172-2.114.816-3.786 1.332-4.102.578z" fill="#ffce46"/><path d="M218.39 151.539c-.312-.758 1.238-1.574 3.309-2.492 3.824-1.699 6.496-3.133 11.289-5.383 2.473-1.164 2.684.332 2.816.66.141.328 1.047 1.535-1.523 2.465-4.977 1.793-7.883 2.668-11.789 4.172-2.114.816-3.786 1.332-4.102.578z" fill="none" stroke="#000" stroke-width=".067" stroke-linecap="round" stroke-linejoin="round"/><path d="M221.561 157.426c-.894-.969 2.195-3.926 4.41-4.66 2.223-.742 4.105-1.371 5.613-3.145 2.297-2.711 4.332-4.578 5.625-2.672.383.562.805 1.93-.992 2.508-1.266.41-2.328 1.277-4.082 2.977-2.707 2.633-4.516 1.195-6.98 3.043-2 1.496-3.121 2.461-3.594 1.949z" fill="#ffce46"/><path d="M221.561 157.426c-.894-.969 2.195-3.926 4.41-4.66 2.223-.742 4.105-1.371 5.613-3.145 2.297-2.711 4.332-4.578 5.625-2.672.383.562.805 1.93-.992 2.508-1.266.41-2.328 1.277-4.082 2.977-2.707 2.633-4.516 1.195-6.98 3.043-2 1.496-3.121 2.461-3.594 1.949z" fill="none" stroke="#000" stroke-width=".067" stroke-linecap="round" stroke-linejoin="round"/><path d="M225.768 162.578c-.578-.574.543-1.922 2.105-3.566 2.883-3.031 4.801-5.383 8.363-9.289 1.84-2.023 2.613-.719 2.863-.469.246.25 1.551 1.016-.473 2.859-3.906 3.562-6.254 5.484-9.293 8.363-1.639 1.563-2.986 2.684-3.565 2.102z" fill="#ffce46"/><path d="M225.768 162.578c-.578-.574.543-1.922 2.105-3.566 2.883-3.031 4.801-5.383 8.363-9.289 1.84-2.023 2.613-.719 2.863-.469.246.25 1.551 1.016-.473 2.859-3.906 3.562-6.254 5.484-9.293 8.363-1.639 1.563-2.986 2.684-3.565 2.102z" fill="none" stroke="#000" stroke-width=".067" stroke-linecap="round" stroke-linejoin="round"/><path d="M230.925 166.789c.969.895 3.926-2.199 4.66-4.414.742-2.219 1.371-4.102 3.145-5.609 2.711-2.297 4.578-4.332 2.672-5.625-.562-.383-1.934-.805-2.508.988-.41 1.27-1.277 2.332-2.976 4.086-2.633 2.711-1.195 4.516-3.043 6.98-1.497 2-2.466 3.125-1.95 3.594z" fill="#ffce46"/><path d="M230.925 166.789c.969.895 3.926-2.199 4.66-4.414.742-2.219 1.371-4.102 3.145-5.609 2.711-2.297 4.578-4.332 2.672-5.625-.562-.383-1.934-.805-2.508.988-.41 1.27-1.277 2.332-2.976 4.086-2.633 2.711-1.195 4.516-3.043 6.98-1.497 2-2.466 3.125-1.95 3.594z" fill="none" stroke="#000" stroke-width=".067" stroke-linecap="round" stroke-linejoin="round"/><path d="M236.811 169.957c-.754-.309-.242-1.98.582-4.098 1.5-3.902 2.375-6.809 4.172-11.789.926-2.57 2.133-1.66 2.457-1.523.336.133 1.824.344.664 2.816-2.246 4.793-3.684 7.465-5.383 11.289-.917 2.071-1.734 3.621-2.492 3.305z" fill="#ffce46"/><path d="M236.811 169.957c-.754-.309-.242-1.98.582-4.098 1.5-3.902 2.375-6.809 4.172-11.789.926-2.57 2.133-1.66 2.457-1.523.336.133 1.824.344.664 2.816-2.246 4.793-3.684 7.465-5.383 11.289-.917 2.071-1.734 3.621-2.492 3.305z" fill="none" stroke="#000" stroke-width=".067" stroke-linecap="round" stroke-linejoin="round"/><path d="M243.218 171.879c-1.316-.055-1.223-4.32-.176-6.414 1.043-2.094 1.934-3.871 1.742-6.188-.289-3.543-.176-6.305 2.094-5.867.664.125 1.93.793 1.074 2.469-.613 1.191-.746 2.555-.789 4.996-.055 3.777-2.348 4.035-2.785 7.086-.356 2.477-.461 3.949-1.16 3.918z" fill="#ffce46"/><path d="M243.218 171.879c-1.316-.055-1.223-4.32-.176-6.414 1.043-2.094 1.934-3.871 1.742-6.188-.289-3.543-.176-6.305 2.094-5.867.664.125 1.93.793 1.074 2.469-.613 1.191-.746 2.555-.789 4.996-.055 3.777-2.348 4.035-2.785 7.086-.356 2.477-.461 3.949-1.16 3.918z" fill="none" stroke="#000" stroke-width=".067" stroke-linecap="round" stroke-linejoin="round"/><path d="M249.839 172.551c-.824 0-.98-1.746-1.035-4.008-.105-4.188-.41-7.203-.656-12.488-.125-2.734 1.336-2.352 1.691-2.352.352 0 1.816-.383 1.688 2.352-.242 5.285-.543 8.301-.648 12.488-.06 2.262-.224 4.008-1.04 4.008z" fill="#ffce46"/><path d="M249.839 172.551c-.824 0-.98-1.746-1.035-4.008-.105-4.188-.41-7.203-.656-12.488-.125-2.734 1.336-2.352 1.691-2.352.352 0 1.816-.383 1.688 2.352-.242 5.285-.543 8.301-.648 12.488-.06 2.262-.224 4.008-1.04 4.008z" fill="none" stroke="#000" stroke-width=".067" stroke-linecap="round" stroke-linejoin="round"/><path d="M256.464 171.879c1.312-.055 1.215-4.32.172-6.414-1.047-2.094-1.934-3.871-1.742-6.188.289-3.543.176-6.305-2.09-5.867-.668.125-1.938.793-1.074 2.469.609 1.191.746 2.555.781 4.996.059 3.777 2.352 4.035 2.789 7.086.351 2.477.465 3.949 1.164 3.918z" fill="#ffce46"/><path d="M256.464 171.879c1.312-.055 1.215-4.32.172-6.414-1.047-2.094-1.934-3.871-1.742-6.188.289-3.543.176-6.305-2.09-5.867-.668.125-1.938.793-1.074 2.469.609 1.191.746 2.555.781 4.996.059 3.777 2.352 4.035 2.789 7.086.351 2.477.465 3.949 1.164 3.918z" fill="none" stroke="#000" stroke-width=".067" stroke-linecap="round" stroke-linejoin="round"/><path d="M262.866 169.957c-.754.316-1.574-1.234-2.492-3.305-1.699-3.824-3.137-6.496-5.383-11.289-1.16-2.473.332-2.684.66-2.816.324-.141 1.535-1.047 2.461 1.523 1.797 4.98 2.672 7.887 4.176 11.789.816 2.118 1.336 3.786.578 4.098z" fill="#ffce46"/><path d="M262.866 169.957c-.754.316-1.574-1.234-2.492-3.305-1.699-3.824-3.137-6.496-5.383-11.289-1.16-2.473.332-2.684.66-2.816.324-.141 1.535-1.047 2.461 1.523 1.797 4.98 2.672 7.887 4.176 11.789.816 2.118 1.336 3.786.578 4.098z" fill="none" stroke="#000" stroke-width=".067" stroke-linecap="round" stroke-linejoin="round"/><path d="M268.749 166.789c-.969.895-3.918-2.195-4.656-4.414-.742-2.219-1.371-4.102-3.145-5.609-2.711-2.297-4.582-4.332-2.672-5.625.562-.383 1.934-.805 2.508.988.41 1.27 1.281 2.332 2.977 4.086 2.629 2.711 1.191 4.516 3.039 6.98 1.504 2 2.465 3.125 1.949 3.594z" fill="#ffce46"/><path d="M268.749 166.789c-.969.895-3.918-2.195-4.656-4.414-.742-2.219-1.371-4.102-3.145-5.609-2.711-2.297-4.582-4.332-2.672-5.625.562-.383 1.934-.805 2.508.988.41 1.27 1.281 2.332 2.977 4.086 2.629 2.711 1.191 4.516 3.039 6.98 1.504 2 2.465 3.125 1.949 3.594z" fill="none" stroke="#000" stroke-width=".067" stroke-linecap="round" stroke-linejoin="round"/><path d="M273.909 162.578c-.578.582-1.926-.539-3.57-2.102-3.031-2.879-5.379-4.801-9.289-8.363-2.02-1.844-.723-2.609-.473-2.859.254-.25 1.02-1.555 2.859.469 3.562 3.906 5.488 6.258 8.367 9.289 1.567 1.644 2.684 2.992 2.106 3.566z" fill="#ffce46"/><path d="M273.909 162.578c-.578.582-1.926-.539-3.57-2.102-3.031-2.879-5.379-4.801-9.289-8.363-2.02-1.844-.723-2.609-.473-2.859.254-.25 1.02-1.555 2.859.469 3.562 3.906 5.488 6.258 8.367 9.289 1.567 1.644 2.684 2.992 2.106 3.566z" fill="none" stroke="#000" stroke-width=".067" stroke-linecap="round" stroke-linejoin="round"/><path d="M278.116 157.426c.895-.969-2.199-3.926-4.414-4.66-2.219-.742-4.102-1.371-5.605-3.145-2.305-2.711-4.336-4.578-5.625-2.672-.383.562-.809 1.93.98 2.508 1.277.41 2.34 1.277 4.09 2.977 2.707 2.633 4.52 1.195 6.984 3.043 2 1.496 3.117 2.461 3.59 1.949z" fill="#ffce46"/><path d="M278.116 157.426c.895-.969-2.199-3.926-4.414-4.66-2.219-.742-4.102-1.371-5.605-3.145-2.305-2.711-4.336-4.578-5.625-2.672-.383.562-.809 1.93.98 2.508 1.277.41 2.34 1.277 4.09 2.977 2.707 2.633 4.52 1.195 6.984 3.043 2 1.496 3.117 2.461 3.59 1.949z" fill="none" stroke="#000" stroke-width=".067" stroke-linecap="round" stroke-linejoin="round"/><path d="M281.288 151.539c-.312.754-1.984.234-4.102-.578-3.906-1.504-6.816-2.379-11.785-4.176-2.574-.926-1.668-2.133-1.527-2.461.133-.328.348-1.824 2.816-.66 4.789 2.25 7.465 3.68 11.289 5.383 2.075.918 3.618 1.734 3.309 2.492z" fill="#ffce46"/><path d="M281.288 151.539c-.312.754-1.984.234-4.102-.578-3.906-1.504-6.816-2.379-11.785-4.176-2.574-.926-1.668-2.133-1.527-2.461.133-.328.348-1.824 2.816-.66 4.789 2.25 7.465 3.68 11.289 5.383 2.075.918 3.618 1.734 3.309 2.492z" fill="none" stroke="#000" stroke-width=".067" stroke-linecap="round" stroke-linejoin="round"/><path d="M283.21 145.133c-.055 1.32-4.328 1.223-6.418.176-2.094-1.043-3.871-1.934-6.191-1.742-3.539.289-6.301.172-5.863-2.09.129-.668.793-1.934 2.469-1.078 1.191.613 2.555.746 4.996.785 3.777.059 4.035 2.352 7.086 2.785 2.476.355 3.952.469 3.921 1.164z" fill="#ffce46"/><path d="M283.21 145.133c-.055 1.32-4.328 1.223-6.418.176-2.094-1.043-3.871-1.934-6.191-1.742-3.539.289-6.301.172-5.863-2.09.129-.668.793-1.934 2.469-1.078 1.191.613 2.555.746 4.996.785 3.777.059 4.035 2.352 7.086 2.785 2.476.355 3.952.469 3.921 1.164z" fill="none" stroke="#000" stroke-width=".067" stroke-linecap="round" stroke-linejoin="round"/><path d="M283.882 138.512c0 .82-1.746.98-4.012 1.035-4.184.105-7.203.41-12.488.652-2.73.129-2.355-1.332-2.355-1.688 0-.352-.375-1.816 2.355-1.691 5.285.246 8.305.547 12.488.656 2.266.059 4.012.219 4.012 1.036z" fill="#ffce46"/><path d="M283.882 138.512c0 .82-1.746.98-4.012 1.035-4.184.105-7.203.41-12.488.652-2.73.129-2.355-1.332-2.355-1.688 0-.352-.375-1.816 2.355-1.691 5.285.246 8.305.547 12.488.656 2.266.059 4.012.219 4.012 1.036z" fill="none" stroke="#000" stroke-width=".067" stroke-linecap="round" stroke-linejoin="round"/><path d="M283.21 131.887c-.055-1.312-4.328-1.215-6.418-.172-2.094 1.047-3.871 1.934-6.191 1.742-3.539-.289-6.301-.172-5.863 2.09.129.668.793 1.938 2.469 1.078 1.191-.613 2.555-.75 4.996-.785 3.777-.059 4.035-2.352 7.086-2.789 2.476-.352 3.952-.465 3.921-1.164z" fill="#ffce46"/><path d="M283.21 131.887c-.055-1.312-4.328-1.215-6.418-.172-2.094 1.047-3.871 1.934-6.191 1.742-3.539-.289-6.301-.172-5.863 2.09.129.668.793 1.938 2.469 1.078 1.191-.613 2.555-.75 4.996-.785 3.777-.059 4.035-2.352 7.086-2.789 2.476-.352 3.952-.465 3.921-1.164z" fill="none" stroke="#000" stroke-width=".067" stroke-linecap="round" stroke-linejoin="round"/><path d="M281.288 125.484c.309.758-1.234 1.57-3.309 2.492-3.824 1.699-6.5 3.137-11.289 5.383-2.469 1.16-2.684-.336-2.82-.66-.137-.328-1.043-1.531 1.531-2.461 4.969-1.797 7.879-2.676 11.781-4.18 2.122-.812 3.794-1.327 4.106-.574z" fill="#ffce46"/><path d="M281.288 125.484c.309.758-1.234 1.57-3.309 2.492-3.824 1.699-6.5 3.137-11.289 5.383-2.469 1.16-2.684-.336-2.82-.66-.137-.328-1.043-1.531 1.531-2.461 4.969-1.797 7.879-2.676 11.781-4.18 2.122-.812 3.794-1.327 4.106-.574z" fill="none" stroke="#000" stroke-width=".067" stroke-linecap="round" stroke-linejoin="round"/><path d="M278.116 119.602c.895.965-2.199 3.918-4.414 4.656-2.219.742-4.102 1.371-5.605 3.145-2.305 2.711-4.336 4.578-5.625 2.668-.383-.555-.809-1.926.98-2.5 1.277-.414 2.34-1.285 4.09-2.98 2.707-2.629 4.52-1.191 6.984-3.043 2-1.501 3.117-2.462 3.59-1.946z" fill="#ffce46"/><path d="M278.116 119.602c.895.965-2.199 3.918-4.414 4.656-2.219.742-4.102 1.371-5.605 3.145-2.305 2.711-4.336 4.578-5.625 2.668-.383-.555-.809-1.926.98-2.5 1.277-.414 2.34-1.285 4.09-2.98 2.707-2.629 4.52-1.191 6.984-3.043 2-1.501 3.117-2.462 3.59-1.946z" fill="none" stroke="#000" stroke-width=".067" stroke-linecap="round" stroke-linejoin="round"/><path d="M273.909 114.441c.578.582-.539 1.926-2.105 3.57-2.879 3.031-4.805 5.379-8.367 9.293-1.84 2.02-2.605.719-2.859.469-.25-.254-1.547-1.023.473-2.859 3.91-3.566 6.258-5.488 9.289-8.367 1.643-1.563 2.991-2.684 3.569-2.106z" fill="#ffce46"/><path d="M273.909 114.441c.578.582-.539 1.926-2.105 3.57-2.879 3.031-4.805 5.379-8.367 9.293-1.84 2.02-2.605.719-2.859.469-.25-.254-1.547-1.023.473-2.859 3.91-3.566 6.258-5.488 9.289-8.367 1.643-1.563 2.991-2.684 3.569-2.106z" fill="none" stroke="#000" stroke-width=".067" stroke-linecap="round" stroke-linejoin="round"/><path d="M268.749 110.231c-.969-.887-3.918 2.199-4.656 4.418-.742 2.219-1.371 4.102-3.145 5.605-2.711 2.305-4.582 4.336-2.672 5.625.562.383 1.934.812 2.508-.98.41-1.277 1.281-2.34 2.977-4.086 2.629-2.715 1.191-4.523 3.043-6.984 1.5-2.001 2.461-3.122 1.945-3.598z" fill="#ffce46"/><path d="M268.749 110.231c-.969-.887-3.918 2.199-4.656 4.418-.742 2.219-1.371 4.102-3.145 5.605-2.711 2.305-4.582 4.336-2.672 5.625.562.383 1.934.812 2.508-.98.41-1.277 1.281-2.34 2.977-4.086 2.629-2.715 1.191-4.523 3.043-6.984 1.5-2.001 2.461-3.122 1.945-3.598z" fill="none" stroke="#000" stroke-width=".067" stroke-linecap="round" stroke-linejoin="round"/><path d="M262.862 107.063c.758.312.238 1.984-.574 4.102-1.504 3.906-2.379 6.812-4.176 11.785-.926 2.57-2.137 1.664-2.461 1.531-.328-.137-1.82-.352-.66-2.82 2.246-4.789 3.684-7.465 5.383-11.289.918-2.075 1.734-3.618 2.488-3.309z" fill="#ffce46"/><path d="M262.862 107.063c.758.312.238 1.984-.574 4.102-1.504 3.906-2.379 6.812-4.176 11.785-.926 2.57-2.137 1.664-2.461 1.531-.328-.137-1.82-.352-.66-2.82 2.246-4.789 3.684-7.465 5.383-11.289.918-2.075 1.734-3.618 2.488-3.309z" fill="none" stroke="#000" stroke-width=".067" stroke-linecap="round" stroke-linejoin="round"/><path d="M256.464 105.141c1.312.055 1.215 4.328.172 6.418-1.047 2.094-1.934 3.871-1.742 6.188.289 3.543.176 6.305-2.09 5.867-.668-.129-1.938-.793-1.074-2.469.609-1.191.746-2.555.781-4.996.059-3.773 2.352-4.035 2.789-7.082.351-2.481.465-3.958 1.164-3.926z" fill="#ffce46"/><path d="M256.464 105.141c1.312.055 1.215 4.328.172 6.418-1.047 2.094-1.934 3.871-1.742 6.188.289 3.543.176 6.305-2.09 5.867-.668-.129-1.938-.793-1.074-2.469.609-1.191.746-2.555.781-4.996.059-3.773 2.352-4.035 2.789-7.082.351-2.481.465-3.958 1.164-3.926z" fill="none" stroke="#000" stroke-width=".067" stroke-linecap="round" stroke-linejoin="round"/><path d="M247.339 144.77c.758-.41 1.977-.641 2.5.027.523-.668 1.742-.438 2.5-.027.754.406 1.797.113 2.352.461-.32-.082-1.598.613-2.496.293-.898-.32-.816.234-2.355.234-1.539 0-1.453-.555-2.352-.234-.898.32-2.18-.375-2.5-.293.554-.348 1.601-.055 2.351-.461zM249.839 146.973c.738 0 1.406-.113 1.973-.332.27-.102.453-.465.469-.098.016.359-.613 1.215-2.441 1.215-1.832 0-2.453-.855-2.441-1.215.02-.367.199-.004.465.098.565.218 1.233.332 1.975.332zM249.839 142.496c.379 0 .719-.25.875-.422.199-.215.547-.191.969-.172.465.02.66-.203.746-.465.113-.375.129-.961-.488-1.266.363.184.469.816.281 1.207-.129.273-.516.301-.816.273-.297-.027-.77.121-.957.32-.156.168-.344.246-.609.246-.266 0-.449-.078-.605-.246-.195-.199-.66-.348-.965-.32-.297.027-.684 0-.812-.273-.191-.391-.086-1.023.281-1.207-.621.305-.602.891-.484 1.266.082.262.273.484.742.465.422-.02.77-.043.965.172.158.172.502.422.877.422zM240.851 135.152c1.242-.664 2.441-1.078 4.414-.961 1.973.113 2.906.578 3.34.84.438.266.293.352-.145.352-.434 0-1.77-.262-2.816-.555-1.047-.289-2.973-.316-4.66.406-.102.047-.352.032-.133-.082z"/><path d="M247.081 135.234c-.215.871-1.219 1.844-2.184 1.844-1.465 0-2.68-.973-2.707-2.176.172 1.133 1.234 1.914 2.695 1.914.962 0 1.848-.695 2.196-1.582z"/><path d="M243.667 135.254c.101.562.598 1.043 1.336 1.043.523 0 1.363-.145 1.672-1.266-.422-.289-1.715-.434-2.078-.418.32.578-.188.942-.93.641zM248.897 132.855c-2.031-1.164-4.902-1.562-6.914-1.164-.582.121-1.145.312-.609.727.391.305.637.109 1.363 0 1.742-.262 4.25-.043 5.316.641.316.203.539.293.844.293.305 0 .606-.149 0-.497zM249.839 129.805c.379 0 .84.258 1.336.582.492.32 1.453.027 1.859-.234.406-.262 1.422-.727 2.965.379-1.617-.801-2.477-.418-2.863-.133-.387.289-1.445.598-1.961.312-.512-.281-.957-.516-1.336-.492-.375.027-.824.211-1.336.492-.516.285-1.574-.023-1.961-.312-.387-.285-1.246-.668-2.859.133 1.539-1.105 2.551-.641 2.961-.379.406.262 1.363.555 1.859.234.492-.325.957-.582 1.336-.582zM249.839 128.457c1.918 0 2.832-1.047 4.359.32-.871-.73-2.051-.586-2.531-.41-.477.176-1.363.348-1.828.348-.465 0-1.348-.172-1.832-.348-.477-.176-1.652-.32-2.523.41 1.523-1.367 2.441-.32 4.355-.32zM258.944 135.152c-1.238-.664-2.441-1.078-4.414-.961-1.973.113-2.91.578-3.34.84-.438.266-.289.352.145.352s1.77-.262 2.816-.555c1.043-.289 2.969-.316 4.66.406.098.047.348.032.133-.082z"/><path d="M252.71 135.234c.223.871 1.223 1.844 2.184 1.844 1.465 0 2.684-.973 2.715-2.176-.176 1.133-1.234 1.914-2.703 1.914-.962 0-1.848-.695-2.196-1.582z"/><path d="M254.151 134.922c.102.57.594 1.051 1.336 1.051.52 0 1.625-.25 1.844-1.555-.422-.293-1.844-.219-2.254-.133.324.582-.184.945-.926.637zM250.901 132.855c2.031-1.164 4.898-1.562 6.91-1.164.578.121 1.145.312.605.727-.387.305-.637.109-1.363 0-1.742-.262-4.246-.043-5.313.641-.32.203-.539.293-.84.293-.307 0-.608-.149.001-.497z"/><path d="M238.698 131.449h.754m-1.347.934h1.062m-1.516.929h1.285m-1.644.93h1.34m-1.598.93h1.695m-1.878.93h1.41m-1.547.925h1.984m-2.019.934h1.84m-1.805.93h2.27m-2.149.925h2.031m-1.883.934h2.184m-2 .93h2.047m-1.742.925h1.566m-1.207.93h1.852m-1.395.93h1.906m-1.418.93h1.539m-.906.929h1.895m-1.168.93h1.457m-.575.926h.816m.302.929h.305m17.683-18.582h.531m-.168.922h.73m-.222.934h.73m-.675.929h1.125m-.657.93h.934m-1.152.93h1.434m-1.157.93h1.355m-1.601.925h1.523m-.988.934h1.266m-1.379.93h1.379m-1.672.925h1.582m-1.93.934h1.625m-1.898.93h1.895m-1.973.925h1.723m-2.376.93h2.094m-2.019.93h1.625m-2.739.93h2.203m-2.078.929h1.578m-2.941.93h2.23m-2.316.926h1.48m-3.511.929h2.551m-2.785.93h1.414m-3.043.934h1.438" fill="none" stroke="#000" stroke-width=".034" stroke-linecap="round" stroke-linejoin="round"/></svg>