<svg xmlns="http://www.w3.org/2000/svg" viewBox="0 0 499.839 277.402"><path fill="#006" d="M499.839 276.168V.859h-500v275.309h500z"/><path fill="#bd1021" d="M499.839-.375L11.737 138.508l488.102 138.894V-.375z"/><path fill="#fff" d="M499.839 13.988L62.101 138.508l437.738 124.566V13.988z"/><path d="M419.753 166.473c-1.23 1.102-3.613 5.285-4.059 8.812.387 2.25-3.602 7.645-4.215 9.691-.445.766-1 1.809-1.441 2.359l-20.152-1.371c-.891-.441-1.5-1.43-1.5-2.316 2.109.332 5.477-1.98 6.59-2.973-.133-.988-.047-2.371.293-3.301.559-1.602 2.223-2.918 3.223-3.578 1.332-.793 4.113-1.406 5.668-1.91.887-1.098 1.66-2.223 3.211-5.086.391.332.996.801 1.457.984 1.695-2.387 3.012-5.148 3.539-6.602 1.555 1.734 4.164 1.539 5.98.988.156 1.158.714 3.342 1.406 4.303z" fill="#f5ba22"/><path d="M419.753 166.473c-1.23 1.102-3.613 5.285-4.059 8.812.387 2.25-3.602 7.645-4.215 9.691-.445.766-1 1.809-1.441 2.359l-20.152-1.371c-.891-.441-1.5-1.43-1.5-2.316 2.109.332 5.477-1.98 6.59-2.973-.133-.988-.047-2.371.293-3.301.559-1.602 2.223-2.918 3.223-3.578 1.332-.793 4.113-1.406 5.668-1.91.887-1.098 1.66-2.223 3.211-5.086.391.332.996.801 1.457.984 1.695-2.387 3.012-5.148 3.539-6.602 1.555 1.734 4.164 1.539 5.98.988.156 1.158.714 3.342 1.406 4.303z" fill="none" stroke="#000" stroke-width=".06"/><path d="M383.448 170.41s-22.613-5.367-26.082-6.168c-3.465-.805-6.844-6.305-8.262-9.352-5.984 3.57-16.707 4.777-21.676 4.527 4.555 1.984 13.602 7.828 17.352 13.656 2.637-2.09 8.137-5.516 11.602-4.695 3.5.824 26.117 6.047 26.117 6.047" fill="#f5ba22"/><path d="M383.448 170.41s-22.613-5.367-26.082-6.168c-3.465-.805-6.844-6.305-8.262-9.352-5.984 3.57-16.707 4.777-21.676 4.527 4.555 1.984 13.602 7.828 17.352 13.656 2.637-2.09 8.137-5.516 11.602-4.695 3.5.824 26.117 6.047 26.117 6.047" fill="none" stroke="#000" stroke-width=".06"/><path d="M354.753 175.199c-.285 1.199.336 1.387 1.457 1.613.531.113 1.43.305 2.312.52 1.109.277 1.777.48 2.051-.719l4.266-18.031c.293-1.199-.398-1.312-1.52-1.559a40.337 40.337 0 0 1-2.301-.551c-1.109-.289-1.746-.395-2.027.805l-4.238 17.922z" fill="#f5ba22"/><path d="M354.753 175.199c-.285 1.199.336 1.387 1.457 1.613.531.113 1.43.305 2.312.52 1.109.277 1.777.48 2.051-.719l4.266-18.031c.293-1.199-.398-1.312-1.52-1.559a40.337 40.337 0 0 1-2.301-.551c-1.109-.289-1.746-.395-2.027.805l-4.238 17.922z" fill="none" stroke="#000" stroke-width=".06"/><path d="M365.354 174.492c-.188.828-.656.68-1.43.492a39.615 39.615 0 0 0-1.609-.359c-.777-.16-1.211-.289-1.016-1.125l2.793-11.812c.199-.836.641-.754 1.41-.555.371.094.984.246 1.605.383.781.172 1.262.246 1.055 1.082l-2.808 11.894z" fill="#f5ba22"/><path d="M365.354 174.492c-.188.828-.656.68-1.43.492a39.615 39.615 0 0 0-1.609-.359c-.777-.16-1.211-.289-1.016-1.125l2.793-11.812c.199-.836.641-.754 1.41-.555.371.094.984.246 1.605.383.781.172 1.262.246 1.055 1.082l-2.808 11.894z" fill="none" stroke="#000" stroke-width=".06"/><path d="M451.542 185.945l-55.312-12.684c-2.738-.719-9.125-4.805-10.234-7.555-1.113-2.75-3.066 1.945-4.051 6.434-.984 4.488-1.441 9.527.777 7.547 2.219-1.984 9.77-2.867 12.547-2.312l55.293 12.773c1.331.278 2.242-3.894.98-4.203z" fill="#f5ba22"/><path d="M451.542 185.945l-55.312-12.684c-2.738-.719-9.125-4.805-10.234-7.555-1.113-2.75-3.066 1.945-4.051 6.434-.984 4.488-1.441 9.527.777 7.547 2.219-1.984 9.77-2.867 12.547-2.312l55.293 12.773c1.331.278 2.242-3.894.98-4.203z" fill="none" stroke="#000" stroke-width=".06"/><path d="M371.952 188.734l75.043 5.371c1.355.066 1.605-4.191.316-4.309l-75.051-5.262-.308 4.2z" fill="#f5ba22"/><path d="M371.952 188.734l75.043 5.371c1.355.066 1.605-4.191.316-4.309l-75.051-5.262-.308 4.2z" fill="none" stroke="#000" stroke-width=".06"/><path d="M417.14 200.715c1.777 1.547 8.883 4.844 11.773 5.508-3.117 1.543-11.328 0-14.215-1.316.891 2.203 4.438 5.512 7.324 6.828-4.66 3.082-10.211-1.547-13.543-5.945 1.113 1.32 1.777 5.277 1.113 6.605-2.664-4.852-10.438-8.375-14.664-9.027 3.562 1.094 4.004 4.176 3.781 5.723-3.551-3.531-7.105-2.867-7.996.438-3.109-6.609-11.766-8.586-16.43-8.586-4.66 0-3.328-3.746-11.547-4.188-5.359-.285-5.996-5.945-9.77-7.934-3.781-1.98-2.219-3.734-.664-5.723 1.555-1.977 4.66-2.645 5.992-.879 1.332 1.762 4.441-2.645 7.555-.223 1.477 1.156 2.215 2.867 3.773 0 1.551-2.859 5.512 1.703 7.105 3.969.773 1.098 1.109 2.305.223 2.75-.895.445-1.668 1.656-.895 2.422.781.773-.891 1.656-2.215 1.656 9.102 1.98 21.867 1.871 25.98 1.211-.445.77-1.449 2.312-2.332 2.75 4.105.336 13.762.773 17.988-2.316-.227 1.223-.781 3.418-1.445 4.078 1.773.328 9.32.117 11.324-.438-.891 1.652-2.997 3.305-8.215 2.637z" fill="#f5ba22"/><path d="M417.14 200.715c1.777 1.547 8.883 4.844 11.773 5.508-3.117 1.543-11.328 0-14.215-1.316.891 2.203 4.438 5.512 7.324 6.828-4.66 3.082-10.211-1.547-13.543-5.945 1.113 1.32 1.777 5.277 1.113 6.605-2.664-4.852-10.438-8.375-14.664-9.027 3.562 1.094 4.004 4.176 3.781 5.723-3.551-3.531-7.105-2.867-7.996.438-3.109-6.609-11.766-8.586-16.43-8.586-4.66 0-3.328-3.746-11.547-4.188-5.359-.285-5.996-5.945-9.77-7.934-3.781-1.98-2.219-3.734-.664-5.723 1.555-1.977 4.66-2.645 5.992-.879 1.332 1.762 4.441-2.645 7.555-.223 1.477 1.156 2.215 2.867 3.773 0 1.551-2.859 5.512 1.703 7.105 3.969.773 1.098 1.109 2.305.223 2.75-.895.445-1.668 1.656-.895 2.422.781.773-.891 1.656-2.215 1.656 9.102 1.98 21.867 1.871 25.98 1.211-.445.77-1.449 2.312-2.332 2.75 4.105.336 13.762.773 17.988-2.316-.227 1.223-.781 3.418-1.445 4.078 1.773.328 9.32.117 11.324-.438-.891 1.652-2.997 3.305-8.215 2.637z" fill="none" stroke="#000" stroke-width=".06"/><path d="M413.558 177.945c-.496 2.164-.289 3.773-3.352 3.488-.344 1.496.621 3.836 2.441 3.863 2.496.039 4.297-2.777 4.836-5.09.355-1.543.484-4.555-1.172-4.875-1.527-.304-2.257.399-2.753 2.614z" fill="#f5ba22"/><path d="M413.558 177.945c-.496 2.164-.289 3.773-3.352 3.488-.344 1.496.621 3.836 2.441 3.863 2.496.039 4.297-2.777 4.836-5.09.355-1.543.484-4.555-1.172-4.875-1.527-.304-2.257.399-2.753 2.614z" fill="none" stroke="#000" stroke-width=".06"/><path d="M409.468 177.477c-.551 2.406-.324 4.211-3.727 3.887-.391 1.664.684 4.273 2.715 4.301 2.777.039 4.785-3.09 5.387-5.668.398-1.715.539-5.078-1.301-5.434-1.707-.336-2.52.445-3.074 2.914z" fill="#f5ba22"/><path d="M409.468 177.477c-.551 2.406-.324 4.211-3.727 3.887-.391 1.664.684 4.273 2.715 4.301 2.777.039 4.785-3.09 5.387-5.668.398-1.715.539-5.078-1.301-5.434-1.707-.336-2.52.445-3.074 2.914z" fill="none" stroke="#000" stroke-width=".06"/><path d="M405.483 175.996c-.871 2.32-.891 4.129-4.219 3.359-.609 1.594.109 4.332 2.113 4.625 2.746.402 5.156-2.418 6.098-4.898.629-1.648 1.23-4.957-.551-5.566-1.644-.563-2.554.109-3.441 2.48z" fill="#f5ba22"/><path d="M405.483 175.996c-.871 2.32-.891 4.129-4.219 3.359-.609 1.594.109 4.332 2.113 4.625 2.746.402 5.156-2.418 6.098-4.898.629-1.648 1.23-4.957-.551-5.566-1.644-.563-2.554.109-3.441 2.48z" fill="none" stroke="#000" stroke-width=".06"/><path d="M401.597 174.512c-.867 2.316-.891 4.125-4.223 3.352-.605 1.602.109 4.336 2.117 4.629 2.605.387 4.824-2.199 6.047-4.68.84-1.699 1.52-5.082-.273-5.617-1.668-.493-2.782-.055-3.668 2.316z" fill="#f5ba22"/><path d="M401.597 174.512c-.867 2.316-.891 4.125-4.223 3.352-.605 1.602.109 4.336 2.117 4.629 2.605.387 4.824-2.199 6.047-4.68.84-1.699 1.52-5.082-.273-5.617-1.668-.493-2.782-.055-3.668 2.316z" fill="none" stroke="#000" stroke-width=".06"/><path d="M406.979 185.469c-2.492 1.262-4.633 7.801-1.387 8.48 3.446.715 3.317-6.679 1.387-8.48z" fill="#f5ba22"/><path d="M406.979 185.469c-2.492 1.262-4.633 7.801-1.387 8.48 3.446.715 3.317-6.679 1.387-8.48z" fill="none" stroke="#000" stroke-width=".06"/><path d="M403.433 184.977c-2.5 1.266-5.027 7.52-1.781 8.199 3.441.711 3.702-6.403 1.781-8.199z" fill="#f5ba22"/><path d="M403.433 184.977c-2.5 1.266-5.027 7.52-1.781 8.199 3.441.711 3.702-6.403 1.781-8.199z" fill="none" stroke="#000" stroke-width=".06"/><path d="M399.823 184.469c-2.504 1.273-5.359 7.59-2.113 8.273 3.437.711 4.035-6.461 2.113-8.273z" fill="#f5ba22"/><path d="M399.823 184.469c-2.504 1.273-5.359 7.59-2.113 8.273 3.437.711 4.035-6.461 2.113-8.273z" fill="none" stroke="#000" stroke-width=".06"/><path d="M396.347 184.102c-2.637.941-5.938 6.84-2.801 7.918 3.324 1.132 4.484-5.883 2.801-7.918z" fill="#f5ba22"/><path d="M396.347 184.102c-2.637.941-5.938 6.84-2.801 7.918 3.324 1.132 4.484-5.883 2.801-7.918z" fill="none" stroke="#000" stroke-width=".06"/><path d="M384.726 135.547c1.496-.316 4.363-.602 6.988-.746 3.773.215 6.543 5.348 11.215 5.348.059 1.266.996 4.512 3.777 4.848-.336 1.758-.555 3.961 1.332 5.062-1.109 1.656-1.777 5.18-.332 6.172-.445 1.098-.895 3.516.332 4.621-1.109 1.539-2.445 4.629-.668 5.949.445.445.945.773 1.441.996 1.703-2.391 3.027-5.152 3.555-6.613 1.328 1.539 3.758 1.648 5.98.988.508 3.656 2.477 7.051 6.117 9.035-.66-1.871-1.215-4.188.672-6.277 1.555.766 4.223 1.543 5.438 1.434-1.887-1.434-1.996-4.848-1.105-6.824 1.996 1.422 5.773 2.195 7.766 1.863-2.66-1.535-3.992-6.496-5.102-8.363 2.219.438 6.66 1.645 7.652 3.855.34-2.211-.215-4.852-1.992-6.395 4.219 0 6.219-2.527 7.887-5.945-2.113.996-4.336.441-7.219 1.102 2-.551 3.766-3.086 4.77-4.625-1.887.879-5.547 1.211-7.324.109 2.219-.328 7.438-1.648 9.438-4.41-4.883-.434-3.441-5.82-8.324-5.488 3.27-.371 6.711-.152 8.879.539 2.195.707 3.918.645 4.57-.055 2.445.215 17.188 2.699 21.07 3.695 3.887.98 5.363-1.734 4.031-4.039 3.551-1.102 3.523-4.668 2.305-5.77 3.551-.332 2.668-4.906.867-5.617.797-.574 1.188-1.226 1.133-1.984-.078-.949-.586-1.547-1.465-1.871.258-1.891.473-4.176-2.094-4.625-.105-2.203-.996-3.305-3.332-4.074-2.359-.781-5.77.332-9.43 1.438-3.77 1.129-9.047 1.492-14.266 1.82-3.902-1.75-13.309-3-16.074-3.609 1.469.344 3.93-1.004 8.246-3.555 2.062-1.223 4.051-2.414 4.984-3.48 1.887-.879 6.117-3.188 7.668-4.07 1.555-.879 4.16-2.668 2.582-4.207 1.383-.801 2.66-2.199 1.859-3.223 1.691-.715 2.254-2.75 1.441-3.578 2.332-.883 3.199-2.309 2.875-3.965 2.188-.879 3.648-2.434 3.168-4.52 1.465-1.27 1.746-3.035 1.285-4.48 1.656-1.312 2.344-3.062 1.941-4.875 1.582-1.48 1.871-4.203.449-5.402 1.438-1.922 2.16-5.992-3.055-3.52-4.656 2.215-13.496 5.531-16.828 6.191-.18-1.648-2.078-1.547-4.711-.242-3.551 1.758-10.449 3.738-13.996 4.184a8.8 8.8 0 0 0-.438-2.199c-4.219 3.078-16.859 7.484-20.859 8.367.016-1.234-.148-2.383-.457-3.305-1.777 5.504-13.992 6.828-21.988 8.805-7.555 1.879-21.105 6.602-14.816 17.465-3.887 5.719-12.07 7.816-13.934 10.949-2.555 4.301-.496 8.336 4.105 8.93 6.887.875 10.742-6.789 17.07-4.363 1.301 2.812-5.691 5.684-1.969 14.707 3.53 8.572 4.999 7.983 6.89 7.842z" fill="#9c3900"/><path d="M384.726 135.547c1.496-.316 4.363-.602 6.988-.746 3.773.215 6.543 5.348 11.215 5.348.059 1.266.996 4.512 3.777 4.848-.336 1.758-.555 3.961 1.332 5.062-1.109 1.656-1.777 5.18-.332 6.172-.445 1.098-.895 3.516.332 4.621-1.109 1.539-2.445 4.629-.668 5.949.445.445.945.773 1.441.996 1.703-2.391 3.027-5.152 3.555-6.613 1.328 1.539 3.758 1.648 5.98.988.508 3.656 2.477 7.051 6.117 9.035-.66-1.871-1.215-4.188.672-6.277 1.555.766 4.223 1.543 5.438 1.434-1.887-1.434-1.996-4.848-1.105-6.824 1.996 1.422 5.773 2.195 7.766 1.863-2.66-1.535-3.992-6.496-5.102-8.363 2.219.438 6.66 1.645 7.652 3.855.34-2.211-.215-4.852-1.992-6.395 4.219 0 6.219-2.527 7.887-5.945-2.113.996-4.336.441-7.219 1.102 2-.551 3.766-3.086 4.77-4.625-1.887.879-5.547 1.211-7.324.109 2.219-.328 7.438-1.648 9.438-4.41-4.883-.434-3.441-5.82-8.324-5.488 3.27-.371 6.711-.152 8.879.539 2.195.707 3.918.645 4.57-.055 2.445.215 17.188 2.699 21.07 3.695 3.887.98 5.363-1.734 4.031-4.039 3.551-1.102 3.523-4.668 2.305-5.77 3.551-.332 2.668-4.906.867-5.617.797-.574 1.188-1.226 1.133-1.984-.078-.949-.586-1.547-1.465-1.871.258-1.891.473-4.176-2.094-4.625-.105-2.203-.996-3.305-3.332-4.074-2.359-.781-5.77.332-9.43 1.438-3.77 1.129-9.047 1.492-14.266 1.82-3.902-1.75-13.309-3-16.074-3.609 1.469.344 3.93-1.004 8.246-3.555 2.062-1.223 4.051-2.414 4.984-3.48 1.887-.879 6.117-3.188 7.668-4.07 1.555-.879 4.16-2.668 2.582-4.207 1.383-.801 2.66-2.199 1.859-3.223 1.691-.715 2.254-2.75 1.441-3.578 2.332-.883 3.199-2.309 2.875-3.965 2.188-.879 3.648-2.434 3.168-4.52 1.465-1.27 1.746-3.035 1.285-4.48 1.656-1.312 2.344-3.062 1.941-4.875 1.582-1.48 1.871-4.203.449-5.402 1.438-1.922 2.16-5.992-3.055-3.52-4.656 2.215-13.496 5.531-16.828 6.191-.18-1.648-2.078-1.547-4.711-.242-3.551 1.758-10.449 3.738-13.996 4.184a8.8 8.8 0 0 0-.438-2.199c-4.219 3.078-16.859 7.484-20.859 8.367.016-1.234-.148-2.383-.457-3.305-1.777 5.504-13.992 6.828-21.988 8.805-7.555 1.879-21.105 6.602-14.816 17.465-3.887 5.719-12.07 7.816-13.934 10.949-2.555 4.301-.496 8.336 4.105 8.93 6.887.875 10.742-6.789 17.07-4.363 1.301 2.812-5.691 5.684-1.969 14.707 3.53 8.572 4.999 7.983 6.89 7.842z" fill="none" stroke="#000" stroke-width=".06"/><path d="M385.643 130.223c2.555-1.598 4.555-3.949 6.406-3.949-1.414-.695-5.012-.98-8.578-.184 1.555-1.098 3.91-3.453 4.914-4.766-1.449-.117-3.449-.145-5.434.215.777-1.102 2.324-3.086 3.547-3.965-3.004-.109-6.887.605-8.883 2.207 1.777-1.438 3.438-4.273 2.219-6.809-4.438 8.152-15.32 11.539-20.875 13.961-5.547 2.426-9.984 4.188-10.211 6.832-.219 2.637-1.219 5.168-3.445 7.156-2.219 1.977 9.438 9.473 15.988 3.961 6.551-5.508 15.879-8.469 21.43-8.699 2.664-.109 5.551-3.852 8.328-3.637-.89-.659-3.519-2.534-5.406-2.323z" fill="#fff"/><path d="M385.643 130.223c2.555-1.598 4.555-3.949 6.406-3.949-1.414-.695-5.012-.98-8.578-.184 1.555-1.098 3.91-3.453 4.914-4.766-1.449-.117-3.449-.145-5.434.215.777-1.102 2.324-3.086 3.547-3.965-3.004-.109-6.887.605-8.883 2.207 1.777-1.438 3.438-4.273 2.219-6.809-4.438 8.152-15.32 11.539-20.875 13.961-5.547 2.426-9.984 4.188-10.211 6.832-.219 2.637-1.219 5.168-3.445 7.156-2.219 1.977 9.438 9.473 15.988 3.961 6.551-5.508 15.879-8.469 21.43-8.699 2.664-.109 5.551-3.852 8.328-3.637-.89-.659-3.519-2.534-5.406-2.323z" fill="none" stroke="#000" stroke-width=".06"/><path d="M346.862 148.629c.996 1.656 5.445 2.52 8.383 1.098 3.883-1.871 3.5-3.191 6.828-5.398-1.113.668-2.332.121-3.113-.547-.773-.66-3.66-1.32-5.547-.328-.445.874-4.773 4.624-6.551 5.175z" fill="#f5ba22"/><path d="M346.862 148.629c.996 1.656 5.445 2.52 8.383 1.098 3.883-1.871 3.5-3.191 6.828-5.398-1.113.668-2.332.121-3.113-.547-.773-.66-3.66-1.32-5.547-.328-.445.874-4.773 4.624-6.551 5.175z" fill="none" stroke="#000" stroke-width=".06"/><path d="M346.745 139.266c-1.656 2.312-4.84 3.238-5.438 6.723-.496 2.918.949 6.934 5.051 7.156-.406-2.5.336-3.246 2.004-4.352 1.926-1.273 4.035-4.055 5.441-4.766 2.137-1.066 1.156-1.348-2-1.402-3.667-.055-6.163-1.484-5.058-3.359z" fill="#f5ba22"/><path d="M346.745 139.266c-1.656 2.312-4.84 3.238-5.438 6.723-.496 2.918.949 6.934 5.051 7.156-.406-2.5.336-3.246 2.004-4.352 1.926-1.273 4.035-4.055 5.441-4.766 2.137-1.066 1.156-1.348-2-1.402-3.667-.055-6.163-1.484-5.058-3.359z" fill="none" stroke="#000" stroke-width=".06"/><path d="M450.468 131.727c2.445.215 17.188 2.699 21.07 3.695 3.887.98 5.363-1.734 4.031-4.039 3.551-1.102 3.523-4.668 2.305-5.77 3.551-.332 2.668-4.906.867-5.617.797-.574 1.188-1.226 1.133-1.984-.078-.949-.586-1.547-1.465-1.871.258-1.891.473-4.176-2.094-4.625-.105-2.203-.996-3.305-3.332-4.074-2.359-.781-5.77.332-9.43 1.438-3.77 1.129-9.047 1.492-14.266 1.82 1.031.465 1.668.949 1.715 1.477.176 1.984-.883 3.418-3.328 3.086 2.996.438 4.102 2.535 2.332 4.184l-.211.039c.195.23.309.469.324.734.055 1.211-1.246 1.723-3.227 1.828 4.324.328 3.004 5.105.336 4.777 2.099 1.23 4.165 3.39 3.24 4.902z" fill="#fff"/><path d="M450.468 131.727c2.445.215 17.188 2.699 21.07 3.695 3.887.98 5.363-1.734 4.031-4.039 3.551-1.102 3.523-4.668 2.305-5.77 3.551-.332 2.668-4.906.867-5.617.797-.574 1.188-1.226 1.133-1.984-.078-.949-.586-1.547-1.465-1.871.258-1.891.473-4.176-2.094-4.625-.105-2.203-.996-3.305-3.332-4.074-2.359-.781-5.77.332-9.43 1.438-3.77 1.129-9.047 1.492-14.266 1.82 1.031.465 1.668.949 1.715 1.477.176 1.984-.883 3.418-3.328 3.086 2.996.438 4.102 2.535 2.332 4.184l-.211.039c.195.23.309.469.324.734.055 1.211-1.246 1.723-3.227 1.828 4.324.328 3.004 5.105.336 4.777 2.099 1.23 4.165 3.39 3.24 4.902zm-54.2 70.089c-1.672-1.207-7.105-4.402-9.215-4.727 1.332 0 7.219-.109 8.773-.887m17.095 9.587c-1.887-1.223-10.77-4.734-12.32-5.18 1.777-.109 7.66-.551 9.656-.438m-28.645-.112c-2.219-.328-7.551-2.531-9.66-4.953 2.441.766 7.551 1.543 9.332.988m-14.992-.664c-3-.547-6.441-3.082-9.219-5.504 1.223.668 6.887 2.754 8.66 2.754m2.11-3.41c-3.328-.109-8.215-2.207-10.211-4.957 2.219.879 5.77 1.652 8.66 1.211m42.535-17.739c-1.133 1.586-2.434 3.004-3.793 3.754a5.203 5.203 0 0 1-.875.348m-9.183 8.789c.039.305.105.57.184.773 1-.441 1.664-.773 2.332-.996m-9.438-81.051c3.328-2.754 11.91-6.207 14.211-7.27 4.77-2.199 4.441-6.379.887-6.828m-9.434 16.524c3.105-2.426 8.988-5.289 12.434-6.5 3.441-1.211 3.887-5.723-.559-5.945m-7.434 14.43c3.547-1.105 8.547-4.41 12.547-5.734 2.527-.832 3.773-6.824-1.895-5.277m-7.105 13.866c3.445-1.207 9-4.406 12.438-6.164 2.477-1.27 1.777-4.848-1.555-4.293m-4.883 11.891c2.219-1.32 6.215-3.746 8.77-4.945 2.551-1.223 2.66-4.641-.781-4.414m-3.442 11.12c2.113-1.316 6.219-3.738 8.109-4.512 1.887-.773 1.66-5.289-2.109-3.852m-12.434-13.222c4.66-1.762 12.988-4.184 17.984-5.723 4.996-1.543 7.488-4.02 3.828-6.555m1.555 3.411c3-.875 11.602-3.352 15.266-4.348 3.668-.992 4.332-3.41 1.773-5.391m-37.414 22.685c4.773-1.984 15.543-4.953 19.102-5.84 3.551-.883 3.441-6 0-5.777m2.328 3.964c3.773-1.32 12.879-4.688 16.316-5.676 3.449-.988 3.949-4.68.281-5.066m-33.476 22.25c2.664-.777 10.219-3.41 14.996-4.734 4.77-1.324 4.324-4.961 1.441-5.949m2.11 3.187c3.219-1.211 11.875-4.398 14.879-5.391 2.992-.992 4.324-3.852 1.66-5.285M418.03 99.512c4.438-1.648 11.328-4.406 15.211-5.613 2.883-.898 1.551-4.848-1.555-4.738m3.106 3.085c2-.656 9.219-3.637 13.328-5.285 3.961-1.594 3.965-4.602.855-4.93m-27.394 21.004c3.555-1.758 9.992-4.52 13.547-5.836 3.551-1.316 2.527-4.621-.473-4.398m2.668 2.473c3.328-1.547 9.801-4.238 12.906-5.562 3.105-1.324 2.188-4.238-.391-3.66m-34.28 25.616c1.211-.605 4.105-1.754 5.465-2.578 3.117-1.867 3.004-4.289.336-4.621m2.113 2.312c4.105-2.426 10.34-5.25 12.875-6.277 2.996-1.215 2.527-3.879.305-4.211m1.667 2.535c2.332-1.102 8.469-4.16 10.91-5.367 2.441-1.215 3.277-2.871 1.746-4.105M424.69 106.34c.887 1.762 4.902 1.031 8.996-1.098 4.438-2.312 5.469-4.465 3.02-4.902m.922 1.98c2.219-1.098 8.16-4.457 10.492-5.453 2.324-.984 2.66-2.641 1.109-3.406m-13.324 24.219c5.77-.434 14.102.117 14.215 2.539.109 2.418-5.668 1.875-10.105 1.434m-9.547-7.493c4.988-.219 14.215.664 17.207 1.102 2.996.438 4.102 2.535 2.332 4.184m.461 12.281c.473-.512.398-1.344-.461-2.484-4.402-5.785-10.594-2.59-13.879-5.168m11.101 2.749c2.668.328 4.109-4.398-.227-4.73m3.669-3.641c4.777 0 17.766-1.43 21.984-2.195 2.484-.461 4.492-.574 5.754-.117m-28.512 8.269c13.461-1.004 25.219-1.848 28.844-4.414m-.867 5.617c-3.555.332-15.211.219-28.094-.66m26.535-13.437c-.719-.133-1.668-.109-2.883.113-5.551.984-16.652 3.414-24.316 3.633m26.453 16.121c-1.332-2.312-4.805-2.906-9.574-3.129-4.773-.223-12.992-1.32-16.879-2.094m-23.98 38.77c-2.223-.941-3.941-7.051-2.387-10.191m6.719 4.8c-1.781-1-4.777-4.906-4.668-7m7.332.5c-.684-1.625-1.719-2.645-3-2.922m8.66.383c-1.5.105-4.551-.16-6.719-2.473m7.387-2.371c-1.387.496-6.496.879-8.891-.934m6.336-3.581c-.832.273-6.273.328-8.719-1.648m-4.05-17.399c-3.883 7.703-10.77 8.586-12.77 5.938-5.773 1.328-9.766-1.207-8.992-2.75-3.773-.105-6.883-2.535-8.219-4.184 3.336-2.535 1.336-6.496-2.883-6.273-4.219.219-7.992-2.867-11.102-7.496m31.196 20.702c1.445-.328 3.887-1.758 4.887-4.066m-13.879 1.316c1.332 0 4.555-.77 6.219-2.199m8.215 6.055c1.332 1.984 6.887 1.984 10.883-1.316m-.669-20.598c.891 1.324-1.145 2.227-3.328 3.191-1.004.438-3.223 1.32-4.117 2.094m10.992-5.617c.898 1.211-1.152 2.531-2.77 3.418-1.004.543-2.883.992-3.777 2.094m10.192-5.313c.277 1.59-1.969 2.262-3.695 3.219-1 .543-3.109 1.426-4.105 2.527m-22.708 20.707c4 .223 9.105 1.762 10.879 5.062 1.777 3.305 2.891 4.188 5.113 4.629m-3.336-1.984c-.883 1.762-3.551 7.051-.219 9.035m-1.558-2.207c-2.219 2.207-2.332 5.832-.551 7.602m-6.328-10.684c2.77.332 3.332-.773 4.215-1.875m-2.883 6.938c.609.441 1.492.77 2.219.887m-2.551 5.284c.5.492 1.105.766 1.945.992m-1.613 3.63c.496.5 1 .828 1.438.992m-31.973-67.067c6.887 2.641 7.773-3.082 24.543-9.023 5.684-2.023 7.73-7.168 7.781-11.238m46.867 17.261c-1.312.758-5.227 2.77-6.574 3.441m8.434-6.663c-1.234.523-5.777 2.234-7.102 3.113m8.543-6.691c-2.332.883-6.102 2.312-7.883 3.09m10.758-7.055a9.232 9.232 0 0 1-1.125.383c-2.773.773-8.352 2.316-10.688 3.199m14.981-8.102c-.652.562-1.547 1.023-2.715 1.324-2.883.762-11.684 2.949-14.012 3.824m18.012-9.628c-.852.672-1.977 1.238-3.328 1.621-3.781 1.074-12.242 3.305-15.238 4.074m20.508-10.57a3.773 3.773 0 0 1-1.609.883c-5.688 1.438-15.844 4.211-20.508 5.641m22.566-11.927c-1.84 2.461-15.492 5.289-23.488 7.938m3.605-5.266c.066.578-.086 1.371-.496 2.395-1.547 3.969-13.207 6.113-19.867 7.441m1.656-5.894c.23 3.621-1.668 7.691-6.488 8.973-5.773 1.543-14.27 3.363-17.602 4.906m-34.469 15.254c4.691 6.711 8.66 11.227 7.242 15.516m66.637-12.942c.68-.773.746-1.699-.047-2.305m-14.379 8.375c.309.523.691.84 1.195.965m16.075 3.609c1.031.465 1.668.949 1.715 1.477.176 1.984-.883 3.418-3.328 3.086m-13.66 16.519a25 25 0 0 1 3.004-.539m-24.653 29.942c-2.203-2.551-1.773-5.289 0-7.043m5.981 8.031c-.117-.801-.117-1.605-.094-2.426m-15.324-19.598c1.109 0 2.105-.551 3-1.215m-14.215-4.132c2.82-.152 5.621-.16 6.996.059 2.664.445 5.441-.66 2.996-3.078m-49.629 7.152c.367-5.695 8.391-5.883 10.441-9.246-.668 1.652-1.895 3.305-1.781 5.172m-7.297.91c.082 1.957 2.523 2.895 3.969 2.008 1.375-.836 1-3.906-1-4.18m-1.551.961c1.051.301 2.051.863 2.387 2.672m25.707-15.692c-1.816.332-3.621.992-5.004 2.203m2.778 7.926c1.875.117 3.477-.539 4.918-1.445m-2.172-4.133c-1.492.328-2.992.863-4.301 1.613" fill="none" stroke="#000" stroke-width=".06"/></svg>