<svg xmlns="http://www.w3.org/2000/svg" viewBox="0 0 499.839 277.402"><path fill="#00008b" d="M499.839 277.402V-.375h-500v277.777h500z"/><path fill="#fff" d="M-.161 44.356h56.633L-.161 15.938V-.375h32.402l79.223 39.488V-.375h44.613v39.488L235.296-.375h32.683v16.313l-56.91 28.418h56.91v44.765h-56.91l56.91 28.414v16.32h-32.683l-79.219-39.492v39.492h-44.613V94.363l-79.223 39.492H-.161v-16.32l56.633-28.414H-.161V44.356z"/><path fill="red" d="M246.901-.375l-89.5 44.762h21.426L267.979-.375h-21.078zM267.979 133.855l-89.246-44.734h21.52l67.726 34.07v10.664zM89.511 44.387L-.161-.375v10.688l68.062 34.074h21.61zM89.327 89.121L-.161 133.855h21.414l89.5-44.734H89.327z"/><path fill="red" d="M-.161 53.641h121.129V-.375h26.215v54.016h120.796v26.215H147.183v53.999h-26.215V79.856H-.161V53.641z"/><g fill="#fff"><path d="M130.23 190.078l23.73-9.004-13.945 21.028 21.582 12.851-25.098 2.223 3.481 24.984-17.528-18.316-17.426 18.316 3.375-24.984-24.988-2.223 21.477-12.851-13.84-21.028 23.625 9.004 7.777-24.058 7.778 24.058zM394.577 41.879l11.25-4.273-6.609 9.972 10.23 6.09-11.898 1.055 1.648 11.847-8.308-8.687-8.262 8.687 1.601-11.847-11.851-1.055 10.183-6.09-6.562-9.972 11.203 4.273 3.688-11.41 3.687 11.41zM394.577 220.879l11.25-4.27-6.609 9.969 10.23 6.09-11.898 1.055 1.648 11.847-8.308-8.683-8.262 8.683 1.601-11.847-11.851-1.055 10.183-6.09-6.562-9.969 11.203 4.27 3.688-11.406 3.687 11.406zM454.241 96.649l11.254-4.27-6.609 9.969 10.23 6.093-11.898 1.059 1.648 11.844-8.312-8.688-8.262 8.688 1.601-11.844-11.847-1.059 10.183-6.093-6.562-9.969 11.199 4.27 3.688-11.407 3.687 11.407zM327.452 114.594l11.25-4.266-6.609 9.969 10.23 6.09-11.898 1.054 1.648 11.848-8.308-8.687-8.262 8.687 1.601-11.848-11.851-1.054 10.183-6.09-6.562-9.969 11.203 4.266 3.688-11.406 3.687 11.406zM417.733 138.594l-2.578 8.097-8.562.024 6.965 5.015-2.649 8.09 6.867-5.043 6.895 5.004-2.656-8.14 6.902-4.95-8.524.024-2.66-8.121z"/></g></svg>