<svg xmlns="http://www.w3.org/2000/svg" viewBox="0 0 499.839 277.402"><path fill="#0098c3" d="M499.839 92.215h-500V-.375h500v92.59z"/><path fill="#00ae65" d="M-.161 277.402h500v-92.59h-500v92.59z"/><path fill="#e00034" d="M499.839 184.812h-500V92.215h500v92.597z"/><g fill="#fff"><path d="M279.159 117.645l3.934 11.25 10.84-5.153-5.094 10.766 11.191 4.004-11.144 3.879 5.047 10.894-10.711-5.203-4.063 11.301-4.023-11.301-10.75 5.203 5.09-10.894-11.184-3.879 11.226-4.004-5.132-10.766 10.875 5.153 3.898-11.25z"/><path d="M199.647 138.516c0 20.77 16.844 37.613 37.617 37.613 12.168 0 22.988-5.781 29.863-14.75a31.158 31.158 0 0 1-21.359 8.434c-17.285 0-31.297-14.016-31.297-31.297 0-17.285 14.012-31.297 31.297-31.297a31.166 31.166 0 0 1 21.359 8.43c-6.875-8.965-17.695-14.75-29.863-14.75-20.773 0-37.617 16.847-37.617 37.617z"/></g></svg>