<svg xmlns="http://www.w3.org/2000/svg" viewBox="0 0 499.839 277.402"><path fill="#00267f" d="M166.511 277.402V-.375H-.161v277.777h166.672zM333.171 277.402V-.375h166.668v277.777H333.171z"/><path fill="#ffc726" d="M166.511 277.402V-.375h166.66v277.777h-166.66z"/><path d="M258.003 212.508v-36.867c7.973.527 18.336 2.367 26.211 4.07 1.57-32.273 10.488-67.961 35.812-93.809-17.32.656-30.832 8.137-41.457 20.336 3.348-.52 7.41-.652 10.891-.328-9.445 15.746-15.219 38.375-17.316 58.055-3.809-.914-10.273-1.641-14.141-1.836v-60.48c3.734.328 8.238 1.441 12.07 3.152-7.25-11.941-14.465-25.453-20.238-40.281-5.762 14.828-12.984 28.34-20.227 40.281 3.828-1.711 8.324-2.824 12.062-3.152v60.48c-3.867.195-10.336.922-14.133 1.836-2.098-19.68-7.875-42.309-17.32-58.055 3.477-.324 7.543-.191 10.891.328-10.633-12.199-24.141-19.68-41.457-20.336 25.316 25.848 34.242 61.535 35.816 93.809 7.867-1.703 18.234-3.543 26.203-4.07v36.867h16.333z"/></svg>