<svg xmlns="http://www.w3.org/2000/svg" xmlns:xlink="http://www.w3.org/1999/xlink" viewBox="0 0 500 277.777"><path fill="#1eb53a" d="M499.788 276.957V-.82h-500v277.777h500z"/><path fill="#ce1126" d="M499.788-.82h-500l249.996 138.886L499.788-.82zM499.788 276.957h-500l249.996-138.891 250.004 138.891z"/><defs><path id="a" d="M499.788 276.957V-.82h-500v277.777h500z"/></defs><clipPath id="b"><use xlink:href="#a" overflow="visible"/></clipPath><g clip-path="url(#b)"><path fill="#fff" d="M491.358 292.133l-500-277.777L8.218-16l500 277.777-16.86 30.356z"/><path fill="#fff" d="M7.581 291.133l-16.738-30.422L491.995-15l16.734 30.422L7.581 291.133z"/></g><ellipse cx="249.785" cy="138.066" rx="74.814" ry="74.816" fill="#fff"/><g><path fill="#1eb53a" d="M250.272 125.066l5.434-9.312h10.734l-5.332-9.406 5.332-9.407h-10.734l-5.434-9.308-5.425 9.308h-10.735l5.332 9.407-5.332 9.406h10.735l5.425 9.312zM220.249 178.031l5.426-9.312h10.738l-5.332-9.407 5.332-9.402h-10.738l-5.426-9.308-5.434 9.308h-10.726l5.324 9.402-5.324 9.407h10.726l5.434 9.312zM279.319 178.031l5.434-9.312h10.73l-5.328-9.407 5.328-9.402h-10.73l-5.434-9.308-5.429 9.308h-10.735l5.332 9.402-5.332 9.407h10.735l5.429 9.312z"/><path fill="#ee3e42" d="M250.272 122.238l4.614-7.906h9.105l-4.519-7.984 4.519-7.981h-9.105l-4.614-7.902-4.605 7.902h-9.113l4.523 7.981-4.523 7.984h9.113l4.605 7.906zM220.249 175.199l4.613-7.902h9.098l-4.516-7.985 4.516-7.98h-9.098l-4.613-7.902-4.609 7.902h-9.11l4.524 7.98-4.524 7.985h9.11l4.609 7.902zM279.319 175.199l4.614-7.902h9.105l-4.523-7.985 4.523-7.98h-9.105l-4.614-7.902-4.609 7.902h-9.102l4.52 7.98-4.52 7.985h9.102l4.609 7.902z"/></g></svg>