<svg xmlns="http://www.w3.org/2000/svg" viewBox="0 0 499.839 277.402"><path fill="#fdbe4f" d="M499.839 277.402V-.375h-500v277.777h500z"/><path fill="#ec1c2e" d="M-.161 277.402h500V-.375l-500 277.777z"/><g><path d="M261.608 78.328c-2.5-.883-4.117.406-4.027 3.625.082 3.223 1.77 5.074 4.266 3.867l-.239-7.492z" fill="#fff"/><path d="M261.608 78.328c-2.5-.883-4.117.406-4.027 3.625.082 3.223 1.77 5.074 4.266 3.867l-.239-7.492z" fill="none" stroke="#000" stroke-width=".075"/><path d="M263.8 72.297c-2.082-1.641-4.023-.941-4.977 2.137-.957 3.078.047 5.379 2.801 5.031l2.176-7.168z" fill="#fff"/><path d="M263.8 72.297c-2.082-1.641-4.023-.941-4.977 2.137-.957 3.078.047 5.379 2.801 5.031l2.176-7.168z" fill="none" stroke="#000" stroke-width=".075"/><path d="M267.257 66.453c-1.789-1.953-3.816-1.574-5.262 1.316-1.438 2.887-.805 5.309 1.969 5.418l3.293-6.734z" fill="#fff"/><path d="M267.257 66.453c-1.789-1.953-3.816-1.574-5.262 1.316-1.438 2.887-.805 5.309 1.969 5.418l3.293-6.734z" fill="none" stroke="#000" stroke-width=".075"/><path d="M264.995 94.848c-3.066 1.125-3.387 5.316-1.453 7.895 1.934 2.574 5.48 3.059 7.414 0l-5.961-7.895z" fill="#fff"/><path d="M264.995 94.848c-3.066 1.125-3.387 5.316-1.453 7.895 1.934 2.574 5.48 3.059 7.414 0l-5.961-7.895z" fill="none" stroke="#000" stroke-width=".075"/><path d="M261.448 85.984c-2.906-.965-5.516 2.93-5.961 6.449-.57 4.426-6.852 5.871-3.387 12.566.727-4.273 3.547-6.605 5.801-6.77 2.258-.164 5.641-.645 7.094-3.383l-3.547-8.862z" fill="#fff"/><path d="M261.448 85.984c-2.906-.965-5.516 2.93-5.961 6.449-.57 4.426-6.852 5.871-3.387 12.566.727-4.273 3.547-6.605 5.801-6.77 2.258-.164 5.641-.645 7.094-3.383l-3.547-8.862z" fill="none" stroke="#000" stroke-width=".075"/><path d="M270.628 103.223c-3.383.809-3.863 5.316-1.449 8.539 2.066 2.758 8.535 2.094 8.383-.641l-6.934-7.898z" fill="#fff"/><path d="M270.628 103.223c-3.383.809-3.863 5.316-1.449 8.539 2.066 2.758 8.535 2.094 8.383-.641l-6.934-7.898z" fill="none" stroke="#000" stroke-width=".075"/><path d="M280.218 130.375c.156-2.902-4.516-4.027-6.77-3.465-2.258.562-6.562-.082-7.574-2.496-.801 1.934.367 4.031 3.629 5.074 2.469.793 2.414 2.578 1.688 3.383 1.851.32 7.331.32 9.027-2.496z" fill="#fff"/><path d="M280.218 130.375c.156-2.902-4.516-4.027-6.77-3.465-2.258.562-6.562-.082-7.574-2.496-.801 1.934.367 4.031 3.629 5.074 2.469.793 2.414 2.578 1.688 3.383 1.851.32 7.331.32 9.027-2.496z" fill="none" stroke="#000" stroke-width=".075"/><path d="M277.561 111.844c-3.305-1.445-5.266.758-6.531 2.902-1.852 3.137-7.57-.891-9.504 3.301 2.613-1.125 5.285 1.281 6.527 2.098 3.547 2.336 10.395 1.613 11.359-3.867l-1.851-4.434z" fill="#fff"/><path d="M277.561 111.844c-3.305-1.445-5.266.758-6.531 2.902-1.852 3.137-7.57-.891-9.504 3.301 2.613-1.125 5.285 1.281 6.527 2.098 3.547 2.336 10.395 1.613 11.359-3.867l-1.851-4.434z" fill="none" stroke="#000" stroke-width=".075"/><path d="M279.491 115.715c-3.301 2.496-4.59 5.48-4.508 7.492.074 2.016 2.902 6.445 5.961 6.68 1.77-3.621 2.657-11.278-1.453-14.172z" fill="#fff"/><path d="M279.491 115.715c-3.301 2.496-4.59 5.48-4.508 7.492.074 2.016 2.902 6.445 5.961 6.68 1.77-3.621 2.657-11.278-1.453-14.172z" fill="none" stroke="#000" stroke-width=".075"/><path d="M265.792 131.258c0-1.199 1.777-1.688 2.984-1.289 1.207.406 3.066 1.613 2.414 2.902l-5.398-1.613z" fill="#fff"/><path d="M265.792 131.258c0-1.199 1.777-1.688 2.984-1.289 1.207.406 3.066 1.613 2.414 2.902l-5.398-1.613z" fill="none" stroke="#000" stroke-width=".075"/><path d="M247.593 124.652c-.328-1.445 2.008-3.945 5.152-2.578 3.141 1.371 3.547 4.031 2.258 5.074l-7.41-2.496z" fill="#fff"/><path d="M247.593 124.652c-.328-1.445 2.008-3.945 5.152-2.578 3.141 1.371 3.547 4.031 2.258 5.074l-7.41-2.496z" fill="none" stroke="#000" stroke-width=".075"/><path d="M255.241 127.316c-.238-.805 2.02-2.418 5.879-1.449 3.875.961 4.824 3.449 4.672 5.391l-10.551-3.942z" fill="#fff"/><path d="M255.241 127.316c-.238-.805 2.02-2.418 5.879-1.449 3.875.961 4.824 3.449 4.672 5.391l-10.551-3.942z" fill="none" stroke="#000" stroke-width=".075"/><path d="M247.186 124.652c2.012-1.531 1.254-4.43-.566-5.316-3.301-1.609-2.094-5.797-4.184-6.605-2.102-.801-4.117-2.25-4.191-3.703-1.051 2.008-.406 3.867 1.047 5.152 1.449 1.289-1.129 6.527.723 7.895l7.171 2.577z" fill="#fff"/><path d="M247.186 124.652c2.012-1.531 1.254-4.43-.566-5.316-3.301-1.609-2.094-5.797-4.184-6.605-2.102-.801-4.117-2.25-4.191-3.703-1.051 2.008-.406 3.867 1.047 5.152 1.449 1.289-1.129 6.527.723 7.895l7.171 2.577z" fill="none" stroke="#000" stroke-width=".075"/><path d="M204.007 123.527c-1.695-2.66-5.727-2.176-7.414-.32-1.695 1.851-1.449 4.594.164 5.793l7.25-5.473z" fill="#fff"/><path d="M204.007 123.527c-1.695-2.66-5.727-2.176-7.414-.32-1.695 1.851-1.449 4.594.164 5.793l7.25-5.473z" fill="none" stroke="#000" stroke-width=".075"/><path d="M213.671 119.578c-.645-3.547-4.91-3.945-7.25-3.062-2.332.887-3.949 4.434-2.414 7.012l9.664-3.95z" fill="#fff"/><path d="M213.671 119.578c-.645-3.547-4.91-3.945-7.25-3.062-2.332.887-3.949 4.434-2.414 7.012l9.664-3.95z" fill="none" stroke="#000" stroke-width=".075"/><path d="M220.12 119.09c1.523-2.977-1.453-7.402-4.836-8.055-2.828-.535-6.164-.516-7.25-3.305-.691 2.422 1.125 3.957 3.223 5.32 2.094 1.375-.41 4.914 2.98 6.93l5.883-.89z" fill="#fff"/><path d="M220.12 119.09c1.523-2.977-1.453-7.402-4.836-8.055-2.828-.535-6.164-.516-7.25-3.305-.691 2.422 1.125 3.957 3.223 5.32 2.094 1.375-.41 4.914 2.98 6.93l5.883-.89z" fill="none" stroke="#000" stroke-width=".075"/><path d="M219.792 119.191c-.703-2.129.726-4.969 3.621-4.773 2.898.199 4.547 2.309 3.27 4.938l-6.891-.165z" fill="#fff"/><path d="M219.792 119.191c-.703-2.129.726-4.969 3.621-4.773 2.898.199 4.547 2.309 3.27 4.938l-6.891-.165z" fill="none" stroke="#000" stroke-width=".075"/><path d="M226.237 119.363c-.395-2.219 1.418-4.828 4.258-4.227 2.836.605 4.172 2.918 2.543 5.344l-6.801-1.117z" fill="#fff"/><path d="M226.237 119.363c-.395-2.219 1.418-4.828 4.258-4.227 2.836.605 4.172 2.918 2.543 5.344l-6.801-1.117z" fill="none" stroke="#000" stroke-width=".075"/><path d="M232.64 120.375c-.293-2.227 1.652-4.75 4.461-4.004 2.801.738 4.02 3.121 2.273 5.469l-6.734-1.465z" fill="#fff"/><path d="M232.64 120.375c-.293-2.227 1.652-4.75 4.461-4.004 2.801.738 4.02 3.121 2.273 5.469l-6.734-1.465z" fill="none" stroke="#000" stroke-width=".075"/><path d="M184.018 157.285c-5.391 0-6.711 1.281-7.484 6.844-.973 6.93 8.457 7.738 7.484-6.844z" fill="#fff"/><path d="M184.018 157.285c-5.391 0-6.711 1.281-7.484 6.844-.973 6.93 8.457 7.738 7.484-6.844z" fill="none" stroke="#000" stroke-width=".075"/><path d="M186.44 150.031c-8.301-3.141-12.809 9.996-21.031 7.656 2.945 4.672 10.074.004 12.73.48 4.516.806 14.262-.882 8.301-8.136z" fill="#fff"/><path d="M186.44 150.031c-8.301-3.141-12.809 9.996-21.031 7.656 2.945 4.672 10.074.004 12.73.48 4.516.806 14.262-.882 8.301-8.136z" fill="none" stroke="#000" stroke-width=".075"/><path d="M181.042 167.996c-4.109-1.852-8.539 4.434-7.731 7.172 1.024 3.48 10.391.644 7.731-7.172z" fill="#fff"/><path d="M181.042 167.996c-4.109-1.852-8.539 4.434-7.731 7.172 1.024 3.48 10.391.644 7.731-7.172z" fill="none" stroke="#000" stroke-width=".075"/><path d="M161.87 195.066c2.254.645 4.992 1.934 4.512 6.285-.484 4.348-8.703 13.211-16.113 13.695-7.414.488-10.07 9.426-16.434 6.93 5.953-1.125 5.953-7.895 10.633-9.996-3.383-1.199-5.152 6.449-9.508 6.449-4.352 0-6.441 6.93-11.758 6.441-5.324-.48-5.879 8.438-16.52 8.547-8.141.082-18.203 9.582-21.832 5.48 7.895-1.133 11.082-5.508 15.789-10.316 7.574-7.73 16.113-4.273 19.016-11.117a19.78 19.78 0 0 1-11.441 3.387c-4.957-.102-10.391 7.895-15.957 4.348 3.227-.402 5.324-1.773 8.707-5.316 3.465-3.629 8.547-1.289 12.566-5 6.289-5.797 11.688-.965 17.727-8.219-1.695-.801-5.316-.238-8.707 1.531-3.375 1.77-7.73-1.207-11.594.891.48-4.754 9.508-2.035 15.141-5.316 6.363-3.711 11.644-2.621 16.676-2.18-7.012-.031-9.75-6.688-19.414-4.754-4.219.848-7.57-5.797-11.762-2.414.125-2.496 4.512-4.508 9.02-2.094 4.512 2.414 6.328-2.117 15.309 3.547 3.711 2.332 10.07-1.453 14.098 1.043-.52-1.531-2.812-2.496-5.512-2.293 1.686-3.465 12.604-3.023 17.358.441z" fill="#fff"/><path d="M161.87 195.066c2.254.645 4.992 1.934 4.512 6.285-.484 4.348-8.703 13.211-16.113 13.695-7.414.488-10.07 9.426-16.434 6.93 5.953-1.125 5.953-7.895 10.633-9.996-3.383-1.199-5.152 6.449-9.508 6.449-4.352 0-6.441 6.93-11.758 6.441-5.324-.48-5.879 8.438-16.52 8.547-8.141.082-18.203 9.582-21.832 5.48 7.895-1.133 11.082-5.508 15.789-10.316 7.574-7.73 16.113-4.273 19.016-11.117a19.78 19.78 0 0 1-11.441 3.387c-4.957-.102-10.391 7.895-15.957 4.348 3.227-.402 5.324-1.773 8.707-5.316 3.465-3.629 8.547-1.289 12.566-5 6.289-5.797 11.688-.965 17.727-8.219-1.695-.801-5.316-.238-8.707 1.531-3.375 1.77-7.73-1.207-11.594.891.48-4.754 9.508-2.035 15.141-5.316 6.363-3.711 11.644-2.621 16.676-2.18-7.012-.031-9.75-6.688-19.414-4.754-4.219.848-7.57-5.797-11.762-2.414.125-2.496 4.512-4.508 9.02-2.094 4.512 2.414 6.328-2.117 15.309 3.547 3.711 2.332 10.07-1.453 14.098 1.043-.52-1.531-2.812-2.496-5.512-2.293 1.686-3.465 12.604-3.023 17.358.441z" fill="none" stroke="#000" stroke-width=".075"/><path d="M169.038 189.832c-3.547-2.742-8.457.562-11.84-.727 0 2.25 1.125 5.637 4.828 6.93 1.133-.805 6.207-5.242 7.012-6.203z" fill="#fff"/><path d="M169.038 189.832c-3.547-2.742-8.457.562-11.84-.727 0 2.25 1.125 5.637 4.828 6.93 1.133-.805 6.207-5.242 7.012-6.203z" fill="none" stroke="#000" stroke-width=".075"/><path d="M174.601 182.012c-5.562-2.812-6.531 4.191-10.879 2.738.164 2.016 1.77 4.52 5.316 5.082l5.563-7.82z" fill="#fff"/><path d="M174.601 182.012c-5.562-2.812-6.531 4.191-10.879 2.738.164 2.016 1.77 4.52 5.316 5.082l5.563-7.82z" fill="none" stroke="#000" stroke-width=".075"/><path d="M177.901 175.652c-8.219-3.223-9.27 4.672-14.098 3.145 1.125 2.734 8.059 4.184 11.598 3.215l2.5-6.36z" fill="#fff"/><path d="M177.901 175.652c-8.219-3.223-9.27 4.672-14.098 3.145 1.125 2.734 8.059 4.184 11.598 3.215l2.5-6.36z" fill="none" stroke="#000" stroke-width=".075"/><path d="M189.183 141.09c-2.18-3.062-6.77-.562-7.496 3.059-.727 3.629 1.047 8.703 4.109 7.578l3.387-10.637z" fill="#fff"/><path d="M189.183 141.09c-2.18-3.062-6.77-.562-7.496 3.059-.727 3.629 1.047 8.703 4.109 7.578l3.387-10.637z" fill="none" stroke="#000" stroke-width=".075"/><path d="M194.741 131.422c-3.789-.883-8.137-.484-7.656 3.219-1.449.645-1.852 5.398 2.098 6.449l5.558-9.668z" fill="#fff"/><path d="M194.741 131.422c-3.789-.883-8.137-.484-7.656 3.219-1.449.645-1.852 5.398 2.098 6.449l5.558-9.668z" fill="none" stroke="#000" stroke-width=".075"/><path d="M197.237 128.926c-3.711-4.355-7.84-4.254-10.152-2.414-4.266 3.375-8.414 1.445-8.539 4.828 2.578-1.973 4.828.406 6.926-.32 2.094-.727 3.629 3.305 9.426 1.609l2.339-3.703z" fill="#fff"/><path d="M197.237 128.926c-3.711-4.355-7.84-4.254-10.152-2.414-4.266 3.375-8.414 1.445-8.539 4.828 2.578-1.973 4.828.406 6.926-.32 2.094-.727 3.629 3.305 9.426 1.609l2.339-3.703z" fill="none" stroke="#000" stroke-width=".075"/><path d="M188.292 193.941c.562 1.043 4.027 1.527 5.723-.246 2.238-2.344-.242-8.863-3.789-9.344-3.54-.48-3.868 7.333-1.934 9.59z" fill="#fff"/><path d="M188.292 193.941c.562 1.043 4.027 1.527 5.723-.246 2.238-2.344-.242-8.863-3.789-9.344-3.54-.48-3.868 7.333-1.934 9.59z" fill="none" stroke="#000" stroke-width=".075"/><path d="M184.265 194.098c5.07 1.859 7.25-2.332 4.508-4.992-.723.886-3.376 4.109-4.508 4.992z" fill="#fff"/><path d="M184.265 194.098c5.07 1.859 7.25-2.332 4.508-4.992-.723.886-3.376 4.109-4.508 4.992z" fill="none" stroke="#000" stroke-width=".075"/><path d="M165.257 201.027c-.973 2.902-5.961 3.383-11.605 12.402-5.641 9.027-11.035 5.242-12.41 11.441 6.77-5.473 12.086-1.836 16.113-7.242 6.125-8.227 11.168-7.047 13.535-12.574 3.387-7.891 18.211-7.73 19.016-20.141-4.997-.96-20.786 12.411-24.649 16.114z" fill="#fff"/><path d="M165.257 201.027c-.973 2.902-5.961 3.383-11.605 12.402-5.641 9.027-11.035 5.242-12.41 11.441 6.77-5.473 12.086-1.836 16.113-7.242 6.125-8.227 11.168-7.047 13.535-12.574 3.387-7.891 18.211-7.73 19.016-20.141-4.997-.96-20.786 12.411-24.649 16.114z" fill="none" stroke="#000" stroke-width=".075"/><path d="M292.386 79.215c6.441 2.098 6.605 10.473 14.016 13.219 7.406 2.731 8.133 9.336 14.18 7.731-5.641-1.531-5.242-8.059-11.121-9.664-6.895-1.891-9.508-12.41-14.98-14.023" fill="#fff"/><path d="M292.386 79.215c6.441 2.098 6.605 10.473 14.016 13.219 7.406 2.731 8.133 9.336 14.18 7.731-5.641-1.531-5.242-8.059-11.121-9.664-6.895-1.891-9.508-12.41-14.98-14.023" fill="none" stroke="#000" stroke-width=".075"/><path d="M321.952 122.965c1.125 2.574.965 7.168-3.066 8.375 2.18 1.371 5.398.082 7.168-2.895-2.656 5.879-.879 11.195 3.305 12.238-2.016-4.102 2.504-6.043 1.051-8.699 2.66 1.133 4.992 4.754 4.91 7.012 3.473-3.867-2.578-9.027-1.445-12.648l-11.923-3.383z" fill="#fff"/><path d="M321.952 122.965c1.125 2.574.965 7.168-3.066 8.375 2.18 1.371 5.398.082 7.168-2.895-2.656 5.879-.879 11.195 3.305 12.238-2.016-4.102 2.504-6.043 1.051-8.699 2.66 1.133 4.992 4.754 4.91 7.012 3.473-3.867-2.578-9.027-1.445-12.648l-11.923-3.383z" fill="none" stroke="#000" stroke-width=".075"/><path d="M280.218 164.371c-3.945-3.465-5.637.902-7.574-.602-1.812-1.41-4.23-1.613-5.156-.203 3.387.121 1.73 2.738 8.297 3.383-6.566.449-5.359 7.773-9.746 7.414 4.672 4.434 7.094-3.949 10.879-2.578-1.133.32 1.77 2.984-.246 6.523 3.262-.082 4.59-4.59 5-6.93l-1.454-7.007z" fill="#fff"/><path d="M280.218 164.371c-3.945-3.465-5.637.902-7.574-.602-1.812-1.41-4.23-1.613-5.156-.203 3.387.121 1.73 2.738 8.297 3.383-6.566.449-5.359 7.773-9.746 7.414 4.672 4.434 7.094-3.949 10.879-2.578-1.133.32 1.77 2.984-.246 6.523 3.262-.082 4.59-4.59 5-6.93l-1.454-7.007z" fill="none" stroke="#000" stroke-width=".075"/><path d="M193.292 201.996c-1.453-1.207-5.645-1.773-7.258-.805-1.605.961-1.043 1.207.887 1.367 1.934.164 4.43 3.289.246 3.469-1.934.074-1.289 4.754-5.316 5.07 1.648 2.016 6.359.688 8.055-1.531-.324 1.809 2.098 3.465 1.129 5.641 2.98.328 1.246-6.043 5.961-5.715-1.934.238-1.129 4.59 2.258 3.457-2.016.969-.973 3.305 1.289 2.742-1.453.488-1.934 2.34.078 3.383 1.933-2.66-.243-12.168-7.329-17.078z" fill="#fff"/><path d="M193.292 201.996c-1.453-1.207-5.645-1.773-7.258-.805-1.605.961-1.043 1.207.887 1.367 1.934.164 4.43 3.289.246 3.469-1.934.074-1.289 4.754-5.316 5.07 1.648 2.016 6.359.688 8.055-1.531-.324 1.809 2.098 3.465 1.129 5.641 2.98.328 1.246-6.043 5.961-5.715-1.934.238-1.129 4.59 2.258 3.457-2.016.969-.973 3.305 1.289 2.742-1.453.488-1.934 2.34.078 3.383 1.933-2.66-.243-12.168-7.329-17.078z" fill="none" stroke="#000" stroke-width=".075"/><path d="M368.761 113.102c6.156 0 11.16-4.996 11.16-11.168 0-6.164-5.004-11.168-11.16-11.168-6.172 0-11.172 5.004-11.172 11.168 0 6.172 5 11.168 11.172 11.168z" fill="#fff"/><path d="M368.761 113.102c6.156 0 11.16-4.996 11.16-11.168 0-6.164-5.004-11.168-11.16-11.168-6.172 0-11.172 5.004-11.172 11.168 0 6.172 5 11.168 11.172 11.168z" fill="none" stroke="#000" stroke-width=".075"/><path d="M310.429 126.586c3.379-3.223 8.539-4.828 12.086-2.414 3.539 2.414 15.309 5.316 21.105 1.289 5.797-4.031 8.539-6.125 11.113-5.645 1.934 2.902 4.273 4.273 7.176 4.516.883.965 4.031 1.773 5.801 1.535 2.574.645 5.715-.172 8.219-2.902 3.863.562 7.492-2.34 8.863-6.688 4.102-.488 4.348-5.078 1.77-8.137-2.422-.484-.562-8.621-9.344-7.016 3.703 2.262.887 6.77 3.945 8.867-2.094 0-4.793.887-5.438 4.027.805-2.176-.121-3.621-.688-4.109.082-1.852-4.027-6.402-7.891-4.754 2.777.609 1.207 5.078 3.219 6.773-1.449.074-2.984.801-3.863 2.09-1.051-1.852-4.754-3.785-7.012-3.949 0-.645-.125-1.93-.402-2.574-1.012-1.934-1.852-4.234-1.449-7.176-1.934 2.094-3.547 4.996-4.512 7.094-3.059-2.098-10.633.969-14.18 1.769-3.547.809-15.469-1.125-18.211-4.027-2.738-2.898-8.055-4.672-13.047-6.117-6.871-2-6.93-9.508-14.504-14.668-.155 9.345 14.017 38.993 17.244 42.216z" fill="#fff"/><path d="M310.429 126.586c3.379-3.223 8.539-4.828 12.086-2.414 3.539 2.414 15.309 5.316 21.105 1.289 5.797-4.031 8.539-6.125 11.113-5.645 1.934 2.902 4.273 4.273 7.176 4.516.883.965 4.031 1.773 5.801 1.535 2.574.645 5.715-.172 8.219-2.902 3.863.562 7.492-2.34 8.863-6.688 4.102-.488 4.348-5.078 1.77-8.137-2.422-.484-.562-8.621-9.344-7.016 3.703 2.262.887 6.77 3.945 8.867-2.094 0-4.793.887-5.438 4.027.805-2.176-.121-3.621-.688-4.109.082-1.852-4.027-6.402-7.891-4.754 2.777.609 1.207 5.078 3.219 6.773-1.449.074-2.984.801-3.863 2.09-1.051-1.852-4.754-3.785-7.012-3.949 0-.645-.125-1.93-.402-2.574-1.012-1.934-1.852-4.234-1.449-7.176-1.934 2.094-3.547 4.996-4.512 7.094-3.059-2.098-10.633.969-14.18 1.769-3.547.809-15.469-1.125-18.211-4.027-2.738-2.898-8.055-4.672-13.047-6.117-6.871-2-6.93-9.508-14.504-14.668-.155 9.345 14.017 38.993 17.244 42.216z" fill="none" stroke="#000" stroke-width=".075"/><path d="M231.48 197.805c5.961 0 10.789-4.832 10.789-10.793 0-5.961-4.828-10.797-10.789-10.797-5.969 0-10.797 4.836-10.797 10.797s4.828 10.793 10.797 10.793z" fill="#fff"/><path d="M231.48 197.805c5.961 0 10.789-4.832 10.789-10.793 0-5.961-4.828-10.797-10.789-10.797-5.969 0-10.797 4.836-10.797 10.797s4.828 10.793 10.797 10.793z" fill="none" stroke="#000" stroke-width=".075"/><path d="M205.694 189.504c2.176 2.824 5.879 2.66 7.414 2.422 1.285 3.387 5.395 3.305 7.172 5.156 1.77 1.852 7.812 1.688 9.582.645-1.613-.156-3.699-1.129-5.715-2.824-2.434-2.039-1.289-6.121-3.227-7.574 1.449-1.605 1.695-4.266 1.375-5.316 1.527-.883 2.652-2.332 2.812-3.059 2.66-.156 5-1.531 5.965-2.578 1.367 1.289 4.832-.406 6.684 1.77.406-5.316-4.672-8.137-8.055-6.359-1.363-.727-4.992-.242-5.645.727-1.125-.48-4.266 1.125-5.715 2.176 1.613-.887 1.852-3.547 1.215-4.516 1.363-.562 2.895-2.414 3.059-3.785 1.93.32 4.832-.969 6.121-.645-2.094-2.738-5.559-3.711-9.105-3.465-3.664.203-5.238 2.781-5.719 5.562-2.176 1.285-2.902 5.633-2.094 7.168-1.25-.043-2.422 1.164-2.902 1.852-1.691-.727-4.106-1.25-5.84-1.25" fill="#fff"/><path d="M205.694 189.504c2.176 2.824 5.879 2.66 7.414 2.422 1.285 3.387 5.395 3.305 7.172 5.156 1.77 1.852 7.812 1.688 9.582.645-1.613-.156-3.699-1.129-5.715-2.824-2.434-2.039-1.289-6.121-3.227-7.574 1.449-1.605 1.695-4.266 1.375-5.316 1.527-.883 2.652-2.332 2.812-3.059 2.66-.156 5-1.531 5.965-2.578 1.367 1.289 4.832-.406 6.684 1.77.406-5.316-4.672-8.137-8.055-6.359-1.363-.727-4.992-.242-5.645.727-1.125-.48-4.266 1.125-5.715 2.176 1.613-.887 1.852-3.547 1.215-4.516 1.363-.562 2.895-2.414 3.059-3.785 1.93.32 4.832-.969 6.121-.645-2.094-2.738-5.559-3.711-9.105-3.465-3.664.203-5.238 2.781-5.719 5.562-2.176 1.285-2.902 5.633-2.094 7.168-1.25-.043-2.422 1.164-2.902 1.852-1.691-.727-4.106-1.25-5.84-1.25" fill="none" stroke="#000" stroke-width=".075"/><path d="M203.843 171.223c-.727-2.098.23-3.98.727-5.645 1.246-4.223.48-5.316-3.305-4.754-.325 2.016 1.609 8.621 2.578 10.399z" fill="#fff"/><path d="M203.843 171.223c-.727-2.098.23-3.98.727-5.645 1.246-4.223.48-5.316-3.305-4.754-.325 2.016 1.609 8.621 2.578 10.399z" fill="none" stroke="#000" stroke-width=".075"/><path d="M201.061 161.07c.969.961 4.395 1.41 4.754-1.656.414-3.512-1.004-4.867-4.066-3.496-.238.805-.523 4.109-.688 5.152z" fill="#fff"/><path d="M201.061 161.07c.969.961 4.395 1.41 4.754-1.656.414-3.512-1.004-4.867-4.066-3.496-.238.805-.523 4.109-.688 5.152z" fill="none" stroke="#000" stroke-width=".075"/><path d="M201.788 155.793c1.289.523 4.07 1.566 5.602-1.41 1.281-2.5-.406-4.43-3.066-4.266-.645.719-1.934 3.305-2.536 5.676z" fill="#fff"/><path d="M201.788 155.793c1.289.523 4.07 1.566 5.602-1.41 1.281-2.5-.406-4.43-3.066-4.266-.645.719-1.934 3.305-2.536 5.676z" fill="none" stroke="#000" stroke-width=".075"/><path d="M204.163 149.867c.324.969 3.625 4.191 6.047 1.859 2.414-2.34 2.414-5.809-1.215-7.09-.961.157-3.863 3.544-4.832 5.231z" fill="#fff"/><path d="M204.163 149.867c.324.969 3.625 4.191 6.047 1.859 2.414-2.34 2.414-5.809-1.215-7.09-.961.157-3.863 3.544-4.832 5.231z" fill="none" stroke="#000" stroke-width=".075"/><path d="M208.995 144.637c.727 2.008 2.984 5.48 7.172 3.859 4.188-1.605 2.418-6.844.488-7.895-1.133.083-5.726 2.18-7.66 4.036z" fill="#fff"/><path d="M208.995 144.637c.727 2.008 2.984 5.48 7.172 3.859 4.188-1.605 2.418-6.844.488-7.895-1.133.083-5.726 2.18-7.66 4.036z" fill="none" stroke="#000" stroke-width=".075"/><path d="M216.655 140.602c-.328 1.777 0 6.605 5.715 6.531 5.723-.082 4.109-6.766 2.66-7.738-2.336 0-6.281.082-8.375 1.207z" fill="#fff"/><path d="M216.655 140.602c-.328 1.777 0 6.605 5.715 6.531 5.723-.082 4.109-6.766 2.66-7.738-2.336 0-6.281.082-8.375 1.207z" fill="none" stroke="#000" stroke-width=".075"/><path d="M225.272 139.641c-.645 1.371-2.094 10.383 9.102 7.895 1.457-.329 5.234-8.622-9.102-7.895z" fill="#fff"/><path d="M225.272 139.641c-.645 1.371-2.094 10.383 9.102 7.895 1.457-.329 5.234-8.622-9.102-7.895z" fill="none" stroke="#000" stroke-width=".075"/><path d="M231.397 140.445c-1.133 1.129 1.77 10.234 9.344 8.703 7.57-1.531 1.207-10.152-9.344-8.703z" fill="#fff"/><path d="M231.397 140.445c-1.133 1.129 1.77 10.234 9.344 8.703 7.57-1.531 1.207-10.152-9.344-8.703z" fill="none" stroke="#000" stroke-width=".075"/><path d="M237.839 141.809c-1.207 2.504.605 9.918 9.957 9.918 8.461 0-.449-9.754-9.957-9.918z" fill="#fff"/><path d="M237.839 141.809c-1.207 2.504.605 9.918 9.957 9.918 8.461 0-.449-9.754-9.957-9.918z" fill="none" stroke="#000" stroke-width=".075"/><path d="M245.171 143.988c-.605 1.391-1.352 9.242 9.672 9.906 7.972.489 6.039-10.796-9.672-9.906z" fill="#fff"/><path d="M245.171 143.988c-.605 1.391-1.352 9.242 9.672 9.906 7.972.489 6.039-10.796-9.672-9.906z" fill="none" stroke="#000" stroke-width=".075"/><path d="M257.011 147.289c-1.363 2.422-2.82 8.465 9.27 8.945 7.737.313 2.98-8.781-9.27-8.945z" fill="#fff"/><path d="M257.011 147.289c-1.363 2.422-2.82 8.465 9.27 8.945 7.737.313 2.98-8.781-9.27-8.945z" fill="none" stroke="#000" stroke-width=".075"/><path d="M267.081 149.148c-1.77 2.414-.461 7.152 4.031 8.055 5.641 1.129 6.449-4.191 2.582-6.766-3.871-2.585-6.613-1.289-6.613-1.289z" fill="#fff"/><path d="M267.081 149.148c-1.77 2.414-.461 7.152 4.031 8.055 5.641 1.129 6.449-4.191 2.582-6.766-3.871-2.585-6.613-1.289-6.613-1.289z" fill="none" stroke="#000" stroke-width=".075"/><path d="M272.561 150.273c-1.289 2.258-.488 7.73 8.059 7.73 1.77.001 8.535-6.921-8.059-7.73z" fill="#fff"/><path d="M272.561 150.273c-1.289 2.258-.488 7.73 8.059 7.73 1.77.001 8.535-6.921-8.059-7.73z" fill="none" stroke="#000" stroke-width=".075"/><path d="M206.425 255.336c6.918 0 12.527-5.609 12.527-12.531 0-6.926-5.609-12.535-12.527-12.535-6.922 0-12.539 5.609-12.539 12.535 0 6.922 5.617 12.531 12.539 12.531z" fill="#fff"/><path d="M206.425 255.336c6.918 0 12.527-5.609 12.527-12.531 0-6.926-5.609-12.535-12.527-12.535-6.922 0-12.539 5.609-12.539 12.535 0 6.922 5.617 12.531 12.539 12.531z" fill="none" stroke="#000" stroke-width=".075"/><path d="M298.347 73.09c-.973.973-2.984 3.875-3.387 5-4.191 12.566 6.992 21.953 13.531 35.449 5.16 10.633 4.516 27.391-3.539 38.023-2.762 3.633-1.934 4.672-5.48 8.383-1.363 1.418-2.902 3.219-2.414 8.375 2.25-.809 5.48 1.289 6.117 3.059 1.613-.801 3.871-.48 4.68.488 2.738-1.289 4.992-.645 7.406 1.934 2.094-.328 4.352 0 6.449 2.258 1.125-2.258 3.383-3.066 4.988-2.586-.156-2.895 2.742-4.988 5.32-3.863-.801-3.867 2.738-6.77 6.121-5.637 2.902-2.258 8.703-2.422 11.605.965-5.156-1.453-5 4.027-9.348 3.547 1.129 3.219-1.777 5.07-4.672 6.121 1.852-.887 3.867-1.938 4.512-.805 1.613-1.41 4.836-.891 5.641-.164 2.129-.684 4.191-.164 5.156 2.422 2.902 1.77 4.832 6.277 2.738 9.664-.645-3.547-3.066-3.387-4.027-4.836-2.258.805-4.52.805-5.156-.645-1.289 1.289-5.641 2.422-7.574.48-.727 2.902-3.223 5.316-6.125 5.316.809 2.258-1.449 6.125-3.219 8.059 2.738 1.449 1.93 4.672 1.289 6.613 4.188.641.641 4.344 7.891 6.766-3.547 1.125-10.469 0-11.438-4.352-3.543-.164-5.961-3.711-5.801-7.414-2.738-2.578-3.141-6.281.645-8.863-3.223.969-4.996-4.184-9.664-2.098-2.332 1.047-8.465-.723-8.383-2.895-.969 1.609-6.848.969-7.656-1.77-1.934 1.043-6.441-.727-6.359-3.391-2.496 1.133-5.879-.883-5.727-3.465-2.332-.32-2.566-2.414-2.414-4.184-2.094-.973-1.531-2.984-.723-5.398-1.445-1.617-.809-3.867.316-5.961-1.605-1.617-1.289-3.547-.801-5.801-7.734-.645-17.422-2.516-39.637-9.352-33.516-10.309-42.535 13.863-35.121 29.008 8.543 17.473-.973 21.266 1.93 34.32 3.059.645 4.672 3.223 4.512 5.961 1.809.082 3.098 1.77 2.453 5 1.535-.285 3.508.152 4.797 1.441 1.125-2.086 4.836-2.574 6.766-.156 4.191-.324 6.281 3.059 6.125 7.25 2.258 4.031 1.445 8.938-.969 12.086.242-1.695 0-4.109-.074-5.562-.156-2.664-3.875-3.219-3.465-5.398-1.941.164-3.793-.887-4.438-2.332-1.125.965-2.734 1.289-4.109.801 2.176.969 3.867 4.836 3.227 7.418 1.129 1.926.883 5.473-.488 7.008-.641 3.141-3.059 4.266-6.203 2.902 1.777-1.133 2.422-3.148 2.34-4.836-1.125-.969-1.688-2.82-1.77-3.945-3.148.48-7.496-2.18-8.297-3.23-6.922 0-12.539 5.609-12.539 12.535-.316-2.578-3.578-5.113-3.172-7.297-1.941-5.965.801-11.516 8.699-12.648-.969-2.254 2.414-4.594 1.129-7.168-1.649-3.289-4.676-7.578-9.191-12.566 2.738-4.676 1.941-10.961.324-14.828-2.312-5.551-4.508-4.184-12.727 4.836-13.395 14.703-31.258 10.637-47.051 20.297-4.191 2.57-8.375 3.547-3.867-.961 4.516-4.512 16.438-9.02 24.172-12.891 14.484-7.246 26.746-19.336 31.582-42.855 11.359-55.285 53.168-37.062 79.594-26.754 24.809 9.684 20.305-12.242 7.734-25.457-15.105-15.875-12.082-28.355-4.992-38.344 12.728-1.776 37.142 2.657 32.228 6.923z" fill="#fff"/><path d="M298.347 73.09c-.973.973-2.984 3.875-3.387 5-4.191 12.566 6.992 21.953 13.531 35.449 5.16 10.633 4.516 27.391-3.539 38.023-2.762 3.633-1.934 4.672-5.48 8.383-1.363 1.418-2.902 3.219-2.414 8.375 2.25-.809 5.48 1.289 6.117 3.059 1.613-.801 3.871-.48 4.68.488 2.738-1.289 4.992-.645 7.406 1.934 2.094-.328 4.352 0 6.449 2.258 1.125-2.258 3.383-3.066 4.988-2.586-.156-2.895 2.742-4.988 5.32-3.863-.801-3.867 2.738-6.77 6.121-5.637 2.902-2.258 8.703-2.422 11.605.965-5.156-1.453-5 4.027-9.348 3.547 1.129 3.219-1.777 5.07-4.672 6.121 1.852-.887 3.867-1.938 4.512-.805 1.613-1.41 4.836-.891 5.641-.164 2.129-.684 4.191-.164 5.156 2.422 2.902 1.77 4.832 6.277 2.738 9.664-.645-3.547-3.066-3.387-4.027-4.836-2.258.805-4.52.805-5.156-.645-1.289 1.289-5.641 2.422-7.574.48-.727 2.902-3.223 5.316-6.125 5.316.809 2.258-1.449 6.125-3.219 8.059 2.738 1.449 1.93 4.672 1.289 6.613 4.188.641.641 4.344 7.891 6.766-3.547 1.125-10.469 0-11.438-4.352-3.543-.164-5.961-3.711-5.801-7.414-2.738-2.578-3.141-6.281.645-8.863-3.223.969-4.996-4.184-9.664-2.098-2.332 1.047-8.465-.723-8.383-2.895-.969 1.609-6.848.969-7.656-1.77-1.934 1.043-6.441-.727-6.359-3.391-2.496 1.133-5.879-.883-5.727-3.465-2.332-.32-2.566-2.414-2.414-4.184-2.094-.973-1.531-2.984-.723-5.398-1.445-1.617-.809-3.867.316-5.961-1.605-1.617-1.289-3.547-.801-5.801-7.734-.645-17.422-2.516-39.637-9.352-33.516-10.309-42.535 13.863-35.121 29.008 8.543 17.473-.973 21.266 1.93 34.32 3.059.645 4.672 3.223 4.512 5.961 1.809.082 3.098 1.77 2.453 5 1.535-.285 3.508.152 4.797 1.441 1.125-2.086 4.836-2.574 6.766-.156 4.191-.324 6.281 3.059 6.125 7.25 2.258 4.031 1.445 8.938-.969 12.086.242-1.695 0-4.109-.074-5.562-.156-2.664-3.875-3.219-3.465-5.398-1.941.164-3.793-.887-4.438-2.332-1.125.965-2.734 1.289-4.109.801 2.176.969 3.867 4.836 3.227 7.418 1.129 1.926.883 5.473-.488 7.008-.641 3.141-3.059 4.266-6.203 2.902 1.777-1.133 2.422-3.148 2.34-4.836-1.125-.969-1.688-2.82-1.77-3.945-3.148.48-7.496-2.18-8.297-3.23-6.922 0-12.539 5.609-12.539 12.535-.316-2.578-3.578-5.113-3.172-7.297-1.941-5.965.801-11.516 8.699-12.648-.969-2.254 2.414-4.594 1.129-7.168-1.649-3.289-4.676-7.578-9.191-12.566 2.738-4.676 1.941-10.961.324-14.828-2.312-5.551-4.508-4.184-12.727 4.836-13.395 14.703-31.258 10.637-47.051 20.297-4.191 2.57-8.375 3.547-3.867-.961 4.516-4.512 16.438-9.02 24.172-12.891 14.484-7.246 26.746-19.336 31.582-42.855 11.359-55.285 53.168-37.062 79.594-26.754 24.809 9.684 20.305-12.242 7.734-25.457-15.105-15.875-12.082-28.355-4.992-38.344 12.728-1.776 37.142 2.657 32.228 6.923z" fill="none" stroke="#000" stroke-width=".075"/><path d="M343.222 208.895c7.613 0 13.785-6.172 13.785-13.789 0-7.613-6.172-13.785-13.785-13.785-7.617 0-13.789 6.172-13.789 13.785 0 7.617 6.171 13.789 13.789 13.789z" fill="#fff"/><path d="M343.222 208.895c7.613 0 13.785-6.172 13.785-13.789 0-7.613-6.172-13.785-13.785-13.785-7.617 0-13.789 6.172-13.789 13.785 0 7.617 6.171 13.789 13.789 13.789zM290.608 73.734c-3.059 13.539-.48 19.66 4.027 25.621 9.324 12.324 16.758 40.441 6.125 58.812" fill="none" stroke="#000" stroke-width=".075"/><path d="M306.722 142.297c1.289-.488 3.707-2.012 4.273-4.672m-3.305-1.207c.402-2.34 4.027-3.348 4.102-5.844m-4.027-3.258c-.238-2.418 3.629-4.598 3.066-7.012m-5.156-1.695c-.324-1.371 3.223-3.945 2.254-6.125m-4.911-2.332c-.727-1.531 1.688-3.301.645-4.914m-4.516-1.851c-.238-1.047 1.246-3.344.445-4.715m-4.312-3.262c.324-.406 1.613-1.371 1.086-2.578m-3.746-3.262c.523-.285 2.098-.766 1.895-1.934" fill="none" stroke="#000" stroke-width=".075" stroke-linecap="round"/><path d="M211.98 241.473c-3.219-1.133-7.25.484-8.055 3.223m2.414 2.495c.406-2.742 4.59-3.949 5.887-2.66-2.664-1.449-3.953 3.711-1.613 3.867m21.667-64.933c-1.934.969-2.496 4.516 0 7.168m2.903-6.363c-1.371 1.133-1.289 4.512.723 5.316-1.688-1.207 0-3.301 1.207-3.383 1.207-.074 2.023 1.371.562 2.82m110.699 3.223c-4.508-1.207-8.137 4.027-4.027 8.699-.082-4.508 3.141-7.492 7.086-6.68m-1.813 3.122c-1.109 0-1.727.859-1.727 1.707 0 .891.758 1.738 2.012 1.738.801 0 1.453-.93 1.453-1.656M365.53 98.469c.727 2.738 4.52 3.871 7.496 3.227m0-1.778c-2.34.082-4.266-2.094-4.109-3.945 0 1.371 3.145 2.016 4.109 1.133" fill="none" stroke="#000" stroke-width=".075" stroke-linecap="round" stroke-linejoin="round"/><path d="M213.108 191.926c-.645-1.613 1.93-3.219 2.012-4.754.082-1.531 2.902-2.738 5.801.156m-1.363-17.156c-.566.242-1.055.57-1.535.727m7.085 8.054c-.684.039-2.086-.039-2.859-.562m.047 3.621c-.57.285-1.816.766-2.543.93m-25.094 47.734c-.082 1.445 1.371 3.543 2.172 4.188m4.109-7.653c-.809 1.207-1.289 3.305-.809 4.754m12.813.082c-1.445-.969-.48-3.465-.645-5.078-.164-1.609 1.695-4.184 5.316-2.016m-18.202-2.094c1.445-.238 2.977-.156 3.949.242m14.418-4.835c-.645.891-.809 1.859-.891 2.504m7.657-2.661c-1.125 0-2.094.801-2.574 1.609m-13.055-42.859c1.293.445 4.629 2.5 4.754 4.629m8.945-15.101c-3.949-.082-5.48-4.109-2.496-4.109m9.582 9.507c-1.527.645-.801 3.301 1.371 4.59m-10.793 20.707c-.766-.973.238-3.785 2.742-2.938m3.141 32.34c.16-2.453 3.262-3.906 4.508-1.125m-15.949 8.141c-.203-2.699 1.164-3.59 2.371-3.75 1.207-.156 2.945.848 3.75 2.621m-30.129 3.137c.156-1.609 1.527-3.305 2.977-3.059m144.449-68.476c-1.043.758-1.727 4.184 2.258 4.512m-8.38 1.124c0 .398.52.969.848 1.207m18.168 5.243c-1.055-.816-3.746 2.453-1.289 4.828m-24.332 22.238c-.605-2.293 1.531-2.902 3.547-2.414m-8.703-13.863c1.207-.809 2.414-1.688 3.949-2.098m-4.594 10.961c0-1.934.969-3.547 1.852-4.027m5.234-18.211c-.156 2.34.809 4.598 1.535 5.801m17.645-5.637c-1.172.367-2.219.809-2.656 1.77m1.367 4.835c.562-.48 1.207-1.043 1.484-1.445m28.965-68.887c0 2.258-2.812 3.465-4.672 2.02m10.797-1.938c1.25.969 5.562.039 4.551-2.457m-9.785 15.43c-.891-.164-2.414-1.125-3.066-1.934m11.929-4.754c-1.453.32-2.422 0-3.148-.32m-19.735 8.375c.809 0 2.734-.324 4.07-1.004m-6.488-13.258c-1.047-.121-1.812.082-2.418.484m18.653 3.466c-.285 1.004-1.012 2.578-1.895 3.262" fill="none" stroke="#000" stroke-width=".075" stroke-linecap="round"/><path d="M356.749 117.566c2.016-.891 4.516 5.961 9.344 3.547m.41-7.093c-.645.887-1.051 2.258-1.133 3.465" fill="none" stroke="#000" stroke-width=".075" stroke-linecap="round" stroke-linejoin="round"/><path d="M270.147 103.547c.645-.082 1.77-.324 2.016-1.133m-84.914 76.133c2.414 1.375 4.102 3.711 3.059 7.176m107.71-89.586c.727.48 3.469.48 5-.082m1.934 1.687c-.082 1.133.234 5.398-1.934 6.289m.809-.566c2.012.645 6.039.402 7.328-3.301m-2.82 3.141c1.043 1.613 1.371 4.754-1.77 6.441m2.578-3.785c2.332.809 7.73.891 7.168-3.703m-1.851 3.703c1.605 2.258 8.699 4.918 7.566.246m-14.097 6.277c2.738.645 6.605-1.207 4.996-6.039m7.734 2.418c.406 1.852 9.426 3.793 8.219-.406m-1.692 2.422c1.691 3.867 10.637 3.547 7.812-1.613m-1.448 4.027c1.77 2.176 9.672.887 6.523-4.348m-.074 4.266c4.91 3.711 10.633-1.605 4.43-5.48m2.82 4.273c4.348 3.465 9.664-2.82 5.879-4.59m-40.281 3.141c1.367.406 4.266.242 4.914-2.254m-1.09 1.691c-.156 3.668 6 5.07 7.574.848m-2.055 2.289c1.125 2.422 6.523 3.387 7.41-.078m-.886 1.613c.887 2.422 5.562 2.176 6.852-.32m-1.692 1.613c1.445 3.133 7.414 3.133 8.777-1.457m-1.047 2.016c2.336 1.449 7.332.887 6.934-3.621m-.973 3.218c3.469 2.82 8.383.082 5.961-4.672m-.242 8.375c1.859-.316 2.82-4.027.887-4.992m-43.82 5.645c3.863-2.102 4.59-5.645 1.93-9.109m1.37 5.562c2.414 1.445 7.008-.082 7.812-3.629m-4.507 4.027c1.367 1.77 1.605 3.949-.164 5.961m1.289-3.703c4.273-2.656 9.59 2.262 5.641 5.238m-.727-5.48c.965-.246 2.66-2.016 2.824-4.027m-.89 5.886c1.77-1.859 13.863 1.926 6.207 5.797m-.563-10.879c2.332.891 3.539 4.191 0 5.316m3.059 2.743c2.574-2.66 10.633-.965 7.73 2.414m-1.933-3.465c1.453-4.91 10.07-1.851 7.25.16m-9.02-5.07c.238.969.32 3.383-1.289 4.672m8.539-5.645c.316.809.242 2.34-.48 3.305m5.961-3.223c.48.891 1.289 2.578-.484 3.949m-68.481-41.003c.082 4.594 1.688 7.652 7.895 4.754m-5.962.726c-3.059 4.109.406 8.539 6.449 4.109m-15.874-2.101c4.191 4.508 11.684 1.207 6.848-5.637m5.073 9.508c-.801 4.43 2.82 5.316 5.805 3.305m-21.43-6.446c.758 4.449 5.316 7.977 9.746 5.23m-4.273.888c0 6.371 8.789 7.094 10.801.488m-3.145 4.031c2.82 5.797 8.945 3.457 10.957-.082m-17.156-9.183c1.125 2.816 3.379 5.961 8.613 3.621m-24.726-4.993c.727 2.336 4.91 5.148 9.746 1.926m-6.77 1.055c-2.574 3.781 2.578 7.328 8.785 1.695m-5.726 2.977c1.051 5.316 3.148 9.59 10.715 2.738m-3.781 2.738c2.738 3.387 6.93 5.477 10.875-.242m2.902 1.207c-.242 4.027.562 6.043 3.703 5.879 2.484-.121 4.836-2.09 6.207-4.184m-6.769 4.184c-.082 4.594 3.547 8.219 10.309 3.547m-7.489 1.852c-1.293 3.465 2.578 9.109 10.148 6.207m-26.187-15.391c-.48 4.43 3.629 7.414 10.234 1.695m-7.004 3.223c.242 3.621 4.348 7.977 10.391 1.688m-7.496 2.902c-.48 6.207 5.234 7.977 10.07 3.223m-18.687-7.813c1.285.082 2.34-1.051 2.98-1.859m-.242 6.371c1.125.242 3.066-.809 3.711-2.098m-.891 9.426c1.289 1.371 5.637.41 6.207-1.449m-1.371 1.371c2.414 5.641 8.863 5.394 11.523-.965m-1.214 2.25c1.215 3.305 4.273 5.398 9.262 4.273m-6.84-.886c-2.82 4.598.879 9.988 7.168 4.672m-5.645 2.175c-.316 2.902 2.34 6.207 5.969 6.605m-17.891-15.062c-.961 6.523 3.711 9.664 9.59 6.207m-16.437-3.066c1.531 1.207 4.273 1.371 6.848.402m3.148 3.789c-1.453 5.48 4.184 9.418 9.02 3.301m-16.841-6.602c.082 2.812 2.82 5.879 7.574 4.988m13.293 5.645c-3.223 2.168-3.863 6.043.645 8.539m-8.539-9.672c.164 3.301 1.691 5.152 5.316 5.48m-10.07-7.167c-4.836 4.426-.082 9.582 5.645 5.234m-2.258 1.367c-1.617 5.082 4.426 8.141 7.656 2.98m-17.648-13.773c-1.777 4.996.484 8.301 4.594 7.973m-10.962-8.937c.246 2.977 2.82 4.027 5.723 3.379m-3.871-.239c-2.172 4.191 1.133 6.441 5.48 4.836m13.215 9.344c-.723 2.66-.324 4.59 3.625 5.473m-3.386-1.688c-4.754 2.176-5.152 6.766-1.449 9.75m-2.376-14.863c-2.504 2.25-2.016 6.164.727 7.691m-21.879-22.394c-2.73 2.699-.113 10.145 5.93 6.082m9.785 3.336c-3.703 3.066-2.016 8.629 4.109 7.094m-10.234-9.426c-1.934 5.48-.082 7.414 4.273 7.496m-17.89-14.828c-3.305 2.496-2.414 6.043-.965 7.652 1.453 1.613 4.191.887 5.074-1.207m-11.035-8.621c-3.703 4.754 0 10.398 5.238 8.703m14.586 5.398c-3.789 1.367-6.68 4.805-4.355 7.816 1.371 1.77 7.332 2.008 9.02-4.836m-11.52-7.409c-2.172 3.141-1.445 6.125 2.582 7.648m-2.821-1.769c-2.34 1.289-3.867 2.82-3.301 5.641m-1.933-10.559c-.891 3.793.156 6.125 2.496 7.25m-2.578-2.731c-3.629-.246-5.48 1.285-4.273 4.832m.324-3.953c-3.543-1.289-4.109-4.348-2.574-7.566m-.489 4.754c-3.867.156-5.555 2.09-5.555 4.754m.317-19.825c-2.812 1.207-3.699 5-2.656 7.086 1.051 2.098 4.356 2.262 6.367.891m-11.602-10.953c-2.578 2.895.398 8.539 4.996 7.16m-11.601-9.418c-2.422 3.383.234 9.02 6.441 7.41m.324 15.707c-.644-4.027 3.543-6.684 8.703-1.449m-2.503-8.133c-1.523 1.371-2.258 3.539-2.008 5.316m-17.563-20.785c-2.66 4.512.562 8.621 6.277 7.008m8.622 4.188c-3.785 3.785-2.496 7.578.324 9.746m-2.738-5.309c-5.719.082-6.043 6.68-1.371 8.781m-2.985-15.394c-2.332 1.613-3.059 6.043.973 7.82m-1.129 2.094c-2.418-1.133-5.316.238-5.078 3.059m1.453-2.985c-2.18-5.152-8.539-4.266-7.977 1.055m9.75-7.414c-1.367.242-4.109 1.043-5.152 3.141m.399-8.938c-2.574 2.895-.562 6.359 1.527 7.086m-9.184-15.227c-.48 3.461.891 5.156 5.238 4.836m-3.703-.406c-1.695 4.184.562 6.043 4.91 5.797m-3.949-.645c-2.574 3.059-.805 6.371 1.695 7.738m-2.902-3.863c-4.59-.57-5.316 4.746-3.785 7.25m.082-21.113c-2.82 1.215-4.426 4.754-2.902 6.93 1.535 2.18 4.594 1.453 6.281.328m-5.312.637c-2.336 3.547-.242 6.211 2.254 7.258m-11.278-15.551c-1.852 1.93-.727 5.879 3.789 5.961 3.629.066 5.473-3.387 4.348-5.801m-4.996 5.8c-1.453 3.219-.566 6.688 4.914 6.121m2.34 5.075c-3.383-1.531-7.895 0-5.969 4.027m-.48-9.746c-1.371 1.934-.883 4.676.645 6.371m-.888-1.215c-2.254.406-4.43 1.613-3.059 5.152m-.319-2.894c-2.902-.887-6.606 1.207-4.356 4.184m-.481-2.813c-2.496-.406-5.48 2.25-3.059 4.91m-.968-2.179c-2.258.57-4.918 3.148-2.582 5.164m13.942-17.805c-3.223 1.453-3.547 5.074-2.016 7.73m-1.367-14.417c-4.836 1.852-4.754 8.297.562 10.309m-2.258-1.45c-2.898 1.688-3.461 4.918-1.527 7.012m-3.547-18.289c-1.934.645-1.77 6.605 3.383 6.449m-8.699-4.438c-3.867 2.578.805 9.102 7.094 4.438m-3.465 1.605c-.562 2.66.156 5.562 4.426 5.887m-4.192-2.34c-3.059 1.125-3.621 7.414 1.934 7.895m-11.676-13.618c-3.949 3.629 3.219 6.77 5.879 1.531m-11.36 4.512c-1.934 2.34 4.836 8.461 7.812-1.77m.727-.155c.16 2.414 1.613 3.863 4.59 4.02m-.074 2.339c-4.754.727-6.285 6.68-.969 7.977m-7.812-8.782c-.164 2.25 2.168 4.109 4.828 3.703m2.422 4.914c-4.355.965-4.918 6.605-1.055 6.289m-2.011 5.235c-3.621-1.094-3.703-5.398-.481-7.012m-2.496 3.227c-3.059 1.852-1.852 6.281-.246 6.926 1.613.645 2.902-.164 3.066-1.535m-.246 6.206c.32 2.094-7.453 1.289-3.465-5.234m-.039 5.602c-2.617 4.102 1.652 7.445 4.352 3.945m-3.985 1.004c-1.055 3.301 2.934 5.684 5.512 3.105m-14.215-34.043c-1.449 2.984 5.801 4.109 6.281-2.016m-8.292 6.45c-1.453 5.801 9.508 4.594 6.684-2.902m.237 3.867c1.531.887 6.125.969 7.25-3.949m-3.3 4.109c.324 1.535 1.695 3.387 2.98 3.949m-8.219-2.414c-.48 3.141 2.66 5.715 6.289 5.48m-5.726-2.421c-1.77 2.422-2.332 7.094 3.23 7.41m-11.687-6.606c-.887 2.496 4.348 5.082 7.414.965m-9.02 5.406c-.449 1.891 4.266 4.426 6.926-3.629m-2.098 4.11c1.125 2.012 4.918 3.621 7.258-.324m-3.793 2.418c-.961 2.816 1.688 5.473 4.918 4.672m-10.961-5.317c-.645 4.031 4.031 6.363 6.934 4.266m-9.992-2.496c-1.367 5.156 5.238 7.09 7.734 3.223m-1.699 1.534c.246 2.895 4.754 5.395 8.301 2.977m-16.348-.562c-.328 1.285 5.07 2.582 5.879-1.934m-2.738 3.062c1.285 3.305 5.633 4.105 8.137.078m-1.454 1.614c.562 3.066 4.512 4.754 7.977 2.656m1.453 1.207c-.891 4.109 3.383 7.414 6.039 5.164m-12.891-5.887c-1.289 4.516 4.355 7.094 7.492 4.59m-14.261-6.843c-.316 4.191 2.984 6.68 6.77 4.836m-13.938-4.434c-1.125 2.738 4.836 4.988 7.656 2.656m-11.359 4.836c1.527 1.777 6.844 0 7.324-3.945m-1.441 2.894c1.93 2.258 6.523 3.465 8.375-1.363m-1.61 2.496c-.082 3.465 6.117 5.961 8.133-.406m7.297 1.254c-.57 1.688.758 4.387 3.539 4.711m-8.66-5.762c-.398 1.934 2.422 4.633 5.398 3.547m.563.805c-.805 2.09-.113 5.113 2.699 5.074m-2.414-1.168c-2.094 1.773-1.215 4.91 1.812 5.035m-2.902-2.055c-2.98 2.012-1.934 6.449 2.012 6.203m-11.032-14.742c0 4.352 5.399 4.992 6.441.969m-2.089 2.578c-.805 2.574 1.289 5.07 4.594 4.348m-3.957 26.746c.727 1.043 3.711-.727 2.902-2.496-.805-1.777-3.957-.809-3.621 1.051m2.898-1.778c.406-3.547-3.785-4.109-4.828-1.051m1.524-1.769c1.051-1.77-2.496-4.184-3.945-1.609m1.289-1.051c.969-2.574-3.059-3.703-3.387-1.367m-.887-3.387c.488-1.285 4.996-.48 3.066 2.18m3.465 3.218c1.77-1.605-1.207-4.91-3.066-3.703m14.988 8.621c-1.41.156-2.863 1.086-1.812 4.07.727 2.066 3.824 2.176 4.266.93m-4.508-3.508c-1.371-.887-4.348.602-2.984 3.508 1.039 2.176 3.629 1.285 4.027.152m-8.735.489c.68 1.207 4.102.68 4.707-.641m-2.375-3.351c.727-.48 2.055.121 2.34.727m-2.582-20.583c-2.332 1.531-.883 6.203 2.738 4.996m-3.465-1.215c-1.852 1.453-.156 5.961 3.309 4.273m-2.738.001c-1.289 1.289-.043 4.875 3.301 4.191m-3.789-2.414c-.719-.324-2.617-.09-3.418 1.125m1.32-17.441c-1.77 1.688-.922 5.16 2.383 5.438m-3.02-1.899c-2.543 1.254-2.543 6.285 2.535 6.492m-2.746-.809c-1.402 1.133-.719 5.48 2.902 4.918m-1.726-.164c-.523.523-.605 1.852-.164 2.414m-1.449-4.062c-1.289.035-2.98.965-3.426 2.293m-2.332-4.672c.48-1.289 4.469-1.207 4.754 2.574m.398-4.508c-.562.113-1.648.645-1.934 1.73m.204-13.538c-1.727 1.574-2.574 6.531 2.699 7.496m-6.203 2.738c0-1.328 3.586-2.453 4.836-.48m-7.129-6.727c.523 1.004 3.016 2.379 4.551 1.246m-17.524-9.14c-.082 2.332 1.852 4.426 4.508 4.102 2.66-.316 3.223-2.652 2.422-4.184m-2.016 4.273c-1.773 2.168.402 5.234 2.414 4.348m-.398-5.883c1.043-.406 4.512-.887 5.555.727m-16.758-.083c-.809 1.207 4.191 2.414 5.887.082m-1.696 1.207c-.156 1.613.645 4.355 4.754 3.223m.645 2.496c.645-1.363-2.414-3.621-4.754-1.125-2.34 2.492.324 5.316 1.777 4.352m-7.738-8.621c-1.207 2.09 3.465 5.922 6.121 2.375m-9.223 1.25c-1.695 1.734.402 4.914 2.938 3.953 2.543-.973 2.301-3.637 1.695-4.32m-7.894 3.585c-1.367 1.254-.039 4.191 1.851 4.191 1.895 0 3.059-1.492 2.699-3.383m3.141-1.046c-.242 1.852 2.496 3.141 4.273 1.406m.082-3.378c.234-.406.039-1.09-.367-1.418m-14.621 6.132c-1.574 1.242 1.809 4.711 3.945 1.531m8.18-2.214c-1.012.961.605 3.496 2.211 2.738m-7.731-.969c.242 1.727 3.629 3.016 5.758.359m-3.906 1.368c-.523 1.094.527 2.824 1.816 2.586m30.247 7.363c-1.246 2.461 2.738 5.316 5.645 2.34" fill="none" stroke="#000" stroke-width=".075"/><path d="M206.46 209.164c-.602 1.332.121 3.188 1.207 3.867m-4.992-1.086c.281-1.207 2.016-2.34 3.582-1.777m-5.676-1.402c.242-1.09 1.688-2.176 2.781-1.898m92.082-48.376c-5.719.082-3.305 9.266 1.613 7.414m-3.464-.644c-1.133 1.852 1.043 4.789 3.465 3.059m-.645.367c-1.695 2.812 4.348 7.125 6.762 2.691m-1.934 1.695c.082 2.656 7.812 4.348 6.688-.969m-.727 2.903c1.852 3.137 8.781 3.465 8.059-1.207m-1.528 3.219c1.449 2.098 8.219 3.387 7.977-.961m-35.449-25.539c.965 2.492 4.266 3.375 7.895 1.93m-9.989-.161c2.25 1.449-1.055 8.055-4.52 5.398m4.52-1.289c2.492 1.207 5.559.324 6.441-3.223m-1.535 2.743c.246 1.848 2.906 3.301 6.371 2.574m-12.566-.644c3.219 2.742-1.453 8.375-3.547 5.801m4.754-3.704c1.531 1.125 5.477.48 5.879-2.504m-1.77 2.504c.324 1.934 1.852 2.656 4.027 2.73m-9.019-.073c1.605 2.254 5.637 2.898 7.406-.082m-1.769 1.691c-.164 2.176 2.258 3.945 4.754 3.465m-13.539 1.371c2.098 1.043 4.348-2.902 2.578-5.645m-.164 9.828c2.504.16 2.824-3.621.488-5.719m5.238 9.184c2.094-.48 1.449-5.074-3.629-5.473m9.989 8.864c2.016-.562.406-5.641-5.152-5.316m12.808 7.085c1.371-2.094-3.141-5.641-6.848-3.785m10.633 6.68c2.496.727 4.191-5.879-3.703-4.828m8.301 4.828c2.172-.562 3.703-4.508-2.664-3.219m7.492 3.547c1.934.961 2.82-4.672-3.062-3.141m-29.403-14.425c2.418 1.371 6.199-.238 5.883-3.301m-.973 2.656c.809 1.453.488 4.273-1.043 5m1.289-1.613c1.613.645 3.785.078 5.074-2.496m-2.253 2.496c.48 1.125.645 3.383-.406 4.516m.808-2.586c1.773.973 3.863-.316 4.754-2.176m-1.129 1.613c1.289.809 2.414 4.594.238 6.125m1.215-1.777c1.527.09 3.785.09 5.234-1.852m-1.05 1.051c1.371.402 2.984 2.66 2.422 4.676m.082-.727c1.523-.164 4.191-1.207 4.91-3.059m-.719 1.2c1.289.734 2.168 2.266 2.012 4.035m0-1.297c1.527-.074 2.898-.879 3.305-2.574m-.407 1.125c1.133.406 2.492 1.695 2.574 3.227m-.156-.969c1.129-.156 1.926-.883 2.652-2.008m3.067-.164c1.449 1.453-.488 6.281-3.465 5.395M289.401 80.992c-2.984 1.77-11.441 1.207-7.25-5.805m8.055 1.051c-5.879 2.332-13.133-2.176-5.559-7.086m-2.015-1.621c-4.918 0-8.219 7.898-1.605 10.641m-17.485-7.34c-1.289 2.504 3.301 5.242 6.441 2.746 2.438-1.93 2.258-7.168.809-9.188m-9.746 12.411c-1.613 5.316 10.227 5.641 8.375-2.82m-9.028 10.714c.41 4.027 11.359 2.738 7.82-5.398m1.29-2.258c.883 1.215 3.305 3.301 7.414 2.902m-5.481-8.621c.367 1.453 2.82 2.578 5.961 1.492M161.503 193.898c-2.777 1.977 1.492 5.074 3.059 1.648m-5.227-.112c-2.781 1.965 1.484 5.07 3.059 1.648m-5.36-.164c-2.777 1.98 1.492 5.078 3.059 1.648m-5.477-.277c-2.66 1.41.445 4.875 3.145 1.816m-5.758-.488c-2.664 1.41.441 4.875 3.141 1.816m10.347-5.964c-.039 2.055 3.867 2.902 5.277-.156m-2.812 2.054c-1.215 1.531 1 3.422 2.207 2.738m-7.41-3.023c-.117 1.734 3.262 2.738 4.918.848m-3.059.968c-1.094 1.402 1.043 3.301 2.414 2.734m-6.523-2.98c.121 1.371 2.047 2.938 4.148 2.059m-2.902-.207c-.809.727-.398 2.414.727 2.945m-4.918-3.066c-.324 1.25 1.812 3.465 3.988 2.016m-3.539-.563c-1.297 1.004-1.133 2.535.52 2.738m-3.626-2.902c-.164.848.926 2.219 2.297 2.055m-9.187-2.137c-1.289.688 2.012 4.191 4.066.93m-7.25.523c-1.605.766 2.383 4.633 4.152.684m6.282-.848c-1.242.285-2.059 2.098-1.004 2.82m-3.067-2.176c-.156.727 1.375 1.941 2.625 1.492m-3.672-1.167c-1.207.77-.562 2.902.852 2.578m-5.164-1.168c-1.125.844-.359 2.539 1.215 2.137m.84-2.258c.051.441 1.051 1.125 1.898.848m-7.851-1.575c-1.418.605-1.328 4.152 3.418 2.219m-6.606-.805c-1.973.961-1.328 3.625 2.984 1.082m.36.203c-.523.402-1.086 2.18.887 1.492m-4.508-.644c-.809.719-.285 2.211 1.484 1.648m-5.637-1.41c-1.449.848 1.73 1.973 3.867-.277m-2.894 1.328c-.652.645-.652 2.539 1.043 1.852m-5.16-1.086c-.965.727.684 1.691 3.711.359m-2.496.688c-1.129.922-1.012 2.094.637 1.734m-3.981-1.211c-1.25 1.125.562 1.891 2.738.969m-2.699.277c-2.137.969-1.215 2.738.121 2.055m71.176 4.109c-.496 1.07 1.133 1.941 2.656 1.695 1.473-.238 2.879-1.445 1.777-3.141m.075 2.091c1.453 1.133 4.031-.156 4.031-1.852" fill="none" stroke="#000" stroke-width=".075"/><path d="M293.753 48.922c-6.449-3.223-19.82-9.184-23.605-4.348 3.457-1.449 13.617.082 21.992 7.812l1.613-3.464z" fill="#fff"/><path d="M293.753 48.922c-6.449-3.223-19.82-9.184-23.605-4.348 3.457-1.449 13.617.082 21.992 7.812l1.613-3.464z" fill="none" stroke="#000" stroke-width=".075"/><path d="M297.659 48.582c-7.453-8.68-11.84-6.734-17.195-9.73-5.039-2.809-13.055-3.379-14.609 1.086 7.352-3.582 14.105 1.926 18.258 2.594 5.695.918 8.91 5.32 10.578 7.34l2.968-1.29z" fill="#fff"/><path d="M297.659 48.582c-7.453-8.68-11.84-6.734-17.195-9.73-5.039-2.809-13.055-3.379-14.609 1.086 7.352-3.582 14.105 1.926 18.258 2.594 5.695.918 8.91 5.32 10.578 7.34l2.968-1.29z" fill="none" stroke="#000" stroke-width=".075"/><path d="M325.737 47.477c-3.867-8.863-12.141-6.551-15.797-10.316-5.316-5.477-18.77-10.551-24.324-6.766 12.242-.645 17.465 8.441 24.008 11.601 4.672 2.254 9.664 7.09 16.113 5.481z" fill="#fff"/><path d="M325.737 47.477c-3.867-8.863-12.141-6.551-15.797-10.316-5.316-5.477-18.77-10.551-24.324-6.766 12.242-.645 17.465 8.441 24.008 11.601 4.672 2.254 9.664 7.09 16.113 5.481z" fill="none" stroke="#000" stroke-width=".075"/><path d="M311.229 46.508c-6.605-8.219-16.75-15.469-21.422-12.73 6.117.32 8.051 4.59 12.402 7.332 4.356 2.738 2.415 6.687 9.02 5.398z" fill="#fff"/><path d="M311.229 46.508c-6.605-8.219-16.75-15.469-21.422-12.73 6.117.32 8.051 4.59 12.402 7.332 4.356 2.738 2.415 6.687 9.02 5.398z" fill="none" stroke="#000" stroke-width=".075"/><path d="M279.811 61.008c-6.926-2.578-20.461-3.867-26.742 4.027 10.473 1.77 26.262.813 26.742-4.027z" fill="#fff"/><path d="M279.811 61.008c-6.926-2.578-20.461-3.867-26.742 4.027 10.473 1.77 26.262.813 26.742-4.027z" fill="none" stroke="#000" stroke-width=".075"/><path d="M278.522 64.07c-6.922-3.219-12.336 1.281-18.848.645-12.41-1.211-21.266-.488-22.398 5.48 7.086-6.367 19.016-1.133 23.844-2.422 4.836-1.289 22.719-.16 28.363 2.258-2.902-3.547-7.414-4.507-10.961-5.961z" fill="#fff"/><path d="M278.522 64.07c-6.922-3.219-12.336 1.281-18.848.645-12.41-1.211-21.266-.488-22.398 5.48 7.086-6.367 19.016-1.133 23.844-2.422 4.836-1.289 22.719-.16 28.363 2.258-2.902-3.547-7.414-4.507-10.961-5.961z" fill="none" stroke="#000" stroke-width=".075"/><path d="M300.28 45.617c-1.617-5.316-1.535-10.957 6.441-10.551-2.016-2.496-9.426-3.785-10.633 5.562-8.785-6.445-18.375-7.578-20.145-2.016 4.52-3.867 11.523-1.051 19.898 8.457.728-.401 2.666-1.206 4.439-1.452z" fill="#fff"/><path d="M300.28 45.617c-1.617-5.316-1.535-10.957 6.441-10.551-2.016-2.496-9.426-3.785-10.633 5.562-8.785-6.445-18.375-7.578-20.145-2.016 4.52-3.867 11.523-1.051 19.898 8.457.728-.401 2.666-1.206 4.439-1.452z" fill="none" stroke="#000" stroke-width=".075"/><path d="M288.194 52.949c-4.992-3.215-11.762-8.457.082-10.551-5.074-2.742-12.492-1.535-11.68 7.816-13.535-5.484-23.254-3.633-25.301 1.773-2.262 5.961 6.121 9.262 7.574 5.477-1.535.645-6.769-1.125-4.027-4.516 2.738-3.375 16.777-.84 30.129 6.125 3.704 1.935 16.434 1.615 3.223-6.124z" fill="#fff"/><path d="M288.194 52.949c-4.992-3.215-11.762-8.457.082-10.551-5.074-2.742-12.492-1.535-11.68 7.816-13.535-5.484-23.254-3.633-25.301 1.773-2.262 5.961 6.121 9.262 7.574 5.477-1.535.645-6.769-1.125-4.027-4.516 2.738-3.375 16.777-.84 30.129 6.125 3.704 1.935 16.434 1.615 3.223-6.124z" fill="none" stroke="#000" stroke-width=".075"/><path d="M284.647 61.813c-3.852-7.867-16.352-.726-18.875-8.348-3.437 11.168 17.778 4.992 18.875 8.348z" fill="#fff"/><path d="M284.647 61.813c-3.852-7.867-16.352-.726-18.875-8.348-3.437 11.168 17.778 4.992 18.875 8.348z" fill="none" stroke="#000" stroke-width=".075"/><path d="M364.167 70.359c2.621 1.301 4.883-.746.875-2.355 2.625 1.305 4.91-.699.902-2.305 2.625 1.301 4.902-.691.902-2.305-1.07 1.079-2.601 5.024-2.679 6.965z" fill="#fff"/><path d="M364.167 70.359c2.621 1.301 4.883-.746.875-2.355 2.625 1.305 4.91-.699.902-2.305 2.625 1.301 4.902-.691.902-2.305-1.07 1.079-2.601 5.024-2.679 6.965z" fill="none" stroke="#000" stroke-width=".075"/><path d="M365.53 55.207c5.805-6.121-.48-8.219 6.605-14.504 5.801-5.137 1.113-8.559 6.613-12.562 1.77-1.293 5.637-3.871 5.961-6.449 2.332 5.801-7.258 6.606-6.605 15.953.406 5.953-3.613 5.43-5.16 15.469-.32 2.093-1.769 6.765-7.414 2.093z" fill="#fff"/><path d="M365.53 55.207c5.805-6.121-.48-8.219 6.605-14.504 5.801-5.137 1.113-8.559 6.613-12.562 1.77-1.293 5.637-3.871 5.961-6.449 2.332 5.801-7.258 6.606-6.605 15.953.406 5.953-3.613 5.43-5.16 15.469-.32 2.093-1.769 6.765-7.414 2.093z" fill="none" stroke="#000" stroke-width=".075"/><path d="M368.108 57.949c3.227-6.934 6.926-6.797 8.707-9.508 3.379-5.156 10.555.887 16.598-3.711-1.055 6.531-9.191 4.191-12.73 8.383-3.547 4.192-6.45 6.125-12.575 4.836z" fill="#fff"/><path d="M368.108 57.949c3.227-6.934 6.926-6.797 8.707-9.508 3.379-5.156 10.555.887 16.598-3.711-1.055 6.531-9.191 4.191-12.73 8.383-3.547 4.192-6.45 6.125-12.575 4.836z" fill="none" stroke="#000" stroke-width=".075"/><path d="M368.917 60.199c5.641-4.508 9.793-1.5 13.699-3.859 9.824-5.969 13.773 1.199 22.555-1.613-2.34 5.637-15.305.801-20.949 4.992-5.637 4.191-25.457 8.219-15.305.48z" fill="#fff"/><path d="M368.917 60.199c5.641-4.508 9.793-1.5 13.699-3.859 9.824-5.969 13.773 1.199 22.555-1.613-2.34 5.637-15.305.801-20.949 4.992-5.637 4.191-25.457 8.219-15.305.48z" fill="none" stroke="#000" stroke-width=".075"/><path d="M352.483 92.352c-.082-2.578-2.504-5.879-5.879-6.285-3.383-.41-4.836-3.949-7.418-4.113-2.578-.16-4.266-5.316-7.812-5.242-3.547.09-4.992 4.68 3.301 8.871 8.301 4.191 17.484 9.019 17.808 6.769z" fill="#fff"/><path d="M352.483 92.352c-.082-2.578-2.504-5.879-5.879-6.285-3.383-.41-4.836-3.949-7.418-4.113-2.578-.16-4.266-5.316-7.812-5.242-3.547.09-4.992 4.68 3.301 8.871 8.301 4.191 17.484 9.019 17.808 6.769z" fill="none" stroke="#000" stroke-width=".075"/><path d="M342.015 94.52c-3.547.164-4.035 5.32-7.422 5.48 4.68 2.496 8.059-1.125 10.48-4.348l-3.058-1.132z" fill="#fff"/><path d="M342.015 94.52c-3.547.164-4.035 5.32-7.422 5.48 4.68 2.496 8.059-1.125 10.48-4.348l-3.058-1.132z" fill="none" stroke="#000" stroke-width=".075"/><path d="M344.909 95.164c-3.059 2.578-3.949 7.977.488 9.508-2.664-3.66 4.672-5.316 2.406-8.699l-2.894-.809z" fill="#fff"/><path d="M344.909 95.164c-3.059 2.578-3.949 7.977.488 9.508-2.664-3.66 4.672-5.316 2.406-8.699l-2.894-.809z" fill="none" stroke="#000" stroke-width=".075"/><path d="M347.976 95.328c-2.422 4.672 3.781 5.234 2.168 8.781 3.547-.805 4.109-7.492.891-9.262l-3.059.481z" fill="#fff"/><path d="M347.976 95.328c-2.422 4.672 3.781 5.234 2.168 8.781 3.547-.805 4.109-7.492.891-9.262l-3.059.481z" fill="none" stroke="#000" stroke-width=".075"/><path d="M324.284 85.34c5.801-.32 11.102 2.812 14.664 7.895 2.25 3.227 9.824 4.508 12.41 1.93 2.578-2.574 1.125-8.055-5.316-6.277-1.613-2.742-6.289-1.777-8.547-4.027-2.25-2.263-10.953-8.705-13.211.479z" fill="#fff"/><path d="M324.284 85.34c5.801-.32 11.102 2.812 14.664 7.895 2.25 3.227 9.824 4.508 12.41 1.93 2.578-2.574 1.125-8.055-5.316-6.277-1.613-2.742-6.289-1.777-8.547-4.027-2.25-2.263-10.953-8.705-13.211.479z" fill="none" stroke="#000" stroke-width=".075"/><path d="M346.042 88.887c-1.539.316-2.016 2.977-1.051 4.348" fill="#fff"/><path d="M346.042 88.887c-1.539.316-2.016 2.977-1.051 4.348" fill="none" stroke="#000" stroke-width=".075" stroke-linecap="round"/><path d="M349.343 90.5c.484.801.156 1.934-.082 2.488" fill="#fff"/><path d="M349.343 90.5c.484.801.156 1.934-.082 2.488" fill="none" stroke="#000" stroke-width=".075" stroke-linecap="round"/><path d="M333.468 85.582c2.984.164 3.547 2.336 6.77 3.141" fill="#fff"/><path d="M333.468 85.582c2.984.164 3.547 2.336 6.77 3.141" fill="none" stroke="#000" stroke-width=".075" stroke-linecap="round"/><path d="M331.503 78.254c10.293 2.574 18.465 4.828 23.531 7.73 5.059 2.902 12.906 3.703 19.77 1.77 6.855-1.934 20.094-3.703 19.441 4.836 3.594-4.266-.984-8.863-10.133-9.664.164-4.191-4.32-7.977-7.539-5.48 2.977-.406 5.555 5.152-.328 7.414 1.141-4.191-3.023-7.977-7.355-6.125 2.781.805 5.586 5.457-.625 7.25-3.918 1.125-9.645-.328-13.891-2.902-4.242-2.579-28.102-11.923-22.871-4.829z" fill="#fff"/><path d="M331.503 78.254c10.293 2.574 18.465 4.828 23.531 7.73 5.059 2.902 12.906 3.703 19.77 1.77 6.855-1.934 20.094-3.703 19.441 4.836 3.594-4.266-.984-8.863-10.133-9.664.164-4.191-4.32-7.977-7.539-5.48 2.977-.406 5.555 5.152-.328 7.414 1.141-4.191-3.023-7.977-7.355-6.125 2.781.805 5.586 5.457-.625 7.25-3.918 1.125-9.645-.328-13.891-2.902-4.242-2.579-28.102-11.923-22.871-4.829z" fill="none" stroke="#000" stroke-width=".075"/><path d="M357.476 74.063c-3.223 1.449-1.125 4.832-6.117 6.766-5 1.934-8.465 6.363-7.332 10.152 3.379-7.41 9.34-7.094 11.434-9.988 2.097-2.903 5.159-7.177 2.015-6.93z" fill="#fff"/><path d="M357.476 74.063c-3.223 1.449-1.125 4.832-6.117 6.766-5 1.934-8.465 6.363-7.332 10.152 3.379-7.41 9.34-7.094 11.434-9.988 2.097-2.903 5.159-7.177 2.015-6.93z" fill="none" stroke="#000" stroke-width=".075"/><path d="M358.362 74.543c-.16 5.879-4.785 3.738-2.977 12.012.562 2.57 1.609 6.758-.164 10.949 5.195-3.789 1.852-11.746 4.188-14.742 1.133-1.449 2.582-3.711 3.145-5.641-1.215 3.383-1.133 9.668 2.172 11.277-2.66-6.281 7.176-11.434.406-18.684-.965 1.77-4.028 4.911-6.77 4.829z" fill="#fff"/><path d="M358.362 74.543c-.16 5.879-4.785 3.738-2.977 12.012.562 2.57 1.609 6.758-.164 10.949 5.195-3.789 1.852-11.746 4.188-14.742 1.133-1.449 2.582-3.711 3.145-5.641-1.215 3.383-1.133 9.668 2.172 11.277-2.66-6.281 7.176-11.434.406-18.684-.965 1.77-4.028 4.911-6.77 4.829z" fill="none" stroke="#000" stroke-width=".075"/><path d="M341.925 68.664c.809 1.207 1.613 4.269.887 5.961 1.617-.965 3.949-3.465 4.676-5.156 3.301.484 4.598 4.594 1.449 6.363 1.934 0 5.234 0 7.086-2.172-2.251-2.5-9.262-6.367-14.098-4.996z" fill="#fff"/><path d="M341.925 68.664c.809 1.207 1.613 4.269.887 5.961 1.617-.965 3.949-3.465 4.676-5.156 3.301.484 4.598 4.594 1.449 6.363 1.934 0 5.234 0 7.086-2.172-2.251-2.5-9.262-6.367-14.098-4.996z" fill="none" stroke="#000" stroke-width=".075"/><path d="M291.815 57.102c-.516-.477-1.406-.922-2.977-1.25-4.879-.996-2.359-5.398 1.789-5.355 8.863-9.672 13.836-2.219 24.633-5.277 3.777-1.07 6.375-.754 8.43.137 4.832-3.223 10.504-2.32 14.613 1.465.453-.727 1.07-1.281 1.934-1.52 3.781-1.051 6.84 2.176 7.895 6.359 2.949-.543 6.32.918 8.531 2.93 3.07-1.574 5.188-1.641 5.965-.027 2.742-1.281 6.289-2.094 8.059 2.258 1.777 4.348-4.184 3.059-5.156 12.242-.594 5.672-6.922 7.902-11.922 4.516-7.996-5.418-15.785-6.285-19.66 1.934-3.863 8.215-6.891 12.988-16.27 10.309-3.383-.961-7.738.324-10.477 4.035-2.738 3.695-6.922.238-11.922.645 6.285-.969 3.879-2.551 9.344-2.902 5-.324 3.711-5 6.934-5.645-12.566 3.223-12.086-1.449-22.402 1.773 4.52-5.801 11.605-2.578 15.152-5.961-9.348-.164-13.523-6.262-17.727-3.703-6.605 4.027-3.703 15.496-20.945 14.496-8.379-.48-13.695.645-18.688 5.645 8.699-18.047 20.535-8.133 26.258-13.863 3.391-3.375 5.961-5.961 7.738-9.18.625-1.133 1.465-1.777 2.523-2.035-14.343-4.515-5.671-11.538 8.348-12.026z" fill="#fff"/><path d="M291.815 57.102c-.516-.477-1.406-.922-2.977-1.25-4.879-.996-2.359-5.398 1.789-5.355 8.863-9.672 13.836-2.219 24.633-5.277 3.777-1.07 6.375-.754 8.43.137 4.832-3.223 10.504-2.32 14.613 1.465.453-.727 1.07-1.281 1.934-1.52 3.781-1.051 6.84 2.176 7.895 6.359 2.949-.543 6.32.918 8.531 2.93 3.07-1.574 5.188-1.641 5.965-.027 2.742-1.281 6.289-2.094 8.059 2.258 1.777 4.348-4.184 3.059-5.156 12.242-.594 5.672-6.922 7.902-11.922 4.516-7.996-5.418-15.785-6.285-19.66 1.934-3.863 8.215-6.891 12.988-16.27 10.309-3.383-.961-7.738.324-10.477 4.035-2.738 3.695-6.922.238-11.922.645 6.285-.969 3.879-2.551 9.344-2.902 5-.324 3.711-5 6.934-5.645-12.566 3.223-12.086-1.449-22.402 1.773 4.52-5.801 11.605-2.578 15.152-5.961-9.348-.164-13.523-6.262-17.727-3.703-6.605 4.027-3.703 15.496-20.945 14.496-8.379-.48-13.695.645-18.688 5.645 8.699-18.047 20.535-8.133 26.258-13.863 3.391-3.375 5.961-5.961 7.738-9.18.625-1.133 1.465-1.777 2.523-2.035-14.343-4.515-5.671-11.538 8.348-12.026z" fill="none" stroke="#000" stroke-width=".075"/><path d="M362.624 54.57c.215.449.332 1.039.332 1.77 0 3.539-5.316 3.703-5.637 8.938-.168 2.742-.488 4.273-2.34 3.949-1.852-.32-3.465-3.223-1.695-6.606" fill="#fff"/><path d="M362.624 54.57c.215.449.332 1.039.332 1.77 0 3.539-5.316 3.703-5.637 8.938-.168 2.742-.488 4.273-2.34 3.949-1.852-.32-3.465-3.223-1.695-6.606" fill="none" stroke="#000" stroke-width=".075" stroke-linecap="round"/><path d="M294.479 51.824c-1.336-.938-2.672-1.316-3.871-1.328" fill="#fff"/><path d="M294.479 51.824c-1.336-.938-2.672-1.316-3.871-1.328" fill="none" stroke="#000" stroke-width=".075"/><path d="M323.663 45.328c4.266 1.844 6.348 6.277 12.543 6.496 5.969.211 9.672 8.863 19.66 3.223.273-.152.531-.293.797-.43" fill="#fff"/><path d="M323.663 45.328c4.266 1.844 6.348 6.277 12.543 6.496 5.969.211 9.672 8.863 19.66 3.223.273-.152.531-.293.797-.43" fill="none" stroke="#000" stroke-width=".075"/><path d="M338.304 46.82c-.891 1.418-1.094 3.391-.848 5.125" fill="#fff"/><path d="M338.304 46.82c-.891 1.418-1.094 3.391-.848 5.125" fill="none" stroke="#000" stroke-width=".075"/><path d="M318.808 65.035c-7.578 0-9.504 3.871-9.504 7.574 0 3.711 3.543 8.539 9.82 8.539 6.289 0 9.672-3.867 9.672-8.059 0-4.183-3.867-8.054-9.988-8.054z" fill="#fff"/><path d="M318.808 65.035c-7.578 0-9.504 3.871-9.504 7.574 0 3.711 3.543 8.539 9.82 8.539 6.289 0 9.672-3.867 9.672-8.059 0-4.183-3.867-8.054-9.988-8.054z" fill="none" stroke="#000" stroke-width=".075"/><path d="M320.175 80.992c-.16-2.098-3.945-1.777-3.789-3.391.16-1.609 2.102-2.25 2.102-4.512 0-2.258 3.383-2.414 4.508-.637 1.129 1.77 4.512 5.234 5.238 3.461" fill="#fff"/><path d="M320.175 80.992c-.16-2.098-3.945-1.777-3.789-3.391.16-1.609 2.102-2.25 2.102-4.512 0-2.258 3.383-2.414 4.508-.637 1.129 1.77 4.512 5.234 5.238 3.461" fill="none" stroke="#000" stroke-width=".075"/><path d="M322.995 72.453c-1.773 1.77-2.574 5.391-.242 8.215" fill="#fff"/><path d="M322.995 72.453c-1.773 1.77-2.574 5.391-.242 8.215" fill="none" stroke="#000" stroke-width=".075"/><path d="M325.413 75.188c-.566 1.207-.727 3.066-.082 4.191" fill="#fff"/><path d="M325.413 75.188c-.566 1.207-.727 3.066-.082 4.191m30.176-10.113c5.914.488 6.926-6.043 2.496-6.441M348.21 51.66c-2.055-2.617-6.766-3.5-6.848 2.055" fill="none" stroke="#000" stroke-width=".075"/><path d="M340.8 60.043c-2.008-4.996-7.168-5.723-9.91-3.223-2.277 2.078-2.332 7.488 2.578 8.621 1.695-2.015 5-4.671 7.332-5.398z" fill="#fff"/><path d="M340.8 60.043c-2.008-4.996-7.168-5.723-9.91-3.223-2.277 2.078-2.332 7.488 2.578 8.621 1.695-2.015 5-4.671 7.332-5.398z" fill="none" stroke="#000" stroke-width=".075"/><path d="M338.581 56.899c-2.895-2.578-7.168 2.297-3.301 6.773" fill="#fff"/><path d="M338.581 56.899c-2.895-2.578-7.168 2.297-3.301 6.773" fill="none" stroke="#000" stroke-width=".075"/><path d="M348.21 51.66c-1.77-1.891-5.633-.398-4.551 3.426.844-1.77 2.66-3.262 4.551-3.426zM337.261 61.984c1.219-.891 2.48-1.617 3.539-1.941-.578-1.43-1.41-2.516-2.375-3.269-.93-.645-3.574 2.925-1.164 5.21z"/><path d="M332.507 55.453c-2.906-1.934-5.562-1.777-6.453-.164-2.094-.082-3.824 1.453-3.906 4.512m4.472 1.285c-3.461-2.371-8.215-1.488-7.895 3.828m-2.089 3.024c1.688-1.371 4.102-2.34 5.953.082m19.906-5.317c-.645.879-1.133 2.25-.082 4.351-1.289-1.695-4.516-1.695-7.977 2.816m15.707-7.413c-4.184.488-4.102 3.223-.727 4.438m-29.077-14.672c-3.547-.723-6.125 1.371-1.215 3.148m7.984-5.562c-5-1.207-7.016.082-4.754 1.207m-9.671 18.855c-.164 1.777.805 4.109 3.703 1.449m-2.735 3.868c0 .488-.082 1.051-.406 1.449M302.05 51.586c-3.059-.887-3.621-3.707-.082-3.465m-.965 9.988c-3.383-1.133-3.383-4.434-.562-4.109m6.851 2.414c-3.953-.961-4.117-3.703-1.133-3.301m1.606-5.082c-2.09-.152-5.309 2.184.09 3.555m5.796 1.125c-4.918-.723-4.836 1.289-1.934 2.578m5.637-7.258c-3.785-.719-5.074 1.543-2.496 2.504m-9.425 11.442c-.922-.766-1.688-4.438 2.738-3.344m6.449 2.219c-2.98-.809-5.805 2.094-3.062 3.781m7.003-7.246c-3.141-.566-5.797.316-4.102 1.441" fill="none" stroke="#000" stroke-width=".075" stroke-linecap="round"/><path d="M283.413 69.106c1.938-.465 4.781.488 9.129 2.543 2.738 1.285 10.957 4.027 16.113 1.285-5.316 1.93-9.348-6.129-13.375-5.16-4.027.973-11.398 2.457-14.5-.48 7.574.48 11.645-5.512 20.305-.32 2.414 1.445 5.48 2.414 8.219 2.254-7.094-8.539-16.438-3.059-17.406-9.988 4.27 4.59 14.703-1.047 20.02 7.566" fill="#fff"/><path d="M283.413 69.106c1.938-.465 4.781.488 9.129 2.543 2.738 1.285 10.957 4.027 16.113 1.285-5.316 1.93-9.348-6.129-13.375-5.16-4.027.973-11.398 2.457-14.5-.48 7.574.48 11.645-5.512 20.305-.32 2.414 1.445 5.48 2.414 8.219 2.254-7.094-8.539-16.438-3.059-17.406-9.988 4.27 4.59 14.703-1.047 20.02 7.566" fill="none" stroke="#000" stroke-width=".075"/><path d="M348.05 51.668c-1.777.324-3.363 1.371-4.391 3.418" fill="#fff"/><path d="M348.05 51.668c-1.777.324-3.363 1.371-4.391 3.418" fill="none" stroke="#000" stroke-width=".075"/><path d="M293.429 60.524c-.996-1.238-.543-2.481-1.613-3.457" fill="#fff"/><path d="M293.429 60.524c-.996-1.238-.543-2.481-1.613-3.457" fill="none" stroke="#000" stroke-width=".075"/></g></svg>