<svg xmlns="http://www.w3.org/2000/svg" viewBox="0 0 499.839 277.402"><path fill="#002395" d="M-.161-.375h500v277.777h-500z"/><path d="M310.112 260.902l15.488-47.734 15.477 47.734-40.531-29.5h50.105l-40.539 29.5z" fill="#fff"/><path d="M132.905-.375h277.258v277.777L132.905-.375z" fill="#fecb00"/><path d="M73.374-.375h19.238l5.863 18.223L82.987 6.566l-15.48 11.281L73.374-.375zM350.64 277.402l-15.438-11.277 19.16-.004 5.895-18.23 5.891 18.23 19.164.004-15.441 11.277H350.64zM27.167-22.426l15.48-47.742 15.484 47.742-40.534-29.511h50.101L27.167-22.426z" fill="#fff"/><path d="M74.323 24.797l15.48-47.742 15.488 47.742L64.756-4.707h50.106L74.323 24.797zM121.48 72.02l15.492-47.742 15.473 47.742-40.531-29.504h50.105L121.48 72.02zM168.643 119.238L184.124 71.5l15.484 47.738-40.535-29.504h50.105l-40.535 29.504zM215.796 166.461l15.488-47.738 15.477 47.738-40.531-29.504h50.105l-40.539 29.504zM262.956 213.684l15.484-47.738 15.48 47.738-40.53-29.504h50.105l-40.539 29.504z" fill="#fff"/></svg>