<svg xmlns="http://www.w3.org/2000/svg" viewBox="0 0 499.839 277.402"><path fill="#e03a3e" d="M499.839 277.402h-500v-27.757h500v27.757z"/><path fill="#003876" d="M499.839 249.645h-500V27.402h500v222.243z"/><path fill="#e03a3e" d="M499.839 27.402h-500V-.375h500v27.777z"/><path d="M249.839 231.512c51.004 0 92.344-41.641 92.344-93.004 0-51.367-41.34-93.008-92.344-93.008-50.992 0-92.34 41.641-92.34 93.008 0 51.363 41.348 93.004 92.34 93.004z" fill="#fff"/><path d="M233.37 96.598c.27.777-.121 1.891-.957 2.434-.828.551.422.355.719.379-.344.551-.59 1.211.082 1.262.332.023.684.309.68.844-.016.535.582.148.879-.262.293-.402 1.25-.148.754.387-.496.539-.992 1.105-.5 1.504.492.398.445 1.324-.047 1.828.652.691-1.066 1.957-.559 3.039a1.74 1.74 0 0 0 .656-.668c.309-.547.016.723.566 1.305.414-.438.91-.191.926.531.438-.293.727-.234 1.012.438.91-.574 1.57-.414 1.98.48 1.254-1.086 2.328-.934 2.875.074.609-1.02 1.141-1.09 1.922-.527-.25-.629.406-2.121 1.602-.375 1.199 1.742 4.363.23 5.633.226 1.762-.016 1.871 1.754 3.105 1.391-.195-.379.891-1.258.434-1.652 1.777 1.145 2.168.094 2.836.578.102-.668-.285-1.422.121-1.855.121.363.707.559 1.176.777-.211-1.023.914-1.543 1.348-1.836-.219.414.453.859.992 1.117-.141-.508-.043-1.219.059-1.539.406.5.84.641 1.242.746-.129-1.086-.062-1.836.719-1.738.059-.82-.875-1.211-1.223-1.492-.355-.281-.121-.871 1.406-.355-.211-1.879-4.238-1.512-4.414-2.641-.16-1.125 1.145-1.09 1.855-.644-.012-.789-3.07-1.742-3.297-2.621-.23-.875.633-.812 1.418-.422.199-.887-.621-1.953.242-2.387-.648-.266.281-1.125.934-.785.637.332 1.395-.613.562-1.285-.848-.676-2.223-1.215-1.383-1.898-.195-.309-.223-2.203 1.484-2.004-1.004-1.367-3.406-.871-3.945-1.199-.531-.328.48-1.223 1.145-1.098-.441-1.855-2.18-1.238-2.816-2.578-.633-1.348-2.746-1.578-3.859-1.273.027-.145.016-.398.172-.492-.68-.391-1.508.082-1.941.676-.445.59-.949.461-1.258.422-.238.645.649.762.445 1.16-.203.398-.848.477-.25 1.363.602.891-.344.777-.734.695-.387-.086-.649-.68-.406-1.09-.441-.137-.586-.598-.48-1.199-1.254-.402-1.559-.578-1.602-1.004-.035-.438-.754-.613-.957-.438-.211-.535-.816-.508-1.074-.316-.262.199-.953.43-1.34.098-.066.168-.184.625.047.758-.461.176-1.152-1.863-1.844-.723-.336.836-1.512 1.492-1.961 1.531.52.434.156 1.594-.527 1.719.656.227.68.801.164 1.121 1.539-.422 1.719.562 1.219 1.098-.496.535-3.355.309-3.633 1.793-.281 1.492-.848 2.445-1.449 2.938.293.094.824.066 1.016.008-.258.301-.414.906-.273 1.449.352-.223 1.098-.703 1.273-1.012-.113.312-.555 1.336-.223 1.559.895.09 1.793-1.453 2.023-1.953.488.684.539 1.68.105 2.285-.746 1.016-2.141-.816-2.902.16-.755.977-1.411.321-1.974 1.188z" fill="#008065"/><path d="M233.37 96.598c.27.777-.121 1.891-.957 2.434-.828.551.422.355.719.379-.344.551-.59 1.211.082 1.262.332.023.684.309.68.844-.016.535.582.148.879-.262.293-.402 1.25-.148.754.387-.496.539-.992 1.105-.5 1.504.492.398.445 1.324-.047 1.828.652.691-1.066 1.957-.559 3.039a1.74 1.74 0 0 0 .656-.668c.309-.547.016.723.566 1.305.414-.438.91-.191.926.531.438-.293.727-.234 1.012.438.91-.574 1.57-.414 1.98.48 1.254-1.086 2.328-.934 2.875.074.609-1.02 1.141-1.09 1.922-.527-.25-.629.406-2.121 1.602-.375 1.199 1.742 4.363.23 5.633.226 1.762-.016 1.871 1.754 3.105 1.391-.195-.379.891-1.258.434-1.652 1.777 1.145 2.168.094 2.836.578.102-.668-.285-1.422.121-1.855.121.363.707.559 1.176.777-.211-1.023.914-1.543 1.348-1.836-.219.414.453.859.992 1.117-.141-.508-.043-1.219.059-1.539.406.5.84.641 1.242.746-.129-1.086-.062-1.836.719-1.738.059-.82-.875-1.211-1.223-1.492-.355-.281-.121-.871 1.406-.355-.211-1.879-4.238-1.512-4.414-2.641-.16-1.125 1.145-1.09 1.855-.644-.012-.789-3.07-1.742-3.297-2.621-.23-.875.633-.812 1.418-.422.199-.887-.621-1.953.242-2.387-.648-.266.281-1.125.934-.785.637.332 1.395-.613.562-1.285-.848-.676-2.223-1.215-1.383-1.898-.195-.309-.223-2.203 1.484-2.004-1.004-1.367-3.406-.871-3.945-1.199-.531-.328.48-1.223 1.145-1.098-.441-1.855-2.18-1.238-2.816-2.578-.633-1.348-2.746-1.578-3.859-1.273.027-.145.016-.398.172-.492-.68-.391-1.508.082-1.941.676-.445.59-.949.461-1.258.422-.238.645.649.762.445 1.16-.203.398-.848.477-.25 1.363.602.891-.344.777-.734.695-.387-.086-.649-.68-.406-1.09-.441-.137-.586-.598-.48-1.199-1.254-.402-1.559-.578-1.602-1.004-.035-.438-.754-.613-.957-.438-.211-.535-.816-.508-1.074-.316-.262.199-.953.43-1.34.098-.066.168-.184.625.047.758-.461.176-1.152-1.863-1.844-.723-.336.836-1.512 1.492-1.961 1.531.52.434.156 1.594-.527 1.719.656.227.68.801.164 1.121 1.539-.422 1.719.562 1.219 1.098-.496.535-3.355.309-3.633 1.793-.281 1.492-.848 2.445-1.449 2.938.293.094.824.066 1.016.008-.258.301-.414.906-.273 1.449.352-.223 1.098-.703 1.273-1.012-.113.312-.555 1.336-.223 1.559.895.09 1.793-1.453 2.023-1.953.488.684.539 1.68.105 2.285-.746 1.016-2.141-.816-2.902.16-.755.977-1.411.321-1.974 1.188z" fill="none" stroke="#000" stroke-width=".082" stroke-miterlimit="2.5"/><path d="M245.936 124.559c.992-2.285 1.352-3.078 1.492-5.793.168-3.207.383-8.246-1.105-10.02-1.5-1.773.164-.742.734-.367.578.367.793-.516.816-1.219.02-.727.234-5.582-1.312-7.5.184-.559.922-.461 1.262-.285-.082-.766 1.016-.637.949-2.004.562 3.984.676 6.074.793 7.805.488-.348 1.789-1.43 2.125-2.121.344-.688.547-.598.789-.074.238.52-.113.562-.824 1.363-.707.805-2.023 1.734-2.207 2.723-.191.988-.086 1.5.758 1.605.844.105 2.426-.258 4.43-2.934.281-.371.926.039 1.399.324.48.293 1.203.57 2.328.305-.258.586-.699 1.121-1.566.875-.871-.254-1.32-.359-1.664-.531-.34-.176-.516.176-.676.805-.152.633-.941 1.625-2.273 2.035-.371.113.012.938-.145 2.289-.457 3.902.637 10.504 2.344 12.789l-8.447-.07z" fill="#996b38"/><path d="M245.936 124.559c.992-2.285 1.352-3.078 1.492-5.793.168-3.207.383-8.246-1.105-10.02-1.5-1.773.164-.742.734-.367.578.367.793-.516.816-1.219.02-.727.234-5.582-1.312-7.5.184-.559.922-.461 1.262-.285-.082-.766 1.016-.637.949-2.004.562 3.984.676 6.074.793 7.805.488-.348 1.789-1.43 2.125-2.121.344-.688.547-.598.789-.074.238.52-.113.562-.824 1.363-.707.805-2.023 1.734-2.207 2.723-.191.988-.086 1.5.758 1.605.844.105 2.426-.258 4.43-2.934.281-.371.926.039 1.399.324.48.293 1.203.57 2.328.305-.258.586-.699 1.121-1.566.875-.871-.254-1.32-.359-1.664-.531-.34-.176-.516.176-.676.805-.152.633-.941 1.625-2.273 2.035-.371.113.012.938-.145 2.289-.457 3.902.637 10.504 2.344 12.789l-8.447-.07z" fill="none" stroke="#000" stroke-width=".082" stroke-miterlimit="2.5"/><path d="M241.48 84.512c.285.375.965.324 1.461-.012.496-.344.496.074.602.188.101.117.902.301 1.48.176.574-.141.824.234.586.434-.242.191-.363.598-.328.797.059.363-.504.324-1-.164-.5-.488-.906-.184-1.184.07-.285.242-1.027-.551-1.477-.082-.445.469-.906-.125-.633-.441.27-.322.02-1.576.493-.966z" fill="#fff"/><path d="M241.48 84.512c.285.375.965.324 1.461-.012.496-.344.496.074.602.188.101.117.902.301 1.48.176.574-.141.824.234.586.434-.242.191-.363.598-.328.797.059.363-.504.324-1-.164-.5-.488-.906-.184-1.184.07-.285.242-1.027-.551-1.477-.082-.445.469-.906-.125-.633-.441.27-.322.02-1.576.493-.966z" fill="none" stroke="#000" stroke-width=".041" stroke-miterlimit="2.5"/><path d="M240.733 87.352c.387-.438 1.031-.488 1.234-.047.211.449-.398.328-.516.125-.104-.211-.925.152-.718-.078z" fill="#fff"/><path d="M240.733 87.352c.387-.438 1.031-.488 1.234-.047.211.449-.398.328-.516.125-.104-.211-.925.152-.718-.078z" fill="none" stroke="#000" stroke-width=".041" stroke-miterlimit="2.5"/><path d="M239.921 89.563c.285.613 1.289.07 1.527-.309.414.727 1.066-.004 1.352.434.281.43 1.762.203 1.895.805.137.609-.559 1.293-1.199.699-1.094-1.016-1.547.379-2.121-.113-.586-.492-1.426.352-1.719-.387-.195-.516-.98-.309-.562-1.066.217-.384.717-.302.827-.063z" fill="#fff"/><path d="M239.921 89.563c.285.613 1.289.07 1.527-.309.414.727 1.066-.004 1.352.434.281.43 1.762.203 1.895.805.137.609-.559 1.293-1.199.699-1.094-1.016-1.547.379-2.121-.113-.586-.492-1.426.352-1.719-.387-.195-.516-.98-.309-.562-1.066.217-.384.717-.302.827-.063z" fill="none" stroke="#000" stroke-width=".041" stroke-miterlimit="2.5"/><path d="M235.499 96.691c1.133-.461 1.481-.707 2.094-.371.598.332 1.387-.031 1.785.102.402.137-.441.742.457.863.883.121 1.164.754.051.68-1.125-.066-1.445.484-2.211-.004-.766-.492-1.34-.09-1.773.59-.43.684-1.102 1.531-1.066.672.035-.855.797-1.012.914-1.543.124-.528-.833-.742-.251-.989z" fill="#fff"/><path d="M235.499 96.691c1.133-.461 1.481-.707 2.094-.371.598.332 1.387-.031 1.785.102.402.137-.441.742.457.863.883.121 1.164.754.051.68-1.125-.066-1.445.484-2.211-.004-.766-.492-1.34-.09-1.773.59-.43.684-1.102 1.531-1.066.672.035-.855.797-1.012.914-1.543.124-.528-.833-.742-.251-.989z" fill="none" stroke="#000" stroke-width=".041" stroke-miterlimit="2.5"/><path d="M245.206 93.289c.379.094 1.441-.047 2.074-.191.141.117.508.395.746.508-1.406 1.16-1.523 1.613-1.074 1.996-.531-.113-1.18-.098-1.285.637-.043.312-.496.367-.324-.422.184-.797.227-1.086.574-1.234.351-.149.184-.555-.391-.672-.566-.122-.871-.751-.32-.622z" fill="#fff"/><path d="M245.206 93.289c.379.094 1.441-.047 2.074-.191.141.117.508.395.746.508-1.406 1.16-1.523 1.613-1.074 1.996-.531-.113-1.18-.098-1.285.637-.043.312-.496.367-.324-.422.184-.797.227-1.086.574-1.234.351-.149.184-.555-.391-.672-.566-.122-.871-.751-.32-.622z" fill="none" stroke="#000" stroke-width=".041" stroke-miterlimit="2.5"/><path d="M247.78 88.977c.324.094.773.207 1.465.152.703-.059 1.051.242.691.449-.352.207-.832.441-.691.879-.406-.074-.219-.715-.961-.77-.738-.062-1.207-.925-.504-.71z" fill="#fff"/><path d="M247.78 88.977c.324.094.773.207 1.465.152.703-.059 1.051.242.691.449-.352.207-.832.441-.691.879-.406-.074-.219-.715-.961-.77-.738-.062-1.207-.925-.504-.71z" fill="none" stroke="#000" stroke-width=".041" stroke-miterlimit="2.5"/><path d="M251.268 89.543c.211.52.274 1.648-.184 1.992-1.074.793.336.672.188 1.07.539-.355.586-1.121 1.215-.859.633.266.594-.383.531-.695-.07-.309.41-.82.867-.734-.84-.461-1.52-.395-1.941-1.012-.406-.621-.859-.235-.676.238z" fill="#fff"/><path d="M251.268 89.543c.211.52.274 1.648-.184 1.992-1.074.793.336.672.188 1.07.539-.355.586-1.121 1.215-.859.633.266.594-.383.531-.695-.07-.309.41-.82.867-.734-.84-.461-1.52-.395-1.941-1.012-.406-.621-.859-.235-.676.238z" fill="none" stroke="#000" stroke-width=".041" stroke-miterlimit="2.5"/><path d="M255.214 89.449c.117.836.91.613.883 1.145-.055.535-.828.438-.246 1.453.562-.457 1.289-1.047 1.84-.898.547.156.645-.125.547-.746-.094-.613-.816-.098-1.207-.773-.387-.68-.773-1.027-.996-.617-.216.413-.278.694-.821.436z" fill="#fff"/><path d="M255.214 89.449c.117.836.91.613.883 1.145-.055.535-.828.438-.246 1.453.562-.457 1.289-1.047 1.84-.898.547.156.645-.125.547-.746-.094-.613-.816-.098-1.207-.773-.387-.68-.773-1.027-.996-.617-.216.413-.278.694-.821.436z" fill="none" stroke="#000" stroke-width=".041" stroke-miterlimit="2.5"/><path d="M258.042 95.406c-.645-.012-1.215-.383-1.426-.938-.211-.555-.664-.512-.895-.031-.23.484-1.141 1.094-1.516 1.102.941.394 1.672-.297 2.25-.039.583.254 1.251.242 1.587-.094z" fill="#fff"/><path d="M258.042 95.406c-.645-.012-1.215-.383-1.426-.938-.211-.555-.664-.512-.895-.031-.23.484-1.141 1.094-1.516 1.102.941.394 1.672-.297 2.25-.039.583.254 1.251.242 1.587-.094z" fill="none" stroke="#000" stroke-width=".041" stroke-miterlimit="2.5"/><path d="M250.745 96.164c.902.426 2.426.516 3.227.363.801-.16 1.898.613 2.938.297-.832.473-1.117 1.199-.395 1.477-.129.637.41.93 1.23.957-.383.145-.727.586-.684 1.059-.223-.523-.852-1.039-1.242-.816-.09-.727-1.074-1.555-1.645-1.418.582-.207.441-.758-.117-.797-.559-.047-1.359.141-1.297.758.055.617-1.027.527-1.332-.211-.312-.742-2.012.309-1.312-.855.344-.591.86-.509.629-.814z" fill="#fff"/><path d="M250.745 96.164c.902.426 2.426.516 3.227.363.801-.16 1.898.613 2.938.297-.832.473-1.117 1.199-.395 1.477-.129.637.41.93 1.23.957-.383.145-.727.586-.684 1.059-.223-.523-.852-1.039-1.242-.816-.09-.727-1.074-1.555-1.645-1.418.582-.207.441-.758-.117-.797-.559-.047-1.359.141-1.297.758.055.617-1.027.527-1.332-.211-.312-.742-2.012.309-1.312-.855.344-.591.86-.509.629-.814z" fill="none" stroke="#000" stroke-width=".041" stroke-miterlimit="2.5"/><path d="M245.882 100.051c-1.504-1.23-2.949.844-3.559.113.234 1.559-1.676 1.844-1.172 2.672.23.371-.035.922-.363 1.191-.684.555 2.051 1.23 1.777.246-.516-1.871.668-1.633.5-2.328-.168-.695 1.574-.418 1.586-1.062.145.48-.852.758-.734 1.527.785-.804 2.418-.679 1.965-2.359z" fill="#fff"/><path d="M245.882 100.051c-1.504-1.23-2.949.844-3.559.113.234 1.559-1.676 1.844-1.172 2.672.23.371-.035.922-.363 1.191-.684.555 2.051 1.23 1.777.246-.516-1.871.668-1.633.5-2.328-.168-.695 1.574-.418 1.586-1.062.145.48-.852.758-.734 1.527.785-.804 2.418-.679 1.965-2.359z" fill="none" stroke="#000" stroke-width=".041" stroke-miterlimit="2.5"/><path d="M237.616 105.211c-.34.477-1.047.348-.957-.18.16-.957-1.105-.555-.625-1.02.488-.461 1.363-.641 1.488-1.102.059.973.648 1.121 1.219.992.578-.137.707.262.441.609-.465.566.055 1.074.828.812.77-.262 1.004.043 1.168.273-.477-.078-2.016.41-2.316-.039-.308-.45-1.031-.615-1.246-.345z" fill="#fff"/><path d="M237.616 105.211c-.34.477-1.047.348-.957-.18.16-.957-1.105-.555-.625-1.02.488-.461 1.363-.641 1.488-1.102.059.973.648 1.121 1.219.992.578-.137.707.262.441.609-.465.566.055 1.074.828.812.77-.262 1.004.043 1.168.273-.477-.078-2.016.41-2.316-.039-.308-.45-1.031-.615-1.246-.345z" fill="none" stroke="#000" stroke-width=".041" stroke-miterlimit="2.5"/><path d="M238.319 106.672c-.195.254-.41.816-.691 1.051-.277.227.301.457.828-.043.531-.5.164-1.422-.137-1.008z" fill="#fff"/><path d="M238.319 106.672c-.195.254-.41.816-.691 1.051-.277.227.301.457.828-.043.531-.5.164-1.422-.137-1.008z" fill="none" stroke="#000" stroke-width=".041" stroke-miterlimit="2.5"/><path d="M250.323 84.484c.312.453 1.23.418 1.668.145.414.445.957-.387 1.516.676.664 1.25 1.816.449 2.129.957-.098-.387.805-.68 1.629-.199-.598-.496-1.629-.457-1.957-.352-1.348.434-1.199-1.562-2.258-1.246-1.051.312-1.031-.605-1.316-.121-.29.472-1.098-.789-1.411.14z" fill="#fff"/><path d="M250.323 84.484c.312.453 1.23.418 1.668.145.414.445.957-.387 1.516.676.664 1.25 1.816.449 2.129.957-.098-.387.805-.68 1.629-.199-.598-.496-1.629-.457-1.957-.352-1.348.434-1.199-1.562-2.258-1.246-1.051.312-1.031-.605-1.316-.121-.29.472-1.098-.789-1.411.14z" fill="none" stroke="#000" stroke-width=".041" stroke-miterlimit="2.5"/><path d="M252.897 104.332c.273-.133.641-.488.691-.668.859-.047 1.809-.582 2.215-.945.406-.355 1.523.629 2.106.309.586-.309.656.746 1.156.527.895-.398 1.504.797 2.637.242-.895.43-1.215.621-1.285 1.008-.391-.211-.746.012-.836.617-.914.176-.996-1.012-1.848-.723-.852.293-1.27-1.723-2.48-.797-1.441 1.105-2.129.797-2.25 1.402.168-.316-.047-.792-.106-.972z" fill="#fff"/><path d="M252.897 104.332c.273-.133.641-.488.691-.668.859-.047 1.809-.582 2.215-.945.406-.355 1.523.629 2.106.309.586-.309.656.746 1.156.527.895-.398 1.504.797 2.637.242-.895.43-1.215.621-1.285 1.008-.391-.211-.746.012-.836.617-.914.176-.996-1.012-1.848-.723-.852.293-1.27-1.723-2.48-.797-1.441 1.105-2.129.797-2.25 1.402.168-.316-.047-.792-.106-.972z" fill="none" stroke="#000" stroke-width=".041" stroke-miterlimit="2.5"/><path d="M241.89 93.356c-.191 1.777 1.191 1.891.723 2.887-.328.723 0 1.57.977 1.766.883.176 1.469-.57.805-1.16.027-1.605-1.141-.195-1.101-1.086.037-.896-1.682-1.779-1.404-2.407z" fill="#fff"/><path d="M241.89 93.356c-.191 1.777 1.191 1.891.723 2.887-.328.723 0 1.57.977 1.766.883.176 1.469-.57.805-1.16.027-1.605-1.141-.195-1.101-1.086.037-.896-1.682-1.779-1.404-2.407z" fill="none" stroke="#000" stroke-width=".041" stroke-miterlimit="2.5"/><path d="M245.608 105.547c-.887-.207-1.312.367-.594 1.211-.007-.324-.117-1.262.594-1.211z" fill="#fff"/><path d="M245.608 105.547c-.887-.207-1.312.367-.594 1.211-.007-.324-.117-1.262.594-1.211z" fill="none" stroke="#000" stroke-width=".041" stroke-miterlimit="2.5"/><path d="M241.331 106.899c.316-1.082 1.051-.891 1.113.121 0-.391-.726-.7-1.113-.121z" fill="#fff"/><path d="M241.331 106.899c.316-1.082 1.051-.891 1.113.121 0-.391-.726-.7-1.113-.121z" fill="none" stroke="#000" stroke-width=".041" stroke-miterlimit="2.5"/><path d="M246.792 124.77c.562-1.5 1.703-4.574 1.625-6.859m.148-3.505c0-1.355-.289-4.074-.5-4.93m2.696 15.008c-.281-.93-.992-3.074-1.203-4.359m1.769 3.285c-.566-1.5-1.203-8.074-1.133-10.434m1.067-2.421c-.082 1.633-.082 5.93.141 7.43" fill="none" stroke="#000" stroke-width=".082" stroke-miterlimit="2.5"/><path d="M270.03 124.34v26.152c0 10.719-10.098 21.719-20.191 24.867-10.098-3.148-20.191-14.148-20.191-24.867V124.34h40.382z" fill="#fff"/><path d="M270.03 124.34v26.152c0 10.719-10.098 21.719-20.191 24.867-10.098-3.148-20.191-14.148-20.191-24.867V124.34h40.382z" fill="none" stroke="#000" stroke-width=".082" stroke-miterlimit="2.5"/><path d="M270.03 124.34v26.152c0 2.898-.738 5.816-2.004 8.586l-18.188-15.734V124.34h20.192z" fill="#ffe26d"/><path d="M270.03 124.34v26.152c0 2.898-.738 5.816-2.004 8.586l-18.188-15.734V124.34h20.192z" fill="none" stroke="#000" stroke-width=".082" stroke-miterlimit="2.5"/><path d="M249.839 175.359c7.367-2.297 14.742-8.777 18.188-16.281l-18.188-15.734-18.184 15.734c3.446 7.504 10.809 13.984 18.184 16.281z" fill="#003876"/><path d="M249.839 175.359c7.367-2.297 14.742-8.777 18.188-16.281l-18.188-15.734-18.184 15.734c3.446 7.504 10.809 13.984 18.184 16.281z" fill="none" stroke="#000" stroke-width=".082" stroke-miterlimit="2.5"/><path fill="#fff" d="M256.483 157.508l3.328-1.227"/><path fill="none" stroke="#000" stroke-width=".082" stroke-linecap="round" stroke-miterlimit="2.5" d="M256.483 157.508l3.328-1.227"/><path fill="#fff" d="M249.866 150.922v-2.86"/><path fill="none" stroke="#000" stroke-width=".082" stroke-linecap="round" stroke-miterlimit="2.5" d="M249.866 150.922v-2.86"/><path fill="#fff" d="M245.503 152.023v-2.457"/><path fill="none" stroke="#000" stroke-width=".082" stroke-linecap="round" stroke-miterlimit="2.5" d="M245.503 152.023v-2.457"/><path fill="#fff" d="M254.909 150.762v-2.469"/><path fill="none" stroke="#000" stroke-width=".082" stroke-linecap="round" stroke-miterlimit="2.5" d="M254.909 150.762v-2.469"/><path fill="#fff" d="M253.058 150.816l-2.032 1.391"/><path fill="none" stroke="#000" stroke-width=".082" stroke-linecap="round" stroke-miterlimit="2.5" d="M253.058 150.816l-2.032 1.391"/><path fill="#fff" d="M252.659 152.996l-1.633 2.035"/><path fill="none" stroke="#000" stroke-width=".082" stroke-linecap="round" stroke-miterlimit="2.5" d="M252.659 152.996l-1.633 2.035"/><path fill="#fff" d="M252.265 155.633l-1.672 2.324"/><path fill="none" stroke="#000" stroke-width=".082" stroke-linecap="round" stroke-miterlimit="2.5" d="M252.265 155.633l-1.672 2.324"/><path d="M259.655 156.332c.25.574-.469 1.723.047 2.824-.633.391-.523.965-1.031 1.281-.871-1.359-.527-2.688-1.016-3.371l2-.734z" fill="#fff"/><path d="M259.655 156.332c.25.574-.469 1.723.047 2.824-.633.391-.523.965-1.031 1.281-.871-1.359-.527-2.688-1.016-3.371l2-.734z" fill="none" stroke="#000" stroke-width=".082" stroke-miterlimit="2.5"/><path d="M247.261 151.41c-1 .172-2.492.594-3.211.859-.223.484-.488 1.309-.41 1.781.852-.297 2.551-.785 3.445-1.008-.008-.284.023-1.179.176-1.632z" fill="#fff"/><path d="M247.261 151.41c-1 .172-2.492.594-3.211.859-.223.484-.488 1.309-.41 1.781.852-.297 2.551-.785 3.445-1.008-.008-.284.023-1.179.176-1.632z" fill="none" stroke="#000" stroke-width=".082" stroke-miterlimit="2.5"/><path d="M247.085 153.043c-1 .176-2.934.707-3.543 1.016-.309.617-.418 1.984-.34 2.777.883-.184 2.695-.836 3.539-.945-.062-.579.043-2.293.344-2.848z" fill="#fff"/><path d="M247.085 153.043c-1 .176-2.934.707-3.543 1.016-.309.617-.418 1.984-.34 2.777.883-.184 2.695-.836 3.539-.945-.062-.579.043-2.293.344-2.848z" fill="none" stroke="#000" stroke-width=".082" stroke-miterlimit="2.5"/><path d="M246.741 155.891c-.969.176-2.977.621-3.633.852-.434.785-.684 2.215-.543 3.004.871-.25 3.195-.566 4.031-.754-.109-.571-.253-2.286.145-3.102z" fill="#fff"/><path d="M246.741 155.891c-.969.176-2.977.621-3.633.852-.434.785-.684 2.215-.543 3.004.871-.25 3.195-.566 4.031-.754-.109-.571-.253-2.286.145-3.102z" fill="none" stroke="#000" stroke-width=".082" stroke-miterlimit="2.5"/><path d="M246.636 158.945c-1.309.191-3.074.441-4.07.801-.434.789-.469 1.965-.324 2.75 1.27-.145 2.906.18 4.027-.031-.11-.574-.036-2.699.367-3.52z" fill="#fff"/><path d="M246.636 158.945c-1.309.191-3.074.441-4.07.801-.434.789-.469 1.965-.324 2.75 1.27-.145 2.906.18 4.027-.031-.11-.574-.036-2.699.367-3.52z" fill="none" stroke="#000" stroke-width=".082" stroke-miterlimit="2.5"/><path d="M251.827 150.492c-.988.074-2.879.445-3.863.637-.332.469-.406 1.215-.434 1.934.977-.117 3.176-.137 3.934-.18-.004-.746.101-1.676.363-2.391z" fill="#fff"/><path d="M251.827 150.492c-.988.074-2.879.445-3.863.637-.332.469-.406 1.215-.434 1.934.977-.117 3.176-.137 3.934-.18-.004-.746.101-1.676.363-2.391z" fill="none" stroke="#000" stroke-width=".082" stroke-miterlimit="2.5"/><path d="M251.499 152.809c-.977.082-2.992.062-3.969.254-.41.676-.473 1.859-.473 2.828.984-.121 3.523-.426 4.281-.465-.159-.86.017-1.754.161-2.617z" fill="#fff"/><path d="M251.499 152.809c-.977.082-2.992.062-3.969.254-.41.676-.473 1.859-.473 2.828.984-.121 3.523-.426 4.281-.465-.159-.86.017-1.754.161-2.617z" fill="none" stroke="#000" stroke-width=".082" stroke-miterlimit="2.5"/><path d="M251.374 155.352c-.941.078-3.367.348-4.316.539-.387.676-.34 2.105-.336 3.07 1.121-.293 3.16-.492 4.5-.785-.153-.852.019-1.965.152-2.824z" fill="#fff"/><path d="M251.374 155.352c-.941.078-3.367.348-4.316.539-.387.676-.34 2.105-.336 3.07 1.121-.293 3.16-.492 4.5-.785-.153-.852.019-1.965.152-2.824z" fill="none" stroke="#000" stroke-width=".082" stroke-miterlimit="2.5"/><path d="M251.272 158.176c-.941.078-3.43.492-4.367.68-.391.68-.391 2.461-.344 3.641 1.27-.215 3.758.258 5.094-.035-.332-1.177-.515-3.431-.383-4.286z" fill="#fff"/><path d="M251.272 158.176c-.941.078-3.43.492-4.367.68-.391.68-.391 2.461-.344 3.641 1.27-.215 3.758.258 5.094-.035-.332-1.177-.515-3.431-.383-4.286z" fill="none" stroke="#000" stroke-width=".082" stroke-miterlimit="2.5"/><path d="M256.87 150.492c-.992.07-2.75-.039-3.973.105-.344.461-.496 1.078-.531 1.789.988-.109 3.355 0 4.117-.035 0-.749.121-1.144.387-1.859z" fill="#fff"/><path d="M256.87 150.492c-.992.07-2.75-.039-3.973.105-.344.461-.496 1.078-.531 1.789.988-.109 3.355 0 4.117-.035 0-.749.121-1.144.387-1.859z" fill="none" stroke="#000" stroke-width=".082" stroke-miterlimit="2.5"/><path d="M256.569 152.277c-.996.074-2.988-.035-4.203.109-.348.855-.504 1.895-.504 2.891.992-.105 4.051-.105 4.816-.141-.23-1.07-.378-2.14-.109-2.859z" fill="#fff"/><path d="M256.569 152.277c-.996.074-2.988-.035-4.203.109-.348.855-.504 1.895-.504 2.891.992-.105 4.051-.105 4.816-.141-.23-1.07-.378-2.14-.109-2.859z" fill="none" stroke="#000" stroke-width=".082" stroke-miterlimit="2.5"/><path d="M256.714 155.102c-.992.07-3.516 0-4.738.145-.375 1.07-.531 2.281-.266 3.539.996-.109 4.359-.184 5.117-.223-.223-1.071-.414-2.356-.113-3.461z" fill="#fff"/><path d="M256.714 155.102c-.992.07-3.516 0-4.738.145-.375 1.07-.531 2.281-.266 3.539.996-.109 4.359-.184 5.117-.223-.223-1.071-.414-2.356-.113-3.461z" fill="none" stroke="#000" stroke-width=".082" stroke-miterlimit="2.5"/><path d="M256.87 158.562c-.992.078-3.934.078-5.16.223-.266 1.32-.078 2.426.188 3.68 1.832-.074 4.797.07 5.555.031-.454-1.074-.657-2.574-.583-3.934z" fill="#fff"/><path d="M256.87 158.562c-.992.078-3.934.078-5.16.223-.266 1.32-.078 2.426.188 3.68 1.832-.074 4.797.07 5.555.031-.454-1.074-.657-2.574-.583-3.934z" fill="none" stroke="#000" stroke-width=".082" stroke-miterlimit="2.5"/><path d="M245.503 149.711c-.922.641-1.48.012-2.191.441-.512.301-1.07.711-.984 1.145.727-.359.641.055 1.258-.289.617-.336.977.449 1.918-.102v-1.195h-.001z" fill="#fff"/><path d="M245.503 149.711c-.922.641-1.48.012-2.191.441-.512.301-1.07.711-.984 1.145.727-.359.641.055 1.258-.289.617-.336.977.449 1.918-.102v-1.195h-.001z" fill="none" stroke="#000" stroke-width=".082" stroke-miterlimit="2.5"/><path d="M249.866 148.184c-.395.664-2.363-.262-3.164.613-.016.234.047 1.035-.023 1.301.805-.875 2.793.289 3.188-.375v-1.539h-.001z" fill="#fff"/><path d="M249.866 148.184c-.395.664-2.363-.262-3.164.613-.016.234.047 1.035-.023 1.301.805-.875 2.793.289 3.188-.375v-1.539h-.001z" fill="none" stroke="#000" stroke-width=".082" stroke-miterlimit="2.5"/><path d="M254.909 148.926c-.707-.918-2.703.496-3.465-.348-.164.469.895 1.73 1.504 1.465.68-.285 1.488-.395 1.961.109v-1.226z" fill="#fff"/><path d="M254.909 148.926c-.707-.918-2.703.496-3.465-.348-.164.469.895 1.73 1.504 1.465.68-.285 1.488-.395 1.961.109v-1.226z" fill="none" stroke="#000" stroke-width=".082" stroke-miterlimit="2.5"/><path d="M243.948 152.707c-2.801 3.359-6.145 6.574-8.895 8.359 2.648-.531 6.168.469 7.188 1.43-1.234-1.351-.801-7.144 1.707-9.789z" fill="#fff"/><path d="M243.948 152.707c-2.801 3.359-6.145 6.574-8.895 8.359 2.648-.531 6.168.469 7.188 1.43-1.234-1.351-.801-7.144 1.707-9.789z" fill="none" stroke="#000" stroke-width=".082" stroke-miterlimit="2.5"/><path d="M260.018 164.781c.73-.43.391-1.465 1.703-2.43-.43.145-1.098.219-2.941.219h-15.605c-2.77 0-6.102-.859-8.164-1.504 1.137.715 4.008 2.023 4.965 3.789 1.246 2.286 7.597 7.286 20.042-.074z" stroke="#000" stroke-width=".082" stroke-miterlimit="2.5"/><path d="M235.128 164.73c3.859 4.973 9.281 8.938 14.711 10.629 5.449-1.695 10.852-5.656 14.719-10.652-1.082.797-4.082.652-4.938.023-1.082.797-4.047.629-4.902 0-1.078.797-4.039.629-4.895 0-1.09.797-4.051.629-4.902 0-1.086.797-4.043.629-4.902 0-1.083.797-4.043.637-4.891 0z" fill="#078fc7"/><path d="M235.128 164.73c3.859 4.973 9.281 8.938 14.711 10.629 5.449-1.695 10.852-5.656 14.719-10.652-1.082.797-4.082.652-4.938.023-1.082.797-4.047.629-4.902 0-1.078.797-4.039.629-4.895 0-1.09.797-4.051.629-4.902 0-1.086.797-4.043.629-4.902 0-1.083.797-4.043.637-4.891 0z" fill="none" stroke="#000" stroke-width=".082" stroke-miterlimit="2.5"/><path d="M261.808 167.387c-1.211.156-2.668-.047-3.215-.473-1.035.801-3.848.629-4.66 0-1.027.801-3.84.629-4.648 0-1.035.801-3.848.629-4.66 0-1.027.801-3.836.629-4.648 0-.449.344-1.234.516-2.047.535m19.034 3.844c-1.098.055-2.277-.152-2.762-.527-1.031.793-3.836.633-4.652 0-1.027.793-3.844.633-4.652 0-.477.367-1.328.527-2.184.539" fill="none" stroke="#ffe26d" stroke-width=".082" stroke-miterlimit="2.5"/><path d="M262.585 166.25c-1.141.09-2.418-.113-2.914-.5-1.039.793-3.848.629-4.656 0-1.027.793-3.844.629-4.656 0-1.031.793-3.84.629-4.656 0-1.027.793-3.84.629-4.648 0-.895.68-3.105.66-4.215.234m23.788 2.614c-.527-.09-.98-.238-1.234-.43-1.031.789-3.84.625-4.652 0-1.027.789-3.84.625-4.652 0-1.031.789-3.844.625-4.652 0-1.031.789-3.844.625-4.652 0-.387.293-1.023.461-1.711.516m16.471 3.597a1.798 1.798 0 0 1-.531-.266c-1.027.793-3.844.629-4.656 0-1.031.793-3.84.629-4.656 0-.301.234-.762.387-1.285.469" fill="none" stroke="#008065" stroke-width=".082" stroke-miterlimit="2.5"/><path d="M268.905 143.234c-2.551-2.164-2.598-5.324-7.266-10.41-1.664-1.812-3.613-4.598-5.758-7.203-.328-.398-1.938.582-1.59 1.07 2.211 2.77 3.723 4.109 6.293 8.051 2.578 3.938 2.488 6.727 6.051 10.918.516.59 3.106-1.722 2.27-2.426z" fill="#996b38"/><path d="M268.905 143.234c-2.551-2.164-2.598-5.324-7.266-10.41-1.664-1.812-3.613-4.598-5.758-7.203-.328-.398-1.938.582-1.59 1.07 2.211 2.77 3.723 4.109 6.293 8.051 2.578 3.938 2.488 6.727 6.051 10.918.516.59 3.106-1.722 2.27-2.426z" fill="none" stroke="#000" stroke-width=".082" stroke-miterlimit="2.5"/><path d="M256.944 130.617c-.43.672-1.473 2.75-1.695 3.867-1.84-.906-4.113-2.598-4.91-4.754 1.082-.273 3.066-1.035 4.074-2.098.602.552 2.129 2.356 2.531 2.985z" fill="#fff"/><path d="M256.944 130.617c-.43.672-1.473 2.75-1.695 3.867-1.84-.906-4.113-2.598-4.91-4.754 1.082-.273 3.066-1.035 4.074-2.098.602.552 2.129 2.356 2.531 2.985z" fill="none" stroke="#000" stroke-width=".082" stroke-miterlimit="2.5"/><path d="M256.925 130.715c.242.234.562 0 .711-.098-.098-.105-.195-.195-.254-.277-.312-.379 1.027-1.496 1.215-1.262.082.109.211.289.32.395.305-.293.422-.516.02-.996-.367-.438-1.531-1.871-1.938-2.367-.223-.262-.383-.285-.742-.211-.492.09-1.336.773-1.652 1.156-.238.289-.379.488-.176.715.515.558 1.668 1.996 2.496 2.945z" fill="#fff"/><path d="M256.925 130.715c.242.234.562 0 .711-.098-.098-.105-.195-.195-.254-.277-.312-.379 1.027-1.496 1.215-1.262.082.109.211.289.32.395.305-.293.422-.516.02-.996-.367-.438-1.531-1.871-1.938-2.367-.223-.262-.383-.285-.742-.211-.492.09-1.336.773-1.652 1.156-.238.289-.379.488-.176.715.515.558 1.668 1.996 2.496 2.945z" fill="none" stroke="#000" stroke-width=".082" stroke-miterlimit="2.5"/><path d="M253.011 140.324c-1.023-1.023-1.621-1.809-2.137-1.285-.516.527.262 1.113 1.277 2.145l.86-.86z" fill="#996b38"/><path d="M253.011 140.324c-1.023-1.023-1.621-1.809-2.137-1.285-.516.527.262 1.113 1.277 2.145l.86-.86z" fill="none" stroke="#000" stroke-width=".082" stroke-miterlimit="2.5"/><path d="M266.483 126.746c-1.02-1.027-1.613-1.805-2.129-1.285s.254 1.117 1.277 2.141l.852-.856z" fill="#996b38"/><path d="M266.483 126.746c-1.02-1.027-1.613-1.805-2.129-1.285s.254 1.117 1.277 2.141l.852-.856z" fill="none" stroke="#000" stroke-width=".082" stroke-miterlimit="2.5"/><path d="M254.026 143.199l-2.129-2.141 14.508-14.609 2.129 2.145c-2.519 4.683-9.543 11.824-14.508 14.605z" fill="#fff"/><path d="M254.026 143.199l-2.129-2.141 14.508-14.609 2.129 2.145c-2.519 4.683-9.543 11.824-14.508 14.605z" fill="none" stroke="#000" stroke-width=".082" stroke-miterlimit="2.5"/><path d="M245.839 142.832c.547.16 1.113.734 1.297.309.137-.309 0-.711-.988-1.273-1.312-.75-3.371-3.531-5.414-5.93-1.539-1.812-4.02-5.012-6.34-7.961-1.762-2.246-2.789-1.434-3.262-1.031-.484.398-1.344 1.41.73 3.375 2.715 2.578 5.668 5.344 7.32 7.047 2.191 2.258 4.637 4.527 5.262 5.906.473 1.043.867 1.336 1.148 1.148.488-.324.047-.633-.164-1.254-.05-.156.13-.434.411-.336z" fill="#996b38"/><path d="M245.839 142.832c.547.16 1.113.734 1.297.309.137-.309 0-.711-.988-1.273-1.312-.75-3.371-3.531-5.414-5.93-1.539-1.812-4.02-5.012-6.34-7.961-1.762-2.246-2.789-1.434-3.262-1.031-.484.398-1.344 1.41.73 3.375 2.715 2.578 5.668 5.344 7.32 7.047 2.191 2.258 4.637 4.527 5.262 5.906.473 1.043.867 1.336 1.148 1.148.488-.324.047-.633-.164-1.254-.05-.156.13-.434.411-.336z" fill="none" stroke="#000" stroke-width=".082" stroke-miterlimit="2.5"/><path d="M241.921 130.547c-.562-.566-.344-1.703.48-2.539.824-.828 1.957-1.051 2.52-.477l3.844 3.875c.57.566.352 1.703-.477 2.539-.82.828-1.953 1.051-2.516.48l-3.851-3.878z" fill="#fff"/><path d="M241.921 130.547c-.562-.566-.344-1.703.48-2.539.824-.828 1.957-1.051 2.52-.477l3.844 3.875c.57.566.352 1.703-.477 2.539-.82.828-1.953 1.051-2.516.48l-3.851-3.878z" fill="none" stroke="#000" stroke-width=".082" stroke-miterlimit="2.5"/><path d="M245.772 134.426c.562.57 1.695.348 2.516-.48.828-.836 1.047-1.973.477-2.539-.562-.57-1.688-.352-2.52.48-.824.832-1.035 1.972-.473 2.539z" fill="#fff"/><path d="M245.772 134.426c.562.57 1.695.348 2.516-.48.828-.836 1.047-1.973.477-2.539-.562-.57-1.688-.352-2.52.48-.824.832-1.035 1.972-.473 2.539z" fill="none" stroke="#000" stroke-width=".082" stroke-miterlimit="2.5"/><path d="M244.476 132.879c-3.586 3.609-5.707 6.402-8.734 9.457-1.766 1.781-3.242 2.488-3.934 1.793-.688-.688.016-2.172 1.789-3.961 3.027-3.051 5.797-5.172 9.383-8.793.304-.309 1.785 1.207 1.496 1.504z" fill="#996b38"/><path d="M244.476 132.879c-3.586 3.609-5.707 6.402-8.734 9.457-1.766 1.781-3.242 2.488-3.934 1.793-.688-.688.016-2.172 1.789-3.961 3.027-3.051 5.797-5.172 9.383-8.793.304-.309 1.785 1.207 1.496 1.504z" fill="none" stroke="#000" stroke-width=".082" stroke-miterlimit="2.5"/><path d="M258.14 89.531c-1.355 2.18 1.594 4.195 5.965 6.918 4.383 2.723 32.012 17.895 33.836 19.059 1.824 1.164 3.434 1.949 3.828 2.727.402.77.227 1.18 1.801 1.738a.554.554 0 0 0 .488-.992c-.832-.332-1.148-.68-.895-1.164.258-.48.766-.309 1.434.301.461.43 1.332-.223.668-.883-1.195-1.18-1.48-.844-2.34-.863-.867-.016-2.285-1.129-4.117-2.266-1.836-1.141-27.527-19.461-31.871-22.219-4.36-2.758-7.477-4.492-8.797-2.356z" fill="#cd7418"/><path d="M258.14 89.531c-1.355 2.18 1.594 4.195 5.965 6.918 4.383 2.723 32.012 17.895 33.836 19.059 1.824 1.164 3.434 1.949 3.828 2.727.402.77.227 1.18 1.801 1.738a.554.554 0 0 0 .488-.992c-.832-.332-1.148-.68-.895-1.164.258-.48.766-.309 1.434.301.461.43 1.332-.223.668-.883-1.195-1.18-1.48-.844-2.34-.863-.867-.016-2.285-1.129-4.117-2.266-1.836-1.141-27.527-19.461-31.871-22.219-4.36-2.758-7.477-4.492-8.797-2.356zm4.16 5.035c4.375 2.719 31.867 18.156 33.691 19.312M262.8 93.723c4.297 2.836 31.516 18.766 33.305 19.969" fill="none" stroke="#000" stroke-width=".082" stroke-miterlimit="2.5"/><path d="M285.772 170.105c.066 1.109-.496 1.539-.352 2.289.141.746.562.996.812 1.859.246.852 1.207.738 1.594.461.09-.066.164-.141.227-.219.969.488 1.469.055 1.48-.477.141.18.492.336.852.191.18-.074.246-.281.297-.438.527 0 .656-.129.766-.484.027-.102.043-.246.02-.398 1.133.109.793-1.219.297-1.605-.496-.391-.918-.676-1.027-1.211-1.122-.878-3.677-.612-4.966.032z" fill="#996b38"/><path d="M285.772 170.105c.066 1.109-.496 1.539-.352 2.289.141.746.562.996.812 1.859.246.852 1.207.738 1.594.461.09-.066.164-.141.227-.219.969.488 1.469.055 1.48-.477.141.18.492.336.852.191.18-.074.246-.281.297-.438.527 0 .656-.129.766-.484.027-.102.043-.246.02-.398 1.133.109.793-1.219.297-1.605-.496-.391-.918-.676-1.027-1.211-1.122-.878-3.677-.612-4.966.032z" fill="none" stroke="#000" stroke-width=".082" stroke-miterlimit="2.5"/><path d="M271.862 166.535c-.879.211-1.051 1.59-2.941 1.41-.742-.074-1.473.383-2.461.5-.465.051-.48.621-.09.91.168.82.637.855 2.238.824.527.281 1.668.355 2.48 0 .816-.359 3.012-.289 4.289.18 1.281.461 1.773-.57 1.668-1.145-.102-.574-.301-1.125.02-1.734-1.097-.566-4.437-1.183-5.203-.945z" fill="#996b38"/><path d="M271.862 166.535c-.879.211-1.051 1.59-2.941 1.41-.742-.074-1.473.383-2.461.5-.465.051-.48.621-.09.91.168.82.637.855 2.238.824.527.281 1.668.355 2.48 0 .816-.359 3.012-.289 4.289.18 1.281.461 1.773-.57 1.668-1.145-.102-.574-.301-1.125.02-1.734-1.097-.566-4.437-1.183-5.203-.945z" fill="none" stroke="#000" stroke-width=".082" stroke-miterlimit="2.5"/><path d="M259.964 124.344c-.105-.484 1.312-.734 1.508-.773.762-.137 1.516-.547 1.879-.75.91-.473 1.773-.52 2.492-.156.703.359 1.746.441 2.512.605.852.18 2.344.43 3.422.949-.34-3.406.363-4.844.875-5.664.527-.863.637-1.855.602-3.934-.039-2.066 1.738-2.965 2.691-3.574.477-.297.832-.473 1.258-.578.223-.48.797-1.027 1.898-1.672 1.105-.637.746-1.57.711-2.891-5.461-4.719 3.797-10.539 6.348-6.145.039.645.68 1.355.637 1.75-.035.398-.176.785-.387 1.039-.211.25-.035.711.148 1.324.172.602-.078 1.707-.465 2.316-.395.609-.609 1-.746 1.57a1.44 1.44 0 0 1-.926 1.035c-.098.039-.23.066-.406.066 0 .23 0 .434-.004.605-.031.645.84 1.555 1.66 1.594.652-.012 1.258.117 1.621.383 1.105.781 1.824.449 2.418 1.176 1.383 1.715 1.879 2.613 1.84 4.856 1.242 1.215 2.457 2.473 2.414 5.148.605-1.465 1.277-1.355 1.742-2.465a1.4 1.4 0 0 1 .777-.75 1.418 1.418 0 0 1-.07-.719c-.812-.707-.32-1.32-.672-1.961-.363-.641-.141-1.25.027-1.57.176-.324.324-.457.609-.789.391-.445 1.027-.121 1.047.399.008.254 0 .266-.07.426.191.078.922.551 1.223.68.176.156 1.559.926 2.266 1.477.141 1.043-.348 3.023-.883 3.488-.535.465-1.242 1.605-1.352 2.285a5.25 5.25 0 0 1-.883 2.211 12.637 12.637 0 0 1-1.918 2.184c-.598.539-.703.68-1.383.68-.668 0-1.242-.176-1.844-.82-.602-.641-.637-1.289-1.168-1.711-.527-.434-2.113-1.773-2.625-3.289-.066.156-.125.301-.262.426-.039.566.113 1.246-.555 1.535 0 .535.074 2.398-.016 3.449-1.758.41-9.168.199-11.297-.52-.074-1.289-.148-2.859-.359-3.57-.281 1.004-1.277 1.781-1.629 2.855-.355 1.074-.711 1.934-1.633 1.934-.859 0-2.082-1.07-3.004-1.453v-2.691h-4.109c-.578.285-1.316.047-1.598.168-.359.172-1.027.258-1.414.078-.148-.066-.211-.16-.211-.246h-2.736z" fill="#996b38"/><path d="M259.964 124.344c-.105-.484 1.312-.734 1.508-.773.762-.137 1.516-.547 1.879-.75.91-.473 1.773-.52 2.492-.156.703.359 1.746.441 2.512.605.852.18 2.344.43 3.422.949-.34-3.406.363-4.844.875-5.664.527-.863.637-1.855.602-3.934-.039-2.066 1.738-2.965 2.691-3.574.477-.297.832-.473 1.258-.578.223-.48.797-1.027 1.898-1.672 1.105-.637.746-1.57.711-2.891-5.461-4.719 3.797-10.539 6.348-6.145.039.645.68 1.355.637 1.75-.035.398-.176.785-.387 1.039-.211.25-.035.711.148 1.324.172.602-.078 1.707-.465 2.316-.395.609-.609 1-.746 1.57a1.44 1.44 0 0 1-.926 1.035c-.098.039-.23.066-.406.066 0 .23 0 .434-.004.605-.031.645.84 1.555 1.66 1.594.652-.012 1.258.117 1.621.383 1.105.781 1.824.449 2.418 1.176 1.383 1.715 1.879 2.613 1.84 4.856 1.242 1.215 2.457 2.473 2.414 5.148.605-1.465 1.277-1.355 1.742-2.465a1.4 1.4 0 0 1 .777-.75 1.418 1.418 0 0 1-.07-.719c-.812-.707-.32-1.32-.672-1.961-.363-.641-.141-1.25.027-1.57.176-.324.324-.457.609-.789.391-.445 1.027-.121 1.047.399.008.254 0 .266-.07.426.191.078.922.551 1.223.68.176.156 1.559.926 2.266 1.477.141 1.043-.348 3.023-.883 3.488-.535.465-1.242 1.605-1.352 2.285a5.25 5.25 0 0 1-.883 2.211 12.637 12.637 0 0 1-1.918 2.184c-.598.539-.703.68-1.383.68-.668 0-1.242-.176-1.844-.82-.602-.641-.637-1.289-1.168-1.711-.527-.434-2.113-1.773-2.625-3.289-.066.156-.125.301-.262.426-.039.566.113 1.246-.555 1.535 0 .535.074 2.398-.016 3.449-1.758.41-9.168.199-11.297-.52-.074-1.289-.148-2.859-.359-3.57-.281 1.004-1.277 1.781-1.629 2.855-.355 1.074-.711 1.934-1.633 1.934-.859 0-2.082-1.07-3.004-1.453v-2.691h-4.109c-.578.285-1.316.047-1.598.168-.359.172-1.027.258-1.414.078-.148-.066-.211-.16-.211-.246h-2.736z" fill="none" stroke="#000" stroke-width=".082" stroke-miterlimit="2.5"/><path d="M281.745 142.5c-.219 1.785-1.953 4.887-2.254 5.492-.961 1.93.191 1.703-.418 2.219-.605.496.461.316-.645 1.492.184 2.898.285 7.145.422 9.441.148 2.277-.422 5.137-.422 6.781-2.625-.641-5.039-1.707-7.59-1.281-.066-3.434 1.199-2.438 1.418-6.504.211-4.074.711-9.648.285-13.434.496-5.574 1.703-12.328 3.832-17.113 2.156.211 11.066.715 12.199.316 1.633 4.793 2.559 11.008 2.129 16.438-.371 4.777-.367 7.68-.164 9.32 1.215 2.793 1.332 5.305 1.441 13.328-.992 1.078-1.984 1.574-3.051 2.078-1.637-.293-3.332-1-4.188-1.434 0-2.855-.223-4.215-.066-5.434.316-2.52-.758-6.055-.332-10.359.123-1.834-1.951-4.885-2.596-11.346z" fill="#fff"/><path d="M281.745 142.5c-.219 1.785-1.953 4.887-2.254 5.492-.961 1.93.191 1.703-.418 2.219-.605.496.461.316-.645 1.492.184 2.898.285 7.145.422 9.441.148 2.277-.422 5.137-.422 6.781-2.625-.641-5.039-1.707-7.59-1.281-.066-3.434 1.199-2.438 1.418-6.504.211-4.074.711-9.648.285-13.434.496-5.574 1.703-12.328 3.832-17.113 2.156.211 11.066.715 12.199.316 1.633 4.793 2.559 11.008 2.129 16.438-.371 4.777-.367 7.68-.164 9.32 1.215 2.793 1.332 5.305 1.441 13.328-.992 1.078-1.984 1.574-3.051 2.078-1.637-.293-3.332-1-4.188-1.434 0-2.855-.223-4.215-.066-5.434.316-2.52-.758-6.055-.332-10.359.123-1.834-1.951-4.885-2.596-11.346z" fill="none" stroke="#000" stroke-width=".082" stroke-miterlimit="2.5"/><path d="M279.847 101.445c-.031.625 0 1.324.316 2.016-.473-.742-1.238-.508-1.418.086-.16.539.285 1.641 1.066 2.359.109.391.141.43.109 1.176-.781-.07-.773-.816-1.594-1.281-.328-.184-.25-1.465-.746-1.82-.504-.363-.285-1.18-.145-1.539.145-.363.145-.895-.109-1.289-.25-.395.027-2.402 1.066-2.75.957-.32 1.59-1.316 2.52-1.211.637.066 2.551-.789 3.191-.285.637.492 1.203.207 1.734.75.535.535.902.848 1.141 1.496.141.395.441 1.449-.297 1.875-.328-.445-.375-.16-.484.023-.105.176-.324.426-1.07.031-.742-.391-1.133-.641-1.629-.25-.492.395-1.383.613-1.844.219-.457-.398-.848.102-1.133-.039-.28-.145-.635.215-.674.433z" stroke="#000" stroke-width=".082"/><path d="M286.202 102.25c-1.035-.312-1.223.137-1.711-.008-.367-.102-.035.719.082 1.223.086.426.113.488.449.668.242.129.25.086.055-.102-.402-.383-.457-1.105-.191-.902.234.184.723.195.848.07a.464.464 0 0 1 .359-.172c.105-.004.188-.297-.125-.34-.316-.039-.691-.039-.801-.055-.105-.012-.215-.066.016-.082.238-.027.629.078.855.051.215-.019.441-.269.164-.351zM283.331 102.223c-.434-.484-1.234-.035-1.684-.098-.449-.074-.703.055-.211.195.496.137 1.086 0 1.371.09.278.078.7.016.524-.187zM283.12 102.981c-.23.102-.203.391-.203.602 0 .168-.23.234-.355.109s-.402-.164-.582-.32c-.105-.101-.199-.394-.465-.394s-.406.074-.355-.109c.055-.18.305-.234.566-.27.27-.031.73-.125.996-.031.262.09.371.059.547-.016.195-.095.062.347-.149.429zM282.847 105.418c-.262-.012-.348-.141-.098-.145.223-.008.594-.098.609-.383.016-.238.113-.285.137-.074.027.215.234.32.352.344.203.059.637.113.875-.254.125.129.242.156.387.066.168-.109.199.031.066.137a.405.405 0 0 1-.434.066c-.121.23-.371.324-.637.336-.34.012-.641-.086-.762-.301-.093.173-.277.224-.495.208zM282.796 106.781c.316 0 .605.207.812.34.34.211.699.16.902-.039.203-.188.441-.316.59-.391.145-.07-.184-.195-.453-.043-.266.145-.645.152-.84.078-.207-.07-.57-.148-.77-.051.227-.129.516-.203.691-.18.18.02.363.062.523-.008.156-.078.578.086.754.105.184.027.359-.07.113-.133a3.469 3.469 0 0 1-.621-.23c-.102-.062-.281-.035-.359.016-.078.051-.133.008-.23-.035-.102-.047-.32-.043-.508.043-.246.109-.375.211-.52.293-.16.094-.168-.141-.23.059-.089.282.056.176.146.176z"/><path d="M301.147 115.535c.387-.125.727-.051.727.715.004.758-.797 1.289-1.215 1.477-.215.102-.688.152-.711-.645.363-.23 1.117-.965 1.199-1.547z" fill="#996b38"/><path d="M301.147 115.535c.387-.125.727-.051.727.715.004.758-.797 1.289-1.215 1.477-.215.102-.688.152-.711-.645.363-.23 1.117-.965 1.199-1.547z" fill="none" stroke="#000" stroke-width=".082" stroke-miterlimit="2.5"/><path d="M300.401 114.676c.418-.066.75-.074.832.688.07.762-.805 1.422-1.152 1.723-.297.266-1.098.074-.734-.77.339-.251 1.019-1.051 1.054-1.641z" fill="#996b38"/><path d="M300.401 114.676c.418-.066.75-.074.832.688.07.762-.805 1.422-1.152 1.723-.297.266-1.098.074-.734-.77.339-.251 1.019-1.051 1.054-1.641z" fill="none" stroke="#000" stroke-width=".082" stroke-miterlimit="2.5"/><path d="M299.628 113.961c.406-.109.738-.141.887.605.145.754-.594 1.379-.875 1.734-.195.246-.988.48-.922-.602.32-.288.922-1.151.91-1.737z" fill="#996b38"/><path d="M299.628 113.961c.406-.109.738-.141.887.605.145.754-.594 1.379-.875 1.734-.195.246-.988.48-.922-.602.32-.288.922-1.151.91-1.737z" fill="none" stroke="#000" stroke-width=".082" stroke-miterlimit="2.5"/><path d="M299.518 113.496c.367.356.332.863-.055 1.481-.387.629-.855 1.273-1.453 1.09-.605-.18-.172-.871.059-1.105.227-.23.527-.82.539-1l-.371-.246c.25-.255.766-.716 1.281-.22z" fill="#996b38"/><path d="M299.518 113.496c.367.356.332.863-.055 1.481-.387.629-.855 1.273-1.453 1.09-.605-.18-.172-.871.059-1.105.227-.23.527-.82.539-1l-.371-.246c.25-.255.766-.716 1.281-.22z" fill="none" stroke="#000" stroke-width=".082" stroke-miterlimit="2.5"/><path d="M276.198 117.231c.242 1.07.312 2 .027 2.645-.281.645-.457 1.715-.457 2.355 0 .648-.285 2.859-1.734 3.609.352-.141 1.523-.75 1.203-.281.637-1 1.027-1.461 1.062-1.859.074.539.246 1.141.211 1.43.148-1.719.281-2.75.281-3.934 0-1.176-.027-2.391.043-2.75-.21-.286-.636-.922-.636-1.215z"/><path d="M283.89 128.855c0 1.988.25 1.859-1.773 1.859-1.984 0-1.785.148-1.785-1.906 0-1.949-.18-1.754 1.965-1.754 1.807.001 1.593-.179 1.593 1.801z" fill="#ffe26d"/><path d="M283.89 128.855c0 1.988.25 1.859-1.773 1.859-1.984 0-1.785.148-1.785-1.906 0-1.949-.18-1.754 1.965-1.754 1.807.001 1.593-.179 1.593 1.801z" fill="none" stroke="#000" stroke-width=".082" stroke-miterlimit="2.5"/><path d="M283.901 127.77c1.484.145 3.18.098 3.992-.07.789-.16.828.254.895 1.27.055.816.156 1.141-.742 1.23-1.141.113-3.332.02-4.145.055v-2.485z" fill="#996b38"/><path d="M283.901 127.77c1.484.145 3.18.098 3.992-.07.789-.16.828.254.895 1.27.055.816.156 1.141-.742 1.23-1.141.113-3.332.02-4.145.055v-2.485z" fill="none" stroke="#000" stroke-width=".082" stroke-miterlimit="2.5"/><path d="M280.331 127.664c-1.062 0-3.035-.395-3.566-.535-.539-.145-.516.156-.66 1.234-.137 1.07.094 1.336.84 1.441.738.105 2.645.285 3.387.219v-2.359h-.001z" fill="#996b38"/><path d="M280.331 127.664c-1.062 0-3.035-.395-3.566-.535-.539-.145-.516.156-.66 1.234-.137 1.07.094 1.336.84 1.441.738.105 2.645.285 3.387.219v-2.359h-.001z" fill="none" stroke="#000" stroke-width=".082" stroke-miterlimit="2.5"/><path d="M283.374 128.871c0 1.438.152 1.27-1.258 1.27-1.395 0-1.219.168-1.219-1.27 0-1.367-.266-1.258 1.238-1.258 1.266 0 1.239-.136 1.239 1.258z" fill="#996b38"/><path d="M283.374 128.871c0 1.438.152 1.27-1.258 1.27-1.395 0-1.219.168-1.219-1.27 0-1.367-.266-1.258 1.238-1.258 1.266 0 1.239-.136 1.239 1.258z" fill="none" stroke="#000" stroke-width=".082" stroke-miterlimit="2.5"/><path d="M288.538 128.934c.062.5.09.551-.652.555-.621 0-.75.105-.75-.395s.141-.449.605-.449c.461 0 .742-.145.797.289z" fill="#ffe26d"/><path d="M288.538 128.934c.062.5.09.551-.652.555-.621 0-.75.105-.75-.395s.141-.449.605-.449c.461 0 .742-.145.797.289z" fill="none" stroke="#000" stroke-width=".082" stroke-miterlimit="2.5"/><path d="M286.354 129.059c0 .535-.223.441-.672.441-.438 0-.852.074-.852-.367 0-.449 0-.508.84-.508.653 0 .684.02.684.434z" fill="#ffe26d"/><path d="M286.354 129.059c0 .535-.223.441-.672.441-.438 0-.852.074-.852-.367 0-.449 0-.508.84-.508.653 0 .684.02.684.434z" fill="none" stroke="#000" stroke-width=".082" stroke-miterlimit="2.5"/><path d="M278.061 128.754c0 .445-.523.391-.875.34-.352-.059-.656-.125-.602-.594.059-.461.371-.242.711-.18.317.075.766-.082.766.434z" fill="#ffe26d"/><path d="M278.061 128.754c0 .445-.523.391-.875.34-.352-.059-.656-.125-.602-.594.059-.461.371-.242.711-.18.317.075.766-.082.766.434z" fill="none" stroke="#000" stroke-width=".082" stroke-miterlimit="2.5"/><path d="M280.061 128.879c0 .531-.23.445-.672.445-.449 0-.777.07-.777-.375 0-.449.102-.504.758-.504s.691.024.691.434z" fill="#ffe26d"/><path d="M280.061 128.879c0 .531-.23.445-.672.445-.449 0-.777.07-.777-.375 0-.449.102-.504.758-.504s.691.024.691.434z" fill="none" stroke="#000" stroke-width=".082" stroke-miterlimit="2.5"/><path d="M249.839 214.668c41.758 0 75.621-34.094 75.621-76.16 0-42.059-33.863-76.16-75.621-76.16-41.762 0-75.613 34.102-75.613 76.16 0 42.066 33.851 76.16 75.613 76.16zm0-76.16" fill="none" stroke="#008065" stroke-width=".327"/><path d="M259.413 62.953c-4.375-1.344-3.289-13.379-19.086-12.484 8.336 2.523 6.16 11.629 19.086 12.484z" fill="#008065"/><path d="M259.413 62.953c-4.375-1.344-3.289-13.379-19.086-12.484 8.336 2.523 6.16 11.629 19.086 12.484z" fill="none" stroke="#000" stroke-width=".082"/><path d="M259.413 62.953c-4.551.484-5.719 12.516-21.066 8.648 8.652-.902 8.214-10.257 21.066-8.648z" fill="#008065"/><path d="M259.413 62.953c-4.551.484-5.719 12.516-21.066 8.648 8.652-.902 8.214-10.257 21.066-8.648z" fill="none" stroke="#000" stroke-width=".082"/><path d="M240.452 62.922c-4.562-.191-6.477-12.133-21.562-7.301 8.695.352 8.84 9.719 21.562 7.301z" fill="#008065"/><path d="M240.452 62.922c-4.562-.191-6.477-12.133-21.562-7.301 8.695.352 8.84 9.719 21.562 7.301z" fill="none" stroke="#000" stroke-width=".082"/><path d="M240.452 62.922c-4.277 1.613-2.445 13.562-18.266 13.664 8.161-3.043 5.419-11.996 18.266-13.664z" fill="#008065"/><path d="M240.452 62.922c-4.277 1.613-2.445 13.562-18.266 13.664 8.161-3.043 5.419-11.996 18.266-13.664z" fill="none" stroke="#000" stroke-width=".082"/><path d="M222.089 67.649c-4.473.953-9.281-10.125-22.691-1.672 8.507-1.832 10.957 7.199 22.691 1.672z" fill="#008065"/><path d="M222.089 67.649c-4.473.953-9.281-10.125-22.691-1.672 8.507-1.832 10.957 7.199 22.691 1.672z" fill="none" stroke="#000" stroke-width=".082"/><path d="M222.089 67.649c-3.754 2.637.977 13.75-14.328 17.809 7.164-4.993 2.293-12.977 14.328-17.809z" fill="#008065"/><path d="M222.089 67.649c-3.754 2.637.977 13.75-14.328 17.809 7.164-4.993 2.293-12.977 14.328-17.809z" fill="none" stroke="#000" stroke-width=".082"/><path d="M205.472 76.828c-4.105 2.043-11.496-7.488-22.395 4.059 7.789-3.91 12.391 4.23 22.395-4.059z" fill="#008065"/><path d="M205.472 76.828c-4.105 2.043-11.496-7.488-22.395 4.059 7.789-3.91 12.391 4.23 22.395-4.059z" fill="none" stroke="#000" stroke-width=".082"/><path d="M205.472 76.828c-2.992 3.488 4.34 13.07-9.48 20.836 5.698-6.629-.985-13.148 9.48-20.836z" fill="#008065"/><path d="M205.472 76.828c-2.992 3.488 4.34 13.07-9.48 20.836 5.698-6.629-.985-13.148 9.48-20.836z" fill="none" stroke="#000" stroke-width=".082"/><path d="M191.628 89.879c-3.457 3.008-12.969-4.375-20.684 9.543 6.582-5.742 13.047.992 20.684-9.543z" fill="#008065"/><path d="M191.628 89.879c-3.457 3.008-12.969-4.375-20.684 9.543 6.582-5.742 13.047.992 20.684-9.543z" fill="none" stroke="#000" stroke-width=".082"/><path d="M191.628 89.879c-2.02 4.133 7.434 11.578-4.031 22.555 3.883-7.852-4.196-12.489 4.031-22.555z" fill="#008065"/><path d="M191.628 89.879c-2.02 4.133 7.434 11.578-4.031 22.555 3.883-7.852-4.196-12.489 4.031-22.555z" fill="none" stroke="#000" stroke-width=".082"/><path d="M181.456 105.992c-2.617 3.773-13.652-.988-17.68 14.422 4.954-7.211 12.887-2.312 17.68-14.422z" fill="#008065"/><path d="M181.456 105.992c-2.617 3.773-13.652-.988-17.68 14.422 4.954-7.211 12.887-2.312 17.68-14.422z" fill="none" stroke="#000" stroke-width=".082"/><path d="M181.456 105.992c-.949 4.5 10.059 9.344 1.656 22.852 1.828-8.57-7.144-11.039-1.656-22.852z" fill="#008065"/><path d="M181.456 105.992c-.949 4.5 10.059 9.344 1.656 22.852 1.828-8.57-7.144-11.039-1.656-22.852z" fill="none" stroke="#000" stroke-width=".082"/><path d="M175.577 124.141c-1.602 4.312-13.461 2.461-13.566 18.395 3.019-8.224 11.91-5.458 13.566-18.395z" fill="#008065"/><path d="M175.577 124.141c-1.602 4.312-13.461 2.461-13.566 18.395 3.019-8.224 11.91-5.458 13.566-18.395z" fill="none" stroke="#000" stroke-width=".082"/><path d="M175.577 124.141c.195 4.598 12.047 6.535 7.246 21.719-.347-8.758-9.648-8.903-7.246-21.719z" fill="#008065"/><path d="M175.577 124.141c.195 4.598 12.047 6.535 7.246 21.719-.347-8.758-9.648-8.903-7.246-21.719z" fill="none" stroke="#000" stroke-width=".082"/><path d="M174.362 143.195c-.488 4.574-12.43 5.758-8.598 21.219.903-8.723 10.184-8.277 8.598-21.219z" fill="#008065"/><path d="M174.362 143.195c-.488 4.574-12.43 5.758-8.598 21.219.903-8.723 10.184-8.277 8.598-21.219z" fill="none" stroke="#000" stroke-width=".082"/><path d="M174.362 143.195c1.324 4.41 13.277 3.312 12.383 19.219-2.5-8.394-11.543-6.207-12.383-19.219z" fill="#008065"/><path d="M174.362 143.195c1.324 4.41 13.277 3.312 12.383 19.219-2.5-8.394-11.543-6.207-12.383-19.219z" fill="none" stroke="#000" stroke-width=".082"/><path d="M177.89 161.953c.656 4.551-10.621 8.688-3.086 22.703-1.282-8.672 7.824-10.562 3.086-22.703z" fill="#008065"/><path d="M177.89 161.953c.656 4.551-10.621 8.688-3.086 22.703-1.282-8.672 7.824-10.562 3.086-22.703z" fill="none" stroke="#000" stroke-width=".082"/><path d="M177.89 161.953c2.375 3.938 13.684-.121 16.742 15.512-4.496-7.504-12.711-3.113-16.742-15.512z" fill="#008065"/><path d="M177.89 161.953c2.375 3.938 13.684-.121 16.742 15.512-4.496-7.504-12.711-3.113-16.742-15.512z" fill="none" stroke="#000" stroke-width=".082"/><path d="M185.94 179.238c1.762 4.25-8.141 11.074 2.613 22.766-3.382-8.078 4.973-12.192-2.613-22.766z" fill="#008065"/><path d="M185.94 179.238c1.762 4.25-8.141 11.074 2.613 22.766-3.382-8.078 4.973-12.192-2.613-22.766z" fill="none" stroke="#000" stroke-width=".082"/><path d="M185.94 179.238c3.27 3.215 13.223-3.539 20.047 10.836-6.207-6.144-13.094.16-20.047-10.836z" fill="#008065"/><path d="M185.94 179.238c3.27 3.215 13.223-3.539 20.047 10.836-6.207-6.144-13.094.16-20.047-10.836z" fill="none" stroke="#000" stroke-width=".082"/><path d="M198.003 193.965c2.758 3.672-5.145 12.766 8.152 21.395-5.269-6.977 1.813-13.055-8.152-21.395z" fill="#008065"/><path d="M198.003 193.965c2.758 3.672-5.145 12.766 8.152 21.395-5.269-6.977 1.813-13.055-8.152-21.395z" fill="none" stroke="#000" stroke-width=".082"/><path d="M198.003 193.965c3.961 2.297 11.934-6.742 22.094 5.473-7.532-4.399-12.629 3.437-22.094-5.473z" fill="#008065"/><path d="M198.003 193.965c3.961 2.297 11.934-6.742 22.094 5.473-7.532-4.399-12.629 3.437-22.094-5.473z" fill="none" stroke="#000" stroke-width=".082"/><path d="M213.323 205.207c3.582 2.863-1.832 13.656 13.176 18.68-6.82-5.442-1.469-13.102-13.176-18.68z" fill="#008065"/><path d="M213.323 205.207c3.582 2.863-1.832 13.656 13.176 18.68-6.82-5.442-1.469-13.102-13.176-18.68z" fill="none" stroke="#000" stroke-width=".082"/><path d="M213.323 205.207c4.41 1.234 9.895-9.52 22.754-.234-8.379-2.375-11.391 6.492-22.754.234z" fill="#008065"/><path d="M213.323 205.207c4.41 1.234 9.895-9.52 22.754-.234-8.379-2.375-11.391 6.492-22.754.234z" fill="none" stroke="#000" stroke-width=".082"/><path d="M230.944 212.254c4.168 1.883 1.594 13.691 17.371 14.797-7.953-3.563-4.656-12.317-17.371-14.797z" fill="#008065"/><path d="M230.944 212.254c4.168 1.883 1.594 13.691 17.371 14.797-7.953-3.563-4.656-12.317-17.371-14.797z" fill="none" stroke="#000" stroke-width=".082"/><path d="M230.944 212.254c4.566.094 7.227-11.699 21.973-5.918-8.699-.203-9.426 9.137-21.973 5.918z" fill="#008065"/><path d="M230.944 212.254c4.566.094 7.227-11.699 21.973-5.918-8.699-.203-9.426 9.137-21.973 5.918z" fill="none" stroke="#000" stroke-width=".082"/><path d="M249.749 214.672c4.504.773 4.918 12.859 20.48 9.977-8.589-1.454-7.562-10.762-20.48-9.977z" fill="#008065"/><path d="M249.749 214.672c4.504.773 4.918 12.859 20.48 9.977-8.589-1.454-7.562-10.762-20.48-9.977z" fill="none" stroke="#000" stroke-width=".082"/><path d="M249.749 214.672c4.449-1.055 4.113-13.141 19.82-11.242-8.476 1.984-6.875 11.215-19.82 11.242z" fill="#008065"/><path d="M249.749 214.672c4.449-1.055 4.113-13.141 19.82-11.242-8.476 1.984-6.875 11.215-19.82 11.242z" fill="none" stroke="#000" stroke-width=".082"/><path d="M268.55 212.305c4.562-.383 7.953 11.219 22.309 4.531-8.673.742-9.977-8.531-22.309-4.531z" fill="#008065"/><path d="M268.55 212.305c4.562-.383 7.953 11.219 22.309 4.531-8.673.742-9.977-8.531-22.309-4.531z" fill="none" stroke="#000" stroke-width=".082"/><path d="M268.55 212.305c4.051-2.141.742-13.762 16.43-15.859-7.719 4.05-3.891 12.585-16.43 15.859z" fill="#008065"/><path d="M268.55 212.305c4.051-2.141.742-13.762 16.43-15.859-7.719 4.05-3.891 12.585-16.43 15.859z" fill="none" stroke="#000" stroke-width=".082"/><path d="M286.186 205.301c4.32-1.512 10.469 8.875 22.727-1.199-8.223 2.89-11.773-5.77-22.727 1.199z" fill="#008065"/><path d="M286.186 205.301c4.32-1.512 10.469 8.875 22.727-1.199-8.223 2.89-11.773-5.77-22.727 1.199z" fill="none" stroke="#000" stroke-width=".082"/><path d="M286.186 205.301c3.398-3.086-2.68-13.516 11.996-19.473-6.476 5.852-.66 13.164-11.996 19.473z" fill="#008065"/><path d="M286.186 205.301c3.398-3.086-2.68-13.516 11.996-19.473-6.476 5.852-.66 13.164-11.996 19.473z" fill="none" stroke="#000" stroke-width=".082"/><path d="M301.534 194.098c3.816-2.547 12.332 5.977 21.715-6.855-7.242 4.859-12.82-2.638-21.715 6.855z" fill="#008065"/><path d="M301.534 194.098c3.816-2.547 12.332 5.977 21.715-6.855-7.242 4.859-12.82-2.638-21.715 6.855z" fill="none" stroke="#000" stroke-width=".082"/><path d="M301.534 194.098c2.523-3.844-5.93-12.418 6.812-21.871-4.828 7.3 2.614 12.925-6.812 21.871z" fill="#008065"/><path d="M301.534 194.098c2.523-3.844-5.93-12.418 6.812-21.871-4.828 7.3 2.614 12.925-6.812 21.871z" fill="none" stroke="#000" stroke-width=".082"/><path d="M313.64 179.402c3.062-3.418 13.414 2.703 19.332-12.074-5.813 6.524-13.067.656-19.332 12.074z" fill="#008065"/><path d="M313.64 179.402c3.062-3.418 13.414 2.703 19.332-12.074-5.813 6.524-13.067.656-19.332 12.074z" fill="none" stroke="#000" stroke-width=".082"/><path d="M313.64 179.402c1.496-4.355-8.812-10.543 1.191-22.887-2.871 8.27 5.723 11.86-1.191 22.887z" fill="#008065"/><path d="M313.64 179.402c1.496-4.355-8.812-10.543 1.191-22.887-2.871 8.27 5.723 11.86-1.191 22.887z" fill="none" stroke="#000" stroke-width=".082"/><path d="M321.733 162.137c2.121-4.082 13.66-.746 15.746-16.547-4.023 7.777-12.5 3.918-15.746 16.547z" fill="#008065"/><path d="M321.733 162.137c2.121-4.082 13.66-.746 15.746-16.547-4.023 7.777-12.5 3.918-15.746 16.547z" fill="none" stroke="#000" stroke-width=".082"/><path d="M321.733 162.137c.367-4.59-11.141-8.008-4.492-22.469-.742 8.738 8.465 10.055 4.492 22.469z" fill="#008065"/><path d="M321.733 162.137c.367-4.59-11.141-8.008-4.492-22.469-.742 8.738 8.465 10.055 4.492 22.469z" fill="none" stroke="#000" stroke-width=".082"/><path d="M325.311 143.387c1.043-4.48 13.047-4.141 11.16-19.969-1.968 8.543-11.136 6.926-11.16 19.969z" fill="#008065"/><path d="M325.311 143.387c1.043-4.48 13.047-4.141 11.16-19.969-1.968 8.543-11.136 6.926-11.16 19.969z" fill="none" stroke="#000" stroke-width=".082"/><path d="M325.311 143.387c-.773-4.535-12.773-4.969-9.895-20.633 1.427 8.644 10.673 7.613 9.895 20.633z" fill="#008065"/><path d="M325.311 143.387c-.773-4.535-12.773-4.969-9.895-20.633 1.427 8.644 10.673 7.613 9.895 20.633z" fill="none" stroke="#000" stroke-width=".082"/><path d="M324.14 124.332c-.09-4.609 11.613-7.281 5.883-22.141.203 8.766-9.075 9.497-5.883 22.141z" fill="#008065"/><path d="M324.14 124.332c-.09-4.609 11.613-7.281 5.883-22.141.203 8.766-9.075 9.497-5.883 22.141z" fill="none" stroke="#000" stroke-width=".082"/><path d="M324.14 124.332c-1.863-4.207-13.586-1.609-14.68-17.512 3.527 8.016 12.226 4.7 14.68 17.512z" fill="#008065"/><path d="M324.14 124.332c-1.863-4.207-13.586-1.609-14.68-17.512 3.527 8.016 12.226 4.7 14.68 17.512z" fill="none" stroke="#000" stroke-width=".082"/><path d="M318.304 106.164c-1.219-4.438 9.453-9.961.246-22.918 2.34 8.442-6.457 11.473-.246 22.918z" fill="#008065"/><path d="M318.304 106.164c-1.219-4.438 9.453-9.961.246-22.918 2.34 8.442-6.457 11.473-.246 22.918z" fill="none" stroke="#000" stroke-width=".082"/><path d="M318.304 106.164c-2.84-3.606-13.562 1.848-18.539-13.277 5.394 6.879 13 1.488 18.539 13.277z" fill="#008065"/><path d="M318.304 106.164c-2.84-3.606-13.562 1.848-18.539-13.277 5.394 6.879 13 1.488 18.539 13.277z" fill="none" stroke="#000" stroke-width=".082"/><path d="M308.167 90.031c-2.281-3.992 6.699-12.016-5.422-22.258 4.356 7.59-3.422 12.727 5.422 22.258z" fill="#008065"/><path d="M308.167 90.031c-2.281-3.992 6.699-12.016-5.422-22.258 4.356 7.59-3.422 12.727 5.422 22.258z" fill="none" stroke="#000" stroke-width=".082"/><path d="M308.167 90.031c-3.648-2.781-12.676 5.184-21.238-8.219 6.922 5.309 12.964-1.812 21.238 8.219z" fill="#008065"/><path d="M308.167 90.031c-3.648-2.781-12.676 5.184-21.238-8.219 6.922 5.309 12.964-1.812 21.238 8.219z" fill="none" stroke="#000" stroke-width=".082"/><path d="M294.366 76.945c-3.195-3.297 3.52-13.316-10.75-20.199 6.102 6.258-.172 13.184 10.75 20.199z" fill="#008065"/><path d="M294.366 76.945c-3.195-3.297 3.52-13.316-10.75-20.199 6.102 6.258-.172 13.184 10.75 20.199z" fill="none" stroke="#000" stroke-width=".082"/><path d="M294.366 76.945c-4.219-1.777-10.996 8.195-22.598-2.641 8.016 3.407 12.106-4.999 22.598 2.641z" fill="#008065"/><path d="M294.366 76.945c-4.219-1.777-10.996 8.195-22.598-2.641 8.016 3.407 12.106-4.999 22.598 2.641z" fill="none" stroke="#000" stroke-width=".082"/><path d="M277.768 67.723c-3.906-2.395.125-13.781-15.398-16.863 7.453 4.523 3.094 12.8 15.398 16.863z" fill="#008065"/><path d="M277.768 67.723c-3.906-2.395.125-13.781-15.398-16.863 7.453 4.523 3.094 12.8 15.398 16.863z" fill="none" stroke="#000" stroke-width=".082"/><path d="M277.768 67.723c-4.523-.664-8.633 10.695-22.539 3.105 8.606 1.289 10.489-7.879 22.539-3.105z" fill="#008065"/><path d="M277.768 67.723c-4.523-.664-8.633 10.695-22.539 3.105 8.606 1.289 10.489-7.879 22.539-3.105z" fill="none" stroke="#000" stroke-width=".082"/><path d="M213.905 170.105c-.07 1.109.496 1.539.355 2.289-.145.746-.562.996-.816 1.859-.25.852-1.207.738-1.594.461a1.19 1.19 0 0 1-.223-.219c-.965.488-1.477.055-1.477-.477a.76.76 0 0 1-.852.191c-.188-.074-.25-.281-.305-.438-.527 0-.652-.129-.758-.484a.915.915 0 0 1-.027-.398c-1.137.109-.789-1.219-.293-1.605.496-.391.918-.676 1.027-1.211 1.112-.878 3.67-.612 4.963.032z" fill="#ffce46"/><path d="M213.905 170.105c-.07 1.109.496 1.539.355 2.289-.145.746-.562.996-.816 1.859-.25.852-1.207.738-1.594.461a1.19 1.19 0 0 1-.223-.219c-.965.488-1.477.055-1.477-.477a.76.76 0 0 1-.852.191c-.188-.074-.25-.281-.305-.438-.527 0-.652-.129-.758-.484a.915.915 0 0 1-.027-.398c-1.137.109-.789-1.219-.293-1.605.496-.391.918-.676 1.027-1.211 1.112-.878 3.67-.612 4.963.032zm-5.015 1.79c-.355.16-.633.602-.68.996m1.43-.391c-.617.18-.766.867-.645 1.273m1.738-.652c-.379.203-.59.598-.59.887m2.028-1.403c-.781.375-1.004 1.309-.543 1.891" fill="none" stroke="#000" stroke-width=".082" stroke-miterlimit="2.5"/><path d="M227.811 166.535c.887.211 1.055 1.59 2.941 1.41.746-.074 1.473.383 2.469.5.461.051.48.621.09.91-.176.82-.637.855-2.238.824-.531.281-1.668.355-2.477 0-.82-.359-3.023-.289-4.301.18-1.273.461-1.762-.57-1.66-1.145.109-.574.305-1.125-.02-1.734 1.107-.566 4.435-1.183 5.196-.945z" fill="#ffce46"/><path d="M227.811 166.535c.887.211 1.055 1.59 2.941 1.41.746-.074 1.473.383 2.469.5.461.051.48.621.09.91-.176.82-.637.855-2.238.824-.531.281-1.668.355-2.477 0-.82-.359-3.023-.289-4.301.18-1.273.461-1.762-.57-1.66-1.145.109-.574.305-1.125-.02-1.734 1.107-.566 4.435-1.183 5.196-.945z" fill="none" stroke="#000" stroke-width=".082" stroke-miterlimit="2.5"/><path d="M194.296 119.551c2.129-2.285 4.113-4.215 5.102-5.215 9.438-3.93 23.137-11.074 29.516-15.793.566-.352 2.145 1.512 1.527 1.969-9.402 5.895-19.762 11.328-29.191 15.543-3.266 2.855-4.398 3.781-5.043 5.426-.637 1.645-1.699 1.5-1.844.574-.145-.93-.352-2.18-.067-2.504z" fill="#996b38"/><path d="M194.296 119.551c2.129-2.285 4.113-4.215 5.102-5.215 9.438-3.93 23.137-11.074 29.516-15.793.566-.352 2.145 1.512 1.527 1.969-9.402 5.895-19.762 11.328-29.191 15.543-3.266 2.855-4.398 3.781-5.043 5.426-.637 1.645-1.699 1.5-1.844.574-.145-.93-.352-2.18-.067-2.504z" fill="none" stroke="#000" stroke-width=".082" stroke-miterlimit="2.5"/><path d="M225.593 104.246c.254.996.699 3.981.52 5.445 2.621-.359 6.102-1.5 7.945-3.824-1.211-.785-3.34-2.531-4.145-4.254-.969.434-3.57 2.024-4.32 2.633z" fill="#fff"/><path d="M225.593 104.246c.254.996.699 3.981.52 5.445 2.621-.359 6.102-1.5 7.945-3.824-1.211-.785-3.34-2.531-4.145-4.254-.969.434-3.57 2.024-4.32 2.633z" fill="none" stroke="#000" stroke-width=".082" stroke-miterlimit="2.5"/><path d="M225.573 104.371c-.387.195-.695-.238-.828-.414.16-.082.316-.16.426-.227.531-.344-.656-2.27-.988-2.062-.152.109-.375.27-.559.363-.242-.484-.305-.805.395-1.238.617-.379 2.633-1.668 3.332-2.105.379-.234.586-.195.992.039.57.316 1.328 1.5 1.57 2.105.164.453.262.758-.074.945-.856.485-2.859 1.77-4.266 2.594z" fill="#fff"/><path d="M225.573 104.371c-.387.195-.695-.238-.828-.414.16-.082.316-.16.426-.227.531-.344-.656-2.27-.988-2.062-.152.109-.375.27-.559.363-.242-.484-.305-.805.395-1.238.617-.379 2.633-1.668 3.332-2.105.379-.234.586-.195.992.039.57.316 1.328 1.5 1.57 2.105.164.453.262.758-.074.945-.856.485-2.859 1.77-4.266 2.594z" fill="none" stroke="#000" stroke-width=".082" stroke-miterlimit="2.5"/><path d="M239.718 124.344c.094-.484-1.316-.734-1.512-.773-.762-.137-1.508-.547-1.879-.75-.906-.473-1.773-.52-2.48-.156-.715.359-1.758.441-2.523.605-.852.18-2.34.43-3.422.949.344-3.406-.363-4.844-.867-5.664-.535-.863-.641-1.855-.605-3.934.039-2.066-1.734-2.965-2.703-3.574-.461-.297-.82-.473-1.254-.578-.215-.48-.797-1.027-1.891-1.672-1.101-.637-.75-1.57-.715-2.891 5.465-4.719-3.797-10.539-6.352-6.145-.027.645-.672 1.355-.633 1.75.035.398.176.785.387 1.039.219.25.035.711-.141 1.324-.172.602.066 1.707.461 2.316.391.609.602 1 .746 1.57.141.574.527.895.922 1.035.09.039.23.066.406.066v.605c.039.645-.836 1.555-1.648 1.594-.656-.012-1.262.117-1.633.383-1.098.781-1.824.449-2.41 1.176-1.383 1.715-1.883 2.613-1.848 4.856-1.234 1.215-2.445 2.473-2.41 5.148-.602-1.465-1.277-1.355-1.734-2.465a1.44 1.44 0 0 0-.785-.75c.082-.219.109-.457.07-.719.82-.707.32-1.32.676-1.961.352-.641.145-1.25-.035-1.57-.176-.324-.32-.457-.602-.789-.391-.445-1.047.02-1.027.539.008.254.062.453.141.613-.195.074-.871.406-1.168.531-.18.156-1.738 1.516-2.363 2.07-.137 1.031.297 2.25.832 2.715.539.465 1.246 1.605 1.352 2.285.109.68.352 1.434.887 2.211a12.665 12.665 0 0 0 1.914 2.184c.602.539.711.68 1.383.68s1.242-.176 1.844-.82c.605-.641.641-1.289 1.176-1.711.527-.434 2.113-1.773 2.625-3.289.066.156.121.301.254.426.043.566-.117 1.246.559 1.535 0 .535-.07 2.398.012 3.449 1.766.41 9.176.199 11.301-.52.07-1.289.141-2.859.359-3.57.285 1.004 1.273 1.781 1.629 2.855.355 1.074.711 1.934 1.633 1.934.852 0 2.09-1.07 2.992-1.453v-2.691h4.113c.59.285 1.328.047 1.602.168.352.172 1.031.258 1.418.078.141-.066.203-.16.211-.246h2.735v.002z" fill="#ffce46"/><path d="M239.718 124.344c.094-.484-1.316-.734-1.512-.773-.762-.137-1.508-.547-1.879-.75-.906-.473-1.773-.52-2.48-.156-.715.359-1.758.441-2.523.605-.852.18-2.34.43-3.422.949.344-3.406-.363-4.844-.867-5.664-.535-.863-.641-1.855-.605-3.934.039-2.066-1.734-2.965-2.703-3.574-.461-.297-.82-.473-1.254-.578-.215-.48-.797-1.027-1.891-1.672-1.101-.637-.75-1.57-.715-2.891 5.465-4.719-3.797-10.539-6.352-6.145-.027.645-.672 1.355-.633 1.75.035.398.176.785.387 1.039.219.25.035.711-.141 1.324-.172.602.066 1.707.461 2.316.391.609.602 1 .746 1.57.141.574.527.895.922 1.035.09.039.23.066.406.066v.605c.039.645-.836 1.555-1.648 1.594-.656-.012-1.262.117-1.633.383-1.098.781-1.824.449-2.41 1.176-1.383 1.715-1.883 2.613-1.848 4.856-1.234 1.215-2.445 2.473-2.41 5.148-.602-1.465-1.277-1.355-1.734-2.465a1.44 1.44 0 0 0-.785-.75c.082-.219.109-.457.07-.719.82-.707.32-1.32.676-1.961.352-.641.145-1.25-.035-1.57-.176-.324-.32-.457-.602-.789-.391-.445-1.047.02-1.027.539.008.254.062.453.141.613-.195.074-.871.406-1.168.531-.18.156-1.738 1.516-2.363 2.07-.137 1.031.297 2.25.832 2.715.539.465 1.246 1.605 1.352 2.285.109.68.352 1.434.887 2.211a12.665 12.665 0 0 0 1.914 2.184c.602.539.711.68 1.383.68s1.242-.176 1.844-.82c.605-.641.641-1.289 1.176-1.711.527-.434 2.113-1.773 2.625-3.289.066.156.121.301.254.426.043.566-.117 1.246.559 1.535 0 .535-.07 2.398.012 3.449 1.766.41 9.176.199 11.301-.52.07-1.289.141-2.859.359-3.57.285 1.004 1.273 1.781 1.629 2.855.355 1.074.711 1.934 1.633 1.934.852 0 2.09-1.07 2.992-1.453v-2.691h4.113c.59.285 1.328.047 1.602.168.352.172 1.031.258 1.418.078.141-.066.203-.16.211-.246h2.735v.002zm-5.969 0c-.047-.023-.102-.059-.156-.09m-23.621-9.598c-.039 1.18-.641 2.324-.566 3.359.07 1.039.852 2.215 2.586.93m-1.485.606c.031 1.324.172 2.004 1.453 2.188m10.785-8.048c.062 1.004.848 1.207.848 2.289 0 .82-.164 1.797-.57 2.246-.605.684-1.59.434-2.023.363m-2.27-9.468c.039.391-.141 1.75-.352 2.219m2.094.144c-1.031-.328-1.773.891-2.734.891.641-.148 1.207-.188 1.953-.039m-6.348-.109c1.234-.07 1.629.644 2.164.644m-1.527 5.684c1.594.07 1.848-1.539 2.594-1.539.742 0 1.164.969 2.516 1.145m5.35-5.825c.602.609.961 1.285.852 2.254m.57 3.426c.996 1.75 1.312 3.289 1.098 4.539m-9.723 2.926c.215-.098.855-.035 1.062.039m-4.066-.891c1.551.105 2.297-1.289 3.152-1.254.848.035 1.273.645 2.445.895m-5.956-1.071c.988.07 2.086-.535 2.582-1.145m-1.695-.034c.496-.141 1.309-.68 1.664-1.254m-1.563-.141c.469-.07.895-.605 1.066-.859m1.809.144c.18.18.395.395.562.504m-.738.141c.176.426 1.027.855 1.527.926m3.833-3.145c.074.609-.043 1.109-.531 1.469m.488-.715c.199.746-.031 1.535-.957 2.035m.887-.894c.254.496.43 1.359-.316 2.07m.386-.531c.145.93-.488 2.074-1.52 2.328m-20.074-2.543c1.523 1.57.883 2.75 3.684 4.93" fill="none" stroke="#000" stroke-width=".082" stroke-miterlimit="2.5"/><path d="M217.936 142.5c.211 1.785 1.953 4.887 2.25 5.492.957 1.93-.184 1.703.426 2.219.605.496-.461.316.637 1.492-.176 2.898-.281 7.145-.426 9.441-.133 2.277.426 5.137.426 6.781 2.625-.641 5.043-1.707 7.59-1.281.074-3.434-1.199-2.438-1.418-6.504-.211-4.074-.711-9.648-.281-13.434-.496-5.574-1.703-12.328-3.836-17.113-2.16.211-11.066.715-12.199.316-1.629 4.793-2.547 11.008-2.125 16.438.371 4.777.355 7.68.16 9.32-1.215 2.793-1.328 5.305-1.438 13.328.996 1.078 1.988 1.574 3.051 2.078 1.629-.293 3.332-1 4.18-1.434 0-2.855.23-4.215.074-5.434-.32-2.52.758-6.055.324-10.359-.117-1.834 1.965-4.885 2.605-11.346z" fill="#fff"/><path d="M217.936 142.5c.211 1.785 1.953 4.887 2.25 5.492.957 1.93-.184 1.703.426 2.219.605.496-.461.316.637 1.492-.176 2.898-.281 7.145-.426 9.441-.133 2.277.426 5.137.426 6.781 2.625-.641 5.043-1.707 7.59-1.281.074-3.434-1.199-2.438-1.418-6.504-.211-4.074-.711-9.648-.281-13.434-.496-5.574-1.703-12.328-3.836-17.113-2.16.211-11.066.715-12.199.316-1.629 4.793-2.547 11.008-2.125 16.438.371 4.777.355 7.68.16 9.32-1.215 2.793-1.328 5.305-1.438 13.328.996 1.078 1.988 1.574 3.051 2.078 1.629-.293 3.332-1 4.18-1.434 0-2.855.23-4.215.074-5.434-.32-2.52.758-6.055.324-10.359-.117-1.834 1.965-4.885 2.605-11.346zm-3.285-10.73c-.711 7.719-.992 14.148-1.695 17.434-.719 3.289-.996 5.293-.996 8.008 0 2.711-1.141 8.855-1.207 13.863m16.387-24.368c-.496 3.289-1.418 9.359-1.703 13.855m1.062-2.777c-.141 1.855-.352 4.352-.426 5.711m-4.613-33.652c1.492 3.996 2.836 8.211 2.914 11.645m-1.602-10.325c.148.465.25 1.75.25 2.184m.528-1.328c.117.504.258 1.035.324 1.461m-5.742-2.786c0 1.574.07 3.719.07 4.719m-8.336-.602c.211-.895 1.383-2.043 2.691-3.223l.5.754c-1.277 1.254-3.441 3.645-3.582 4.504m.247-15.757c-.031.965-1.105 1.492-1.309 2.539-.07.352-.777 1.105-1.207 1.211" fill="none" stroke="#000" stroke-width=".082" stroke-miterlimit="2.5"/><path d="M214.651 100.512c-.234-.621-.922-.539-1.164-.605-2.168-1.43.059-4.152 1.66-3.676 1.602.457 2.129-.688 3.871.172.91.449 3.211 2.035 3.152 4.578-.039 1.777-.711 3.461-.812 4.82-.109 1.359-1.105 1.715-1.598 1.75-.035-.75 0-1.254.105-1.645.781-.719 1.23-1.82 1.062-2.359-.215-.711-1.062-.641-1.559.715l-.352-.25c.492-.961.848-1.75.812-2.566-.035-.824-.531-1.934-1.242-1.578-.707.359-1.203.285-1.555.105-.355-.176-.93.18-1.352.469-.422.281-.852.539-1.028.07z" fill="#996b38"/><path d="M214.651 100.512c-.234-.621-.922-.539-1.164-.605-2.168-1.43.059-4.152 1.66-3.676 1.602.457 2.129-.688 3.871.172.91.449 3.211 2.035 3.152 4.578-.039 1.777-.711 3.461-.812 4.82-.109 1.359-1.105 1.715-1.598 1.75-.035-.75 0-1.254.105-1.645.781-.719 1.23-1.82 1.062-2.359-.215-.711-1.062-.641-1.559.715l-.352-.25c.492-.961.848-1.75.812-2.566-.035-.824-.531-1.934-1.242-1.578-.707.359-1.203.285-1.555.105-.355-.176-.93.18-1.352.469-.422.281-.852.539-1.028.07z" fill="none" stroke="#000" stroke-width=".082"/><path d="M213.472 102.25c1.035-.312 1.23.137 1.719-.008.363-.102.035.719-.078 1.223-.094.426-.121.488-.461.668-.23.129-.242.086-.047-.102.402-.383.461-1.105.195-.902-.238.184-.73.195-.844.07a.502.502 0 0 0-.367-.172c-.102-.004-.191-.297.121-.34.32-.039.691-.039.797-.055.113-.012.219-.066-.016-.082-.23-.027-.629.078-.848.051-.218-.019-.449-.269-.171-.351zM216.347 102.223c.438-.484 1.234-.035 1.691-.098.445-.074.699.055.211.195-.496.137-1.102 0-1.379.09-.277.078-.699.016-.523-.187zM216.558 102.981c.227.102.207.391.207.602 0 .168.234.234.352.109.121-.125.41-.164.59-.32.102-.101.195-.394.461-.394.262 0 .398.074.351-.109-.055-.18-.297-.234-.566-.27-.262-.031-.727-.125-1-.031-.258.09-.367.059-.543-.016-.196-.095-.063.347.148.429zM216.831 105.418c.27-.012.344-.141.094-.145-.219-.008-.582-.098-.605-.383-.02-.238-.109-.285-.133-.074-.019.215-.234.32-.352.344-.211.059-.637.113-.883-.254-.125.129-.242.156-.383.066-.168-.109-.195.031-.066.137a.406.406 0 0 0 .434.066c.125.23.375.324.637.336.34.012.641-.086.77-.301.081.173.276.224.487.208zM216.89 106.781c-.316 0-.609.207-.82.34-.332.211-.699.16-.906-.039a2.5 2.5 0 0 0-.586-.391c-.141-.07.184-.195.449-.043.277.145.652.152.848.078.203-.07.57-.148.77-.051-.223-.129-.512-.203-.691-.18-.188.02-.363.062-.523-.008-.16-.078-.574.086-.754.105-.184.027-.355-.07-.113-.133.254-.074.52-.172.621-.23.105-.062.277-.035.352.016.082.051.129.008.238-.035.098-.047.312-.043.508.043.25.109.375.211.523.293.148.094.164-.141.23.059.08.282-.064.176-.146.176z"/><path d="M203.194 119.41c-.152.398-.461.719-.742.941m-1.879-1.585c.391-1.141 1.133-1.395 1.664-1.289 0-.496.105-1.07.637-1.422-.129-.113-.324-.262-.457-.531" fill="none" stroke="#000" stroke-width=".082" stroke-miterlimit="2.5"/><path d="M198.48 115.25c-.395-.125-.723-.047-.731.711-.004.766.797 1.289 1.231 1.484.203.094.684.148.699-.66-.371-.215-1.118-.957-1.199-1.535z" fill="#ffce46"/><path d="M198.48 115.25c-.395-.125-.723-.047-.731.711-.004.766.797 1.289 1.231 1.484.203.094.684.148.699-.66-.371-.215-1.118-.957-1.199-1.535z" fill="none" stroke="#000" stroke-width=".082" stroke-miterlimit="2.5"/><path d="M199.226 114.391c-.422-.07-.758-.074-.832.691-.07.754.809 1.418 1.149 1.719.305.273 1.101.074.742-.773-.349-.254-1.028-1.051-1.059-1.637z" fill="#ffce46"/><path d="M199.226 114.391c-.422-.07-.758-.074-.832.691-.07.754.809 1.418 1.149 1.719.305.273 1.101.074.742-.773-.349-.254-1.028-1.051-1.059-1.637z" fill="none" stroke="#000" stroke-width=".082" stroke-miterlimit="2.5"/><path d="M200.007 113.672c-.418-.102-.75-.141-.891.613-.137.75.59 1.375.867 1.73.199.246.996.484.922-.605-.312-.285-.922-1.144-.898-1.738z" fill="#ffce46"/><path d="M200.007 113.672c-.418-.102-.75-.141-.891.613-.137.75.59 1.375.867 1.73.199.246.996.484.922-.605-.312-.285-.922-1.144-.898-1.738z" fill="none" stroke="#000" stroke-width=".082" stroke-miterlimit="2.5"/><path d="M200.105 113.211c-.359.355-.332.859.062 1.484.387.625.848 1.266 1.453 1.094.602-.184.176-.879-.055-1.113-.23-.23-.602-.805-.625-.984l.395-.176c-.254-.254-.715-.805-1.23-.305z" fill="#ffce46"/><path d="M200.105 113.211c-.359.355-.332.859.062 1.484.387.625.848 1.266 1.453 1.094.602-.184.176-.879-.055-1.113-.23-.23-.602-.805-.625-.984l.395-.176c-.254-.254-.715-.805-1.23-.305z" fill="none" stroke="#000" stroke-width=".082" stroke-miterlimit="2.5"/><path d="M223.483 117.231c-.246 1.07-.32 2-.027 2.645.27.645.453 1.715.453 2.355 0 .648.289 2.859 1.738 3.609-.355-.141-1.52-.75-1.207-.281-.633-1-1.027-1.461-1.059-1.859-.078.539-.25 1.141-.219 1.43-.141-1.719-.285-2.75-.285-3.934 0-1.176.043-2.391-.031-2.75.215-.286.637-.922.637-1.215z"/><path d="M210.819 121.234c-.031.465-.043.844.082 1.141m5.387-10.719c-.625-.383-1.488-.586-2.273-.594m-2.848 11.735c.129.121.34.227.684.289m3.812-13.617c.074 1.594.32 1.039.836 2.297m1.668-3.864c-1.078.762-1.961.965-2.504.961m5.051 1.469c.797 0 1.316.023 1.758.137m5.379 14.234c.02-.172.035-.328.051-.484" fill="none" stroke="#000" stroke-width=".082" stroke-miterlimit="2.5"/><path d="M215.784 128.855c0 1.988-.25 1.859 1.777 1.859 1.988 0 1.793.148 1.793-1.906 0-1.949.176-1.754-1.969-1.754-1.812.001-1.601-.179-1.601 1.801z" fill="#ffe26d"/><path d="M215.784 128.855c0 1.988-.25 1.859 1.777 1.859 1.988 0 1.793.148 1.793-1.906 0-1.949.176-1.754-1.969-1.754-1.812.001-1.601-.179-1.601 1.801z" fill="none" stroke="#000" stroke-width=".082" stroke-miterlimit="2.5"/><path d="M215.776 127.77c-1.484.145-3.18.098-3.996-.07-.781-.16-.816.254-.895 1.27-.043.816-.152 1.141.754 1.23 1.133.113 3.324.02 4.137.055v-2.485z" fill="#996b38"/><path d="M215.776 127.77c-1.484.145-3.18.098-3.996-.07-.781-.16-.816.254-.895 1.27-.043.816-.152 1.141.754 1.23 1.133.113 3.324.02 4.137.055v-2.485z" fill="none" stroke="#000" stroke-width=".082" stroke-miterlimit="2.5"/><path d="M219.343 127.664c1.066 0 3.047-.395 3.578-.535.535-.145.508.156.656 1.234.137 1.07-.094 1.336-.832 1.441-.746.105-2.656.285-3.402.219v-2.359z" fill="#996b38"/><path d="M219.343 127.664c1.066 0 3.047-.395 3.578-.535.535-.145.508.156.656 1.234.137 1.07-.094 1.336-.832 1.441-.746.105-2.656.285-3.402.219v-2.359z" fill="none" stroke="#000" stroke-width=".082" stroke-miterlimit="2.5"/><path d="M216.3 128.871c0 1.438-.152 1.27 1.266 1.27 1.395 0 1.223.168 1.223-1.27 0-1.367.262-1.258-1.242-1.258-1.267 0-1.247-.136-1.247 1.258z" fill="#996b38"/><path d="M216.3 128.871c0 1.438-.152 1.27 1.266 1.27 1.395 0 1.223.168 1.223-1.27 0-1.367.262-1.258-1.242-1.258-1.267 0-1.247-.136-1.247 1.258z" fill="none" stroke="#000" stroke-width=".082" stroke-miterlimit="2.5"/><path d="M211.14 128.934c-.062.5-.086.551.656.555.617 0 .746.105.746-.395s-.145-.449-.609-.449c-.453 0-.739-.145-.793.289z" fill="#ffe26d"/><path d="M211.14 128.934c-.062.5-.086.551.656.555.617 0 .746.105.746-.395s-.145-.449-.609-.449c-.453 0-.739-.145-.793.289z" fill="none" stroke="#000" stroke-width=".082" stroke-miterlimit="2.5"/><path d="M213.323 129.059c0 .535.227.441.672.441.449 0 .855.074.855-.367 0-.449 0-.508-.836-.508-.656 0-.691.02-.691.434z" fill="#ffe26d"/><path d="M213.323 129.059c0 .535.227.441.672.441.449 0 .855.074.855-.367 0-.449 0-.508-.836-.508-.656 0-.691.02-.691.434z" fill="none" stroke="#000" stroke-width=".082" stroke-miterlimit="2.5"/><path d="M221.624 128.754c0 .445.508.391.867.34.355-.059.66-.125.602-.594-.047-.461-.371-.242-.703-.18-.325.075-.766-.082-.766.434z" fill="#ffe26d"/><path d="M221.624 128.754c0 .445.508.391.867.34.355-.059.66-.125.602-.594-.047-.461-.371-.242-.703-.18-.325.075-.766-.082-.766.434z" fill="none" stroke="#000" stroke-width=".082" stroke-miterlimit="2.5"/><path d="M219.616 128.879c0 .531.23.445.68.445.441 0 .777.07.777-.375 0-.449-.105-.504-.766-.504-.648 0-.691.024-.691.434z" fill="#ffe26d"/><path d="M219.616 128.879c0 .531.23.445.68.445.441 0 .777.07.777-.375 0-.449-.105-.504-.766-.504-.648 0-.691.024-.691.434zm-9.219 24.328c-.52.918-.926 1.707-1.258 2.461m6.008-3.176c.082.469.145.914.184 1.355m2.605-11.347a40.64 40.64 0 0 0 .195-3.586m15.18 30.441c.215-1.035-1.312-.605-1.914-.641m5.583-44.37c.012-.156-.129-.32-.301-.363-.266-.07-.719-.23-.957-.465-.23-.227-1.078-.141-1.453-.246m56.523 48.625c.352.16.629.602.676.996m-1.418-.391c.598.18.762.867.633 1.273m-1.739-.652c.375.203.594.598.594.887m-2.027-1.403c.777.375 1.008 1.309.543 1.891m-22.129-50.152c.055-.023.113-.059.16-.09m23.625-9.598c.035 1.18.637 2.324.566 3.359-.07 1.039-.848 2.215-2.586.93m1.481.606c-.035 1.324-.172 2.004-1.445 2.188m-10.782-8.048c-.078 1.004-.859 1.207-.859 2.289 0 .82.164 1.797.574 2.246.594.684 1.598.434 2.012.363m2.281-9.468c-.039.391.133 1.75.352 2.219m-2.09.144c1.027-.328 1.77.891 2.727.891a4.3 4.3 0 0 0-1.953-.039m6.347-.109c-1.234-.07-1.629.644-2.164.644m1.527 5.684c-1.594.07-1.844-1.539-2.586-1.539-.746 0-1.172.969-2.52 1.145m-5.355-5.825c-.605.609-.957 1.285-.852 2.254m-.57 3.426c-.988 1.75-1.316 3.289-1.094 4.539m9.715 2.926c-.211-.098-.848-.035-1.062.039m4.078-.891c-1.562.105-2.309-1.289-3.156-1.254-.852.035-1.277.645-2.449.895m5.961-1.071c-.996.07-2.09-.535-2.594-1.145m1.703-.034c-.496-.141-1.309-.68-1.668-1.254m1.562-.141c-.457-.07-.883-.605-1.062-.859m-1.809.144c-.176.18-.391.395-.566.504m.742.141c-.176.426-1.031.855-1.523.926m-3.828-3.145c-.078.609.027 1.109.531 1.469m-.504-.715c-.188.746.043 1.535.965 2.035m-.891-.894c-.242.496-.426 1.359.32 2.07m-.394-.531c-.133.93.504 2.074 1.535 2.328m20.074-2.543c-1.527 1.57-.891 2.75-3.691 4.93m-9.688 5.285c.711 7.719.992 14.148 1.707 17.434.711 3.289.996 5.293.996 8.008 0 2.711 1.133 8.855 1.203 13.863m-16.386-24.368c.496 3.289 1.418 9.359 1.703 13.855m-1.066-2.777c.141 1.855.355 4.352.426 5.711m4.613-33.652c-1.492 3.996-2.84 8.211-2.91 11.645m1.593-10.325c-.137.465-.242 1.75-.242 2.184m-.539-1.328c-.102.504-.246 1.035-.316 1.461m5.746-2.786c0 1.574-.07 3.719-.07 4.719m8.335-.602c-.211-.895-1.383-2.043-2.695-3.223l-.5.754c1.273 1.254 3.445 3.645 3.586 4.504m-.25-15.757c.039.965 1.105 1.492 1.312 2.539.07.352.781 1.105 1.203 1.211m4.012-5.43c.145.398.457.719.742.941m1.887-1.585c-.395-1.141-1.141-1.395-1.668-1.289 0-.496 0-1.07-.531-1.422.129-.113.402-.484.441-.859m-8.496 6.038c.035.465.043.844-.078 1.141m-5.387-10.719c.617-.383 1.484-.586 2.277-.594m2.848 11.735c-.137.121-.344.227-.691.289m-3.816-13.617c-.07 1.594-.316 1.039-.828 2.297m-1.668-3.864c1.07.762 1.965.965 2.5.961m-5.051 1.469c-.801 0-1.32.023-1.762.137m-5.367 14.234c-.027-.172-.039-.328-.059-.484m17.508 28.988c.512.918.93 1.707 1.254 2.461m-6.008-3.176c-.082.469-.145.914-.188 1.355m-2.597-11.347a39.52 39.52 0 0 1-.195-3.586m-15.18 30.441c-.219-1.035 1.301-.605 1.918-.641m-5.586-44.37c-.02-.156.133-.32.297-.363.266-.07.73-.23.961-.465.227-.227 1.082-.141 1.453-.246" fill="none" stroke="#000" stroke-width=".082" stroke-miterlimit="2.5"/><path d="M250.018 190.793c3.473 0 6.309-.273 8.945-.906.027.5.012.965-.008 1.391-.793.125-1.641.23-2.516.297-.141 3.5 2.551 3.719 3.684 3.359 1.141-.359 3.336-.781 4.613-1 3.246-.543 3.551-3.785 2.199-5.785a8.875 8.875 0 0 1-.621-1.074 73.184 73.184 0 0 0 4.098-2.285c10 4.57 10.57.645 11.352-.781.578-1.07 1.844-2.863 2.34-3.43.766-.883 1.566-2.074 0-3.223-3.629-2.656-9.02-2.715-13.773-.137-1.844-.219-2.836-.332-3.898-.645-.707-.215-2.266-.508-3.398.359-1.273.961-2.875 1.578-4.613 2.137-1.613.527-1.512 2.621-.98 4.418-2.188.543-4.605.875-7.422.875-2.816 0-5.234-.332-7.434-.875.539-1.797.648-3.891-.973-4.418-1.734-.559-3.34-1.176-4.613-2.137-1.133-.867-2.699-.574-3.406-.359-1.051.312-2.047.426-3.895.645-4.742-2.578-10.137-2.52-13.77.137-1.555 1.148-.766 2.34 0 3.223.496.566 1.762 2.359 2.344 3.43.777 1.426 1.344 5.352 11.348.781a71.791 71.791 0 0 0 4.098 2.285 8.793 8.793 0 0 1-.617 1.074c-1.352 2-1.047 5.242 2.195 5.785 1.273.219 3.48.641 4.613 1 1.133.359 3.832.141 3.688-3.359a30.727 30.727 0 0 1-2.516-.297c-.02-.426-.035-.891-.012-1.391 2.636.633 5.476.906 8.948.906z" fill="#fff" stroke="#996b38" stroke-width=".082" stroke-miterlimit="2.5"/><path d="M229.62 184.789c-2.91-1.68-5.379-2.523-7.305-2.32-2.062.215-4.254 1.176-3.406 2.824m14.453-8.645c2.465-.559 3.477 1.16 2.785 3.496-.07.238-.141.496-.219.75m-2.21 6.18c2.551 1.309 4.875 2.219 7.344 2.812m1.523-6.398c-4.879-1.23-8.469-3.531-11.898-5.703-.32-.203-.648-.391-.973-.566m11.367 14.058c-2.332-.379-4.184-.996-5.074-1.801 1.84 1.922.637 4.812-1.562 4.207m35.968-8.894c2.906-1.68 5.375-2.523 7.301-2.32 2.062.215 4.266 1.176 3.406 2.824m-14.449-8.645c-2.465-.559-3.473 1.16-2.781 3.496.07.238.141.496.215.75m2.21 6.18c-2.555 1.309-4.867 2.219-7.34 2.812m-1.527-6.398c4.879-1.23 8.473-3.531 11.898-5.703.32-.203.645-.391.973-.566m-11.363 14.058c2.32-.379 4.18-.996 5.074-1.801-1.844 1.922-.637 4.812 1.559 4.207" fill="none" stroke="#996b38" stroke-width=".082" stroke-miterlimit="2.5"/><path d="M218.272 177.871c-.23.125-.48.379-.281.816.195.434.574.504 1.387.445.605-.043 1.25.109 1.566.812.457 1.012-.438 1.582-.848 1.77a3.032 3.032 0 0 1-.969.262c-.16.004-.195.004-.215.23l-.121.051-.598-1.352.105-.047c.426.652 1.129.984 1.738.703.52-.242.574-.703.469-.949-.172-.383-.594-.477-1.336-.445-.66.016-1.324-.145-1.602-.762-.352-.773-.035-1.406.637-1.707.359-.172.738-.195.949-.199.199.004.23-.078.211-.344l.117-.055.562 1.234-.129.055c-.634-.729-1.267-.729-1.642-.518zM225.085 179.734l.23-2.164c.043-.352-.195-.469-.469-.547l.012-.121 1.203.133-.012.133c-.273-.016-.484.07-.523.422l-.234 2.113c-.086.816-.418 1.637-1.75 1.492-1.016-.113-1.723-.691-1.613-1.688l.258-2.285c.035-.355-.215-.465-.469-.543l.016-.129 2.074.234-.016.129c-.266.016-.547.059-.578.422l-.246 2.219c-.082.754.141 1.289.855 1.371.703.075 1.157-.327 1.262-1.191zM226.331 180.391l.676-1.672 1.031.281-.324.805c.781.32 1.051.113 1.172-.188.07-.168.199-.512.258-.629.152-.383-.059-.543-.168-.586-.102-.043-.262-.102-.379-.156-.121-.047-.227-.062-.297.094l-.262.66-1.031-.281.238-.609c.141-.348-.102-.547-.324-.684l.055-.117s1.27.523 1.988.812c.75.309 1.312.887 1.043 1.547-.266.664-.855.609-1.301.547.461.289.977.812.695 1.508-.25.637-1.156.871-1.875.574-.707-.289-2.199-.895-2.199-.895l.051-.121c.242.051.555.086.695-.254l.258-.636.988.391-.344.859c-.055.113.047.227.141.258.082.039.18.082.422.18.242.098.551-.051.68-.359.062-.18.168-.438.258-.664.121-.281.051-.688-.293-.828-.352-.145-.496-.199-.551-.227l-.312.781-.989-.391zM234.081 184.148l1.109-1.863c.18-.309.02-.512-.199-.688l.062-.109 1.031.617-.062.109c-.246-.113-.469-.129-.656.176l-1.082 1.82c-.418.711-1.059 1.316-2.203.625-.883-.531-1.285-1.348-.773-2.215l1.18-1.973c.176-.309 0-.508-.203-.684l.062-.113 1.789 1.09-.059.105c-.25-.098-.523-.168-.707.145l-1.133 1.902c-.395.66-.414 1.246.203 1.617.606.365 1.196.189 1.641-.561zM239.737 187.668c-.133.348.047.52.301.664l-.055.121-1.906-.77.047-.117c.293.066.527.066.66-.281l1.172-2.918-2.938 2.879-.223-.09-.02-4.266-1.223 3.082c-.148.348.055.527.312.676l-.047.121-1.215-.5.043-.113c.297.07.562.082.691-.266l1.172-2.918c.133-.348-.09-.547-.379-.703l.043-.117 1.582.641.016 3.289 2.367-2.324 1.52.617-.047.117c-.285-.07-.57-.09-.707.254l-1.166 2.922zM247.186 186.617l-.066.941c1.082.039 1.277-.355 1.312-.941.047-.582-.27-.957-.727-.977-.277-.008-.461.055-.469.25l-.05.727-1.074-.043.043-.617c.027-.363-.309-.477-.586-.539l.008-.137 2.141.148c1.039.07 1.828.457 1.781 1.277-.051.586-.484.898-1.102 1.012l1.188 2.051c.023.059.102.09.203.102l-.008.125-1.254-.082-1.246-2.188c-.094-.008-.172-.008-.172-.008l-.094 1.457c-.027.363.238.473.48.535l-.012.129-2.117-.148.012-.125c.289-.027.539-.094.566-.469l.168-2.523 1.075.043zM251.933 188.305l.68-.055c-.742-1.445-.754-1.512-.754-1.512s-.184.57-.531 1.609l.605-.042.012.277-.711.051c-.055.176-.117.375-.195.57-.168.523.129.535.5.586l.008.129-1.316.098-.008-.129c.211-.047.395-.289.504-.562a713.321 713.321 0 0 0 1.293-3.871l.23-.008s.09.16 1.816 3.598c.117.25.172.484.621.516l.008.125-2.168.156-.012-.125c.441-.09.711-.164.551-.57-.117-.23-.223-.438-.312-.625l-.809.062-.012-.278zM256.8 189.352l-.031-.125c.27-.113.574-.289.48-.645l-.801-3.051c-.098-.352-.449-.348-.734-.316l-.035-.129 3.738-1 .348 1.328-.168.047c-.219-.828-1-.945-1.414-.84a16.99 16.99 0 0 1-.602.164c-.133.043-.195.117-.094.48.059.258.363 1.387.363 1.387.246-.062.91-.152.82-1.164l.129-.035.543 2.098-.156.043c-.363-1.059-1.035-.789-1.281-.719l.375 1.426c.094.355.391.375.637.352l.031.129-2.148.57zM261.577 183.168l.047.117c-.254.156-.48.344-.348.684l1.188 2.844c.129.336.324.379.523.301.148-.07.312-.137.512-.215.453-.195.922-.785.781-1.676l.172-.07.324 1.457-3.527 1.469-.043-.113c.242-.152.523-.363.391-.703l-1.207-2.914c-.145-.34-.434-.316-.707-.246l-.055-.121 1.949-.814zM267.257 185.125c-.629.359-1.438-.234-2.004-1.223s-.672-1.984-.043-2.355c.625-.363 1.43.227 2 1.219.566.988.672 1.988.047 2.359l.07.117c1.215-.707 1.41-1.957.805-3.012-.602-1.059-1.777-1.516-2.996-.805-1.215.703-1.41 1.961-.809 3.016.609 1.059 1.785 1.512 3 .801l-.07-.117zM273.058 178.07c-.09-.359-.43-.367-.719-.34l-.035-.133 3.758-.891.312 1.332-.164.039c-.191-.832-.984-.969-1.383-.875-.195.051-.434.105-.605.145-.148.035-.203.113-.121.469.062.266.34 1.41.34 1.41.246-.062.902-.125.84-1.145l.121-.031.504 2.113-.156.035c-.348-1.066-1.012-.816-1.258-.75l.336 1.43c.082.363.176.402.316.375.172-.051.402-.098.605-.148.477-.117.996-.484 1.145-1.469l.184-.051-.004 1.406-3.758.898-.027-.121c.273-.113.574-.277.496-.637l-.727-3.061zM279.206 181.168c-.711-.195-.859-1.188-.566-2.293.297-1.094.926-1.887 1.625-1.691.703.191.855 1.184.559 2.293-.294 1.101-.923 1.882-1.618 1.691l-.039.141c1.355.371 2.379-.379 2.691-1.559.312-1.176-.191-2.336-1.555-2.707-1.355-.363-2.379.383-2.691 1.559-.316 1.172.191 2.34 1.555 2.707l.039-.141zM241.905 187.633l.379-1.766 1.07.102-.18.852c.82.176 1.051-.066 1.121-.391.039-.184.113-.539.141-.664.09-.402-.148-.523-.258-.547-.102-.027-.281-.066-.406-.094-.121-.023-.23-.02-.273.148l-.144.695-1.07-.102.141-.645c.082-.367-.199-.512-.43-.617l.023-.117s1.348.293 2.094.457c.797.172 1.453.641 1.297 1.344-.156.699-.742.742-1.191.762.504.207 1.094.633.945 1.367-.148.672-.996 1.059-1.754.883-.746-.156-2.32-.504-2.32-.504l.027-.121c.258.008.57-.02.645-.375l.143-.667 1.043.211-.199.902c-.027.137.09.223.184.242l.453.098c.254.059.531-.145.605-.477.031-.184.09-.449.148-.691.062-.297-.074-.688-.438-.77-.363-.074-.52-.109-.578-.125l-.176.82-1.042-.21z"/><path d="M269.069 180.457l.41.848c.961-.504.934-.949.68-1.473-.25-.523-.707-.695-1.113-.48-.242.125-.371.273-.297.449l.32.656-.949.5-.273-.559c-.152-.332-.492-.262-.77-.176l-.062-.125 1.941-.938c.934-.449 1.809-.512 2.168.223.25.535.031 1.023-.453 1.426l2.031 1.199c.055.035.141.02.227-.02l.059.117-1.133.547-2.156-1.277c-.086.047-.156.074-.156.074l.637 1.316c.16.34.445.297.68.234l.055.109-1.91.93-.055-.113c.246-.172.418-.355.266-.691l-1.094-2.277.947-.499z"/></svg>