<svg xmlns="http://www.w3.org/2000/svg" viewBox="0 0 499.839 277.402"><path fill="#ed3424" d="M54.979 184.84h444.86V-.375H54.979V184.84z"/><path fill="#00b084" d="M499.839 277.402V184.84H54.979v92.562h444.86z"/><g><path fill="#fff" d="M65.319 277.402V-.375H-.161v277.777h65.48z"/><path fill="#ed3424" d="M16.593 48.125v3.434h1.48v3.898h1.703v3.969h-1.703v3.898h-1.48v3.438h-2.324v-3.438h-1.473v-3.898h-1.828v-3.969h1.828v-3.898h1.473v-3.434h2.324zM16.593 228.863v-3.429h1.48v-3.899h1.703v-3.969h-1.703v-3.902h-1.48v-3.43h-2.324v3.43h-1.473v3.902h-1.828v3.969h1.828v3.899h1.473v3.429h2.324zM33.933 33.563v5.191h2.293v5.57h2.636v4.082h2.946v5.196h2.175v-5.196h2.946v-4.082h2.636v-5.57h2.286v-5.191h2.339v-7.055h-2.339v-5.934h-2.286v-7.148h-2.636v-4.41h-8.067v4.41h-2.636v7.148h-2.293v5.934h-2.711v-5.934h-2.293v-7.148h-2.633v-4.41h-8.074v4.41h-2.637v7.148H13.3v5.934h-2.332v7.055H13.3v5.191h2.285v5.57h2.637v4.082h2.953v5.196h2.172v-5.196h2.949v-4.082h2.633v-5.57h2.293v-5.191h2.711zM48.558 48.125v3.434h-1.469v3.898h-1.711v3.969h1.711v3.898h1.469v3.438h2.328v-3.438h1.476v-3.898h1.828v-3.969h-1.828v-3.898h-1.476v-3.434h-2.328z"/><path fill="#ed3424" d="M33.358 59.426v3.898h1.473v3.438h2.324v-3.438h1.473v-3.898h1.707v-3.969h-1.707v-3.898h-1.473v-3.434h-2.324v3.434h-1.473v3.898H31.8v-3.898h-1.473v-3.434h-2.328v3.434H26.53v3.898h-1.711v3.969h1.711v3.898h1.469v3.438h2.328v-3.438H31.8v-3.898h1.558zM33.933 243.43v-5.196h2.293v-5.562h2.636v-4.086h2.946v-5.195h2.175v5.195h2.946v4.086h2.636v5.562h2.286v5.196h2.339v7.054h-2.339v5.938h-2.286v7.144h-2.636v4.45h-8.067v-4.45h-2.636v-7.144h-2.293v-5.938h-2.711v5.938h-2.293v7.144h-2.633v4.45h-8.074v-4.45h-2.637v-7.144H13.3v-5.938h-2.332v-7.054H13.3v-5.196h2.285v-5.562h2.637v-4.086h2.953v-5.195h2.172v5.195h2.949v4.086h2.633v5.562h2.293v5.196h2.711zM48.558 228.863v-3.429h-1.469v-3.899h-1.711v-3.969h1.711v-3.902h1.469v-3.43h2.328v3.43h1.476v3.902h1.828v3.969h-1.828v3.899h-1.476v3.429h-2.328z"/><path fill="#ed3424" d="M33.358 221.535v3.899h1.473v3.429h2.324v-3.429h1.473v-3.899h1.707v-3.969h-1.707v-3.902h-1.473v-3.43h-2.324v3.43h-1.473v3.902H31.8v-3.902h-1.473v-3.43h-2.328v3.43H26.53v3.902h-1.711v3.969h1.711v3.899h1.469v3.429h2.328v-3.429H31.8v-3.899h1.558z"/><path fill="#ed3424" d="M34.362 192.863v6.496h2.555v5.938h2.797v5.664h1.785v3.434h2.637v-3.434h1.789v-5.293h3.64v-6.309h2.875v-5.332h1.75v-7.843h-1.75v-5.473h-2.484v-7.609h-2.328v-5.473h-2.641v5.473h-2.636v7.609h-1.704v5.473h2.485v7.843h-3.106v-5.152h-2.172v-9.367h-2.792v-7.051h2.636v-5.387h2.481v-6.496h2.64v-6.863h2.325v-6.309h2.562v6.125h2.016v5.008h1.863v6.496h1.32v5.012h1.285v-18.93h-1.906v-6.304h-2.25v-4.18H47.94v-4.27h2.094v-4.171h2.25v-6.313h1.906v-18.922h-1.285v5.008h-1.32v6.492h-1.863v5.012h-2.016v6.125h-2.562v-6.313h-2.325v-6.863h-2.64v-6.496h-2.481v-5.379h-2.636v-7.055h2.792v-9.371h2.172v-5.144h3.106v7.836h-2.485v5.472h1.704v7.614h2.636v5.468h2.641v-5.468h2.328v-7.614h2.484v-5.472h1.75v-7.836h-1.75v-5.34h-2.875V71.32h-3.64v-5.285h-1.789v-3.433h-2.637v3.433h-1.785v5.656h-2.797v5.938h-2.555v6.496h-3.57v-6.496h-2.559v-5.938h-2.796v-5.656h-1.782v-3.433h-2.633v3.433h-1.789v5.285h-3.648v6.309h-2.867v5.34h-1.75v7.836h1.75v5.472h2.484v7.614h2.324v5.468h2.637v-5.468h2.645v-7.614h1.699v-5.472h-2.481v-7.836h3.106v5.144h2.172v9.371h2.793v7.055H27.46v5.379h-2.484v6.496h-2.637v6.863h-2.328v6.313h-2.563v-6.125h-2.015v-5.012h-1.864v-6.492h-1.316v-5.008h-1.285v18.922h1.902v6.313h2.254v4.171h2.094v4.27h-2.094v4.18H12.87v6.304h-1.902v18.93h1.285v-5.012h1.316v-6.496h1.864v-5.008h2.015v-6.125h2.563v6.309h2.328v6.863h2.637v6.496h2.484v5.387h2.637v7.051h-2.793v9.367h-2.172v5.152h-3.106v-7.843h2.481v-5.473h-1.699v-7.609h-2.645v-5.473h-2.637v5.473h-2.324v7.609h-2.484v5.473h-1.75v7.843h1.75v5.332h2.867v6.309h3.648v5.293h1.789v3.434h2.633v-3.434h1.782v-5.664h2.796v-5.938h2.559v-6.496h3.57z"/><path fill="#fff" d="M34.362 168.926v-5.563h2.016v-5.57h2.094v-6.68h2.636v-6.496h2.641v-3.988h1.863v-4.27h-1.863v-3.984h-2.641v-6.5h-2.636v-6.676h-2.094v-5.57h-2.016v-5.563h-3.57v5.563H28.78v5.57h-2.101v6.676h-2.637v6.5h-2.641v3.984h-1.859v4.27h1.859v3.988h2.641v6.496h2.637v6.68h2.101v5.57h2.012v5.563h3.57z"/><path fill="#ed3424" d="M33.819 143.691v2.973h2.016v3.34h1.863v-6.313h-1.863v-3.152h-1.703v-4.082h1.703v-3.156h1.863v-6.309h-1.863v3.34h-2.016v2.969h-2.48v-2.969h-2.016v-3.34H27.46v6.309h1.863v3.156h1.703v4.082h-1.703v3.152H27.46v6.313h1.863v-3.34h2.016v-2.973h2.48z"/><path fill="#fff" d="M23.425 43.395V38.66h2.172v-5.562h2.324v-6.125h-2.324v-5.571h-2.172v-4.73h-2.328v4.73h-2.172v5.571h-2.332v6.125h2.332v5.562h2.172v4.735h2.328zM23.425 233.598v4.73h2.172v5.567h2.324v6.128h-2.324v5.559h-2.172v4.738h-2.328v-4.738h-2.172v-5.559h-2.332v-6.128h2.332v-5.567h2.172v-4.73h2.328zM41.733 43.395V38.66h-2.171v-5.562h-2.333v-6.125h2.333v-5.571h2.171v-4.73h2.329v4.73h2.167v5.571h2.329v6.125h-2.329v5.562h-2.167v4.735h-2.329zM41.733 233.598v4.73h-2.171v5.567h-2.333v6.128h2.333v5.559h2.171v4.738h2.329v-4.738h2.167v-5.559h2.329v-6.128h-2.329v-5.567h-2.167v-4.73h-2.329z"/><path fill="#ed3424" d="M12.944 19.18v-5.692h-1.976v5.692h1.976zM33.433 46.496v-5.66h-1.707v5.66h1.707zM33.433 15.238V9.016h-1.707v6.222h1.707zM33.433 125.891v-6.258h-1.707v6.258h1.707zM12.944 46.582v-5.66h-1.976v5.66h1.976zM12.944 74.348v-5.582h-1.976v5.582h1.976zM12.944 103.656v-5.465h-1.976v5.465h1.976zM12.944 258.148v5.356h-1.976v-5.356h1.976zM23.132 243.848v6.254h-1.703v-6.254h1.703zM33.433 230.43v5.824h-1.707v-5.824h1.707zM33.433 261.754v6.262h-1.707v-6.262h1.707zM33.433 151.102v6.253h-1.707v-6.253h1.707zM12.944 230.34v5.828h-1.976v-5.828h1.976zM12.944 202.281v6.254h-1.976v-6.254h1.976zM12.944 173.508v5.914h-1.976v-5.914h1.976zM12.944 141.508v-5.996h-1.976v5.996h1.976zM26.218 141.508v-5.996h-1.711v5.996h1.711zM52.206 19.18v-5.692h1.984v5.692h-1.984zM42.022 33.145v-6.258h1.707v6.258h-1.707zM52.206 46.582v-5.66h1.984v5.66h-1.984zM52.206 74.348v-5.582h1.984v5.582h-1.984zM52.206 103.656v-5.465h1.984v5.465h-1.984zM52.206 258.148v5.356h1.984v-5.356h-1.984zM42.022 243.848v6.254h1.707v-6.254h-1.707zM52.206 230.34v5.828h1.984v-5.828h-1.984zM52.206 202.281v6.254h1.984v-6.254h-1.984zM52.206 173.508v5.914h1.984v-5.914h-1.984zM52.206 141.508v-5.996h1.984v5.996h-1.984zM38.94 141.508v-5.996h1.707v5.996H38.94zM33.433 68.383v5.578h-1.707v-5.578h1.707zM33.433 208.961v-6.25h-1.707v6.25h1.707z"/><path fill="#fff" d="M16.073 59.246v-3.609h-1.277v3.609h1.277zM29.804 59.246v-3.609h-1.278v3.609h1.278zM16.073 217.742v3.613h-1.277v-3.613h1.277zM29.804 217.742v3.613h-1.278v-3.613h1.278zM49.085 59.246v-3.609h1.273v3.609h-1.273zM35.354 59.246v-3.609h1.274v3.609h-1.274zM49.085 217.742v3.613h1.273v-3.613h-1.273zM35.354 217.742v3.613h1.274v-3.613h-1.274zM23.132 33.145v-6.258h-1.703v6.258h1.703z"/></g></svg>