<svg xmlns="http://www.w3.org/2000/svg" viewBox="0 0 499.839 277.402"><path fill="#f7e214" d="M499.839 184.809h-500V92.215h500v92.594z"/><path fill="#d81e05" d="M499.839 92.215h-500V-.375h500v92.59z"/><path fill="#007a3d" d="M-.161 277.402h500v-92.593h-500v92.593z"/><g><path d="M234.003 167.859c-1.699 1.879-2.984 3.074-1.793 3.758.941.539 1.527 1.391 1.84 2.328.289.863 1.117 1.16 1.613-.219.406-1.125 4.617-8.242 5.953-9.543l-7.613 3.676z" fill="#5c5b3d"/><path d="M234.003 167.859c-1.699 1.879-2.984 3.074-1.793 3.758.941.539 1.527 1.391 1.84 2.328.289.863 1.117 1.16 1.613-.219.406-1.125 4.617-8.242 5.953-9.543l-7.613 3.676z" fill="none" stroke="#000" stroke-width=".057"/><path d="M230.761 167.547c-1.703 1.883-2.992 3.07-1.797 3.758.949.543 1.523 1.395 1.844 2.332.285.859 1.113 1.148 1.605-.223.406-1.121 2.375-4.75 3.719-6.047l-5.371.18z" fill="#5c5b3d"/><path d="M230.761 167.547c-1.703 1.883-2.992 3.07-1.797 3.758.949.543 1.523 1.395 1.844 2.332.285.859 1.113 1.148 1.605-.223.406-1.121 2.375-4.75 3.719-6.047l-5.371.18z" fill="none" stroke="#000" stroke-width=".057"/><path d="M265.671 167.859c1.703 1.879 3 3.074 1.789 3.758-.934.539-1.516 1.391-1.836 2.328-.285.863-1.113 1.16-1.605-.219-.41-1.125-4.621-8.242-5.965-9.543l7.617 3.676z" fill="#5c5b3d"/><path d="M265.671 167.859c1.703 1.879 3 3.074 1.789 3.758-.934.539-1.516 1.391-1.836 2.328-.285.863-1.113 1.16-1.605-.219-.41-1.125-4.621-8.242-5.965-9.543l7.617 3.676z" fill="none" stroke="#000" stroke-width=".057"/><path d="M268.921 167.547c1.703 1.883 2.988 3.07 1.789 3.758-.941.543-1.527 1.395-1.836 2.332-.285.859-1.121 1.148-1.617-.223-.398-1.121-2.367-4.75-3.715-6.047l5.379.18z" fill="#5c5b3d"/><path d="M268.921 167.547c1.703 1.883 2.988 3.07 1.789 3.758-.941.543-1.527 1.395-1.836 2.332-.285.859-1.121 1.148-1.617-.223-.398-1.121-2.367-4.75-3.715-6.047l5.379.18z" fill="none" stroke="#000" stroke-width=".057"/><path d="M253.065 128.711c10.367-.855 12.93-9.145 12.742-16.152.461 4.555-.164 15.062-12.73 16.645" fill="#008248"/><path d="M253.065 128.711c10.367-.855 12.93-9.145 12.742-16.152.461 4.555-.164 15.062-12.73 16.645" fill="none" stroke="#000" stroke-width=".057"/><path d="M265.862 113.277c.141-.977.102-2.258-.523-2.746-.625-.48-.582-.074-.508.578.188 1.492 1.043 2.09.988 2.645" fill="#008248"/><path d="M265.862 113.277c.141-.977.102-2.258-.523-2.746-.625-.48-.582-.074-.508.578.188 1.492 1.043 2.09.988 2.645" fill="none" stroke="#000" stroke-width=".057"/><path d="M265.8 113.07c-.02-1.254.57-2.973 1.031-3.461.449-.492.699-.566.68.578-.051 2.441-1.637 2.754-1.668 3.312" fill="#008248"/><path d="M265.8 113.07c-.02-1.254.57-2.973 1.031-3.461.449-.492.699-.566.68.578-.051 2.441-1.637 2.754-1.668 3.312" fill="none" stroke="#000" stroke-width=".057"/><path d="M265.788 114.953c.074-.91.188-2.016 1.504-2.469.895-.309.914.18.578.859-.43.871-1.906.859-2.051 2.219" fill="#008248"/><path d="M265.788 114.953c.074-.91.188-2.016 1.504-2.469.895-.309.914.18.578.859-.43.871-1.906.859-2.051 2.219" fill="none" stroke="#000" stroke-width=".057"/><path d="M265.827 115.363c.117-1.141-.238-2.543-1.059-3.109-.773-.539-1.035-.438-.887.309.297 1.492 1.98 1.836 1.871 3.02" fill="#008248"/><path d="M265.827 115.363c.117-1.141-.238-2.543-1.059-3.109-.773-.539-1.035-.438-.887.309.297 1.492 1.98 1.836 1.871 3.02" fill="none" stroke="#000" stroke-width=".057"/><path d="M265.659 116.52c.094-.938.773-1.863 1.578-1.887.816-.023 1.148-.113.734.648-.551.996-2.117.441-2.23 1.398" fill="#008248"/><path d="M265.659 116.52c.094-.938.773-1.863 1.578-1.887.816-.023 1.148-.113.734.648-.551.996-2.117.441-2.23 1.398" fill="none" stroke="#000" stroke-width=".057"/><path d="M265.577 117.457c.164-.777-.191-2.141-.781-2.781-.598-.637-1.262-1.211-1.289-.27-.059 1.898 2.234 2.254 1.898 3.758" fill="#008248"/><path d="M265.577 117.457c.164-.777-.191-2.141-.781-2.781-.598-.637-1.262-1.211-1.289-.27-.059 1.898 2.234 2.254 1.898 3.758" fill="none" stroke="#000" stroke-width=".057"/><path d="M265.284 118.629c.375-1.727 1.355-2.461 2.227-2.414.785.047.75.293.332.852-.414.562-2.078.223-2.523 1.898" fill="#008248"/><path d="M265.284 118.629c.375-1.727 1.355-2.461 2.227-2.414.785.047.75.293.332.852-.414.562-2.078.223-2.523 1.898" fill="none" stroke="#000" stroke-width=".057"/><path d="M265.018 119.469c.156-.781-.195-2.148-.785-2.785-.598-.637-1.254-1.215-1.289-.269-.059 1.898 2.23 2.254 1.898 3.754" fill="#008248"/><path d="M265.018 119.469c.156-.781-.195-2.148-.785-2.785-.598-.637-1.254-1.215-1.289-.269-.059 1.898 2.23 2.254 1.898 3.754" fill="none" stroke="#000" stroke-width=".057"/><path d="M265.046 119.707c.309-.73 1.363-1.668 2.211-1.859.848-.199 1.723-.301 1.223.492-1.02 1.617-3.113.617-3.684 2.051" fill="#008248"/><path d="M265.046 119.707c.309-.73 1.363-1.668 2.211-1.859.848-.199 1.723-.301 1.223.492-1.02 1.617-3.113.617-3.684 2.051" fill="none" stroke="#000" stroke-width=".057"/><path d="M264.425 121.274c.105-1.137-.293-2.438-1.113-3.004-.773-.535-1.039-.434-.887.312.289 1.492 1.977 1.836 1.871 3.02" fill="#008248"/><path d="M264.425 121.274c.105-1.137-.293-2.438-1.113-3.004-.773-.535-1.039-.434-.887.312.289 1.492 1.977 1.836 1.871 3.02" fill="none" stroke="#000" stroke-width=".057"/><path d="M264.37 121.453c.684-.922 1.852-1.609 2.84-1.469.938.121 1.059.371.449.824-1.227.906-2.707.027-3.418.969" fill="#008248"/><path d="M264.37 121.453c.684-.922 1.852-1.609 2.84-1.469.938.121 1.059.371.449.824-1.227.906-2.707.027-3.418.969" fill="none" stroke="#000" stroke-width=".057"/><path d="M263.479 123.082c.285-1.242-.121-2.555-.977-3.188-.766-.562-1.031-.473-.902.273.246 1.516 1.824 1.996 1.676 3.172" fill="#008248"/><path d="M263.479 123.082c.285-1.242-.121-2.555-.977-3.188-.766-.562-1.031-.473-.902.273.246 1.516 1.824 1.996 1.676 3.172" fill="none" stroke="#000" stroke-width=".057"/><path d="M263.249 123.359c.691-1.062 2.07-1.59 3.211-1.391.926.16 1.051.41.418.844-1.254.867-2.93-.047-3.676.875" fill="#008248"/><path d="M263.249 123.359c.691-1.062 2.07-1.59 3.211-1.391.926.16 1.051.41.418.844-1.254.867-2.93-.047-3.676.875" fill="none" stroke="#000" stroke-width=".057"/><path d="M262.233 124.649c.422-1.203.168-2.551-.605-3.285-.691-.645-.969-.582-.926.176.066 1.527 1.578 2.184 1.293 3.34" fill="#008248"/><path d="M262.233 124.649c.422-1.203.168-2.551-.605-3.285-.691-.645-.969-.582-.926.176.066 1.527 1.578 2.184 1.293 3.34" fill="none" stroke="#000" stroke-width=".057"/><path d="M261.968 124.899c.816-.98 2.238-1.344 3.352-1.016.902.27.988.527.316.887-1.34.715-2.902-.391-3.742.441" fill="#008248"/><path d="M261.968 124.899c.816-.98 2.238-1.344 3.352-1.016.902.27.988.527.316.887-1.34.715-2.902-.391-3.742.441" fill="none" stroke="#000" stroke-width=".057"/><path d="M260.89 125.91c.516-1.168.359-2.531-.359-3.316-.645-.699-.922-.656-.941.105-.043 1.527 1.422 2.293 1.059 3.426" fill="#008248"/><path d="M260.89 125.91c.516-1.168.359-2.531-.359-3.316-.645-.699-.922-.656-.941.105-.043 1.527 1.422 2.293 1.059 3.426" fill="none" stroke="#000" stroke-width=".057"/><path d="M260.612 126.141c.887-.918 2.324-1.176 3.41-.77.883.336.957.606.258.914-1.395.613-2.867-.609-3.762.168" fill="#008248"/><path d="M260.612 126.141c.887-.918 2.324-1.176 3.41-.77.883.336.957.606.258.914-1.395.613-2.867-.609-3.762.168" fill="none" stroke="#000" stroke-width=".057"/><path d="M259.284 127.02c.672-1.082.711-2.457.109-3.332-.539-.777-.824-.777-.945-.027-.258 1.504 1.086 2.465.562 3.539" fill="#008248"/><path d="M259.284 127.02c.672-1.082.711-2.457.109-3.332-.539-.777-.824-.777-.945-.027-.258 1.504 1.086 2.465.562 3.539" fill="none" stroke="#000" stroke-width=".057"/><path d="M258.882 127.254c.977-.812 2.441-.918 3.473-.391.84.43.883.703.156.934-1.457.457-2.785-.914-3.762-.246" fill="#008248"/><path d="M258.882 127.254c.977-.812 2.441-.918 3.473-.391.84.43.883.703.156.934-1.457.457-2.785-.914-3.762-.246" fill="none" stroke="#000" stroke-width=".057"/><path d="M257.542 127.797c.82-.973 1.062-2.324.594-3.281-.418-.852-.695-.891-.93-.168-.473 1.449.707 2.605.027 3.582" fill="#008248"/><path d="M257.542 127.797c.82-.973 1.062-2.324.594-3.281-.418-.852-.695-.891-.93-.168-.473 1.449.707 2.605.027 3.582" fill="none" stroke="#000" stroke-width=".057"/><path d="M257.101 127.969c1.09-.66 2.547-.543 3.492.133.773.547.773.824.02.941-1.504.238-2.617-1.316-3.688-.801" fill="#008248"/><path d="M257.101 127.969c1.09-.66 2.547-.543 3.492.133.773.547.773.824.02.941-1.504.238-2.617-1.316-3.688-.801" fill="none" stroke="#000" stroke-width=".057"/><path d="M246.616 128.711c-10.363-.855-12.941-9.145-12.75-16.152-.457 4.555.168 15.062 12.727 16.645" fill="#008248"/><path d="M246.616 128.711c-10.363-.855-12.941-9.145-12.75-16.152-.457 4.555.168 15.062 12.727 16.645" fill="none" stroke="#000" stroke-width=".057"/><path d="M233.819 113.277c-.145-.977-.102-2.258.52-2.746.625-.48.586-.074.512.578-.191 1.492-1.047 2.09-.992 2.645" fill="#008248"/><path d="M233.819 113.277c-.145-.977-.102-2.258.52-2.746.625-.48.586-.074.512.578-.191 1.492-1.047 2.09-.992 2.645" fill="none" stroke="#000" stroke-width=".057"/><path d="M233.874 113.07c.023-1.254-.57-2.973-1.019-3.461-.453-.492-.711-.566-.684.578.039 2.441 1.633 2.754 1.66 3.312" fill="#008248"/><path d="M233.874 113.07c.023-1.254-.57-2.973-1.019-3.461-.453-.492-.711-.566-.684.578.039 2.441 1.633 2.754 1.66 3.312" fill="none" stroke="#000" stroke-width=".057"/><path d="M233.893 114.953c-.074-.91-.199-2.016-1.508-2.469-.895-.309-.914.18-.582.859.434.871 1.914.859 2.055 2.219" fill="#008248"/><path d="M233.893 114.953c-.074-.91-.199-2.016-1.508-2.469-.895-.309-.914.18-.582.859.434.871 1.914.859 2.055 2.219" fill="none" stroke="#000" stroke-width=".057"/><path d="M233.847 115.363c-.109-1.141.242-2.543 1.062-3.109.773-.539 1.039-.438.891.309-.301 1.492-1.98 1.836-1.875 3.02" fill="#008248"/><path d="M233.847 115.363c-.109-1.141.242-2.543 1.062-3.109.773-.539 1.039-.438.891.309-.301 1.492-1.98 1.836-1.875 3.02" fill="none" stroke="#000" stroke-width=".057"/><path d="M234.022 116.52c-.098-.938-.773-1.863-1.582-1.887-.812-.023-1.145-.113-.73.648.547.996 2.113.441 2.23 1.398" fill="#008248"/><path d="M234.022 116.52c-.098-.938-.773-1.863-1.582-1.887-.812-.023-1.145-.113-.73.648.547.996 2.113.441 2.23 1.398" fill="none" stroke="#000" stroke-width=".057"/><path d="M234.105 117.457c-.164-.777.188-2.141.777-2.781.598-.637 1.262-1.211 1.289-.27.062 1.898-2.23 2.254-1.898 3.758" fill="#008248"/><path d="M234.105 117.457c-.164-.777.188-2.141.777-2.781.598-.637 1.262-1.211 1.289-.27.062 1.898-2.23 2.254-1.898 3.758" fill="none" stroke="#000" stroke-width=".057"/><path d="M234.386 118.629c-.363-1.727-1.348-2.461-2.215-2.414-.789.047-.754.293-.34.852.414.562 2.074.223 2.531 1.898" fill="#008248"/><path d="M234.386 118.629c-.363-1.727-1.348-2.461-2.215-2.414-.789.047-.754.293-.34.852.414.562 2.074.223 2.531 1.898" fill="none" stroke="#000" stroke-width=".057"/><path d="M234.659 119.469c-.156-.781.195-2.148.785-2.785.59-.637 1.254-1.215 1.289-.269.062 1.898-2.23 2.254-1.898 3.754" fill="#008248"/><path d="M234.659 119.469c-.156-.781.195-2.148.785-2.785.59-.637 1.254-1.215 1.289-.269.062 1.898-2.23 2.254-1.898 3.754" fill="none" stroke="#000" stroke-width=".057"/><path d="M234.632 119.707c-.312-.73-1.363-1.668-2.219-1.859-.84-.199-1.715-.301-1.215.492 1.02 1.617 3.113.617 3.684 2.051" fill="#008248"/><path d="M234.632 119.707c-.312-.73-1.363-1.668-2.219-1.859-.84-.199-1.715-.301-1.215.492 1.02 1.617 3.113.617 3.684 2.051" fill="none" stroke="#000" stroke-width=".057"/><path d="M235.257 121.274c-.109-1.137.289-2.438 1.109-3.004.773-.535 1.039-.434.891.312-.301 1.492-1.988 1.836-1.871 3.02" fill="#008248"/><path d="M235.257 121.274c-.109-1.137.289-2.438 1.109-3.004.773-.535 1.039-.434.891.312-.301 1.492-1.988 1.836-1.871 3.02" fill="none" stroke="#000" stroke-width=".057"/><path d="M235.311 121.453c-.688-.922-1.852-1.609-2.844-1.469-.934.121-1.062.371-.445.824 1.227.906 2.703.027 3.418.969" fill="#008248"/><path d="M235.311 121.453c-.688-.922-1.852-1.609-2.844-1.469-.934.121-1.062.371-.445.824 1.227.906 2.703.027 3.418.969" fill="none" stroke="#000" stroke-width=".057"/><path d="M236.198 123.082c-.285-1.242.121-2.555.984-3.188.75-.562 1.023-.473.895.273-.246 1.516-1.824 1.996-1.676 3.172" fill="#008248"/><path d="M236.198 123.082c-.285-1.242.121-2.555.984-3.188.75-.562 1.023-.473.895.273-.246 1.516-1.824 1.996-1.676 3.172" fill="none" stroke="#000" stroke-width=".057"/><path d="M236.429 123.359c-.699-1.062-2.066-1.59-3.207-1.391-.93.16-1.051.41-.422.844 1.254.867 2.93-.047 3.668.875" fill="#008248"/><path d="M236.429 123.359c-.699-1.062-2.066-1.59-3.207-1.391-.93.16-1.051.41-.422.844 1.254.867 2.93-.047 3.668.875" fill="none" stroke="#000" stroke-width=".057"/><path d="M237.444 124.649c-.426-1.203-.168-2.551.613-3.285.684-.645.961-.582.922.176-.074 1.527-1.586 2.184-1.297 3.34" fill="#008248"/><path d="M237.444 124.649c-.426-1.203-.168-2.551.613-3.285.684-.645.961-.582.922.176-.074 1.527-1.586 2.184-1.297 3.34" fill="none" stroke="#000" stroke-width=".057"/><path d="M237.71 124.899c-.82-.98-2.238-1.344-3.344-1.016-.906.27-.996.527-.332.887 1.355.715 2.91-.391 3.75.441" fill="#008248"/><path d="M237.71 124.899c-.82-.98-2.238-1.344-3.344-1.016-.906.27-.996.527-.332.887 1.355.715 2.91-.391 3.75.441" fill="none" stroke="#000" stroke-width=".057"/><path d="M238.788 125.91c-.516-1.168-.359-2.531.359-3.316.645-.699.922-.656.945.105.031 1.527-1.426 2.293-1.059 3.426" fill="#008248"/><path d="M238.788 125.91c-.516-1.168-.359-2.531.359-3.316.645-.699.922-.656.945.105.031 1.527-1.426 2.293-1.059 3.426" fill="none" stroke="#000" stroke-width=".057"/><path d="M239.065 126.141c-.887-.918-2.324-1.176-3.41-.77-.883.336-.957.606-.266.914 1.406.613 2.879-.609 3.777.168" fill="#008248"/><path d="M239.065 126.141c-.887-.918-2.324-1.176-3.41-.77-.883.336-.957.606-.266.914 1.406.613 2.879-.609 3.777.168" fill="none" stroke="#000" stroke-width=".057"/><path d="M240.397 127.02c-.68-1.082-.715-2.457-.109-3.332.543-.777.82-.777.941-.027.25 1.504-1.086 2.465-.562 3.539" fill="#008248"/><path d="M240.397 127.02c-.68-1.082-.715-2.457-.109-3.332.543-.777.82-.777.941-.027.25 1.504-1.086 2.465-.562 3.539" fill="none" stroke="#000" stroke-width=".057"/><path d="M240.804 127.254c-.984-.812-2.449-.918-3.48-.391-.84.43-.879.703-.156.934 1.461.457 2.789-.914 3.766-.246" fill="#008248"/><path d="M240.804 127.254c-.984-.812-2.449-.918-3.48-.391-.84.43-.879.703-.156.934 1.461.457 2.789-.914 3.766-.246" fill="none" stroke="#000" stroke-width=".057"/><path d="M242.14 127.797c-.828-.973-1.066-2.324-.598-3.281.414-.852.691-.891.93-.168.473 1.449-.711 2.605-.035 3.582" fill="#008248"/><path d="M242.14 127.797c-.828-.973-1.066-2.324-.598-3.281.414-.852.691-.891.93-.168.473 1.449-.711 2.605-.035 3.582" fill="none" stroke="#000" stroke-width=".057"/><path d="M242.581 127.969c-1.094-.66-2.559-.543-3.492.133-.773.547-.773.824-.023.941 1.508.238 2.621-1.316 3.691-.801" fill="#008248"/><path d="M242.581 127.969c-1.094-.66-2.559-.543-3.492.133-.773.547-.773.824-.023.941 1.508.238 2.621-1.316 3.691-.801" fill="none" stroke="#000" stroke-width=".057"/><path fill="#5c5b3d" d="M262.538 135.93l20.293-15.477-.594-.59-20.07 15.293.371.774z"/><path fill="none" stroke="#000" stroke-width=".057" d="M262.538 135.93l20.293-15.477-.594-.59-20.07 15.293.371.774z"/><path fill="#5c5b3d" d="M260.925 133.387l16.777-18.621-.691-.477-16.594 18.418.508.68z"/><path fill="none" stroke="#000" stroke-width=".057" d="M260.925 133.387l16.777-18.621-.691-.477-16.594 18.418.508.68z"/><path fill="#5c5b3d" d="M263.659 138.922l23.543-11.043-.453-.707-23.289 10.91.199.84z"/><path fill="none" stroke="#000" stroke-width=".057" d="M263.659 138.922l23.543-11.043-.453-.707-23.289 10.91.199.84z"/><path fill="#5c5b3d" d="M237.14 135.93l-20.289-15.477.589-.59 20.075 15.293-.375.774z"/><path fill="none" stroke="#000" stroke-width=".057" d="M237.14 135.93l-20.289-15.477.589-.59 20.075 15.293-.375.774z"/><path fill="#5c5b3d" d="M238.757 133.387l-16.781-18.621.691-.477 16.598 18.418-.508.68z"/><path fill="none" stroke="#000" stroke-width=".057" d="M238.757 133.387l-16.781-18.621.691-.477 16.598 18.418-.508.68z"/><path fill="#5c5b3d" d="M236.03 138.922l-23.554-11.043.453-.707 23.289 10.91-.188.84z"/><path fill="none" stroke="#000" stroke-width=".057" d="M236.03 138.922l-23.554-11.043.453-.707 23.289 10.91-.188.84z"/><path d="M281.237 121.133c.289.371.555.887.832.672.285-.219-.137-.613-.414-.992-.27-.379-.562-.879-.848-.668-.277.211.137.617.43.988z" fill="#fff"/><path d="M281.237 121.133c.289.371.555.887.832.672.285-.219-.137-.613-.414-.992-.27-.379-.562-.879-.848-.668-.277.211.137.617.43.988z" fill="none" stroke="#000" stroke-width=".057"/><path d="M276.257 115.727c.359.312.715.766.949.512.238-.266-.25-.586-.59-.902-.344-.324-.719-.758-.957-.5-.234.261.246.581.598.89z" fill="#fff"/><path d="M276.257 115.727c.359.312.715.766.949.512.238-.266-.25-.586-.59-.902-.344-.324-.719-.758-.957-.5-.234.261.246.581.598.89z" fill="none" stroke="#000" stroke-width=".057"/><path d="M285.503 128.199c.207.426.352.988.676.836.312-.148-.008-.629-.195-1.059-.199-.434-.375-.977-.688-.832-.324.153 0 .633.207 1.055z" fill="#fff"/><path d="M285.503 128.199c.207.426.352.988.676.836.312-.148-.008-.629-.195-1.059-.199-.434-.375-.977-.688-.832-.324.153 0 .633.207 1.055z" fill="none" stroke="#000" stroke-width=".057"/><path fill="#fff" d="M282.061 120.543l1.922.43 4.489-5.34-6.321 2.941-.09 1.969z"/><path fill="none" stroke="#000" stroke-width=".057" d="M282.061 120.543l1.922.43 4.489-5.34-6.321 2.941-.09 1.969z"/><path fill="#fff" d="M276.956 114.996l1.973.067 3.425-6.075-5.668 4.059.27 1.949z"/><path fill="none" stroke="#000" stroke-width=".057" d="M276.956 114.996l1.973.067 3.425-6.075-5.668 4.059.27 1.949z"/><path fill="#fff" d="M286.429 127.801l1.793.82 5.511-4.262-6.8 1.54-.504 1.902z"/><path fill="none" stroke="#000" stroke-width=".057" d="M286.429 127.801l1.793.82 5.511-4.262-6.8 1.54-.504 1.902z"/><path d="M218.444 121.133c-.293.371-.555.887-.84.672-.274-.219.133-.613.418-.992.277-.379.562-.879.844-.668.281.211-.129.617-.422.988z" fill="#fff"/><path d="M218.444 121.133c-.293.371-.555.887-.84.672-.274-.219.133-.613.418-.992.277-.379.562-.879.844-.668.281.211-.129.617-.422.988z" fill="none" stroke="#000" stroke-width=".057"/><path d="M223.413 115.727c-.344.312-.703.766-.941.512-.238-.266.25-.586.598-.902.34-.324.711-.758.949-.5.238.261-.247.581-.606.89z" fill="#fff"/><path d="M223.413 115.727c-.344.312-.703.766-.941.512-.238-.266.25-.586.598-.902.34-.324.711-.758.949-.5.238.261-.247.581-.606.89z" fill="none" stroke="#000" stroke-width=".057"/><path d="M214.179 128.199c-.211.426-.359.988-.68.836-.316-.148.008-.629.199-1.059.188-.434.363-.977.684-.832.32.153 0 .633-.203 1.055z" fill="#fff"/><path d="M214.179 128.199c-.211.426-.359.988-.68.836-.316-.148.008-.629.199-1.059.188-.434.363-.977.684-.832.32.153 0 .633-.203 1.055z" fill="none" stroke="#000" stroke-width=".057"/><path fill="#fff" d="M217.616 120.543l-1.918.43-4.492-5.34 6.32 2.941.09 1.969z"/><path fill="none" stroke="#000" stroke-width=".057" d="M217.616 120.543l-1.918.43-4.492-5.34 6.32 2.941.09 1.969z"/><path fill="#fff" d="M222.718 114.996l-1.969.067-3.418-6.075 5.664 4.059-.277 1.949z"/><path fill="none" stroke="#000" stroke-width=".057" d="M222.718 114.996l-1.969.067-3.418-6.075 5.664 4.059-.277 1.949z"/><path fill="#fff" d="M213.249 127.801l-1.789.82-5.516-4.262 6.805 1.54.5 1.902z"/><path d="M213.249 127.801l-1.789.82-5.516-4.262 6.805 1.539.5 1.903zm75.223-12.168l-6.41 4.91m.292-11.555l-5.398 6.008m16.777 9.363l-7.305 3.441m-75.222-12.167l6.41 4.91m-.285-11.555l5.387 6.008m-16.774 9.363l7.305 3.441" fill="none" stroke="#000" stroke-width=".057"/><path fill="#fff" d="M256.21 134.25l12.066-16.891 1.465-.312 3.656-7.047-5.007 6.184-.977.242-12.07 16.89.867.934z"/><path fill="none" stroke="#000" stroke-width=".057" d="M256.21 134.25l12.066-16.891 1.465-.312 3.656-7.047-5.007 6.184-.977.242-12.07 16.89.867.934z"/><path fill="#fff" d="M257.683 136.312l12.066-16.89 1.465-.309 3.648-7.047-5.008 6.18-.968.242-12.071 16.895.868.929z"/><path fill="none" stroke="#000" stroke-width=".057" d="M257.683 136.312l12.066-16.89 1.465-.309 3.648-7.047-5.008 6.18-.968.242-12.071 16.895.868.929z"/><path fill="#fff" d="M243.476 134.25l-12.079-16.891-1.457-.312-3.648-7.047 5.004 6.184.969.242 12.07 16.89-.859.934z"/><path fill="none" stroke="#000" stroke-width=".057" d="M243.476 134.25l-12.079-16.891-1.457-.312-3.648-7.047 5.004 6.184.969.242 12.07 16.89-.859.934z"/><path fill="#fff" d="M241.995 136.312l-12.07-16.89-1.457-.309-3.657-7.047 5.012 6.18.969.242 12.074 16.895-.871.929z"/><path fill="none" stroke="#000" stroke-width=".057" d="M241.995 136.312l-12.07-16.89-1.457-.309-3.657-7.047 5.012 6.18.969.242 12.074 16.895-.871.929z"/><path d="M245.28 164.637v6.379c0-.734-2.402.113-3.141.559v-8.641c.895.714 2.477 1.386 3.141 1.703z" fill="#008248"/><path d="M245.28 164.637v6.379c0-.734-2.402.113-3.141.559v-8.641c.895.714 2.477 1.386 3.141 1.703z" fill="none" stroke="#000" stroke-width=".057"/><path d="M254.393 164.637v6.379c0-.734 2.414.113 3.148.559v-8.641c-.898.714-2.476 1.386-3.148 1.703z" fill="#008248"/><path d="M254.393 164.637v6.379c0-.734 2.414.113 3.148.559v-8.641c-.898.714-2.476 1.386-3.148 1.703z" fill="none" stroke="#000" stroke-width=".057"/><path d="M246.913 165.258v7.582c0 .238-.156.492-.699.73-.48.207-.562.398-.562.824v-1.715c-.082.035-.156.07-.238.105-.602.246-1.52.445-1.52 0 0-.898-.004-1.891-.004-1.891.73-.203 1.391-.266 1.391.121v-6.379c.39.174 1.179.537 1.632.623z" fill="#ffe01b"/><path d="M246.913 165.258v7.582c0 .238-.156.492-.699.73-.48.207-.562.398-.562.824v-1.715c-.082.035-.156.07-.238.105-.602.246-1.52.445-1.52 0 0-.898-.004-1.891-.004-1.891.73-.203 1.391-.266 1.391.121v-6.379c.39.174 1.179.537 1.632.623z" fill="none" stroke="#000" stroke-width=".057"/><path d="M249.011 165.438v9.293c-.516-.242-1.297-.133-1.793.051-1.117.402-1.566.02-1.566-.387 0-.426.082-.617.562-.824.543-.238.699-.492.699-.73v-8.113c.461.217 1.762.667 2.098.71z" fill="#e03a3e"/><path d="M249.011 165.438v9.293c-.516-.242-1.297-.133-1.793.051-1.117.402-1.566.02-1.566-.387 0-.426.082-.617.562-.824.543-.238.699-.492.699-.73v-8.113c.461.217 1.762.667 2.098.71zm-3.731 5.578c0 .348-.016.602-.652.914-.617.309-.734.453-.734.855m1.757-.105c.691-.281 1.262-.434 1.262.16" fill="none" stroke="#000" stroke-width=".057"/><path d="M252.765 165.258v7.582c0 .238.156.492.691.73.496.207.57.398.57.824v-1.715c.074.035.156.07.238.105.605.246 1.52.445 1.52 0 0-.898.008-1.891.008-1.891-.734-.203-1.399-.266-1.399.121v-6.379c-.394.174-1.171.537-1.628.623z" fill="#ffe01b"/><path d="M252.765 165.258v7.582c0 .238.156.492.691.73.496.207.57.398.57.824v-1.715c.074.035.156.07.238.105.605.246 1.52.445 1.52 0 0-.898.008-1.891.008-1.891-.734-.203-1.399-.266-1.399.121v-6.379c-.394.174-1.171.537-1.628.623z" fill="none" stroke="#000" stroke-width=".057"/><path d="M250.671 165.438v9.293c.516-.242 1.293-.133 1.789.051 1.113.402 1.566.02 1.566-.387 0-.426-.074-.617-.57-.824-.535-.238-.691-.492-.691-.73v-8.113c-.465.217-1.762.667-2.094.71z" fill="#e03a3e"/><path d="M250.671 165.438v9.293c.516-.242 1.293-.133 1.789.051 1.113.402 1.566.02 1.566-.387 0-.426-.074-.617-.57-.824-.535-.238-.691-.492-.691-.73v-8.113c-.465.217-1.762.667-2.094.71zm3.722 5.578c0 .348.012.602.656.914.617.309.734.453.734.855m-1.757-.105c-.699-.281-1.262-.434-1.262.16" fill="none" stroke="#000" stroke-width=".057"/><path d="M250.671 165.438v7.66c-.184-.121-.562-.188-.836-.188-.262 0-.648.066-.824.188v-7.66h1.66z" fill="#fff"/><path d="M250.671 165.438v7.66c-.184-.121-.562-.188-.836-.188-.262 0-.648.066-.824.188v-7.66h1.66z" fill="none" stroke="#000" stroke-width=".057"/><path d="M254.405 157.781c5.914 5.555 20.516 8.062 20.516-6.984v-25.359l-6 4.574v18.457c0 6.265-4.031 12.453-14.516 9.312z" fill="#ffe01b"/><path d="M254.405 157.781c5.914 5.555 20.516 8.062 20.516-6.984v-25.359l-6 4.574v18.457c0 6.265-4.031 12.453-14.516 9.312z" fill="none" stroke="#000" stroke-width=".057"/><path d="M274.921 125.438v25.359c0 15.047-14.602 12.539-20.516 6.984 17.734 16.84 26.52 3.582 26.52-6.629v-30.277l-6.004 4.563z" fill="#e03a3e"/><path d="M274.921 125.438v25.359c0 15.047-14.602 12.539-20.516 6.984 17.734 16.84 26.52 3.582 26.52-6.629v-30.277l-6.004 4.563z" fill="none" stroke="#000" stroke-width=".057"/><path d="M254.405 157.781c10.484 3.141 14.516-3.047 14.516-9.312v-18.457l-6.207 4.73c0 8.832.828 24.649-8.309 23.039z" fill="#008248"/><path d="M254.405 157.781c10.484 3.141 14.516-3.047 14.516-9.312v-18.457l-6.207 4.73c0 8.832.828 24.649-8.309 23.039z" fill="none" stroke="#000" stroke-width=".057"/><path d="M285.21 127.883v26.312c0 12.012-16.473 24.004-33.129 4.664l2.324-1.078c17.734 16.84 26.52 3.582 26.52-6.629v-21.25l4.285-2.019z" fill="#e03a3e"/><path d="M285.21 127.883v26.312c0 12.012-16.473 24.004-33.129 4.664l2.324-1.078c17.734 16.84 26.52 3.582 26.52-6.629v-21.25l4.285-2.019z" fill="none" stroke="#000" stroke-width=".057"/><path d="M245.265 157.781c-5.906 5.555-20.508 8.062-20.508-6.984v-25.359l6.004 4.574v18.457c0 6.265 4.027 12.453 14.504 9.312z" fill="#ffe01b"/><path d="M245.265 157.781c-5.906 5.555-20.508 8.062-20.508-6.984v-25.359l6.004 4.574v18.457c0 6.265 4.027 12.453 14.504 9.312z" fill="none" stroke="#000" stroke-width=".057"/><path d="M224.757 125.438v25.359c0 15.047 14.602 12.539 20.508 6.984-17.727 16.84-26.516 3.582-26.516-6.629v-30.277l6.008 4.563z" fill="#e03a3e"/><path d="M224.757 125.438v25.359c0 15.047 14.602 12.539 20.508 6.984-17.727 16.84-26.516 3.582-26.516-6.629v-30.277l6.008 4.563z" fill="none" stroke="#000" stroke-width=".057"/><path d="M245.265 157.781c-10.477 3.141-14.504-3.047-14.504-9.312v-18.457l6.203 4.73c0 8.832-.832 24.649 8.301 23.039z" fill="#008248"/><path d="M245.265 157.781c-10.477 3.141-14.504-3.047-14.504-9.312v-18.457l6.203 4.73c0 8.832-.832 24.649 8.301 23.039z" fill="none" stroke="#000" stroke-width=".057"/><path d="M214.472 127.883v26.312c0 12.012 16.465 24.004 33.125 4.664l-2.332-1.078c-17.727 16.84-26.516 3.582-26.516-6.629v-21.25l-4.277-2.019z" fill="#e03a3e"/><path d="M214.472 127.883v26.312c0 12.012 16.465 24.004 33.125 4.664l-2.332-1.078c-17.727 16.84-26.516 3.582-26.516-6.629v-21.25l-4.277-2.019z" fill="none" stroke="#000" stroke-width=".057"/><path fill="#e03a3e" d="M275.96 115.465v9.203l-4.043 3.059v-7.805l4.043-4.457z"/><path fill="none" stroke="#000" stroke-width=".057" d="M275.96 115.465v9.203l-4.043 3.059v-7.805l4.043-4.457z"/><path fill="#ffe01b" d="M271.917 119.922l-5.649 6.281v5.828l5.649-4.304v-7.805z"/><path fill="none" stroke="#000" stroke-width=".057" d="M271.917 119.922l-5.649 6.281v5.828l5.649-4.304v-7.805z"/><path fill="#008248" d="M266.268 126.203l-4.714 5.231v4.179l4.714-3.582v-5.828z"/><path fill="none" stroke="#000" stroke-width=".057" d="M266.268 126.203l-4.714 5.231v4.179l4.714-3.582v-5.828z"/><path fill="#e03a3e" d="M223.722 115.465v9.203l4.035 3.059v-7.805l-4.035-4.457z"/><path fill="none" stroke="#000" stroke-width=".057" d="M223.722 115.465v9.203l4.035 3.059v-7.805l-4.035-4.457z"/><path fill="#ffe01b" d="M227.757 119.922l5.652 6.281v5.828l-5.652-4.304v-7.805z"/><path fill="none" stroke="#000" stroke-width=".057" d="M227.757 119.922l5.652 6.281v5.828l-5.652-4.304v-7.805z"/><path fill="#008248" d="M233.409 126.203l4.723 5.231v4.179l-4.723-3.582v-5.828z"/><path fill="none" stroke="#000" stroke-width=".057" d="M233.409 126.203l4.723 5.231v4.179l-4.723-3.582v-5.828z"/><path d="M237.058 121.5c.312.379-.324 1.426-1.438 2.34-1.105.918-2.211 1.324-2.562.98-1.266-1.258-1.539-3.234-1.219-4.617.305-1.391 1.246-2.285 2.23-2.012.988.266 1.035 1.16.941 1.699.809.313 1.583.985 2.048 1.61z" fill="#e03a3e"/><path d="M237.058 121.5c.312.379-.324 1.426-1.438 2.34-1.105.918-2.211 1.324-2.562.98-1.266-1.258-1.539-3.234-1.219-4.617.305-1.391 1.246-2.285 2.23-2.012.988.266 1.035 1.16.941 1.699.809.313 1.583.985 2.048 1.61zm-.766-.809c.332.875-1.164 2.109-2.242 2.785m.961-3.585c-.332-.133-1.16-.133-1.473.246" fill="none" stroke="#000" stroke-width=".057"/><path d="M262.472 124.367l4.523-5.957c.535-.648 1.469.215 1.043.816l-4.531 5.953" fill="#fff"/><path d="M262.472 124.367l4.523-5.957c.535-.648 1.469.215 1.043.816l-4.531 5.953" fill="none" stroke="#000" stroke-width=".057"/><path d="M265.765 122.215c1.262.949 3.031 2.434 3.312 4.633 1.031-.438 1.98-1.34 2.656-2.234.68-.898 1.332-1.875 1.438-3.16-2.195.316-4.094-.992-5.352-1.949l-2.054 2.71z" fill="#fff"/><path d="M265.765 122.215c1.262.949 3.031 2.434 3.312 4.633 1.031-.438 1.98-1.34 2.656-2.234.68-.898 1.332-1.875 1.438-3.16-2.195.316-4.094-.992-5.352-1.949l-2.054 2.71z" fill="none" stroke="#000" stroke-width=".057"/><path d="M234.788 164.766l30.523-38.09-4.516-3.684-31.516 36.98c.767 1.524 2.919 4.079 5.509 4.794z" fill="#ffe01b"/><path d="M234.788 164.766l30.523-38.09-4.516-3.684-31.516 36.98c.767 1.524 2.919 4.079 5.509 4.794z" fill="none" stroke="#000" stroke-width=".057"/><path d="M259.874 128.672c1.125.934 2.285 1.25 2.887 1.195.512-.051.918-.625.746-.941-.25.316-1.383.398-3.035-.961-1.656-1.371-1.773-2.5-1.508-2.801-.344-.113-.848.426-.805.941.059.602.59 1.629 1.715 2.567z" fill="#ffe01b"/><path d="M259.874 128.672c1.125.934 2.285 1.25 2.887 1.195.512-.051.918-.625.746-.941-.25.316-1.383.398-3.035-.961-1.656-1.371-1.773-2.5-1.508-2.801-.344-.113-.848.426-.805.941.059.602.59 1.629 1.715 2.567z" fill="none" stroke="#000" stroke-width=".057"/><path d="M234.897 158.887c1.355 1.129 2.746 1.508 3.473 1.441.617-.062 1.109-.754.898-1.137-.297.383-1.668.488-3.66-1.156-1.992-1.652-2.137-3.016-1.812-3.379-.426-.133-1.027.516-.977 1.133.071.731.715 1.965 2.078 3.098z" fill="#ffe01b"/><path d="M234.897 158.887c1.355 1.129 2.746 1.508 3.473 1.441.617-.062 1.109-.754.898-1.137-.297.383-1.668.488-3.66-1.156-1.992-1.652-2.137-3.016-1.812-3.379-.426-.133-1.027.516-.977 1.133.071.731.715 1.965 2.078 3.098z" fill="none" stroke="#000" stroke-width=".057"/><path d="M230.128 163.523c-1.133-.168-2.074 1.359-.934 2.305 1.145.953 2.48-.281 2.074-1.379" fill="#ffe01b"/><path d="M230.128 163.523c-1.133-.168-2.074 1.359-.934 2.305 1.145.953 2.48-.281 2.074-1.379" fill="none" stroke="#000" stroke-width=".057"/><path fill="#ffe01b" d="M231.046 164.73l.98-1.195-1.144-.918-1.039 1.266"/><path fill="none" stroke="#000" stroke-width=".057" d="M231.046 164.73l.98-1.195-1.144-.918-1.039 1.266"/><path d="M231.112 163.469c1.383 1.156 2.809 1.543 3.547 1.469.637-.062 1.141-.762.922-1.156-.305.395-1.707.496-3.738-1.184-2.039-1.684-2.188-3.082-1.855-3.453-.43-.137-1.051.527-.992 1.164.069.742.718 2.007 2.116 3.16z" fill="#ffe01b"/><path d="M231.112 163.469c1.383 1.156 2.809 1.543 3.547 1.469.637-.062 1.141-.762.922-1.156-.305.395-1.707.496-3.738-1.184-2.039-1.684-2.188-3.082-1.855-3.453-.43-.137-1.051.527-.992 1.164.069.742.718 2.007 2.116 3.16z" fill="none" stroke="#000" stroke-width=".057"/><path d="M262.253 125.82c1.25 1.008 2.617 1.395 3.059.855.449-.543-.211-1.805-1.449-2.824-1.25-1.016-2.621-1.402-3.066-.859-.443.543.21 1.809 1.456 2.828z" fill="#ffe01b"/><path d="M262.253 125.82c1.25 1.008 2.617 1.395 3.059.855.449-.543-.211-1.805-1.449-2.824-1.25-1.016-2.621-1.402-3.066-.859-.443.543.21 1.809 1.456 2.828z" fill="none" stroke="#000" stroke-width=".057"/><path d="M262.546 125.406c.754.648 1.605.941 1.91.633.309-.301-.059-1.078-.82-1.734-.758-.656-1.613-.938-1.918-.633-.305.301.066 1.078.828 1.734z"/><path d="M264.89 164.766l-30.523-38.09 4.512-3.684 31.52 36.98c-.759 1.524-2.916 4.079-5.509 4.794z" fill="#ffe01b"/><path d="M264.89 164.766l-30.523-38.09 4.512-3.684 31.52 36.98c-.759 1.524-2.916 4.079-5.509 4.794z" fill="none" stroke="#000" stroke-width=".057"/><path d="M239.8 128.672c-1.125.934-2.277 1.25-2.883 1.195-.516-.051-.922-.625-.746-.941.246.316 1.383.398 3.039-.961 1.652-1.371 1.777-2.5 1.504-2.801.348-.113.848.426.809.941-.063.602-.59 1.629-1.723 2.567z" fill="#ffe01b"/><path d="M239.8 128.672c-1.125.934-2.277 1.25-2.883 1.195-.516-.051-.922-.625-.746-.941.246.316 1.383.398 3.039-.961 1.652-1.371 1.777-2.5 1.504-2.801.348-.113.848.426.809.941-.063.602-.59 1.629-1.723 2.567z" fill="none" stroke="#000" stroke-width=".057"/><path d="M264.788 158.887c-1.363 1.129-2.75 1.508-3.477 1.441-.625-.062-1.113-.754-.902-1.137.297.383 1.668.488 3.66-1.156 1.996-1.652 2.137-3.016 1.82-3.379.414-.133 1.023.516.969 1.133-.066.731-.711 1.965-2.07 3.098z" fill="#ffe01b"/><path d="M264.788 158.887c-1.363 1.129-2.75 1.508-3.477 1.441-.625-.062-1.113-.754-.902-1.137.297.383 1.668.488 3.66-1.156 1.996-1.652 2.137-3.016 1.82-3.379.414-.133 1.023.516.969 1.133-.066.731-.711 1.965-2.07 3.098z" fill="none" stroke="#000" stroke-width=".057"/><path d="M269.542 163.523c1.141-.168 2.082 1.359.945 2.305-1.148.953-2.484-.281-2.074-1.379" fill="#ffe01b"/><path d="M269.542 163.523c1.141-.168 2.082 1.359.945 2.305-1.148.953-2.484-.281-2.074-1.379" fill="none" stroke="#000" stroke-width=".057"/><path fill="#ffe01b" d="M268.636 164.73l-.985-1.195 1.145-.918 1.039 1.266"/><path fill="none" stroke="#000" stroke-width=".057" d="M268.636 164.73l-.985-1.195 1.145-.918 1.039 1.266"/><path d="M268.565 163.469c-1.383 1.156-2.805 1.543-3.551 1.469-.633-.062-1.133-.762-.918-1.156.305.395 1.703.496 3.746-1.184 2.035-1.684 2.176-3.082 1.852-3.453.426-.137 1.051.527.988 1.164-.066.742-.726 2.007-2.117 3.16z" fill="#ffe01b"/><path d="M268.565 163.469c-1.383 1.156-2.805 1.543-3.551 1.469-.633-.062-1.133-.762-.918-1.156.305.395 1.703.496 3.746-1.184 2.035-1.684 2.176-3.082 1.852-3.453.426-.137 1.051.527.988 1.164-.066.742-.726 2.007-2.117 3.16z" fill="none" stroke="#000" stroke-width=".057"/><path d="M237.421 125.82c-1.242 1.008-2.613 1.395-3.055.855-.445-.543.211-1.805 1.461-2.824 1.238-1.016 2.609-1.402 3.051-.859.445.543-.211 1.809-1.457 2.828z" fill="#ffe01b"/><path d="M237.421 125.82c-1.242 1.008-2.613 1.395-3.055.855-.445-.543.211-1.805 1.461-2.824 1.238-1.016 2.609-1.402 3.051-.859.445.543-.211 1.809-1.457 2.828z" fill="none" stroke="#000" stroke-width=".057"/><path d="M237.14 125.406c-.758.648-1.613.941-1.918.633-.305-.301.062-1.078.82-1.734.762-.656 1.613-.938 1.918-.633.308.301-.067 1.078-.82 1.734z"/><path d="M280.706 121.602c.938-.121 3.309.844 1.555 2.043-1.637 1.125-1.898-1.305-1.637-1.941-.129.418.203 1.945 1.102 1.473.895-.477-.496-1.387-1.102-1.473.016-.613-.656-2.141-1.273-1.328-.609.805.832 1.383 1.273 1.328-.676.152-3.031-.516-1.648-1.941 1.48-1.532 2.007.944 1.73 1.839z" fill="#ffe01b"/><path d="M280.706 121.602c.938-.121 3.309.844 1.555 2.043-1.637 1.125-1.898-1.305-1.637-1.941-.129.418.203 1.945 1.102 1.473.895-.477-.496-1.387-1.102-1.473.016-.613-.656-2.141-1.273-1.328-.609.805.832 1.383 1.273 1.328-.676.152-3.031-.516-1.648-1.941 1.48-1.532 2.007.944 1.73 1.839z" fill="none" stroke="#000" stroke-width=".057"/><path d="M280.604 132.742c.434-.676.434-2.254-.238-3.109.219-1.359.34-5.645.258-8.141-.148 1.262-.48 6.199-.699 8.18-.879.914-.988 2.242-.785 2.91.218.332 1.296.438 1.464.16z" fill="#ffe01b"/><path d="M280.604 132.742c.434-.676.434-2.254-.238-3.109.219-1.359.34-5.645.258-8.141-.148 1.262-.48 6.199-.699 8.18-.879.914-.988 2.242-.785 2.91.218.332 1.296.438 1.464.16z" fill="none" stroke="#000" stroke-width=".057"/><path d="M281.776 133.773c.383-.773.219-2.465-.59-3.316.098-1.477-.215-6.09-.562-8.754-.031 1.367.117 6.695.098 8.844-.848 1.078-.828 2.508-.539 3.203.273.34 1.433.34 1.593.023z" fill="#ffe01b"/><path d="M281.776 133.773c.383-.773.219-2.465-.59-3.316.098-1.477-.215-6.09-.562-8.754-.031 1.367.117 6.695.098 8.844-.848 1.078-.828 2.508-.539 3.203.273.34 1.433.34 1.593.023z" fill="none" stroke="#000" stroke-width=".057"/><path d="M280.882 121.383c-.516-.559-1.137.008-.609.57.523.563 1.132-.015.609-.57z" fill="#ffe01b"/><path d="M280.882 121.383c-.516-.559-1.137.008-.609.57.523.563 1.132-.015.609-.57z" fill="none" stroke="#000" stroke-width=".057"/><path d="M280.979 130.055c-.441 0-.441.625 0 .625.438 0 .438-.625 0-.625z" fill="#ffe01b"/><path d="M280.979 130.055c-.441 0-.441.625 0 .625.438 0 .438-.625 0-.625z" fill="none" stroke="#000" stroke-width=".057"/><path d="M280.151 129.238c-.434 0-.434.629 0 .629s.434-.629 0-.629z" fill="#ffe01b"/><path d="M280.151 129.238c-.434 0-.434.629 0 .629s.434-.629 0-.629z" fill="none" stroke="#000" stroke-width=".057"/><path d="M285.046 128.543c.93-.156 3.336.727 1.629 1.988-1.602 1.18-1.945-1.238-1.711-1.887-.105.418.273 1.941 1.156 1.438.879-.508-.543-1.375-1.156-1.438 0-.613-.719-2.121-1.312-1.285-.59.828.879 1.355 1.312 1.285-.668.176-3.035-.41-1.707-1.891 1.422-1.573 2.039.884 1.789 1.79z" fill="#ffe01b"/><path d="M285.046 128.543c.93-.156 3.336.727 1.629 1.988-1.602 1.18-1.945-1.238-1.711-1.887-.105.418.273 1.941 1.156 1.438.879-.508-.543-1.375-1.156-1.438 0-.613-.719-2.121-1.312-1.285-.59.828.879 1.355 1.312 1.285-.668.176-3.035-.41-1.707-1.891 1.422-1.573 2.039.884 1.789 1.79z" fill="none" stroke="#000" stroke-width=".057"/><path d="M285.319 139.68c.406-.695.352-2.266-.348-3.105.176-1.359.156-5.648-.008-8.133-.105 1.262-.277 6.199-.434 8.195-.848.941-.906 2.266-.676 2.93.224.324 1.302.394 1.466.113z" fill="#ffe01b"/><path d="M285.319 139.68c.406-.695.352-2.266-.348-3.105.176-1.359.156-5.648-.008-8.133-.105 1.262-.277 6.199-.434 8.195-.848.941-.906 2.266-.676 2.93.224.324 1.302.394 1.466.113z" fill="none" stroke="#000" stroke-width=".057"/><path d="M286.518 140.672c.359-.789.141-2.473-.691-3.289.039-1.484-.43-6.086-.863-8.738.016 1.367.348 6.688.395 8.84-.812 1.105-.738 2.535-.426 3.219.269.327 1.441.288 1.585-.032z" fill="#ffe01b"/><path d="M286.518 140.672c.359-.789.141-2.473-.691-3.289.039-1.484-.43-6.086-.863-8.738.016 1.367.348 6.688.395 8.84-.812 1.105-.738 2.535-.426 3.219.269.327 1.441.288 1.585-.032z" fill="none" stroke="#000" stroke-width=".057"/><path d="M285.218 128.316c-.539-.539-1.141.047-.598.59.547.547 1.141-.051.598-.59z" fill="#ffe01b"/><path d="M285.218 128.316c-.539-.539-1.141.047-.598.59.547.547 1.141-.051.598-.59z" fill="none" stroke="#000" stroke-width=".057"/><path d="M285.604 136.98c-.438.02-.422.641.02.629.434-.015.414-.64-.02-.629z" fill="#ffe01b"/><path d="M285.604 136.98c-.438.02-.422.641.02.629.434-.015.414-.64-.02-.629z" fill="none" stroke="#000" stroke-width=".057"/><path d="M284.749 136.195c-.441.012-.422.637.02.625.433-.015.414-.64-.02-.625z" fill="#ffe01b"/><path d="M284.749 136.195c-.441.012-.422.637.02.625.433-.015.414-.64-.02-.625z" fill="none" stroke="#000" stroke-width=".057"/><path d="M275.608 116.313c.926-.117 3.301.848 1.551 2.047-1.641 1.129-1.906-1.301-1.641-1.941-.129.414.195 1.945 1.098 1.473.902-.473-.496-1.391-1.098-1.473.012-.617-.656-2.137-1.273-1.328-.617.805.84 1.383 1.273 1.328-.68.148-3.031-.516-1.641-1.941 1.474-1.533 2.001.94 1.731 1.835z" fill="#ffe01b"/><path d="M275.608 116.313c.926-.117 3.301.848 1.551 2.047-1.641 1.129-1.906-1.301-1.641-1.941-.129.414.195 1.945 1.098 1.473.902-.473-.496-1.391-1.098-1.473.012-.617-.656-2.137-1.273-1.328-.617.805.84 1.383 1.273 1.328-.68.148-3.031-.516-1.641-1.941 1.474-1.533 2.001.94 1.731 1.835z" fill="none" stroke="#000" stroke-width=".057"/><path d="M275.585 124.941a2.114 2.114 0 0 0-.324-.598c.219-1.355.34-5.641.258-8.133-.148 1.258-.488 6.191-.699 8.18-.508.523-.758 1.184-.84 1.777l1.605-1.226z" fill="#ffe01b"/><path d="M275.585 124.941a2.114 2.114 0 0 0-.324-.598c.219-1.355.34-5.641.258-8.133-.148 1.258-.488 6.191-.699 8.18-.508.523-.758 1.184-.84 1.777l1.605-1.226z" fill="none" stroke="#000" stroke-width=".057"/><path d="M276.101 124.547c0-1.887-.277-5.766-.582-8.129-.035 1.297.109 6.168.102 8.5l.48-.371z" fill="#ffe01b"/><path d="M276.101 124.547c0-1.887-.277-5.766-.582-8.129-.035 1.297.109 6.168.102 8.5l.48-.371z" fill="none" stroke="#000" stroke-width=".057"/><path d="M275.776 116.094c-.516-.555-1.141.012-.617.574.527.563 1.141-.019.617-.574z" fill="#ffe01b"/><path d="M275.776 116.094c-.516-.555-1.141.012-.617.574.527.563 1.141-.019.617-.574z" fill="none" stroke="#000" stroke-width=".057"/><path d="M275.042 123.953c-.438 0-.438.629 0 .629.441 0 .441-.629 0-.629z" fill="#ffe01b"/><path d="M275.042 123.953c-.438 0-.438.629 0 .629.441 0 .441-.629 0-.629z" fill="none" stroke="#000" stroke-width=".057"/><path d="M218.968 121.602c-.93-.121-3.305.844-1.555 2.043 1.641 1.125 1.906-1.305 1.641-1.941.129.418-.203 1.945-1.098 1.473-.895-.477.496-1.387 1.098-1.473-.02-.613.652-2.141 1.277-1.328.613.805-.836 1.383-1.277 1.328.68.152 3.023-.516 1.648-1.941-1.476-1.532-2.008.944-1.734 1.839z" fill="#ffe01b"/><path d="M218.968 121.602c-.93-.121-3.305.844-1.555 2.043 1.641 1.125 1.906-1.305 1.641-1.941.129.418-.203 1.945-1.098 1.473-.895-.477.496-1.387 1.098-1.473-.02-.613.652-2.141 1.277-1.328.613.805-.836 1.383-1.277 1.328.68.152 3.023-.516 1.648-1.941-1.476-1.532-2.008.944-1.734 1.839z" fill="none" stroke="#000" stroke-width=".057"/><path d="M219.069 132.742c-.43-.676-.43-2.254.234-3.109-.207-1.359-.336-5.645-.25-8.141.148 1.262.48 6.199.699 8.18.883.914.988 2.242.785 2.91-.222.332-1.3.438-1.468.16z" fill="#ffe01b"/><path d="M219.069 132.742c-.43-.676-.43-2.254.234-3.109-.207-1.359-.336-5.645-.25-8.141.148 1.262.48 6.199.699 8.18.883.914.988 2.242.785 2.91-.222.332-1.3.438-1.468.16z" fill="none" stroke="#000" stroke-width=".057"/><path d="M217.901 133.773c-.379-.773-.223-2.465.582-3.316-.082-1.477.227-6.09.57-8.754.035 1.367-.121 6.695-.094 8.844.848 1.078.828 2.508.535 3.203-.268.34-1.429.34-1.593.023z" fill="#ffe01b"/><path d="M217.901 133.773c-.379-.773-.223-2.465.582-3.316-.082-1.477.227-6.09.57-8.754.035 1.367-.121 6.695-.094 8.844.848 1.078.828 2.508.535 3.203-.268.34-1.429.34-1.593.023z" fill="none" stroke="#000" stroke-width=".057"/><path d="M218.788 121.383c.523-.559 1.148.008.617.57-.519.563-1.133-.015-.617-.57z" fill="#ffe01b"/><path d="M218.788 121.383c.523-.559 1.148.008.617.57-.519.563-1.133-.015-.617-.57z" fill="none" stroke="#000" stroke-width=".057"/><path d="M218.694 130.055c.441 0 .441.625 0 .625-.426 0-.426-.625 0-.625z" fill="#ffe01b"/><path d="M218.694 130.055c.441 0 .441.625 0 .625-.426 0-.426-.625 0-.625z" fill="none" stroke="#000" stroke-width=".057"/><path d="M219.53 129.238c.438 0 .438.629 0 .629-.441 0-.441-.629 0-.629z" fill="#ffe01b"/><path d="M219.53 129.238c.438 0 .438.629 0 .629-.441 0-.441-.629 0-.629z" fill="none" stroke="#000" stroke-width=".057"/><path d="M214.624 128.543c-.922-.156-3.328.727-1.617 1.988 1.598 1.18 1.945-1.238 1.707-1.887.117.418-.27 1.941-1.145 1.438-.891-.508.535-1.375 1.145-1.438 0-.613.719-2.121 1.316-1.285.59.828-.891 1.355-1.316 1.285.672.176 3.039-.41 1.703-1.891-1.418-1.573-2.035.884-1.793 1.79z" fill="#ffe01b"/><path d="M214.624 128.543c-.922-.156-3.328.727-1.617 1.988 1.598 1.18 1.945-1.238 1.707-1.887.117.418-.27 1.941-1.145 1.438-.891-.508.535-1.375 1.145-1.438 0-.613.719-2.121 1.316-1.285.59.828-.891 1.355-1.316 1.285.672.176 3.039-.41 1.703-1.891-1.418-1.573-2.035.884-1.793 1.79z" fill="none" stroke="#000" stroke-width=".057"/><path d="M214.355 139.68c-.399-.695-.348-2.266.348-3.105-.172-1.359-.152-5.648.012-8.133.117 1.262.285 6.199.426 8.195.855.941.918 2.266.688 2.93-.228.324-1.307.394-1.474.113z" fill="#ffe01b"/><path d="M214.355 139.68c-.399-.695-.348-2.266.348-3.105-.172-1.359-.152-5.648.012-8.133.117 1.262.285 6.199.426 8.195.855.941.918 2.266.688 2.93-.228.324-1.307.394-1.474.113z" fill="none" stroke="#000" stroke-width=".057"/><path d="M213.159 140.672c-.359-.789-.141-2.473.695-3.289-.043-1.484.426-6.086.859-8.738-.012 1.367-.348 6.688-.395 8.84.816 1.105.746 2.535.43 3.219-.276.327-1.437.288-1.589-.032z" fill="#ffe01b"/><path d="M213.159 140.672c-.359-.789-.141-2.473.695-3.289-.043-1.484.426-6.086.859-8.738-.012 1.367-.348 6.688-.395 8.84.816 1.105.746 2.535.43 3.219-.276.327-1.437.288-1.589-.032z" fill="none" stroke="#000" stroke-width=".057"/><path d="M214.456 128.316c.543-.539 1.145.047.605.59-.55.547-1.14-.051-.605-.59z" fill="#ffe01b"/><path d="M214.456 128.316c.543-.539 1.145.047.605.59-.55.547-1.14-.051-.605-.59z" fill="none" stroke="#000" stroke-width=".057"/><path d="M214.085 136.98c.434.02.406.641-.027.629-.438-.015-.415-.64.027-.629z" fill="#ffe01b"/><path d="M214.085 136.98c.434.02.406.641-.027.629-.438-.015-.415-.64.027-.629z" fill="none" stroke="#000" stroke-width=".057"/><path d="M214.933 136.195c.438.012.41.637-.023.625-.434-.015-.415-.64.023-.625z" fill="#ffe01b"/><path d="M214.933 136.195c.438.012.41.637-.023.625-.434-.015-.415-.64.023-.625z" fill="none" stroke="#000" stroke-width=".057"/><path d="M224.073 116.313c-.93-.117-3.305.848-1.559 2.047 1.645 1.129 1.91-1.301 1.645-1.941.129.414-.203 1.945-1.09 1.473-.91-.473.48-1.391 1.09-1.473-.02-.617.652-2.137 1.277-1.328.617.805-.84 1.383-1.277 1.328.68.148 3.027-.516 1.648-1.941-1.476-1.533-2.007.94-1.734 1.835z" fill="#ffe01b"/><path d="M224.073 116.313c-.93-.117-3.305.848-1.559 2.047 1.645 1.129 1.91-1.301 1.645-1.941.129.414-.203 1.945-1.09 1.473-.91-.473.48-1.391 1.09-1.473-.02-.617.652-2.137 1.277-1.328.617.805-.84 1.383-1.277 1.328.68.148 3.027-.516 1.648-1.941-1.476-1.533-2.007.94-1.734 1.835z" fill="none" stroke="#000" stroke-width=".057"/><path d="M224.093 124.941c.074-.223.184-.422.324-.598-.215-1.355-.336-5.641-.258-8.133.152 1.258.484 6.191.699 8.18.508.523.762 1.184.844 1.777l-1.609-1.226z" fill="#ffe01b"/><path d="M224.093 124.941c.074-.223.184-.422.324-.598-.215-1.355-.336-5.641-.258-8.133.152 1.258.484 6.191.699 8.18.508.523.762 1.184.844 1.777l-1.609-1.226z" fill="none" stroke="#000" stroke-width=".057"/><path d="M223.577 124.547c0-1.887.277-5.766.582-8.129.035 1.297-.102 6.168-.102 8.5l-.48-.371z" fill="#ffe01b"/><path d="M223.577 124.547c0-1.887.277-5.766.582-8.129.035 1.297-.102 6.168-.102 8.5l-.48-.371z" fill="none" stroke="#000" stroke-width=".057"/><path d="M223.897 116.094c.52-.555 1.145.012.617.574-.523.563-1.132-.019-.617-.574z" fill="#ffe01b"/><path d="M223.897 116.094c.52-.555 1.145.012.617.574-.523.563-1.132-.019-.617-.574z" fill="none" stroke="#000" stroke-width=".057"/><path d="M224.636 123.953c.441 0 .441.629 0 .629-.442 0-.442-.629 0-.629z" fill="#ffe01b"/><path d="M224.636 123.953c.441 0 .441.629 0 .629-.442 0-.442-.629 0-.629z" fill="none" stroke="#000" stroke-width=".057"/><path d="M249.835 166.09c9.027 0 16.344-9.418 16.344-21.031s-7.316-21.027-16.344-21.027c-9.023 0-16.336 9.414-16.336 21.027 0 11.613 7.312 21.031 16.336 21.031z" fill="#006c84"/><path d="M249.835 166.09c9.027 0 16.344-9.418 16.344-21.031s-7.316-21.027-16.344-21.027c-9.023 0-16.336 9.414-16.336 21.027 0 11.613 7.312 21.031 16.336 21.031z" fill="none" stroke="#000" stroke-width=".057"/><path d="M249.835 161.328c5.949 0 10.766-7.281 10.766-16.27 0-8.98-4.816-16.27-10.766-16.27-5.941 0-10.762 7.289-10.762 16.27 0 8.989 4.82 16.27 10.762 16.27z" fill="#5cc9e7"/><path d="M249.835 161.328c5.949 0 10.766-7.281 10.766-16.27 0-8.98-4.816-16.27-10.766-16.27-5.941 0-10.762 7.289-10.762 16.27 0 8.989 4.82 16.27 10.762 16.27z" fill="none" stroke="#000" stroke-width=".057"/><path d="M260.585 145.957c-2.332.535-9.223.355-11.371 0-2.145-.355-7.109-.18-10.105.355-.016-.414-.035-.832-.035-1.254 0-.914.055-1.812.148-2.688 2.734-.629 6.492-3.223 8.195-4.832 1.699-1.617 2.516-1.074 4.129.176 1.605 1.254 6.801 5.285 9 5.645.039.559.055 1.121.055 1.699 0 .301 0 .602-.016.899z" fill="#5c5b3d"/><path d="M260.585 145.957c-2.332.535-9.223.355-11.371 0-2.145-.355-7.109-.18-10.105.355-.016-.414-.035-.832-.035-1.254 0-.914.055-1.812.148-2.688 2.734-.629 6.492-3.223 8.195-4.832 1.699-1.617 2.516-1.074 4.129.176 1.605 1.254 6.801 5.285 9 5.645.039.559.055 1.121.055 1.699 0 .301 0 .602-.016.899z" fill="none" stroke="#000" stroke-width=".057"/><path d="M241.015 154.355c-1.059-2.312-1.758-5.066-1.906-8.043 2.996-.535 7.961-.711 10.105-.355 2.148.355 9.039.535 11.371 0-.109 3.121-.812 6-1.926 8.41.027.028-17.644-.012-17.644-.012z" fill="#008248"/><path d="M241.015 154.355c-1.059-2.312-1.758-5.066-1.906-8.043 2.996-.535 7.961-.711 10.105-.355 2.148.355 9.039.535 11.371 0-.109 3.121-.812 6-1.926 8.41.027.028-17.644-.012-17.644-.012z" fill="none" stroke="#000" stroke-width=".057"/><path d="M258.659 154.367c.027.027-17.645-.012-17.645-.012 1.953 4.215 5.168 6.973 8.82 6.973 3.657 0 6.872-2.754 8.825-6.961z" fill="#0a6"/><path d="M258.659 154.367c.027.027-17.645-.012-17.645-.012 1.953 4.215 5.168 6.973 8.82 6.973 3.657 0 6.872-2.754 8.825-6.961z" fill="none" stroke="#000" stroke-width=".057"/><path d="M248.108 154.965c.031.09.066.172.121.238.215.293.094.457-.137.453-.258-.012-.672-.094-.562-.742.117-.652-.156-1.543-.109-2.105.043-.562-.445-1.16-.398-2.035-.812.633-1.953.512-3.039-.047-.277.414-.371.828-1.016 1.094a.39.39 0 0 0-.098.059c.023.102.055.211.098.324.133.383.223.809.188 1.254-.031.449-.031.832.312 1.086.305.23.094.43-.062.473.348.258.043.48-.113.48s-.551.008-.629-.391c-.098-.496-.477-.641-.465-1.02.027-.383-.078-.895-.352-1.48-.129-.273-.102-.633-.027-.984-.543-.945-.156-2.867.691-3.227.789-.957 2.645-.578 3.676-.309.938.242 1.078-.52.633-1.773-.457-1.254.312-2.598.738-3.18-.027-.535.109-.914.242-.711.137.199.402.512.586.805.445-.027.488.293.699.402.133.062.113.539.797.617.355.031.484.227.414.559-.102.5-.773.402-1.672.391.445.762.473 2.242.812 3.676.191.812-.387 1.566-.855 1.906-.047.168-.121.387-.074.598.055.238.066.871-.02 1.121-.094.246-.027.648-.094.98-.062.336-.117.836.113 1.125.294.367-.167.437-.398.363z" fill="#5c5b3d"/><path d="M248.108 154.965c.031.09.066.172.121.238.215.293.094.457-.137.453-.258-.012-.672-.094-.562-.742.117-.652-.156-1.543-.109-2.105.043-.562-.445-1.16-.398-2.035-.812.633-1.953.512-3.039-.047-.277.414-.371.828-1.016 1.094a.39.39 0 0 0-.098.059c.023.102.055.211.098.324.133.383.223.809.188 1.254-.031.449-.031.832.312 1.086.305.23.094.43-.062.473.348.258.043.48-.113.48s-.551.008-.629-.391c-.098-.496-.477-.641-.465-1.02.027-.383-.078-.895-.352-1.48-.129-.273-.102-.633-.027-.984-.543-.945-.156-2.867.691-3.227.789-.957 2.645-.578 3.676-.309.938.242 1.078-.52.633-1.773-.457-1.254.312-2.598.738-3.18-.027-.535.109-.914.242-.711.137.199.402.512.586.805.445-.027.488.293.699.402.133.062.113.539.797.617.355.031.484.227.414.559-.102.5-.773.402-1.672.391.445.762.473 2.242.812 3.676.191.812-.387 1.566-.855 1.906-.047.168-.121.387-.074.598.055.238.066.871-.02 1.121-.094.246-.027.648-.094.98-.062.336-.117.836.113 1.125.294.367-.167.437-.398.363zm.848-10.793c-.07-.141-.281-.121-.348-.062m-4.625 6.617c.117-.188.195-.348.176-.527m-1.648-1.805c-.664.832.129 1.371-.324 2.246-.117.195-.269.578-.367.98m1.05.258c-.176.156-.094.461.027.801.137.375.227.797.191 1.25-.035.445-.027.828.316 1.086m4.853-4.067a.91.91 0 0 0 .324-.172m-.109-.816c-.047.945-.465 1.012-.242 2.02.047.234.066.875-.027 1.121-.09.246-.02.645-.09.984-.047.254-.078.602-.004.879" fill="none" stroke="#000" stroke-width=".057"/><path d="M254.87 146.293v-.926l-2.105.141-1.355-.211v.871c.882.078 2.847.125 3.46.125z" fill="#fff"/><path d="M254.87 146.293v-.926l-2.105.141-1.355-.211v.871c.882.078 2.847.125 3.46.125z" fill="none" stroke="#000" stroke-width=".057" stroke-linejoin="bevel"/><path fill="#fff" d="M252.765 145.535v.699"/><path fill="none" stroke="#000" stroke-width=".057" stroke-linejoin="bevel" d="M252.765 145.535v.699"/><path fill="#e03a3e" d="M254.23 144.008l.761 1.398-2.199.16-.75-1.504 2.188-.054z"/><path fill="none" stroke="#000" stroke-width=".057" stroke-linejoin="bevel" d="M254.23 144.008l.761 1.398-2.199.16-.75-1.504 2.188-.054z"/><path fill="#e03a3e" d="M252.792 145.566l-.75-1.504-.754 1.266 1.504.238z"/><path fill="none" stroke="#000" stroke-width=".057" stroke-linejoin="bevel" d="M252.792 145.566l-.75-1.504-.754 1.266 1.504.238z"/><path fill="#e03a3e" d="M253.757 143.504l.386.019v.485l-.386.015v-.519z"/><path fill="none" stroke="#000" stroke-width=".057" stroke-linejoin="bevel" d="M253.757 143.504l.386.019v.485l-.386.015v-.519z"/><path fill="#e03a3e" d="M253.757 143.504l-.301.035v.484h.301v-.519z"/><path fill="none" stroke="#000" stroke-width=".057" stroke-linejoin="bevel" d="M253.757 143.504l-.301.035v.484h.301v-.519z"/><path d="M256.448 143.762c.039.539.117 5.062-.367 5.758.102-.047.516-.293.559-.406.039.223.27.473.289.559.055-.242.305-.402.348-.488.055.109.305.309.516.441-.191-.441-.441-2.863-.461-5.793" fill="#5c5b3d"/><path d="M256.448 143.762c.039.539.117 5.062-.367 5.758.102-.047.516-.293.559-.406.039.223.27.473.289.559.055-.242.305-.402.348-.488.055.109.305.309.516.441-.191-.441-.441-2.863-.461-5.793" fill="none" stroke="#000" stroke-width=".057" stroke-linejoin="bevel"/><path d="M255.749 138.766c-.398-.02-.805.27-.828.609-.242 0-.621.289-.648.582-.273.086-.488.625-.379.98-.285.254-.207.742 0 .988-.246.332.094.938.465 1.055-.02.398.586.691.883.625.156.445.914.539 1.227.312.156.336.965.312 1.168.023.398.242.875-.156.887-.562.387 0 .633-.445.605-.758.316-.16.453-.809.27-1.148.25-.488.227-1.09-.203-1.25.027-.473-.398-.914-.754-.848-.023-.359-.582-.609-.852-.496-.156-.266-.691-.488-.895-.266-.208-.221-.79-.139-.946.154z" fill="#008248"/><path d="M255.749 138.766c-.398-.02-.805.27-.828.609-.242 0-.621.289-.648.582-.273.086-.488.625-.379.98-.285.254-.207.742 0 .988-.246.332.094.938.465 1.055-.02.398.586.691.883.625.156.445.914.539 1.227.312.156.336.965.312 1.168.023.398.242.875-.156.887-.562.387 0 .633-.445.605-.758.316-.16.453-.809.27-1.148.25-.488.227-1.09-.203-1.25.027-.473-.398-.914-.754-.848-.023-.359-.582-.609-.852-.496-.156-.266-.691-.488-.895-.266-.208-.221-.79-.139-.946.154z" fill="none" stroke="#000" stroke-width=".057" stroke-linejoin="bevel"/><path d="M255.561 142.246c-.59 0-.59.879 0 .879.582 0 .594-.879 0-.879zM257.261 141.488c-.594 0-.594.875 0 .875.586 0 .59-.875 0-.875zM257.702 142.652c-.59 0-.59.879 0 .879s.606-.879 0-.879zM255.288 140.945c-.59 0-.59.879 0 .879s.598-.879 0-.879zM258.061 140.098c-.59 0-.59.875 0 .875.598 0 .598-.875 0-.875zM256.183 139.512c-.59 0-.59.883 0 .883.589 0 .597-.883 0-.883zM251.132 149.992c.984-.742 3.223-1.34 4.305-.098-1.734-.543-1.184 3.219-.738 5.402-.598.199-1.934.395-2.582-.055.593-3.811.847-6.038-.985-5.249z" fill="#ffe01b"/><path d="M253.409 149.035v6.645" fill="none" stroke="#000" stroke-width=".057"/><path d="M252.827 149.047c.449.441.352 5.098.203 6.613m-.8-6.375c.91-.172.711 4.395.414 6.316m-.989-5.96c1.355-.781 1.051 3.535.609 5.891m-.359-.212c.574-2.785.969-6.391-.812-5.012m2.902-1.261c-.449.441-.348 5.098-.207 6.613m.797-6.375c-.91-.172-.715 4.395-.414 6.316m1.004-5.96c-1.363-.781-1.066 3.535-.617 5.891m1.179-5.223c-1.797-1.379-1.406 2.227-.82 5.012" fill="none" stroke="#000" stroke-width=".057" stroke-linejoin="bevel"/><path d="M253.409 152.594c.32 0 1.059-.152 1.051-.352 0-.07-.02-.23-.004-.285.004.203-.726.328-1.047.328-.316 0-1.059-.125-1.043-.328.012.055 0 .215 0 .285-.019.199.727.352 1.043.352z" fill="#ffe01b"/><path d="M253.409 152.594c.32 0 1.059-.152 1.051-.352 0-.07-.02-.23-.004-.285.004.203-.726.328-1.047.328-.316 0-1.059-.125-1.043-.328.012.055 0 .215 0 .285-.019.199.727.352 1.043.352z" fill="none" stroke="#000" stroke-width=".057" stroke-linejoin="bevel"/><path d="M245.265 135.434a1.614 1.614 0 1 0 0-3.23 1.61 1.61 0 0 0-1.605 1.613 1.61 1.61 0 0 0 1.605 1.617z" fill="#ffe01b"/><path d="M245.265 135.434a1.614 1.614 0 1 0 0-3.23 1.61 1.61 0 0 0-1.605 1.613 1.61 1.61 0 0 0 1.605 1.617zM245.265 131.445v-1.051m-.61 1.133l-.145-.539m-.425.774l-.141-.246m-.355.625l-.129-.133m-.242.625l-.195-.113m-.051.687l-.387-.109m.312.718h-.812m.887.618l-1.156.309m1.402.265l-1.66.957m2.031-.473l-.852.859m1.348-.476l-1.18 2.035m1.75-1.801l-.312 1.172m.922-1.086v1.91m.617-1.996l.32 1.172m.258-1.406l.957 1.664m-.465-2.047l.848.859m-.473-1.343l2.043 1.172m-1.805-1.746l1.164.309m-1.082-.927h1.918m-2-.609l2.27-.613m-2.508.039l1.051-.602m-1.426.11l1.352-1.359m-1.844.98l.602-1.047m-1.18.812l.48-1.797" fill="none" stroke="#000" stroke-width=".057" stroke-linejoin="bevel"/><path d="M244.308 133.379c.125-.051.523-.164.715-.008m-.489.047c.059.055.234.062.289.012m.09.972c.055.066.57.078.684 0m-.5-.382c.059.055.285.047.367 0m.766-.641c-.117-.051-.524-.164-.715-.008m.496.047c-.066.055-.238.062-.289.012" fill="none" stroke="#000" stroke-width=".057" stroke-linecap="round" stroke-linejoin="bevel"/><path fill="#ffe01b" d="M254.522 160.602l.809 1.16 1.363-.422-.871 1.144.82 1.157-1.335-.465-.848 1.133.023-1.426-1.343-.442 1.355-.418.027-1.421zM258.362 156.859l1.133.852 1.164-.816-.469 1.351 1.141.844-1.418-.031-.461 1.351-.422-1.367-1.41-.016 1.16-.812-.418-1.356zM260.39 152.719l1.347.422.821-1.164.019 1.429 1.359.41-1.351.457.027 1.418-.859-1.14-1.336.465.82-1.161-.847-1.136zM261.472 147.82l1.414-.121.316-1.39.559 1.32 1.41-.133-1.074.934.558 1.3-1.222-.726-1.059.93.312-1.383-1.214-.731zM249.835 161.93l-.434 1.351h-1.421l1.152.836-.442 1.344 1.145-.832 1.148.832-.441-1.352 1.152-.82h-1.418l-.441-1.359zM245.163 160.602l-.812 1.16-1.364-.422.86 1.144-.813 1.157 1.336-.465.856 1.133-.028-1.426 1.344-.442-1.359-.418-.02-1.421zM241.311 156.859l-1.125.852-1.168-.816.462 1.351-1.133.844 1.418-.031.461 1.351.421-1.367 1.411-.016-1.161-.812.414-1.356zM239.292 152.719l-1.352.422-.82-1.164-.019 1.429-1.352.41 1.344.457-.028 1.418.864-1.14 1.328.465-.821-1.161.856-1.136zM238.206 147.82l-1.402-.121-.336-1.39-.547 1.32-1.41-.133 1.07.934-.555 1.3 1.219-.726 1.066.93-.328-1.383 1.223-.731z"/><path d="M233.831 117.539c-.055-.289 1.723-.16 2.016-1.211.113-.426.621-1.074 1.16-1.367 1.062-.574 2.574-.355 3.652.672.449.434 1.113.797 1.777.727.449.844.199 1.805-.398 2.227-.625-.375-1.457-.523-2.281-.395-1.117.18-2.637.129-3.336-.293-.637-.395-2.481.312-2.59-.36z" fill="#f5a5bd"/><path d="M233.831 117.539c-.055-.289 1.723-.16 2.016-1.211.113-.426.621-1.074 1.16-1.367 1.062-.574 2.574-.355 3.652.672.449.434 1.113.797 1.777.727.449.844.199 1.805-.398 2.227-.625-.375-1.457-.523-2.281-.395-1.117.18-2.637.129-3.336-.293-.637-.395-2.481.312-2.59-.36z" fill="none" stroke="#000" stroke-width=".057"/><path d="M242.038 118.586c.23.133.434.301.59.5 1.566 1.926 2.555 3.086 5.199 2.82.477-.051.945-.098 1.387-.148-1.121 1.07-1.434 1.398-2.285 1.398-.848 0-2.309.719-2.266 2.059.719-.352 3.723-1.207 5.531-.984 0-.262-.359-.98-.805-1.074-.449-.086-.488-.695 1.164-1.547 1.398-.141 2.594-.18 3.582.203.809.316 1.344.578 1.344 1.344 0 .27-.09.867-.691.629-.895-.359-2.016-.445-2.707.762 1.383-.266 4.184 1.25 5.176 1.973.078-.539.039-1.211-.359-1.391-.41-.18-.562-.762-.562-.984 0-.477-.023-.965.223-1.371.25-.402.156-.801-.332-1.09-.496-.293-.562-.652-.496-1.101 1.656-.066 4.184.742 5.418 1.723.875.699 1.566.18 1.594-.242.359.203.578-.426.402-.785.41.176.746-.762.582-.996.414-.762-.875-1.242-2.82-1.469-3.066-.355-3.672-1.93-5.469-2.152.613.125.863-.367.809-.688.855.266 1.32-.094 1.297-.672 1.523.195 2.176-.363 1.992-.895.922-.051 1.145-.766.652-1.238.766-.156.961-.621.902-.98.73-.066 1.219-.605.977-.988 1.191-.047 1.566-.445 1.613-1.004.961-.027 1.742-.613 1.707-1.102 1.27-.043 2.145-.719 2.016-1.273 1.363-.047 2.102-.496 1.918-1.188 1.656 0 3.297-.137 2.957-.875 1.574 0 2.402-.762 2.266-1.078 1.945-.02 2.461-1.629-.332-1.676-.016-.285-1.215-.234-2.379-.223-5.82.043-11.422.137-13.309.09-1.879-.047-6.664.938-6.441 4.25.219 3.316-.406 4.125-2.109 5.024a9.897 9.897 0 0 0-1.012.586c0-.941-.418-2.43-1.004-2.379-.047-1.207-.766-1.793-1.254-1.523-.086-1.121-1.07-2.238-1.703-1.793-.269-.629-.668-1.164-1.477-.984-.449-1.207-1.52-1.613-2.016-1.07-.492-.852-1.477-1.125-1.926-.59-.535-.805-1.566-1.164-2.012-.621-.652-.586-1.254-.945-1.906-.652-.965-.852-2.148-1.188-2.707-.625-1.32-.746-1.77-.363-1.992.152-.945-.715-2.266-.695-2.488-.024-1.879-1.164-4.77-.129-2.082.895 2.684 1.031 6.691 3.34 8.848 5.492 1.695 1.699 3.934 2.551 5.598 2.504 1.652-.039 2.555.227 3.402.898a2.825 2.825 0 0 1 1.078 2.652c-.664.07-1.281.172-1.844.75-.352.375-.652.5-1.039.547.256.494.428 1.634-.4 2.224z" fill="#5c5b3d"/><path d="M242.038 118.586c.23.133.434.301.59.5 1.566 1.926 2.555 3.086 5.199 2.82.477-.051.945-.098 1.387-.148-1.121 1.07-1.434 1.398-2.285 1.398-.848 0-2.309.719-2.266 2.059.719-.352 3.723-1.207 5.531-.984 0-.262-.359-.98-.805-1.074-.449-.086-.488-.695 1.164-1.547 1.398-.141 2.594-.18 3.582.203.809.316 1.344.578 1.344 1.344 0 .27-.09.867-.691.629-.895-.359-2.016-.445-2.707.762 1.383-.266 4.184 1.25 5.176 1.973.078-.539.039-1.211-.359-1.391-.41-.18-.562-.762-.562-.984 0-.477-.023-.965.223-1.371.25-.402.156-.801-.332-1.09-.496-.293-.562-.652-.496-1.101 1.656-.066 4.184.742 5.418 1.723.875.699 1.566.18 1.594-.242.359.203.578-.426.402-.785.41.176.746-.762.582-.996.414-.762-.875-1.242-2.82-1.469-3.066-.355-3.672-1.93-5.469-2.152.613.125.863-.367.809-.688.855.266 1.32-.094 1.297-.672 1.523.195 2.176-.363 1.992-.895.922-.051 1.145-.766.652-1.238.766-.156.961-.621.902-.98.73-.066 1.219-.605.977-.988 1.191-.047 1.566-.445 1.613-1.004.961-.027 1.742-.613 1.707-1.102 1.27-.043 2.145-.719 2.016-1.273 1.363-.047 2.102-.496 1.918-1.188 1.656 0 3.297-.137 2.957-.875 1.574 0 2.402-.762 2.266-1.078 1.945-.02 2.461-1.629-.332-1.676-.016-.285-1.215-.234-2.379-.223-5.82.043-11.422.137-13.309.09-1.879-.047-6.664.938-6.441 4.25.219 3.316-.406 4.125-2.109 5.024a9.897 9.897 0 0 0-1.012.586c0-.941-.418-2.43-1.004-2.379-.047-1.207-.766-1.793-1.254-1.523-.086-1.121-1.07-2.238-1.703-1.793-.269-.629-.668-1.164-1.477-.984-.449-1.207-1.52-1.613-2.016-1.07-.492-.852-1.477-1.125-1.926-.59-.535-.805-1.566-1.164-2.012-.621-.652-.586-1.254-.945-1.906-.652-.965-.852-2.148-1.188-2.707-.625-1.32-.746-1.77-.363-1.992.152-.945-.715-2.266-.695-2.488-.024-1.879-1.164-4.77-.129-2.082.895 2.684 1.031 6.691 3.34 8.848 5.492 1.695 1.699 3.934 2.551 5.598 2.504 1.652-.039 2.555.227 3.402.898a2.825 2.825 0 0 1 1.078 2.652c-.664.07-1.281.172-1.844.75-.352.375-.652.5-1.039.547.256.494.428 1.634-.4 2.224z" fill="none" stroke="#000" stroke-width=".057"/><path d="M242.151 116.371c.184.024.301.695.23 1.074-.066.387-.379 1.125-.648.988-.035.312.57.481.648.078.32-.012.457-.355.348-.512.188-.102.324-.539.137-.629.156-.168.121-.449-.082-.551.113-.145.055-.379-.09-.402.047-.222-.48-.335-.543-.046z" fill="#fff"/><path d="M242.151 116.371c.184.024.301.695.23 1.074-.066.387-.379 1.125-.648.988-.035.312.57.481.648.078.32-.012.457-.355.348-.512.188-.102.324-.539.137-.629.156-.168.121-.449-.082-.551.113-.145.055-.379-.09-.402.047-.222-.48-.335-.543-.046z" fill="none" stroke="#000" stroke-width=".057" stroke-linejoin="bevel"/><path d="M256.198 105.156c1.992.047 3.898 0 4.434-.137.578-.141 1.188-.649.848-1.297m-.848 1.298c2.57-.024 4.641-.066 5.488-.109.852-.047 1.66-.605 1.004-1.367m-11.727 2.663c2.32.02 5.121.226 4.875-1.098m-.691.899c1.656-.051 4.184-.117 5.02-.117.82 0 1.77-.176 1.613-.98m-11.399 2.413c3.449-.027 4.652.047 4.367-1.188m-4.726 2.153c1.973 0 4.32.203 3.891-1.074m-4.145 1.879c1.305.07 3.629.289 3.316-.918m-3.695 2.176c1.656 0 3.289-.051 2.801-1.258m-3.375 2.332c1.246-.02 2.879-.09 2.598-1.188m2.929-3.172c1.098-.086 3.402-.055 4.453-.078 1.051-.02 2.102-.152 1.84-1.117m-7.082 2.172c1.371-.023 3.539-.18 4.211-.18.68 0 1.742-.043 1.613-.895m-6.71 2.016c.867-.07 3.242-.156 4.047-.18.809-.02 1.953-.16 1.816-.984m-6.719 2.262c1.16-.066 2.645-.024 3.336-.066.875-.059 2.125-.262 1.832-1.223m-5.949 2.293c.871-.02 1.859 0 2.641-.02.785-.023 2.371-.047 1.992-1.121m-7.731 2.618c.785 0 3.168.316 2.809-1.316m-.434 1.097c1.055-.043 2.359-.066 3.023-.09.676-.027 1.457-.359 1.191-1.211m-7.612 2.551c1.465.102 3.316.215 2.828-1.047m-4.153 2.078c.672-.062 1.305 0 1.676 0 .387 0 1.324-.086 1.234-.984m.59-.071c1.676.047 4.586.16 4.246-1.316m16.778-7.574c-.691.07-5.98-.176-7.547 0m5.281 1.078c-1.164 0-4.836-.09-6.586 0m3.629.875c-1.023 0-3.133 0-4.543.09m2.625 1.097c-.68.043-2.449-.203-4.199-.066m2.184 1.34c-.879.051-2.625-.133-3.906-.086m2.199 1.187c-.559.043-2.66-.027-3.535-.07m1.921 1.074c-.512.023-2.281.09-3.066.09m2.09.899c-.727.09-2.09.113-3.324.176m2.421.804c-.633.164-2.375.164-3.156.164m2.504 1.074c-.895.086-2.977-.34-4.32-.812m2.328 1.707c-1.434-.137-3.047-.945-4.32-1.66m3.023 2.332c-.984-.203-2.422-.898-3.492-1.66m-3.949.898c.41-.137 2.246.09 2.742.332.488.25 1.246.18 1.004-.422m2.176 1.207c.09.402-.699.922-1.66.402-.965-.516-3.027-1.52-5.039-1.293m-1.278-.613c-.492.172-.977.195-1.43.238m1.789-.726c-.406.312-1.105.242-1.34-.766-.586-2.461-2.023-2.91-4.035-2.863-3.582.09-5.488-1.633-7.57-3.406-.445-.379-1.164-.848-.828-1.207.34-.363 1.676.762 2.551 1.457m1.277 1.094c-.918-.801-3.027-2.301-2.484-3.02.535-.715 2.508 1.496 3.492 2.395m-1.164-1.118c-.488-.449-1.102-.895-.672-1.391.414-.48 2.82 1.789 4.277 3.223m-2.148-1.992c-.266-.199-.469-.648-.223-.891.332-.34 2.352.621 4.34 3.062m-2.285-2.237c.316-.293 1.457 0 2.242.719.789.715 1.453 1.504 1.973 2.125m-2.039-2.219c.602-.062 1.68.742 2.625 1.863.934 1.117 1.789 2.348 1.383 3.914m-18.004-10.457c1.078.691 3.449 2.399 4.859 3.473m-2.371-3.449c1.18.668 2.766 2.07 3.789 2.922m-1.797-3.075c.762.398 3.086 2.324 4.254 3.266m-1.547-2.641c.785.605 2.625 2.125 3.27 2.773m-1.364-2.12c.629.508 2.102 2.145 2.758 2.84m-.746-2.219c.312.426 1.121 1.594 1.594 2.242m.332-1.652c.293.445.965 1.723 1.258 2.344m.757-1.274c.223.516.426 1.473.562 2.059m.915-1.075c.227.488.402 1.77.516 2.684m1.187-.891c.09.602.184 1.832-.176 2.867m1.43-1.343c0 .402-.129 1.074-.332 1.473m.781 4.031c.535 0 1.836.359 2.199.766.359.402 1.855.606 1.496-.312m-5.574 2.999c.848.18 2.688.043 3.355-.09.672-.133.633-.539.137-.582m-1.835-.047c.621 0 1.613-.449 1.117-.535-.496-.09-1.965-.32-2.414-.355m15.855 4.363c-.598-.402-1.852-.996-3.004-1.355m3.406.569c-.516-.223-1.875-.852-2.625-1.031m3.208.035c-.246.332-1.648-.055-2.488-.453m-23.786-3.347c.117-.398.562-.781 1.098-.508-.152.5-.852.199-.914.258m11.578 5.527c.465-.059.914-.102 1.34-.148m-1.594-8.879a8.104 8.104 0 0 0-2.211 2.094c-.902 1.258-2.418.41-3.402 2.023m12.089-.188a1.331 1.331 0 0 1-.359-.133c-.672-.332-2.801-1.809-3.938-1.922m23.071-11.601c.039 1.074-2.559.719-4.938.582-2.367-.133-8.414 0-11.191.492-3.023.539-3.762 4.883-4.258 6.273-.488 1.387-2.996 4.297-5.328 4.969" fill="none" stroke="#000" stroke-width=".057"/><path d="M266.167 145.91c.008-.277.012-.562.012-.852 0-11.613-7.316-21.027-16.344-21.027-9.023 0-16.336 9.414-16.336 21.027 0 .289 0 .574.016.852l5.602-2.227c.465-8.344 5.09-14.895 10.719-14.895 5.645 0 10.27 6.551 10.723 14.895l5.608 2.227z" fill="#ffe01b"/><path d="M266.167 145.91c.008-.277.012-.562.012-.852 0-11.613-7.316-21.027-16.344-21.027-9.023 0-16.336 9.414-16.336 21.027 0 .289 0 .574.016.852l5.602-2.227c.465-8.344 5.09-14.895 10.719-14.895 5.645 0 10.27 6.551 10.723 14.895l5.608 2.227z" fill="none" stroke="#000" stroke-width=".057"/><path d="M239.311 138.836c.066-.297-.082-.617-.379-.695-.164-.043-.41-.105-.625-.164-.273-.066-.645.098-.754.527-.113.434-.16.613-.176.684l-.184-.051c.25-.969.047-1.234-.25-1.312-.156-.043-.48-.129-.598-.152-.359-.094-.496.184-.527.312-.027.121-.09.332-.121.48-.043.145-.051.277.102.312l1.395.359.184.051 1.555.402c.113.027.207-.113.234-.223.027-.108.063-.229.144-.53l.203-.031c-.23.879-.711 2.738-.711 2.738l-.109-.027c.035-.301.047-.672-.277-.758l-2.774-.707c-.332-.09-.496.242-.613.516l-.113-.027.644-2.469c.238-.941.738-1.711 1.375-1.551.625.16.609.863.578 1.383.242-.594.699-1.305 1.355-1.137.605.16.875 1.145.645 2.039l-.203.031zM241.643 133.555c-.473.723-1.438.676-2.312.105-.867-.555-1.309-1.414-.84-2.145.469-.727 1.43-.676 2.305-.109.875.563 1.316 1.418.847 2.149l.109.07c.91-1.414.664-2.688-.273-3.289-.926-.602-2.195-.297-3.098 1.109-.91 1.406-.672 2.688.266 3.297.93.594 2.195.285 3.105-1.117l-.109-.07zM244.011 125.938l.062.102c-.285.207-.531.441-.359.73l1.383 2.43c.168.293.387.285.598.164.176-.098.352-.203.574-.328.516-.293 1.024-.969.855-1.785l.188-.113.387 1.316-3.938 2.25-.055-.102c.27-.203.582-.473.422-.762l-1.426-2.496c-.168-.289-.488-.199-.809-.062l-.055-.105 2.173-1.239zM250.554 127.84c-.012.34.387.43.734.48l-.008.121-2.746-.102.008-.117c.34-.027.746-.09.75-.426l.101-2.867c.016-.34-.383-.434-.723-.484l.004-.113 2.742.098v.109c-.348.027-.746.094-.762.434l-.1 2.867zM254.936 125.871c.035-.398-.043-.461-.277-.644l.066-.098 2.062 1.449-.062.098c-.277-.176-.711-.461-.766.023l-.25 2.449 2.148-1.062c.531-.273.094-.535-.195-.746l.066-.105 1.328.938-.066.098c-.266-.16-.297-.23-.656-.047l-3.617 1.805-.195-.145.414-4.013zM258.694 133.629c-.277.176-.137.559.012.867l-.094.062-1.473-2.316.094-.062c.219.266.504.562.789.383l2.422-1.539c.285-.176.133-.562-.016-.871l.102-.062 1.465 2.32-.094.062c-.219-.273-.504-.566-.789-.383l-2.418 1.539zM261.14 136.719l.43 1.469c1.098-1.105 1.145-1.145 1.145-1.145l-1.575-.324-.281-.059c-.172-.039-.367-.078-.566-.125-.508-.109-.438.234-.387.676l-.105.031-.449-1.5.117-.035c.094.234.363.402.637.48 3.762.812 3.805.82 3.805.82l.082.262s-.125.133-2.727 2.734c-.191.184-.383.289-.293.809l-.113.031-.727-2.48.109-.031c.203.488.344.793.656.531.176-.172.332-.328.473-.473l-.512-1.73.281.059z" fill="#e03a3e"/></g></svg>