<svg xmlns="http://www.w3.org/2000/svg" viewBox="0 0 499.839 277.402"><path fill="#009b3a" d="M499.839 277.402V-.375h-500v277.777h500z"/><path fill="#fedf00" d="M249.495 23.93l180.699 114.949-180.008 114.219L69.483 138.879 249.495 23.93z"/><path d="M249.839 214.793c41.922 0 75.906-33.988 75.906-75.91s-33.984-75.91-75.906-75.91c-41.922 0-75.91 33.988-75.91 75.91s33.988 75.91 75.91 75.91z" fill="#002776"/><path d="M321.194 164.84c-38.172-36.707-90.273-54.832-143.578-49.422 1.184-3.68 2.895-7.746 4.805-11.434 50.551-5.238 105.617 15.848 141.98 49.207a74.912 74.912 0 0 1-3.207 11.649z" fill="#fff"/><path d="M197.073 108.477s1.957.035 2.555.043a1.059 1.059 0 0 0 1.102-1.07c.012-.652-.531-1.055-1.219-1.062-.68-.016-2.398-.043-2.398-.043l-.04 2.132-.02 1.434-.051 3.105-1.887-.031s.133-8.02.129-8.012c0 0 3.855.062 5.168.086 1.309.02 2.066 1.176 2.047 2.312-.016 1.156-1.07 1.887-1.582 1.879.652.012 1.332.613 1.316 1.609l-.035 2.242-1.824-.031s.016-.898.031-1.883c.02-.973-.516-1.23-1.449-1.246l-1.863-.031.02-1.433zM206.792 111.914c.586.031 2.262-.074 2.43-2.606.141-2.32-1.438-2.609-2.023-2.648l-1.562-.102s-.336 5.231-.34 5.258c-.001 0 .925.055 1.495.098l.519 1.449c-2.16-.137-3.863-.254-3.863-.254l.535-7.996c.938.066 2.363.156 3.523.23 1.152.074 3.707.52 3.484 4.004-.141 2.156-1.508 4.156-3.68 4.016l-.518-1.449zM219.866 107.816l-4.644-.515-.196 1.769 4.176.469-.16 1.461-4.184-.469-.234 2.106 4.648.515-.144 1.297-6.551-.73.895-7.969 6.546.738-.152 1.328zM223.843 115.117l-.676-6.301-1 6.028-1.734-.285 1.308-7.91 2.699.445.594 6.32 2.606-5.793 2.695.445-1.305 7.907-1.738-.285 1-6.032-2.668 5.758-1.781-.297zM243.202 113.977l-2.859-.719-.278 1.094 2.575.648-.223.899-2.578-.645-.324 1.293 2.863.719-.199.797-4.039-1.008 1.234-4.91 4.035 1.007-.207.825zM252.245 117.527s.812-2.398.797-2.395c0 0 1 .332 1.719.566.727.246 1.266.82 1.016 1.555-.238.73-.984 1.117-1.809.844-.832-.273-1.723-.57-1.723-.57l-.391 1.191 2.113.699c1.582.52 3.004-.422 3.406-1.637.449-1.363-.289-2.734-1.797-3.234-2.16-.715-3.762-1.238-3.762-1.238l-2.508 7.606 1.641.543.906-2.738.392-1.192zM268.745 126.731c-1.25-.523-1.73-1.922-1.082-3.398.66-1.492 1.926-2.105 3.246-1.52 1.328.574 1.742 1.93 1.07 3.418-.703 1.566-1.988 2.027-3.234 1.5l-.535 1.211c2.305 1.012 4.391.18 5.359-2.02.965-2.203.172-4.305-2.125-5.316-2.309-1.008-4.395-.18-5.363 2.023-.965 2.199-.16 4.309 2.129 5.312l.535-1.21zM281.226 128.078c.016-.875-.395-1.621-1.246-2.051-1.262-.641-2.559-.09-3.281 1.336-.719 1.422-.387 2.848.895 3.473 1.078.531 2.074.328 2.625-.562l-1.656-.832.566-1.121 3.047 1.539-1.836 3.641-.977-.492c.125-.246.246-.605.27-.875-.773.371-1.711.324-2.676-.105-2-.895-2.848-3.32-1.777-5.438 1.07-2.121 3.176-2.82 5.387-1.707 1.742.879 2.684 2.57 2.02 3.887l-1.361-.693zM298.034 136.395l-3.961-2.485-.949 1.504 3.562 2.242-.781 1.246-3.562-2.238-1.125 1.789 3.953 2.485-.692 1.105-5.574-3.508 4.266-6.781 5.574 3.508-.711 1.133zM302.893 141.035c.426-.617.09-1.324-.926-2.027-1.023-.715-1.453-.328-1.668-.012-.219.312-.184.824 1.137 2.031 1.32 1.207 2.133 2.32 1.266 3.57-.855 1.246-2.336 1.449-4.348.059-1.988-1.383-1.828-3.125-1.312-3.969l1.395.965c-.465.676-.004 1.492.895 2.117.898.629 1.605.543 1.922.094.312-.461.023-1.156-.871-1.973-2.238-2.027-1.977-3-1.465-3.734.5-.723 1.867-1.57 3.918-.148 2.035 1.41 2.137 2.875 1.391 3.953l-1.334-.926zM309.726 146.059c.453-.602.156-1.32-.828-2.066-.996-.762-1.438-.395-1.668-.09-.23.301-.219.816 1.043 2.082s2.023 2.418 1.105 3.625c-.922 1.203-2.406 1.344-4.352-.145-1.922-1.465-1.684-3.199-1.125-4.02l1.348 1.027c-.5.656-.074 1.492.793 2.156.867.668 1.582.613 1.918.172.332-.434.07-1.148-.785-2.004-2.141-2.125-1.832-3.086-1.289-3.797.531-.699 1.934-1.484 3.922.031 1.965 1.5 2.008 2.969 1.211 4.016l-1.293-.987zM260.042 119.785s1.824.695 2.383.914c.547.211 1.16-.016 1.402-.633.23-.605-.137-1.168-.785-1.414-.625-.246-2.234-.863-2.234-.863l-.766 1.996-.516 1.332-1.113 2.895-1.766-.676s2.887-7.484 2.883-7.48l4.824 1.859c1.215.473 1.531 1.812 1.125 2.883-.414 1.07-1.656 1.398-2.133 1.219.609.23 1.039 1.031.684 1.953-.184.473-.809 2.098-.809 2.098l-1.699-.656s.324-.844.676-1.754c.352-.906-.059-1.332-.93-1.672-.891-.34-1.742-.668-1.742-.668l.516-1.333zM285.522 131.398s1.695.965 2.211 1.262c.512.293 1.152.164 1.484-.41.32-.566.039-1.176-.555-1.52-.59-.332-2.082-1.188-2.082-1.188l-1.058 1.856-.715 1.238-1.539 2.695-1.637-.934 3.973-6.957s3.34 1.914 4.488 2.566c1.133.645 1.242 2.02.676 3.012-.57 1-1.848 1.137-2.289.887.57.32.867 1.176.383 2.039l-1.117 1.949-1.578-.902.93-1.637c.484-.848.145-1.324-.668-1.793a285.81 285.81 0 0 1-1.621-.926l.714-1.237zM312.913 154.059c-1.047-.859-1.121-2.332-.074-3.566 1.051-1.246 2.441-1.477 3.547-.543 1.105.93 1.117 2.348.055 3.582-1.114 1.304-2.481 1.382-3.528.527l-.855 1.012c1.922 1.617 4.16 1.41 5.711-.43 1.555-1.832 1.383-4.074-.539-5.695-1.918-1.621-4.16-1.41-5.715.426-1.547 1.836-1.367 4.082.543 5.699l.855-1.012zM189.491 111.832c-1.355.066-2.391-.988-2.441-2.598-.055-1.633.82-2.73 2.262-2.781 1.445-.047 2.406.996 2.445 2.629.043 1.711-.914 2.684-2.266 2.75l.043 1.32c2.508-.082 4.035-1.738 3.953-4.137-.078-2.406-1.707-3.957-4.215-3.871-2.512.086-4.035 1.734-3.957 4.137.078 2.406 1.719 3.949 4.219 3.871l-.043-1.32z" fill="#009b3a"/><path fill="#fff" d="M187.093 122.086l-.727 2.242h-2.375l1.93 1.391-.742 2.25 1.914-1.399 1.906 1.399-.731-2.266 1.918-1.367h-2.363l-.73-2.25zM194.472 152.926l-.719 2.242h-2.375l1.926 1.394-.739 2.239 1.907-1.391 1.906 1.391-.727-2.258 1.91-1.367h-2.359l-.73-2.25zM221.87 138.52l-.602 1.875h-1.98l1.609 1.16-.621 1.867 1.594-1.156 1.59 1.156-.609-1.883 1.597-1.141h-1.968l-.61-1.878zM249.878 145.84l-.606 1.867h-1.976l1.605 1.164-.613 1.867 1.59-1.16 1.586 1.16-.606-1.879 1.594-1.144h-1.969l-.605-1.875zM242.855 154.426l-.477 1.492h-1.59l1.289.93-.496 1.496 1.274-.93 1.273.93-.488-1.504 1.281-.914h-1.578l-.488-1.5zM248.55 161.578l-.348 1.07h-1.125l.914.664-.348 1.067.907-.664.91.664-.348-1.078.914-.653h-1.125l-.351-1.07zM258.276 153.887l-.601 1.867h-1.981l1.61 1.16-.618 1.871 1.59-1.16 1.59 1.16-.609-1.887 1.601-1.136h-1.976l-.606-1.875zM251.272 168.738l-.722 2.242h-2.371l1.929 1.399-.742 2.242 1.906-1.394 1.907 1.394-.727-2.262 1.918-1.367h-2.363l-.735-2.254zM250.48 195.266l-.239.75h-.793l.641.464-.246.747.637-.465.636.465-.242-.758.641-.453h-.789l-.246-.75zM273.417 111.277l-.723 2.247h-2.375l1.926 1.39-.738 2.246 1.91-1.394 1.906 1.394-.73-2.258 1.914-1.371h-2.36l-.73-2.254zM266.972 177.027l-.481 1.496h-1.578l1.281.93-.492 1.492 1.27-.922 1.273.922-.488-1.507 1.277-.907h-1.574l-.488-1.504zM272.608 189.727l-.597 1.867h-1.981l1.61 1.164-.622 1.867 1.59-1.16 1.59 1.16-.605-1.883 1.597-1.14h-1.972l-.61-1.875zM278.046 177.027l-.485 1.496h-1.582l1.289.93-.496 1.492 1.274-.922 1.269.922-.488-1.507 1.281-.907h-1.578l-.484-1.504zM289.116 191.527l-.48 1.493h-1.586l1.285.929-.496 1.496 1.277-.929 1.27.929-.489-1.507 1.282-.911h-1.575l-.488-1.5zM289.116 184.656l-.601 1.871h-1.981l1.609 1.161-.621 1.867 1.594-1.157 1.59 1.157-.609-1.879 1.597-1.141h-1.972l-.606-1.879zM289.116 177.027l-.48 1.496h-1.586l1.285.93-.496 1.492 1.277-.922 1.27.922-.489-1.507 1.282-.907h-1.575l-.488-1.504zM295.374 177.027l-.481 1.496h-1.582l1.29.93-.5 1.492 1.273-.922 1.269.922-.48-1.507 1.277-.907h-1.578l-.488-1.504zM301.241 174.113l-.601 1.871h-1.981l1.609 1.161-.621 1.871 1.594-1.161 1.586 1.161-.605-1.883 1.597-1.145h-1.972l-.606-1.875zM304.007 168.582l-.602 1.867h-1.972l1.601 1.16-.621 1.871 1.594-1.164 1.594 1.164-.614-1.886 1.598-1.137h-1.969l-.609-1.875zM303.003 161.621l-.719 2.242h-2.375l1.926 1.399-.738 2.242 1.906-1.395 1.906 1.395-.726-2.262 1.914-1.367h-2.364l-.73-2.254zM312.839 162.027l-.481 1.493h-1.582l1.285.929-.492 1.492 1.27-.925 1.273.925-.488-1.503 1.281-.915h-1.578l-.488-1.496zM269.612 133.07l-.484 1.496h-1.582l1.285.934-.492 1.496 1.273-.93 1.266.93-.485-1.512 1.282-.906h-1.574l-.489-1.508zM202.491 150.773l-.351 1.067h-1.125l.914.66-.352 1.074.914-.664.906.664-.347-1.078.914-.652h-1.133l-.34-1.071zM184.21 160.746l-.48 1.5h-1.59l1.285.93-.489 1.496 1.274-.93 1.273.93-.488-1.508 1.273-.91h-1.57l-.488-1.508zM209.351 160.754l-.606 1.871h-1.98l1.613 1.156-.617 1.871 1.59-1.156 1.589 1.156-.609-1.882 1.594-1.141h-1.965l-.609-1.875zM206.581 168.922l-.601 1.871h-1.977l1.605 1.16-.621 1.871 1.594-1.16 1.594 1.16-.614-1.886 1.598-1.141h-1.965l-.613-1.875zM221.753 175.594l-.723 2.242h-2.375l1.93 1.394-.742 2.243 1.91-1.395 1.91 1.395-.734-2.262 1.922-1.367h-2.364l-.734-2.25z"/></svg>