<svg xmlns="http://www.w3.org/2000/svg" viewBox="0 0 499.839 277.402"><path fill="#f7e017" d="M499.839 277.402V-.375h-500v277.777h500z"/><path fill="#fff" d="M499.839 199l-500-112.543V19.25l500 111.656V199z"/><path d="M499.839 199l-500-112.543v59l500 112.445V199z"/><g><path fill="#ee3e42" d="M252.605 140.078l-.962-50.969h-3.531l-.808 50.965 5.301.004z"/><path fill="none" stroke="#000" stroke-width=".067" d="M252.605 140.078l-.962-50.969h-3.531l-.808 50.965 5.301.004z"/><path d="M249.839 126.363c2.105 1.91 3.824 6.141 3.539 9.164.48-3.227 3.348-7.051 6.887-6.852-8.035 10.68 4.395 20.25-10.426 29.711-14.82-9.461-2.391-19.031-10.422-29.711 3.539-.199 6.406 3.625 6.887 6.852-.289-3.023 1.433-7.254 3.535-9.164z" fill="#ee3e42"/><path d="M249.839 126.363c2.105 1.91 3.824 6.141 3.539 9.164.48-3.227 3.348-7.051 6.887-6.852-8.035 10.68 4.395 20.25-10.426 29.711-14.82-9.461-2.391-19.031-10.422-29.711 3.539-.199 6.406 3.625 6.887 6.852-.289-3.023 1.433-7.254 3.535-9.164z" fill="none" stroke="#000" stroke-width=".067"/><path d="M249.839 179.367c16.918-10.262 2.73-20.629 11.895-32.199-4.039-.219-7.309 3.93-7.855 7.422.328-3.273-1.633-7.855-4.039-9.93-2.398 2.074-4.363 6.656-4.035 9.93-.547-3.492-3.82-7.641-7.859-7.422 9.166 11.57-5.021 21.937 11.893 32.199z" fill="#ee3e42"/><path d="M249.839 179.367c16.918-10.262 2.73-20.629 11.895-32.199-4.039-.219-7.309 3.93-7.855 7.422.328-3.273-1.633-7.855-4.039-9.93-2.398 2.074-4.363 6.656-4.035 9.93-.547-3.492-3.82-7.641-7.859-7.422 9.166 11.57-5.021 21.937 11.893 32.199z" fill="none" stroke="#000" stroke-width=".067"/><path d="M249.839 193.992c17.461-2.621 6.059-10.531 13.973-23.469-2.895 1.039-7.203-1.855-9.066 5.238.879-4.527-4.086-6.766-4.906-9.711-.816 2.945-5.785 5.184-4.91 9.711-1.855-7.094-6.164-4.199-9.055-5.238 7.909 12.938-3.493 20.848 13.964 23.469z" fill="#ee3e42"/><path d="M249.839 193.992c17.461-2.621 6.059-10.531 13.973-23.469-2.895 1.039-7.203-1.855-9.066 5.238.879-4.527-4.086-6.766-4.906-9.711-.816 2.945-5.785 5.184-4.91 9.711-1.855-7.094-6.164-4.199-9.055-5.238 7.909 12.938-3.493 20.848 13.964 23.469z" fill="none" stroke="#000" stroke-width=".067"/><path d="M249.839 97.566c1.855-1.094 3.441-3.109 3.441-6.059 0 3.059 1.637 4.805 3.273 6.004 1.477-1.473 2.512-2.73 2.512-6.383 0 3.652 1.359 5.836 4.09 6.984 1.91-4.312-.227-13.211-3.93-15.09-1.828-.926-5.699-1.223-9.387-1.223-3.684 0-7.559.297-9.387 1.223-3.699 1.879-5.836 10.777-3.926 15.09 2.73-1.148 4.086-3.332 4.086-6.984 0 3.652 1.043 4.91 2.512 6.383 1.641-1.199 3.277-2.945 3.277-6.004.001 2.95 1.583 4.966 3.439 6.059z" fill="#ee3e42"/><path d="M249.839 97.566c1.855-1.094 3.441-3.109 3.441-6.059 0 3.059 1.637 4.805 3.273 6.004 1.477-1.473 2.512-2.73 2.512-6.383 0 3.652 1.359 5.836 4.09 6.984 1.91-4.312-.227-13.211-3.93-15.09-1.828-.926-5.699-1.223-9.387-1.223-3.684 0-7.559.297-9.387 1.223-3.699 1.879-5.836 10.777-3.926 15.09 2.73-1.148 4.086-3.332 4.086-6.984 0 3.652 1.043 4.91 2.512 6.383 1.641-1.199 3.277-2.945 3.277-6.004.001 2.95 1.583 4.966 3.439 6.059z" fill="none" stroke="#000" stroke-width=".067"/><path d="M249.839 85.5c5.539 0 10.035-.824 10.035-1.848 0-1.023-4.496-1.852-10.035-1.852s-10.031.828-10.031 1.852S244.3 85.5 249.839 85.5z" fill="#ee3e42"/><path d="M249.839 85.5c5.539 0 10.035-.824 10.035-1.848 0-1.023-4.496-1.852-10.035-1.852s-10.031.828-10.031 1.852S244.3 85.5 249.839 85.5z" fill="none" stroke="#000" stroke-width=".067"/><path d="M203.132 196.609c-1.969-.762-5.238-1.855-6.223-4.254-1.363 1.906-.875 5.785.109 7.855-4.582-.324-8.68 1.914-10.48 6.656 5.676-1.527 11.828-2.449 16.371.984 5.348 4.039 11.785 8.73 24.777 6.766-3.168-4.366-20.191-16.151-24.554-18.007z" fill="#ee3e42"/><path d="M203.132 196.609c-1.969-.762-5.238-1.855-6.223-4.254-1.363 1.906-.875 5.785.109 7.855-4.582-.324-8.68 1.914-10.48 6.656 5.676-1.527 11.828-2.449 16.371.984 5.348 4.039 11.785 8.73 24.777 6.766-3.168-4.366-20.191-16.151-24.554-18.007z" fill="none" stroke="#000" stroke-width=".067"/><path d="M296.554 196.609c1.961-.762 5.238-1.855 6.219-4.254 1.363 1.906.875 5.785-.105 7.855 4.578-.324 8.672 1.914 10.477 6.656-5.676-1.527-11.828-2.449-16.375.984-5.348 4.039-11.785 8.73-24.773 6.766 3.166-4.366 20.189-16.151 24.557-18.007z" fill="#ee3e42"/><path d="M296.554 196.609c1.961-.762 5.238-1.855 6.219-4.254 1.363 1.906.875 5.785-.105 7.855 4.578-.324 8.672 1.914 10.477 6.656-5.676-1.527-11.828-2.449-16.375.984-5.348 4.039-11.785 8.73-24.773 6.766 3.166-4.366 20.189-16.151 24.557-18.007z" fill="none" stroke="#000" stroke-width=".067"/><path d="M249.839 220.074c15.062 0 25.695-5.117 30.887-10.613 4.586-1.855 10.297-5.309 13.918-7.395 5.781-3.328 3.273-4.965 1.688-6.875-1.602-1.934-1.527-3.93-1.961-6.547-.383-2.285-3.273-7.098-9.715.434-7.848 9.176-25.648 14.297-34.816 14.297-9.168 0-26.965-5.121-34.812-14.297-6.441-7.531-9.332-2.719-9.715-.434-.434 2.617-.359 4.613-1.965 6.547-1.582 1.91-4.09 3.547 1.691 6.875 3.625 2.086 9.332 5.539 13.918 7.395 5.19 5.496 15.815 10.613 30.882 10.613z" fill="#ee3e42"/><path d="M249.839 220.074c15.062 0 25.695-5.117 30.887-10.613 4.586-1.855 10.297-5.309 13.918-7.395 5.781-3.328 3.273-4.965 1.688-6.875-1.602-1.934-1.527-3.93-1.961-6.547-.383-2.285-3.273-7.098-9.715.434-7.848 9.176-25.648 14.297-34.816 14.297-9.168 0-26.965-5.121-34.812-14.297-6.441-7.531-9.332-2.719-9.715-.434-.434 2.617-.359 4.613-1.965 6.547-1.582 1.91-4.09 3.547 1.691 6.875 3.625 2.086 9.332 5.539 13.918 7.395 5.19 5.496 15.815 10.613 30.882 10.613z" fill="none" stroke="#000" stroke-width=".067"/><path d="M220.608 113.242c-6.711 7.16-10.816 16.789-10.816 27.375 0 22.121 17.93 40.055 40.047 40.055 22.121 0 40.055-17.934 40.055-40.055 0-11.863-5.164-22.527-13.359-29.855l1.645-1.836c14.34 9.293 23.828 25.445 23.828 43.809 0 28.812-23.355 52.172-52.168 52.172-28.809 0-52.168-23.359-52.168-52.172 0-16.922 8.062-31.965 20.551-41.496l2.385 2.003z" fill="#ee3e42"/><path d="M220.608 113.242c-6.711 7.16-10.816 16.789-10.816 27.375 0 22.121 17.93 40.055 40.047 40.055 22.121 0 40.055-17.934 40.055-40.055 0-11.863-5.164-22.527-13.359-29.855l1.645-1.836c14.34 9.293 23.828 25.445 23.828 43.809 0 28.812-23.355 52.172-52.168 52.172-28.809 0-52.168-23.359-52.168-52.172 0-16.922 8.062-31.965 20.551-41.496l2.385 2.003z" fill="none" stroke="#000" stroke-width=".067"/><path d="M249.839 119.125c1.895 3.852 7.621 5.402 10.699 4.254 5.348 2.238 9.602 2.184 12.305-.242 4.137.621 10.453 1.391 10.738-2.32 3.383.281 7.863-.184 8.242-3.18 4.699-.293 5.762-1.59 6.398-3.762 4.297-2.16 4.371-4.918.516-4.461-12.027 1.418-17.551-1.297-26.012-4.07-8.465-2.773-16.238-7.711-22.887-2.156-6.645-5.555-14.418-.617-22.883 2.156s-13.98 5.488-26.016 4.07c-3.848-.457-3.777 2.301.52 4.461.637 2.172 1.699 3.469 6.398 3.762.379 2.996 4.863 3.461 8.242 3.18.281 3.711 6.598 2.941 10.738 2.32 2.703 2.426 6.957 2.48 12.305.242 3.08 1.148 8.802-.402 10.697-4.254z" fill="#ee3e42"/><path d="M249.839 119.125c1.895 3.852 7.621 5.402 10.699 4.254 5.348 2.238 9.602 2.184 12.305-.242 4.137.621 10.453 1.391 10.738-2.32 3.383.281 7.863-.184 8.242-3.18 4.699-.293 5.762-1.59 6.398-3.762 4.297-2.16 4.371-4.918.516-4.461-12.027 1.418-17.551-1.297-26.012-4.07-8.465-2.773-16.238-7.711-22.887-2.156-6.645-5.555-14.418-.617-22.883 2.156s-13.98 5.488-26.016 4.07c-3.848-.457-3.777 2.301.52 4.461.637 2.172 1.699 3.469 6.398 3.762.379 2.996 4.863 3.461 8.242 3.18.281 3.711 6.598 2.941 10.738 2.32 2.703 2.426 6.957 2.48 12.305.242 3.08 1.148 8.802-.402 10.697-4.254z" fill="none" stroke="#000" stroke-width=".067"/><path d="M201.46 113.875c1.996 1.102 7.344 1.59 15.258-.594" fill="#e03a3e"/><path d="M201.46 113.875c1.996 1.102 7.344 1.59 15.258-.594" fill="none" stroke="#000" stroke-width=".067"/><path d="M207.858 117.637c6.129.395 13.387.066 18.844-1.953" fill="#e03a3e"/><path d="M207.858 117.637c6.129.395 13.387.066 18.844-1.953" fill="none" stroke="#000" stroke-width=".067"/><path d="M216.101 120.816c6.234-.055 11.586-.93 16.387-2.785" fill="#e03a3e"/><path d="M216.101 120.816c6.234-.055 11.586-.93 16.387-2.785" fill="none" stroke="#000" stroke-width=".067"/><path d="M226.839 123.137c4.012-.527 10.176-2.324 13.613-5.484" fill="#e03a3e"/><path d="M226.839 123.137c4.012-.527 10.176-2.324 13.613-5.484" fill="none" stroke="#000" stroke-width=".067"/><path d="M239.143 123.379c2.238-.82 5.238-3.004 6.715-5.133" fill="#e03a3e"/><path d="M239.143 123.379c2.238-.82 5.238-3.004 6.715-5.133" fill="none" stroke="#000" stroke-width=".067"/><path d="M298.222 113.875c-2 1.102-7.348 1.59-15.258-.594" fill="#e03a3e"/><path d="M298.222 113.875c-2 1.102-7.348 1.59-15.258-.594" fill="none" stroke="#000" stroke-width=".067"/><path d="M291.823 117.637c-6.133.395-13.387.066-18.848-1.953" fill="#e03a3e"/><path d="M291.823 117.637c-6.133.395-13.387.066-18.848-1.953" fill="none" stroke="#000" stroke-width=".067"/><path d="M283.581 120.816c-6.238-.055-11.586-.93-16.387-2.785" fill="#e03a3e"/><path d="M283.581 120.816c-6.238-.055-11.586-.93-16.387-2.785" fill="none" stroke="#000" stroke-width=".067"/><path d="M272.843 123.137c-4.012-.527-10.184-2.324-13.617-5.484" fill="#e03a3e"/><path d="M272.843 123.137c-4.012-.527-10.184-2.324-13.617-5.484" fill="none" stroke="#000" stroke-width=".067"/><path d="M260.538 123.379c-2.238-.82-5.238-3.004-6.715-5.133" fill="#e03a3e"/><path d="M260.538 123.379c-2.238-.82-5.238-3.004-6.715-5.133" fill="none" stroke="#000" stroke-width=".067"/><path d="M251.147 62.809l.383 20.543c0 .195-.746.348-1.664.348-.914 0-1.656-.152-1.656-.348l.32-20.543h2.617z" fill="#ee3e42"/><path d="M251.147 62.809l.383 20.543c0 .195-.746.348-1.664.348-.914 0-1.656-.152-1.656-.348l.32-20.543h2.617z" fill="none" stroke="#000" stroke-width=".067"/><path d="M249.839 65.055a4.05 4.05 0 1 0 0-8.102 4.053 4.053 0 0 0-4.051 4.055 4.047 4.047 0 0 0 4.051 4.047z" fill="#ee3e42"/><path d="M249.839 65.055a4.05 4.05 0 1 0 0-8.102 4.053 4.053 0 0 0-4.051 4.055 4.047 4.047 0 0 0 4.051 4.047z" fill="none" stroke="#000" stroke-width=".067"/><path d="M249.839 66.043c7.574-.559 8.449 6.191 16.949 6.199-1.578 1.695-3.148 3.613-5.188 3.766 2.273 1.867.875 5.348 3.961 6.402-8.5-.016-8.211-5.16-15.723-4.605V66.043h.001z" fill="#ee3e42"/><path d="M249.839 66.043c7.574-.559 8.449 6.191 16.949 6.199-1.578 1.695-3.148 3.613-5.188 3.766 2.273 1.867.875 5.348 3.961 6.402-8.5-.016-8.211-5.16-15.723-4.605V66.043h.001z" fill="none" stroke="#000" stroke-width=".067"/><path d="M329.694 123.379c-.562-1.438-2.523-1.078-3.164.492-.641 1.566-.93 3.93-.918 5.57-.578 1.188-1.93 2.973-2.203 4.969-.371 2.719 5.727 1.457 6.285-4.27.274-2.777.711-5.507 0-6.761z" fill="#ee3e42"/><path d="M329.694 123.379c-.562-1.438-2.523-1.078-3.164.492-.641 1.566-.93 3.93-.918 5.57-.578 1.188-1.93 2.973-2.203 4.969-.371 2.719 5.727 1.457 6.285-4.27.274-2.777.711-5.507 0-6.761z" fill="none" stroke="#000" stroke-width=".067"/><path d="M333.405 123.047c-.707-1.363-3.438-1.086-4.203.715-.762 1.801-.762 3.762-.816 5.727-.98 1.258-2.383 3.938-3 5.789-.656 1.961-4.258 7.035 3 2.727 2.543-1.517 6.875-12.118 5.019-14.958z" fill="#ee3e42"/><path d="M333.405 123.047c-.707-1.363-3.438-1.086-4.203.715-.762 1.801-.762 3.762-.816 5.727-.98 1.258-2.383 3.938-3 5.789-.656 1.961-4.258 7.035 3 2.727 2.543-1.517 6.875-12.118 5.019-14.958z" fill="none" stroke="#000" stroke-width=".067"/><path d="M336.952 121.684c-1.477-1.691-4.254-.539-4.746 1.363-.465 1.801-.652 4.645-.441 6.824-1.797 1.367-3.98 5.184-4.637 7.801-3.707 2.516-8.73 6.879-6.328 9.277 2.402 2.403 19.863-10.586 16.152-25.265z" fill="#ee3e42"/><path d="M336.952 121.684c-1.477-1.691-4.254-.539-4.746 1.363-.465 1.801-.652 4.645-.441 6.824-1.797 1.367-3.98 5.184-4.637 7.801-3.707 2.516-8.73 6.879-6.328 9.277 2.402 2.403 19.863-10.586 16.152-25.265z" fill="none" stroke="#000" stroke-width=".067"/><path d="M318.311 192.57c4.098.035 8.191-.844 8.164-2.07-.137-6.223-1.09-30.887-.98-37.98 2.289-1.805 6.219-5.512 8.074-7.586 1.855-2.074 2.84-3.332 3.332-5.785.488-2.457 1.254-4.148 1.578-5.293.715-2.496 1.043-4.309 1.367-9.441.191-3.055-.383-3.871-1.422-3.82-2.895.156-3.547 5.895-3.547 9.715-2.234 1.965-3.273 5.457-3.816 8.406-3.059 1.688-6.648 3.879-8.188 5.836-1.199 1.527-1.797 1.828.176-1.199 1.527-2.336 1.211-4.504 2.848-6.629 1-1.297 3.195-4.285.832-5.355-2.363-1.066-3.711.695-5.168 3.285-1.387 2.469-3.906 4.199-7.309 6.512-5.133 3.496-3.387 9.172-3.387 14.086 0 5.473-.762 26.078-.762 35.25.001 1.084 4.107 2.037 8.208 2.068z" fill="#ee3e42"/><path d="M318.311 192.57c4.098.035 8.191-.844 8.164-2.07-.137-6.223-1.09-30.887-.98-37.98 2.289-1.805 6.219-5.512 8.074-7.586 1.855-2.074 2.84-3.332 3.332-5.785.488-2.457 1.254-4.148 1.578-5.293.715-2.496 1.043-4.309 1.367-9.441.191-3.055-.383-3.871-1.422-3.82-2.895.156-3.547 5.895-3.547 9.715-2.234 1.965-3.273 5.457-3.816 8.406-3.059 1.688-6.648 3.879-8.188 5.836-1.199 1.527-1.797 1.828.176-1.199 1.527-2.336 1.211-4.504 2.848-6.629 1-1.297 3.195-4.285.832-5.355-2.363-1.066-3.711.695-5.168 3.285-1.387 2.469-3.906 4.199-7.309 6.512-5.133 3.496-3.387 9.172-3.387 14.086 0 5.473-.762 26.078-.762 35.25.001 1.084 4.107 2.037 8.208 2.068z" fill="none" stroke="#000" stroke-width=".067"/><path d="M318.245 189.555c-2.613 0-6.258-.512-8.25-1.758-3.762-2.371-.672-4.66.176-4.66 0 1.992 6.711 2.332 8.074 2.332 1.359 0 8.051-.34 8.051-2.332.926 0 3.809 2.23.172 4.66-1.879 1.246-5.61 1.758-8.223 1.758z" fill="#ee3e42"/><path d="M318.245 189.555c-2.613 0-6.258-.512-8.25-1.758-3.762-2.371-.672-4.66.176-4.66 0 1.992 6.711 2.332 8.074 2.332 1.359 0 8.051-.34 8.051-2.332.926 0 3.809 2.23.172 4.66-1.879 1.246-5.61 1.758-8.223 1.758z" fill="none" stroke="#000" stroke-width=".067"/><path d="M318.245 185.555c-2.586 0-6.195-.5-8.168-1.742-3.73-2.344-.664-4.609.172-4.609 0 1.973 6.648 2.309 7.996 2.309 1.352 0 7.969-.336 7.969-2.309.914 0 3.773 2.207.172 4.609-1.86 1.242-5.559 1.742-8.141 1.742z" fill="#ee3e42"/><path d="M318.245 185.555c-2.586 0-6.195-.5-8.168-1.742-3.73-2.344-.664-4.609.172-4.609 0 1.973 6.648 2.309 7.996 2.309 1.352 0 7.969-.336 7.969-2.309.914 0 3.773 2.207.172 4.609-1.86 1.242-5.559 1.742-8.141 1.742z" fill="none" stroke="#000" stroke-width=".067"/><path d="M318.245 181.504c-2.535 0-6.074-.5-8.004-1.715-3.656-2.293-.656-4.52.164-4.52 0 1.934 6.52 2.262 7.84 2.262 1.324 0 7.809-.328 7.809-2.262.902 0 3.703 2.164.168 4.52-1.817 1.215-5.442 1.715-7.977 1.715z" fill="#ee3e42"/><path d="M318.245 181.504c-2.535 0-6.074-.5-8.004-1.715-3.656-2.293-.656-4.52.164-4.52 0 1.934 6.52 2.262 7.84 2.262 1.324 0 7.809-.328 7.809-2.262.902 0 3.703 2.164.168 4.52-1.817 1.215-5.442 1.715-7.977 1.715z" fill="none" stroke="#000" stroke-width=".067"/><path d="M169.983 123.379c.566-1.438 2.527-1.078 3.164.492.641 1.566.93 3.93.922 5.57.578 1.188 1.93 2.973 2.203 4.969.371 2.719-5.727 1.457-6.289-4.27-.269-2.777-.707-5.507 0-6.761z" fill="#ee3e42"/><path d="M169.983 123.379c.566-1.438 2.527-1.078 3.164.492.641 1.566.93 3.93.922 5.57.578 1.188 1.93 2.973 2.203 4.969.371 2.719-5.727 1.457-6.289-4.27-.269-2.777-.707-5.507 0-6.761z" fill="none" stroke="#000" stroke-width=".067"/><path d="M166.276 123.047c.707-1.363 3.438-1.086 4.199.715.766 1.801.766 3.762.82 5.727.977 1.258 2.387 3.938 3.004 5.789.652 1.961 4.254 7.035-3.004 2.727-2.542-1.517-6.874-12.118-5.019-14.958z" fill="#ee3e42"/><path d="M166.276 123.047c.707-1.363 3.438-1.086 4.199.715.766 1.801.766 3.762.82 5.727.977 1.258 2.387 3.938 3.004 5.789.652 1.961 4.254 7.035-3.004 2.727-2.542-1.517-6.874-12.118-5.019-14.958z" fill="none" stroke="#000" stroke-width=".067"/><path d="M162.73 121.684c1.473-1.691 4.254-.539 4.746 1.363.461 1.801.656 4.645.438 6.824 1.801 1.367 3.98 5.184 4.637 7.801 3.711 2.516 8.734 6.879 6.328 9.277-2.399 2.403-19.864-10.586-16.149-25.265z" fill="#ee3e42"/><path d="M162.73 121.684c1.473-1.691 4.254-.539 4.746 1.363.461 1.801.656 4.645.438 6.824 1.801 1.367 3.98 5.184 4.637 7.801 3.711 2.516 8.734 6.879 6.328 9.277-2.399 2.403-19.864-10.586-16.149-25.265z" fill="none" stroke="#000" stroke-width=".067"/><path d="M181.37 192.57c-4.098.035-8.191-.844-8.164-2.07.141-6.223 1.094-30.887.98-37.98-2.293-1.805-6.219-5.512-8.074-7.586-1.859-2.074-2.836-3.332-3.332-5.785-.488-2.457-1.25-4.148-1.582-5.293-.711-2.496-1.031-4.309-1.363-9.441-.195-3.055.383-3.871 1.418-3.82 2.898.156 3.547 5.895 3.547 9.715 2.238 1.965 3.277 5.457 3.824 8.406 3.055 1.688 6.645 3.879 8.184 5.836 1.199 1.527 1.797 1.828-.176-1.199-1.527-2.336-1.211-4.504-2.844-6.629-1-1.297-3.203-4.285-.84-5.355 2.367-1.066 3.719.695 5.172 3.285 1.387 2.469 3.906 4.199 7.309 6.512 5.129 3.496 3.383 9.172 3.383 14.086 0 5.473.766 26.078.766 35.25-.001 1.084-4.106 2.037-8.208 2.068z" fill="#ee3e42"/><path d="M181.37 192.57c-4.098.035-8.191-.844-8.164-2.07.141-6.223 1.094-30.887.98-37.98-2.293-1.805-6.219-5.512-8.074-7.586-1.859-2.074-2.836-3.332-3.332-5.785-.488-2.457-1.25-4.148-1.582-5.293-.711-2.496-1.031-4.309-1.363-9.441-.195-3.055.383-3.871 1.418-3.82 2.898.156 3.547 5.895 3.547 9.715 2.238 1.965 3.277 5.457 3.824 8.406 3.055 1.688 6.645 3.879 8.184 5.836 1.199 1.527 1.797 1.828-.176-1.199-1.527-2.336-1.211-4.504-2.844-6.629-1-1.297-3.203-4.285-.84-5.355 2.367-1.066 3.719.695 5.172 3.285 1.387 2.469 3.906 4.199 7.309 6.512 5.129 3.496 3.383 9.172 3.383 14.086 0 5.473.766 26.078.766 35.25-.001 1.084-4.106 2.037-8.208 2.068z" fill="none" stroke="#000" stroke-width=".067"/><path d="M181.436 189.555c2.609 0 6.258-.512 8.246-1.758 3.766-2.371.676-4.66-.168-4.66 0 1.992-6.715 2.332-8.078 2.332-1.363 0-8.051-.34-8.051-2.332-.926 0-3.812 2.23-.168 4.66 1.876 1.246 5.61 1.758 8.219 1.758z" fill="#ee3e42"/><path d="M181.436 189.555c2.609 0 6.258-.512 8.246-1.758 3.766-2.371.676-4.66-.168-4.66 0 1.992-6.715 2.332-8.078 2.332-1.363 0-8.051-.34-8.051-2.332-.926 0-3.812 2.23-.168 4.66 1.876 1.246 5.61 1.758 8.219 1.758z" fill="none" stroke="#000" stroke-width=".067"/><path d="M181.436 185.555c2.586 0 6.199-.5 8.164-1.742 3.73-2.344.664-4.609-.164-4.609 0 1.973-6.652 2.309-8 2.309-1.352 0-7.969-.336-7.969-2.309-.918 0-3.773 2.207-.168 4.609 1.852 1.242 5.552 1.742 8.137 1.742z" fill="#ee3e42"/><path d="M181.436 185.555c2.586 0 6.199-.5 8.164-1.742 3.73-2.344.664-4.609-.164-4.609 0 1.973-6.652 2.309-8 2.309-1.352 0-7.969-.336-7.969-2.309-.918 0-3.773 2.207-.168 4.609 1.852 1.242 5.552 1.742 8.137 1.742z" fill="none" stroke="#000" stroke-width=".067"/><path d="M181.436 181.504c2.535 0 6.074-.5 8.004-1.715 3.656-2.293.652-4.52-.164-4.52 0 1.934-6.52 2.262-7.84 2.262-1.324 0-7.812-.328-7.812-2.262-.898 0-3.699 2.164-.168 4.52 1.824 1.215 5.445 1.715 7.98 1.715z" fill="#ee3e42"/><path d="M181.436 181.504c2.535 0 6.074-.5 8.004-1.715 3.656-2.293.652-4.52-.164-4.52 0 1.934-6.52 2.262-7.84 2.262-1.324 0-7.812-.328-7.812-2.262-.898 0-3.699 2.164-.168 4.52 1.824 1.215 5.445 1.715 7.98 1.715zm21.419 19.09c-1.691-1.145-1.527-3.438 2.023-2.293 3.57 1.156 9.438 6.25 14.078 11.16m77.867-8.867c1.691-1.145 1.527-3.438-2.02-2.293-3.57 1.156-9.438 6.25-14.078 11.16" fill="none" stroke="#000" stroke-width=".067"/><path d="M208.061 159.191c-.617 6.258-2.602 12.52 2.938 16.273-1.215-1.027-.281-5.523 2.871-5.188 3.152.336 3.477 4.828 1.172 6.598m.688 2.153c-.312 2.445-1.551 4.793.441 6.27 1.863 1.383 3.434-2.551 1.926-3.285-1.34-.652-3.273 2.195-2.035 3.363 1.266 1.199 2.289 2.953 1.379 3.984-.914 1.031-2.34-.25-2.133-2.098m2.957-.163c3.836 2.543 5.105.629 6.258-9.699m2.917.871c-.855 3.84-1.816 8.219-2.426 10.773-1.164 4.93 2.895 7.316 4.438 2.516m3.137-.539c-.848 2.098-.316 4.086 1.129 4.742 1.777.801 3.469-.691 4.176-2.086m-3.297-6.047l-.141.129m-8.851 7.371l-.141.133m10.48 3.804c3.637.516 8.371-1.93 10.336-4.805 1.324-1.938 1.02-3.836.32-4.191-.695-.355-2.203.574-2.883 2.621-.594 1.793-1.055 6.242 4.172 2.34-.949 2.043-.59 3.922.879 4.238 1.516.336 2.633-1.809 2.879-5.402.047 3.113.113 4.262 1.422 4.363 1.141.09 1.566-1.141 2.016-4.398-.172 1.738.109 3.949 1.48 4.203 1.465.277 2.418-1.766 2.812-3.496m2.001-5.332c1.914-.09 4.688-1.242 6.879-2.801-4.18 2.195-3.699 11.113-6.68 11.984 2.52-.07 3.781-4.723 6.277-4.301-1.789-.285-3.098 3.648-1.469 4.258 2.102.793 4.059-1.867 2.918-3.547.809.25 1.914-1.57 2.16-3.684.242-2.125.473-5.34-.043-7.652m1.388-3.386c1.094 5.723 1.633 11.746-.023 15.07m2.73-5.793c.461 2.309 1.777 2.734 3.074 2.52 1.594-.27 3.191-3.598.723-7.621m-2.508-.094l-.141.133m12.199-7.105c-1.664.648-2.297 2.094-2.773 3.336-.715 1.832-.27 2.469.301 2.766.621.328 1.648-.184 2.082-.848.508-.777.684-1.957-.07-2.43-.828-.527-2.281-.418-3.273 3.48-.301 1.18-1.395 1.5-2.09 1.121-.598-.328-.703-1.609-.234-2.438.383-.68 1.344-1.465 2.059-1.125.754.355.688 1.84.457 2.527-.523 1.539-1.746 3.457-2.926 4.344m6.502-10.351c.281-.152.988-.07.664-3.035-.328-2.961-1.18-6.434-2.98-9.395m-1.137 1.911c-1.152.453-1.477 2.051-1.137 2.855.34.805 1.395 1.445 2.605.98-1.027.551-.426 2.762 1.082 2.543m3.657 3.587c.469-.906.934-3.02.336-4.574.504 1.168 2.207 2.324 2.945 1.48.746-.848.156-2.727-.59-4.559-.754-1.828-2.422-5.328-4.121-8.129m6.145 8.043c.023-3.602-2.535-8.176-4.125-10.914m-84.636 37.485c.98.652 3.984 1.418 6.113.871 2.125-.547 2.238.93 1.961 1.801-.27.875-2.238 1.664-3.215.875-1.027-.824-.551-2.02.652-2.566m5.949.386c-.438 1.031-1.746 3.051-2.785 3.762m-1.09-.165c.105 1.473 1.469 2.398 2.781 2.344 1.309-.055 2.84-1.523 4.312-4.09-1.695 2.672-3.496 6.219-2.621 7.199.871.984 2.293.168 2.949-.598-.875 1.258-.711 2.512 0 3.109.707.602 1.801.219 2.676-.98-.66 1.035-.562 2.41.379 2.945.766.438 2.129-.215 2.621-1.363-.273.871 0 2.676 1.848 2.945 1.859.273 3.609-2.184 4.59-7.477m7.368 1.041c-.219 1.965-.871 5.129-1.531 6.547m-4.797 2.293c2.066.656 6-.109 7.527-1.746m4.691-6.547c-.105 1.855-1.254 5.891-1.688 7.531.922-1.91 3.535-1.301 3.82 0 .383 1.746-1.75 3.109-3.875 1.801m9.607-4.313c-.492 1.797-.387 4.637 2.234 4.91 2.172.227 4.367-.926 5.621-2.453.664-.812 1.254-2.02.328-2.84-.93-.82-1.203-1.637-.273-2.293.93-.656 1.598-.793 2.727-.27 2.129.98 3.875.164 3.766-2.949m-3.982.493l-.113.324m.328 7.805l-.105.332m-2.461 1.414l-.105.332m5.675-3.824c2.781 1.148 6.395-1.797 7.637-5.238.711-1.961.371-3.582-.598-3.984-.793-.324-2.051.438-2.539 1.637-.434 1.055-.301 2.785.602 3.219.789.387 2.266 0 2.535-.871m1.637 1.854c3.984-4.039 4.203-5.895 4.203-7.855 0-2.422-.598-4.148.93-4.805 1.566-.672 3.383-2.453 4.578-4.199 1.273-1.848 4.098-1.582 3.332 1.578m-1.907 2.621l-.113.328" fill="none" stroke="#fff100" stroke-width=".134" stroke-linecap="round"/></g></svg>