<svg xmlns="http://www.w3.org/2000/svg" viewBox="0 0 499.839 277.402"><path fill="#01029c" d="M499.839 277.402V-.375h-500v277.777h500z"/><path fill="#cc0001" d="M-.161 69.066h500v138.895h-500V69.066z"/><g stroke-width=".125" stroke-linecap="round" stroke-linejoin="round"><path d="M323.03 165.871c-1.105-.551-2.836-2.445-3.309-3.938v-12.824c0-3.066 1.492-4.957 3.227-5.746v-13.535c-.391 1.023-2.754.672-2.754 2.91H179.491c0-2.238-2.367-1.887-2.754-2.91v13.535c1.727.789 3.227 2.68 3.227 5.746v12.824c-.473 1.492-2.203 3.387-3.309 3.938H323.03zM325.933 165.871v3.695H173.737v-3.695h152.196zM329.089 169.566v5.317H170.593v-5.317h158.496zM333.339 174.883v6.137H166.347v-6.137h166.992zM337.979 181.02v7.476H161.702v-7.476h176.277zM343.483 188.496v7.672H156.194v-7.672h187.289zM246.851 161.934h-66.887" fill="#fff" stroke="#ec1c24"/><path d="M206.991 142.262V122c0-.906-.184-1.223-.902-.984-.945.312-1.656 1.336-2.207 2.363-.547 1.02-1.809.59-1.809-.121 0-2.91 1.695-2.043 1.695-4.562 0-.863-.754-.555-1.582.039-.82.59-.859-.469-.859-1.457 0-1.414 1.098-.984 1.098-2.832 0-1.062-.941-.512-1.531.078s-.984.352-.984-.945c0-1.414 1.418-1.453 1.418-2.754 0-.785-.664-.551-1.105.039-.426.594-1.492.473-1.336-.195.535-2.285-.672-4.605-1.613-5.395-.945-.781-1.02-1.293-1.02-1.965 0-.668-.082-1.062-.555-1.062-.469 0-.551.395-.551 1.062 0 .672-.082 1.184-1.023 1.965-.941.789-2.148 3.109-1.613 5.395.156.668-.902.789-1.336.195-.434-.59-1.098-.824-1.098-.039 0 1.301 1.418 1.34 1.418 2.754 0 1.297-.402 1.535-.992.945s-1.531-1.141-1.531-.078c0 1.848 1.105 1.418 1.105 2.832 0 .988-.043 2.047-.871 1.457-.824-.594-1.57-.902-1.57-.039 0 2.52 1.688 1.652 1.688 4.562 0 .711-1.254 1.141-1.805.121-.555-1.027-1.262-2.051-2.203-2.363-.727-.238-.91.078-.91.984v20.262h22.584zM198.925 143.918v21.953h-6.449v-21.953h6.449zM201.448 196.168v-30.297h-11.496v30.297h11.496z" fill="#fff" stroke="#ec1c24"/><path fill="#fff" stroke="#ec1c24" d="M198.925 196.168v-30.297h-6.449v30.297h6.449z"/><path d="M188.855 143.918c1.336 1.148 2.008 2.082 2.008 4.051v13.965c0 .871-.984 3.938-3.344 3.938m-3.579-.001c3.062 0 3.695-2.402 3.695-3.938v-16.328c0-1.969-1.852-3.07-3.23-3.344h-4.914m23.055 1.657c-1.336 1.148-2.004 2.082-2.004 4.051v13.965c0 .871.98 3.938 3.34 3.938m3.109-23.61c-1.371.273-3.223 1.375-3.223 3.344v16.328c0 1.535.625 3.938 3.695 3.938m-27.972-33.134v9.523c1.023 0 1.891 1.184 1.891 3.148v16.523c0 1.457-1.066 3.938-3.352 3.938" fill="none" stroke="#ec174c"/><path d="M184.405 142.262c0-2.398-2.418-5.902-4.914-5.902v-10.582h2.082v9.445c.324.066.52.32.637.512v-5.434h2.195v11.961z" fill="#fff" stroke="#ec1c24"/><path fill="#fff" stroke="#ec1c24" d="M184.405 127.527h-2.195v1.836h2.195v-1.836z"/><path d="M211.913 132.738v9.523h-4.922m0 .001c0-4.129 3.188-5.902 4.922-5.902" fill="none" stroke="#ec174c"/><path d="M210.569 131.301v5.34c.488-.188.949-.281 1.344-.281v-5.059h-1.344z" fill="#fff" stroke="#ec1c24"/><path d="M211.913 133.922h18.258m-18.258 4.094h18.258m-18.258 2.203h13.609m6.653 3.695h-20.309c-1.215 0-1.297.551-1.297 1.184v16.836c0 1.414 1.223 3.938 3.664 3.938m-3.664-18.102h22.043m-48.855 14.164v-11.309c0-.18.141-.32.316-.32h1.75c.176 0 .32.141.32.32v11.309m25.77-19.672h18.258m-24.309 19.672v-11.309c0-.18.145-.32.328-.32h1.75c.176 0 .316.141.316.32v11.309m2.313-11.629h1.613c.18 0 .32.141.32.32v11.309m5.196 0v-11.309c0-.18-.145-.32-.32-.32h-1.75a.316.316 0 0 0-.316.32v11.309m7.585 0v-11.309c0-.18-.148-.32-.324-.32h-1.75a.322.322 0 0 0-.324.32v11.309m7.59 0v-11.309c0-.18-.145-.32-.32-.32h-1.758a.32.32 0 0 0-.316.32v11.309m5.198 0v-11.309c0-.18.145-.32.32-.32h1.398" fill="none" stroke="#ec174c"/><path fill="#fff" stroke="#ec1c24" d="M252.835 161.934h66.887M292.69 142.262V122c0-.906.184-1.223.902-.984.949.312 1.652 1.336 2.203 2.363.555 1.02 1.816.59 1.816-.121 0-2.91-1.695-2.043-1.695-4.562 0-.863.746-.555 1.574.039.828.59.859-.469.859-1.457 0-1.414-1.098-.984-1.098-2.832 0-1.062.949-.512 1.539.078.586.59.977.352.977-.945 0-1.414-1.418-1.453-1.418-2.754 0-.785.672-.551 1.105.039.438.594 1.5.473 1.336-.195-.535-2.285.672-4.605 1.617-5.395.941-.781 1.023-1.293 1.023-1.965 0-.668.082-1.062.547-1.062.477 0 .551.395.551 1.062 0 .672.082 1.184 1.023 1.965.945.789 2.156 3.109 1.613 5.395-.156.668.902.789 1.344.195.43-.59 1.098-.824 1.098-.039 0 1.301-1.414 1.34-1.414 2.754 0 1.297.391 1.535.98.945.59-.59 1.535-1.141 1.535-.078 0 1.848-1.102 1.418-1.102 2.832 0 .988.043 2.047.871 1.457.82-.594 1.57-.902 1.57-.039 0 2.52-1.695 1.652-1.695 4.562 0 .711 1.262 1.141 1.812.121.555-1.027 1.262-2.051 2.203-2.363.727-.238.902.078.902.984v20.262H292.69zM300.753 143.918v21.953h6.457v-21.953h-6.457zM298.237 196.168v-30.297h11.489v30.297h-11.489z"/><path fill="#fff" stroke="#ec1c24" d="M300.753 196.168v-30.297h6.457v30.297h-6.457z"/><path d="M310.831 143.918c-1.344 1.148-2.008 2.082-2.008 4.051v13.965c0 .871.984 3.938 3.344 3.938m3.582-.001c-3.066 0-3.699-2.402-3.699-3.938v-16.328c0-1.969 1.848-3.07 3.223-3.344h4.922m-23.055 1.657c1.336 1.148 2 2.082 2 4.051v13.965c0 .871-.984 3.938-3.344 3.938m-3.106-23.61c1.375.273 3.227 1.375 3.227 3.344v16.328c0 1.535-.629 3.938-3.703 3.938m27.98-33.134v9.523c-1.023 0-1.891 1.184-1.891 3.148v16.523c0 1.457 1.066 3.938 3.344 3.938" fill="none" stroke="#ec174c"/><path d="M315.272 142.262c0-2.398 2.422-5.902 4.922-5.902v-10.582h-2.086v9.445c-.32.066-.523.32-.633.512v-5.434h-2.203v11.961z" fill="#fff" stroke="#ec1c24"/><path fill="#fff" stroke="#ec1c24" d="M315.272 127.527h2.204v1.836h-2.204v-1.836z"/><path d="M287.772 132.738v9.523h4.918m0 .001c0-4.129-3.188-5.902-4.918-5.902" fill="none" stroke="#ec174c"/><path d="M289.108 131.301v5.34c-.488-.188-.949-.281-1.336-.281v-5.059h1.336z" fill="#fff" stroke="#ec1c24"/><path d="M287.772 133.922h-18.254m18.254 4.094h-18.254m13.774 2.203h-13.621m-2.16 3.695h20.297c1.227 0 1.301.551 1.301 1.184v16.836c0 1.414-1.219 3.938-3.66 3.938m3.659-18.102h-22.031m48.852 14.164v-11.309c0-.18-.141-.32-.316-.32h-1.758a.316.316 0 0 0-.316.32v11.309m-25.767-19.672h-18.254m24.297 19.672v-11.309c0-.18-.141-.32-.32-.32h-1.75a.316.316 0 0 0-.316.32v11.309m-2.321-11.629h-1.613a.319.319 0 0 0-.32.32v11.309m-5.196 0v-11.309c0-.18.145-.32.328-.32h1.75c.176 0 .316.141.316.32v11.309m-7.581 0v-11.309c0-.18.137-.32.312-.32h1.758a.32.32 0 0 1 .316.32v11.309m-7.585 0v-11.309c0-.18.141-.32.324-.32h1.75c.176 0 .32.141.32.32v11.309m-5.195 0v-11.309c0-.18-.145-.32-.32-.32h-1.395" fill="none" stroke="#ec174c"/><path d="M269.558 142.5v-19.043c0 .387-2.32 1.492-2.32 2.476h-3.309v-2.269c.672 0 1.336-.602 1.473-1.121.066-.254-.074-.355-.305-.199-.23.152-1.5.699-1.711.301-.102-.188-.129-.23.375-.582.379-.254 1.688-1.16 1.945-1.336.453-.32-.34-1.293-.699-1.051-.453.297-1.098.75-1.586 1.086-.359.238-.836.539-1.004.039-.246-.668-.949-1.27-1.793-1.27h-21.57c-.84 0-1.547.602-1.785 1.27-.176.5-.645.199-1.004-.039-.492-.336-1.137-.789-1.586-1.086-.359-.242-1.152.73-.699 1.051.254.176 1.566 1.082 1.941 1.336.508.352.48.395.379.582-.211.398-1.477-.149-1.707-.301-.238-.156-.383-.055-.312.199.133.52.805 1.121 1.469 1.121v2.297h-3.457c0-.98-2.164-2.117-2.164-2.504V142.5h39.429z" fill="#fff" stroke="#ec1c24"/><path d="M255.722 90.168c0 1.18-.488 1.258-.488 2.203 0 .984 1.078.793 1.336.195.125-.273.945-.43.945.711 0 .984-1.141 1.73-1.141 3.027 0 1.062.59.867.941.16.355-.711 1.926-1.848 1.926-.039 0 .551.238 1.613-.547 2.438-.789.824-.707 1.449-.707 2.125 0 .75.562 1.336 1.223-.078.23-.512 1.801-1.531 1.801.117v2.047c0 1.023-1.367 1.418-1.367 2.359v1.652c0 .473.5.961.777.355.516-1.098 2.207-1.93 2.207-.43v1.609c0 .356.121.707-.871 1.496-.977.789-1.723 2.047-1.723 2.754v1.574c0 .395.625.867 1.258-.355.629-1.219 1.336-.629 1.336.238 0 .863.203 1.492-.902 2.398-1.105.906-.984 1.613-.984 2.516v4.527c0 .707.23.945-.59.945h-20.617c-.828 0-.59-.238-.59-.945v-4.527c0-.902.117-1.609-.984-2.516-1.105-.906-.906-1.535-.906-2.398 0-.867.711-1.457 1.336-.238.629 1.223 1.262.75 1.262.355v-1.574c0-.707-.746-1.965-1.73-2.754-.984-.789-.867-1.141-.867-1.496v-1.609c0-1.5 1.695-.668 2.203.43.277.605.785.117.785-.355v-1.652c0-.941-1.375-1.336-1.375-2.359v-2.047c0-1.648 1.574-.629 1.809-.117.652 1.414 1.223.828 1.223.078 0-.676.074-1.301-.711-2.125-.781-.824-.551-1.887-.551-2.438 0-1.809 1.574-.672 1.926.039.359.707.949.902.949-.16 0-1.297-1.137-2.043-1.137-3.027 0-1.141.82-.984.934-.711.266.598 1.344.789 1.344-.195 0-.945-.496-1.023-.496-2.203h11.763zM255.897 94.106H243.78M257.472 98.152h-15.266M259.128 102.836h-18.574M260.069 109.449h-20.461M259.675 116.371h-19.672M256.3 136.398v7.282h-12.914v-7.282H256.3zM233.98 120.727c.449.316 1.059-.816.699-1.051-.368-.242-1.153.73-.699 1.051zM265.706 120.727c-.453.316-1.059-.816-.699-1.051.359-.242 1.152.73.699 1.051z" fill="#fff" stroke="#ec1c24"/><path d="M232.292 125.961v11.738m11.094 2.442h-9.871c-.156-.906-.945-3.266-3.387-3.266m2.164-.477h9.914m-7.949-10.437v7.57m2.918-11.886v12.906c1.18.629 3.066 2.52 3.148 3.855.898.082 2.039.082 3.062.434m-6.21-4.289h5m-5-3.539c1.297.387 3.031 1.297 3.5 3.539" fill="none" stroke="#ec174c"/><path fill="#fff" stroke="#ec1c24" d="M254.561 165.871v30.297h-9.445v-30.297h9.445z"/><path fill="#fff" stroke="#ec1c24" d="M252.835 165.871v30.297h-5.984v-30.297h5.984zM252.835 165.871V143.68h-5.984v22.191h5.984z"/><path d="M243.386 143.68c.984.59 1.305 1.375 1.305 3.547v14.707c0 1.617-1.539 3.938-2.992 3.938M230.128 142.5c2.32.707 2.484 2.203 2.484 3.777v15.656c0 1.574-1.461 3.938-4.336 3.938m8.27-25.73c1.414 0 3.496 1.414 3.496 3.66v18.133c0 1.77-2.242 3.938-4.562 3.938m2.175-3.938v-11.309c0-.18.145-.32.32-.32h2.066m2.302 11.629v-11.309c0-.18.141-.32.32-.32h.527m24.196-24.344v11.738m-11.086 2.442h9.875c.156-.906.941-3.266 3.383-3.266m-4.137-10.914v7.57m-2.91-11.886v12.906c-1.18.629-3.07 2.52-3.145 3.855-.91.082-2.051.082-3.066.434m6.211-4.289h-4.996m4.996-3.539c-1.293.387-3.031 1.297-3.5 3.539m-2.711 9.129c-.992.59-1.301 1.375-1.301 3.547v14.707c0 1.617 1.531 3.938 2.988 3.938m5.156-25.731c-1.418 0-3.5 1.414-3.5 3.66v18.133c0 1.77 2.238 3.938 4.562 3.938m-2.183-3.938v-11.309c0-.18-.141-.32-.316-.32h-2.062m-2.301 11.629v-11.309c0-.18-.141-.32-.316-.32h-.539m13.07-7.805c-2.32.707-2.48 2.203-2.48 3.777v15.656c0 1.574 1.457 3.938 4.324 3.938" fill="none" stroke="#ec174c"/><path d="M255.722 90.168c1.074 0 1.031-2.469 0-2.469h-11.766c-1.023 0-1.062 2.469 0 2.469h11.766zM254.347 87.699c.738 0 .738-.281.203-.957-.543-.672-.516-.805-1.48-.805h-6.453c-.965 0-.945.133-1.48.805-.543.676-.543.957.199.957h9.011z" fill="#fff" stroke="#ec1c24"/><path d="M253.069 85.938c.742 0 .742-.297.199-.965-.535-.676-.508-.809-1.48-.809h-3.891c-.969 0-.945.133-1.48.809-.543.668-.543.965.199.965h6.453zM251.261 84.164c0-.945.23-3.305-1.418-3.305-1.656 0-1.418 2.359-1.418 3.305h2.836zM196.608 112.438c.332-.555.961-1.039 1.57-1.184v-1.805c-.473.035-.848.312-.98.547h-.199c-.141-.391-.805-1.316-1.301-1.609-.488.293-1.16 1.219-1.297 1.609h-.195c-.137-.234-.508-.512-.984-.547v1.805c.613.145 1.234.629 1.574 1.184h1.812z" fill="#fff" stroke="#ec1c24"/><path d="M197.198 116.371c.27-.824.848-1.336 1.469-1.73v-2.242c-.59.039-1.008.543-1.137.906h-.219c-.137-1.238-1.117-1.984-1.613-2.363-.488.379-1.48 1.125-1.613 2.363h-.219c-.129-.363-.547-.867-1.137-.906v2.242c.629.395 1.199.906 1.476 1.73h2.993z" fill="#fff" stroke="#ec1c24"/><path d="M197.788 120.188c.312-.883 1.254-1.793 2.16-2.238v-2.047c-.547.039-1.281.688-1.551 1.059h-.195c-.238-.766-1.418-2.734-2.504-3.223-1.078.488-2.258 2.457-2.496 3.223h-.195c-.277-.371-1.004-1.02-1.555-1.059v2.047c.902.445 1.844 1.355 2.164 2.238h4.172z" fill="#fff" stroke="#ec1c24"/><path d="M198.69 125.387c.176-1.023 1.043-2.562 2.047-3.387v-2.363c-.664.043-1.695.531-1.969 1.18h-.234c-.156-2.121-1.797-3.664-2.836-4.523-1.031.859-2.672 2.402-2.828 4.523h-.238c-.277-.648-1.301-1.137-1.973-1.18V122c1.004.824 1.871 2.363 2.047 3.387h5.984z" fill="#fff" stroke="#ec1c24"/><path d="M200.147 134.355c0-3.207.902-4.758 2.082-4.992v-4.023c-.984.125-1.969 1.066-2.281 1.934h-.277c-.156-3.113-2.285-6.02-3.973-7.473-1.688 1.453-3.816 4.359-3.973 7.473h-.273c-.316-.867-1.301-1.809-2.285-1.934v4.023c1.18.234 2.082 1.785 2.082 4.992h8.898z" fill="#fff" stroke="#ec1c24"/><path d="M199.87 139.512c.039-1.617.711-3.941 2.719-4.332v-3.969c-1.301.074-2.641.938-2.754 2.867h-.359c-.008-2.867-1.648-6.371-3.777-7.984-2.121 1.613-3.766 5.117-3.777 7.984h-.352c-.117-1.93-1.461-2.793-2.754-2.867v3.969c2.008.391 2.68 2.715 2.711 4.332h8.343z" fill="#fff" stroke="#ec1c24"/><path d="M201.05 142.262c-.312-4.996-3.262-8.262-5.352-9.797-2.082 1.535-5.039 4.801-5.352 9.797h10.704z" fill="#fff" stroke="#ec1c24"/><path d="M202.546 143.918v-4.684c-2.129.312-2.957 1.691-3.34 2.754h-.438c-.234-2.043-1.809-5.348-3.07-6.57-1.254 1.223-2.828 4.527-3.066 6.57h-.434c-.395-1.062-1.219-2.441-3.344-2.754v4.684h13.692zM304.89 112.438c.332-.555.965-1.039 1.574-1.184v-1.805c-.477.035-.848.312-.984.547h-.203c-.137-.391-.801-1.316-1.297-1.609-.488.293-1.156 1.219-1.293 1.609h-.203c-.137-.234-.508-.512-.977-.547v1.805c.609.145 1.238.629 1.574 1.184h1.809z" fill="#fff" stroke="#ec1c24"/><path d="M305.479 116.371c.273-.824.84-1.336 1.48-1.73v-2.242c-.598.039-1.02.543-1.148.906h-.215c-.137-1.238-1.121-1.984-1.617-2.363-.488.379-1.469 1.125-1.613 2.363h-.211c-.129-.363-.555-.867-1.145-.906v2.242c.629.395 1.199.906 1.473 1.73h2.996z" fill="#fff" stroke="#ec1c24"/><path d="M306.061 120.188c.32-.883 1.262-1.793 2.172-2.238v-2.047c-.551.039-1.273.688-1.555 1.059h-.203c-.23-.766-1.41-2.734-2.496-3.223-1.078.488-2.258 2.457-2.492 3.223h-.199c-.277-.371-1.004-1.02-1.551-1.059v2.047c.902.445 1.844 1.355 2.16 2.238h4.164z" fill="#fff" stroke="#ec1c24"/><path d="M306.972 125.387c.176-1.023 1.043-2.562 2.047-3.387v-2.363c-.672.043-1.695.531-1.965 1.18h-.238c-.156-2.121-1.797-3.664-2.836-4.523-1.027.859-2.672 2.402-2.828 4.523h-.234c-.277-.648-1.305-1.137-1.969-1.18V122c1.004.824 1.867 2.363 2.051 3.387h5.972z" fill="#fff" stroke="#ec1c24"/><path d="M308.429 134.355c0-3.207.91-4.758 2.082-4.992v-4.023c-.98.125-1.965 1.066-2.277 1.934h-.277c-.156-3.113-2.281-6.02-3.977-7.473-1.688 1.453-3.809 4.359-3.973 7.473h-.27c-.32-.867-1.305-1.809-2.285-1.934v4.023c1.18.234 2.086 1.785 2.086 4.992h8.891z" fill="#fff" stroke="#ec1c24"/><path d="M308.151 139.512c.043-1.617.711-3.941 2.719-4.332v-3.969c-1.301.074-2.637.938-2.754 2.867h-.359c-.004-2.867-1.652-6.371-3.777-7.984-2.121 1.613-3.762 5.117-3.777 7.984h-.352c-.113-1.93-1.449-2.793-2.754-2.867v3.969c2.008.391 2.672 2.715 2.719 4.332h8.335z" fill="#fff" stroke="#ec1c24"/><path d="M309.339 142.262c-.32-4.996-3.277-8.262-5.359-9.797-2.082 1.535-5.031 4.801-5.348 9.797h10.707z" fill="#fff" stroke="#ec1c24"/><path d="M310.831 143.918v-4.684c-2.129.312-2.949 1.691-3.352 2.754h-.426c-.238-2.043-1.812-5.348-3.074-6.57-1.254 1.223-2.828 4.527-3.062 6.57h-.434c-.395-1.062-1.223-2.441-3.344-2.754v4.684h13.692zM251.374 96.656c.199-.707.809-1.273 1.359-1.57v-2.398c-.531 0-1.039.449-1.359.824h-.195c-.102-.648-.387-2.047-1.336-2.398-.949.352-1.242 1.75-1.344 2.398h-.188c-.32-.375-.828-.824-1.363-.824v2.398c.555.297 1.16.863 1.363 1.57h3.063z" fill="#fff" stroke="#ec1c24"/><path d="M251.491 100.945c.398-1.258 1.219-2.004 2.348-2.199v-2.578c-.746.039-1.637.59-2.027 1.316h-.18c.074-1.453-.941-2.91-1.789-3.379-.848.469-1.871 1.926-1.789 3.379h-.176c-.395-.727-1.285-1.277-2.031-1.316v2.578c1.121.195 1.949.941 2.34 2.199h3.304z" fill="#fff" stroke="#ec1c24"/><path d="M251.964 106.891c.395-1.297 1.656-2.52 2.559-3.031v-3.738c-1.492.121-2.164 1.262-2.246 2.32h-.23c0-1.609-.516-3.773-2.203-4.758-1.695.984-2.203 3.149-2.203 4.758h-.238c-.082-1.059-.746-2.199-2.246-2.32v3.738c.91.512 2.164 1.734 2.566 3.031h4.241z" fill="#fff" stroke="#ec1c24"/><path d="M256.022 110.59v-3.977c-.789.082-2.543 1.145-2.66 2.441h-.238c-.074-2.043-1.469-5-3.281-6.414-1.809 1.414-3.207 4.371-3.289 6.414h-.23c-.121-1.297-1.871-2.359-2.66-2.441v3.977h12.358zM256.022 110.59c-.672 0-3.23.395-3.434 3.539h-5.5c-.195-3.145-2.754-3.539-3.426-3.539h12.36z" fill="#fff" stroke="#ec1c24"/><path d="M256.651 117.594v-4.211c-.91.078-2.148 1.379-2.422 2.676h-.234c-.156-2.398-2.699-5.59-4.152-6.574-1.457.984-3.996 4.176-4.148 6.574h-.246c-.27-1.297-1.512-2.598-2.414-2.676v4.211h13.616zM256.651 117.594c-1.188 0-2.324 1.574-2.523 4.012h-8.57c-.203-2.438-1.344-4.012-2.523-4.012h13.616z" fill="#fff" stroke="#ec1c24"/><path d="M258.577 125.899v-4.727c-.949.316-2.656 1.652-2.969 3.227h-.219c-.316-2.828-3.344-7.082-5.547-8.496-2.203 1.414-5.234 5.668-5.555 8.496h-.211c-.316-1.574-2.027-2.91-2.969-3.227v4.727h17.47z" fill="#fff" stroke="#ec1c24"/><path d="M258.577 125.899c-2.523.863-2.711 4.637-2.957 9.48h-11.562c-.238-4.844-.434-8.617-2.949-9.48h17.468z" fill="#fff" stroke="#ec1c24"/><path d="M257.515 136.398v-5.152c-1.691.234-2.641 2.598-2.797 4.133h-.352c0-2.598-.711-9.285-4.523-11.766-3.816 2.48-4.531 9.168-4.531 11.766h-.344c-.164-1.535-1.105-3.898-2.793-4.133v5.152h15.34z" fill="#fff" stroke="#ec1c24"/><path d="M256.3 143.68v-4.84c-1.148.078-2.09 1.613-2.645 2.676h-.348c.23-1.691-.203-6.098-3.465-7.793-3.27 1.695-3.703 6.102-3.465 7.793h-.352c-.551-1.062-1.5-2.598-2.641-2.676v4.84H256.3z" fill="#fff" stroke="#ec1c24"/></g></svg>