<svg xmlns="http://www.w3.org/2000/svg" viewBox="0 0 499.839 277.402"><path fill="red" d="M374.843 277.402V-.375h124.996v277.777H374.843zM-.161 277.402V-.375h125v277.777h-125z"/><path fill="#fff" d="M124.839 277.402V-.375h250.004v277.777H124.839z"/><path d="M254.456 240.34c-1.195-19.809-1.711-32.613-2.226-45-.215-5.293 4.414-4.805 7.859-4.266 28.52 4.441 42.016 6.488 42.016 6.488-10.25-19.297-3.055-20.418 2.555-25.105 32.113-26.812 38.941-32.617 38.941-32.617-14.859-5.039-12.812-3.164-3.25-38.766-30.992 9.816-28.434 6.914-35.008-8.375 0 0-2.387 2.738-21.773 24.594-2.734 3.086-7.367 1.023-6.402-3.754 10.078-49.867 10.586-51.918 10.586-51.918-19.641 11.871-18.887 12.531-22.027 6.406-10.762-21.008-15.883-31.34-15.883-31.34s-5.125 10.332-15.883 31.34c-3.141 6.125-2.395 5.465-22.035-6.406 0 0 .516 2.051 10.59 51.918.969 4.777-3.672 6.84-6.402 3.754-19.383-21.855-21.777-24.594-21.777-24.594-6.57 15.289-4.016 18.191-35.008 8.375 9.562 35.602 11.609 33.727-3.246 38.766 0 0 6.828 5.805 38.938 32.617 5.609 4.688 12.812 5.809 2.566 25.105 0 0 13.488-2.047 42.012-6.488 3.438-.539 8.07-1.027 7.852 4.266-.516 12.387-1.023 25.191-2.215 45h9.22z" fill="red"/></svg>