<svg xmlns="http://www.w3.org/2000/svg" viewBox="0 0 499.839 277.402"><path fill="#de2910" d="M499.839 277.402V-.375h-500v277.777h500z"/><g fill="#ffde00"><path d="M62.241 34.359l-9.699 30.122H20.675l25.883 18.742-9.946 30.093 25.629-18.695 25.633 18.695-9.816-30.347 25.754-18.36h-31.75l-9.821-30.25zM124.948 24.227l5.449 9.14-7.082 8.047 10.485-2.367 5.383 9.199.976-10.625 10.418-2.312-9.844-4.266 1.086-10.586-7.051 8.02-9.82-4.25zM159.218 49.91l1.504 10.535-9.637 4.692 10.586 1.859 1.418 10.563 5-9.43 10.5 1.887-7.43-7.735 5.086-9.34-9.602 4.672-7.425-7.703zM151.585 103.449l8.789 6.004-3.055 10.278 8.524-6.551 8.746 6.086-3.574-10.051 8.48-6.473-10.723.258-3.453-10.062-3.043 10.238-10.691.273zM124.522 127.606l5.856 8.886-6.719 8.356 10.371-2.832 5.789 8.949.5-10.653 10.301-2.773-10.019-3.832.617-10.617-6.696 8.316-10-3.8z"/></g></svg>