<svg xmlns="http://www.w3.org/2000/svg" viewBox="0 0 499.706 277.402"><path fill="#00247d" d="M499.706 277.402V-.375H-.161v277.777h499.867z"/><path fill="#fff" d="M-.161 38.934h49.777L-.161 13.961V-.375h28.48l69.629 34.707V-.375h39.203v34.707L206.784-.375h28.719v14.336l-50.016 24.973h50.016v39.343h-50.016l50.016 24.977v14.344h-28.719l-69.633-34.715v34.715H97.948V82.883l-69.629 34.715H-.161v-14.344l49.777-24.977H-.161V38.934z"/><path fill="#e03a3e" d="M216.983-.375l-78.664 39.336h18.832L235.503-.375h-18.52zM235.503 117.598l-78.438-39.321h18.915l59.523 29.946v9.375zM78.651 38.961L-.161-.375V9.02l59.82 29.941h18.992zM78.491 78.277L-.161 117.598h18.824l78.656-39.321H78.491z"/><path fill="#e03a3e" d="M-.161 47.098H106.3V-.375h23.031v47.473h106.172v23.039H129.331v47.461H106.3V70.137H-.161V47.098z"/><g fill="#fff"><path d="M373.351 49.727l-4.012 12.441h-13.172l10.699 7.746-4.109 12.434 10.594-7.723 10.578 7.723-4.051-12.539 10.644-7.586h-13.121l-4.05-12.496zM329.167 59.141l1.402 12.996-12.027 5.359 12.918 2.727 1.301 13.027 6.531-11.371 12.824 2.762-8.808-9.809 6.64-11.258-11.984 5.328-8.797-9.761zM292.636 85.707l6.57 11.309-8.805 9.789 12.903-2.774 6.496 11.371 1.343-13.035 12.829-2.699-12.028-5.379 1.485-12.988-8.786 9.75-12.007-5.344zM270.081 124.836l10.598 7.648-4.071 12.532 10.676-7.782 10.551 7.754-4.074-12.461 10.613-7.683-13.184-.02-3.914-12.468-4.062 12.48h-13.133zM265.382 169.75l12.797 2.688 1.375 13.093 6.578-11.445 12.804 2.789-8.793-9.723 6.575-11.34-12.051 5.344-8.649-9.789 1.368 13.047-12.004 5.336zM279.358 212.707l12.789-2.766 6.582 11.414 1.36-13.14 12.816-2.656-11.984-5.305 1.398-13.035-8.824 9.785-11.898-5.426 6.562 11.363-8.801 9.766zM309.597 246.25l10.558-7.719 10.653 7.746-4.102-12.55 10.633-7.649-13.102.027-4.027-12.472-4.09 12.531-13.066-.121 10.613 7.715-4.07 12.492zM350.862 264.598l6.52-11.34 12.879 2.738-8.856-9.797 6.602-11.308-11.961 5.355-8.754-9.762 1.359 13.114-11.98 5.207 12.82 2.73 1.371 13.063zM396.034 264.574l1.332-13.008 12.887-2.734-12.074-5.352 1.429-13.019-8.754 9.762-11.957-5.36 6.575 11.43-8.84 9.629 12.84-2.731 6.562 11.383zM437.288 246.184l-4.066-12.426 10.644-7.738-13.203.023-3.98-12.477-4.032 12.477-13.101-.023 10.64 7.753-4.14 12.399 10.613-7.711 10.625 7.723zM467.495 212.609l-8.781-9.699 6.59-11.402-12.059 5.387-8.715-9.782 1.399 13.043-11.989 5.309 12.891 2.758 1.246 13.007 6.566-11.363 12.852 2.742zM481.425 169.641l-11.957-5.289 1.383-13.098-8.825 9.828-11.941-5.383 6.578 11.344-8.781 9.719 12.89-2.727 6.422 11.383 1.379-13.055 12.852-2.722zM476.679 124.723l-13.067.043-4.078-12.532-4.058 12.563-13.094-.059 10.621 7.684-4.074 12.457 10.672-7.734 10.496 7.777-4.039-12.477 10.621-7.722zM454.073 85.625l-11.93 5.352-8.808-9.793 1.402 13.132-11.992 5.266 12.828 2.699 1.34 13.039 6.609-11.402 12.758 2.832-8.777-9.754 6.57-11.371zM417.518 59.09l-8.71 9.746-12.032-5.359 6.614 11.425-8.813 9.692 12.816-2.754 6.536 11.367 1.394-13.109 12.805-2.602-11.981-5.332 1.371-13.074z"/></g></svg>