<svg xmlns="http://www.w3.org/2000/svg" viewBox="0 0 500 278"><defs><style>.cls-2{fill:#fff}.cls-5{fill:#3e8e43}</style></defs><g id="Layer_2" data-name="Layer 2"><g id="COM"><g id="Comoros"><path fill="#ffc71f" d="M0 0h500v278H0z"/><path id="rect2304" class="cls-2" d="M0 69.5h500V278H0z"/><path id="rect2926" fill="#cd2028" d="M0 139h500v139H0z"/><path id="rect3548" fill="#3f75ba" d="M0 208.5h500V278H0z"/><path id="path4170" class="cls-5" d="M0 278l231.7-139L0 0v278z"/><path id="path5413" class="cls-2" d="M141.3 139a62.6 62.6 0 1 1-62.5-62.5 62.6 62.6 0 0 1 62.5 62.5z"/><path id="path5414" class="cls-5" d="M169.1 139a62.6 62.6 0 1 1-62.6-62.5 62.5 62.5 0 0 1 62.6 62.5z"/><g id="use2407"><path id="path6092" class="cls-2" d="M81.7 180.2h8.4l2.6-8 2.6 8h8.4l-6.8 4.9 2.6 8-6.8-4.9-6.8 4.9 2.6-8z"/></g><path id="path6092-2" data-name="path6092" class="cls-2" d="M81.7 90.7h8.4l2.6-8 2.6 8h8.4l-6.8 4.9 2.6 8-6.8-4.9-6.8 4.9 2.6-8z"/><g id="use2403"><path id="path6092-3" data-name="path6092" class="cls-2" d="M81.7 120.5h8.4l2.6-8 2.6 8h8.4l-6.8 4.9 2.6 8-6.8-4.9-6.8 4.9 2.6-8z"/></g><g id="use2405"><path id="path6092-4" data-name="path6092" class="cls-2" d="M81.7 150.4h8.4l2.6-8 2.6 8h8.4l-6.8 4.9 2.6 8-6.8-4.9-6.8 4.9 2.6-8z"/></g></g></g></g></svg>