<svg xmlns="http://www.w3.org/2000/svg" viewBox="0 0 499.839 277.402"><path fill="#003893" d="M499.839 277.402V-.375h-500v277.777h500z"/><path fill="#fff" d="M499.839 205.746h-500v-62.891h500v62.891z"/><path fill="#ce1126" d="M499.839 184.785V163.82h-500v20.965h500z"/><g fill="#ffd420"><path d="M187.929 94.066l-3.196 9.938h-10.515l8.539 6.184-3.281 9.929 8.453-6.168 8.457 6.168-3.239-10.015 8.5-6.059h-10.476l-3.242-9.977zM148.425 106.918l-3.195 9.938h-10.52l8.543 6.183-3.285 9.93 8.457-6.172 8.457 6.172-3.239-10.012 8.5-6.058h-10.48l-3.238-9.981zM123.976 140.531l-3.204 9.934h-10.511l8.531 6.183-3.273 9.934 8.457-6.172 8.453 6.172-3.235-10.016 8.492-6.058h-10.472l-3.238-9.977zM124.003 182.055l-3.199 9.941h-10.516l8.543 6.184-3.281 9.925 8.453-6.167 8.457 6.167-3.238-10.015 8.496-6.055h-10.473l-3.242-9.98zM148.425 215.629l-3.199 9.941H134.71l8.539 6.184-3.281 9.93 8.457-6.168 8.453 6.168-3.238-10.012 8.503-6.059h-10.48l-3.238-9.984zM187.929 228.488l-3.196 9.934h-10.515l8.539 6.183-3.281 9.93 8.453-6.172 8.457 6.172-3.239-10.012 8.5-6.058h-10.476l-3.242-9.977zM227.397 106.918l3.2 9.938h10.519l-8.543 6.183 3.282 9.93-8.458-6.172-8.457 6.172 3.243-10.012-8.5-6.058h10.476l3.238-9.981zM251.851 140.531l3.199 9.934h10.511l-8.535 6.183 3.282 9.934-8.457-6.172-8.454 6.172 3.235-10.016-8.492-6.058h10.476l3.235-9.977zM251.823 182.055l3.199 9.941h10.516l-8.539 6.184 3.281 9.925-8.457-6.167-8.457 6.167 3.239-10.015-8.497-6.055h10.473l3.242-9.98zM227.401 215.629l3.2 9.941h10.515l-8.543 6.184 3.282 9.93-8.454-6.168-8.457 6.168 3.239-10.012-8.497-6.059h10.473l3.242-9.984z"/></g></svg>