<svg xmlns="http://www.w3.org/2000/svg" viewBox="0 0 499.839 277.402"><path fill="#de1818" d="M499.839 92.215h-500V-.375h500v92.59z"/><path fill="#00298c" d="M-.161 277.402h500v-92.593h-500v92.593z"/><path fill="#fff" d="M499.839 184.809h-500V92.215h500v92.594z"/><g><path d="M249.839 91.402c16.492 0 32.188 3.406 46.418 9.543l9.711-23.426-8.953-13.965-13.594 5.297-9.699-10.891-12.598 7.359-11.285-9.238-11.285 9.238-12.598-7.359-9.699 10.891-13.594-5.297-8.953 13.966 9.711 23.426c14.234-6.137 29.93-9.544 46.418-9.544z" fill="#fff"/><path d="M249.839 91.402c16.492 0 32.188 3.406 46.418 9.543l9.711-23.426-8.953-13.965-13.594 5.297-9.699-10.891-12.598 7.359-11.285-9.238-11.285 9.238-12.598-7.359-9.699 10.891-13.594-5.297-8.953 13.966 9.711 23.426c14.234-6.137 29.93-9.544 46.418-9.544z" fill="none" stroke="#000" stroke-width=".058"/><path d="M298.061 100.953v49.18c0 26.637-21.594 48.23-48.23 48.23-26.633 0-48.226-21.594-48.226-48.23v-49.18h96.456z" fill="#fff"/><path d="M298.061 100.953v49.18c0 26.637-21.594 48.23-48.23 48.23-26.633 0-48.226-21.594-48.226-48.23v-49.18h96.456z" fill="none" stroke="#000" stroke-width=".058"/><path d="M295.737 103.281v46.852c0 25.355-20.551 45.906-45.906 45.906-25.351 0-45.898-20.551-45.898-45.906 0-8.664-.008-46.852-.008-46.852h91.812z" fill="#de1818"/><path d="M295.737 103.281v46.852c0 25.355-20.551 45.906-45.906 45.906-25.351 0-45.898-20.551-45.898-45.906 0-8.664-.008-46.852-.008-46.852h91.812z" fill="none" stroke="#000" stroke-width=".058"/><path fill="#fff" d="M259.03 176.75v-18.367h-17.929v18.367h17.929z"/><path fill="none" stroke="#000" stroke-width=".058" d="M259.03 176.75v-18.367h-17.929v18.367h17.929z"/><path fill="#fff" d="M259.03 140.012v-18.371h-17.929v18.371h17.929z"/><path fill="none" stroke="#000" stroke-width=".058" d="M259.03 140.012v-18.371h-17.929v18.371h17.929z"/><path fill="#fff" d="M277.397 158.383v-18.375H259.03v18.375h18.367z"/><path fill="none" stroke="#000" stroke-width=".058" d="M277.397 158.383v-18.375H259.03v18.375h18.367z"/><path fill="#fff" d="M277.397 121.641v-18.364H259.03v18.364h18.367z"/><path fill="none" stroke="#000" stroke-width=".058" d="M277.397 121.641v-18.364H259.03v18.364h18.367z"/><path fill="#fff" d="M295.768 140.012v-18.371h-18.371v18.371h18.371z"/><path fill="none" stroke="#000" stroke-width=".058" d="M295.768 140.012v-18.371h-18.371v18.371h18.371z"/><path fill="#fff" d="M241.101 158.383v-18.375h-18.809v18.375h18.809z"/><path fill="none" stroke="#000" stroke-width=".058" d="M241.101 158.383v-18.375h-18.809v18.375h18.809z"/><path fill="#fff" d="M241.101 121.641v-18.364h-18.809v18.364h18.809z"/><path fill="none" stroke="#000" stroke-width=".058" d="M241.101 121.641v-18.364h-18.809v18.364h18.809z"/><path fill="#fff" d="M222.296 140.012v-18.371h-18.371v18.371h18.371z"/><path fill="none" stroke="#000" stroke-width=".058" d="M222.296 140.012v-18.371h-18.371v18.371h18.371z"/><path d="M241.101 195.125V176.75h-18.809l-.012 10.086c5.348 4.027 12.012 6.91 18.821 8.289z" fill="#fff"/><path d="M241.101 195.125V176.75h-18.809l-.012 10.086c5.348 4.027 12.012 6.91 18.821 8.289z" fill="none" stroke="#000" stroke-width=".058"/><path d="M204.663 158.379l17.633.004v18.367h-9.84c-3.836-5.379-6.566-11.617-7.793-18.371z" fill="#fff"/><path d="M204.663 158.379l17.633.004v18.367h-9.84c-3.836-5.379-6.566-11.617-7.793-18.371z" fill="none" stroke="#000" stroke-width=".058"/><path d="M259.03 195.125V176.75h18.371l.016 10.086c-5.352 4.027-11.582 6.91-18.387 8.289z" fill="#fff"/><path d="M259.03 195.125V176.75h18.371l.016 10.086c-5.352 4.027-11.582 6.91-18.387 8.289z" fill="none" stroke="#000" stroke-width=".058"/><path d="M295.022 158.379l-17.625.004v18.367h9.848c3.832-5.379 6.559-11.617 7.777-18.371z" fill="#fff"/><path d="M295.022 158.379l-17.625.004v18.367h9.848c3.832-5.379 6.559-11.617 7.777-18.371z" fill="none" stroke="#000" stroke-width=".058"/><path d="M231.241 91.313c3.098-.488 6.191-.852 9.27-1.102l-1.805-22.992-12.434-7.266-9.578 10.75 5.387 22.43a122.69 122.69 0 0 1 9.16-1.82z" fill="#005a9a"/><path d="M231.241 91.313c3.098-.488 6.191-.852 9.27-1.102l-1.805-22.992-12.434-7.266-9.578 10.75 5.387 22.43a122.69 122.69 0 0 1 9.16-1.82z" fill="none" stroke="#000" stroke-width=".058"/><path d="M213.101 95.672a121.004 121.004 0 0 1 8.98-2.539l-5.387-22.43-13.402-5.23-7.781 12.113 8.828 21.309a124.193 124.193 0 0 1 8.762-3.223z" fill="#007cc1"/><path d="M213.101 95.672a121.004 121.004 0 0 1 8.98-2.539l-5.387-22.43-13.402-5.23-7.781 12.113 8.828 21.309a124.193 124.193 0 0 1 8.762-3.223z" fill="none" stroke="#000" stroke-width=".058"/><path d="M249.839 89.852c3.141 0 6.254.121 9.328.359l1.812-22.992-11.141-9.121-11.133 9.121 1.805 22.992c3.079-.238 6.188-.359 9.329-.359z" fill="#007cc1"/><path d="M249.839 89.852c3.141 0 6.254.121 9.328.359l1.812-22.992-11.141-9.121-11.133 9.121 1.805 22.992c3.079-.238 6.188-.359 9.329-.359z" fill="none" stroke="#000" stroke-width=".058"/><path d="M268.436 91.313a124.134 124.134 0 0 0-9.27-1.102l1.812-22.992 12.426-7.266 9.578 10.75-5.391 22.43a121.558 121.558 0 0 0-9.155-1.82z" fill="#005a9a"/><path d="M268.436 91.313a124.134 124.134 0 0 0-9.27-1.102l1.812-22.992 12.426-7.266 9.578 10.75-5.391 22.43a121.558 121.558 0 0 0-9.155-1.82z" fill="none" stroke="#000" stroke-width=".058"/><path d="M286.581 95.672a120.11 120.11 0 0 0-8.988-2.539l5.391-22.43 13.406-5.23 7.781 12.113-8.828 21.309a123.827 123.827 0 0 0-8.762-3.223z" fill="#007cc1"/><path d="M286.581 95.672a120.11 120.11 0 0 0-8.988-2.539l5.391-22.43 13.406-5.23 7.781 12.113-8.828 21.309a123.827 123.827 0 0 0-8.762-3.223z" fill="none" stroke="#000" stroke-width=".058"/><path d="M301.327 84.441l-4.719 11.387a121.138 121.138 0 0 0-18.234-5.918l2.875-11.98a134.303 134.303 0 0 1 20.078 6.511z" fill="#fff"/><path d="M301.327 84.441l-4.719 11.387a121.138 121.138 0 0 0-18.234-5.918l2.875-11.98a134.303 134.303 0 0 1 20.078 6.511z" fill="none" stroke="#000" stroke-width=".058"/><path d="M300.382 86.707a131.444 131.444 0 0 0-19.715-6.371l-1.73 7.168a123.995 123.995 0 0 1 18.617 6.055l2.828-6.852z" fill="#ec1c2e"/><path d="M300.382 86.707a131.444 131.444 0 0 0-19.715-6.371l-1.73 7.168a123.995 123.995 0 0 1 18.617 6.055l2.828-6.852z" fill="none" stroke="#000" stroke-width=".058"/><path d="M219.44 82.133a130.121 130.121 0 0 1 20.188-3.176l.457 5.816a125.222 125.222 0 0 0-19.281 3.043l-1.364-5.683z" fill="#ec1c2e"/><path d="M219.44 82.133a130.121 130.121 0 0 1 20.188-3.176l.457 5.816a125.222 125.222 0 0 0-19.281 3.043l-1.364-5.683z" fill="none" stroke="#000" stroke-width=".058"/><path d="M239.167 73.129a135.4 135.4 0 0 0-21.098 3.32l-1.363-5.68a141.337 141.337 0 0 1 22-3.473l.461 5.833z" fill="#ec1c2e"/><path d="M239.167 73.129a135.4 135.4 0 0 0-21.098 3.32l-1.363-5.68a141.337 141.337 0 0 1 22-3.473l.461 5.833z" fill="none" stroke="#000" stroke-width=".058"/><path fill="#fff100" d="M207.667 78.93l.527-2.403 2.328-.757-1.82-1.661.492-2.421-2.328.753-1.836-1.64-.523 2.406-2.328.754 1.816 1.672-.492 2.414 2.332-.754 1.832 1.637z"/><path fill="none" stroke="#000" stroke-width=".029" d="M207.667 78.93l.527-2.403 2.328-.757-1.82-1.661.492-2.421-2.328.753-1.836-1.64-.523 2.406-2.328.754 1.816 1.672-.492 2.414 2.332-.754 1.832 1.637z"/><path fill="#fff100" d="M292.011 78.93l-.528-2.403-2.328-.757 1.821-1.661-.493-2.421 2.328.753 1.84-1.64.52 2.406 2.332.754-1.824 1.672.496 2.414-2.328-.754-1.836 1.637z"/><path fill="none" stroke="#000" stroke-width=".029" d="M292.011 78.93l-.528-2.403-2.328-.757 1.821-1.661-.493-2.421 2.328.753 1.84-1.64.52 2.406 2.332.754-1.824 1.672.496 2.414-2.328-.754-1.836 1.637z"/><path d="M214.73 81.246a6.217 6.217 0 0 1-3.312 9.242 6.214 6.214 0 0 1-7.84-3.973 6.31 6.31 0 0 1-.289-1.527c1.492 2.336 4.422 3.469 7.172 2.566 2.753-.898 4.448-3.542 4.269-6.308z" fill="#fff"/><path d="M214.73 81.246a6.217 6.217 0 0 1-3.312 9.242 6.214 6.214 0 0 1-7.84-3.973 6.31 6.31 0 0 1-.289-1.527c1.492 2.336 4.422 3.469 7.172 2.566 2.753-.898 4.448-3.542 4.269-6.308z" fill="none" stroke="#000" stroke-width=".029" stroke-linejoin="bevel"/><path d="M249.839 83.902c.598 0 .328-.441.711-.41-.16-.406.168-.613.324-.469.156.141.453.266.91.312-.266-.199.109-.613-.172-1.023.219.258.719.363 1.02.207-.203-.281-.332-.781-.23-.973.387.285.746 0 .934.238.098-.32-.047-.77-.234-.91.316.062.348-.301.641-.281-.168-.426-.699-.348-.875-.598a.906.906 0 0 0 .535-.664c-.254.101-.641-.012-.805-.047-.387-.074-.656-.262-.344-.512.25-.203.316-.691.281-1.098-.168.168-.641.031-.812.246-.348-.438-1.094-.746-1.883-.746-.781 0-1.535.309-1.883.746-.168-.215-.645-.078-.812-.246-.035.406.035.895.277 1.098.32.25.047.438-.34.512-.156.035-.555.148-.797.047.059.305.23.52.527.664-.168.25-.707.172-.875.598.297-.02.324.344.641.281-.188.141-.328.59-.234.91.184-.238.551.047.945-.238.09.191-.035.691-.238.973.297.156.801.051 1.016-.207-.277.41.098.824-.168 1.023.453-.047.754-.172.906-.312.156-.145.488.062.336.469.37-.031.104.41.698.41z" fill="#fff100"/><path d="M249.839 83.902c.598 0 .328-.441.711-.41-.16-.406.168-.613.324-.469.156.141.453.266.91.312-.266-.199.109-.613-.172-1.023.219.258.719.363 1.02.207-.203-.281-.332-.781-.23-.973.387.285.746 0 .934.238.098-.32-.047-.77-.234-.91.316.062.348-.301.641-.281-.168-.426-.699-.348-.875-.598a.906.906 0 0 0 .535-.664c-.254.101-.641-.012-.805-.047-.387-.074-.656-.262-.344-.512.25-.203.316-.691.281-1.098-.168.168-.641.031-.812.246-.348-.438-1.094-.746-1.883-.746-.781 0-1.535.309-1.883.746-.168-.215-.645-.078-.812-.246-.035.406.035.895.277 1.098.32.25.047.438-.34.512-.156.035-.555.148-.797.047.059.305.23.52.527.664-.168.25-.707.172-.875.598.297-.02.324.344.641.281-.188.141-.328.59-.234.91.184-.238.551.047.945-.238.09.191-.035.691-.238.973.297.156.801.051 1.016-.207-.277.41.098.824-.168 1.023.453-.047.754-.172.906-.312.156-.145.488.062.336.469.37-.031.104.41.698.41z" fill="none" stroke="#000" stroke-width=".029"/><path d="M249.839 77.508c.582 0 1.379.336 1.477.133.148-.293.695-1.184.996-1.336.305-.152.215-.422.066-.5-.121-.062-.309.043-.309.238 0 .125-.059.133-.191.133-.227 0-.645.16-.57.594.016.098-.125.207-.418.125-.293-.082-.262-.227-.141-.336.125-.105.074-.488-.305-.496-.371-.012-.371-.262-.309-.363.094-.156.074-.504-.297-.504-.367 0-.391.348-.293.504.066.102.066.352-.312.363-.379.008-.43.391-.301.496.121.109.152.254-.141.336-.297.082-.438-.027-.422-.125.074-.434-.34-.594-.57-.594-.129 0-.188-.008-.188-.133 0-.195-.191-.301-.309-.238-.145.078-.242.348.062.5.305.152.848 1.043 1 1.336.1.203.897-.133 1.475-.133z" fill="#fff100"/><path d="M249.839 77.508c.582 0 1.379.336 1.477.133.148-.293.695-1.184.996-1.336.305-.152.215-.422.066-.5-.121-.062-.309.043-.309.238 0 .125-.059.133-.191.133-.227 0-.645.16-.57.594.016.098-.125.207-.418.125-.293-.082-.262-.227-.141-.336.125-.105.074-.488-.305-.496-.371-.012-.371-.262-.309-.363.094-.156.074-.504-.297-.504-.367 0-.391.348-.293.504.066.102.066.352-.312.363-.379.008-.43.391-.301.496.121.109.152.254-.141.336-.297.082-.438-.027-.422-.125.074-.434-.34-.594-.57-.594-.129 0-.188-.008-.188-.133 0-.195-.191-.301-.309-.238-.145.078-.242.348.062.5.305.152.848 1.043 1 1.336.1.203.897-.133 1.475-.133z" fill="none" stroke="#000" stroke-width=".029"/><path d="M243.792 75.027c.594 0 .328-.438.707-.406-.16-.406.168-.613.324-.473.156.145.457.266.91.312-.266-.199.113-.609-.168-1.016.215.25.719.359 1.02.207-.207-.285-.332-.789-.242-.977.395.285.754 0 .945.234.094-.312-.051-.77-.238-.91.316.062.348-.297.645-.281-.172-.422-.707-.348-.875-.598.293-.141.469-.355.535-.652-.258.09-.645-.02-.805-.055-.391-.074-.66-.262-.344-.512.25-.203.312-.691.281-1.105-.176.18-.641.035-.816.258-.344-.438-1.098-.758-1.879-.758-.785 0-1.539.32-1.883.758-.172-.223-.645-.078-.82-.258-.027.414.039.902.285 1.105.316.25.047.438-.348.512-.152.035-.547.144-.797.055a.899.899 0 0 0 .531.652c-.172.25-.703.176-.875.598.297-.016.328.344.645.281-.188.141-.332.598-.234.91.184-.234.547.051.941-.234.09.188-.035.691-.238.977.301.152.801.043 1.02-.207-.281.406.094.816-.172 1.016.457-.047.754-.168.91-.312.156-.141.484.066.324.473.379-.031.117.406.711.406z" fill="#fff100"/><path d="M243.792 75.027c.594 0 .328-.438.707-.406-.16-.406.168-.613.324-.473.156.145.457.266.91.312-.266-.199.113-.609-.168-1.016.215.25.719.359 1.02.207-.207-.285-.332-.789-.242-.977.395.285.754 0 .945.234.094-.312-.051-.77-.238-.91.316.062.348-.297.645-.281-.172-.422-.707-.348-.875-.598.293-.141.469-.355.535-.652-.258.09-.645-.02-.805-.055-.391-.074-.66-.262-.344-.512.25-.203.312-.691.281-1.105-.176.18-.641.035-.816.258-.344-.438-1.098-.758-1.879-.758-.785 0-1.539.32-1.883.758-.172-.223-.645-.078-.82-.258-.027.414.039.902.285 1.105.316.25.047.438-.348.512-.152.035-.547.144-.797.055a.899.899 0 0 0 .531.652c-.172.25-.703.176-.875.598.297-.016.328.344.645.281-.188.141-.332.598-.234.91.184-.234.547.051.941-.234.09.188-.035.691-.238.977.301.152.801.043 1.02-.207-.281.406.094.816-.172 1.016.457-.047.754-.168.91-.312.156-.141.484.066.324.473.379-.031.117.406.711.406z" fill="none" stroke="#000" stroke-width=".029"/><path d="M243.792 68.637c.578 0 1.375.34 1.473.133.148-.297.695-1.18.996-1.336.309-.152.215-.422.07-.5-.121-.062-.312.039-.312.238 0 .125-.059.133-.191.133-.227 0-.645.16-.574.594.02.102-.121.207-.41.125-.297-.082-.266-.23-.145-.332.125-.109.074-.496-.305-.504-.375-.012-.375-.262-.309-.359.098-.16.074-.5-.293-.5-.371 0-.395.34-.297.5.066.098.066.348-.312.359-.375.008-.426.395-.301.504.121.102.156.25-.145.332-.289.082-.434-.023-.414-.125.074-.434-.344-.594-.57-.594-.133 0-.191-.008-.191-.133 0-.199-.188-.301-.312-.238-.141.078-.23.348.07.5.301.156.852 1.039.996 1.336.093.207.894-.133 1.476-.133z" fill="#fff100"/><path d="M243.792 68.637c.578 0 1.375.34 1.473.133.148-.297.695-1.18.996-1.336.309-.152.215-.422.07-.5-.121-.062-.312.039-.312.238 0 .125-.059.133-.191.133-.227 0-.645.16-.574.594.02.102-.121.207-.41.125-.297-.082-.266-.23-.145-.332.125-.109.074-.496-.305-.504-.375-.012-.375-.262-.309-.359.098-.16.074-.5-.293-.5-.371 0-.395.34-.297.5.066.098.066.348-.312.359-.375.008-.426.395-.301.504.121.102.156.25-.145.332-.289.082-.434-.023-.414-.125.074-.434-.344-.594-.57-.594-.133 0-.191-.008-.191-.133 0-.199-.188-.301-.312-.238-.141.078-.23.348.07.5.301.156.852 1.039.996 1.336.093.207.894-.133 1.476-.133z" fill="none" stroke="#000" stroke-width=".029"/><path d="M255.89 75.027c-.598 0-.328-.438-.707-.406.156-.406-.172-.613-.328-.473-.156.145-.453.266-.91.312.266-.199-.105-.609.172-1.016-.219.25-.719.359-1.02.207.203-.285.332-.789.238-.977-.395.285-.754 0-.941.234-.094-.312.047-.77.234-.91-.316.062-.348-.297-.641-.281.168-.422.703-.348.875-.598-.297-.141-.469-.355-.531-.652.25.09.641-.02.793-.055.395-.074.664-.262.348-.512-.246-.203-.312-.691-.281-1.105.172.18.648.035.816.258.348-.438 1.098-.758 1.883-.758.785 0 1.535.32 1.883.758.168-.223.645-.078.816-.258.031.414-.039.902-.285 1.105-.312.25-.043.438.344.512.16.035.551.144.801.055-.062.297-.234.512-.531.652.168.25.707.176.875.598-.297-.016-.324.344-.641.281.188.141.328.598.234.91-.188-.234-.551.051-.938-.234-.094.188.031.691.23.977-.297.152-.801.043-1.016-.207.277.406-.098.816.168 1.016-.453-.047-.75-.168-.906-.312-.156-.141-.488.066-.328.473-.378-.031-.113.406-.706.406z" fill="#fff100"/><path d="M255.89 75.027c-.598 0-.328-.438-.707-.406.156-.406-.172-.613-.328-.473-.156.145-.453.266-.91.312.266-.199-.105-.609.172-1.016-.219.25-.719.359-1.02.207.203-.285.332-.789.238-.977-.395.285-.754 0-.941.234-.094-.312.047-.77.234-.91-.316.062-.348-.297-.641-.281.168-.422.703-.348.875-.598-.297-.141-.469-.355-.531-.652.25.09.641-.02.793-.055.395-.074.664-.262.348-.512-.246-.203-.312-.691-.281-1.105.172.18.648.035.816.258.348-.438 1.098-.758 1.883-.758.785 0 1.535.32 1.883.758.168-.223.645-.078.816-.258.031.414-.039.902-.285 1.105-.312.25-.043.438.344.512.16.035.551.144.801.055-.062.297-.234.512-.531.652.168.25.707.176.875.598-.297-.016-.324.344-.641.281.188.141.328.598.234.91-.188-.234-.551.051-.938-.234-.094.188.031.691.23.977-.297.152-.801.043-1.016-.207.277.406-.098.816.168 1.016-.453-.047-.75-.168-.906-.312-.156-.141-.488.066-.328.473-.378-.031-.113.406-.706.406z" fill="none" stroke="#000" stroke-width=".029"/><path d="M255.89 68.637c-.582 0-1.379.34-1.473.133-.152-.297-.699-1.18-1-1.336-.305-.152-.211-.422-.066-.5.121-.062.309.039.309.238 0 .125.059.133.191.133.227 0 .645.16.57.594-.016.102.125.207.422.125.293-.082.258-.23.133-.332-.121-.109-.07-.496.305-.504.383-.012.383-.262.312-.359-.098-.16-.07-.5.297-.5s.395.34.293.5c-.062.098-.066.348.312.359.379.008.43.395.301.504-.121.102-.152.25.141.332.297.082.438-.023.422-.125-.074-.434.336-.594.57-.594.129 0 .188-.008.188-.133 0-.199.191-.301.312-.238.141.078.238.348-.066.5-.305.156-.848 1.039-1 1.336-.098.207-.895-.133-1.473-.133z" fill="#fff100"/><path d="M255.89 68.637c-.582 0-1.379.34-1.473.133-.152-.297-.699-1.18-1-1.336-.305-.152-.211-.422-.066-.5.121-.062.309.039.309.238 0 .125.059.133.191.133.227 0 .645.16.57.594-.016.102.125.207.422.125.293-.082.258-.23.133-.332-.121-.109-.07-.496.305-.504.383-.012.383-.262.312-.359-.098-.16-.07-.5.297-.5s.395.34.293.5c-.062.098-.066.348.312.359.379.008.43.395.301.504-.121.102-.152.25.141.332.297.082.438-.023.422-.125-.074-.434.336-.594.57-.594.129 0 .188-.008.188-.133 0-.199.191-.301.312-.238.141.078.238.348-.066.5-.305.156-.848 1.039-1 1.336-.098.207-.895-.133-1.473-.133z" fill="none" stroke="#000" stroke-width=".029"/><path d="M247.409 79.852c-.055.191.008.434.184.523.168.086.316.27.184.402-.082.09-.328.012-.422-.234-.083-.211-.137-.508.054-.691zM249.839 78.805c.188 0 .371.246.473.273-.168.273.031.738.441.738.496 0 .645-.531.418-.789.137-.051.23-.09.312-.199.199-.25.238-.5-.109-.195-.305.27-1.098.297-1.281.109-.191-.188-.184-.617-.043-.695.227-.113.195-.207.07-.152a.66.66 0 0 1-.281.07.702.702 0 0 1-.285-.07c-.121-.055-.156.039.074.152.141.078.152.508-.043.695-.188.188-.977.16-1.281-.109-.344-.305-.305-.055-.113.195.09.109.18.148.316.199-.223.258-.078.789.426.789.406 0 .602-.465.438-.738.101-.027.28-.273.468-.273zM249.839 81.723c.207 0 .668.172.957-.121.223-.219.148-.406 0-.231-.148.184-.492.137-.664.137-.172 0-.195-.156-.195-.258 0-.102-.019-.203.035-.203.426 0 .637-.211.52-.48-.164-.375-.227-.41-.121.027.027.156-.383.215-.531.215-.145 0-.562-.059-.523-.215.102-.438.039-.402-.125-.027-.121.27.086.48.516.48.055 0 .039.102.039.203 0 .102-.023.258-.195.258-.176 0-.516.047-.668-.137-.148-.176-.223.012 0 .231.291.293.748.121.955.121zM249.839 82.301c.516 0 .516-.168 0-.168-.52 0-.52.168 0 .168zM249.839 82.723c.371 0 .371-.172 0-.172-.367 0-.367.172 0 .172zM252.272 79.852c.055.191-.008.434-.18.523-.176.086-.324.27-.191.402.09.09.328.012.426-.234.078-.211.133-.508-.055-.691zM241.358 70.981c-.055.191.008.43.184.516.168.09.32.281.184.41-.082.086-.324.008-.422-.23-.082-.22-.133-.513.054-.696zM243.792 69.93c.184 0 .367.254.469.277-.164.27.031.738.438.738.5 0 .648-.531.426-.785.133-.055.227-.098.312-.207.195-.25.231-.504-.109-.199-.305.277-1.098.305-1.289.113-.188-.188-.184-.613-.035-.688.227-.117.195-.211.07-.16a.689.689 0 0 1-.281.07.702.702 0 0 1-.285-.07c-.125-.051-.156.043.07.16.141.074.152.5-.039.688-.188.191-.98.164-1.285-.113-.344-.305-.305-.051-.109.199.086.109.18.152.312.207-.223.254-.078.785.426.785.402 0 .602-.469.441-.738.097-.023.281-.277.468-.277zM243.792 72.848c.207 0 .668.176.953-.117.227-.219.152-.406 0-.23-.148.184-.488.137-.664.137-.172 0-.195-.16-.195-.262 0-.098-.016-.203.035-.203.434 0 .641-.211.516-.477-.16-.375-.223-.414-.121.023.035.16-.375.219-.523.219-.149 0-.566-.059-.527-.219.102-.438.039-.398-.125-.023-.117.266.086.477.516.477.059 0 .043.105.043.203 0 .102-.027.262-.195.262-.176 0-.52.047-.668-.137-.148-.176-.223.012 0 .23.287.293.748.117.955.117zM243.792 73.43c.516 0 .516-.172 0-.172-.52 0-.52.172 0 .172zM243.792 73.852c.367 0 .367-.172 0-.172-.371 0-.371.172 0 .172zM246.222 70.981c.055.191-.008.43-.18.516-.172.09-.32.281-.191.41.09.086.332.008.426-.23.081-.22.128-.513-.055-.696zM258.319 70.981c.059.191-.008.43-.176.516-.176.09-.324.281-.191.41.082.086.328.008.426-.23.082-.22.133-.513-.059-.696zM255.89 69.93c-.188 0-.367.254-.473.277.168.27-.031.738-.441.738-.496 0-.645-.531-.418-.785-.137-.055-.227-.098-.312-.207-.199-.25-.234-.504.109-.199.305.277 1.094.305 1.285.113.188-.188.18-.613.039-.688-.23-.117-.195-.211-.07-.16a.66.66 0 0 0 .281.07.647.647 0 0 0 .281-.07c.125-.051.16.043-.07.16-.145.074-.152.5.043.688.188.191.977.164 1.281-.113.348-.305.309-.051.109.199-.086.109-.176.152-.312.207.219.254.078.785-.426.785-.406 0-.605-.469-.438-.738-.101-.023-.281-.277-.468-.277zM255.89 72.848c-.207 0-.668.176-.957-.117-.219-.219-.148-.406 0-.23.148.184.492.137.664.137.172 0 .199-.16.199-.262 0-.098.016-.203-.039-.203-.434 0-.633-.211-.52-.477.168-.375.227-.414.125.023-.031.16.379.219.527.219.148 0 .562-.059.523-.219-.102-.438-.039-.398.125-.023.121.266-.086.477-.516.477-.055 0-.039.105-.039.203 0 .102.023.262.195.262.176 0 .52.047.668-.137.148-.176.219.012 0 .23-.287.293-.752.117-.955.117zM255.89 73.43c-.516 0-.516-.172 0-.172.519 0 .519.172 0 .172zM255.89 73.852c-.367 0-.367-.172 0-.172s.367.172 0 .172zM253.456 70.981c-.051.191.008.43.184.516.172.09.32.281.188.41-.086.086-.328.008-.422-.23-.087-.22-.138-.513.05-.696z"/><path d="M265.491 71.91c2.852-3.113 6.699.781 8.617-.5-.59 1.004-2.062 1.02-3.484.461-1.316-.512-3.801-.297-4.203.559-.125.261-1.379 0-.93-.52z" fill="#005a9a"/><path d="M267.319 73.625c.855-.688 1.723-1.078 3.441.121 1.645 1.145 3.781.981 4.48.324-1.43.363-2.625.176-4.184-1.141-1.41-1.199-3.148-.98-4.203-.051-.264.216.033 1.024.466.747z" fill="#005a9a"/><path d="M267.874 73.242a3.725 3.725 0 0 0-.555.383c-.434.277-.73-.531-.465-.746.172-.152.363-.285.57-.398.239-.114.68.613.45.761zM272.257 74.43c.324.086.656.133.969.148.23.008.219-.398.059-.438a3.61 3.61 0 0 1-.793-.27c.187.091.058.654-.235.56zM269.679 73.152c.254.09.535.238.84.434.164.109.641-.602.277-.863a3.186 3.186 0 0 0-.859-.441c.324.132.081 1.019-.258.87zM269.136 73a1.875 1.875 0 0 0-.895.074c.25-.102-.039-.91-.367-.793a3.147 3.147 0 0 1 1.355-.16c.329.051.227.965-.093.879zM271.026 73.914c.258.156.527.281.797.383.215.102.547-.465.289-.621a6.763 6.763 0 0 1-.836-.57c.297.234-.011.941-.25.808zM273.659 74.582c.691-.031 1.277-.227 1.582-.512a4.237 4.237 0 0 1-1.598.133c.196.024.196.375.016.379zM272.272 72.238a4.487 4.487 0 0 1-.961-.145c.262.055.363-.672.133-.738.301.09.594.168.879.227.203.035.203.676-.051.656zM269.925 71.684c.254.043.488.106.699.188.082.035.172.062.254.094.258.094.434-.645.156-.73-.344-.105-.691-.215-1.051-.305.328.085.227.823-.058.753zM268.284 71.625a6.61 6.61 0 0 1 1.035-.016c.301.035.32-.762.066-.816a6.258 6.258 0 0 0-1.168-.121c.282.012.466.941.067.953zM267.101 71.891a4.03 4.03 0 0 1 .633-.184c.332-.066.238-1.024-.148-.98a3.315 3.315 0 0 0-.973.316c.339-.172.796.738.488.848zM272.729 72.219c.598-.066 1.094-.32 1.379-.809-.379.25-.84.301-1.348.242.208.024.176.555-.031.567zM266.655 72.149a.782.782 0 0 0-.234.281c-.125.262-1.379 0-.93-.52.18-.199.371-.371.559-.52.191-.128.855.516.605.759z" fill="#ec1c2e"/><path d="M265.44 71.981c-.496.93-1.066.523-1.316 1.363-.07.242-.184.262-.773-.09-.773-.469-1.055-.344-.527.398.219.309 1.066.188.543.887-.488.644-.109.82-.898 1.688-.508.559.281 1.074 1.035.652 1.117-.621 1.363-.215.93.219-.367.367-.496.699-.121.59.621-.188-.062.434.344.367.398-.059.523.531-.188.934-.715.402-1.402.812-.836 1.086.836.402-.207.48.121.715.312.215.312.367.062.496-.246.121.094.215.059.523-.027.312.121 1.149-.215 1.766-.34.625-.527 1.211-.773 1.336-.25.125-.375.34-.156.559.215.215-.371.434-.434.711-.062.281-.219.527.559.5.777-.031.867-.156.777-.531-.098-.367-.062-.648.277-.801.34-.156.395-.406.367-.719-.027-.367.191-.527.625-.867.43-.344.465-.555.492-.742.035-.188.316-.344.5-.156s.559.188.836.156c.277-.035.465.34.094.555-.371.219.109.465-.281.652-.711.344.312.594-.523 1.059-.586.32-.254.863-.219 1.203.062.625-.371.809-.406 1.215-.027.398.035.559-.371.867-.402.309-.215.684.531.652.742-.035.586-.469.523-.777-.059-.309.156-.375.434-.375.281 0 .531-.277.312-.555-.215-.281.062-.59-.062-.898-.125-.312.008-.359.246-.5.434-.246.094-.617.777-1.395.246-.277.602-1.07 1.055-.961.621.156.191-.281.809-.188.77.129 1.516.156 2.137-.027.238-.074.309.371.031.523-.277.156.027.469-.398.902-.438.434-.59.867-.59 1.176 0 .312-.254.621-.688.867-.434.254-.648.688.156.746.809.062.867-.184.836-.527a.816.816 0 0 1 .375-.746c.496-.277.742-.586.805-.988.059-.406.434-.898.805-1.117.375-.219.254-.773.746-.809.496-.027 1.113.438 1.023 1.027-.094.59-.188 1.082-.152 1.426.059.68-.469.742-.438 1.145.027.406-.125.777-.527.996-.398.211-.344.898.465.773s.887-.496.82-.805c-.062-.312-.043-.438.188-.48.48-.094.48-.324.445-.699-.027-.387.516-1.609 1.258-2.078.746-.461.207-.617.051-.777-.156-.152-.281-.895 0-1.145.277-.25.262-.434-.051-.59-.309-.156-.168-.621.051-.867.215-.25.215-.434-.031-.543-.25-.109-.332-.277.012-.434.59-.266 1.09-.887.547-1.492.309-.184.66-.695.652-1.141-.203.074-.453.09-.609 0 .219-.281.312-.777.203-1.074-.293.574-1.148.82-1.828.809-.684-.016-.508-.785-1.441-.312-.945.48-.906-.227-1.414.109-.871.574-1.766-.047-2.324.203-.559.246-1.176-.09-1.488.062.121-.098.293-.25.344-.406-.484.203-1.359.551-1.617-.121-.215-.574-.633-.855-.762-1.195-.121-.34-.305-.496-.195-.852.109-.355.965.031 1.32-.547.168-.273-.699-.262-1.246-.09-.367.113-.574-.203-.219-.496.359-.297.875-.535.578-1-.168-.258-.406-.316-.668-.07-.246.234-.676.023-.387-.48.262-.47-.734-.915-.984-.45z" fill="#fff100"/><path d="M265.44 71.981c-.496.93-1.066.523-1.316 1.363-.07.242-.184.262-.773-.09-.773-.469-1.055-.344-.527.398.219.309 1.066.188.543.887-.488.644-.109.82-.898 1.688-.508.559.281 1.074 1.035.652 1.117-.621 1.363-.215.93.219-.367.367-.496.699-.121.59.621-.188-.062.434.344.367.398-.059.523.531-.188.934-.715.402-1.402.812-.836 1.086.836.402-.207.48.121.715.312.215.312.367.062.496-.246.121.094.215.059.523-.027.312.121 1.149-.215 1.766-.34.625-.527 1.211-.773 1.336-.25.125-.375.34-.156.559.215.215-.371.434-.434.711-.062.281-.219.527.559.5.777-.031.867-.156.777-.531-.098-.367-.062-.648.277-.801.34-.156.395-.406.367-.719-.027-.367.191-.527.625-.867.43-.344.465-.555.492-.742.035-.188.316-.344.5-.156s.559.188.836.156c.277-.035.465.34.094.555-.371.219.109.465-.281.652-.711.344.312.594-.523 1.059-.586.32-.254.863-.219 1.203.062.625-.371.809-.406 1.215-.027.398.035.559-.371.867-.402.309-.215.684.531.652.742-.035.586-.469.523-.777-.059-.309.156-.375.434-.375.281 0 .531-.277.312-.555-.215-.281.062-.59-.062-.898-.125-.312.008-.359.246-.5.434-.246.094-.617.777-1.395.246-.277.602-1.07 1.055-.961.621.156.191-.281.809-.188.77.129 1.516.156 2.137-.027.238-.074.309.371.031.523-.277.156.027.469-.398.902-.438.434-.59.867-.59 1.176 0 .312-.254.621-.688.867-.434.254-.648.688.156.746.809.062.867-.184.836-.527a.816.816 0 0 1 .375-.746c.496-.277.742-.586.805-.988.059-.406.434-.898.805-1.117.375-.219.254-.773.746-.809.496-.027 1.113.438 1.023 1.027-.094.59-.188 1.082-.152 1.426.059.68-.469.742-.438 1.145.027.406-.125.777-.527.996-.398.211-.344.898.465.773s.887-.496.82-.805c-.062-.312-.043-.438.188-.48.48-.094.48-.324.445-.699-.027-.387.516-1.609 1.258-2.078.746-.461.207-.617.051-.777-.156-.152-.281-.895 0-1.145.277-.25.262-.434-.051-.59-.309-.156-.168-.621.051-.867.215-.25.215-.434-.031-.543-.25-.109-.332-.277.012-.434.59-.266 1.09-.887.547-1.492.309-.184.66-.695.652-1.141-.203.074-.453.09-.609 0 .219-.281.312-.777.203-1.074-.293.574-1.148.82-1.828.809-.684-.016-.508-.785-1.441-.312-.945.48-.906-.227-1.414.109-.871.574-1.766-.047-2.324.203-.559.246-1.176-.09-1.488.062.121-.098.293-.25.344-.406-.484.203-1.359.551-1.617-.121-.215-.574-.633-.855-.762-1.195-.121-.34-.305-.496-.195-.852.109-.355.965.031 1.32-.547.168-.273-.699-.262-1.246-.09-.367.113-.574-.203-.219-.496.359-.297.875-.535.578-1-.168-.258-.406-.316-.668-.07-.246.234-.676.023-.387-.48.262-.47-.734-.915-.984-.45z" fill="none" stroke="#000" stroke-width=".029"/><path d="M266.343 77.188c.273.273.125.527.031.793-.094.262.246.426.355-.156.062-.34.016-.695-.199-.836-.219-.141-.39-.001-.187.199zM267.8 78.848c.027.449-.48.59-.246 1.289.23.695.418.172.324-.234-.094-.398.309-.805.25-1.07-.063-.263-.344-.231-.328.015zM265.843 79.793c-.23.215-.367.637-.289.852.07.223.246-.047.289-.32.051-.281.156-.422.328-.52.172-.086-.016-.289-.328-.012zM264.698 81.941c-.098.258-.051.781-.012.984.035.203.18.18.168-.07-.016-.246-.039-.707.07-.848.11-.132-.058-.499-.226-.066zM266.124 81.313c.051.504-.223.359-.207.723.016.363.344.215.324-.156-.023-.371.156-.352.121-.547-.027-.204-.254-.181-.238-.02zM268.62 82.094c-.344.176-.191.891.051 1.078.234.188.23.035.078-.262-.141-.297-.23-.602-.113-.684.113-.077.082-.175-.016-.132zM269.788 81.621c0 .254.297.746.555.832.254.086.402-.035.199-.207-.199-.184-.363-.398-.414-.613-.063-.219-.328-.371-.34-.012zM271.249 81.129c-.137.539.219.488.219.75s.207.309.191-.062c-.012-.375-.141-.465-.035-.617.098-.157-.305-.344-.375-.071zM272.729 81.645c-.16.172-.168.676.078.879.25.199.203-.105.129-.25-.066-.141-.137-.289-.059-.43.079-.149.001-.352-.148-.199zM269.616 79.406c.363.277.539.602.586.824.047.211.266 0 .156-.359-.109-.355-.266-.605-.559-.695-.296-.098-.386.078-.183.23zM271.507 79.02c-.285-.117-.293-.449.199-.219.496.23.699.465.793.73.09.262-.078.512-.309.137-.23-.367-.386-.527-.683-.648zM274.39 81.113c-.152.457.141 1.457.91 1.238.109-.031.023 0-.23-.188-.246-.184-.434-.555-.387-.852.05-.291-.215-.432-.293-.198zM274.913 79.656c-.297-.09-.648.293-.152.352.496.066 1.055.035 1.285-.137.234-.172.266-.25-.121-.184-.387.059-.746.044-1.012-.031zM273.987 78.399c.422-.211.988-.324 1.285-.219.293.109.125.5-.141.344-.266-.156-.602-.016-.82.078-.218.089-.605-.063-.324-.203zM272.19 83.395c.25-.09.555-.188.867-.188s.496.25.648.262c-.215.141-.492.262-.715.184-.211-.078-.43-.168-.621-.125-.179.046-.444-.044-.179-.133zM275.335 83.731c.137.164.172.355.121.496-.047.144.23.219.328-.078.094-.293-.016-.465-.184-.523-.171-.063-.421-.079-.265.105zM264.558 74.758c.082-.129.172-.008.297-.102.121-.094.641-.117.844-.027.203.094.18.234.012.234-.176 0-.227.094-.305.203-.078.105-.574.156-.527-.078.047-.23-.164-.168-.242-.125-.079.047-.111-.058-.079-.105z"/><path d="M263.632 86.149c.09.375 0 .5-.777.531-.777.027-.621-.219-.559-.5.027-.109.133-.211.234-.305-.297.336 1.16.613 1.102.274z" fill="#ec1c2e"/><path d="M263.632 86.149c.09.375 0 .5-.777.531-.777.027-.621-.219-.559-.5.027-.109.133-.211.234-.305-.297.336 1.16.613 1.102.274z" fill="none" stroke="#000" stroke-width=".029"/><path d="M266.124 88.66c.043.266.008.535-.57.562-.746.031-.934-.344-.531-.652-.079.2.999.45 1.101.09z" fill="#ec1c2e"/><path d="M266.124 88.66c.043.266.008.535-.57.562-.746.031-.934-.344-.531-.652-.079.2.999.45 1.101.09z" fill="none" stroke="#000" stroke-width=".029"/><path d="M271.132 87.234c.031.344-.027.59-.836.527-.805-.059-.59-.492-.156-.746-.168.255.886.532.992.219z" fill="#ec1c2e"/><path d="M271.132 87.234c.031.344-.027.59-.836.527-.805-.059-.59-.492-.156-.746-.168.255.886.532.992.219z" fill="none" stroke="#000" stroke-width=".029"/><path d="M275.054 88.137c.066.309-.012.68-.82.805s-.863-.562-.465-.773c-.141.245 1.195.558 1.285-.032z" fill="#ec1c2e"/><path d="M275.054 88.137c.066.309-.012.68-.82.805s-.863-.562-.465-.773c-.141.245 1.195.558 1.285-.032z" fill="none" stroke="#000" stroke-width=".029"/><path d="M294.327 87.199c-1.508-2.379-5.598-2.512-6.734-2.691-1.141-.176-2.684-.379-2.379-1.531-.109-.023-.387-.062-.516.004 0-.148-.055-.418-.152-.562-.469.441-1.43.391-1.664.551-.23.164-1.578-.035-1.48.559.105.621.324.637.609.66.285.02.914-.016 1.043.156.117.168.391.547-.293.465-.688-.082-2.281-.043-2.227.566.055.621.668.742 2.449.5-.168.652-1.594.293-1.547.992.016.273.492.551 1.336.648 1.863.215 1.746-.93 3.879-.68 1.176.77 2.926 1.332 4.473 1.262a2.551 2.551 0 0 1-1.223.32c-.617-.012-.691.828.137 1.078.824.254 2.023.082 2.965-.242.105.531.5.738.957.738.461 0 1.098.273.926.957-.172.684.484 1.234 1.051.582.578-.66.516-2.023-.391-2.562.879.172 2.066.152 2.656-.418.492-.488.293-1.254-1.352-.914-.984.207-1.257-.574-2.523-.438z"/><path d="M287.054 86.641c1.086.703 2.531 1.215 3.953 1.152.137-.391-.344-.797-1.246-.805-.902-.004-2.168-.266-2.383-.355-.207-.09-.535-.129-.324.008z" fill="#fff"/></g></svg>