<svg id="CYM" xmlns="http://www.w3.org/2000/svg" viewBox="0 0 500 277.8"><defs><style>.cls-1{fill:#003876}.cls-2{fill:#fff}.cls-3{fill:#e03a3e}.cls-10,.cls-4{fill:none;stroke:#000}.cls-4{stroke-width:.07px}.cls-5{fill:#ffe992}.cls-6{fill:#68acde}.cls-7{fill:#ffd559}.cls-8{fill:#2ca243}.cls-9{fill:#005941}.cls-10{stroke-width:.03px}</style></defs><path class="cls-1" d="M499.8 277.4V-.4H-.2v277.8h500z"/><path class="cls-2" d="M-.2 39.5h50.6L-.2 14.2V-.4h28.9l70.7 35.2V-.4h39.8v35.2L209.9-.4H239v14.6l-50.7 25.3H239v39.9h-50.7l50.7 25.4v14.5h-29.1l-70.7-35.2v35.2H99.4V84.1l-70.7 35.2H-.2v-14.5l50.6-25.4H-.2V39.5z"/><path class="cls-3" d="M220.2-.4l-79.8 40h19.1L239-.4h-18.8zM239 119.3l-79.6-39.9h19.2l60.4 30.4v9.5zM79.8 39.6l-80-40v9.6l60.7 30.4h19.3zm-.1 39.8L-.2 119.3h19.1l79.9-39.9H79.7z"/><path class="cls-3" d="M-.2 47.8h108.1V-.4h23.4v48.2H239v23.4H131.3v48.1h-23.4V71.2H-.2V47.8z"/><path class="cls-2" d="M398.9 232.6a62.7 62.7 0 1 0-62.7-62.7 62.7 62.7 0 0 0 62.8 62.7z"/><path class="cls-4" d="M398.9 232.6a62.7 62.7 0 1 0-62.7-62.7 62.7 62.7 0 0 0 62.8 62.7z"/><path class="cls-5" d="M355.8 210.9c.9 2.2 7.1 5.1 14.1 1.3 4.8-2.6 7.9-6.5 11-13.3.7-1.7 1.2-3.8-.8-5.1a49.8 49.8 0 0 1-5.3-3.5l-1.6-1.4a4 4 0 0 1 .9.9c2.8 3.5-.2 8.4-3.2 11.3s-6.5 7.4-12.5 2.4c-1.3-1-4.2 3.6-2.7 7.3z"/><path class="cls-4" d="M355.8 210.9c.9 2.2 7.1 5.1 14.1 1.3 4.8-2.6 7.9-6.5 11-13.3.7-1.7 1.2-3.8-.8-5.1a49.8 49.8 0 0 1-5.3-3.5l-1.6-1.4a4 4 0 0 1 .9.9c2.8 3.5-.2 8.4-3.2 11.3s-6.5 7.4-12.5 2.4c-1.3-1-4.2 3.6-2.7 7.3z"/><path class="cls-5" d="M442.1 210.9c-.9 2.2-7.1 5.1-14.1 1.3-4.8-2.6-7.9-6.5-11-13.3-.7-1.7-1.2-3.8.8-5.1a49.8 49.8 0 0 0 5.3-3.5 12.4 12.4 0 0 1 1.6-1.4 4 4 0 0 0-.9.9c-2.8 3.5.2 8.4 3.2 11.3s6.5 7.4 12.5 2.4c1.3-1 4.2 3.6 2.7 7.3z"/><path class="cls-4" d="M442.1 210.9c-.9 2.2-7.1 5.1-14.1 1.3-4.8-2.6-7.9-6.5-11-13.3-.7-1.7-1.2-3.8.8-5.1a49.8 49.8 0 0 0 5.3-3.5 12.4 12.4 0 0 1 1.6-1.4 4 4 0 0 0-.9.9c-2.8 3.5.2 8.4 3.2 11.3s6.5 7.4 12.5 2.4c1.3-1 4.2 3.6 2.7 7.3z"/><path class="cls-5" d="M398.9 223c11.3 0 28.9-5.1 38.3-22.9 1.6-3 0-4.6-1.9-5.5a21.8 21.8 0 0 1-5.7-4.2c2.2 2.2 1.8 3.9.3 6.5-7.2 12-17.2 18.1-31 18.1s-23.7-6.1-31-18.1c-1.6-2.6-1.9-4.2.3-6.5a21.9 21.9 0 0 1-5.7 4.2c-1.9.9-3.4 2.5-1.9 5.5C370 218 387.5 223 398.9 223z"/><path class="cls-4" d="M398.9 223c11.3 0 28.9-5.1 38.3-22.9 1.6-3 0-4.6-1.9-5.5a21.8 21.8 0 0 1-5.7-4.2c2.2 2.2 1.8 3.9.3 6.5-7.2 12-17.2 18.1-31 18.1s-23.7-6.1-31-18.1c-1.6-2.6-1.9-4.2.3-6.5a21.9 21.9 0 0 1-5.7 4.2c-1.9.9-3.4 2.5-1.9 5.5C370 218 387.5 223 398.9 223z"/><path class="cls-3" d="M372.7 199c-.3-1.4-2.1-.9-2.8.9l-2-3.1c-1.6-2.7-1.9-4.4.5-6.7s3.4-2.4 5-1c3.2 2.8 1.6 7.2-.7 9.9z"/><path class="cls-4" d="M372.7 199c-.3-1.4-2.1-.9-2.8.9l-2-3.1c-1.6-2.7-1.9-4.4.5-6.7s3.4-2.4 5-1c3.2 2.8 1.6 7.2-.7 9.9z"/><path class="cls-3" d="M425.1 199c.3-1.4 2.1-.9 2.8.9l2-3.1c1.6-2.7 1.9-4.4-.5-6.7s-3.4-2.4-5-1c-3.2 2.8-1.6 7.2.7 9.9z"/><path class="cls-4" d="M425.1 199c.3-1.4 2.1-.9 2.8.9l2-3.1c1.6-2.7 1.9-4.4-.5-6.7s-3.4-2.4-5-1c-3.2 2.8-1.6 7.2.7 9.9z"/><path class="cls-3" d="M355.8 210.9c-1.3-2.2-2.5-7.7-2.8-9.1s-.6-2.5 1-3.1 3 1.4 3.8 3.1 1.8 4.3 3.1 7.3c-3.2-1.8-5.6-.5-5 1.7z"/><path class="cls-4" d="M355.8 210.9c-1.3-2.2-2.5-7.7-2.8-9.1s-.6-2.5 1-3.1 3 1.4 3.8 3.1 1.8 4.3 3.1 7.3c-3.2-1.8-5.6-.5-5 1.7z"/><path class="cls-3" d="M442.1 210.9c1.3-2.2 2.5-7.7 2.8-9.1s.6-2.5-1-3.1-3.1 1.4-3.7 3.1-1.8 4.3-3.1 7.3c3.2-1.8 5.6-.5 5 1.7z"/><path class="cls-4" d="M442.1 210.9c1.3-2.2 2.5-7.7 2.8-9.1s.6-2.5-1-3.1-3.1 1.4-3.7 3.1-1.8 4.3-3.1 7.3c3.2-1.8 5.6-.5 5 1.7z"/><path class="cls-2" d="M425.6 146.6v27.7c0 24.1-11.5 32.3-26.6 38.7-15.2-6.5-26.6-14.7-26.6-38.7v-27.7z"/><path class="cls-4" d="M425.6 146.6v27.7c0 24.1-11.5 32.3-26.6 38.7-15.2-6.5-26.6-14.7-26.6-38.7v-27.7z"/><path class="cls-3" d="M398.9 170.1c1.4 0 3.3-1.2 5-2.9s5-2.7 8.3 0 5.2 1.6 7 0 3.1-2.1 6.4-2.1v-18.5h-53.3v18.6c3.2 0 4.6.5 6.4 2.1s3.7 2.7 7 0 6.4-2 8.3 0 3.6 2.9 5 2.9z"/><path class="cls-4" d="M398.9 170.1c1.4 0 3.3-1.2 5-2.9s5-2.7 8.3 0 5.2 1.6 7 0 3.1-2.1 6.4-2.1v-18.5h-53.3v18.6c3.2 0 4.6.5 6.4 2.1s3.7 2.7 7 0 6.4-2 8.3 0 3.6 2.9 5 2.9z"/><path class="cls-6" d="M398.9 184.3c1.8 0 5.1-1.8 6-2.4 3.1-1.8 5.4-.1 7.3.7s5.7 1.8 7.9 0a6.5 6.5 0 0 1 5.1-1.7 65.2 65.2 0 0 0 .3-6.6v-1.7c-2.1-.4-3.1.2-5.1 2s-4.6 1.4-7.7.2-5.9-3.5-8.9 0a5.9 5.9 0 0 1-9.7 0c-3-3.5-5.9-1.2-8.9 0s-5.6 1.7-7.7-.2-3.1-2.4-5.1-2v1.7a63 63 0 0 0 .3 6.6 6.5 6.5 0 0 1 5.1 1.7c2.3 1.8 6 .9 7.9 0s4.2-2.5 7.3-.7c.9.5 4.2 2.4 6 2.4z"/><path class="cls-4" d="M398.9 184.3c1.8 0 5.1-1.8 6-2.4 3.1-1.8 5.4-.1 7.3.7s5.7 1.8 7.9 0a6.5 6.5 0 0 1 5.1-1.7 65.2 65.2 0 0 0 .3-6.6v-1.7c-2.1-.4-3.1.2-5.1 2s-4.6 1.4-7.7.2-5.9-3.5-8.9 0a5.9 5.9 0 0 1-9.7 0c-3-3.5-5.9-1.2-8.9 0s-5.6 1.7-7.7-.2-3.1-2.4-5.1-2v1.7a63 63 0 0 0 .3 6.6 6.5 6.5 0 0 1 5.1 1.7c2.3 1.8 6 .9 7.9 0s4.2-2.5 7.3-.7c.9.5 4.2 2.4 6 2.4z"/><path class="cls-6" d="M398.9 190.4a15.2 15.2 0 0 0 7-2.1c2.8-1.6 4.8-.8 7.7.6a7 7 0 0 0 7-.1c.9-.6 1.6-1.7 3.5-1.2a33.5 33.5 0 0 1-3.7 9.2 9.9 9.9 0 0 1-7.4-.7c-3-1.3-6.7-2.2-8.6-1a9.4 9.4 0 0 1-10.9 0c-1.9-1.2-5.7-.4-8.6 1a9.9 9.9 0 0 1-7.4.7 33.6 33.6 0 0 1-3.7-9.2c1.9-.5 2.6.6 3.5 1.2a7 7 0 0 0 7 .1c2.9-1.4 4.9-2.2 7.7-.6a15.2 15.2 0 0 0 7 2.1z"/><path class="cls-4" d="M398.9 190.4a15.2 15.2 0 0 0 7-2.1c2.8-1.6 4.8-.8 7.7.6a7 7 0 0 0 7-.1c.9-.6 1.6-1.7 3.5-1.2a33.5 33.5 0 0 1-3.7 9.2 9.9 9.9 0 0 1-7.4-.7c-3-1.3-6.7-2.2-8.6-1a9.4 9.4 0 0 1-10.9 0c-1.9-1.2-5.7-.4-8.6 1a9.9 9.9 0 0 1-7.4.7 33.6 33.6 0 0 1-3.7-9.2c1.9-.5 2.6.6 3.5 1.2a7 7 0 0 0 7 .1c2.9-1.4 4.9-2.2 7.7-.6a15.2 15.2 0 0 0 7 2.1z"/><path class="cls-6" d="M398.9 213c5.7-2.4 10.9-5.1 15.2-8.8-1.1-.3-1.9-.1-2.9-.8s-3.9-.9-6.5.4a11.5 11.5 0 0 1-11.6 0c-2.6-1.3-5.5-1.1-6.5-.4s-1.7.5-2.9.8c4.3 3.7 9.4 6.4 15.2 8.8z"/><path class="cls-4" d="M398.9 213c5.7-2.4 10.9-5.1 15.2-8.8-1.1-.3-1.9-.1-2.9-.8s-3.9-.9-6.5.4a11.5 11.5 0 0 1-11.6 0c-2.6-1.3-5.5-1.1-6.5-.4s-1.7.5-2.9.8c4.3 3.7 9.4 6.4 15.2 8.8z"/><path class="cls-2" d="M388 146.5c-1.9.4-3.1.6-4.8-1a2.5 2.5 0 0 1 .3-3.9c1.3-.8 2.4-1.4 3.9-1s5.7 4.3 4.7 4.4-2.5 1.1-4.1 1.5z"/><path class="cls-4" d="M388 146.5c-1.9.4-3.1.6-4.8-1a2.5 2.5 0 0 1 .3-3.9c1.3-.8 2.4-1.4 3.9-1s5.7 4.3 4.7 4.4-2.5 1.1-4.1 1.5z"/><path class="cls-2" d="M392.5 139.7c.5-.5 1.2-.7 3-.8s3-.1 3.4 1 1 3.5 2.2 4.3c-.8.5-4.4.9-5.5.2s-2.1-4.1-3.1-4.7z"/><path class="cls-4" d="M392.5 139.7c.5-.5 1.2-.7 3-.8s3-.1 3.4 1 1 3.5 2.2 4.3c-.8.5-4.4.9-5.5.2s-2.1-4.1-3.1-4.7z"/><path class="cls-2" d="M404.6 139.8c.6-.4 1.3-.4 3.1-.3s2.6.3 2.9 1.6 0 3.2.9 4.5c-.9.3-3.7.3-4.7-.6s-1.4-4.4-2.2-5.2z"/><path class="cls-4" d="M404.6 139.8c.6-.4 1.3-.4 3.1-.3s2.6.3 2.9 1.6 0 3.2.9 4.5c-.9.3-3.7.3-4.7-.6s-1.4-4.4-2.2-5.2z"/><path class="cls-1" d="M413.2 140.7c-1.4-.4-2.2-.4-2.8-.1s.1 4.2 1.5 5.5 3.6.8 4.2-.7.6-3.6-3-4.7z"/><path class="cls-4" d="M413.2 140.7c-1.4-.4-2.2-.4-2.8-.1s.1 4.2 1.5 5.5 3.6.8 4.2-.7.6-3.6-3-4.7z"/><path class="cls-1" d="M398.5 139.3c.5-.4 1.3-.5 3.1-.6s3 .2 3.5 1.4.5 3.2 1.5 4.5-4.3.5-5.4-.4-1.8-4.3-2.6-5z"/><path class="cls-4" d="M398.5 139.3c.5-.4 1.3-.5 3.1-.6s3 .2 3.5 1.4.5 3.2 1.5 4.5-4.3.5-5.4-.4-1.8-4.3-2.6-5z"/><path class="cls-1" d="M386.4 140.5c.1-.6 1.1-.8 3.6-1s2.8 0 3.5 1.8 1.1 2.7 2.1 3.2c-3.1.7-4.1 1.2-5.8.2a8.9 8.9 0 0 1-3-3.2c-.2-.4-.1-.8-.4-1z"/><path class="cls-4" d="M386.4 140.5c.1-.6 1.1-.8 3.6-1s2.8 0 3.5 1.8 1.1 2.7 2.1 3.2c-3.1.7-4.1 1.2-5.8.2a8.9 8.9 0 0 1-3-3.2c-.2-.4-.1-.8-.4-1z"/><path class="cls-7" d="M393.3 126.1c-3.1-2.4-6.6-4.4-9.8-4.9a93.7 93.7 0 0 1 9.6 7.6"/><path class="cls-4" d="M393.3 126.1c-3.1-2.4-6.6-4.4-9.8-4.9a93.7 93.7 0 0 1 9.6 7.6"/><path class="cls-7" d="M395 124c-3.5-2.4-7.7-5.1-11.6-5.4a36.8 36.8 0 0 1 9.8 8.2"/><path class="cls-4" d="M395 124c-3.5-2.4-7.7-5.1-11.6-5.4a36.8 36.8 0 0 1 9.8 8.2"/><path class="cls-7" d="M399.5 119.9a29.5 29.5 0 0 1 7-9.4c-1.5 2.9-3.1 9-3.7 11.5"/><path class="cls-4" d="M399.5 119.9a29.5 29.5 0 0 1 7-9.4c-1.5 2.9-3.1 9-3.7 11.5"/><path class="cls-7" d="M402.7 119.3a14.4 14.4 0 0 1 7.2-7.5c-1.8 1.7-4.6 7.3-5.4 10.3"/><path class="cls-4" d="M402.7 119.3a14.4 14.4 0 0 1 7.2-7.5c-1.8 1.7-4.6 7.3-5.4 10.3"/><path class="cls-7" d="M404 122.1a24.9 24.9 0 0 1 11.2-9.4c-3.6 3.6-8.9 10.2-10.2 12.7"/><path class="cls-4" d="M404 122.1a24.9 24.9 0 0 1 11.2-9.4c-3.6 3.6-8.9 10.2-10.2 12.7"/><path class="cls-7" d="M405.9 125.2c2.5-1.4 7.8-3.7 11.4-3-2.3.9-9.2 3.9-12 6.8"/><path class="cls-4" d="M405.9 125.2c2.5-1.4 7.8-3.7 11.4-3-2.3.9-9.2 3.9-12 6.8"/><path class="cls-7" d="M405.4 124.2c2.4-2.5 6.8-6.4 11.4-7.8-3.3 3.2-10.6 10.6-11.6 11.8"/><path class="cls-4" d="M405.4 124.2c2.4-2.5 6.8-6.4 11.4-7.8-3.3 3.2-10.6 10.6-11.6 11.8"/><path class="cls-7" d="M398.5 122.7c-1.6-5.2-4.2-10.3-8-11.8a39.4 39.4 0 0 1 6.2 14.4"/><path class="cls-4" d="M398.5 122.7c-1.6-5.2-4.2-10.3-8-11.8a39.4 39.4 0 0 1 6.2 14.4"/><path class="cls-7" d="M395.3 122.5c-3-3.4-6.8-6.8-11.1-7.6 2.9 1.8 7.8 6.7 9.7 11.6"/><path class="cls-4" d="M395.3 122.5c-3-3.4-6.8-6.8-11.1-7.6 2.9 1.8 7.8 6.7 9.7 11.6"/><path class="cls-7" d="M396.9 122.4c-3.7-6.4-6.3-7.6-7.8-8.9 1.3 2.4 4.4 8.9 6.2 11.6"/><path class="cls-4" d="M396.9 122.4c-3.7-6.4-6.3-7.6-7.8-8.9 1.3 2.4 4.4 8.9 6.2 11.6m-5.5-3.2a19.4 19.4 0 0 1 5.1 5m-5.1-2c.9.7 2.4 1.7 3.9 2.9m13-.7a30 30 0 0 1 6.1-3.6m-7.1 2.5a46.9 46.9 0 0 1 5.3-5.1m-1.3-3.5a84.8 84.8 0 0 0-5.4 6.6m1.7-8a52 52 0 0 0-3.6 6.2m-7.7-5.9c1 2.2 2.5 6.1 3 7.7m-4.3-5.3a18.3 18.3 0 0 1 2.2 4.2"/><path class="cls-7" d="M398.2 118c0-1.4.9-2.7 1.8-2.7s1.7 1.6 1.7 2.7a2 2 0 0 1-1.7 2.1 2 2 0 0 1-1.8-2.1z"/><path class="cls-4" d="M398.2 118c0-1.4.9-2.7 1.8-2.7s1.7 1.6 1.7 2.7a2 2 0 0 1-1.7 2.1 2 2 0 0 1-1.8-2.1z"/><path class="cls-7" d="M396.4 119.1c.2-1.3 1.2-2.5 2-2.4s1.3 1.8 1.1 2.8-1.1 2-1.8 1.9a2 2 0 0 1-1.3-2.3z"/><path class="cls-4" d="M396.4 119.1c.2-1.3 1.2-2.5 2-2.4s1.3 1.8 1.1 2.8-1.1 2-1.8 1.9a2 2 0 0 1-1.3-2.3z"/><path class="cls-7" d="M400.2 119.6c-.2-1.3.4-2.7 1.2-2.9s1.8 1.4 1.9 2.4-.5 2.2-1.2 2.3a2 2 0 0 1-1.9-1.9z"/><path class="cls-4" d="M400.2 119.6c-.2-1.3.4-2.7 1.2-2.9s1.8 1.4 1.9 2.4-.5 2.2-1.2 2.3a2 2 0 0 1-1.9-1.9z"/><path class="cls-7" d="M398.1 120.7c0-1.4.9-2.7 1.8-2.7s1.7 1.6 1.7 2.7a2 2 0 0 1-1.7 2.1 2 2 0 0 1-1.8-2.1z"/><path class="cls-4" d="M398.1 120.7c0-1.4.9-2.7 1.8-2.7s1.7 1.6 1.7 2.7a2 2 0 0 1-1.7 2.1 2 2 0 0 1-1.8-2.1z"/><path class="cls-7" d="M395.6 121.4c0-1.4.9-2.7 1.8-2.7s1.7 1.6 1.7 2.7a2 2 0 0 1-1.7 2.1 2 2 0 0 1-1.8-2.1z"/><path class="cls-4" d="M395.6 121.4c0-1.4.9-2.7 1.8-2.7s1.7 1.6 1.7 2.7a2 2 0 0 1-1.7 2.1 2 2 0 0 1-1.8-2.1z"/><path class="cls-7" d="M400.8 120.8c0-1.4.9-2.7 1.8-2.7s1.7 1.6 1.7 2.7a2 2 0 0 1-1.7 2.1 2 2 0 0 1-1.8-2.1z"/><path class="cls-4" d="M400.8 120.8c0-1.4.9-2.7 1.8-2.7s1.7 1.6 1.7 2.7a2 2 0 0 1-1.7 2.1 2 2 0 0 1-1.8-2.1z"/><path class="cls-7" d="M400.3 121.9c0-1.4.9-2.7 1.8-2.7s1.7 1.6 1.7 2.7a2 2 0 0 1-1.7 2.1 2 2 0 0 1-1.8-2.1z"/><path class="cls-4" d="M400.3 121.9c0-1.4.9-2.7 1.8-2.7s1.7 1.6 1.7 2.7a2 2 0 0 1-1.7 2.1 2 2 0 0 1-1.8-2.1z"/><path class="cls-7" d="M397.9 123.2c0-1.4.9-2.7 1.8-2.7s1.7 1.6 1.7 2.7a2 2 0 0 1-1.7 2.1 2 2 0 0 1-1.8-2.1z"/><path class="cls-4" d="M397.9 123.2c0-1.4.9-2.7 1.8-2.7s1.7 1.6 1.7 2.7a2 2 0 0 1-1.7 2.1 2 2 0 0 1-1.8-2.1z"/><path class="cls-7" d="M394.4 123.2c0-1.4.7-2.7 1.4-2.7s1.4 1.6 1.4 2.7-.7 2.1-1.4 2.1-1.4-.9-1.4-2.1z"/><path class="cls-4" d="M394.4 123.2c0-1.4.7-2.7 1.4-2.7s1.4 1.6 1.4 2.7-.7 2.1-1.4 2.1-1.4-.9-1.4-2.1z"/><path class="cls-7" d="M402.3 123c0-1.4.7-2.7 1.4-2.7s1.4 1.6 1.4 2.7-.7 2.1-1.4 2.1-1.4-.9-1.4-2.1z"/><path class="cls-4" d="M402.3 123c0-1.4.7-2.7 1.4-2.7s1.4 1.6 1.4 2.7-.7 2.1-1.4 2.1-1.4-.9-1.4-2.1z"/><path class="cls-7" d="M403.2 125.3c.3-1.3 1.2-2.4 1.8-2.3s.7 1.8.5 2.8-1.1 1.9-1.6 1.8-.9-1.1-.6-2.4z"/><path class="cls-4" d="M403.2 125.3c.3-1.3 1.2-2.4 1.8-2.3s.7 1.8.5 2.8-1.1 1.9-1.6 1.8-.9-1.1-.6-2.4z"/><path class="cls-7" d="M400.6 125c.1-1.3 1-2.6 1.7-2.5s1.2 1.7 1.1 2.8-.9 2.1-1.6 2-1.3-1-1.2-2.3z"/><path class="cls-4" d="M400.6 125c.1-1.3 1-2.6 1.7-2.5s1.2 1.7 1.1 2.8-.9 2.1-1.6 2-1.3-1-1.2-2.3z"/><path class="cls-7" d="M396.5 125.3c-.4-1.3-1.3-2.4-1.8-2.3s-.7 1.8-.4 2.9 1.1 1.9 1.6 1.8.9-1.1.6-2.4z"/><path class="cls-4" d="M396.5 125.3c-.4-1.3-1.3-2.4-1.8-2.3s-.7 1.8-.4 2.9 1.1 1.9 1.6 1.8.9-1.1.6-2.4z"/><path class="cls-7" d="M395.6 125.1c0-1.3.7-2.7 1.4-2.7s1.4 1.6 1.4 2.7-.7 2.1-1.4 2.1-1.4-.9-1.4-2.1z"/><path class="cls-4" d="M395.6 125.1c0-1.3.7-2.7 1.4-2.7s1.4 1.6 1.4 2.7-.7 2.1-1.4 2.1-1.4-.9-1.4-2.1z"/><path class="cls-7" d="M397.7 125.6c0-1.4.9-2.7 1.8-2.7s1.7 1.6 1.7 2.7a2 2 0 0 1-1.7 2.1 2 2 0 0 1-1.8-2.1z"/><path class="cls-4" d="M397.7 125.6c0-1.4.9-2.7 1.8-2.7s1.7 1.6 1.7 2.7a2 2 0 0 1-1.7 2.1 2 2 0 0 1-1.8-2.1z"/><path class="cls-7" d="M398.4 110.1c-.3 1.1-1.2 2.1-.5 3.7-1.3-.4-2.4-.5-3.5.5a3.1 3.1 0 0 1 3 1.2 1.7 1.7 0 0 0-2 1.1 5 5 0 0 1 2.4-.3 2.7 2.7 0 0 0-1.3 1.6c.8-.7 1.8-.5 2.3-.9s.4 2 1.2 2.9c-.3-1.4.6-2.4.2-3.1 1.3.3 1.4 1.4 3.2 1.4-.6-.3-1.1-1.9-2-1.9a5.6 5.6 0 0 1 2.5 0 2.5 2.5 0 0 0-1.8-1.1 11.3 11.3 0 0 1 2.2-2.1c-.9.2-2.5.3-3.1 1.2 1.4-1.1 1.2-3.2 2.7-3.6a3.8 3.8 0 0 0-3 1.4c.3-.8.4-1.9 1-2.3a6.6 6.6 0 0 0-2.8 2.4 5.2 5.2 0 0 0-.7-2.2z"/><path class="cls-4" d="M398.4 110.1c-.3 1.1-1.2 2.1-.5 3.7-1.3-.4-2.4-.5-3.5.5a3.1 3.1 0 0 1 3 1.2 1.7 1.7 0 0 0-2 1.1 5 5 0 0 1 2.4-.3 2.7 2.7 0 0 0-1.3 1.6c.8-.7 1.8-.5 2.3-.9s.4 2 1.2 2.9c-.3-1.4.6-2.4.2-3.1 1.3.3 1.4 1.4 3.2 1.4-.6-.3-1.1-1.9-2-1.9a5.6 5.6 0 0 1 2.5 0 2.5 2.5 0 0 0-1.8-1.1 11.3 11.3 0 0 1 2.2-2.1c-.9.2-2.5.3-3.1 1.2 1.4-1.1 1.2-3.2 2.7-3.6a3.8 3.8 0 0 0-3 1.4c.3-.8.4-1.9 1-2.3a6.6 6.6 0 0 0-2.8 2.4 5.2 5.2 0 0 0-.7-2.2zm.7 2.2a5.8 5.8 0 0 1-.1 1.6m2-1.7a4.6 4.6 0 0 0-1 2.3m1.7-.4a3.3 3.3 0 0 0-1 1.2"/><path class="cls-8" d="M386.7 128a3 3 0 0 1-2.3-1.2c-1.1-1.3-3.8-1.9-4.9-.7a2 2 0 0 1-1.3.4 1.6 1.6 0 0 0-1.4 2.1c.6-.4.8.1 1.1 0s.2.2.2.4 1.6 2.2 3.1 2.1a3.3 3.3 0 0 1 2.6.8c.4.3 0 .3.4 1s.5.6-.3 1.2a2.7 2.7 0 0 0 .1 4.3c1.8 1.4 6.5 3.6 11.7-.4s13.1-1.8 13.7-.3a15 15 0 0 1 1 2.9 1.7 1.7 0 0 0 1.9 1.1 5.5 5.5 0 0 1 2.7.8c.7.4 1.6.3 1.4-1-.6-4-3-4.6-3.3-6.4 1.5.2 2.4.2 3-.4s1.1-1.6 1.5-1.9.5-.6-.1-.4a4.5 4.5 0 0 1-2.4.3c-6.6-.8-24.9-5.7-28.4-4.7z"/><path class="cls-4" d="M386.7 128a3 3 0 0 1-2.3-1.2c-1.1-1.3-3.8-1.9-4.9-.7a2 2 0 0 1-1.3.4 1.6 1.6 0 0 0-1.4 2.1c.6-.4.8.1 1.1 0s.2.2.2.4 1.6 2.2 3.1 2.1a3.3 3.3 0 0 1 2.6.8c.4.3 0 .3.4 1s.5.6-.3 1.2a2.7 2.7 0 0 0 .1 4.3c1.8 1.4 6.5 3.6 11.7-.4s13.1-1.8 13.7-.3a15 15 0 0 1 1 2.9 1.7 1.7 0 0 0 1.9 1.1 5.5 5.5 0 0 1 2.7.8c.7.4 1.6.3 1.4-1-.6-4-3-4.6-3.3-6.4 1.5.2 2.4.2 3-.4s1.1-1.6 1.5-1.9.5-.6-.1-.4a4.5 4.5 0 0 1-2.4.3c-6.6-.8-24.9-5.7-28.4-4.7z"/><path d="M415.7 132.7a12.6 12.6 0 0 0-2.8 2.9c-1.4 1.7-5.6 3.6-10.8 3.6s-8.2-.7-10.6-2.6a15 15 0 0 0-3.1-2 2.8 2.8 0 0 1-1.4-3.6c-.4.8-.7 1.4-1.5 1.4s-1.7-.1-1.3.5-.2-.7-.3-.9l-.4-.3c.5.3 1.5-.5 2.2-.5a1.3 1.3 0 0 0 1.1-1.5c-.1-.6-.3-1.2-.4-1.8s16 2.2 19 2.4 11.5 1.5 10.4 2.4z"/><path class="cls-4" d="M415.7 132.7a12.6 12.6 0 0 0-2.8 2.9c-1.4 1.7-5.6 3.6-10.8 3.6s-8.2-.7-10.6-2.6a15 15 0 0 0-3.1-2 2.8 2.8 0 0 1-1.4-3.6c-.4.8-.7 1.4-1.5 1.4s-1.7-.1-1.3.5-.2-.7-.3-.9l-.4-.3c.5.3 1.5-.5 2.2-.5a1.3 1.3 0 0 0 1.1-1.5c-.1-.6-.3-1.2-.4-1.8s16 2.2 19 2.4 11.5 1.5 10.4 2.4z"/><path class="cls-8" d="M388.7 127.4a5.3 5.3 0 0 1 4.9-1.8h.4a4.5 4.5 0 0 1 3.9-.3h.6c1.6-.6 5 0 6.1 1.2l.4.2c3.7-.3 6.1 1.5 8.7 4.1.4.4.7 1 1.5 1.1s1 .5.2.9a10.2 10.2 0 0 0-2.9 2.8c-1.3 1.7-5.4 3.3-10.5 3.3s-8-.7-10.3-2.5a14.6 14.6 0 0 0-3-1.9c-.8-.3-1.9-1.4-1.6-2.6s-.4-2.6-.9-4a2.6 2.6 0 0 1 2.1-.4z"/><path class="cls-4" d="M388.7 127.4a5.3 5.3 0 0 1 4.9-1.8h.4a4.5 4.5 0 0 1 3.9-.3h.6c1.6-.6 5 0 6.1 1.2l.4.2c3.7-.3 6.1 1.5 8.7 4.1.4.4.7 1 1.5 1.1s1 .5.2.9a10.2 10.2 0 0 0-2.9 2.8c-1.3 1.7-5.4 3.3-10.5 3.3s-8-.7-10.3-2.5a14.6 14.6 0 0 0-3-1.9c-.8-.3-1.9-1.4-1.6-2.6s-.4-2.6-.9-4a2.6 2.6 0 0 1 2.1-.4z"/><path class="cls-9" d="M413.8 130.9c-2.6-2.6-4.9-4.4-8.7-4.1 0 .2-.1.6-.2.9a19.9 19.9 0 0 1 6.9 5.3 8.3 8.3 0 0 0 1.9-2z"/><path class="cls-4" d="M413.8 130.9c-2.6-2.6-4.9-4.4-8.7-4.1 0 .2-.1.6-.2.9a19.9 19.9 0 0 1 6.9 5.3 8.3 8.3 0 0 0 1.9-2z"/><path class="cls-9" d="M404.7 126.5c-1.2-1.2-4.5-1.7-6.1-1.2a5.8 5.8 0 0 1-.3 2 8.5 8.5 0 0 1 2.7 2.4l2.7-.7a16.2 16.2 0 0 0 1.1-2.6z"/><path class="cls-4" d="M404.7 126.5c-1.2-1.2-4.5-1.7-6.1-1.2a5.8 5.8 0 0 1-.3 2 8.5 8.5 0 0 1 2.7 2.4l2.7-.7a16.2 16.2 0 0 0 1.1-2.6z"/><path class="cls-9" d="M397.9 125.3a4.5 4.5 0 0 0-3.9.3 8.1 8.1 0 0 0-.5 2.3 3.8 3.8 0 0 1 1.8.8 8.1 8.1 0 0 0 2.4-1.4 4.6 4.6 0 0 0 .3-2z"/><path class="cls-4" d="M397.9 125.3a4.5 4.5 0 0 0-3.9.3 8.1 8.1 0 0 0-.5 2.3 3.8 3.8 0 0 1 1.8.8 8.1 8.1 0 0 0 2.4-1.4 4.6 4.6 0 0 0 .3-2z"/><path class="cls-9" d="M388.7 127.4a5.3 5.3 0 0 1 4.9-1.8 5.8 5.8 0 0 0-.5 2.2 8.5 8.5 0 0 0-4.3.8c0-.3-.1-.9-.1-1.2z"/><path class="cls-4" d="M388.7 127.4a5.3 5.3 0 0 1 4.9-1.8 5.8 5.8 0 0 0-.5 2.2 8.5 8.5 0 0 0-4.3.8c0-.3-.1-.9-.1-1.2z"/><path class="cls-9" d="M411.4 133.1a20.7 20.7 0 0 0-6.5-5l-.5 1.1c.8 1.4 2.5 4.2 3.2 5.7a20.8 20.8 0 0 0 3.8-1.9z"/><path class="cls-4" d="M411.4 133.1a20.7 20.7 0 0 0-6.5-5l-.5 1.1c.8 1.4 2.5 4.2 3.2 5.7a20.8 20.8 0 0 0 3.8-1.9z"/><path class="cls-9" d="M400.5 136.3a39.5 39.5 0 0 0 .5-5.8l2.7-.7c.7 1.2 2.4 4 3.1 5.4a24.1 24.1 0 0 1-6.3 1.1z"/><path class="cls-4" d="M400.5 136.3a39.5 39.5 0 0 0 .5-5.8l2.7-.7c.7 1.2 2.4 4 3.1 5.4a24.1 24.1 0 0 1-6.3 1.1z"/><path class="cls-9" d="M395.5 129.5a13 13 0 0 0 2.4-1.4 10.7 10.7 0 0 1 2.1 2c0 1.3-.3 4.9-.5 6.2a9.4 9.4 0 0 1-4.1-.8 25.3 25.3 0 0 0 0-6z"/><path class="cls-4" d="M395.5 129.5a13 13 0 0 0 2.4-1.4 10.7 10.7 0 0 1 2.1 2c0 1.3-.3 4.9-.5 6.2a9.4 9.4 0 0 1-4.1-.8 25.3 25.3 0 0 0 0-6z"/><path class="cls-9" d="M388.5 131.2a7.5 7.5 0 0 0 .2-1.7c1.2-.7 4-1.4 6.1-.3a33.1 33.1 0 0 1 0 5.8c-1.8-1.4-4.9-3.4-6.3-3.7z"/><path class="cls-4" d="M388.5 131.2a7.5 7.5 0 0 0 .2-1.7c1.2-.7 4-1.4 6.1-.3a33.1 33.1 0 0 1 0 5.8c-1.8-1.4-4.9-3.4-6.3-3.7z"/><path d="M381.3 128.7c-.3 0-.3-.8-1-.8h-.7l.3.6c.2.4.9.1 1.4.2z"/><path class="cls-4" d="M381.3 131.1c1.7 0 2.1-2.1 2.9-2.4m-1.8 2.5c1.2.5 2.2-2.4 3.3-2.3m-5.9-1.4c.5-.1.7-.6 1.4.1a2.1 2.1 0 0 0 1 .5m-.2 1.6c-.7.8-1.7 1.4-2.2 1.1m-.3-4.8a4.8 4.8 0 0 0-1 1.3m-.4.9a2.4 2.4 0 0 0-.1.7"/><path class="cls-7" d="M395.2 153.7c.2.3-.2.9.1 1.2s.3.8.7 1.1h1c3.1 0 6.8-1.3 10-1.3s4.8 1 6.5 1a1.7 1.7 0 0 0 1.8-1.4c0-.7-1.1-1.1-3.6-1.1s-5.2.8-8.1.8-4.9-1.5-4.9-2.2.7-1.8 3-1.8c.7 0 1.2 0 1.5-.3a5 5 0 0 1 1.5-1.4c.9-.5 2.9 0 3.9-.6s-.8 1.3-1.5 1.7c1.4-.4 2.9-.4 3.2.8a3 3 0 0 0-2.3-.1l-1.4.5c.7-.1.9 1 1.8 1a3.7 3.7 0 0 1-3.7.1 7.2 7.2 0 0 0-2.3-.5c-1.4 0-2.2.3-2.2.9s.9 1.2 3.4 1.2 3.9-.7 7.8-.7c-.3-.5.2-.9-.5-1.4 1.5 0 3.1.5 3.6 1.5-.1-1 .8-1.9.5-2.6a2.3 2.3 0 0 1 1.7 1.6c.1-.4.5-.3.5-.8a2 2 0 0 1 1.2 2.3c.4-.7.8-.5 1.1-1.4a2.5 2.5 0 0 1-.8 2.9 2.2 2.2 0 0 1 3 .4 2.1 2.1 0 0 0-1.7.4 13.4 13.4 0 0 1-6.7 1.4c-2.3-.1-2.6-.6-3.9-.5.7.1 2.5 1.8 4 1.8h2.2a2.1 2.1 0 0 1 1.7.4 2.9 2.9 0 0 0 1.9.6c-.2.6-.3.9-.9 1s.4.7 1 1.2a1.6 1.6 0 0 1-1 .2c.5.3.5 1 .9 1.2s-.6.2-.9 0 .1 1.3.4 1.6-.4 1.3-1.1.7a.6.6 0 0 1-.8.7c-.4-.1-.7-.5-.5-.7v-.2a.9.9 0 0 1-1.1.2l-.4-.4a.9.9 0 0 1-1.2-1 1 1 0 0 1 1.2-.5c.3.2.5.3.9.1a1 1 0 0 0 .5-.8c0-.4-.4-1.6-2.4-1.5a21 21 0 0 1-7.1-1.1l-.4-.2c-.1.5-.6.8-.6 1.3a1.6 1.6 0 0 0 1.1 1.6.8.8 0 0 1-1.4.2c0 .4-.6.7-.6 1.2a2.4 2.4 0 0 1-.4-.7 2.2 2.2 0 0 1-2.2 1.4 1.3 1.3 0 0 1-1.8-.1 1.2 1.2 0 0 1-1.4 0c0 .3-.3.2-.3.7s-.7.5-.9.3-.5-.7-.1-.9-1 .2-1.1-.1-.1-.7.3-.7h.2c-.2-.2-.6-.1-1-.2a.6.6 0 0 1-.1-.7c.2-.2.5-.5.8-.2l.2.2a.7.7 0 0 1 .2-.7.9.9 0 0 1 1.1.3c.4.4.7.5 1.4.4a7.1 7.1 0 0 0 2.7-1.5c-2.4-.4-1-1.9-.3-2.5a2.7 2.7 0 0 0-2 .2c-2.9 1.6-6 3.4-8.1 2.8a1.6 1.6 0 0 0 .3.8 1.8 1.8 0 0 1-1.6-.3 1.8 1.8 0 0 0-.2 1.5l-1.5-.7c.3.3-.1.9.1 1.3s-1.1-.7-1.4-.4a1.2 1.2 0 0 1-1.3.2 2.2 2.2 0 0 1-1.1.9 2.8 2.8 0 0 0-.1-1 2.6 2.6 0 0 1-1.2 1.3 2.3 2.3 0 0 0-.1-1c0 .6-1.2.9-1.4 1.2a2.1 2.1 0 0 0 .1-1.2 1.8 1.8 0 0 1-1.3 1 1.3 1.3 0 0 0 .1-.9c-.1.6-1.1.8-1.7.8s-.6.7-1.3.3-.7-.7-.5-.9-1-.5-.8-1l.2-.3a.9.9 0 0 1-.2-1.3.8.8 0 0 1 .9-.1c0-1.2 1-1.2 1.4-.4a2.1 2.1 0 0 0 1.9 1l.6-.2a10.8 10.8 0 0 0 3.6-1.9 7.3 7.3 0 0 0 .2-.9 5.2 5.2 0 0 0-1.5 1 4 4 0 0 1 0-.5 5.1 5.1 0 0 1-1.4-.1c.2-.2.3-.8.6-1a3.3 3.3 0 0 1-2-.1c.3-.2.2-.7.5-1.1s-1.1-.1-1.6.1a1.5 1.5 0 0 1 .7-1.2 3.3 3.3 0 0 1-1.9-.3c.5 0 .8-.7 1.2-.8-1.2.1-1.4-.5-2-.7s.8-.4 1.2-.3-1.1-.8-.8-1.2l-.5.5a1 1 0 0 1-1.3-.4.9.9 0 0 1 .3-1.4c-.7-.1-.6-.8-.4-1.2s.7-.6 1-.2l.5.5a3.5 3.5 0 0 1-.1-1.3c.1-.4.4-.5.8-.5s.8.4.7.8a4.2 4.2 0 0 0 .3 1.2v-.5c.1-.6.8-.5 1.2-.4a.9.9 0 0 1 .1 1.4c-.4.3-.2.7.1 1s2.7 2.9 4.2 3a1.9 1.9 0 0 1 .7-1.6 1.5 1.5 0 0 1 .3-1.1c0-.8.5-1.2 1.1-1l-.3-.3a1.6 1.6 0 0 1-.5-1.7.8.8 0 0 1 1.4-.1c-.1-1 .9-1.6 1-2.1s.4 1 .3 1.4a3.3 3.3 0 0 1 1.8-1.5c-.3.5.5 1.1.4 1.5s1.4-1.1 2.3-1.1a2.1 2.1 0 0 0-.4 1 1.7 1.7 0 0 0 1.4-.5 2 2 0 0 1-.6 1.4 3.4 3.4 0 0 1 1.2-.1c-.5.4-.3.9-.7 1.2a.9.9 0 0 1 1.4.2c.2.5-.2 1.2-.5 1.6s-.5.5-.7.5z"/><path class="cls-4" d="M395.2 153.7c.2.3-.2.9.1 1.2s.3.8.7 1.1h1c3.1 0 6.8-1.3 10-1.3s4.8 1 6.5 1a1.7 1.7 0 0 0 1.8-1.4c0-.7-1.1-1.1-3.6-1.1s-5.2.8-8.1.8-4.9-1.5-4.9-2.2.7-1.8 3-1.8c.7 0 1.2 0 1.5-.3a5 5 0 0 1 1.5-1.4c.9-.5 2.9 0 3.9-.6s-.8 1.3-1.5 1.7c1.4-.4 2.9-.4 3.2.8a3 3 0 0 0-2.3-.1l-1.4.5c.7-.1.9 1 1.8 1a3.7 3.7 0 0 1-3.7.1 7.2 7.2 0 0 0-2.3-.5c-1.4 0-2.2.3-2.2.9s.9 1.2 3.4 1.2 3.9-.7 7.8-.7c-.3-.5.2-.9-.5-1.4 1.5 0 3.1.5 3.6 1.5-.1-1 .8-1.9.5-2.6a2.3 2.3 0 0 1 1.7 1.6c.1-.4.5-.3.5-.8a2 2 0 0 1 1.2 2.3c.4-.7.8-.5 1.1-1.4a2.5 2.5 0 0 1-.8 2.9 2.2 2.2 0 0 1 3 .4 2.1 2.1 0 0 0-1.7.4 13.4 13.4 0 0 1-6.7 1.4c-2.3-.1-2.6-.6-3.9-.5.7.1 2.5 1.8 4 1.8h2.2a2.1 2.1 0 0 1 1.7.4 2.9 2.9 0 0 0 1.9.6c-.2.6-.3.9-.9 1s.4.7 1 1.2a1.6 1.6 0 0 1-1 .2c.5.3.5 1 .9 1.2s-.6.2-.9 0 .1 1.3.4 1.6-.4 1.3-1.1.7a.6.6 0 0 1-.8.7c-.4-.1-.7-.5-.5-.7v-.2a.9.9 0 0 1-1.1.2l-.4-.4a.9.9 0 0 1-1.2-1 1 1 0 0 1 1.2-.5c.3.2.5.3.9.1a1 1 0 0 0 .5-.8c0-.4-.4-1.6-2.4-1.5a21 21 0 0 1-7.1-1.1l-.4-.2c-.1.5-.6.8-.6 1.3a1.6 1.6 0 0 0 1.1 1.6.8.8 0 0 1-1.4.2c0 .4-.6.7-.6 1.2a2.4 2.4 0 0 1-.4-.7 2.2 2.2 0 0 1-2.2 1.4 1.3 1.3 0 0 1-1.8-.1 1.2 1.2 0 0 1-1.4 0c0 .3-.3.2-.3.7s-.7.5-.9.3-.5-.7-.1-.9-1 .2-1.1-.1-.1-.7.3-.7h.2c-.2-.2-.6-.1-1-.2a.6.6 0 0 1-.1-.7c.2-.2.5-.5.8-.2l.2.2a.7.7 0 0 1 .2-.7.9.9 0 0 1 1.1.3c.4.4.7.5 1.4.4a7.1 7.1 0 0 0 2.7-1.5c-2.4-.4-1-1.9-.3-2.5a2.7 2.7 0 0 0-2 .2c-2.9 1.6-6 3.4-8.1 2.8a1.6 1.6 0 0 0 .3.8 1.8 1.8 0 0 1-1.6-.3 1.8 1.8 0 0 0-.2 1.5l-1.5-.7c.3.3-.1.9.1 1.3s-1.1-.7-1.4-.4a1.2 1.2 0 0 1-1.3.2 2.2 2.2 0 0 1-1.1.9 2.8 2.8 0 0 0-.1-1 2.6 2.6 0 0 1-1.2 1.3 2.3 2.3 0 0 0-.1-1c0 .6-1.2.9-1.4 1.2a2.1 2.1 0 0 0 .1-1.2 1.8 1.8 0 0 1-1.3 1 1.3 1.3 0 0 0 .1-.9c-.1.6-1.1.8-1.7.8s-.6.7-1.3.3-.7-.7-.5-.9-1-.5-.8-1l.2-.3a.9.9 0 0 1-.2-1.3.8.8 0 0 1 .9-.1c0-1.2 1-1.2 1.4-.4a2.1 2.1 0 0 0 1.9 1l.6-.2a10.8 10.8 0 0 0 3.6-1.9 7.3 7.3 0 0 0 .2-.9 5.2 5.2 0 0 0-1.5 1 4 4 0 0 1 0-.5 5.1 5.1 0 0 1-1.4-.1c.2-.2.3-.8.6-1a3.3 3.3 0 0 1-2-.1c.3-.2.2-.7.5-1.1s-1.1-.1-1.6.1a1.5 1.5 0 0 1 .7-1.2 3.3 3.3 0 0 1-1.9-.3c.5 0 .8-.7 1.2-.8-1.2.1-1.4-.5-2-.7s.8-.4 1.2-.3-1.1-.8-.8-1.2l-.5.5a1 1 0 0 1-1.3-.4.9.9 0 0 1 .3-1.4c-.7-.1-.6-.8-.4-1.2s.7-.6 1-.2l.5.5a3.5 3.5 0 0 1-.1-1.3c.1-.4.4-.5.8-.5s.8.4.7.8a4.2 4.2 0 0 0 .3 1.2v-.5c.1-.6.8-.5 1.2-.4a.9.9 0 0 1 .1 1.4c-.4.3-.2.7.1 1s2.7 2.9 4.2 3a1.9 1.9 0 0 1 .7-1.6 1.5 1.5 0 0 1 .3-1.1c0-.8.5-1.2 1.1-1l-.3-.3a1.6 1.6 0 0 1-.5-1.7.8.8 0 0 1 1.4-.1c-.1-1 .9-1.6 1-2.1s.4 1 .3 1.4a3.3 3.3 0 0 1 1.8-1.5c-.3.5.5 1.1.4 1.5s1.4-1.1 2.3-1.1a2.1 2.1 0 0 0-.4 1 1.7 1.7 0 0 0 1.4-.5 2 2 0 0 1-.6 1.4 3.4 3.4 0 0 1 1.2-.1c-.5.4-.3.9-.7 1.2a.9.9 0 0 1 1.4.2c.2.5-.2 1.2-.5 1.6s-.5.5-.7.5zm-8.7 1.6a2.6 2.6 0 0 0-1.5 2m1.3-.9c-1.4.8-2 1.6-1.7 3.1m2.4 1.1a3.4 3.4 0 0 0 2.1-1.9m-.4.7c-.2.5 0 1.5-.4 2a3.2 3.2 0 0 0 1.4-2m-.8 1.4a3.9 3.9 0 0 0 1.9-2c-.1.3 0 1.1-.3 1.5a2.9 2.9 0 0 0 1.1-1.9c0 .2.2.4.2.6a1.9 1.9 0 0 0 .6-1.1m-.1.4a2.3 2.3 0 0 1 0 .7 1.8 1.8 0 0 0 .8-1.7m-.1.8c.9-.5 1-1.3 1-2.7m-.1 1.4c.6-.4.8-.7.7-1.9m-1.8-3.9a.7.7 0 0 0-.5.6c-.1.3-.4.7-.5 1.1s-.4.7-.8.5-.4-.3-.4-.6.7-.8.8-1.3a1.1 1.1 0 0 1 .4-.8 1.3 1.3 0 0 1-1.9-.7m4.3 1.7c-.3.1-.6-.3-1-.2a1.1 1.1 0 0 1-.8 0m-.3.8a1.7 1.7 0 0 0 1.6.3c-.5 0-1-.6-.4-1.1m-2.4-.5c-.6 0-1 .4-.9.8s.8.5 1.2.2m-1.3 6a1.2 1.2 0 0 0 .4-.6.8.8 0 0 0 .7-.2 1 1 0 0 0 1-.9c.4 0 .5-.6.6-.9s.5-.1.7-.7a.6.6 0 0 0 .8-.4m-5.9-1a.8.8 0 0 1-.5.6 1.2 1.2 0 0 1-.3 1.1 1.1 1.1 0 0 1-.2 1 1.7 1.7 0 0 1 .2.8m1.4-6.3c-.3.6-.2 1.5.4 1.7m-.1.5a10.1 10.1 0 0 1-.3 2.1 1.1 1.1 0 0 0 .8 1.6c1.2.3 1.9.1 2.6-2m2.2 5.5a.9.9 0 0 1-.4.5m1.3-.8a2 2 0 0 1-.4.9m1.4-1.1a1.5 1.5 0 0 1-.3.8m-8.4-9.7a.8.8 0 0 1 .4.5c-.4-.2-.7.4-.5.9m-.2.9l-.6.4m.1.8l-.4.2m-6.5-2.8l.2-.3m-1.4 0l-.3-.2m.5 2.2h.2m-.9-.9a1.9 1.9 0 0 0-.9-.3m8.7 5.7a3.6 3.6 0 0 0-1.5 2.5m2.6-1.8a2.7 2.7 0 0 1-1.1 1.3m-4.4 3a3.5 3.5 0 0 1-2.8-.4l-.5-.2m7.5-1.4a5.7 5.7 0 0 1-.5 1.5c1.1-.7 2.1-1.5 2.2-2.7m-9.9 4c.4-.3.9 0 1.2-.2m23.5-4.6l.9.4a2.6 2.6 0 0 1 1.1-.9m-12.1 3.4a1.6 1.6 0 0 1 1-1.6m-6.6 4a2.2 2.2 0 0 0 .3-1m-6.4 1.4a1.3 1.3 0 0 0-.5.9m-1.7-.6h.2a1.7 1.7 0 0 0 .9-.7m18.3-1.1l-.5-.2m.4.8l-.4.2m1 .6l-.3.3m4.5 0a1.9 1.9 0 0 0 .6-1m-2.4.8a3.3 3.3 0 0 0 1.1-.9m2.9-.4a1.1 1.1 0 0 1 .1-.8m10.4 2a.7.7 0 0 1 .2-1l.6-.4m-9.4-3.6c-2.4-1.1-2.2-2.3-4.1-2.2m14.2 6.5a1.9 1.9 0 0 1-.1.8m1.4-.7a1.4 1.4 0 0 0-.1.9m-10.9-14.4h-1m-10.9 4.7c0 .3.4.9 1.5.9l-.2-.2m-.7-2.4h-.6c-.2-.3.1-.9.5-1.2a1.3 1.3 0 0 1-.9.1c-.4.9-1.1 1.3-1.7.8s-.9 1.2-1.5 1-.7-.6-.5-1.2a1.2 1.2 0 0 1-1.8.1 2.9 2.9 0 0 1 .2-1.9"/><path d="M404.4 159c-.4.3-.9.1-1.2.4s.1.5.4.5-.2.6.4.6.7.5.5 1.1a1.5 1.5 0 0 0 .3-1.5c-.2-.4-.9-.7-.4-1.1z"/><path class="cls-1" d="M391.4 154.4c-.6-.2-.7-.6-.5-1.2a1.2 1.2 0 0 1-.7.5c-.6 1.3-1.2 2.4-2.2 2.5s-.8 1 0 1.1 2.2-.3 3.5-2.9zm-14-3.3a.6.6 0 0 0-.1-1 1.5 1.5 0 0 0-1.7.6c.5-.1.9-.1 1 .2s.4.6.9.2zm.7-2.5c1 0 1.3.2 1.4.5a.5.5 0 0 1-.5.7c-.4 0-.7-.3-.6-.5a.5.5 0 0 0-.3-.7zm2.9 2.2c.7.2.9-.3.6-.9a1.2 1.2 0 0 0-1.3-.5c.8.3 0 1.2.7 1.4zm-5.3 2.3a1.1 1.1 0 0 0 1.4.6.6.6 0 0 0 .3-.8c-.2-.4-.7-.5-.8 0a.6.6 0 0 1-.9.2zm2.1 8.8a1.2 1.2 0 0 0-1.8-.1c.2 0 .9.1 1 .4a.4.4 0 0 0 .6.2c.2-.1.4-.3.3-.5zm1.2-1c-.1-.6-1-.8-1.7-.5s.8.2.8.5.3.5.6.4.3-.2.3-.4zm-1.5 2.7c-.8-.2-1.3.8-1.3 1.5a1.1 1.1 0 0 1 .9-.6c.4 0 .6-.1.7-.4a.4.4 0 0 0-.4-.5zm.1 2.4a.6.6 0 0 0 .7-.6c0-.3.6-.3.8-.1a.7.7 0 0 1-.2.9 1 1 0 0 1-1.3-.2zm19.8-4.3a1.4 1.4 0 0 0-1.5-.1.9.9 0 0 1 .8.5.4.4 0 1 0 .7-.4zm-1.3.9c-.5-.2-1.2.4-1.4 1.1s.7-.5.9-.4a.5.5 0 0 0 .6-.3c0-.2.1-.3-.2-.4zm.7 1.3a1.2 1.2 0 0 0-1 1.1.8.8 0 0 1 .8-.3.5.5 0 0 0 .6-.4.4.4 0 0 0-.4-.4zm1.3 1.1a.5.5 0 0 0-.7.5 3.7 3.7 0 0 1-.1.9l.7-.6a.5.5 0 0 0 0-.8zm16-1.3a.6.6 0 0 0-.9.1 1.6 1.6 0 0 0 0 1.6c0-.3.2-.7.6-.7s.5-.7.3-.9zm.9.6a1.3 1.3 0 0 0-.1 1.8c0-.3.1-.8.4-.9s.6-.6.4-.8a.5.5 0 0 0-.7-.2zm1.7.5a.5.5 0 0 0-.6.5 1.4 1.4 0 0 0 .7 1.2.8.8 0 0 1 .3-.7c.4-.3.2-.8-.3-1zm1.2-.1a.5.5 0 0 0-.3.8c.2.4.5.5 1 .4s-.4-.4-.3-.7 0-.6-.5-.5z"/><path class="cls-7" d="M385.6 169.4l-2.7 8.3h-8.8l7.2 5.2-2.8 8.3 7.1-5.2 7.1 5.2-2.7-8.4 7.1-5.1h-8.8l-2.7-8.3z"/><path class="cls-10" d="M385.6 169.4l-2.7 8.3h-8.8l7.2 5.2-2.8 8.3 7.1-5.2 7.1 5.2-2.7-8.4 7.1-5.1h-8.8l-2.7-8.3z"/><path class="cls-7" d="M412.4 169.4l2.7 8.3h8.8l-7.2 5.2 2.8 8.3-7.1-5.2-7.1 5.2 2.7-8.4-7.1-5.1h8.8l2.7-8.3z"/><path class="cls-10" d="M412.4 169.4l2.7 8.3h8.8l-7.2 5.2 2.8 8.3-7.1-5.2-7.1 5.2 2.7-8.4-7.1-5.1h8.8l2.7-8.3z"/><path class="cls-7" d="M398.9 184.8l-2.6 8.4h-8.9l7.2 5.2-2.7 8.3 7-5.2 7.1 5.2-2.7-8.4 7.2-5.1h-8.8l-2.8-8.4z"/><path class="cls-10" d="M398.9 184.8l-2.6 8.4h-8.9l7.2 5.2-2.7 8.3 7-5.2 7.1 5.2-2.7-8.4 7.2-5.1h-8.8l-2.8-8.4z"/><path class="cls-8" d="M385.6 171.9l-2.1 6.6h-7l5.7 4.1-2.2 6.6 5.6-4.1 5.6 4.1-2.1-6.7 5.6-4h-6.9l-2.2-6.6zm26.8 0l2.1 6.6h7l-5.7 4.1 2.2 6.6-5.6-4.1-5.6 4.1 2.1-6.7-5.6-4h6.9l2.2-6.6zm-13.5 15.5l-2.1 6.6h-6.9l5.6 4.1-2.2 6.5 5.6-4 5.7 4-2.2-6.6 5.6-4h-6.9l-2.2-6.6z"/><path class="cls-9" d="M364 198.1l-1.1.6a.4.4 0 0 0-.2.5h-.1l-.7-1.3h.1a.4.4 0 0 0 .5.1l2.4-1.2a.4.4 0 0 0 .2-.5h.1l.6 1.3h-.1a.4.4 0 0 0-.5-.1l-1 .5.5 1 1-.5a.4.4 0 0 0 .2-.5h.1l.6 1.3h-.1a.4.4 0 0 0-.5-.1l-2.4 1.2a.4.4 0 0 0-.2.5h-.1l-.7-1.3h.1a.4.4 0 0 0 .5.1l1.1-.6-.5-1zm2.5 1.8a.4.4 0 0 0 .1-.6h.1l1.4 2.2-1 .7h-.1a.9.9 0 0 0 .4-1.2l-.2-.4c-.1-.1-.1-.1-.4.1l-1 .7c.1.1.3.6 1 .2h.1l-1.5 1h-.1c.7-.6.4-.9.3-1.1l-1 .7c-.3.2-.3.2-.2.3l.2.4c.2.3.6.5 1.4.3h.1l-1.1.5-1.4-2.2h.1a.4.4 0 0 0 .6.1l2.2-1.5zm2.2 5.3l-.9.9a.4.4 0 0 0-.1.6h-.1l-1-1.1h.1a.4.4 0 0 0 .6 0l1.9-1.8a.4.4 0 0 0 .1-.6h.1l1 1.1h-.1a.4.4 0 0 0-.6 0l-.8.8.7.8.9-.8a.4.4 0 0 0 .1-.6h.1l1 1.1h-.1a.4.4 0 0 0-.6 0l-1.9 1.8a.4.4 0 0 0-.1.6h-.1l-1-1.1h.1a.4.4 0 0 0 .6 0l.9-.9-.7-.8zm2.2 3.1l.4.4.6-1.3-1.2.7.2.2-.2.2-.3-.3-.4.2c-.4.2-.3.4-.1.6h-.1l-.7-.6h.6l2.9-1.6h.1l-1.3 3.1c-.1.2-.2.4 0 .6h-.1l-1.1-1h.1c.3.2.4.3.6-.1l.2-.5-.5-.4.2-.2zm1.1 2.8h.1a.4.4 0 0 0 .5-.1l1.9-2.4h-.1a.8.8 0 0 0-1.1.3h-.1l.7-.8 2 1.6-.7.8h-.1a.8.8 0 0 0 0-1.1h-.1l-1.8 2.4a.4.4 0 0 0 0 .6h-.1l-1.1-.9z"/><path class="cls-9" d="M375.7 211.6l-.7 1.1a.4.4 0 0 0 .1.6h-.1l-1.2-.8h.1a.4.4 0 0 0 .5-.1l1.5-2.2a.4.4 0 0 0-.1-.6h.1l1.2.8h-.1a.4.4 0 0 0-.5.1l-.7 1 .9.6.6-1a.4.4 0 0 0-.1-.6h.1l1.2.8h-.1a.4.4 0 0 0-.5.2l-1.5 2.2a.4.4 0 0 0 .1.6h-.1l-1.2-.8h.1a.4.4 0 0 0 .5-.1l.7-1.1-.9-.6zm2.9 4h.1c.2.1.4.1.6-.2l1.2-2.4a.4.4 0 0 0-.2-.6h.1l2.3 1.2-.5 1h-.2a.9.9 0 0 0-.2-1.2l-.4-.2c-.1 0-.2 0-.3.3l-.6 1.1c.2.1.5.4 1-.3h.1l-.8 1.6h-.1c.4-.9-.1-1-.2-1.1l-.6 1.1a.4.4 0 0 0 .1.5l-1.3-.7zm4 2c-.5-.2-.4-1 0-1.9s.9-1.5 1.4-1.3.4 1 0 1.9-.9 1.5-1.4 1.3h-.1c.9.4 1.7-.2 2.1-1.1a1.7 1.7 0 0 0-.6-2.3c-.9-.4-1.7.2-2.1 1.1a1.7 1.7 0 0 0 .6 2.3zm4.4.3l.6-1.7a.4.4 0 0 0-.2-.5l.8.3c-.2 0-.3 0-.4.3l-.6 1.7c-.2.7-.6 1.3-1.5 1a1.2 1.2 0 0 1-.7-1.6l.6-1.9a.4.4 0 0 0-.2-.5l1.3.5a.4.4 0 0 0-.5.3l-.6 1.8c-.2.6-.2 1.1.3 1.3s.8-.1 1.1-.8zm1.3-1.8h-.1l.9.3.9 2.7.5-1.8a.4.4 0 0 0-.2-.5l.8.2c-.2 0-.3 0-.4.3l-.8 3.1h-.1l-1.1-3.4-.6 2.4a.4.4 0 0 0 .2.5l-.8-.2a.4.4 0 0 0 .5-.3l.7-2.6v-.4z"/><path class="cls-9" d="M393.1 219c-.2 1.2-.7 1.6-1 1.5h-.3c-.1 0-.2-.1-.1-.2l.5-2.9c0-.1.1-.2.2-.1h.3c.3.1.7.6.4 1.8h.5c.3-1.5-.4-2-1.1-2.2l-1.4-.3a.4.4 0 0 1 .3.5l-.5 2.6a.4.4 0 0 1-.4.3l1.4.3c.7.1 1.5-.1 1.8-1.5zm1.3-1.2c0-.3-.2-.4-.4-.5l2.6.3v1.2h-.1a.9.9 0 0 0-.7-1.1h-.4c-.1 0-.2 0-.2.3v1.2c.2 0 .6.1.8-.7h.1l-.2 1.8h-.1c0-1-.5-.9-.6-.9v1.3c0 .3 0 .4.1.4h.4c.3 0 .7-.1 1.1-.9h.1l-.3 1.1-2.6-.3c.2 0 .4-.1.5-.4l.3-2.7zm8.8 2.8c0 .3.3.4.5.4l-1.6.2c.2-.1.4-.2.4-.5l-.3-2.7c0-.3-.3-.4-.5-.4l1.5-.2c-.2.1-.4.2-.4.5l.3 2.7zm1.4.3a.4.4 0 0 0 .3-.5l-.5-3h-.2a.8.8 0 0 0-.5 1h-.1l-.2-1.1 2.6-.4.2 1.1h-.1a.8.8 0 0 0-.8-.8h-.1l.5 3a.4.4 0 0 0 .4.4l-1.4.2zm6.1-2.8l-.5-1.8a.4.4 0 0 0-.5-.3l.8-.2c-.2.1-.3.2-.2.5l.5 1.7c.2.7.2 1.4-.6 1.7a1.1 1.1 0 0 1-1.5-.9l-.5-1.9a.4.4 0 0 0-.4-.3l1.4-.4a.4.4 0 0 0-.2.5l.5 1.8c.2.6.5 1 .9.9s.6-.6.4-1.3zm1.6-1.1c.6-.3.5-.7.4-1.1s-.4-.8-.7-.7-.3.2-.2.3l.5 1.4h.1l.4 1.1a.4.4 0 0 0 .5.3l-1.3.5a.4.4 0 0 0 .2-.5l-.9-2.5c-.1-.3-.3-.3-.5-.2l1.4-.5a1 1 0 0 1 1.4.6 1 1 0 0 1-.7 1.4h-.3zm3.7-3.5h-.2l.8-.5 2.5 1.3-.9-1.6a.4.4 0 0 0-.5-.2h-.1l.7-.4h.1c-.2.1-.2.3-.1.5l1.5 2.8h-.1l-3.1-1.7 1.1 2.2a.4.4 0 0 0 .5.2h.1l-.8.4h-.1a.4.4 0 0 0 .1-.6l-1.2-2.4-.4-.2zm6.4.4h-.1a.4.4 0 0 0 0-.6l-1.7-2.5h-.1a.8.8 0 0 0-.1 1.1h-.1l-.6-.9 2.1-1.5.6.9h-.1a.8.8 0 0 0-1.1-.3h-.1l1.7 2.5a.4.4 0 0 0 .5.2h.1l-1.2.8zm1.6-3.4l.8 1a.4.4 0 0 0 .6.1h.1l-1.1.9h-.1a.4.4 0 0 0 0-.6l-1.6-2.1a.4.4 0 0 0-.5-.1h-.2l1.1-.9h.1a.4.4 0 0 0 0 .6l.7.9.8-.7-.7-.9a.4.4 0 0 0-.5-.1h-.1l1.1-.9h.1a.4.4 0 0 0 0 .6l1.7 2.1a.4.4 0 0 0 .5.1h.1l-1.1.9h-.1a.4.4 0 0 0 0-.6l-.8-1-.8.7zm1.3-2.9a.4.4 0 0 0-.6 0h-.1l1.9-1.8.8.9h-.1a.9.9 0 0 0-1.2-.2l-.3.3c-.1.1-.1.1.1.4l.8.9c.1-.1.5-.4 0-1.1h.1l1.2 1.3h-.1c-.7-.6-1-.3-1.1-.1l.8.9c.2.2.3.2.4.2l.3-.3c.2-.2.4-.7 0-1.4h.1l.6 1-1.9 1.8h-.1a.4.4 0 0 0 0-.6l-1.8-2zm3.3-4.1a.5.5 0 0 0 .1.7c.3.3.6.2 1.1 0a1.2 1.2 0 0 1 1.4.2 1 1 0 0 1 .2 1.5l-.5.4c-.1.1-.1.1 0 .2h-.1l-1-.8h.1c.5.4 1.1.4 1.4.1a.6.6 0 0 0-.1-.8c-.3-.2-.6-.2-1.1 0a1.3 1.3 0 0 1-1.4-.1c-.5-.5-.6-1-.3-1.4l.6-.4c.1 0 .1-.1 0-.3h.1l.9.7h-.1c-.7-.4-1.1-.2-1.3.1zm1.3-1a.4.4 0 0 0-.6.1h-.1l1.5-2.2.9.7h-.1a.9.9 0 0 0-1.2.1l-.2.3c-.1.1 0 .2.2.3l1 .7c.1-.1.4-.5-.2-1.1h.1l1.5 1.1h-.1c-.8-.5-1-.1-1.1.1l1 .7c.3.2.3.2.4.1l.2-.3c.2-.3.3-.7-.2-1.4h.1l.8.9-1.5 2.2h-.1a.4.4 0 0 0-.1-.6l-2.2-1.6zm3.9-2.6l-.4.8-.9-1 1.4.3h.8c.4.1.3.3.2.6h.1l.7-1.3h-.1c-.2.2-.4.2-.6.1l-3.2-.6h-.1l2.2 2.5a.7.7 0 0 1 .2.5h.1l.4-.8h-.1c-.2.2-.3.4-.6 0l-.3-.4.5-.9zm-1-3.1c-.1.2 0 .4.3.6s.6 0 1-.4a1.2 1.2 0 0 1 1.4-.2 1 1 0 0 1 .6 1.4l-.4.6c-.1.1-.1.1 0 .2l-1.1-.5c.6.2 1.2.1 1.4-.4a.6.6 0 0 0-.3-.7c-.3-.1-.6 0-1 .3a1.3 1.3 0 0 1-1.3.3c-.7-.3-.9-.8-.7-1.2a1.3 1.3 0 0 1 .4-.5c.1-.1.1-.1-.1-.3l1.1.5c-.8-.1-1.1.2-1.2.4z"/><path class="cls-9" d="M399.1 219.5c0 1.3-.5 1.7-.8 1.6h-.3c-.1 0-.2 0-.1-.2v-3c0-.1.1-.2.2-.2h.3c.3 0 .7.4.7 1.7h.6c0-1.5-.7-1.9-1.4-1.9h-1.4a.4.4 0 0 1 .4.4v2.7a.4.4 0 0 1-.4.4h1.4c.7 0 1.4-.3 1.5-1.8zm16.7-2.1c-.5.2-1-.4-1.4-1.3s-.4-1.7 0-1.9 1 .4 1.4 1.3.4 1.7 0 1.9h.1a1.6 1.6 0 0 0 .6-2.3c-.4-1-1.2-1.5-2.1-1.2a1.6 1.6 0 0 0-.6 2.3 1.7 1.7 0 0 0 2.1 1.2z"/></svg>