<svg xmlns="http://www.w3.org/2000/svg" viewBox="0 0 499.839 277.402"><path fill="#fff" d="M499.839 277.402V-.375h-500v277.777h500z"/><path d="M235.12 75.113c-1.965 3.438 1.258 4.809-1.516 8.82-4.043 5.848.641 10.77-6.969 14.777-5.477 2.891-6.168 1.344-7.688.043-1.523-1.305-5.348-3.332-14.102.469-3.734 1.621-4.117 1.621-5.258.453-1.137-1.168-2.027-.367-4.883 1.098-4.895 2.496-2 6.246-7.906 7.848-5.914 1.594-7.574.805-12.16-1.559-4.578-2.363-5.484-1.852-6.398-.336-.914 1.535-1.059 3.066 1.48 5.019 2.539 1.953 3.805 3.121 2.746 5.93-1.059 2.801-1.352 3.91.578 5.133 3.945 2.473.176 5.078 3.84 11.188 2.012 3.359 2.371 5.414 2.59 8.492.219 3.07.816 4.965 3.648 5.547 4.602.957.418 3.078 7.883 5.352 3.059.93 5.355 1.988 7.52 3.297 2.156 1.301 8.301 2.012 12.668 1.301 4.359-.719 11.551-2.441 13.43 1.824 3.121 7.086 5.035 7.621 6.672 10.07 1.637 2.457 4.645.379 6.465-5.047 1.328-3.953 2.805-9.648 9.984-9.613 17.68.082 22.383.785 29.91-4.77 4.266-3.152 9.574-7.824 13.125-4.711.695.648 1.246-1.82 3.621-2.965.645-.32.047-1.484.676-2.816 2.102-4.461-.785-5.66 1.059-8.121 4.754-6.348 7.309-6.066 11.152-5.887 3.84.168 5.375.703 8.027 3.422 2.664 2.727 3.867 3.5 7.297.727 3.754-3.023 12.617-3.613 13.84-.215.371 1.027 2.812.547 2.586-1.895-.227-2.434-.977-4.109-3.902-5.812-2.926-1.699-.73-3.078-3.906-5.426-3.172-2.344.676-2.941-5.539-8.137-6.215-5.199-2.168-14.41 1.371-18.18.711-.762 2.453-1.766 5.59-1.344 3.133.426 4.152.434 6.5-2.484 2.34-2.914 4.414-6.645 7.52-7.594 4.438-1.355 5.07-3.785 8.766-4.254 5.969-.758 7.254-6.223 11.879-7.676 6.688-2.094 4.57-7.121 12.156-9.465 7.59-2.34 7.25-6.316 9.707-7.949-7.199 1.832-9.824 2.887-12.625 5.227-3.621 3.031-6.809 1.582-10.559 4.613-3.75 3.031-7.23 4.781-11.191 3.711-3.961-1.074-5.184-1.84-6.43 1.586-3.309 9.188-9.219 5.465-12.012 8.184-4.402 4.309-8.09 1.309-11.312 3.582-4.652 3.277-13.746-.965-17.844 2.738-6.867 6.199-8.57-1.004-16.055 3.262-6.074 3.469-11.559 2.301-15.645.715-4.078-1.586-17.703-1.125-22.641-2.965-10.331-3.832-15.229-1.328-17.745-5.207z" fill="#ed8000"/><path d="M257.616 224.473c-31.356-14.648-60.93-19.078-76.098-38.805 14.348 21.152 46.555 26.434 76.629 41.672.68.293.469-2.293-.531-2.867z" fill="#006651"/><path d="M191.503 195.969c-10.641-7.953-13.746-2.543-18.535-2.102 8.777 6.008 10.637 5.512 18.535 2.102zM191.151 195.418c-9.293-9.484-4.348-13.289-4.543-18.094 7.122 7.903 6.872 9.809 4.543 18.094zM182.96 187.445c-2.383-13.07-8.34-11.219-12.152-14.156 2.339 10.371 4.043 11.273 12.152 14.156zM200.44 201.332c-9.301-9.488-4.344-13.285-4.547-18.094 7.125 7.903 6.875 9.813 4.547 18.094zM200.643 201.645c-9.965 8.789-13.496 3.648-18.305 3.594 8.259-6.7 10.153-6.352 18.305-3.594zM211.128 206.637c-10.434-8.219-6.012-12.621-6.82-17.363 8.074 6.925 8.066 8.843 6.82 17.363zM212.433 207.422c-9.008 9.766-13.047 5.02-17.84 5.461 7.527-7.516 9.445-7.367 17.84-5.461zM223.304 211.66c-11.102-7.297-7.078-12.062-8.293-16.715 8.64 6.203 8.804 8.125 8.293 16.715zM224.159 212.562c-9.004 9.766-13.055 5.02-17.84 5.461 7.528-7.515 9.446-7.359 17.84-5.461zM234.835 215.648c-11.098-7.297-7.07-12.059-8.285-16.715 8.636 6.212 8.801 8.126 8.285 16.715zM235.893 216.863c-8.035 10.574-12.512 6.23-17.238 7.129 6.781-8.195 8.703-8.226 17.238-7.129zM239.581 224.473c31.359-14.648 60.934-19.078 76.098-38.805-14.348 21.152-46.547 26.434-76.625 41.672-.684.293-.469-2.293.527-2.867z" fill="#006651"/><path d="M305.698 195.969c10.641-7.953 13.746-2.543 18.535-2.102-8.777 6.008-10.636 5.512-18.535 2.102zM306.05 195.418c9.293-9.484 4.348-13.289 4.543-18.094-7.121 7.903-6.871 9.809-4.543 18.094zM314.241 187.445c2.383-13.07 8.344-11.219 12.152-14.156-2.339 10.371-4.039 11.273-12.152 14.156zM296.757 201.332c9.301-9.488 4.352-13.285 4.551-18.094-7.122 7.903-6.875 9.813-4.551 18.094zM296.558 201.645c9.961 8.789 13.492 3.648 18.305 3.594-8.262-6.7-10.153-6.352-18.305-3.594zM286.073 206.637c10.434-8.219 6.012-12.621 6.824-17.363-8.074 6.925-8.074 8.843-6.824 17.363zM284.772 207.422c9.004 9.766 13.047 5.02 17.84 5.461-7.535-7.516-9.453-7.367-17.84-5.461zM273.901 211.66c11.098-7.297 7.074-12.062 8.285-16.715-8.632 6.203-8.8 8.125-8.285 16.715zM273.046 212.562c9.004 9.766 13.047 5.02 17.84 5.461-7.532-7.515-9.45-7.359-17.84-5.461zM262.366 215.648c11.102-7.297 7.074-12.059 8.281-16.715-8.632 6.212-8.793 8.126-8.281 16.715zM261.308 216.863c8.035 10.574 12.512 6.23 17.238 7.129-6.781-8.195-8.703-8.226-17.238-7.129z" fill="#006651"/></svg>