<svg xmlns="http://www.w3.org/2000/svg" viewBox="0 0 499.905 277.472"><path fill="#006b3f" d="M499.839 277.402V-.375h-500v277.777h500z"/><path fill="#fcd116" d="M499.839 126.945v-23.152h-500v23.152h500z"/><path stroke="#000" stroke-width=".132" d="M499.839 150.09v-23.145h-500v23.145h500z"/><path fill="#fff" d="M499.839 173.242V150.09h-500v23.152h500z"/><path fill="#fcd116" d="M239.421-.371h-20.84v277.777h20.84V-.371z"/><path stroke="#000" stroke-width=".132" d="M260.261-.371h-20.84v277.777h20.84V-.371z"/><path fill="#fff" d="M281.085-.371h-20.824v277.777h20.824V-.371z"/><g><path d="M249.839 204.945c36.688 0 66.426-29.746 66.426-66.426 0-36.691-29.738-66.43-66.426-66.43-36.684 0-66.422 29.738-66.422 66.43 0 36.68 29.738 66.426 66.422 66.426z" fill="#d41c30"/><path fill="#00693f" d="M249.839 75.488l-2.028 6.305h-6.668l5.418 3.918-2.081 6.297 5.359-3.91 5.363 3.91-2.055-6.352 5.391-3.84h-6.645l-2.054-6.328zM212.788 87.531l2.067 6.289-5.395 3.914 6.687-.007 2.016 6.316 2.039-6.316 6.637.015-5.391-3.937 2.094-6.27-5.371 3.902-5.383-3.906zM189.897 119.039l5.368 3.879-2.063 6.344 5.406-3.942 5.344 3.922-2.066-6.305 5.379-3.89-6.672-.008-1.992-6.312-2.051 6.316-6.653-.004zM189.901 157.996l6.617-.019 2.063 6.343 2.055-6.363 6.629.035-5.379-3.894 2.066-6.305-5.406 3.914-5.316-3.937 2.05 6.32-5.379 3.906zM212.8 189.508l5.343-3.906 5.395 3.921-2.082-6.359 5.387-3.863-6.641.011-2.035-6.316-2.07 6.34-6.614-.059 5.372 3.907-2.055 6.324zM249.843 201.543l2.027-6.301h6.672l-5.418-3.918 2.082-6.297-5.363 3.911-5.36-3.911 2.055 6.348-5.391 3.84h6.641l2.055 6.328zM286.89 189.504l-2.063-6.293 5.395-3.918-6.688.008-2.016-6.317-2.039 6.321-6.636-.012 5.39 3.93-2.097 6.273 5.375-3.906 5.379 3.914zM309.78 157.984l-5.363-3.875 2.059-6.339-5.403 3.937-5.344-3.922 2.067 6.305-5.379 3.89 6.676.012 1.984 6.309 2.055-6.317h6.648zM309.776 119.035l-6.617.016-2.062-6.34-2.051 6.359-6.633-.031 5.375 3.887-2.059 6.312 5.403-3.918 5.316 3.942-2.055-6.317 5.383-3.91zM286.878 87.523l-5.344 3.907-5.394-3.922 2.078 6.355-5.387 3.871 6.637-.011 2.039 6.312 2.07-6.34 6.617.059-5.375-3.906 2.059-6.325z"/><path d="M237.69 106.059c0 1.16 0 3.148 2.863 3.512 1.773-.645 1.156-4.59.617-5.672-1.237.078-3.015 1.468-3.48 2.16z" fill="#d9d9d9"/><path d="M237.69 106.059c0 1.16 0 3.148 2.863 3.512 1.773-.645 1.156-4.59.617-5.672-1.237.078-3.015 1.468-3.48 2.16z" fill="none" stroke="#000" stroke-width=".111" stroke-linecap="round" stroke-linejoin="round"/><path d="M241.171 104.98c-1.934 1.004-4.41 2.863-4.18 5.879-3.402-2.398-3.633-9.359.16-10.367 1.387-.074 4.25 1.86 4.02 4.488z" fill="#d9d9d9"/><path d="M241.171 104.98c-1.934 1.004-4.41 2.863-4.18 5.879-3.402-2.398-3.633-9.359.16-10.367 1.387-.074 4.25 1.86 4.02 4.488z" fill="none" stroke="#000" stroke-width=".111" stroke-linecap="round" stroke-linejoin="round"/><path d="M239.569 111.84c1.781 1.543 5.16 1.262 6.781.336 2.941 1.695 6.109 1.93 10.207.617.777.231 2.859.539 3.637.231.465-.461.926-.774 1.391-1.082-.926-.773-1.855-2.168-2.32-3.559 0 0 .773-.926 1.082-1.395-.773-.773-2.316-2.008-3.09-2.473.465-.461.926-1.855.926-1.855-1.543-.461-3.09-1.551-3.707-2.168l.148-.93c-2.523-.152-2.422-3.242-7.887-4.172-3.711-.629-9.277.93-9.586 5.102 2.059 2.016 5.203 4.695 3.402 9.078-.469.617-1.344 1.445-1.855 1.699.309.364.512.415.871.571z" fill="#7d76b6"/><path d="M239.569 111.84c1.781 1.543 5.16 1.262 6.781.336 2.941 1.695 6.109 1.93 10.207.617.777.231 2.859.539 3.637.231.465-.461.926-.774 1.391-1.082-.926-.773-1.855-2.168-2.32-3.559 0 0 .773-.926 1.082-1.395-.773-.773-2.316-2.008-3.09-2.473.465-.461.926-1.855.926-1.855-1.543-.461-3.09-1.551-3.707-2.168l.148-.93c-2.523-.152-2.422-3.242-7.887-4.172-3.711-.629-9.277.93-9.586 5.102 2.059 2.016 5.203 4.695 3.402 9.078-.469.617-1.344 1.445-1.855 1.699.309.364.512.415.871.571z" fill="none" stroke="#000" stroke-width=".111" stroke-linecap="round" stroke-linejoin="round"/><path d="M254.679 157.359c1.344 5.676 4.848 16.293 5.773 18.668.926 2.371 2.266 7.215 5.262 8.043 1.34.719 3.191.203 2.367-5.98.93-.211 1.137-2.582.93-4.23-.207-1.648-.723-7.836-.824-12.785-.106-4.95-13.61-12.684-13.508-3.716z" fill="#00693f"/><path d="M254.679 157.359c1.344 5.676 4.848 16.293 5.773 18.668.926 2.371 2.266 7.215 5.262 8.043 1.34.719 3.191.203 2.367-5.98.93-.211 1.137-2.582.93-4.23-.207-1.648-.723-7.836-.824-12.785-.106-4.95-13.61-12.684-13.508-3.716zm8.578 3.012c-.074 1.703 1.578 9.262 1.734 10.27.152 1.004.695 7.215 3.09 7.449m-.156 5.156c-.531.785-2.004.922-2.934-.934-.934-1.855-2.863-8.504-3.637-12.527-.773-4.023-2.477-11.367-3.152-14.516" fill="none" stroke="#000" stroke-width=".111" stroke-linecap="round" stroke-linejoin="round"/><path d="M242.097 146.434c-.516 3.711.414 10.926 2.164 13.715l8.148 1.855c.824-.516 1.754-1.758 2.066-2.781 1.957-.625 3.5-2.172 4.016-5.16-2.367-5.672-10.824-13.2-16.394-7.629z" fill="#00693f"/><path d="M242.097 146.434c-.516 3.711.414 10.926 2.164 13.715l8.148 1.855c.824-.516 1.754-1.758 2.066-2.781 1.957-.625 3.5-2.172 4.016-5.16-2.367-5.672-10.824-13.2-16.394-7.629z" fill="none" stroke="#000" stroke-width=".111" stroke-linecap="round" stroke-linejoin="round"/><path d="M260.194 113.023c.152 1.234.926 2.473 1.855 3.246-.617.465-.93 1.086-1.082 1.551-3.402 2.938-11.289 23.351-11.445 27.84-.539 2.394-1.621 6.184-2.551 7.809-5.262-4.719-10.676-13.535-9.77-17.5-.312-.055-.773-.105-1.289-.262.102-.359.305-2.164.359-3.246-.309 0-.875 0-1.34-.156.102-.672.309-2.629.309-3.504-.516-.156-1.133-.672-1.602-1.188.363-.93 1.293-2.73 1.758-3.816-.777-.105-1.344-.875-1.602-1.34.672-.41 1.547-1.598 1.906-2.316-.566-.465-1.234-1.137-1.34-1.445.723-.672 2.84-2.992 3.762-4.281-.562 0-.769-.055-1.234-.156.773-.309 1.648-1.441 2.68-2.418 1.781 1.543 5.16 1.262 6.781.336 2.941 1.695 6.109 1.93 10.207.617.779.229 2.861.538 3.638.229z" fill="#7d76b6"/><path d="M260.194 113.023c.152 1.234.926 2.473 1.855 3.246-.617.465-.93 1.086-1.082 1.551-3.402 2.938-11.289 23.351-11.445 27.84-.539 2.394-1.621 6.184-2.551 7.809-5.262-4.719-10.676-13.535-9.77-17.5-.312-.055-.773-.105-1.289-.262.102-.359.305-2.164.359-3.246-.309 0-.875 0-1.34-.156.102-.672.309-2.629.309-3.504-.516-.156-1.133-.672-1.602-1.188.363-.93 1.293-2.73 1.758-3.816-.777-.105-1.344-.875-1.602-1.34.672-.41 1.547-1.598 1.906-2.316-.566-.465-1.234-1.137-1.34-1.445.723-.672 2.84-2.992 3.762-4.281-.562 0-.769-.055-1.234-.156.773-.309 1.648-1.441 2.68-2.418 1.781 1.543 5.16 1.262 6.781.336 2.941 1.695 6.109 1.93 10.207.617.779.229 2.861.538 3.638.229z" fill="none" stroke="#000" stroke-width=".111" stroke-linecap="round" stroke-linejoin="round"/><path d="M271.952 169.168c.617-21.809-3.094-41.758-8.82-49.027-5.719-7.273-16.23-5.652-19.18.617-1.238 2.629-1.41 8.902-.152 11.598 2.168 4.645 10.516 19.336 16.238 24.906 5.723 5.566 9.742 9.277 11.914 11.906z" fill="#00693f"/><path d="M271.952 169.168c.617-21.809-3.094-41.758-8.82-49.027-5.719-7.273-16.23-5.652-19.18.617-1.238 2.629-1.41 8.902-.152 11.598 2.168 4.645 10.516 19.336 16.238 24.906 5.723 5.566 9.742 9.277 11.914 11.906z" fill="none" stroke="#000" stroke-width=".111" stroke-linecap="round" stroke-linejoin="round"/><path d="M263.339 163.961c-1.648.203-3.609-.207-5.156-.926-1.543-.723-2.887-1.445-4.535-1.445-1.648 0-10.625-.617-12.066-1.133-1.441-.516-5.465-1.234-7.113-1.137-1.648.105-4.227 1.238-5.258 1.238-1.031 0-1.551.824-1.551 1.648 0 .828.211 2.371 1.445 3.199 2.168-.109 5.258-.312 5.668-.727 2.996.824 7.016 1.652 9.488 1.754 2.477.105 6.91.312 8.559.207 1.656-.102 1.961-.617 4.125.105 2.168.723 5.055 2.27 6.395 2.684 1.344.41 2.164-.93 2.477-2.375.307-1.444-.72-3.194-2.478-3.092z" fill="#ffd420"/><path d="M263.339 163.961c-1.648.203-3.609-.207-5.156-.926-1.543-.723-2.887-1.445-4.535-1.445-1.648 0-10.625-.617-12.066-1.133-1.441-.516-5.465-1.234-7.113-1.137-1.648.105-4.227 1.238-5.258 1.238-1.031 0-1.551.824-1.551 1.648 0 .828.211 2.371 1.445 3.199 2.168-.109 5.258-.312 5.668-.727 2.996.824 7.016 1.652 9.488 1.754 2.477.105 6.91.312 8.559.207 1.656-.102 1.961-.617 4.125.105 2.168.723 5.055 2.27 6.395 2.684 1.344.41 2.164-.93 2.477-2.375.307-1.444-.72-3.194-2.478-3.092z" fill="none" stroke="#000" stroke-width=".111" stroke-linecap="round" stroke-linejoin="round"/><path d="M263.339 169.43c1.344.41 2.164-.93 2.477-2.375.309-1.445-.719-3.195-2.477-3.094-1.289.258-2.965 3.48 0 5.469z" fill="#ffd420"/><path d="M263.339 169.43c1.344.41 2.164-.93 2.477-2.375.309-1.445-.719-3.195-2.477-3.094-1.289.258-2.965 3.48 0 5.469z" fill="none" stroke="#000" stroke-width=".111" stroke-linecap="round" stroke-linejoin="round"/><path d="M245.913 159.32c-1.754-1.441-4.809-.074-5.258 3.402-.41 3.199 1.234 5.465 3.605 5.363-.515-1.753-.101-8.042 1.653-8.765z" fill="#d9d9d9"/><path d="M245.913 159.32c-1.754-1.441-4.809-.074-5.258 3.402-.41 3.199 1.234 5.465 3.605 5.363-.515-1.753-.101-8.042 1.653-8.765z" fill="none" stroke="#000" stroke-width=".111" stroke-linecap="round" stroke-linejoin="round"/><path d="M248.597 159.32c-1.648-1.34-3.785-.012-4.75 1.238-1.336 1.754-1.234 5.051-.41 6.699.824 1.652 3.301 1.035 3.816.211-.305-1.652 0-7.113 1.344-8.148z" fill="#d9d9d9"/><path d="M248.597 159.32c-1.648-1.34-3.785-.012-4.75 1.238-1.336 1.754-1.234 5.051-.41 6.699.824 1.652 3.301 1.035 3.816.211-.305-1.652 0-7.113 1.344-8.148z" fill="none" stroke="#000" stroke-width=".111" stroke-linecap="round" stroke-linejoin="round"/><path d="M251.843 160.582c-1.16-1.934-4.383-1.359-5.414.078-1.027 1.445-1.238 4.539 0 6.086 1.238 1.547 2.574 1.34 3.711.512-.309-1.442.156-5.125 1.703-6.676z" fill="#d9d9d9"/><path d="M251.843 160.582c-1.16-1.934-4.383-1.359-5.414.078-1.027 1.445-1.238 4.539 0 6.086 1.238 1.547 2.574 1.34 3.711.512-.309-1.442.156-5.125 1.703-6.676z" fill="none" stroke="#000" stroke-width=".111" stroke-linecap="round" stroke-linejoin="round"/><path d="M253.749 161.488c-1.133-1.961-3.273-1.102-4.121.102-1.238 1.754-1.133 5.773 1.543 6.395 1.352.312 2.375-.828 2.785-1.344-1.027-.102-2.062-1.234-2.062-2.164-.001-.926.105-2.782 1.855-2.989z" fill="#d9d9d9"/><path d="M253.749 161.488c-1.133-1.961-3.273-1.102-4.121.102-1.238 1.754-1.133 5.773 1.543 6.395 1.352.312 2.375-.828 2.785-1.344-1.027-.102-2.062-1.234-2.062-2.164-.001-.926.105-2.782 1.855-2.989z" fill="none" stroke="#000" stroke-width=".111" stroke-linecap="round" stroke-linejoin="round"/><path d="M244.569 98.945c-2.781 0-2.703 4.18 0 4.18 2.711 0 2.789-4.18 0-4.18z" fill="#ffd420"/><path d="M244.569 98.945c-2.781 0-2.703 4.18 0 4.18 2.711 0 2.789-4.18 0-4.18z" fill="none" stroke="#000" stroke-width=".111" stroke-linecap="round" stroke-linejoin="round"/><path d="M244.569 100.516c-.691 0-.676 1.043 0 1.043.684 0 .699-1.043 0-1.043z"/><path d="M260.038 157.262c-5.723-5.57-14.07-20.262-16.238-24.906 1.703 6.496 3.402 16.859 16.238 24.906z" fill="#ec174c"/><path d="M260.038 157.262c-5.723-5.57-14.07-20.262-16.238-24.906 1.703 6.496 3.402 16.859 16.238 24.906zm-5.562-56.77c-1.344 1.859-2.477 2.531-2.996 2.734-.309.828-1.238 1.855-2.266 2.27m-.414-3.816c.617.312.828-.309.93-.719m-5.258 5.359c.719.207 1.234-.312 1.547-.723m5.152-4.738c.309-.211.93 0 1.34.102m-9.18 9.125c1.164.543 3.254-.387 4.027-1.004 2.09.309 5.258-.469 6.188-1.781.93-1.316 2.477-.852 3.711-2.785m-5.031 6.652c1.32.152 2.785-.309 3.406-1.082.617-.777 1.855-1.859 3.633-1.703m-21.141 6.031c.934 0 1.27.465 1.887.926.617.465 2.242 0 2.859.695.617.699 1.316 1.32 2.164 1.164m-9.332 2.942c.777.152 2.453-.082 2.996-.312.77.465 2.242.852 2.938.543m-6.239 3.425c.848 0 1.828-.023 2.523-.488.777.465 2.477.77 3.25.383m9.665-4.712c-1.234 1.469-2.008 4.02.852 5.953 1.777-.699 3.168-2.707 2.086-6.031m-7.212-1.336c-.23 1.699 1.25 3.676 3.262 3.367m-4.633 1.911c.699 2.859 3.559 6.031 6.496 2.09m.758-.395c.309 1.465.957 3.258 2.871 3.516 2.715.359 2.637-5.055 1.711-7.996m-3.207-1.016c1.348 1.559 4.598 2.102 5.133-2.379m-1.777 9.582c2.168 2.09 8.125-.926 1.594-8.582m-10.868 10.672c1.93 1.391 3.93 2.398 5.707-1.156m-10.59 1.695c2.316 2.398 4.184 2.766 6.043.211m-2.324 1.73c.855 1.547 2.012 2.855 3.25 3.473 1.234.621 2.086-.23 2.238-1.312.16-1.086-.109-2.469-.418-3.629m.266 3.472c1.238.695 4.024.926 4.797-1.395 1.391 1.082 3.016 1.934 4.176.465m.121-10.566c1.031 2.375 3.098 8.199 3 10.156 1.648 3.297 2.062 5.773 1.855 7.629 1.336 1.961 2.059 5.672 1.441 7.426m-32.222-17.734c.566-.102 1.598-.359 1.961-.621.359-.258.617-.051 1.184.262.566.305 1.445.102 2.527-.621m-4.641 4.64c.617-.055 2.062-.52 2.629-.828m-1.699 4.336c1.547-.207 3.195-2.117 4.535-1.551m-.156 4.59c.977.309 2.141-1.75 3.5-1.723m15.133-10.738c.516 1.188.906 4.672.703 5.5-.211.824.102 1.035.926.879.824-.16 1.91-.93 2.324-1.445m-2.477 3.144c-.57 2.578-.207 5.055.309 6.035.516.977 2.629.41 4.023-1.551m-14.332-4.984c-.051 1.285 1.129 4.008 2.16 5.086 1.035 1.082 2.426 1.395 3.047 0 .617-1.391.566-4.273-.758-6.629m1.133 4.203c.773.465 2.945.519 4.133.262m-5.906 3.09c1.242 3.047 3.93 4.816 6.816.848m-11.949.617c1.137 1.133 3.688 1.477 5.391-.895m-2.883-2.91c-.25.828-2.418 2.684-4.688 2.684m3.45 5.648c2.273 1.137 5.52 1.023 4.824-4.285m-13.949 3.558c1.133-.824 2.773-1.332 3.809-.918m10.234-1.254c.105 2.68 1.734 9.391 5.238 12.48 3.508 3.094 8.227 7.215 10.188 12.367m.035-3.815c-.207-4.328-4.242-8.449-6.715-10.609-2.477-2.168-5.168-7.121-3.828-11.66.012 1.965 2.383 4.957 4.137 6.5 1.75 1.547 6.023 6.086 6.215 7.938m-8.696-15.318c-.207 1.234 1.449 3.465 3.305 4.805 1.855 1.336 5.023 4.434 5.121 6.281m-17.078 7.024c-1.32-1.012-2.176-4.594-1.176-7.301m-2.387-2.711c-1.234 2.09-1.035 3.707-1.082 4.801-.078 1.699 1.258 2.938 3.035.387m-5.68-1.337c.309.848.715 2.492.715 3.344.77-.387 1.699-.777 2.316-.934m-2.316.934c.23.465.383 1.473.383 2.398m-3.883-7.949c-.465 1.547-.781 3.738 1.488 5.086m1.477-2.32c-.543.695-1.246 1.703-1.246 2.477.074.926 0 1.945.387 2.715m4.738-3.001c-.539 1.086-.812 2.469-.738 3.395m-2.219-9.031c.156.848.449 1.902 1.688 1.512m-7.93-.204c.102.719.465 1.445 2.012 1.547" fill="none" stroke="#000" stroke-width=".111" stroke-linecap="round" stroke-linejoin="round"/><path d="M232.093 159.832c.465-.195 1.344-.352 1.73-.43-.184.844 0 1.387-.695 1.465-.695.078-.723-.308-1.035-1.035z"/><path d="M232.093 159.832c.465-.195 1.344-.352 1.73-.43-.184.844 0 1.387-.695 1.465-.695.078-.723-.308-1.035-1.035z" fill="none" stroke="#000" stroke-width=".111" stroke-linecap="round" stroke-linejoin="round"/><path d="M235.726 164.938c.781.172.031.137-.953-.258-.203.188-.68.266-.832.289.215-1.109.055-1.496 1.145-1.523.975-.024.515.206.64 1.492z"/><path d="M235.726 164.938c.781.172.031.137-.953-.258-.203.188-.68.266-.832.289.215-1.109.055-1.496 1.145-1.523.975-.024.515.206.64 1.492z" fill="none" stroke="#000" stroke-width=".111" stroke-linecap="round" stroke-linejoin="round"/></g></svg>