<svg xmlns="http://www.w3.org/2000/svg" viewBox="0 0 500 277.8"><defs><style>.cls-1,.cls-29,.cls-31,.cls-9{fill:#ce1126}.cls-10,.cls-2{fill:#002d62}.cls-17,.cls-3{fill:#fff}.cls-26,.cls-33,.cls-34,.cls-6,.cls-7{fill:none}.cls-10,.cls-17,.cls-29,.cls-31,.cls-33,.cls-34,.cls-6,.cls-7,.cls-8,.cls-9{stroke:#000}.cls-20,.cls-8{fill:#eac102}.cls-6{stroke-width:.26px}.cls-7{stroke-width:.32px}.cls-8{stroke-width:.06px}.cls-10,.cls-9{stroke-width:.24px}.cls-17{stroke-width:.15px}.cls-21{fill:#006300}.cls-22{fill:#ff0}.cls-24{fill:#008f4c}.cls-26,.cls-27{stroke:#006300}.cls-26{stroke-width:.63px}.cls-27{fill:red;stroke-width:2px}.cls-28{fill:#00863d}.cls-29{stroke-width:.27px}.cls-31,.cls-33{stroke-width:.22px}.cls-34{stroke-width:.21px}</style></defs><g id="Layer_2" data-name="Layer 2"><g id="DOM"><path class="cls-1" d="M250 138.9V0h250v138.9H250zM250 138.9v138.9H0V138.9h250z"/><path class="cls-2" d="M250 138.9V0H0v138.9h250zM250 138.9v138.9h250V138.9H250z"/><path class="cls-3" d="M281.3 277.8V166.7H500v-55.6H281.3V0h-62.6v111.1H0v55.6h218.7v111.1h62.6z"/><path class="cls-3" d="M238 127.5v19.4c0 1.8 0 2.8.8 3.9a5.2 5.2 0 0 0 2.9 2 44 44 0 0 0 4.7.1c2.2-.1 2.5.4 3.3 1.5 1-1.5 2-1.6 4-1.5a27.9 27.9 0 0 0 4-.1 4.5 4.5 0 0 0 2.6-1.6c1.1-1.3 1.1-2.9 1.1-4.6v-18.4c0-.8-.1-.6.3-1.1l2.8-2.9h-29.6l3.1 3.2z"/><path class="cls-2" d="M247.2 136.1v-11.9H235l3 3.2v8.7z"/><path class="cls-1" d="M252.1 136.1v-11.9h12.4l-3.2 3.4v8.5zM247.2 141H238v7.5a4.7 4.7 0 0 0 5 4.4h4.3z"/><path class="cls-2" d="M252.1 141h9.3v7.5c-.2 3.2-2.8 4.4-5 4.4h-4.3z"/><path d="M238 127.5v19.4c0 1.8 0 2.8.9 4a4.4 4.4 0 0 0 2.9 1.9 44 44 0 0 0 4.7.1c1.3 0 1.9-.1 2.7.8l.5.7.2-.2a2.5 2.5 0 0 1 1.3-1.1 8 8 0 0 1 2.6-.2 27.9 27.9 0 0 0 4-.1 5.1 5.1 0 0 0 2.6-1.6c1.1-1.3 1.1-2.9 1.1-4.6v-18.4c0-.8-.1-.6.3-1.1l2.8-2.9H235l3.1 3.2z" stroke-width=".45" stroke="#000" fill="none"/><path d="M249.2 127.2v1.3h-1.3v1.1h1.3v4.7h1.1v-4.7h1.4v-1.1h-1.4v-1.3z" stroke-width=".27" fill="#eac102" stroke="#000"/><g id="h"><path class="cls-3" d="M241.5 128.9v2.2l-.9-.9v15.3a3.7 3.7 0 1 0 7.3 0v-7.9l-1-1v-.8z"/><path class="cls-2" d="M241.5 129v2.2l-.9-.9v8.7l3.9 3.8v-9.9z"/><path class="cls-1" d="M245.8 134.4l1.2 1.5v.5l-1.2-1.2zM247.9 137.7v5.5a1.3 1.3 0 0 1-1.7.5v-7.6z"/><path class="cls-2" d="M248.1 145.9c-1.5 1.1-1.9-.5-1.9-.5a2.1 2.1 0 0 0 1.9-1.4z"/><path class="cls-1" d="M240.7 141.2a25.5 25.5 0 0 0 3.8 3.6c.5 3.7 2.6 2.5 3.4 1.9a3.8 3.8 0 0 1-3.5 3 3.9 3.9 0 0 1-3.7-4.1z"/><path class="cls-6" d="M246.9 136.4v-.6l-5.4-6.9v1.9z"/><path class="cls-7" d="M240.6 130.2v15.3a3.7 3.7 0 1 0 7.3.1v-7.9z"/><path class="cls-8" d="M243.6 127.6c-.4-.7-.3-1 0-1.3l-1.4-1.4.4 2c.4-.1.7 0 1.1.7zM242.1 124.8l1.4 2.7"/><path class="cls-8" d="M249.3 136.9h-.4l-5.7-9.8.3-.2z"/><path class="cls-8" d="M243 127.2c0-.1.1-.2.2-.3h.4c0 .1-.1.2-.2.3h-.4zM241.1 128c-.5-.6-.4-1-.2-1.2l-1.6-1.2.6 1.9c.4-.2.7-.1 1.1.5zM239.3 125.5l1.8 2.5"/><path class="cls-8" d="M247.9 136.5l-.3.2-6.9-8.9.3-.2z"/><path class="cls-8" d="M240.5 127.8c-.1-.1 0-.2.2-.4h.4c.1.1 0 .2-.2.4zM240.7 130c-.5-.6-.5-.9-.3-1.2l-1.7-1.1.9 1.9c.4-.2.7-.2 1.2.4zM238.7 127.7l2 2.3"/><path class="cls-8" d="M248.1 137.9l-7.8-8.1.3-.3 7.9 8.1z"/><path class="cls-8" d="M240.1 129.8c-.1-.1 0-.2.1-.4h.4c.1.1 0 .2-.1.4z"/></g><g id="h-2" data-name="h"><path class="cls-3" d="M258 128.9v2.2l.9-.9v15.3a3.7 3.7 0 1 1-7.3 0v-7.9l1-1v-.8z"/><path class="cls-2" d="M258 129v2.2l.9-.9v8.7l-3.9 3.8v-9.9z"/><path class="cls-1" d="M253.8 134.4l-1.2 1.5v.5l1.2-1.2zM251.6 137.7v5.5a1.3 1.3 0 0 0 1.7.5v-7.6z"/><path class="cls-2" d="M251.5 145.9c1.5 1.1 1.9-.5 1.9-.5a2.1 2.1 0 0 1-1.9-1.4z"/><path class="cls-1" d="M258.8 141.2a25.5 25.5 0 0 1-3.8 3.6c-.5 3.7-2.6 2.5-3.4 1.9a3.8 3.8 0 0 0 3.5 3 3.9 3.9 0 0 0 3.7-4.1z"/><path class="cls-6" d="M252.6 136.4v-.6l5.4-6.9v1.9z"/><path class="cls-7" d="M258.9 130.2v15.3a3.7 3.7 0 1 1-7.3.1v-7.9z"/><path class="cls-8" d="M256 127.6c.4-.7.3-1 0-1.3l1.4-1.4-.4 2c-.4-.1-.7 0-1.1.7zM257.4 124.8l-1.4 2.7"/><path class="cls-8" d="M250.3 136.9h.4l5.7-9.8-.3-.2z"/><path class="cls-8" d="M256.5 127.2c0-.1-.1-.2-.2-.3h-.4c0 .1.1.2.2.3h.4zM258.4 128c.5-.6.4-1 .2-1.2l1.6-1.2-.6 1.9c-.4-.2-.7-.1-1.1.5zM260.2 125.5l-1.8 2.5"/><path class="cls-8" d="M251.6 136.5l.3.2 6.9-8.9-.3-.2z"/><path class="cls-8" d="M259 127.8c.1-.1 0-.2-.2-.4h-.4c-.1.1 0 .2.2.4zM258.8 130c.5-.6.5-.9.3-1.2l1.7-1.1-.9 1.9c-.4-.2-.7-.2-1.2.4zM260.9 127.7l-2 2.3"/><path class="cls-8" d="M251.4 137.9l7.8-8.1-.3-.3-7.9 8.1z"/><path class="cls-8" d="M259.5 129.8c.1-.1 0-.2-.1-.4h-.4c-.1.1 0 .2.1.4z"/></g><path class="cls-9" d="M248.6 143.5l-.3 4.8c-.3 0-.9-.1-.9-.5s.6-4.2.6-4.6l.6.2z"/><path class="cls-10" d="M248.2 143.3a13 13 0 0 0-.1 1.5c.1.5.7.4 1 .4v-2.5l-.9.6z"/><path class="cls-10" d="M248.2 149.5c.8-1 2.3-.3 2.3-.3 1.6.4 1.2-1.5 1.2-1.5-.3-3.7-.7-6.3-.7-6.3l-2.4 1.6z"/><path d="M248.2 149.5c-.2 1.1.9.9.9.9l.9-1.4-1.9.5z" stroke-width=".19" stroke="#000" fill="#002d62"/><path class="cls-9" d="M249.2 142.6c-.1 3.9-.1 4.3-.1 4.3l1.2.5a1 1 0 0 1 .6 0V146c1.9-.1 1.5-1.3 1.5-1.3a19.4 19.4 0 0 0-.8-3.5z"/><path d="M250.8 146a2.5 2.5 0 0 0-1.7.5" stroke-width=".23" stroke="#000" fill="none"/><path d="M250.7 149.2l-.4-7.3.8-.6.7 6.8a.9.9 0 0 1-1.1 1z" stroke-width=".21" stroke="#000" fill="#fff"/><path d="M244.6 137.6l3.2 6 7-4.6-3.6-5.4z" stroke-width=".04" stroke="#000"/><path d="M244.7 137.5l6.6-3.8 3.6 5.2-7 4.5z" stroke-width=".27" stroke="#000" fill="#fff"/><path d="M248 143l6.6-4.2-.5-.8-3.3-4.5-2.4 1.9-3 1.7-.5-.3v.7z" stroke-width=".04" stroke="#000"/><path class="cls-17" d="M248.4 135.5c-1-.5-2.1 1-2.4 1.3s-1 .1-1 .1l3 5.3c.9.3 1.4-.8 1.8-1.1a2.5 2.5 0 0 1 1.6-.6z"/><path class="cls-17" d="M248.4 135.5c0-1.1 1.4-1.5 1.8-1.7s.5-.9.5-.9l3.3 5.1c-.1 1-1.2 1.1-1.7 1.4a1.8 1.8 0 0 0-1 1.2z"/><path d="M247.8 142.2l-2.9-5.3v.6a61.4 61.4 0 0 1 3.1 5.5z" stroke-width=".1" stroke="#000" fill="#fff"/><path d="M245.8 137.6h.2-.1v-.2zM246 137.5v.2zM246.3 137.3h.1a.1.1 0 0 1 0 .1v-.1h-.2a.1.1 0 0 1 0-.1h.1z"/><path d="M246.5 137.4h-.1a.1.1 0 0 1 0-.1h.1zm0 0zM246.6 137.2zM246.7 137zM246.9 137zm0 0v.1zM246.1 138h.2-.1zM246.4 138.1zM246.6 137.9h-.1a.1.1 0 0 1 0-.1h.1zm0 0zM246.6 137.7zM246.9 137.6h-.1a.1.1 0 0 1 0-.1h.1zm0 0v.1zm.1.2zM247.1 137.5zm0 0zM247.1 137.3v.2h-.1zM247.1 137.3zm.1.1zM247.3 137.3zm0 0v.1zM246.4 138.4h.1a.1.1 0 0 1 0 .1v-.1h-.2a.1.1 0 0 1 0-.1h.1zM246.6 138.4zm0 0zM246.7 138.3h-.1a.1.1 0 0 1 0-.1h.1zm0 0v.1zm.1.2zM246.9 138.1zM247 138.1zM247.3 137.8h.1a.1.1 0 0 1 0 .1v-.1h-.2a.1.1 0 0 1 0-.1h.1zM247.6 137.9h-.1a.1.1 0 0 1 0-.1h.1zm0 0zM247.6 137.7zM247.8 137.5zM248.1 137.4zM248.3 137.4h-.1a.1.1 0 0 1 0-.1h.1zm0 0zM248.4 137.2zM247.1 139.5a.1.1 0 0 1-.1-.2h.1zM247.3 139.5h-.1v-.2h.1zm0 0zM247.5 139.4v-.2h.1a.1.1 0 0 1 0 .1h-.1zm0 0zM247.8 139.3h-.1v-.2h.2z"/><path d="M247.8 139h-.1v.2-.2h.1zM248 138.9h.1v.1h-.1.2a.1.1 0 0 0 0-.1h-.2zM248.3 138.9h-.1.1a.1.1 0 0 0 0-.1zM248.4 138.6a.1.1 0 0 1 0-.1h.1zm0 0zM248.8 138.4v.2-.2zM249 138.5v-.2h.2z"/><path d="M249.2 138.4h-.1v-.2h.2z"/><path d="M249.3 138.4h-.1v-.2h.2zM247.4 140.3h.2a.1.1 0 0 1 0 .1.1.1 0 0 0 0-.1h-.1a.1.1 0 0 0 0-.1h-.1z"/><path d="M247.6 140.2v.2h-.2zM247.9 140h.1-.1zM248.3 140h-.1a.1.1 0 0 1 0-.1v.2zm0 0h-.1a.1.1 0 0 0 0 .1h.1zM248.3 139.9h.1-.1zm0 0zM248.6 139.7a.1.1 0 0 1 0 .1h.1zM248.6 139.5zm.1.1zM248.8 139.6h-.1a.1.1 0 0 1 0-.1h.1zm0 0zM248.9 139.3h.1-.1zM249.1 139.4h.1-.1zm0 0zM249.2 139.2zM249.4 139.1zM249.5 139zM249.8 139h-.1a.1.1 0 0 1 0-.1h.1zm0 0zM247.7 140.7v.2h-.1zM247.8 140.7zm0 0zM248 140.6zM248.1 140.4zm.1.1v.2a.1.1 0 0 1 0 .1h-.1zM248.3 140.4zM248.5 140.4h-.1a.1.1 0 0 1 0-.1v.2zm0 0h-.1a.1.1 0 0 0 0 .1h.1zM248.5 140.1zm.1.1zM248.7 140.1zm0 0zM248.9 140a.1.1 0 0 1 0-.1h.1zM249.1 139.9v.2h-.1zm0 .1zM249.3 139.8zM249.4 139.8h.1-.1zm0 0zM249.5 139.5v.2h-.1zM249.7 139.6h.1-.1zm0 0zM247.9 141.1h.1-.1zM248.2 141.2h-.1a.1.1 0 0 1 0-.1h.1zm0 0zM248.3 141h.1zm0 0zM248.4 140.8zm.1.1zM248.6 140.9h-.1a.1.1 0 0 1 0-.1h.1zm0 0zM248.7 140.8h.1-.1zM249 140.6a.1.1 0 0 1 0 .1h.1zM249 140.5zM249.2 140.5h.1-.1zm0 0zM249.2 140.2zm.1.1zM249.5 140.4h-.1a.1.1 0 0 1 0-.1v.2zm0 0h-.1a.1.1 0 0 0 0 .1h.1zM249.6 140.1zm0 0zM249.1 135.7h-.1a.1.1 0 0 1 0-.1h.1zM249.1 135.7zm.1.1zM249.3 135.7h.2-.1zM249.5 135.5zm0 0v.1zM249.7 135.4zM249.7 135.4zm0 0v.1zM249.8 135.3a.1.1 0 0 0 0-.1zM249.9 135.3zM250 135.2zm0 0v.1zM250.2 135.1zM249.2 136.2h.1-.1zm.1 0h.1a.1.1 0 0 0 0-.1h-.1zM249.4 136.1h.1-.1zm0 0zM249.5 136zM249.6 136zM249.9 135.9h-.1v-.1h.1zm0 0zM250 135.8h.1-.1zM250.1 135.7h.1-.1zm0 0zM250.3 135.6a.1.1 0 0 1 0 .1zM250.3 135.5h.1-.1zm0 0zM250.4 135.4zM250.6 135.4h.1-.1zm0 0zM250.6 135.2zm.1.1zM250.8 135.2zM249.5 136.6h.1-.1zm0 0zM249.6 136.5h.1-.1zM249.8 136.3zM250 136.1zm.1.1zM250.1 136.1h.1-.1zm.1 0h.1a.1.1 0 0 0 0-.1h-.1zM250.4 136.1zm0 0z"/><path d="M250.4 135.9v.2h-.1zM250.6 136zm0 0zM250.6 135.8zm0 0zM250.8 135.7zM251 135.7zm0 0zM249.7 136.9zM249.8 136.9h.1-.1zm0 0zM249.9 136.7zM250 136.7h.1-.1zm0 0zM250.1 136.5zm.1.1zM250.2 136.5zM250.3 136.5h.2-.1zM250.5 136.4h.1-.1zm0 0zM250.6 136.3zM250.8 136.3h-.1a.1.1 0 0 1 0-.1v.2zm0 0h-.1a.1.1 0 0 0 0 .1h.1zM251 136.2zm0 0zM251.1 136.1h-.1a.1.1 0 0 1 0-.1v.2zm0 0h-.1a.1.1 0 0 0 0 .1h.1zM251.1 136h.1-.1zm0 0zM251.3 135.9zM251.4 135.9zm0 0zM251.5 135.8zM251.7 135.7h.1-.1zm0 0zM251.8 135.6h.1-.1zM251.9 135.4a.1.1 0 0 0 0-.1zM252 135.4h.1-.1zm0 0zM249.9 137.3zM250.1 137zm.1.1zM250.2 137zM250.5 137h-.1a.1.1 0 0 1 0-.1v.2zm0 0h-.1a.1.1 0 0 0 0 .1h.1zM250.5 136.8zm.1.1zM250.6 136.8zM250.8 136.8a.1.1 0 0 1 0 .1zM250.8 136.6zm.1.1zM250.8 136.6h.1-.1zm.1 0h.1a.1.1 0 0 0 0-.1h-.1zM251 136.4zm.1.1z"/><path d="M251.1 136.4v.2h-.1zM251.2 136.4zm0 0v.1zM251.4 136.3zM250.5 138.3h.2a.1.1 0 0 1 0 .1h-.1zM250.8 138.3h-.1a.3.3 0 0 0 0-.1h-.1a.1.1 0 0 1 0-.1h.2zM250.9 138.3zM251 138v-.1zM251.4 137.9a.1.1 0 0 1 0 .1zM251.4 137.8zm0 0v.1zM251.5 137.8h.1-.1zM251.7 137.6zm0 0v.1zM251.9 137.6a.1.1 0 0 1 0 .1zM251.9 137.5h.1-.1zm0 0zM252 137.4zM252.1 137.4h.1-.1zm0 0zM252.2 137.2zm.1.1zM252.4 137.2zM252.5 137v.2h-.1zM252.7 137.1h-.1v-.1h.1zm0 0zM250.7 138.7h.2-.1zM250.9 138.7h.1-.1zm0 0zM251 138.5zM251.2 138.5h-.1a.1.1 0 0 1 0-.1v.2zm0 0h-.1a.1.1 0 0 0 0 .1h.1zM251.4 138.5zm0 0zM251.5 138.4h-.1a.1.1 0 0 1 0-.1v.2zm0 0h-.1a.1.1 0 0 0 0 .1h.1zM251.6 138.4v-.1a.1.1 0 0 1 0 .1zM251.6 138.2zM251.8 137.9v.2h-.1zM252 138zm0 0zM252.1 137.9h.2-.1zM252.3 137.8h.1-.1zm0 0zM252.4 137.6zM252.6 137.7h-.1a.1.1 0 0 1 0-.1v.2zm0 0h-.1a.1.1 0 0 0 0 .1h.1zM252.7 137.6zm0 0zM252.9 137.5h-.1a.1.1 0 0 1 0-.1v.2zm0 0h-.1a.1.1 0 0 0 0 .1h.1zM253 137.3zm0 0v.1zM253.1 137.2zM250.9 139zM251.2 139zm0 0zM251.2 138.9zM251.4 138.9zm0 0zM251.5 138.6v.2h-.1zM251.6 138.6zm.1.1zM251.7 138.6zm0 0zM251.8 138.5zM251.9 138.5h.1-.1zm0 0zM252.1 138.3zM252.2 138.4z"/><path d="M242.7 114.9a19.4 19.4 0 0 0-10.6 2.7c-1.4.9-1.8 1.2-1 2.6l-1.8.6a21.6 21.6 0 0 0-3.4 1.5 5.6 5.6 0 0 0-1.3 1.1l3-.2-.4.7c-.5.7-.8 1.3-1.3 2.1a20.3 20.3 0 0 1 2.6-1.6c2.1-1.1 5.9-1.1 7.5-3s.2-.8-.2-1.5a24.1 24.1 0 0 1 3-1c3.4-.8 5.8.1 7.4-.3s1-.4 1.1-1l-.2-1.7h5.5c0 1-.9 2.2.8 2.7s4.7-.5 7.4.3l3 1c0 .1-.2.5-.3.7a.6.6 0 0 0 .1.8l1.2.9a12.3 12.3 0 0 0 3.1 1.1 12.9 12.9 0 0 1 5.8 2.6 27.2 27.2 0 0 0-1.7-2.7l3 .2a7.5 7.5 0 0 0-3-1.9l-3.6-1.3c.3-.6.6-1.2.3-1.7s-3.5-2.2-4.3-2.4l-3.9-.8-3.7-.4c-.2-.2.3-1.2-.5-1.8a3.5 3.5 0 0 0-1.8-.6 64 64 0 0 0-9.3 0 2.7 2.7 0 0 0-1.8.6c-.6.5-.6.8-.6 1.8z" fill="#201b18"/><path class="cls-2" d="M243.5 116.9a2.3 2.3 0 0 1 1.1-.7 18.6 18.6 0 0 1 5.1-.4h3.6a4.2 4.2 0 0 1 2.7 1 17 17 0 0 0 .4-2.5c0-1-.5-1.3-1.4-1.5a31.3 31.3 0 0 0-5.5-.3 35.5 35.5 0 0 0-5.4.3 1.6 1.6 0 0 0-1.2 1.7 8.9 8.9 0 0 0 .6 2.3z"/><path class="cls-2" d="M232.7 121.7a2.6 2.6 0 0 1 1.2-1.1 19.3 19.3 0 0 1 5.2-1.9 16.7 16.7 0 0 1 4.5-.2 10.6 10.6 0 0 0 2.2 0 3.3 3.3 0 0 0 .9-.3 1.2 1.2 0 0 0 .2-.8c-.5-.4-1.9 1-3.1.5s-.5-.8-.7-1.2l-.4-1.5a19.5 19.5 0 0 0-8.4 1.6 12.6 12.6 0 0 0-3.1 1.8c-.5.5 0 1.3.3 1.7l1.2 1.3zM252.5 117.4c-.1.8.5 1 1.2 1.2s3.7-.5 6.6.1a19.7 19.7 0 0 1 3.6 1.1 13.1 13.1 0 0 1 2.3 1.2l.6.7 1.2-1.3c.3-.4.8-1.2.3-1.7a13.8 13.8 0 0 0-3.2-1.9 21.5 21.5 0 0 0-4.3-1.1l-4.2-.4s-.2 2.6-.9 2.8-2.1-.8-3.1-.6z"/><path class="cls-2" d="M263.7 120.7c-.1.4-.3.4.5 1.1s4.7 1.5 6.5 2.3a16.8 16.8 0 0 1 2.3 1.2c-.1-.2-1.1-1.8-1.4-2.2h2.6c-1.2-1.1-4.4-2.1-5.9-2.6l-1.4 1.6a.6.6 0 0 1-.7.2 3.1 3.1 0 0 1-1.2-.8 3.1 3.1 0 0 0-1.2-.8zM252.6 117.2a3.6 3.6 0 0 1 1.7.5h1c.5 0 .5-.1.7-.5s-.7-.9-1.1-1l-2-.3zM246.9 117.2l-.2-1.1c-.6-.1-3.3.4-3.1 1.2s.2.5.6.5 1.4-.6 2.7-.7zM232.9 121.8c.4.7 1.4-.6 2.1-1l.8-.4-.2-.3-1.5.7a2.2 2.2 0 0 0-1.1 1.1z"/><path class="cls-2" d="M263.7 120.4l.4.2c.9.5 2 1.9 2.4 1.4s-.7-1-1-1.1l-1.6-.7-.2.3zM235.8 120.7c.1.4.3.4-.5 1.1s-4.7 1.5-6.5 2.3a16.8 16.8 0 0 0-2.3 1.2c.1-.2 1.1-1.8 1.4-2.2h-2.6c1.2-1.1 4.4-2.1 5.9-2.6l.5.5.9 1a.6.6 0 0 0 .7.2 3.1 3.1 0 0 0 1.2-.8 3.1 3.1 0 0 1 1.2-.8z"/><path class="cls-20" d="M236.2 116.7l-.7.2c-.1 0-.3.1-.1.2s.1.2.2.3l.2.5.3.8c0 .1-.1.2.1.2l.4-.2a.8.8 0 0 0 .5-.4v-.3a.4.4 0 0 0 0-.2 1 1 0 0 0-.1-.3l-.2-.4-.4-.3h-.2zm-.1.2c.2 0 .3.1.4.3l.2.4a1.5 1.5 0 0 1 .1.7l-.2.3c-.1.1-.2 0-.2-.2v-.4l-.2-.6v-.4c0-.1.1-.2.2-.2z"/><path class="cls-20" d="M237.1 116.4v1.5c0 .1.1.2 0 .3s0 .1 0 .1h.5v-1.6-.2c0-.1-.1 0-.2 0h-.3zM238.7 115.9l-.4.2a.7.7 0 0 0-.2.5 1.4 1.4 0 0 0 0 .5 1.6 1.6 0 0 0 .3.7l.4.2h.3a.6.6 0 0 0 .4-.4 1.1 1.1 0 0 0 .1-.4 2 2 0 0 0-.1-.4l-.2-.4-.3-.3h-.4zm0 .1a.5.5 0 0 1 .3.3 3.9 3.9 0 0 1 .2.7v.3a.7.7 0 0 1 0 .4.2.2 0 0 1-.3.1l-.2-.3v-.8a1.1 1.1 0 0 1 0-.6h.2zM240 115.8v.3a.9.9 0 0 0 0 .3l.2.3.5.3.3.2a.4.4 0 0 1 0 .3h-.5l-.2-.3c0-.1-.1 0-.1.1a.7.7 0 0 0 0 .3h.8l.2-.2a.6.6 0 0 0 0-.4.6.6 0 0 0-.4-.5l-.3-.2c-.1-.1-.3-.1-.3-.3a.2.2 0 0 1 .1-.3h.3l.2.2c0 .1.2.1.1 0s.1-.2 0-.3h-.9zM246.2 113.3h-.7v.2a3.3 3.3 0 0 0 0 .5 1 1 0 0 0 0 .3 2.1 2.1 0 0 0 0 .5v.3c0 .1.1.1.1.1h.4c.1 0 0-.1 0-.1a.8.8 0 0 1-.1-.4v-.3h.4a.6.6 0 0 0 .5-.4.6.6 0 0 0-.2-.6h-.4zm0 .2c.1 0 .2.1.3.2a.9.9 0 0 1 0 .3.4.4 0 0 1-.3.3c-.1 0-.2 0-.2-.1a1.9 1.9 0 0 1 0-.4c0-.1-.1-.3 0-.4h.2zM247.7 113.2a.2.2 0 0 0-.2.2v.9a5.2 5.2 0 0 1-.2.7c0 .1-.1.1-.1.2h.3c.1 0 0-.1-.1-.2a.8.8 0 0 1 0-.3h.5a2 2 0 0 1 .1.4c0 .1-.1.2 0 .1h.4c.1 0 0-.1-.1-.2v-1.7h-.2zm-.1.4l.2.7c0 .1 0 .1-.1.1s-.3.1-.3-.1v-.7zM249.2 113.2h-.7a.5.5 0 0 1 0 .2v.2h.2l.3-.2c.1 0 .2 0 .1.1a2.3 2.3 0 0 1 0 .3v1.3h.4c.1 0 0-.1 0-.1a1 1 0 0 1 0-.3v-1.4h.3v.2h.1v-.3c0-.1 0-.2-.1-.1h-.6zM250.8 113.1h-.4s-.1 0-.1.1.1.2.1.3v1.4a.3.3 0 0 1-.1.2h.6c0-.1-.1-.1-.1-.2v-.6a.1.1 0 0 1 .2.1v.3l.2.3.2.2h.2v-.2l-.2-.4v-.3c-.1-.1.1-.1.1-.1l.2-.2a.6.6 0 0 0 0-.3v-.3l-.2-.2h-.5zm.1.2h.3v.2a1 1 0 0 1 0 .3.3.3 0 0 1-.2.2h-.3a.9.9 0 0 1 0-.2v-.5c0-.2.1-.1.2-.1zM252.2 113.5a2.1 2.1 0 0 0 0 .3 4.5 4.5 0 0 1 0 .5v1.1h.5c.1 0 0-.1 0-.1a.5.5 0 0 1 0-.3 6.2 6.2 0 0 1 0-.7 4.4 4.4 0 0 1 0-.4c0-.1 0-.2.1-.3s.1-.1 0-.1h-.5v.2zM253.6 113.4v.8l-.2.5a1.6 1.6 0 0 1-.2.6c-.1 0-.1.2 0 .1h.3c.1 0 .1-.1 0-.1a.2.2 0 0 1 0-.3.1.1 0 0 1 .2-.1h.3v.3c0 .1-.1.2 0 .2h.4c.1 0 .1 0 .1-.1a2 2 0 0 1-.1-.5c0-.2-.1-.4-.1-.5a3.9 3.9 0 0 1-.1-.5v-.3h-.3zm0 .4a1.7 1.7 0 0 1 .1.4 2.9 2.9 0 0 0 .1.4c0 .2-.2.1-.2.1s-.2 0-.1-.1v-.7zM257.2 115.8c0 .1.1.1.1.2a5.2 5.2 0 0 0 0 .6v1h1a3 3 0 0 0 .1-.4h-.1a.5.5 0 0 1-.4.3h-.2a1 1 0 0 1 0-.2V116a.6.6 0 0 1 .1-.3h-.5zM258.5 117.7h.5c0-.1-.1 0-.1-.2v-1.6c0-.1.1-.1.1-.2h-.5c0 .1.1 0 .1.2v1.6c0 .1-.1.1-.1.2zM259.3 115.7c0 .1.1.1.1.2v1.4a.9.9 0 0 1 0 .3s-.1.1 0 .1h1.1a.6.6 0 0 0 .2-.6l-.2-.2-.2-.2a.4.4 0 0 0 .3-.7h-1.1zm.5.2h.3a.4.4 0 0 1 0 .5h-.4a4.9 4.9 0 0 1 0-.5.4.4 0 0 1 .1-.2zm-.1.9l.4.2a.7.7 0 0 1 .1.4.3.3 0 0 1-.4.3.1.1 0 0 1-.1-.2 5.1 5.1 0 0 1 0-.7z"/><path class="cls-20" d="M260.6 117.9h1.1v-.3c.1-.1-.1-.1-.1 0h-.5a.2.2 0 0 1-.2-.2 3.1 3.1 0 0 1 .1-.7h.2l.2.2c.1.1.1-.1.1-.2v-.4c-.1 0-.2.2-.3.1s-.3 0-.2-.1v-.5a.4.4 0 0 1 .5.2l.2.2a1.8 1.8 0 0 0 0-.4h-.3l-.7-.2c-.1 0 0 .1 0 .2v.9c0 .2-.1.5-.1.7v.2zM262.3 116.3a.5.5 0 0 1 0 .4l-.2.9v.5c0 .1-.2.1-.1.2h.4c.1 0 0-.1 0-.2v-.4c0-.1 0-.2.1-.2s.1.2.1.2l.2.6.3.3c0-.1-.1-.2-.1-.3a1.7 1.7 0 0 1 0-.4v-.3h.3a.6.6 0 0 0 .1-.5.7.7 0 0 0-.4-.5l-.7-.2h-.1zm.4.3l.3.2a.7.7 0 0 1-.1.6h-.3c-.1 0-.2 0-.2-.2v-.7zM263.6 117.2h.5c.1.1 0 .2 0 .2v.4l-.2.9c0 .1 0 .2-.1.2s.1.1.2.1h.3c0-.1-.1-.2 0-.2l.2-.7.2-.8c.1 0 .2.1.3.2v.3c.1 0 0-.2.1-.2v-.2l-.5-.2h-.7l-.2.3a.2.2 0 0 0 0 .1zM265.5 117.6l-.2.2-.2.3-.5.8-.3.2c-.1.1.1.1.2.1h.2c0-.1-.1-.2 0-.3s.1-.2.2-.2l.3.2v.3c0 .1-.1.2-.1.2l.3.2c.1 0 .2.1.1 0a1.5 1.5 0 0 1 0-.4.9.9 0 0 0 0-.3v-1.1c0-.1.1-.2 0-.2h-.2zm-.1.4v.7c0 .1-.1 0-.2 0s-.2-.1-.1-.2l.2-.4v-.1zM266.6 118.3c0 .1 0 .3-.1.4l-.2.3-.2.4-.3.5c-.1 0-.2 0-.1.1l.3.3.3.3a.5.5 0 0 0 .6 0l.3-.3.2-.4a1.3 1.3 0 0 0 .1-.5 1.2 1.2 0 0 0-.3-.7l-.3-.3h-.1zm.3.5a.5.5 0 0 1 .2.5 1.5 1.5 0 0 1-.3.8c-.1.1-.2.3-.4.3a.3.3 0 0 1-.3-.2c-.1-.1 0-.3.1-.4l.4-.8.2-.3h.1z"/><path class="cls-21" d="M243.1 161.2l1.4.6 1 1.9a1.4 1.4 0 0 0 .8.3l-2.4 1a.5.5 0 0 0-.1 1 2.7 2.7 0 0 0 1.4-.3 27 27 0 0 0 3.4-1.8 4.9 4.9 0 0 1 1.1-.6l4.3 2.4c.3.1.9.5 1.3.3s.4-.3.3-.6-.2-.3-.4-.4l-2.3-1h.5c.2-.1-.1-.4.1-.4l1.1-1.7 1.3-.5c0-1.2-10-2-12.6-.1z"/><path class="cls-22" d="M243.8 165.3c-.4.1-.3.8.5.6s.1-.8-.5-.6zM254.5 165.3c-.1.3-.1.4.2.5s.4.1.6-.1 0-.3-.2-.4h-.6z"/><path d="M264.7 125.7s-.1 0 0 .2a12.1 12.1 0 0 1 1.3 3.3l-.5-.6-1.1-1.7-.3-.3a5.7 5.7 0 0 0 .3 1.4 16.1 16.1 0 0 0 1.9 3.5l-.5-.4c-.6-.5-.4-.4-.7-.9a11.4 11.4 0 0 1-.8-1.7l-.5-1.2h-.1a1.4 1.4 0 0 0 0 .5c.1.7.2 1.4.3 2l-1.3-.7-.3-.2h-.1c-.1.2.8 1 .9 1.1a6.7 6.7 0 0 1 1.2 1 7.9 7.9 0 0 0 1.2 2.1l.5.6-1-1-1.9-1.7c0 .2.3.5.5.6l1.3 1.5c.4.5.9 1 1.3 1.6l.8 1.4-.5-.6-1.3-1.6a9.4 9.4 0 0 0-1.5-1.4 5.2 5.2 0 0 0-1.3-.9c0 .1.2.3.3.4l1.8 1.7.7.7.6.7 1.1 1.7.5.9a26 26 0 0 1-2.7-2.7 3.1 3.1 0 0 0-1-.8 14.1 14.1 0 0 0 1.6 2l.3.3.6.6a12.8 12.8 0 0 1 1.3 1.7l.4.8-.9-1.1-.5-.6a12 12 0 0 0-1.6-1.6l-1.3-.7c-.1.1.2.3.4.4l.5.5a12.6 12.6 0 0 1 1.8 1.9l.8 1.1-.4-.4-.4-.4-.9-.7-2-1c0 .2.7.6.9.7a8.6 8.6 0 0 1 1.4 1l.4.4.8.9.7 1 .6 1.1.7 2.6c-.2-.8-.6-1.8-.9-2.6s-.8-2.2-1.6-1.9-.4.4-.6.7-.4-.1-1.1 1.2a10.1 10.1 0 0 0-.7 2.4.8.8 0 0 0 0 .4c.2-.1.3-.5.3-.7a12.8 12.8 0 0 1 1.1-2l-.6 2.7c.2 0 .3-.4.3-.6l.8-2c.9.6 1.2 4 1.3 5.2a11.9 11.9 0 0 0-.6-1.7l-.9-1.5c-.5.1-.6.7-.7 1.2s-.3-.6-.7-.5-.5.4-.5.8a4.3 4.3 0 0 0 0 1.2 8.9 8.9 0 0 0 .2.9h.1l.2-2.3a3.6 3.6 0 0 1 .9 2.3 9.5 9.5 0 0 1-1.8 4.8l-.7 1-.3.5-.4.4a13.4 13.4 0 0 0 1.3-2.7 13.6 13.6 0 0 0 .7-2.9 1.6 1.6 0 0 0 0-.5c-.1 0-.2.2-.2.4a21 21 0 0 1-2.9 6.2l.3-1.8c-.2 0-.1.1-.2.3v.4a10 10 0 0 1-.9 2l.2-.6a14.8 14.8 0 0 0 .4-1.9v-.5c-.2 0-.2.4-.3.6a12.9 12.9 0 0 1-.8 1.9v-.2a4.8 4.8 0 0 0 .1-1.4c-.2 0-.2.4-.2.5l-.2.6a16.8 16.8 0 0 1-1.4 2.8h.1l3.2.6a25.4 25.4 0 0 1 4.1 0 4.9 4.9 0 0 0 1.3.1l-1.4-.5-1.5-.4h4.2l-.4-.2a16.2 16.2 0 0 0-3.3-.4l3.8-.3c.4-.1 1.6.3 1.1-.3a6.5 6.5 0 0 0-2.6-.4h2.5c.4-.1 3 .5 2-.1a13.3 13.3 0 0 0-3-.8l1.3-.7 3-1c1.1-.2 1.9-.7.5-.5l-2.8.4.7-.4a16.8 16.8 0 0 1 2.3-.8h-.4a11 11 0 0 1 2.2-.6l1.7-.4c.2 0 .4 0 .5-.2h-.1l-3.6.5-1.1.2 2.8-1.1c.2 0 .9-.2 1-.3h-.6l-2.7.7-1 .3a15.4 15.4 0 0 1 4.8-1.4c.3-.1.6 0 .6-.3h-1.7l-1.6.2 1.2-1c.3-.3.2-.4.8-.4h1.1c-.4-.4-.6-.2-1-.4l.5-.6.3-.5v-.1h-.2l-1.3 1.1-.5.2-1.6.3 1.7-1.2.9-.5c.3-.1.9-.3.9-.5l-2 .5-1.7.9a25.6 25.6 0 0 1 3.3-2.9c.1-.1.4-.3.5-.4h-.2a10.6 10.6 0 0 0-2.2 1.2l-2.1 1.5 1.2-1.1.3-.3.3-.3.6-.5 1.2-1.1.6-.5c.1-.1.6-.4.6-.6l-2.5 1.6-1.2.8-1.2.9a14.6 14.6 0 0 1 1.6-2.3 25.6 25.6 0 0 1 2.6-2.5l.7-.6a3.3 3.3 0 0 0-1 .6 21.7 21.7 0 0 0-2.7 2.3l-.4.4a9.4 9.4 0 0 0-1.1 1.4l-1.3 2a6.6 6.6 0 0 1 1.8-2.9l1.5-1.7.3-.3a5.8 5.8 0 0 0 1.7-3.3l-.8 1-.3.4-3.1 3.5a10.7 10.7 0 0 1 1-2l1.2-1.7c.3-.4 1.6-2.2 2-2.5h.1c0-.2.2-.3.4-.5l.6-.5c-.3-.3-1.3.4-1.5.5a15.2 15.2 0 0 0-3.3 3.4 14.7 14.7 0 0 1 1.3-3.2l.9-1.4.9-1.4c-.2 0-.4.3-.6.5l-.3.3a18.1 18.1 0 0 0-2.7 4.2 8 8 0 0 1 1.1-2.7l1.5-2.4c-.3-.1-1.1.9-1.3 1.1l-1 1.4a17.4 17.4 0 0 0-1.5 3.1v.2a15.6 15.6 0 0 1 1.5-4.2l.9-1.2.3-.4.6-.8.6-.8c-.4-.1-1.8 1.5-2.1 1.8l-1 1.4a8.6 8.6 0 0 1 1.2-2.5l1.2-1.6.4-.5c-.4-.1-2.3 2.1-2.6 2.5l-.4.6-.6 1v.3a20.5 20.5 0 0 1 .8-3c.3-.9.8-1.7 1.2-2.5s-.9.8-1.1 1l-.7 1.4a29.2 29.2 0 0 1 1.4-3.6c-.2 0-.3.3-.5.6l-1.2 2.1a6.2 6.2 0 0 1 .8-2.1c-.6.3-1.6 2.3-1.8 3l-.3.9v.3a28.8 28.8 0 0 1 .5-4.8c-.1 0-.2.2-.2.3l-.2.4-.3.9-.5 1.9c-.7-1-.8-2.7-2.2-4.7a3.2 3.2 0 0 0-1.1-1.1zm.7 19a30.5 30.5 0 0 1 1.2 3.7l-.2.2-.2.7-.4-1.4c-.2-.5.1-1.6-.1-1.7s-.1.3-.1.8a2.9 2.9 0 0 1-.3-.6c-.3-.9-.4-.6-.2-1.1s.2-.4.3-.5z" stroke="olive" stroke-width=".25" fill="#006300"/><path class="cls-24" d="M269.5 142.1c.2-2.1 2.8-7.2 3.6-7.3s-.9 1.4-1.5 2.8a32 32 0 0 0-1.6 4.1 9.4 9.4 0 0 1-.5 1.4 7.6 7.6 0 0 1 0-1.1zM275.2 140.8l-1.1 1a24.9 24.9 0 0 0-5.4 7.7c-1.1 2.8-.8 2.1-.5.7a19.9 19.9 0 0 1 5.4-8.5c.8-.7 1.6-1.2 1.5-1zM268.6 136c0-1.9.2-2.6 1.3-4.9s1-2 1.1-1.9a.9.9 0 0 1-.1.6 28.3 28.3 0 0 0-1.9 6.5 3.1 3.1 0 0 1-.2 1 4.3 4.3 0 0 1-.1-1.3zM265.5 146.8a11.4 11.4 0 0 1-.8 5 13 13 0 0 1-2.4 3.6c-.2.1-.1 0 .3-.5a12.4 12.4 0 0 0 2.8-7.5c-.1-1.5 0-1.6.1-.5z"/><path class="cls-24" d="M270.3 145a6.9 6.9 0 0 1 0 3.1 6.2 6.2 0 0 1-4 4.2l-.8.2.7-.4a7 7 0 0 0 4.1-6.2 2.7 2.7 0 0 0-.1-.9c0-.2-.1-.4 0-.4s0-.1.1.4z"/><path class="cls-24" d="M275.8 149.2l-2.4.5-3.8.7c-1.2.2-1.4.3-1.5.2v-.2l5.6-1 2.2-.2zM265.5 127a6.2 6.2 0 0 1 1.5 3.2c.3 1.1.3 1.5.3 1.5l-.2-.4a19.3 19.3 0 0 0-1.8-4.3l-.3-.6.6.6zM264.5 128.2a6.1 6.1 0 0 0 1.9 3c.8.8 1.1 1.1 1.1 1l-.2-.4a19.1 19.1 0 0 1-2.6-3.8l-.3-.6a2.9 2.9 0 0 0 .2.9zM272.1 132.1c-1.3 1.2-3.5 5.1-3.2 5.8a7.8 7.8 0 0 0 1.2-2 27.2 27.2 0 0 1 1.9-3.3l.8-1.1-.7.6zM272.7 133.1c-1.5 1.4-3.9 5.7-3.6 6.4a8.7 8.7 0 0 0 1.4-2.2 30.4 30.4 0 0 1 2.2-3.6l.8-1.2-.8.6zM264.1 129.1a6.2 6.2 0 0 0 1.5 3.2c.7.9.9 1.2.9 1.1a.6.6 0 0 0-.2-.4 19.3 19.3 0 0 1-2.1-4.2l-.3-.6a2.9 2.9 0 0 0 .1.9z"/><path class="cls-24" d="M263.2 130.1a5.8 5.8 0 0 0 3 1.7l1.4.4-.4-.2a18.2 18.2 0 0 1-4.1-2.1l-.6-.4.6.7zM275.2 136.4c-2 1.4-5.7 6.3-5.3 7.2a10.5 10.5 0 0 0 2-2.5 36.9 36.9 0 0 1 3.2-4.1l1.2-1.3-1.1.7zM274.9 139.4c-.9 1.8-4.3 5.2-5 5a8.3 8.3 0 0 1 1.7-1.9 29 29 0 0 0 2.8-3l.9-1.1-.4.9zM263 151.7c-.4 1.8-2.5 5.5-3.2 5.6a7.6 7.6 0 0 1 1.1-2 26.7 26.7 0 0 0 1.7-3.3l.5-1.2a6.4 6.4 0 0 1-.1.9zM268.5 141.1a9.3 9.3 0 0 0-2.7-3.7c-1.4-1.2-1.8-1.4-.6-.3a16.2 16.2 0 0 1 3 4.1c.2.5.4.8.5.8a2.1 2.1 0 0 0-.2-.9zM269.6 155.4c-1.6-.5-5.6-.4-5.9.1h6.7l-.8-.3zM267.9 156.1c-1.6-.4-5.6-.2-5.9.3h6.7l-.8-.2zM266.1 157c-1.6-.4-5.6 0-5.9.5h2.1l3.4-.2h1.2l-.8-.2z"/><path class="cls-24" d="M265 158c-1.3-.5-4.8-.6-5.1-.1h1.8l3 .2h1l-.7-.3zM271.3 153c-3.3.9-7.3 1.5-7.5 2.3a7.7 7.7 0 0 0 2.9-.7 31.7 31.7 0 0 1 4.2-1.3l1.5-.4-1.1.2zM275.6 150.9l-2.9.5-4.5.8c-1.4.3-1.6.3-1.7.2v-.2l6.7-1.2c1.7-.3 2.7-.3 2.6-.2z"/><path class="cls-24" d="M274.6 150.1l-2.4.7-3.7 1.1c-1.1.4-1.4.4-1.4.3v-.2l5.5-1.6 2.1-.4z"/><path class="cls-24" d="M273.7 146.2c-2.3.9-6.8 4.9-6.7 5.9a10.3 10.3 0 0 0 2.5-2 36.1 36.1 0 0 1 4-3.3l1.4-1-1.2.4z"/><path class="cls-24" d="M275.4 147.3c-2.3.1-7.4 2.5-7.6 3.4a8.9 8.9 0 0 0 2.7-1.1 31.3 31.3 0 0 1 4.4-1.8l1.6-.5h-1.1z"/><path class="cls-24" d="M275.4 147.5c-5.8 4.9-9.1 7.3-10.2 6.8a39.3 39.3 0 0 1 4.1-2.7 43.8 43.8 0 0 0 5.3-4l1.7-1.5-.8 1.4zM269.1 149.1c1.2-1.9 1.8-2.5 4.3-4s2.2-1.3 2.2-1.2-.2.3-.5.5a31.4 31.4 0 0 0-5.8 5.2l-.8.8a4.9 4.9 0 0 1 .7-1.3zM269.8 143.6c.2-2.1 3.8-9.2 4.6-9.3s-.9 1.4-1.5 2.8a32 32 0 0 0-1.6 4.1 41.5 41.5 0 0 1-1.6 3.9s.1-.9.2-1.5zM268.3 135.4c-.6-1.4-.6-2-.2-4s.4-1.7.5-1.7.1.3 0 .5a16 16 0 0 0 0 5.4 1.8 1.8 0 0 1 .1.8 2.7 2.7 0 0 1-.5-.9zM269.4 143.2a8.4 8.4 0 0 0-2.5-3.3c-1.3-1.1-1.6-1.3-.5-.3a14.6 14.6 0 0 1 2.7 3.7l.4.7a1.9 1.9 0 0 0-.2-.8zM263.8 144.8c1.1-4.1 2.1-3.4 2.1-3.4 2.5 2.4 1.3 10.5 1.3 10.5 0-16.6-3.3-7.1-3.3-7.1z"/><path class="cls-24" d="M264.7 144.5c1.1-4.1 1.4-4 1.4-4 2.1.4 1.9 9.5 1.9 9.5-.9-15.6-3.4-5.6-3.4-5.6zM263.6 147.7c0-3 .5-2.5.5-2.5 1.7 1.5 2.3 7.3 2.3 7.3-2.6-11.7-2.8-4.8-2.8-4.8zM268.7 139a13.2 13.2 0 0 0-3.9-5.3c-2-1.8-2.6-2.1-.8-.4a22.9 22.9 0 0 1 4.3 5.8c.3.7.6 1.2.7 1.1a2.9 2.9 0 0 0-.3-1.3z"/><path class="cls-24" d="M268.5 137.6a10.1 10.1 0 0 0-3-4c-1.5-1.4-2-1.6-.6-.3a17.7 17.7 0 0 1 3.3 4.5c.2.5.5.9.5.9a2.3 2.3 0 0 0-.2-1zM260.2 154.1c-.1.9-1.1 2.9-1.4 2.9a3.9 3.9 0 0 1 .5-1.1 13.6 13.6 0 0 0 .8-1.7l.2-.6a3.2 3.2 0 0 1 0 .5zM259.4 154.6c-.1.9-1.1 2.9-1.4 2.9a3.9 3.9 0 0 1 .5-1.1 13.6 13.6 0 0 0 .8-1.7l.2-.6a3.2 3.2 0 0 1 0 .5zM260.6 154.6c-.1.9-1.1 2.9-1.4 2.9a3.9 3.9 0 0 1 .5-1.1 13.6 13.6 0 0 0 .8-1.7l.2-.6a3.2 3.2 0 0 1 0 .5z"/><path d="M230 131.9a1.2 1.2 0 0 0 .3.8v-.9c-.1 0-.2.1-.3.1z" fill="#00873f"/><path class="cls-26" d="M228.7 138.4l-.4-.3M229.2 135.9l-.4-.5M228 141.8a1.6 1.6 0 0 0-.7-1.3M232.7 154.9c-2.6-2.9-3.4-8-3.4-8a4.7 4.7 0 0 1 2-2.7M229.3 146.8a25.3 25.3 0 0 1-.6-6.8 33.9 33.9 0 0 1 1.7-8M228.6 141.2c.7-3.1 3.3-2.7 3.3-2.7"/><path class="cls-26" d="M228.6 141.8c2.3-.9 2.1-3 2.5-3.8a5.3 5.3 0 0 1 1.1-1.6M230.9 152c-.8-2 .1-2.4.1-2.4M230.6 151.4a2.9 2.9 0 0 0-2.3-1.2M230.1 145.2a2.5 2.5 0 0 0 0-2.3M230.4 150.8l-1.8-2.4M229.7 133.8a1.2 1.2 0 0 0-.5-1.4"/><path id="b" class="cls-27" d="M229.3 132.2a.4.4 0 1 1-.4-.4.4.4 0 0 1 .4.4z"/><path id="b-2" data-name="b" class="cls-27" d="M230.5 142.6a.5.5 0 1 1-.4-.5.5.5 0 0 1 .4.5z"/><path id="b-3" data-name="b" class="cls-27" d="M230.1 143.7a.4.4 0 1 1-.4-.4.4.4 0 0 1 .4.4z"/><path id="b-4" data-name="b" class="cls-27" d="M228.9 148a.5.5 0 1 1-.5-.5.5.5 0 0 1 .5.5z"/><path id="b-5" data-name="b" class="cls-27" d="M228.3 150a.5.5 0 1 1-.5-.5.5.5 0 0 1 .5.5z"/><path id="b-6" data-name="b" class="cls-27" d="M229 150.8a.5.5 0 1 1-.5-.5.5.5 0 0 1 .5.5z"/><path id="b-7" data-name="b" class="cls-27" d="M238 154.9a.4.4 0 1 1-.4-.4.4.4 0 0 1 .4.4z"/><path id="b-8" data-name="b" class="cls-27" d="M238.5 155.5a.4.4 0 1 1-.4-.4.4.4 0 0 1 .4.4z"/><path class="cls-26" d="M230.5 144.5a.9.9 0 0 0-.5-.6M237 155.4c.8.6 1 .2 1 .2"/><path class="cls-21" d="M237.9 157.1a5 5 0 0 1-.4-2.1M233.9 154.1a.9.9 0 0 1 .2-1c.3-.2 1.4.4 2-2.2a2.7 2.7 0 0 0-1.2.3v-.2a3.4 3.4 0 0 1-.1-1.3 3.1 3.1 0 0 0 .4-.9s-.8-.3-2.2 1.6c0 0-.1-.4-1.2-1.1a5.4 5.4 0 0 0-.3 2.6 2.1 2.1 0 0 0 1 1.5 1.3 1.3 0 0 1 .7 1.1h.7v-.4zM232.8 156a1.6 1.6 0 0 1-.8.3c-1.9.2-3-2.3-3-2.3s.2-.2.6-.1.7 0 1.3 0a2.6 2.6 0 0 1 1.6.7 2.1 2.1 0 0 1 .5 1.3c-.1.1-.2.1-.2.1zM230.6 151.5a3.2 3.2 0 0 0-3.2.1c-.1.1.1.2.1.2s.8.1 1.4.8a2.7 2.7 0 0 0 2.5 1 1.5 1.5 0 0 1 .6.5 6.3 6.3 0 0 0-1.4-2.5zM227.2 143.6c-.4-.3-.3.3-.3.3l-3-1.5h-.3c-.4 0 .1.7.1.7.7 1.7 1.3 1.9 1.3 1.9s-1.9-.5-1.7.2a4.4 4.4 0 0 0 1.9 1.4 3.1 3.1 0 0 0 2.1 0c.3.6.5.7.5.7a2.3 2.3 0 0 1 1.6 1.1 13.3 13.3 0 0 0-.5-3.2 7.2 7.2 0 0 0-1.8-1.4z"/><path class="cls-21" d="M237.4 157.6c-.7.2-.8.7-.8.7h-3.2l-.6-.4a3.2 3.2 0 0 0 .9-.6 4.8 4.8 0 0 1-1.5-2.7c2.1-.4 2.7 0 2.7 0a.9.9 0 0 0-.8-.8c-.2-.2.2-.3.2-.3a4.4 4.4 0 0 1 2.8 1.3 2.6 2.6 0 0 1 .5 1.9c.2 1-.2.9-.2.9zM229 149.3a2.1 2.1 0 0 0-1.6 0c-.5.2-1.5-.4-1.5-.4a4.9 4.9 0 0 1-1.5-1.7c0-.2 1.1-.1 1.1-.1l1.8.3s.7.8.9 1l.7.6c.2.2.3.5 0 .4zM231 149.8a1.3 1.3 0 0 1 1.6-.2c1.4.2 1.9-1.4 1.9-1.4a6 6 0 0 1 .6-1c.1-.4-.6-.1-.6-.1l-1.3.4.2-1.9c0-.3-.3-.1-.3-.1-1.8 1-2 1.8-2 1.8l-.7-1.4c-.2-.6-.4.1-.4.1-.3 1.7-.2 1.8-.2 1.8a2.9 2.9 0 0 0 .5 1.1c.4.5.4.7.4.7z"/><path class="cls-21" d="M241.3 154.4c-.3.1-1 1.2-1 1.2a3.5 3.5 0 0 0-2.1-1.9c-.2.1 0 .5 0 .5a1.9 1.9 0 0 1-.1 1.6c-.1.6 0 .8 0 .8l-1.5-.6a7 7 0 0 0 1.1 2.6l2.5-.6h.8a5.2 5.2 0 0 0 .2-3.4zM230 145.2c.9.4 1 1 1 1l2.3.9c1.7-.2 1.5-.5 1.5-.5a7.7 7.7 0 0 1-1.1-1.2 2.8 2.8 0 0 0-1.7-.7c-1.3.2-1.6-.1-1.6-.1l-.4.5zM228 142.3c-.4-1.5 1-3.4 1-3.4 1.2 2.2.9 2.8.9 2.8a13.8 13.8 0 0 1-1 2.5c-.2-1.1-.8-1.3-.9-1.8z"/><path class="cls-21" d="M227.2 142.9c-1.5 0-2.9-1.6-2.9-1.6 2.2-.6 2.7-.2 2.7-.2a12.8 12.8 0 0 1 2 1.4c-1 0-1.3.4-1.8.4zM226.1 140.8a2.3 2.3 0 0 1-1.7-.8c-1.2-1.7-.8-2.2-.8-2.2l.2.1a2.3 2.3 0 0 0 1.1.4c-2-1.2-.7-4-.7-4l.3.4a2.6 2.6 0 0 0 1.1 1.2c.4.6.4.8.4.8l.4-.7s1.1 1.3 1.2 1.8.1 1.6.1 1.6a8.6 8.6 0 0 0-.2 1.4 2.2 2.2 0 0 0-1.4-.1zM230.8 144.1c.5-.6 0-1.8 0-1.8l1.7-2.5a3.2 3.2 0 0 1 .5 1.7l1.8-.5a4.3 4.3 0 0 1-.7 2c1.2.4 1.6-.2 1.6-.2a2.6 2.6 0 0 1-3.1 2.1 5 5 0 0 0-1.8-.8zM226.8 136.3c.1-1.6.4-1.7.4-1.7s.3.8.5.9a1.8 1.8 0 0 1 1 1.5c0 1.3-.2 1.2-.2 1.2l-1.7-1.9zM231.4 136.7c.5-1.8.2-2 .2-2s-.6.8-.9.8a2.1 2.1 0 0 0-1.7 1.3c-.5 1.4-.2 1.4-.2 1.4a2.1 2.1 0 0 0 2.7-1.4z"/><path class="cls-21" d="M226.8 133.3c.2-1.9.5-2 .5-2s.3.9.6 1a2.1 2.1 0 0 1 1.2 1.8c0 1.5-.3 1.4-.3 1.4a2.1 2.1 0 0 1-2-2.3zM232.1 133.8c.5-1.8.2-2 .2-2s-.6.7-.9.8a2.1 2.1 0 0 0-1.8 1.2c-.5 1.4-.3 1.4-.3 1.4a2.1 2.1 0 0 0 2.7-1.4zM234.3 138.8c1.5-1.2 1.4-1.5 1.4-1.5s-.9.2-1.2.1a2.1 2.1 0 0 0-2.2 0c-1.3.8-1 .9-1 .9a2.1 2.1 0 0 0 3 .5z"/><path class="cls-21" d="M234.2 139.8c1.4-.7 1.4-.9 1.4-.9s-.8 0-1-.1a1.8 1.8 0 0 0-1.8-.4c-1.2.4-1 .6-1 .6a1.8 1.8 0 0 0 2.4.8zM229.3 131.2c-.6-1.7 1.1-3.9 1.1-3.9l.6 1.9a5.3 5.3 0 0 1 2.6-1.6v1.1a3.7 3.7 0 0 0 1.3-.3c-.2 1.4-1.9 2.7-1.9 2.7a2.2 2.2 0 0 1-1.4.3 2.2 2.2 0 0 0-1.5 1.2c-.1-.7-.2 0-.6-1.3zM231.8 136.8a1.8 1.8 0 0 1 2-.6 2.9 2.9 0 0 0 2-1.1 3.1 3.1 0 0 1 .8-1 .3.3 0 0 0-.3-.2l-.7.2c.5-1.8.2-1.9.2-1.9h-.3c-.3.8-1.5.8-1.5.8l-.3-1.1a1.5 1.5 0 0 1-.6.5c-1.2 1.2-1.2 1.7-1.2 1.7a9.5 9.5 0 0 1-.3 2.6z"/><path class="cls-28" d="M231.6 143.5l.8-.6c.3-.2.2-.1.3-.4a.8.8 0 0 1 .3-.4l-.2.5.8-.4c0 .2-.2.3-.5.4l-.6.4-1 .9a5.6 5.6 0 0 1 1.3-.1c1-.2 1.5-1.7 1.9-2.5a5.5 5.5 0 0 0-2 .7c-.7.5-.6.9-1 1.6zM228.9 147.3l-.3-.6-.7-1.2a1.6 1.6 0 0 1-.3-.6c.1 0 .3.4.5.6v-.6c.2 0 .1.2.1.3a1.6 1.6 0 0 0 .3 1.1l.7 1.2-.2-.6c-.2-.8.3-1.7-1.7-2.9l-.5-.3c0 1 .1 2.5 1 3l.5.2.5.2zM228.4 135.2l-.3-.7c-.1-.2 0-.2-.2-.3l-.2-.3h.3l-.2-.5-.3-.4c.3 0 .7 1 .8 1.2a2.7 2.7 0 0 0 .7 1.3l-.2-.4c-.1-.4.3-1-.1-1.9s-.8-.6-1.1-1.1l-.2-.5a4.3 4.3 0 0 0-.2 1 2.7 2.7 0 0 0 .6 2zM230.9 130.5l.4-.5.5-.4v-.4c.1 0 .1 0 .2.3l.5-.8c.1.1-.2.5-.3.7l-.5.5-.9 1.1.5-.2a1.4 1.4 0 0 0 1.2-.8 6.5 6.5 0 0 0 .7-2.1 3.9 3.9 0 0 0-2.2 1.5c-.2.3-.1.5-.1 1.1zM225.6 138.5c-.2-.6-.9-1.4-1-1.7v-.7h.1a3.2 3.2 0 0 0 .1.5l.3.5c0-.4 0-.2.1-.5s-.1.5.1.9l.4.7c0-.5.3-1.3-.2-2.1l-.7-.6-.5-.8c-.4.8-.3 2.5.5 3.1l.5.2h.4zM229.4 135.2a7.3 7.3 0 0 1 1-1l.5-.5.5-.5c.1.1-.4.7-.6.9h.3c-.1.2-.2 0-.5.1s-.8.8-1 .9h.5c.5-.1.8 0 1.3-.6a5.9 5.9 0 0 0 .8-2 4.6 4.6 0 0 0-1.9.9c-.5.5-.5 1-.7 1.5l-.3.5zM226.7 140.3l-.5-.4a.9.9 0 0 0-.7-.2l-1.1-.6c.1-.1.2.1.5.2l.5.2v-.3h.2v.2c.5 0 .4.1.9.4s-.1-.2-.2-.3l-.3-.3-.3-.3c-.4-.7-.9-.4-1.2-.5l-.8-.3a3.1 3.1 0 0 0 1 1.8 1.6 1.6 0 0 0 .9.5h1.2z"/><path class="cls-28" d="M226.3 144.6l-.5-.4h-.3l-.2-.2a1.7 1.7 0 0 1-.5-.5c.1-.1.1 0 .2.1l1.3 1 .6.3a2.9 2.9 0 0 0-1-1.6l-2-.6a8.7 8.7 0 0 0 .8 1.6c.6.8.7.5 1.1.5h.6zM227.3 140l-.8-2.6c.1 0 .1.2.2.5l.2.5.2-.4c.2-.4 0 .4-.1.5s-.1.2 0 .4l.4.9a4.7 4.7 0 0 1 0-.5 2.2 2.2 0 0 0-.1-1.6 5.7 5.7 0 0 0-1.1-1.4 7.7 7.7 0 0 0-.2 1 2.2 2.2 0 0 0 .5 2l.7.6zM228.8 143.3v-2-.4c0-.2 0-.1.1-.3a.4.4 0 0 1 .1.2v.8l.2-.4c.2.1 0 .2 0 .4l-.2.4v1.2l.2-.4a2.4 2.4 0 0 0 .4-1.6l-.7-1.9-.4.9a4.1 4.1 0 0 0-.3 1.1 1.8 1.8 0 0 0 .4 1.5l.2.5zM229.9 131.8c0-.2.1-1.4.1-1.5v-.7c.2 0 .1.1.2.3h.1v-.3a.5.5 0 0 1 .1-.3l.1.1v.2c-.1.8-.1 1.6-.2 2.4l.2-.5a3.7 3.7 0 0 0 .5-1.6l-.4-2.3-.5.9a3.6 3.6 0 0 0-.4 2.3l.4.9h.1z"/><path class="cls-28" d="M223.7 145.1l.6.6a3.6 3.6 0 0 0 1.7.6l1-.2-.2-.5H225l-.5-.2 1.1.2-.4-.4c.2 0 .5.3.6.4h.9v-.5a2.4 2.4 0 0 0-1.6 0 2.1 2.1 0 0 1-1.5.2zM224.9 147.5a5.9 5.9 0 0 0 1.3 1.4h2.1l-.9-.4c-.4-.2-.4-.1-1.1 0s.2-.1.5-.2l-.8-.3h.2l2.2.8-.6-.6c-.9-1.1-1.8-.7-2.9-.7zM232.4 135.6l.3-.6c.2-.3-.1-.3 0-.8s.1 0 .1.4l.4-.9c.1.3-.5 1.5-.6 1.8l-.2.6c.5-.6 1.1-.8 1.2-1.3v-2.3a5.8 5.8 0 0 0-1.1 1.2 2.6 2.6 0 0 0-.2 2zM231.4 149.1l.5-.3c.8-.2.5.2 1-.6v.4c.4-.1.5-.4.8-.6s-.1.4-.3.5-1 .3-1.2.4l-.6.3c.6-.1.6 0 1.1.1s1.4-.9 1.7-1.5l.3-.4a5.4 5.4 0 0 0-1.8.7l-.7.5-.3.3-.4.3zM231.3 143.4c.4-.4.3-1.2.6-1.7l.2-.2h.2c0 .1-.2.2-.2.4l-.2.5h.1a2.4 2.4 0 0 1 .9-.7l-.4-1.4-.7.6-.6.7c-.5.8 0 1.2.1 2zM231.1 149l.9-1.4v-.7c.1 0 .1-.1.2.4s.1-.4.4-.6a3.4 3.4 0 0 1-.4.9l-.9 1.4.6-.5.3-.3.4-.2.4-2.1a6 6 0 0 0-1.5 1.1c-.6.7-.6.9-.4 2zM233.1 143.9h1.1c0 .2-.2.2-.5.2h-2l.5.2.5.3a1.5 1.5 0 0 0 1.2 0l1.5-1.4c-.8.2-.4.2-1.4 0l-.6.5-.2.2zM224.9 141.2a2.4 2.4 0 0 0 2.1 1.4.9.9 0 0 0 .7-.4h-.2a3.3 3.3 0 0 0-1.4 0l.3-.2h-.4l-.4-.2h.2a9.8 9.8 0 0 0 2 .4c-.1-.3-.8-.6-1.2-.7s-.9.2-1.6-.1z"/><path class="cls-28" d="M230.6 148.8l-.3-1.9c.2 0 .1.1.2.5l.3 1.7a4.7 4.7 0 0 0 .1-1.8l-.7-1.3a5.1 5.1 0 0 0-.2 1.5 1.5 1.5 0 0 0 .5 1.1h.1zM233.1 129.9l.3-.3.3-.2c0 .2-.2.3-.4.5l-.5.5c-.4.5-.4.4-1.1.7 1.4.1 2.1-1.4 2.7-2.4-1.3.2-1.1.3-1.2.7l-.2.5zM233.5 135.7l.4-.6c.2-.3.4-.1.7-.5s-.1-.1-.5.1l.6-.9c-.3.1-1.1 1.3-1.3 1.5l-.4.5c.3-.8.2-1.5.5-1.9l2.1-1.3a6.2 6.2 0 0 1-.5 1.7 2.8 2.8 0 0 1-1.7 1.3zM228.3 138.2c-.1-.3-.5-.7-.6-.9l-.3-1.2c.2 0 .2.3.2.5l.2.5c.1-.4-.1-.1.2-.5s-.1.6 0 .8l.4.5a1.9 1.9 0 0 0-.2-1.6l-1-1.1a2.8 2.8 0 0 0-.1 1.9 1.2 1.2 0 0 0 .8.8l.4.2zM229.2 138c.2-.3.8-.5 1-.7l.8-1.2c-.2 0-.3.3-.4.4l-.4.5c0-.4.1-.1 0-.6s-.1.7-.3.9l-.6.4a2.2 2.2 0 0 1 .8-1.7l1.4-.8a3.2 3.2 0 0 1-.6 2 1.3 1.3 0 0 1-1.1.6h-.5zM231.7 138.2a6.5 6.5 0 0 0 1.7-.2l.4-.2c0 .1 0 .1-.2.2h-.8l-1.5.2c1 .4 1.1.9 2.3.5a3.3 3.3 0 0 0 1.6-1.4c-1.4.3-1.5-.8-2.9 0l-.6.6z"/><path class="cls-28" d="M233.5 139h.5c-.1.1-.7 0-1 0h-1a1.6 1.6 0 0 0 1.6.6 2.9 2.9 0 0 0 1.5-.6l-1.1-.4zM233.1 145.5l-.5-.3a3 3 0 0 0-1.4 0h-.7a3.4 3.4 0 0 0 1.3.6c1 .2.3.4 1.3-.2zM233.2 146.2l.3.3h-.3v.7l1.3-.2-1.2-1.2a1.8 1.8 0 0 0-.1.6z"/><path class="cls-28" d="M231.6 146.5l.8-.6-.8-.2-.8-.3.4.6a1.6 1.6 0 0 0 .4.6zM235.3 135a8.2 8.2 0 0 1-1 .7c-.5.2-1.1 0-1.4.3s1.4.3 2.1-.3a9 9 0 0 0 1.1-1.4l-.7.2-.2.3c-.2.2-.1.1 0 .3zM232.5 154.6l.6 1.3.9 1.1.6-.3.7-.2c-.4-.2-.4-.4-.6-.4h-.9c.1-.1 0-.1.4-.1h.5l-.9-.6.9.5v-.6c.2 0 .1.4.2.7s.3.4.5.4l.7.2.7.2c-.3-.4-.2.1-.7-1a1.9 1.9 0 0 0-.7-.9c-.8-.5-1.9-.2-2.8-.2zM233.5 153.4v-1.5a10.9 10.9 0 0 0-.1-1.2c.1 0 .1.1.1.2v.3a1.6 1.6 0 0 1 .4-.9c0 .1-.3.5-.3 1.2v1.3l.2-.2.3-.4a2.4 2.4 0 0 0 .3-2.1l.2-1.1-1 .7a2.4 2.4 0 0 0-.8 2.4l.3.6.3.6z"/><path class="cls-28" d="M233.2 157.7l1 .4c.7.2 1.7.3 2.2-.3a3.1 3.1 0 0 1 .7-.7 5.6 5.6 0 0 0-1.3.3c-.3.1-.3.3-.6.6l-.2.2c0-.2.3-.5.5-.6h-1c0-.2.3-.1.7-.1s1-.3 1.9-.4h.2c-1.4 0-1.7-.9-3.3.2zM239.4 156.9v-.7a1.3 1.3 0 0 1-.5-.7c.2 0 .2.3.5.4a11.5 11.5 0 0 0-.2-1.2c.2 0 .2.5.3.6s0 1.4.2 1.7l.4.5c.1-.6.7-.9 0-2.3a3.6 3.6 0 0 0-1.4-1.5 2.2 2.2 0 0 1 .1 1c0 .3-.2.6-.2.9s.1.7.3.8l.7.4zM232.6 155.6l-.2-.5c-.6 0-.7.2-1.5-.3s-.2-.1-.3-.3l.9.5-.3-.6h.2l.4.6h.6l-.2-.4c-.1-.2 0-.2-.2-.3l-.7-.3h-.9l-.9-.2a5 5 0 0 0 .5.9c.4.5 1.4 1.3 2.3 1l.5-.2zM227.9 151.4h.1l.7.4a3.9 3.9 0 0 0 .6.7 3.4 3.4 0 0 0 2 .6l-.3-.4c-.6-.7-.5-.6-.9-.6h-.6c0-.1.4-.2.7-.2h-.9c.2-.2 1 .1 1.4.4l.9 1-.4-1a2.5 2.5 0 0 0-2.5-1h-.6zM233.3 153.6c-.3-1-.8-1.4-1-2a1.4 1.4 0 0 1 0-.8c.2.3-.2.5.4 1.5a2.6 2.6 0 0 1-.1-.9l.2-.8a6.9 6.9 0 0 0-.9-1 5.7 5.7 0 0 0 0 2.6c.3.9.8.7 1.4 1.5zM238.1 158.1l.6-.2-.4-.5c-.3-.4-.2-.4-.1-.6a.5.5 0 0 0 .1.3l.2.3.5.5c0-.3-.1-.5 0-.7h.1v.5l.7-.2a3.9 3.9 0 0 0-2.2-1.5l.2 1a5 5 0 0 0 .3.9zM237 156.3l-.3-.6a2.9 2.9 0 0 0-.6-1.2l-.2-.2-.2-.2c.2 0 .5.3.6.4a13.9 13.9 0 0 1 1.1 2 1.3 1.3 0 0 1-.1-.6 1.7 1.7 0 0 0-.6-1.5l-2-.9a1.9 1.9 0 0 1 .5.7c.1.3.2 0 .7.6s.5 1.3 1.1 1.5z"/><path class="cls-28" d="M240.6 156.3v-.3l.2-.3c.1.1 0 .2-.1.4l-.4 1.4c.4-.1.4-.1.6-.4a2.4 2.4 0 0 0 .2-.7v-1.9l-.6.7c-.3.4-.1.2 0 1zM234.6 152.1l.6-.6c.1.2-.3.5-.4.6s-.1 0-.5.5 1.2-1 1.5-1.6l-.8.3c-.1.1-.1 0-.1.2v.2l-.2.4z"/><path class="cls-29" d="M242.5 162.7l1.1.6-.6 1.2 2.6-.8a1.4 1.4 0 0 1-.1-.9l-.2-.8-1.3.4-1.4.3zM256.5 162.5l-1.1.6.6 1.2-2.6-.8a1.4 1.4 0 0 0 .1-.9l.2-.8 1.3.4 1.4.3z"/><path d="M246.4 164.4a7 7 0 0 0 2.3-.8c.2.2 1.1.1 1.1.1l.6-.2a5.7 5.7 0 0 0 2.1.9c1.1-.1 1.1-.9 1.1-.9l-.1-.7a1.3 1.3 0 0 0 0-1.6c-.3-.3-1.9.2-1.9.2l-1.2.3s-1.5-.4-2 0l-1.4-.4c-1.2-.5-1.4-.2-1.4-.2a1.3 1.3 0 0 0-.3 1.1 1.9 1.9 0 0 0 .1.6c-.3 1.6 1 1.7 1 1.7z" stroke-width=".27" stroke="#000" fill="#ce1126"/><path class="cls-31" d="M250.4 163c2.6.6 2.4 1 2.4 1l-.9-.1c-2-.7-1.5-.9-1.5-.9zM248.8 163c-2.6.6-2.4 1-2.4 1l.9-.1c2-.7 1.5-.9 1.5-.9z"/><path d="M248.9 161.3c-1.1.2-.2 1-.2 1.6s-.3.8 0 .9a4 4 0 0 0 1.2 0c.4 0 .7 0 .7-.5a7.1 7.1 0 0 1-.2-1.1c0-.4.1-.8-.4-.8h-1.2z" fill="#aa241e" stroke-width=".2" stroke="#000"/><path class="cls-33" d="M250.4 161.9c3 0 2.8-.5 2.8-.5M250.5 162.8c3 .4 2.6.8 2.6.8"/><path class="cls-34" d="M248.6 162.7c-2.8.6-2.5 1.1-2.5 1.1M248.3 161.8c-2.8.2-2.5-.3-2.5-.3"/><path d="M237.7 158.5a17.6 17.6 0 0 0-3.9 1.7l-1.8-2.7a3.8 3.8 0 0 0-1.2-1 1.2 1.2 0 0 0-1.6.2l-.4-.7a21 21 0 0 0-2.3-2.9l-.7-.9-.3-.3a27.1 27.1 0 0 1 .7 3.1l-1.3-.7a5 5 0 0 0-1.7-.3l.5.5a6.5 6.5 0 0 1 1.9 3.1 9.2 9.2 0 0 0 2.3 3.6 4.3 4.3 0 0 0 1.1.8c1.1.4 1 0 1.4-.2a17.3 17.3 0 0 0 2.3 3.2 4.4 4.4 0 0 0 4.2 1 5.5 5.5 0 0 0 1.6-.6c1.9-1.1 1-2 .8-2.9l4-1.1a47.3 47.3 0 0 1 12.6-.1c.3 0 4.1 1 4.4 1.3a3 3 0 0 0-.3 1.6c.1.6.6 1 1.1 1.2a5.5 5.5 0 0 0 1.6.6 5.5 5.5 0 0 0 2 .1 4.2 4.2 0 0 0 2.7-1.8 15.9 15.9 0 0 0 1.8-2.6l.5.3h1a3.4 3.4 0 0 0 1.1-.9 8.6 8.6 0 0 0 2.3-3.7 6.7 6.7 0 0 1 2.4-3.5 5.3 5.3 0 0 0-3 1l.3-1.6c.1-.4.3-1.1.4-1.5l-2 2.2-.9 1.1c-.6 1-.5 1-.7 1.3-2.2-1.2-3.2 1.7-4.7 3.6a24.5 24.5 0 0 0-8.4-2.6l-2-.2a49.1 49.1 0 0 0-12.6.1 43.9 43.9 0 0 0-5.2 1.1z"/><path class="cls-1" d="M234.9 164.8c.3-.7.6-.9 1.2-1.2a27 27 0 0 1 5.3-1.9l4-.8 2.1-.2h4.7l2.1.2a29.7 29.7 0 0 1 4.1.8 26.6 26.6 0 0 1 5.3 1.9c.8.4.7.4 1.2 1.2a5.8 5.8 0 0 0 1.4-1.9 6.3 6.3 0 0 0 .6-1.1c.2-.6-.2-.8-.5-1a13.3 13.3 0 0 0-4.6-2.1 47.9 47.9 0 0 0-23.7 0 13.7 13.7 0 0 0-4.6 2.1l-.4.4c-.4.5.3 1.4.5 1.8l.6 1 .8.9z"/><path class="cls-1" d="M228 158.5a2.1 2.1 0 0 1 1.6 1.1c1.1 1.6 1.2 2.7 3.1 4.8a4 4 0 0 0 1.5 1.2 4.1 4.1 0 0 0 2.3.3 5 5 0 0 0 2-.7 4.4 4.4 0 0 0 .9-.7 2.1 2.1 0 0 0 .2-.8c-.6-.2-1.6 1-2.3 1.4s-1.7.5-2.6-.2a7.4 7.4 0 0 1-1.5-2.2 2 2 0 0 1-.4-1.4l.9-1-1.2-1.8a5.8 5.8 0 0 0-1.3-1.6c-.3-.3-1-.7-1.5-.4a6.9 6.9 0 0 0-1.1 1.1 2.9 2.9 0 0 0-.5.9z"/><path class="cls-1" d="M226.6 155.5l-1.2-.7-1.5-.5.8.9c.9 1.2.9 2.1 1.7 3.5a9.2 9.2 0 0 0 1 1.5l1.3 1.3c.5.4 1 .5 1.3.1s-.6-.7-1-.9l-1-.7c-.9-.9-.2-1.9.5-2.7l.4-.5c.1-.4-.6-1.4-1-1.9l-1.9-2.1.3 1.4c.1.3.3 1.1.3 1.3zM239.5 163.4l-.3-.8a18.2 18.2 0 0 0-3.4 1.4c-.2.1-.8.6-.5 1s2.3-.5 3.1-1.1a1.7 1.7 0 0 1 1.1-.5z"/><path class="cls-1" d="M230.4 161.6c-.1 0-.1-.3-.6-.7l-1.6-1a.8.8 0 0 1-.3-.7.4.4 0 0 1 .3-.4c1.1 0 2.3 2.7 2.3 2.8zM271.7 158.6a2.1 2.1 0 0 0-1.6 1.1c-1.1 1.6-1.2 2.7-3.1 4.8a4 4 0 0 1-1.5 1.2 4.1 4.1 0 0 1-2.3.3 5 5 0 0 1-2-.7 4.4 4.4 0 0 1-.9-.7 2.1 2.1 0 0 1-.2-.8c.6-.2 1.6 1 2.3 1.4s1.7.5 2.6-.2a7.4 7.4 0 0 0 1.5-2.2 2 2 0 0 0 .4-1.4l-.9-1 1.2-1.8a5.8 5.8 0 0 1 1.3-1.6c.3-.3 1-.7 1.5-.4a6.9 6.9 0 0 1 1.1 1.1 2.9 2.9 0 0 1 .5.9z"/><path class="cls-1" d="M273.1 155.6l1.2-.7 1.5-.5-.8.9c-.9 1.2-.9 2.1-1.7 3.5a9.2 9.2 0 0 1-1 1.5l-1.3 1.3c-.5.4-1.2.4-1.3.1s.6-.7 1-.9l1.2-.8c.9-.9.2-1.9-.5-2.7l-.4-.5a5.1 5.1 0 0 1 1-1.9l1.9-2.1-.3 1.4-.3 1.3zM260.2 163.5l.3-.8a18.2 18.2 0 0 1 3.4 1.4c.2.1.8.6.5 1s-2.3-.5-3.1-1.1a1.7 1.7 0 0 0-1.1-.5z"/><path class="cls-1" d="M269.3 161.6c.1 0 .1-.3.6-.7l1.6-1a.8.8 0 0 0 .3-.7.4.4 0 0 0-.3-.4c-1.1 0-2.3 2.7-2.3 2.8z"/><path class="cls-20" d="M237.3 160h-.3l-.5.2c-.1 0-.1.1 0 .1s.1.2.1.3v1.4c0 .1-.1.2 0 .2h.4c.1 0 .1-.1 0-.1s-.1-.2-.1-.3v-.3c0-.1.2 0 .2.1l.2.2.3.2h.3l-.4-.4-.2-.4a.8.8 0 0 0 .3-.4.5.5 0 0 0-.2-.5h-.3zm-.2.2l.2.2a.6.6 0 0 1 .1.4l-.2.3c-.1.1-.3.2-.3 0v-.6c0-.1.1-.2.2-.2zM238 159.8c0 .1.1.1.1.2v1.4c0 .1-.1.2 0 .2l1-.3c.1 0 .1-.1.1-.1v-.3c-.1 0-.1.1-.2.2l-.5.2c-.1 0-.1-.1-.2-.2v-.6h.6a1.9 1.9 0 0 0-.1-.3s0-.2-.1-.2 0 .2-.1.2h-.3c-.1-.1-.1-.2-.1-.3s-.1-.3.1-.3h.5s.2.1.2 0v-.3h-.3l-.8.2zM240.2 159.1h-.8c-.1.1.1.1.1.2v1c0 .1.1.3.1.4a.4.4 0 0 1 0 .2h.4c.1 0 .1-.1 0-.1a1.1 1.1 0 0 1-.1-.3v-.3l.6-.2a.5.5 0 0 0 .2-.4.6.6 0 0 0-.1-.4h-.4zm.3 0zm-.4.1l.3.2a.7.7 0 0 1 0 .4l-.2.2h-.2c-.1-.1 0-.2-.1-.2v-.4a.2.2 0 0 1 .1-.2h.1zM241.9 158.8v.2c.1.1 0 .2.1.2v.6a1 1 0 0 1 0 .4.3.3 0 0 1-.4.3h-.2v-1.3c0-.1.1-.2 0-.2h-.4c-.1.1.1.1.1.2v.3c0 .2.1.4.1.6v.5l.3.2a.7.7 0 0 0 .6-.2v-.3a1.4 1.4 0 0 0 0-.4 1.9 1.9 0 0 0-.1-.4v-.4a.3.3 0 0 1 0-.2c0-.1.1-.1.1-.2h-.4zM243.4 158.5h-.8c.1.1.1.1.1.2v1a4.2 4.2 0 0 1 0 .4c0 .1-.1.2 0 .1h1l.2-.2v-.2a.5.5 0 0 0-.1-.4h-.3c-.1 0-.1-.1 0-.1l.2-.3a.3.3 0 0 0-.1-.3l-.3-.2h-.2zm-.3.1h.3a.4.4 0 0 1 0 .3c0 .1-.1.2-.2.2s-.2.1-.2 0a.8.8 0 0 0 0-.3 2.1 2.1 0 0 1 0-.3h.1zm.1.8h.3a.4.4 0 0 1 .1.3c0 .1 0 .2-.1.3h-.3c-.1 0-.1-.2-.1-.3v-.3c0-.1 0-.2.1-.2h.1zM244.2 158.4v.2a1.8 1.8 0 0 0 0 .3v.3a3.5 3.5 0 0 0 0 .4 2.3 2.3 0 0 0 0 .4.3.3 0 0 1-.1.3h1.1v-.4-.1.2h-.5v-.4c0-.2 0-.4-.1-.7a1.7 1.7 0 0 1 0-.4c0-.1.2-.2 0-.1h-.5zM245.5 158.2h.1v1.3a.6.6 0 0 1 0 .2v.2h.5c.1 0 0-.1 0-.1a.4.4 0 0 1-.1-.2 3.2 3.2 0 0 0 0-.4 2.4 2.4 0 0 0 0-.3v-.4a.7.7 0 0 1 0-.3s.1-.1 0-.1h-.5zM247.8 159.4h-.2l-.3.2h-.3v-.6a1.8 1.8 0 0 1 0-.5l.2-.3h.4l.2.3c.1.1.1 0 .1-.1s.1-.2 0-.2h-.3a.7.7 0 0 0-.6.1l-.2.2v.5a1.5 1.5 0 0 0 .1.7l.2.3h.7l.2-.3v-.2z"/><path class="cls-20" d="M248.5 158h-.3v.7l-.2.7v.3c-.1 0 0 .1 0 .1h.3v-.2a.6.6 0 0 1 0-.2h.5c0 .1.1.2.1.3s-.1.2 0 .2h.4c.1 0 0-.1 0-.2v-.4l-.2-.6v-.5c0-.1 0-.1-.1-.1zm-.2.4l.2.7c0 .1-.1.1-.1.1h-.2c-.1-.1 0-.2 0-.3s.1-.2.1-.3 0-.2.1-.2zM250.7 157.9h-.5c0 .1.1.1.1.1v1.6c0 .4-.1.2 0 .2h1l.2-.3v-.5a1.5 1.5 0 0 0 0-.4v-.3l-.2-.2-.2-.2h-.3zm0 .1l.3.2v.5a1.5 1.5 0 0 1 0 .5.8.8 0 0 1-.1.3l-.2.2c-.1 0-.2 0-.2-.1a2.3 2.3 0 0 1 0-.3v-1.1c0-.3.1-.1.2-.1zM252.4 157.9h-.3l-.2.3a1.3 1.3 0 0 0-.1.5 3.1 3.1 0 0 0 0 .4v.3l.2.3h.3a.6.6 0 0 0 .5-.2l.2-.4a1.8 1.8 0 0 0 .1-.4 2.7 2.7 0 0 0 0-.3v-.3l-.3-.3h-.3zm0 .1c.1 0 .2.1.2.3v.8a2.7 2.7 0 0 1-.1.3v.3h-.2v-.2a1.4 1.4 0 0 1 0-.4v-.9h.2zM253.1 160h.3c.1-.1-.1-.1-.1-.2a1.1 1.1 0 0 1 0-.3v-.6a1 1 0 0 1 .1-.3c.1.1 0 .2.1.3v1.1c0 .1 0 .2.1.2s.1-.1.1-.2v-1.3 1.4c0 .5-.1.1 0 .1h.4c.1 0 .1-.1 0-.1s0-.3 0-.4v-.7a5.3 5.3 0 0 1 0-.6s.1-.1 0-.1h-.4v1.1c0-.1-.1-.2 0-.3a1.6 1.6 0 0 1 0-.3c0-.2-.1-.4-.1-.5h-.4a.7.7 0 0 1 0 .4v1.5zM255 160.2h.5c0-.1-.1-.1-.1-.2a2 2 0 0 0 0-.3V158.8a.7.7 0 0 1 0-.2h.1c0-.1-.1-.1-.2-.1h-.3l.1.1a1.1 1.1 0 0 1 0 .2 1.9 1.9 0 0 0 0 .4v.3a.7.7 0 0 0 0 .3 1.4 1.4 0 0 1 0 .3v.2zM255.6 160.3h.4a.4.4 0 0 1-.1-.3 2.9 2.9 0 0 1 0-.5 1.1 1.1 0 0 1 0-.3 1.7 1.7 0 0 1 0-.3v.2l.4 1.1c0 .1.1.2.1.2s.1-.1.1-.2.1-.2 0-.3a2.1 2.1 0 0 0 0-.3 1.2 1.2 0 0 0 0-.3 1.2 1.2 0 0 0 0-.3 1.6 1.6 0 0 1 .1-.3c0-.1.2-.1.1-.2h-.3c0 .1.1.2.1.2v.6-.6l-.2-.4h-.4c-.1.1.1.1 0 .2a1.5 1.5 0 0 1 0 .5v.3a1 1 0 0 1 0 .3v.6zM257.3 158.7c0 .1.1.1.1.2a1.5 1.5 0 0 1 0 .3v.3a3.9 3.9 0 0 0 0 .4v.7h-.1c0 .1.1.1.2.1h.3c.1 0 .1-.1 0-.1s0-.2 0-.3v-.2a2.2 2.2 0 0 1 0-.3.9.9 0 0 1 0-.2 1.6 1.6 0 0 1 0-.3 1 1 0 0 1 0-.2.2.2 0 0 1 .1-.2h-.5z"/><path class="cls-20" d="M257.9 160a1.3 1.3 0 0 0 0 .3l.2.4.2.2h.5l.2-.3c0-.1-.1 0-.2.1h-.4l-.2-.2a.9.9 0 0 1 0-.3v-.4c0-.2 0-.2.1-.3v-.3h.2l.2.2a.4.4 0 0 1 .1.3c0 .1.1.2.1.1v-.3l-.2-.2h-.6l-.2.2-.2.3v.5zM259.8 159.3l-.3.7v.3l-.2.4-.2.3c-.1 0-.1.1 0 .1h.3c.1 0 0-.1 0-.2a.5.5 0 0 1 .1-.3h.5v.4c-.1 0-.1.1 0 .1h.4a1.1 1.1 0 0 1 0-.4 2.3 2.3 0 0 0 0-.3 1.3 1.3 0 0 1 0-.3 5 5 0 0 0 0-.6v-.3h-.3zm0 .4v.9h-.3c-.1-.1.1-.2.1-.3l.2-.4z"/><path class="cls-20" d="M260.6 161.5c0-.1-.1-.2-.1-.3a1.5 1.5 0 0 1 .1-.4v-.6c0-.1.1 0 .1.1l.2.6v.8c0 .1 0 .2.2.2v-.4a1.6 1.6 0 0 1 .1-.3 4.2 4.2 0 0 1 .1-.5v-.4c0-.1.2-.1.1-.2h-.3v1.1c-.1-.1 0-.2-.1-.3v-1.1h-.3c-.1-.1-.2 0-.1.1a1.3 1.3 0 0 1 0 .6 3.7 3.7 0 0 0-.1.5v.3l-.2.2c-.1.1.1.1.2.1h.2zM262.5 160.3l-.2.4-.2.4-.4.7c-.1 0-.2.1 0 .1h.3c.1 0 0-.1 0-.2v-.3h.2c.1.1.2 0 .2.2a.9.9 0 0 1 0 .4c-.1 0-.1 0 0 .1h.4a.8.8 0 0 1 0-.3v-.4-1.3h-.3zm-.1.4v.9h-.2c-.1 0-.2-.1-.1-.1l.2-.3z"/></g></g></svg>