<svg xmlns="http://www.w3.org/2000/svg" viewBox="0 0 499.839 277.402"><path fill="#ed1c24" d="M499.839 277.402h-500v-69.445h500v69.445z"/><path fill="#034ea2" d="M499.839 207.957h-500v-69.441h500v69.441z"/><path fill="#fd0" d="M-.161 138.516h500V-.375h-500v138.891z"/><g><path fill="#5c5b3d" d="M295.495 96.406l-97.613 85.153 1.117 1.289 97.691-85.043-1.195-1.399z"/><path fill="none" stroke="#000" stroke-width=".067" d="M295.495 96.406l-97.613 85.153 1.117 1.289 97.691-85.043-1.195-1.399z"/><path fill="#5c5b3d" d="M301.729 113.539l-92.316 78.512 1.102 1.293 92.386-78.395-1.172-1.41z"/><path fill="none" stroke="#000" stroke-width=".067" d="M301.729 113.539l-92.316 78.512 1.102 1.293 92.386-78.395-1.172-1.41z"/><path fill="#5c5b3d" d="M204.14 96.406l97.605 85.153-1.121 1.289-97.688-85.043 1.204-1.399z"/><path fill="none" stroke="#000" stroke-width=".067" d="M204.14 96.406l97.605 85.153-1.121 1.289-97.688-85.043 1.204-1.399z"/><path fill="#5c5b3d" d="M197.897 113.539l92.317 78.512-1.102 1.293-92.379-78.395 1.164-1.41z"/><path fill="none" stroke="#000" stroke-width=".067" d="M197.897 113.539l92.317 78.512-1.102 1.293-92.379-78.395 1.164-1.41z"/><path fill="#eeefef" d="M209.413 192.051l-.262.82-.703-.098-3.023 3.778 4.218-2.371.02-.707.852-.129-1.102-1.293z"/><path fill="none" stroke="#000" stroke-width=".067" d="M209.413 192.051l-.262.82-.703-.098-3.023 3.778 4.218-2.371.02-.707.852-.129-1.102-1.293z"/><path fill="#eeefef" d="M197.882 181.559l-.258.828-.699-.09-2.973 3.816 4.188-2.425.007-.708.852-.132-1.117-1.289z"/><path fill="none" stroke="#000" stroke-width=".067" d="M197.882 181.559l-.258.828-.699-.09-2.973 3.816 4.188-2.425.007-.708.852-.132-1.117-1.289z"/><path d="M302.901 114.949l1.438-.402.52-1.254c.438.578.082 2.531-.672 3.113 1.113.297 2.977.047 3.871-.738.902-.789 1.484-2.551 1.371-3.695-.695.641-2.684.668-3.176.141.621-.324 2.707-1.16 3.609-1.297.316-1.477 1.582-3.824 2.535-5.145-1.453.73-3.973 1.598-5.488 1.68-.281.867-1.453 2.773-1.875 3.332l-.668-.781-1.285-.117-.031 1.262.699.781-1.398.34-.621 1.371 1.171 1.409z" fill="#eeefef"/><path d="M302.901 114.949l1.438-.402.52-1.254c.438.578.082 2.531-.672 3.113 1.113.297 2.977.047 3.871-.738.902-.789 1.484-2.551 1.371-3.695-.695.641-2.684.668-3.176.141.621-.324 2.707-1.16 3.609-1.297.316-1.477 1.582-3.824 2.535-5.145-1.453.73-3.973 1.598-5.488 1.68-.281.867-1.453 2.773-1.875 3.332l-.668-.781-1.285-.117-.031 1.262.699.781-1.398.34-.621 1.371 1.171 1.409z" fill="none" stroke="#000" stroke-width=".067"/><path d="M296.69 97.805c1.113-.922 3.602-1.973 4.5-2.125.309-1.484 1.539-3.844 2.477-5.172-1.449.746-3.957 1.641-5.469 1.742-.266.875-1.656 3.207-2.703 4.156l1.195 1.399z" fill="#eeefef"/><path d="M296.69 97.805c1.113-.922 3.602-1.973 4.5-2.125.309-1.484 1.539-3.844 2.477-5.172-1.449.746-3.957 1.641-5.469 1.742-.266.875-1.656 3.207-2.703 4.156l1.195 1.399z" fill="none" stroke="#000" stroke-width=".067"/><path d="M295.593 97.512c1.133 1.328 3.172 1.309 4.211-.441-.875.625-2.242.754-3.242-.398-.996-1.16-.691-2.488.051-3.27-1.876.792-2.157 2.788-1.02 4.109z" fill="#eeefef"/><path d="M295.593 97.512c1.133 1.328 3.172 1.309 4.211-.441-.875.625-2.242.754-3.242-.398-.996-1.16-.691-2.488.051-3.27-1.876.792-2.157 2.788-1.02 4.109z" fill="none" stroke="#000" stroke-width=".067"/><path fill="#eeefef" d="M290.214 192.051l.269.82.7-.098 3.019 3.778-4.215-2.371-.015-.707-.86-.129 1.102-1.293z"/><path fill="none" stroke="#000" stroke-width=".067" d="M290.214 192.051l.269.82.7-.098 3.019 3.778-4.215-2.371-.015-.707-.86-.129 1.102-1.293z"/><path fill="#eeefef" d="M301.745 181.559l.258.828.703-.09 2.973 3.816-4.188-2.425-.008-.708-.859-.132 1.121-1.289z"/><path fill="none" stroke="#000" stroke-width=".067" d="M301.745 181.559l.258.828.703-.09 2.973 3.816-4.188-2.425-.008-.708-.859-.132 1.121-1.289z"/><path d="M196.733 114.949l-1.438-.402-.523-1.254c-.438.578-.082 2.531.672 3.113-1.117.297-2.973.047-3.871-.738-.902-.789-1.488-2.551-1.371-3.695.699.641 2.684.668 3.176.141-.621-.324-2.707-1.16-3.605-1.297-.328-1.477-1.586-3.824-2.543-5.145 1.461.73 3.98 1.598 5.492 1.68.277.867 1.449 2.773 1.871 3.332l.676-.781 1.285-.117.027 1.262-.699.781 1.395.34.621 1.371-1.165 1.409z" fill="#eeefef"/><path d="M196.733 114.949l-1.438-.402-.523-1.254c-.438.578-.082 2.531.672 3.113-1.117.297-2.973.047-3.871-.738-.902-.789-1.488-2.551-1.371-3.695.699.641 2.684.668 3.176.141-.621-.324-2.707-1.16-3.605-1.297-.328-1.477-1.586-3.824-2.543-5.145 1.461.73 3.98 1.598 5.492 1.68.277.867 1.449 2.773 1.871 3.332l.676-.781 1.285-.117.027 1.262-.699.781 1.395.34.621 1.371-1.165 1.409z" fill="none" stroke="#000" stroke-width=".067"/><path d="M202.936 97.805c-1.109-.922-3.598-1.973-4.5-2.125-.305-1.484-1.535-3.844-2.469-5.172 1.441.746 3.953 1.641 5.465 1.742.266.875 1.656 3.207 2.707 4.156l-1.203 1.399z" fill="#eeefef"/><path d="M202.936 97.805c-1.109-.922-3.598-1.973-4.5-2.125-.305-1.484-1.535-3.844-2.469-5.172 1.441.746 3.953 1.641 5.465 1.742.266.875 1.656 3.207 2.707 4.156l-1.203 1.399z" fill="none" stroke="#000" stroke-width=".067"/><path d="M204.038 97.512c-1.133 1.328-3.172 1.309-4.211-.441.875.625 2.242.754 3.242-.398.996-1.16.691-2.488-.051-3.27 1.875.792 2.157 2.788 1.02 4.109z" fill="#eeefef"/><path d="M204.038 97.512c-1.133 1.328-3.172 1.309-4.211-.441.875.625 2.242.754 3.242-.398.996-1.16.691-2.488-.051-3.27 1.875.792 2.157 2.788 1.02 4.109z" fill="none" stroke="#000" stroke-width=".067"/><path d="M234.702 182.078c-.227 3.141-2.355 10.418-3.473 12.316-1.117 1.906-1.371 2.91 4.113 2.688-1.133 2.598-1.012 5.059.176 5.816-1.57-1.172.469-2.793 2.934-4.414 2.461-1.629 2.406-7.777 2.406-12.422l-6.156-3.984z" fill="#ffe666"/><path d="M234.702 182.078c-.227 3.141-2.355 10.418-3.473 12.316-1.117 1.906-1.371 2.91 4.113 2.688-1.133 2.598-1.012 5.059.176 5.816-1.57-1.172.469-2.793 2.934-4.414 2.461-1.629 2.406-7.777 2.406-12.422l-6.156-3.984z" fill="none" stroke="#000" stroke-width=".067"/><path d="M264.929 182.078c.219 3.141 2.352 10.418 3.473 12.316 1.117 1.906 1.371 2.91-4.117 2.688 1.137 2.598 1.02 5.059-.172 5.816 1.57-1.172-.473-2.793-2.934-4.414-2.461-1.629-2.406-7.777-2.406-12.422l6.156-3.984z" fill="#ffe666"/><path d="M264.929 182.078c.219 3.141 2.352 10.418 3.473 12.316 1.117 1.906 1.371 2.91-4.117 2.688 1.137 2.598 1.02 5.059-.172 5.816 1.57-1.172-.473-2.793-2.934-4.414-2.461-1.629-2.406-7.777-2.406-12.422l6.156-3.984z" fill="none" stroke="#000" stroke-width=".067"/><path d="M292.468 125.656l-18.695 14.777-4.59-21.07 24.07-21.012c0 10.079.223 22.266-.785 27.305z" fill="#ffe666"/><path d="M292.468 125.656l-18.695 14.777-4.59-21.07 24.07-21.012c0 10.079.223 22.266-.785 27.305z" fill="none" stroke="#000" stroke-width=".067"/><path d="M207.159 125.656l18.695 14.777 4.594-21.07-24.074-21.012c0 10.079-.219 22.266.785 27.305z" fill="#ffe666"/><path d="M207.159 125.656l18.695 14.777 4.594-21.07-24.074-21.012c0 10.079-.219 22.266.785 27.305z" fill="none" stroke="#000" stroke-width=".067"/><path d="M249.815 172.789c-3.02 6.605-13.152 11.91-25.078 15.672-4.254 1.344-10.191.562-13.77-2.348-15.863-12.891-12.707-48.312-12.707-72.266l51.555 43.844 51.555-43.844c0 23.953 3.156 59.375-12.707 72.266-3.582 2.91-9.516 3.691-13.77 2.348-11.925-3.762-22.054-9.066-25.078-15.672z" fill="#ffe666"/><path d="M249.815 172.789c-3.02 6.605-13.152 11.91-25.078 15.672-4.254 1.344-10.191.562-13.77-2.348-15.863-12.891-12.707-48.312-12.707-72.266l51.555 43.844 51.555-43.844c0 23.953 3.156 59.375-12.707 72.266-3.582 2.91-9.516 3.691-13.77 2.348-11.925-3.762-22.054-9.066-25.078-15.672z" fill="none" stroke="#000" stroke-width=".067"/><path d="M240.858 186.062c0 4.645.055 10.793-2.406 12.422-2.465 1.621-4.504 3.242-2.934 4.414.629.406 1.562.332 2.766-.441.852-.547 1.645-1.051 2.375-1.496.023 2.195-1.309 4.59 2.105 4.996-2.562-.258-2.016-1.594-.113-2.828.91-.594 1.758-1.125 2.289-1.633 1.02-.84 1.293-2.23 1.125-4.863-.168-2.629-.73-7.832-.336-11.082l-4.871.511z" fill="#007ac1"/><path d="M240.858 186.062c0 4.645.055 10.793-2.406 12.422-2.465 1.621-4.504 3.242-2.934 4.414.629.406 1.562.332 2.766-.441.852-.547 1.645-1.051 2.375-1.496.023 2.195-1.309 4.59 2.105 4.996-2.562-.258-2.016-1.594-.113-2.828.91-.594 1.758-1.125 2.289-1.633 1.02-.84 1.293-2.23 1.125-4.863-.168-2.629-.73-7.832-.336-11.082l-4.871.511z" fill="none" stroke="#000" stroke-width=".067"/><path d="M258.772 186.062c0 4.645-.055 10.793 2.406 12.422 2.461 1.621 4.504 3.242 2.934 4.414-.629.406-1.559.332-2.766-.441a137.432 137.432 0 0 0-2.371-1.496c-.027 2.195 1.301 4.59-2.109 4.996 2.562-.258 2.016-1.594.113-2.828-.918-.594-1.758-1.125-2.289-1.633-1.02-.84-1.293-2.23-1.125-4.863.172-2.629.727-7.832.336-11.082l4.871.511z" fill="#007ac1"/><path d="M258.772 186.062c0 4.645-.055 10.793 2.406 12.422 2.461 1.621 4.504 3.242 2.934 4.414-.629.406-1.559.332-2.766-.441a137.432 137.432 0 0 0-2.371-1.496c-.027 2.195 1.301 4.59-2.109 4.996 2.562-.258 2.016-1.594.113-2.828-.918-.594-1.758-1.125-2.289-1.633-1.02-.84-1.293-2.23-1.125-4.863.172-2.629.727-7.832.336-11.082l4.871.511z" fill="none" stroke="#000" stroke-width=".067"/><path d="M285.64 130.234c1.121-4.59-.672-20.602-.672-24.633l-15.449 13.477 4.477 20.461 11.644-9.305z" fill="#007ac1"/><path d="M285.64 130.234c1.121-4.59-.672-20.602-.672-24.633l-15.449 13.477 4.477 20.461 11.644-9.305z" fill="none" stroke="#000" stroke-width=".067"/><path d="M213.991 130.234c-1.121-4.59.672-20.602.672-24.633l15.449 13.477-4.48 20.461-11.641-9.305z" fill="#007ac1"/><path d="M213.991 130.234c-1.121-4.59.672-20.602.672-24.633l15.449 13.477-4.48 20.461-11.641-9.305z" fill="none" stroke="#000" stroke-width=".067"/><path d="M261.218 182.922c8.625 2.906 20.281-1.176 21.738-6.438 1.262-4.578 5.484-4.922 5.035-8.844-.445-3.918 1.457-4.699.895-9.961-.484-4.59 2.012-6.496.898-10.633-1.121-4.145 2.398-7.176.895-12.656-1.23-4.48 2.211-6.484.086-11.523l-18.559 15.777c-.559 7.84-17.414 32.285-21.551 35.645 2.238 3.539 6.379 6.395 10.563 8.633z" fill="#007ac1"/><path d="M261.218 182.922c8.625 2.906 20.281-1.176 21.738-6.438 1.262-4.578 5.484-4.922 5.035-8.844-.445-3.918 1.457-4.699.895-9.961-.484-4.59 2.012-6.496.898-10.633-1.121-4.145 2.398-7.176.895-12.656-1.23-4.48 2.211-6.484.086-11.523l-18.559 15.777c-.559 7.84-17.414 32.285-21.551 35.645 2.238 3.539 6.379 6.395 10.563 8.633z" fill="none" stroke="#000" stroke-width=".067"/><path d="M238.409 182.922c-8.621 2.906-20.277-1.176-21.73-6.438-1.266-4.578-5.488-4.922-5.039-8.844.441-3.918-1.457-4.699-.895-9.961.488-4.59-2.016-6.496-.898-10.633 1.121-4.145-2.402-7.176-.898-12.656 1.234-4.48-2.207-6.484-.082-11.523l18.559 15.777c.559 7.84 17.41 32.285 21.551 35.645-2.24 3.539-6.384 6.395-10.568 8.633z" fill="#007ac1"/><path d="M238.409 182.922c-8.621 2.906-20.277-1.176-21.73-6.438-1.266-4.578-5.488-4.922-5.039-8.844.441-3.918-1.457-4.699-.895-9.961.488-4.59-2.016-6.496-.898-10.633 1.121-4.145-2.402-7.176-.898-12.656 1.234-4.48-2.207-6.484-.082-11.523l18.559 15.777c.559 7.84 17.41 32.285 21.551 35.645-2.24 3.539-6.384 6.395-10.568 8.633z" fill="none" stroke="#000" stroke-width=".067"/><path d="M253.901 185.551c.391 3.25-.164 8.453-.336 11.082-.168 2.633.105 4.023 1.125 4.863.531.508 1.371 1.039 2.289 1.633 1.902 1.234 2.449 2.57-.113 2.828-1.121.109-7.051.867-7.051-1.152 0 2.02-5.93 1.262-7.051 1.152-2.562-.258-2.016-1.594-.113-2.828.91-.594 1.758-1.125 2.289-1.633 1.02-.84 1.293-2.23 1.125-4.863-.168-2.629-.73-7.832-.336-11.082h8.172z" fill="#ec174c"/><path d="M253.901 185.551c.391 3.25-.164 8.453-.336 11.082-.168 2.633.105 4.023 1.125 4.863.531.508 1.371 1.039 2.289 1.633 1.902 1.234 2.449 2.57-.113 2.828-1.121.109-7.051.867-7.051-1.152 0 2.02-5.93 1.262-7.051 1.152-2.562-.258-2.016-1.594-.113-2.828.91-.594 1.758-1.125 2.289-1.633 1.02-.84 1.293-2.23 1.125-4.863-.168-2.629-.73-7.832-.336-11.082h8.172z" fill="none" stroke="#000" stroke-width=".067"/><path d="M279.468 135.605c1.121-4.586-.672-20.598-.672-24.625l-9.137 7.977 4.617 19.855 5.192-3.207z" fill="#ec174c"/><path d="M279.468 135.605c1.121-4.586-.672-20.598-.672-24.625l-9.137 7.977 4.617 19.855 5.192-3.207z" fill="none" stroke="#000" stroke-width=".067"/><path d="M220.159 135.605c-1.113-4.586.676-20.598.676-24.625l9.137 7.977-4.617 19.855-5.196-3.207z" fill="#ec174c"/><path d="M220.159 135.605c-1.113-4.586.676-20.598.676-24.625l9.137 7.977-4.617 19.855-5.196-3.207z" fill="none" stroke="#000" stroke-width=".067"/><path d="M254.319 178.379c10.973 4.812 21.355-2.34 22.031-6.145.602-3.434 5.371-4.484 4.477-7.617-.898-3.133 2.465-4.477 1.566-7.5-.895-3.02 2.688-6.383 1.68-10.07-1.012-3.703 2.016-6.164.672-9.074-1.344-2.91 1.344-5.598-.672-9.398l-11.195 9.566c-.449 9.91-12.047 34.453-22.02 36.465.774 1.249 2.528 3.05 3.461 3.773z" fill="#ec174c"/><path d="M254.319 178.379c10.973 4.812 21.355-2.34 22.031-6.145.602-3.434 5.371-4.484 4.477-7.617-.898-3.133 2.465-4.477 1.566-7.5-.895-3.02 2.688-6.383 1.68-10.07-1.012-3.703 2.016-6.164.672-9.074-1.344-2.91 1.344-5.598-.672-9.398l-11.195 9.566c-.449 9.91-12.047 34.453-22.02 36.465.774 1.249 2.528 3.05 3.461 3.773z" fill="none" stroke="#000" stroke-width=".067"/><path d="M245.308 178.379c-10.969 4.812-21.355-2.34-22.023-6.145-.605-3.434-5.375-4.484-4.48-7.617.898-3.133-2.461-4.477-1.566-7.5.895-3.02-2.691-6.383-1.684-10.07 1.012-3.703-2.012-6.164-.668-9.074 1.344-2.91-1.344-5.598.668-9.398l11.199 9.566c.445 9.91 12.051 34.453 22.016 36.465-.775 1.249-2.525 3.05-3.462 3.773z" fill="#ec174c"/><path d="M245.308 178.379c-10.969 4.812-21.355-2.34-22.023-6.145-.605-3.434-5.375-4.484-4.48-7.617.898-3.133-2.461-4.477-1.566-7.5.895-3.02-2.691-6.383-1.684-10.07 1.012-3.703-2.012-6.164-.668-9.074 1.344-2.91-1.344-5.598.668-9.398l11.199 9.566c.445 9.91 12.051 34.453 22.016 36.465-.775 1.249-2.525 3.05-3.462 3.773zm-4.649 22.582c2.238-1.391 3.871-2.137 4.625-1.133.434.574.223 1.113-.344 1.668m-9.597-4.414c1.125-.027 4.699-.082 3.613.953m20.02 2.926c-2.246-1.391-3.875-2.137-4.625-1.133-.434.574-.227 1.113.34 1.668m9.593-4.414c-1.117-.027-4.703-.082-3.605.953m-10.864 6.77v-18.691" fill="none" stroke="#000" stroke-width=".067"/><path d="M249.815 171.934c-10.957 0-24.312-8.414-24.312-33.434 0-25.016 13.355-33.434 24.312-33.434s24.305 8.418 24.305 33.434c0 25.02-13.348 33.434-24.305 33.434z" fill="#a0d0f0"/><path d="M249.815 171.934c-10.957 0-24.312-8.414-24.312-33.434 0-25.016 13.355-33.434 24.312-33.434s24.305 8.418 24.305 33.434c0 25.02-13.348 33.434-24.305 33.434z" fill="none" stroke="#000" stroke-width=".067"/><path d="M273.878 144.246c.109-1.176.18-2.395.215-3.656-1.566-1.234-4.797-1.609-8.492-1.273-3.691.336-8.957-3.805-11.25-5.938l-.785-.223c-1.008-1.004-2.855-3.301-3.527-4.082-.668-.785-1.453-.84-2.238-.395-.559-.777-2.07-2.238-2.629-2.684-.48.305-2.406-.226-4.312 1.004-1.512-.844-5.211-2.125-7.109-2.688-1.957 2.41-6.043 4.871-7.723 6.105-.34 2.473-.523 5.168-.523 8.082 0 1.941.086 3.777.238 5.52 1.062-.508 2.242-.73 3.418-.453 1.176.285 4.48.34 5.375.23.895-.113 1.789.164 2.578.395.781.215 1.898.215 2.742.055.836-.172 3.027-.484 4.309-.227 2.234.449 8.449-1.117 10.91-.676 2.467.455 13.541.904 18.803.904" fill="#fff"/><path d="M273.878 144.246c.109-1.176.18-2.395.215-3.656-1.566-1.234-4.797-1.609-8.492-1.273-3.691.336-8.957-3.805-11.25-5.938l-.785-.223c-1.008-1.004-2.855-3.301-3.527-4.082-.668-.785-1.453-.84-2.238-.395-.559-.777-2.07-2.238-2.629-2.684-.48.305-2.406-.226-4.312 1.004-1.512-.844-5.211-2.125-7.109-2.688-1.957 2.41-6.043 4.871-7.723 6.105-.34 2.473-.523 5.168-.523 8.082 0 1.941.086 3.777.238 5.52 1.062-.508 2.242-.73 3.418-.453 1.176.285 4.48.34 5.375.23.895-.113 1.789.164 2.578.395.781.215 1.898.215 2.742.055.836-.172 3.027-.484 4.309-.227 2.234.449 8.449-1.117 10.91-.676 2.467.455 13.541.904 18.803.904" fill="none" stroke="#000" stroke-width=".067"/><path d="M273.878 144.246c-.449 4.867-1.469 8.977-2.895 12.422-.48-.223-1.156-.34-2.023-.25-.867.082-1.203-.25-.867-.527.336-.285.113-.539-.086-.844-.348-.555-1.789-.508-3.137-.285-1.34.227-2.855-.105-3.473-.5-.613-.387-2.234-.277-3.016-.055-1.098.312-1.457-.027-1.039-.449.422-.418.785-.562.508-.895-.281-.332-1.598-.055-2.551.504-.949.555-4.309.777-6.324.777-2.016 0-3.191-.777-.895-.832 2.293-.062 1.289-1.289 4.867-1.344 2.242-.035 4.981-.395 4.926-1.289-.055-.895-6.156-.84-8.004-.895-1.844-.055-4.895-.25-5.094-1.316-.191-1.062-1.68-1.09-2.039-2.074-.168-.449-.617-.867-1.711-1.227-1.09-.367-1.371-.816-1.172-.922.836-.172 3.027-.484 4.309-.227 2.234.449 8.449-1.117 10.91-.676 2.47.455 13.544.904 18.806.904" fill="#dff0e9"/><path d="M273.878 144.246c-.449 4.867-1.469 8.977-2.895 12.422-.48-.223-1.156-.34-2.023-.25-.867.082-1.203-.25-.867-.527.336-.285.113-.539-.086-.844-.348-.555-1.789-.508-3.137-.285-1.34.227-2.855-.105-3.473-.5-.613-.387-2.234-.277-3.016-.055-1.098.312-1.457-.027-1.039-.449.422-.418.785-.562.508-.895-.281-.332-1.598-.055-2.551.504-.949.555-4.309.777-6.324.777-2.016 0-3.191-.777-.895-.832 2.293-.062 1.289-1.289 4.867-1.344 2.242-.035 4.981-.395 4.926-1.289-.055-.895-6.156-.84-8.004-.895-1.844-.055-4.895-.25-5.094-1.316-.191-1.062-1.68-1.09-2.039-2.074-.168-.449-.617-.867-1.711-1.227-1.09-.367-1.371-.816-1.172-.922.836-.172 3.027-.484 4.309-.227 2.234.449 8.449-1.117 10.91-.676 2.47.455 13.544.904 18.806.904" fill="none" stroke="#000" stroke-width=".067"/><path d="M225.741 144.02c.809 9.246 3.672 15.789 7.488 20.211 2.184-.34 2.867-2.191 5.863-3.195 1.332-.445.535-1.008-.414-1.035-.953-.027-1.125-.082-2.074-.816-.957-.723-3.359.062-6.215-.441-.992-.176-1.062-1.008-.449-1.348.617-.332 3.645-.555 5.211-.617 1.566-.055 1.566-1.953 3.75-2.07 1.117-.051 2.629-.336 2.348-.949-.285-.617-3.301-.336-4.703-.223-1.395.109-.781-.727-1.676-.895-.895-.168-1.23-.617-.617-1.117.617-.512 2.41-.512 4.254-.566 1.848-.051 2.629-.445 2.578-1.285-.059-.844.672-1.398.445-2.016-.59-1.633-2.688-2.855-4.418-3.465-.789-.23-1.684-.508-2.578-.395-.895.109-4.199.055-5.375-.23-1.176-.279-2.355-.056-3.418.452" fill="#dff0e9"/><path d="M225.741 144.02c.809 9.246 3.672 15.789 7.488 20.211 2.184-.34 2.867-2.191 5.863-3.195 1.332-.445.535-1.008-.414-1.035-.953-.027-1.125-.082-2.074-.816-.957-.723-3.359.062-6.215-.441-.992-.176-1.062-1.008-.449-1.348.617-.332 3.645-.555 5.211-.617 1.566-.055 1.566-1.953 3.75-2.07 1.117-.051 2.629-.336 2.348-.949-.285-.617-3.301-.336-4.703-.223-1.395.109-.781-.727-1.676-.895-.895-.168-1.23-.617-.617-1.117.617-.512 2.41-.512 4.254-.566 1.848-.051 2.629-.445 2.578-1.285-.059-.844.672-1.398.445-2.016-.59-1.633-2.688-2.855-4.418-3.465-.789-.23-1.684-.508-2.578-.395-.895.109-4.199.055-5.375-.23-1.176-.279-2.355-.056-3.418.452" fill="none" stroke="#000" stroke-width=".067"/><path d="M234.73 134.895s.086 1.512-.027 2.02l-2.465 2.875c.145.09 2.52-2.605 2.52-2.605l.395 1.434-1.512 1.707-.449 1.426 2.184-2.715.336.027-.195 2.211.781-.391-.277-.414.195-1.379-1.039-1.871-.277-2.352-.17.027zM236.351 134.223l1.011 2.074-.507.832 3.246 3.082-3.583-2.965.536-.922-.703-2.101zM235.71 126.024l2.121 1.879c.062.609.422 1.281.422 1.281l1.656 1.207 1.395.922-1.316-.555-2.066-.062-.027.785.895.836-.445.73 1.512.395.055.555 2.906 3.75-1.789-1.672h-1.117l-.391-.734-.676-.055-.219.844-.617-2.633-.508-.562-.559-2.461.445.668.34-.5-.227-.5-1.062-.062-.113-.555-.781.617.672-1.629-.506-2.489zM242.257 132.879l1.906 2.129 1.063 3.187.39-.672.84-.109-2.07-2.519-2.129-2.016zM241.921 128.008l1.68-1.008 3.023 2.461.055-.781 2.297 1.906h.894l.504.894 1.062.165.395.73 1.176 4.648-.336 1.735v-1.574l-1.176-4.645-1.398-.332.054-.727-.449-.562-1.004.34-1.234-1.289-.055 1.121.781 2.855-2.625-5.093-.617.445-.453-1.063-1.117 2.575-.281-.051.898-2.641-1.008-.277-1.066.168zM256.87 135.848l2.293 1.621 2.352 2.07 1.347.391h-1.57l-2.352-1.789v.504l-1.011-.782-.387-.894-.617.332-.055-1.453zM253.058 135.227l.113-.836.566.504.387-1.067-.109 1.574-.618-.562-.339.387zM225.968 132.824l2.461-2.523.339.34.559-.45-.055-.336 1.68-1.058.559-.117 2.183-2.239.219-1.117.285 1.117-.336.395v2.348l-1.57 3.75.563 1.125-.059 2.515-.164-1.347-1.289-1.786-3.192 3.356 1.457-2.684-.054-1.011-1.231.671 3.133-3.472-.898.062.953-1.066-.618-.059-2.796 2.629-.223-.277-1.738 1.289-.168-.055zM226.472 141.551l1.179-1.281-.058-.563h.894l-2.183 2.461.168-.617z" fill="#9edcf8"/><path d="M249.815 171.934c-10.957 0-24.312-8.414-24.312-33.434 0-25.016 13.355-33.434 24.312-33.434s24.305 8.418 24.305 33.434c0 25.02-13.348 33.434-24.305 33.434v3.535c12.703 0 28.184-9.312 28.184-36.969 0-27.66-15.48-36.965-28.184-36.965s-28.184 9.305-28.184 36.965c0 27.656 15.48 36.969 28.184 36.969v-3.535zm0-33.434" fill="none" stroke="#000" stroke-width=".269"/><path d="M249.815 171.934c-10.957 0-24.312-8.414-24.312-33.434 0-25.016 13.355-33.434 24.312-33.434s24.305 8.418 24.305 33.434c0 25.02-13.348 33.434-24.305 33.434v3.535c12.703 0 28.184-9.312 28.184-36.969 0-27.66-15.48-36.965-28.184-36.965s-28.184 9.305-28.184 36.965c0 27.656 15.48 36.969 28.184 36.969v-3.535z" fill="#c3dce8" stroke="#ffe666" stroke-width=".537"/><path d="M302.183 114.934c-.367.129-1.793-.508-2.129-1.43-.332-.922.031-1.898.812-2.184.781-.285 1.688.23 2.023 1.152.337.923-.339 2.325-.706 2.462l-.332-.906c.18-.07.484-.828.324-1.285-.168-.453-.609-.703-.996-.566-.387.141-.562.621-.398 1.078.168.453.887.832 1.07.773l.332.906z" fill="#ec174c"/><path d="M302.183 114.934c-.367.129-1.793-.508-2.129-1.43-.332-.922.031-1.898.812-2.184.781-.285 1.688.23 2.023 1.152.337.923-.339 2.325-.706 2.462l-.332-.906c.18-.07.484-.828.324-1.285-.168-.453-.609-.703-.996-.566-.387.141-.562.621-.398 1.078.168.453.887.832 1.07.773l.332.906z" fill="none" stroke="#000" stroke-width=".067"/><path d="M300.054 132.16c.535.055.676-.605.801-1.797l1.559-14.438c.129-1.203.137-1.875-.395-1.934-.531-.055-.668.602-.797 1.805l-1.559 14.438c-.129 1.2-.133 1.871.391 1.926z" fill="#ec174c"/><path d="M300.054 132.16c.535.055.676-.605.801-1.797l1.559-14.438c.129-1.203.137-1.875-.395-1.934-.531-.055-.668.602-.797 1.805l-1.559 14.438c-.129 1.2-.133 1.871.391 1.926z" fill="none" stroke="#000" stroke-width=".067"/><path d="M300.768 135.355c.148-1.398-.086-3.129-.715-3.195-.617-.066-1.215 1.574-1.367 2.969-.062.578 2.016.816 2.082.226z" fill="#ec174c"/><path d="M300.768 135.355c.148-1.398-.086-3.129-.715-3.195-.617-.066-1.215 1.574-1.367 2.969-.062.578 2.016.816 2.082.226z" fill="none" stroke="#000" stroke-width=".067"/><path d="M300.175 131.117c-.961-.102-1.156 1.668-.195 1.77.96.101 1.163-1.668.195-1.77z" fill="#ec174c"/><path d="M300.175 131.117c-.961-.102-1.156 1.668-.195 1.77.96.101 1.163-1.668.195-1.77z" fill="none" stroke="#000" stroke-width=".067"/><path d="M294.37 98.402c-.336.121-1.645-.469-1.953-1.324-.309-.84.023-1.742.742-2.008.723-.266 1.555.219 1.863 1.066.313.841-.312 2.138-.652 2.266l-.301-.844c.168-.059.449-.758.297-1.172-.152-.422-.562-.656-.918-.523-.355.121-.52.57-.363.984.152.422.816.773.984.711l.301.844z" fill="#ec174c"/><path d="M294.37 98.402c-.336.121-1.645-.469-1.953-1.324-.309-.84.023-1.742.742-2.008.723-.266 1.555.219 1.863 1.066.313.841-.312 2.138-.652 2.266l-.301-.844c.168-.059.449-.758.297-1.172-.152-.422-.562-.656-.918-.523-.355.121-.52.57-.363.984.152.422.816.773.984.711l.301.844z" fill="none" stroke="#000" stroke-width=".067"/><path d="M292.417 114.262c.492.055.617-.555.738-1.652l1.434-13.301c.117-1.105.125-1.723-.367-1.777-.492-.055-.617.559-.734 1.656l-1.434 13.297c-.121 1.105-.125 1.722.363 1.777z" fill="#ec174c"/><path d="M292.417 114.262c.492.055.617-.555.738-1.652l1.434-13.301c.117-1.105.125-1.723-.367-1.777-.492-.055-.617.559-.734 1.656l-1.434 13.297c-.121 1.105-.125 1.722.363 1.777z" fill="none" stroke="#000" stroke-width=".067"/><path d="M293.069 117.207c.141-1.289-.082-2.883-.652-2.945-.57-.059-1.125 1.453-1.262 2.734-.058.528 1.856.754 1.914.211z" fill="#ec174c"/><path d="M293.069 117.207c.141-1.289-.082-2.883-.652-2.945-.57-.059-1.125 1.453-1.262 2.734-.058.528 1.856.754 1.914.211z" fill="none" stroke="#000" stroke-width=".067"/><path d="M292.522 113.301c-.883-.098-1.059 1.531-.176 1.633.883.09 1.071-1.539.176-1.633z" fill="#ec174c"/><path d="M292.522 113.301c-.883-.098-1.059 1.531-.176 1.633.883.09 1.071-1.539.176-1.633z" fill="none" stroke="#000" stroke-width=".067"/><path d="M197.448 114.934c.367.129 1.785-.508 2.125-1.43.336-.922-.027-1.898-.805-2.184-.785-.285-1.695.23-2.027 1.152-.336.923.34 2.325.707 2.462l.332-.906c-.18-.07-.488-.828-.324-1.285.164-.453.613-.703.996-.566.387.141.562.621.395 1.078-.16.453-.887.832-1.066.773l-.333.906z" fill="#ec174c"/><path d="M197.448 114.934c.367.129 1.785-.508 2.125-1.43.336-.922-.027-1.898-.805-2.184-.785-.285-1.695.23-2.027 1.152-.336.923.34 2.325.707 2.462l.332-.906c-.18-.07-.488-.828-.324-1.285.164-.453.613-.703.996-.566.387.141.562.621.395 1.078-.16.453-.887.832-1.066.773l-.333.906z" fill="none" stroke="#000" stroke-width=".067"/><path d="M199.569 132.16c-.531.055-.672-.605-.797-1.797l-1.562-14.438c-.125-1.203-.133-1.875.402-1.934.535-.055.668.602.797 1.805l1.562 14.438c.13 1.2.134 1.871-.402 1.926z" fill="#ec174c"/><path d="M199.569 132.16c-.531.055-.672-.605-.797-1.797l-1.562-14.438c-.125-1.203-.133-1.875.402-1.934.535-.055.668.602.797 1.805l1.562 14.438c.13 1.2.134 1.871-.402 1.926z" fill="none" stroke="#000" stroke-width=".067"/><path d="M198.866 135.355c-.152-1.398.082-3.129.703-3.195.625-.066 1.227 1.574 1.375 2.969.063.578-2.019.816-2.078.226z" fill="#ec174c"/><path d="M198.866 135.355c-.152-1.398.082-3.129.703-3.195.625-.066 1.227 1.574 1.375 2.969.063.578-2.019.816-2.078.226z" fill="none" stroke="#000" stroke-width=".067"/><path d="M199.46 131.117c.957-.102 1.148 1.668.191 1.77-.961.101-1.168-1.668-.191-1.77z" fill="#ec174c"/><path d="M199.46 131.117c.957-.102 1.148 1.668.191 1.77-.961.101-1.168-1.668-.191-1.77z" fill="none" stroke="#000" stroke-width=".067"/><path d="M205.261 98.402c.34.121 1.645-.469 1.953-1.324.309-.84-.023-1.742-.746-2.008-.719-.266-1.555.219-1.863 1.066-.309.841.316 2.138.656 2.266l.301-.844c-.164-.059-.445-.758-.293-1.172.149-.422.559-.656.914-.523.352.121.52.57.367.984-.152.422-.82.773-.988.711l-.301.844z" fill="#ec174c"/><path d="M205.261 98.402c.34.121 1.645-.469 1.953-1.324.309-.84-.023-1.742-.746-2.008-.719-.266-1.555.219-1.863 1.066-.309.841.316 2.138.656 2.266l.301-.844c-.164-.059-.445-.758-.293-1.172.149-.422.559-.656.914-.523.352.121.52.57.367.984-.152.422-.82.773-.988.711l-.301.844z" fill="none" stroke="#000" stroke-width=".067"/><path d="M207.214 114.262c-.492.055-.617-.555-.738-1.652l-1.438-13.301c-.113-1.105-.121-1.723.371-1.777.488-.055.617.559.734 1.656l1.438 13.297c.117 1.105.121 1.722-.367 1.777z" fill="#ec174c"/><path d="M207.214 114.262c-.492.055-.617-.555-.738-1.652l-1.438-13.301c-.113-1.105-.121-1.723.371-1.777.488-.055.617.559.734 1.656l1.438 13.297c.117 1.105.121 1.722-.367 1.777z" fill="none" stroke="#000" stroke-width=".067"/><path d="M206.558 117.207c-.137-1.289.082-2.883.656-2.945.57-.059 1.125 1.453 1.266 2.734.054.528-1.864.754-1.922.211z" fill="#ec174c"/><path d="M206.558 117.207c-.137-1.289.082-2.883.656-2.945.57-.059 1.125 1.453 1.266 2.734.054.528-1.864.754-1.922.211z" fill="none" stroke="#000" stroke-width=".067"/><path d="M207.105 113.301c.883-.098 1.066 1.531.18 1.633-.884.09-1.071-1.539-.18-1.633z" fill="#ec174c"/><path d="M207.105 113.301c.883-.098 1.066 1.531.18 1.633-.884.09-1.071-1.539-.18-1.633z" fill="none" stroke="#000" stroke-width=".067"/><path d="M302.815 114.676c.121.375-.578 1.77-1.512 2.062-.934.297-1.898-.102-2.148-.902-.254-.785.301-1.676 1.234-1.965.934-.301 2.309.434 2.426.805l-.918.293c-.059-.184-.812-.523-1.266-.375-.457.152-.734.586-.609.973s.598.59 1.055.438c.461-.141.875-.848.82-1.035l.918-.294z" fill="#007ac1"/><path d="M302.815 114.676c.121.375-.578 1.77-1.512 2.062-.934.297-1.898-.102-2.148-.902-.254-.785.301-1.676 1.234-1.965.934-.301 2.309.434 2.426.805l-.918.293c-.059-.184-.812-.523-1.266-.375-.457.152-.734.586-.609.973s.598.59 1.055.438c.461-.141.875-.848.82-1.035l.918-.294z" fill="none" stroke="#000" stroke-width=".067"/><path d="M302.979 132.492c.539-.012.582-.691.535-1.891l-.547-14.516c-.043-1.207-.141-1.871-.676-1.852-.535.023-.574.691-.527 1.895l.543 14.52c.051 1.2.137 1.864.672 1.844z" fill="#007ac1"/><path d="M302.979 132.492c.539-.012.582-.691.535-1.891l-.547-14.516c-.043-1.207-.141-1.871-.676-1.852-.535.023-.574.691-.527 1.895l.543 14.52c.051 1.2.137 1.864.672 1.844z" fill="none" stroke="#000" stroke-width=".067"/><path d="M304.143 135.559c-.051-1.406-.539-3.086-1.164-3.066-.621.027-.98 1.734-.926 3.141.024.573 2.114.514 2.09-.075z" fill="#007ac1"/><path d="M304.143 135.559c-.051-1.406-.539-3.086-1.164-3.066-.621.027-.98 1.734-.926 3.141.024.573 2.114.514 2.09-.075z" fill="none" stroke="#000" stroke-width=".067"/><path d="M302.944 131.441c-.969.039-.898 1.824.062 1.781.97-.031.915-1.816-.062-1.781z" fill="#007ac1"/><path d="M302.944 131.441c-.969.039-.898 1.824.062 1.781.97-.031.915-1.816-.062-1.781z" fill="none" stroke="#000" stroke-width=".067"/><path d="M302.093 113.781c-.992 0-.992 1.48 0 1.48.988.001 1.004-1.48 0-1.48z" fill="#007ac1"/><path d="M302.093 113.781c-.992 0-.992 1.48 0 1.48.988.001 1.004-1.48 0-1.48z" fill="none" stroke="#000" stroke-width=".067"/><path d="M294.956 98.164c.109.344-.535 1.625-1.395 1.898-.859.277-1.742-.094-1.973-.828-.234-.73.273-1.547 1.133-1.816.864-.273 2.126.398 2.235.746l-.844.269c-.055-.168-.746-.48-1.172-.344-.418.129-.668.535-.551.887.109.359.543.543.969.414.422-.137.805-.785.754-.957l.844-.269z" fill="#007ac1"/><path d="M294.956 98.164c.109.344-.535 1.625-1.395 1.898-.859.277-1.742-.094-1.973-.828-.234-.73.273-1.547 1.133-1.816.864-.273 2.126.398 2.235.746l-.844.269c-.055-.168-.746-.48-1.172-.344-.418.129-.668.535-.551.887.109.359.543.543.969.414.422-.137.805-.785.754-.957l.844-.269z" fill="none" stroke="#000" stroke-width=".067"/><path d="M295.112 114.574c.488-.02.531-.637.488-1.75l-.504-13.367c-.043-1.105-.129-1.723-.621-1.699-.492.02-.531.637-.488 1.742l.504 13.367c.043 1.11.125 1.723.621 1.707z" fill="#007ac1"/><path d="M295.112 114.574c.488-.02.531-.637.488-1.75l-.504-13.367c-.043-1.105-.129-1.723-.621-1.699-.492.02-.531.637-.488 1.742l.504 13.367c.043 1.11.125 1.723.621 1.707z" fill="none" stroke="#000" stroke-width=".067"/><path d="M296.183 117.391c-.047-1.297-.496-2.836-1.07-2.816-.578.02-.91 1.594-.859 2.891.018.526 1.948.472 1.929-.075z" fill="#007ac1"/><path d="M296.183 117.391c-.047-1.297-.496-2.836-1.07-2.816-.578.02-.91 1.594-.859 2.891.018.526 1.948.472 1.929-.075z" fill="none" stroke="#000" stroke-width=".067"/><path d="M295.073 113.606c-.887.035-.824 1.676.062 1.641.887-.036.837-1.684-.062-1.641z" fill="#007ac1"/><path d="M295.073 113.606c-.887.035-.824 1.676.062 1.641.887-.036.837-1.684-.062-1.641z" fill="none" stroke="#000" stroke-width=".067"/><path d="M294.292 97.344c-.91 0-.91 1.355 0 1.355s.926-1.355 0-1.355z" fill="#007ac1"/><path d="M294.292 97.344c-.91 0-.91 1.355 0 1.355s.926-1.355 0-1.355z" fill="none" stroke="#000" stroke-width=".067"/><path d="M196.815 114.676c-.121.375.578 1.77 1.516 2.062.93.297 1.891-.102 2.145-.902.254-.785-.301-1.676-1.238-1.965-.934-.301-2.305.434-2.423.805l.918.293c.059-.184.805-.523 1.266-.375.461.152.731.586.609.973-.125.387-.602.59-1.059.438-.457-.141-.871-.848-.816-1.035l-.918-.294z" fill="#007ac1"/><path d="M196.815 114.676c-.121.375.578 1.77 1.516 2.062.93.297 1.891-.102 2.145-.902.254-.785-.301-1.676-1.238-1.965-.934-.301-2.305.434-2.423.805l.918.293c.059-.184.805-.523 1.266-.375.461.152.731.586.609.973-.125.387-.602.59-1.059.438-.457-.141-.871-.848-.816-1.035l-.918-.294z" fill="none" stroke="#000" stroke-width=".067"/><path d="M196.647 132.492c-.531-.012-.578-.691-.527-1.891l.543-14.516c.047-1.207.141-1.871.676-1.852.535.023.574.691.531 1.895l-.551 14.52c-.047 1.2-.136 1.864-.672 1.844z" fill="#007ac1"/><path d="M196.647 132.492c-.531-.012-.578-.691-.527-1.891l.543-14.516c.047-1.207.141-1.871.676-1.852.535.023.574.691.531 1.895l-.551 14.52c-.047 1.2-.136 1.864-.672 1.844z" fill="none" stroke="#000" stroke-width=".067"/><path d="M195.483 135.559c.051-1.406.539-3.086 1.164-3.066.625.027.984 1.734.934 3.141-.023.573-2.117.514-2.098-.075z" fill="#007ac1"/><path d="M195.483 135.559c.051-1.406.539-3.086 1.164-3.066.625.027.984 1.734.934 3.141-.023.573-2.117.514-2.098-.075z" fill="none" stroke="#000" stroke-width=".067"/><path d="M196.686 131.441c.965.039.898 1.824-.066 1.781-.961-.031-.91-1.816.066-1.781z" fill="#007ac1"/><path d="M196.686 131.441c.965.039.898 1.824-.066 1.781-.961-.031-.91-1.816.066-1.781z" fill="none" stroke="#000" stroke-width=".067"/><path d="M197.538 113.781c.988 0 .988 1.48 0 1.48-.988.001-1.004-1.48 0-1.48z" fill="#007ac1"/><path d="M197.538 113.781c.988 0 .988 1.48 0 1.48-.988.001-1.004-1.48 0-1.48z" fill="none" stroke="#000" stroke-width=".067"/><path d="M204.675 98.164c-.113.344.535 1.625 1.391 1.898.859.277 1.75-.094 1.977-.828.234-.73-.274-1.547-1.133-1.816-.864-.273-2.13.398-2.235.746l.848.269c.055-.168.742-.48 1.164-.344.418.129.672.535.559.887-.113.359-.551.543-.973.414-.422-.137-.805-.785-.75-.957l-.848-.269z" fill="#007ac1"/><path d="M204.675 98.164c-.113.344.535 1.625 1.391 1.898.859.277 1.75-.094 1.977-.828.234-.73-.274-1.547-1.133-1.816-.864-.273-2.13.398-2.235.746l.848.269c.055-.168.742-.48 1.164-.344.418.129.672.535.559.887-.113.359-.551.543-.973.414-.422-.137-.805-.785-.75-.957l-.848-.269z" fill="none" stroke="#000" stroke-width=".067"/><path d="M204.515 114.574c-.484-.02-.531-.637-.48-1.75l.5-13.367c.043-1.105.125-1.723.617-1.699.5.02.531.637.492 1.742l-.504 13.367c-.043 1.11-.125 1.723-.625 1.707z" fill="#007ac1"/><path d="M204.515 114.574c-.484-.02-.531-.637-.48-1.75l.5-13.367c.043-1.105.125-1.723.617-1.699.5.02.531.637.492 1.742l-.504 13.367c-.043 1.11-.125 1.723-.625 1.707z" fill="none" stroke="#000" stroke-width=".067"/><path d="M203.448 117.391c.047-1.297.496-2.836 1.066-2.816.574.02.91 1.594.859 2.891-.015.526-1.944.472-1.925-.075z" fill="#007ac1"/><path d="M203.448 117.391c.047-1.297.496-2.836 1.066-2.816.574.02.91 1.594.859 2.891-.015.526-1.944.472-1.925-.075z" fill="none" stroke="#000" stroke-width=".067"/><path d="M204.554 113.606c.891.035.828 1.676-.059 1.641-.887-.036-.84-1.684.059-1.641z" fill="#007ac1"/><path d="M204.554 113.606c.891.035.828 1.676-.059 1.641-.887-.036-.84-1.684.059-1.641z" fill="none" stroke="#000" stroke-width=".067"/><path d="M205.343 97.344c.906 0 .906 1.355 0 1.355-.914 0-.926-1.355 0-1.355z" fill="#007ac1"/><path d="M205.343 97.344c.906 0 .906 1.355 0 1.355-.914 0-.926-1.355 0-1.355z" fill="none" stroke="#000" stroke-width=".067"/><path d="M281.159 181.801h-55.305v-1.457h55.305c.258 0 .242 1.457 0 1.457z" fill="#5c5b3d"/><path d="M281.159 181.801h-55.305v-1.457h55.305c.258 0 .242 1.457 0 1.457z" fill="none" stroke="#000" stroke-width=".067"/><path d="M225.855 180.344v1.457l-2.152 2.91-2.152-3.16-2.582 1.199-3.691-1.676 3.691-1.68 2.582 1.207c0-.59.727-1.207 1.09-1.484 0-2.938-2.605-4.09-4.898-2.91.391-2.184 3.746-2.918 5.984-2.918 2.242 0 5.602.734 5.996 2.918-2.297-1.18-4.902-.027-4.902 2.91.365.141 1.034.59 1.034 1.227z" fill="#eeefef"/><path d="M225.855 180.344v1.457l-2.152 2.91-2.152-3.16-2.582 1.199-3.691-1.676 3.691-1.68 2.582 1.207c0-.59.727-1.207 1.09-1.484 0-2.938-2.605-4.09-4.898-2.91.391-2.184 3.746-2.918 5.984-2.918 2.242 0 5.602.734 5.996 2.918-2.297-1.18-4.902-.027-4.902 2.91.365.141 1.034.59 1.034 1.227z" fill="none" stroke="#000" stroke-width=".067"/><path d="M226.101 181.129c0 1.277-.691 1.77-2.41 1.77-1.719 0-2.414-.492-2.414-1.77 0-1.273.695-1.77 2.414-1.77 1.718 0 2.41.496 2.41 1.77z" fill="#eeefef"/><path d="M226.101 181.129c0 1.277-.691 1.77-2.41 1.77-1.719 0-2.414-.492-2.414-1.77 0-1.273.695-1.77 2.414-1.77 1.718 0 2.41.496 2.41 1.77z" fill="none" stroke="#000" stroke-width=".067"/><path d="M231.468 187.012h36.484c.785 0 1.457-3.305 1.457-5.488 0-2.184-.672-5.484-1.457-5.484h-36.496c-.785 0-1.457 3.301-1.457 5.484s.687 5.488 1.469 5.488z" fill="#5c5b3d"/><path d="M231.468 187.012h36.484c.785 0 1.457-3.305 1.457-5.488 0-2.184-.672-5.484-1.457-5.484h-36.496c-.785 0-1.457 3.301-1.457 5.484s.687 5.488 1.469 5.488zm-.692-1.168h37.844m-38.293-1.731h38.742m-38.957-1.726h39.168m-39.207-1.723h39.242m-38.996-1.73h38.754m-38.32-1.731h37.891" fill="none" stroke="#000" stroke-width=".067"/><path fill="#d0ce12" d="M248.39 187.316v-11.558h-2.41v11.558h2.41z"/><path fill="none" stroke="#000" stroke-width=".067" d="M248.39 187.316v-11.558h-2.41v11.558h2.41z"/><path d="M231.401 181.523c0-2.293.707-5.766 1.531-5.766h2.41c.113 0 .227.152.281.281l-.68-.008c-.641.848-1.137 3.578-1.137 5.492 0 1.914.496 4.645 1.137 5.492l.68-.004c-.055.121-.168.305-.281.305h-2.41c-.824.001-1.531-3.499-1.531-5.792z" fill="#d0ce12"/><path d="M231.401 181.523c0-2.293.707-5.766 1.531-5.766h2.41c.113 0 .227.152.281.281l-.68-.008c-.641.848-1.137 3.578-1.137 5.492 0 1.914.496 4.645 1.137 5.492l.68-.004c-.055.121-.168.305-.281.305h-2.41c-.824.001-1.531-3.499-1.531-5.792z" fill="none" stroke="#000" stroke-width=".067"/><path d="M235.105 175.758h1.332c2.102 3.25 5.992 8.172 9.543 10.305v1.254h-.926c-4.422-2.301-7.668-6.805-10.266-11 .121-.227.219-.43.317-.559z" fill="#d0ce12"/><path d="M235.105 175.758h1.332c2.102 3.25 5.992 8.172 9.543 10.305v1.254h-.926c-4.422-2.301-7.668-6.805-10.266-11 .121-.227.219-.43.317-.559z" fill="none" stroke="#000" stroke-width=".067"/><path d="M235.105 187.316h1.332c2.102-3.25 5.992-8.199 9.543-10.328v-1.23h-.926c-4.422 2.301-7.668 6.77-10.266 10.969.121.23.219.461.317.589z" fill="#d0ce12"/><path d="M235.105 187.316h1.332c2.102-3.25 5.992-8.199 9.543-10.328v-1.23h-.926c-4.422 2.301-7.668 6.77-10.266 10.969.121.23.219.461.317.589z" fill="none" stroke="#000" stroke-width=".067"/><path fill="#d0ce12" d="M251.245 187.316v-11.558h2.406v11.558h-2.406z"/><path fill="none" stroke="#000" stroke-width=".067" d="M251.245 187.316v-11.558h2.406v11.558h-2.406z"/><path d="M268.233 181.523c0-2.293-.715-5.766-1.535-5.766h-2.414c-.113 0-.227.152-.277.281l.68-.008c.641.848 1.137 3.578 1.137 5.492 0 1.914-.496 4.645-1.137 5.492l-.68-.004c.051.121.164.305.277.305h2.414c.82.001 1.535-3.499 1.535-5.792z" fill="#d0ce12"/><path d="M268.233 181.523c0-2.293-.715-5.766-1.535-5.766h-2.414c-.113 0-.227.152-.277.281l.68-.008c.641.848 1.137 3.578 1.137 5.492 0 1.914-.496 4.645-1.137 5.492l-.68-.004c.051.121.164.305.277.305h2.414c.82.001 1.535-3.499 1.535-5.792z" fill="none" stroke="#000" stroke-width=".067"/><path d="M264.522 175.758h-1.328c-2.102 3.25-5.988 8.172-9.543 10.305v1.254h.922c4.422-2.301 7.668-6.805 10.27-11-.125-.227-.223-.43-.321-.559z" fill="#d0ce12"/><path d="M264.522 175.758h-1.328c-2.102 3.25-5.988 8.172-9.543 10.305v1.254h.922c4.422-2.301 7.668-6.805 10.27-11-.125-.227-.223-.43-.321-.559z" fill="none" stroke="#000" stroke-width=".067"/><path d="M264.522 187.316h-1.328c-2.102-3.25-5.988-8.199-9.543-10.328v-1.23h.922c4.422 2.301 7.668 6.77 10.27 10.969-.125.23-.223.461-.321.589z" fill="#d0ce12"/><path d="M264.522 187.316h-1.328c-2.102-3.25-5.988-8.199-9.543-10.328v-1.23h.922c4.422 2.301 7.668 6.77 10.27 10.969-.125.23-.223.461-.321.589z" fill="none" stroke="#000" stroke-width=".067"/><path d="M289.604 123.867c-.223-8.844-.758-17.551-3.895-25.949 1.621 9.016 2.902 23.832 2.562 27.082l1.333-1.133z" fill="#008256"/><path d="M289.604 123.867c-.223-8.844-.758-17.551-3.895-25.949 1.621 9.016 2.902 23.832 2.562 27.082l1.333-1.133z" fill="none" stroke="#000" stroke-width=".067"/><path d="M288.272 125c-.84-11.359-2.336-20.422-5.246-26.078 2.18 8.449 4.055 19.852 4.273 26.902l.973-.824z" fill="#008256"/><path d="M288.272 125c-.84-11.359-2.336-20.422-5.246-26.078 2.18 8.449 4.055 19.852 4.273 26.902l.973-.824z" fill="none" stroke="#000" stroke-width=".067"/><path d="M288.272 125c-1.898-10.355-4.801-21.148-9.613-27.867 3.473 7.84 8.254 22.652 8.25 29.023l1.363-1.156z" fill="#008256"/><path d="M288.272 125c-1.898-10.355-4.801-21.148-9.613-27.867 3.473 7.84 8.254 22.652 8.25 29.023l1.363-1.156z" fill="none" stroke="#000" stroke-width=".067"/><path d="M287.3 125.824c-1.566-10.301-6.906-22.258-13.23-29.141 4.477 6.606 11.176 21.762 12.238 29.988l.992-.847z" fill="#008256"/><path d="M287.3 125.824c-1.566-10.301-6.906-22.258-13.23-29.141 4.477 6.606 11.176 21.762 12.238 29.988l.992-.847z" fill="none" stroke="#000" stroke-width=".067"/><path d="M284.245 128.422c-2.117-5.254-8.051-15.055-12.754-19.312 7.051 5.602 11.895 13.359 13.574 18.621l-.82.691z" fill="#008256"/><path d="M284.245 128.422c-2.117-5.254-8.051-15.055-12.754-19.312 7.051 5.602 11.895 13.359 13.574 18.621l-.82.691z" fill="none" stroke="#000" stroke-width=".067"/><path d="M285.065 127.731c-2.801-6.715-8.199-16.043-13.348-21.199 6.941 6.051 11.855 13.766 14.32 20.371l-.972.828z" fill="#008256"/><path d="M285.065 127.731c-2.801-6.715-8.199-16.043-13.348-21.199 6.941 6.051 11.855 13.766 14.32 20.371l-.972.828z" fill="none" stroke="#000" stroke-width=".067"/><path d="M285.679 127.211c-2.801-7.504-8.926-18.773-13.293-23.473 7.281 6.496 11.641 14.863 14.324 22.59l-1.031.883z" fill="#008256"/><path d="M285.679 127.211c-2.801-7.504-8.926-18.773-13.293-23.473 7.281 6.496 11.641 14.863 14.324 22.59l-1.031.883z" fill="none" stroke="#000" stroke-width=".067"/><path d="M286.038 126.902c-4.59-13.094-10.402-23.387-14.32-27.754 7.277 5.152 13.68 21.414 15.191 27.008l-.871.746z" fill="#008256"/><path d="M286.038 126.902c-4.59-13.094-10.402-23.387-14.32-27.754 7.277 5.152 13.68 21.414 15.191 27.008l-.871.746z" fill="none" stroke="#000" stroke-width=".067"/><path d="M215.226 117.383c.32-2.355-.395-3.898-2.953-5.824 1.852-.523 3.859 1.024 3.355 4.59" fill="#008256"/><path d="M215.226 117.383c.32-2.355-.395-3.898-2.953-5.824 1.852-.523 3.859 1.024 3.355 4.59" fill="none" stroke="#000" stroke-width=".067"/><path d="M218.077 120.231c2.176-1.465 3.02-3.27 4.234-4.781 1.219-1.512 2.398-2.848 5.547-2.977-1.453 2.34-2.465 3.973-5.266 5.148-1.766.731-4.312 2.867-5.18 3.602l.665-.992z" fill="#008256"/><path d="M218.077 120.231c2.176-1.465 3.02-3.27 4.234-4.781 1.219-1.512 2.398-2.848 5.547-2.977-1.453 2.34-2.465 3.973-5.266 5.148-1.766.731-4.312 2.867-5.18 3.602l.665-.992z" fill="none" stroke="#000" stroke-width=".067"/><path d="M214.472 124.652c3.496-2.66 4.703-3.379 5.5-4.613.801-1.227 2.164-2.481 5.566-2.805-1.641 3.039-4.312 4.23-6.152 4.801-1.852.582-3.941 2.266-5.023 3.926" fill="#008256"/><path d="M214.472 124.652c3.496-2.66 4.703-3.379 5.5-4.613.801-1.227 2.164-2.481 5.566-2.805-1.641 3.039-4.312 4.23-6.152 4.801-1.852.582-3.941 2.266-5.023 3.926" fill="none" stroke="#000" stroke-width=".067"/><path d="M217.19 120.348c2.281-3.738 5.539-2.523 7.148.711-1.995-.137-3.46-3.614-7.148-.711z" fill="#008256"/><path d="M217.19 120.348c2.281-3.738 5.539-2.523 7.148.711-1.995-.137-3.46-3.614-7.148-.711z" fill="none" stroke="#000" stroke-width=".067"/><path d="M214.655 120.395c-.043-3.832 1.613-8.449 2.82-10.473.965-1.613 1.312-2.09 1.234-3.145-.254-3.234 1.773-5.883 2.191-8.758.656 3.305.336 6.504-1.527 9.121 3.789-5.172 7.059-3.906 8.488-5.504-.797 5.188-6.809 3.023-8.996 6.809-1.797 3.113-3.902 7.785-3.906 14.73-.237-.53-.437-2.089-.304-2.78z" fill="#008256"/><path d="M214.655 120.395c-.043-3.832 1.613-8.449 2.82-10.473.965-1.613 1.312-2.09 1.234-3.145-.254-3.234 1.773-5.883 2.191-8.758.656 3.305.336 6.504-1.527 9.121 3.789-5.172 7.059-3.906 8.488-5.504-.797 5.188-6.809 3.023-8.996 6.809-1.797 3.113-3.902 7.785-3.906 14.73-.237-.53-.437-2.089-.304-2.78z" fill="none" stroke="#000" stroke-width=".067"/><path d="M218.487 115.551c2.16-4.23 5.699-6.949 7.551-8.367 1.848-1.426 3.047-2.652 3.816-4.109.773-1.453 2.406-3.645 3.938-4.008-.504 1.309-1.824 2.887-3.094 3.953-1.273 1.07-2.086 3.094-4.938 5.039-2.656 1.816-4.773 4.121-6.559 7.344l-.714.148z" fill="#008256"/><path d="M218.487 115.551c2.16-4.23 5.699-6.949 7.551-8.367 1.848-1.426 3.047-2.652 3.816-4.109.773-1.453 2.406-3.645 3.938-4.008-.504 1.309-1.824 2.887-3.094 3.953-1.273 1.07-2.086 3.094-4.938 5.039-2.656 1.816-4.773 4.121-6.559 7.344l-.714.148z" fill="none" stroke="#000" stroke-width=".067"/><path d="M229.226 104.34c.098-1.879.348-3.43 1.57-5.344-.031 1.473-.691 3.82-1.137 4.723 1.914-1.324 4.598-1.949 6.492-1.289-2.137.949-5.93.879-7 2.203" fill="#008256"/><path d="M229.226 104.34c.098-1.879.348-3.43 1.57-5.344-.031 1.473-.691 3.82-1.137 4.723 1.914-1.324 4.598-1.949 6.492-1.289-2.137.949-5.93.879-7 2.203" fill="none" stroke="#000" stroke-width=".067"/><path d="M214.78 120.941c.82-4.168 2.875-6.582 3.852-8.176.977-1.594 4.066-3.914 7.594-3.297-1.809 1.758-7.43 3.223-9.273 6.902-1.832 3.676-1.777 4.973-2.242 7.062l.069-2.491z" fill="#008256"/><path d="M214.78 120.941c.82-4.168 2.875-6.582 3.852-8.176.977-1.594 4.066-3.914 7.594-3.297-1.809 1.758-7.43 3.223-9.273 6.902-1.832 3.676-1.777 4.973-2.242 7.062l.069-2.491z" fill="none" stroke="#000" stroke-width=".067"/><path d="M215.19 110.559c-.184-2.738-1.133-6.965-3.883-8.191.079 2.359 1.02 6.132 3.883 8.191z" fill="#008256"/><path d="M215.19 110.559c-.184-2.738-1.133-6.965-3.883-8.191.079 2.359 1.02 6.132 3.883 8.191z" fill="none" stroke="#000" stroke-width=".067"/><path d="M215.48 115.43c-.137-2.801-.863-4.219-1.188-5.656-1.082-4.945 1-7.133.258-8.953 2.465 2.898 2.402 7.25 1.852 9.523-.555 2.277-.617 2.68-.516 3.852" fill="#008256"/><path d="M215.48 115.43c-.137-2.801-.863-4.219-1.188-5.656-1.082-4.945 1-7.133.258-8.953 2.465 2.898 2.402 7.25 1.852 9.523-.555 2.277-.617 2.68-.516 3.852" fill="none" stroke="#000" stroke-width=".067"/><path d="M219.198 107.102c.949-1.418 2.176-3.27 2.75-4.531.566-1.262 2.672-4.633 6.473-5.352-2.633 4.062-6.5 7.332-7.785 8.742-1.285 1.406-1.926 2.566-1.438 1.141z" fill="#008256"/><path d="M219.198 107.102c.949-1.418 2.176-3.27 2.75-4.531.566-1.262 2.672-4.633 6.473-5.352-2.633 4.062-6.5 7.332-7.785 8.742-1.285 1.406-1.926 2.566-1.438 1.141z" fill="none" stroke="#000" stroke-width=".067"/><path d="M214.612 124.863c1.918-3.996.758-8.762 6.344-11.699-1.613 3.168 1.785 3.344-6.344 11.699z" fill="#008256"/><path d="M214.612 124.863c1.918-3.996.758-8.762 6.344-11.699-1.613 3.168 1.785 3.344-6.344 11.699z" fill="none" stroke="#000" stroke-width=".067"/><path d="M214.257 127.445c2.527-2.691 5.867-.988 8.387-3.348 1.207-1.133 1.156-1.105-.633-1.383-2.539-.387-5.434 1.156-7.516 3.402 1.262-3.328.18-8.207-1.48-10.984-1.297-2.18-1.219-1.988-1.68.105-.465 2.09.078 5.406 1.121 6.906 1 1.441 1.391 3.016 1.238 4.812l.563.49z" fill="#008256"/><path d="M214.257 127.445c2.527-2.691 5.867-.988 8.387-3.348 1.207-1.133 1.156-1.105-.633-1.383-2.539-.387-5.434 1.156-7.516 3.402 1.262-3.328.18-8.207-1.48-10.984-1.297-2.18-1.219-1.988-1.68.105-.465 2.09.078 5.406 1.121 6.906 1 1.441 1.391 3.016 1.238 4.812l.563.49z" fill="none" stroke="#000" stroke-width=".067"/><path d="M218.015 112.41c-.281.355-.785.238-.848-.242s.398-.727.754-.453c-.355-.273-.234-.781.246-.844.476-.059.723.402.449.754.273-.352.781-.238.84.242.062.484-.395.727-.75.449.355.277.234.785-.25.848-.473.063-.723-.398-.441-.754z" fill="#ffe666"/><path d="M218.015 112.41c-.281.355-.785.238-.848-.242s.398-.727.754-.453c-.355-.273-.234-.781.246-.844.476-.059.723.402.449.754.273-.352.781-.238.84.242.062.484-.395.727-.75.449.355.277.234.785-.25.848-.473.063-.723-.398-.441-.754z" fill="none" stroke="#000" stroke-width=".067"/><path d="M218.89 109.582c-.277.359-.785.238-.848-.242-.059-.477.398-.719.758-.449-.359-.27-.238-.777.242-.84.476-.062.723.395.445.754.277-.359.789-.238.848.242.062.477-.395.727-.75.449.355.277.23.785-.246.848-.481.058-.727-.403-.449-.762z" fill="#ffe666"/><path d="M218.89 109.582c-.277.359-.785.238-.848-.242-.059-.477.398-.719.758-.449-.359-.27-.238-.777.242-.84.476-.062.723.395.445.754.277-.359.789-.238.848.242.062.477-.395.727-.75.449.355.277.23.785-.246.848-.481.058-.727-.403-.449-.762z" fill="none" stroke="#000" stroke-width=".067"/><path d="M216.808 109.633c-.277.359-.785.234-.848-.246-.059-.48.398-.727.754-.453-.355-.273-.234-.781.246-.844.477-.059.723.402.449.754.273-.352.781-.23.844.246.062.48-.395.723-.754.445.359.277.234.789-.246.848-.477.062-.723-.391-.445-.75z" fill="#ffe666"/><path d="M216.808 109.633c-.277.359-.785.234-.848-.246-.059-.48.398-.727.754-.453-.355-.273-.234-.781.246-.844.477-.059.723.402.449.754.273-.352.781-.23.844.246.062.48-.395.723-.754.445.359.277.234.789-.246.848-.477.062-.723-.391-.445-.75z" fill="none" stroke="#000" stroke-width=".067"/><path d="M221.226 107.59c-.281.359-.781.238-.844-.246-.059-.473.398-.723.754-.445-.355-.277-.238-.781.246-.84.477-.07.723.391.445.75.277-.359.785-.234.848.246.062.473-.398.727-.754.445.355.281.234.781-.246.848-.477.054-.731-.399-.449-.758z" fill="#ffe666"/><path d="M221.226 107.59c-.281.359-.781.238-.844-.246-.059-.473.398-.723.754-.445-.355-.277-.238-.781.246-.84.477-.07.723.391.445.75.277-.359.785-.234.848.246.062.473-.398.727-.754.445.355.281.234.781-.246.848-.477.054-.731-.399-.449-.758z" fill="none" stroke="#000" stroke-width=".067"/><path d="M229.331 104.797c-.281.352-.781.23-.844-.246-.062-.48.398-.727.754-.453-.355-.273-.234-.781.242-.84.48-.062.727.391.453.75.273-.359.777-.23.84.246.062.473-.398.727-.754.445.355.281.234.781-.242.844-.48.066-.73-.394-.449-.746z" fill="#ffe666"/><path d="M229.331 104.797c-.281.352-.781.23-.844-.246-.062-.48.398-.727.754-.453-.355-.273-.234-.781.242-.84.48-.062.727.391.453.75.273-.359.777-.23.84.246.062.473-.398.727-.754.445.355.281.234.781-.242.844-.48.066-.73-.394-.449-.746z" fill="none" stroke="#000" stroke-width=".067"/><path d="M226.425 105.445c-.277.359-.781.238-.848-.242-.059-.477.402-.719.754-.449-.351-.27-.23-.777.246-.84.48-.062.727.394.453.754.273-.359.777-.238.84.242s-.395.727-.754.449c.359.277.238.777-.242.848-.481.059-.727-.402-.449-.762z" fill="#ffe666"/><path d="M226.425 105.445c-.277.359-.781.238-.848-.242-.059-.477.402-.719.754-.449-.351-.27-.23-.777.246-.84.48-.062.727.394.453.754.273-.359.777-.238.84.242s-.395.727-.754.449c.359.277.238.777-.242.848-.481.059-.727-.402-.449-.762z" fill="none" stroke="#000" stroke-width=".067"/><path d="M225.694 108.988c-.273.359-.777.234-.844-.246-.059-.473.398-.727.754-.445-.356-.281-.234-.781.246-.844.48-.059.723.395.449.746.273-.352.777-.23.84.246.059.48-.391.723-.754.453.363.27.238.781-.238.84-.48.063-.726-.39-.453-.75z" fill="#ffe666"/><path d="M225.694 108.988c-.273.359-.777.234-.844-.246-.059-.473.398-.727.754-.445-.356-.281-.234-.781.246-.844.48-.059.723.395.449.746.273-.352.777-.23.84.246.059.48-.391.723-.754.453.363.27.238.781-.238.84-.48.063-.726-.39-.453-.75z" fill="none" stroke="#000" stroke-width=".067"/><path d="M221.101 115.789c-.273.359-.777.238-.848-.238-.059-.48.402-.727.754-.453-.352-.273-.23-.781.246-.84.48-.062.727.391.453.75.274-.359.781-.234.84.246.066.48-.391.727-.75.445.359.281.23.781-.242.844-.481.066-.727-.394-.453-.754z" fill="#ffe666"/><path d="M221.101 115.789c-.273.359-.777.238-.848-.238-.059-.48.402-.727.754-.453-.352-.273-.23-.781.246-.84.48-.062.727.391.453.75.274-.359.781-.234.84.246.066.48-.391.727-.75.445.359.281.23.781-.242.844-.481.066-.727-.394-.453-.754z" fill="none" stroke="#000" stroke-width=".067"/><path d="M227.503 111.184c-.273.359-.777.231-.844-.242-.059-.484.402-.727.758-.457-.356-.27-.238-.777.242-.84.477-.062.727.395.449.754.277-.359.781-.238.844.242.062.48-.398.727-.754.449.355.277.234.777-.246.848-.476.058-.722-.395-.449-.754z" fill="#ffe666"/><path d="M227.503 111.184c-.273.359-.777.231-.844-.242-.059-.484.402-.727.758-.457-.356-.27-.238-.777.242-.84.477-.062.727.395.449.754.277-.359.781-.238.844.242.062.48-.398.727-.754.449.355.277.234.777-.246.848-.476.058-.722-.395-.449-.754z" fill="none" stroke="#000" stroke-width=".067"/><path d="M223.48 114.527c-.277.352-.785.23-.844-.242-.066-.484.395-.727.75-.457-.355-.27-.23-.777.246-.84.477-.062.727.395.449.754.277-.359.781-.238.844.242.059.48-.398.727-.754.449.355.277.234.777-.242.848-.481.059-.727-.402-.449-.754z" fill="#ffe666"/><path d="M223.48 114.527c-.277.352-.785.23-.844-.242-.066-.484.395-.727.75-.457-.355-.27-.23-.777.246-.84.477-.062.727.395.449.754.277-.359.781-.238.844.242.059.48-.398.727-.754.449.355.277.234.777-.242.848-.481.059-.727-.402-.449-.754z" fill="none" stroke="#000" stroke-width=".067"/><path d="M217.315 123.168c-.277.359-.781.238-.844-.246-.062-.473.398-.723.754-.445-.355-.277-.238-.789.246-.848.473-.062.723.398.445.75.277-.352.785-.23.844.246.062.48-.395.727-.75.453.355.273.234.781-.246.844-.48.059-.726-.395-.449-.754z" fill="#ffe666"/><path d="M217.315 123.168c-.277.359-.781.238-.844-.246-.062-.473.398-.723.754-.445-.355-.277-.238-.789.246-.848.473-.062.723.398.445.75.277-.352.785-.23.844.246.062.48-.395.727-.75.453.355.273.234.781-.246.844-.48.059-.726-.395-.449-.754z" fill="none" stroke="#000" stroke-width=".067"/><path d="M220.011 122.199c-.277.359-.781.23-.84-.246-.062-.48.391-.727.75-.449-.359-.277-.234-.777.246-.848.476-.059.719.402.449.754.27-.352.777-.23.84.246.059.48-.395.723-.75.453.355.27.234.781-.246.84-.477.063-.727-.39-.449-.75z" fill="#ffe666"/><path d="M220.011 122.199c-.277.359-.781.23-.84-.246-.062-.48.391-.727.75-.449-.359-.277-.234-.777.246-.848.476-.059.719.402.449.754.27-.352.777-.23.84.246.059.48-.395.723-.75.453.355.27.234.781-.246.84-.477.063-.727-.39-.449-.75z" fill="none" stroke="#000" stroke-width=".067"/><path d="M222.999 112.555c-.281.359-.785.238-.844-.246-.062-.473.395-.723.75-.445-.355-.277-.234-.781.246-.844.477-.066.723.395.449.754.273-.359.781-.238.84.238.066.48-.395.73-.75.453.355.277.238.781-.242.844-.48.066-.73-.395-.449-.754z" fill="#ffe666"/><path d="M222.999 112.555c-.281.359-.785.238-.844-.246-.062-.473.395-.723.75-.445-.355-.277-.234-.781.246-.844.477-.066.723.395.449.754.273-.359.781-.238.84.238.066.48-.395.73-.75.453.355.277.238.781-.242.844-.48.066-.73-.395-.449-.754z" fill="none" stroke="#000" stroke-width=".067"/><path d="M218.362 112.399a.385.385 0 0 0 .332-.426.389.389 0 0 0-.43-.336.383.383 0 0 0-.328.43.38.38 0 0 0 .426.332zM219.241 109.578a.388.388 0 0 0 .328-.43.382.382 0 1 0-.758.098c.028.207.215.36.43.332zM217.155 109.617a.38.38 0 0 0 .332-.426.389.389 0 0 0-.43-.332.382.382 0 1 0 .098.758zM221.577 107.578a.386.386 0 0 0 .328-.43.39.39 0 0 0-.426-.332.394.394 0 0 0-.332.434.391.391 0 0 0 .43.328zM229.683 104.781a.39.39 0 0 0 .332-.426.39.39 0 0 0-.434-.332.377.377 0 0 0-.328.426.39.39 0 0 0 .43.332zM226.776 105.441a.388.388 0 0 0 .332-.434.388.388 0 0 0-.43-.328.386.386 0 0 0-.332.43c.028.207.223.36.43.332zM226.05 108.973a.38.38 0 0 0 .328-.426.39.39 0 0 0-.426-.328.378.378 0 0 0-.332.422.379.379 0 0 0 .43.332zM221.456 115.774a.37.37 0 0 0 .324-.418.373.373 0 0 0-.422-.332.378.378 0 0 0 .098.75zM227.858 111.172a.384.384 0 0 0 .324-.434.38.38 0 0 0-.426-.328.39.39 0 0 0-.332.43.393.393 0 0 0 .434.332zM223.827 114.508a.38.38 0 0 0 .332-.422.387.387 0 0 0-.434-.332.387.387 0 0 0-.328.426.383.383 0 0 0 .43.328zM217.667 123.152a.38.38 0 0 0 .328-.426.37.37 0 0 0-.426-.324.367.367 0 0 0-.328.418c.024.211.215.36.426.332zM220.362 122.184a.379.379 0 0 0 .328-.426.382.382 0 0 0-.426-.332.381.381 0 0 0-.328.426.378.378 0 0 0 .426.332zM223.347 112.539a.382.382 0 0 0 .332-.426.39.39 0 0 0-.43-.332.386.386 0 0 0-.324.434.37.37 0 0 0 .422.324z" fill="#ec174c"/><path d="M249.815 101.039c3.387 0 5.977.574 8.035 1.246.891.293 2.613.789 2.32 1.371-.508-.191-1.316.117-1.707 1.168-.391 1.043-.379 1.871.141 2.109-.141.309-.387.52-1.707-.027-1.824-.754-5.066-1.262-7.082-1.262s-5.262.508-7.078 1.262c-1.328.547-1.57.336-1.711.027.52-.238.531-1.066.141-2.109-.391-1.051-1.203-1.359-1.707-1.168-.293-.582 1.43-1.078 2.32-1.371 2.063-.672 4.649-1.246 8.035-1.246zM249.815 179.848c1.512-2.312 3.777-3.641 5.934-4.375.922-.305 1.121-.609 1.008-.949-.477.117-1.176-.332-1.457-1.539-.199-.867 0-1.75.676-1.945-.086-.332-.199-.582-.844-.371-1.367.445-3.344.777-5.316.777-1.973 0-3.945-.332-5.32-.777-.641-.211-.754.039-.836.371.672.195.871 1.078.672 1.945-.281 1.207-.98 1.656-1.461 1.539-.105.34.09.645 1.012.949 2.155.734 4.421 2.062 5.932 4.375z" fill="#c3dce8" stroke="#ffe666" stroke-width=".537"/><path d="M191.933 81.211c7.383-1.602 5.039-2.348 11.98-3.574 6.941-1.234 11.867-3.59 15.004-4.484 3.133-.895 8.617-2.691 11.082-2.238 2.461.449 7.625-.516 9.57.781 1.012.672.953 1.734.898 2.352-.059.617.332.781 1.012.781 1.391 0 1.438 2.008 2.851 1.906.781-.055.953.391 1.004 1.117 2.465-2.348 6.496-2.293 12.316.34 1.176-.84 3.078-1.629 4.758-.895.453-.562 1.684-.789 2.355-.617.668.168 1.273-.277 1.004-1.176-.84-2.801 2.41-3.98 4.418-3.246 2.02.727 3.418.672 6.164.727 2.742.051 4.316.379 6.992 1.117 5.098 1.402 7.426 3.973 12.824 5.711 8 2.578 11.863 4.816 14.605 5.43 2.742.613 1.906 2.188-.949 1.176.223.332-2.184 1.012-4.648 0 2.406 1.566-2.125 1.348-3.969.672.836.562-3.027.84-6.328-.672 1.176.84-.895 1.961-3.75.223.504.449-1.121 1.344-2.414.223.566.617-.609 1.184-1.395.672.727.617 1.68 1.512 1.234 1.793-.449.277-2.742-.504-4.594-1.898.449.555-.898.895-2.074-.227.395.609-1.504.277-2.457-.617.109.672-.953.949-1.961.164.449.785-.445 2.074-1.512 1.402.281.789-1.23 1.176-2.07.617.617.613-.84 1.453-2.238.387.504.508-.73 2.469-2.184 1.512.953.562-.562 1.852-1.848.957.836.559-1.008 1.512-2.352.559.84.617-1.066 1.285-2.352.113.5.395-.281 1.004-.781.617 1.902 2.516 3.691 4.977 4.363 5.82.676.84.73 1.062-.164 1.902-.551.516-3.316 2.648-4.832 3.648-.418-.188-.812-.391-1.328-.613.488-.754-3.328-1.859-6.145-2.309.168-1.625.043-4.312.211-5.711-.645-.895-.98-1.172-1.23-.141-.25 1.039-1.008 1.344-1.145 2.156-.145.812-.367 1.684-1.598 1.961-1.23.277-1.402-.895-1.344-3.41-.195.582-1.23-.566-1.121-1.961-.109.609-1.734-.395-1.625-3.133-.445 1.336-1.508 2.238-1.902-.395-1.117 1.398-2.238 2.016-2.793-.062-.899.957-2.02 1.012-2.359-.5-1.113.84-2.066 1.172-2.293-.449-.84.844-2.293 1.289-2.852-.391-1.121 1.18-3.246.141-3.023-1.23-.84.727-2.66.027-2.352-1.402-.727.562-1.875.027-1.457-1.004-1.398.895-2.293.781-2.348-.672-2.184 1.121-4.594 1.512-5.039.949-1.125.727-3.414 1.629-3.977 1.461-.559-.172.391-1.406 1.457-2.41-.672.172-1.625-.168-1.738-.672-.953.504-3.133 1.23-3.297.895-.172-.336.219-1.008 1.73-1.797-1.453.844-3.473 1.012-3.805.734-.336-.285.449-.84 1.398-1.398-4.199 1.73-5.094.844-3.582 0-3.301 1.508-4.758 1.059-3.527-.113-1.734.617-5.035.727-6.379.562-1.344-.172-2.184-.617-.73-1.457-.84.223-4.371.168-5.094.168-.721-.001-1.561-.45-.275-.731z" fill="#5c5b3d"/><path d="M191.933 81.211c7.383-1.602 5.039-2.348 11.98-3.574 6.941-1.234 11.867-3.59 15.004-4.484 3.133-.895 8.617-2.691 11.082-2.238 2.461.449 7.625-.516 9.57.781 1.012.672.953 1.734.898 2.352-.059.617.332.781 1.012.781 1.391 0 1.438 2.008 2.851 1.906.781-.055.953.391 1.004 1.117 2.465-2.348 6.496-2.293 12.316.34 1.176-.84 3.078-1.629 4.758-.895.453-.562 1.684-.789 2.355-.617.668.168 1.273-.277 1.004-1.176-.84-2.801 2.41-3.98 4.418-3.246 2.02.727 3.418.672 6.164.727 2.742.051 4.316.379 6.992 1.117 5.098 1.402 7.426 3.973 12.824 5.711 8 2.578 11.863 4.816 14.605 5.43 2.742.613 1.906 2.188-.949 1.176.223.332-2.184 1.012-4.648 0 2.406 1.566-2.125 1.348-3.969.672.836.562-3.027.84-6.328-.672 1.176.84-.895 1.961-3.75.223.504.449-1.121 1.344-2.414.223.566.617-.609 1.184-1.395.672.727.617 1.68 1.512 1.234 1.793-.449.277-2.742-.504-4.594-1.898.449.555-.898.895-2.074-.227.395.609-1.504.277-2.457-.617.109.672-.953.949-1.961.164.449.785-.445 2.074-1.512 1.402.281.789-1.23 1.176-2.07.617.617.613-.84 1.453-2.238.387.504.508-.73 2.469-2.184 1.512.953.562-.562 1.852-1.848.957.836.559-1.008 1.512-2.352.559.84.617-1.066 1.285-2.352.113.5.395-.281 1.004-.781.617 1.902 2.516 3.691 4.977 4.363 5.82.676.84.73 1.062-.164 1.902-.551.516-3.316 2.648-4.832 3.648-.418-.188-.812-.391-1.328-.613.488-.754-3.328-1.859-6.145-2.309.168-1.625.043-4.312.211-5.711-.645-.895-.98-1.172-1.23-.141-.25 1.039-1.008 1.344-1.145 2.156-.145.812-.367 1.684-1.598 1.961-1.23.277-1.402-.895-1.344-3.41-.195.582-1.23-.566-1.121-1.961-.109.609-1.734-.395-1.625-3.133-.445 1.336-1.508 2.238-1.902-.395-1.117 1.398-2.238 2.016-2.793-.062-.899.957-2.02 1.012-2.359-.5-1.113.84-2.066 1.172-2.293-.449-.84.844-2.293 1.289-2.852-.391-1.121 1.18-3.246.141-3.023-1.23-.84.727-2.66.027-2.352-1.402-.727.562-1.875.027-1.457-1.004-1.398.895-2.293.781-2.348-.672-2.184 1.121-4.594 1.512-5.039.949-1.125.727-3.414 1.629-3.977 1.461-.559-.172.391-1.406 1.457-2.41-.672.172-1.625-.168-1.738-.672-.953.504-3.133 1.23-3.297.895-.172-.336.219-1.008 1.73-1.797-1.453.844-3.473 1.012-3.805.734-.336-.285.449-.84 1.398-1.398-4.199 1.73-5.094.844-3.582 0-3.301 1.508-4.758 1.059-3.527-.113-1.734.617-5.035.727-6.379.562-1.344-.172-2.184-.617-.73-1.457-.84.223-4.371.168-5.094.168-.721-.001-1.561-.45-.275-.731z" fill="none" stroke="#000" stroke-width=".067"/><path d="M246.12 80.707c-.363-.367-.113-1.117.59-1.344-.141-.34.418-1.035.809-.98.086-.586.812-.863 1.18-.586.223-.367 1.086-.527 1.367-.027.504-.34 1.23-.363 1.457.277.504-.023 1.176.281 1.203.789.562.082 1.145.609.977 1.254.562.223.617 1.289.258 1.734.391.512-.117 1.621-.703 1.852 0 .672-.418 1.262-1.008 1.203-.113.645-1.203 1.09-1.734.758-.586.387-1.789.164-1.844-.395-.562.172-1.375-.168-1.293-.73-.5-.027-1.035-.637-.98-1.172-.555-.422-.699-1.176-.391-1.453-.337-.231-.224-.785.112-1.18z" fill="#fff"/><path d="M246.12 80.707c-.363-.367-.113-1.117.59-1.344-.141-.34.418-1.035.809-.98.086-.586.812-.863 1.18-.586.223-.367 1.086-.527 1.367-.027.504-.34 1.23-.363 1.457.277.504-.023 1.176.281 1.203.789.562.082 1.145.609.977 1.254.562.223.617 1.289.258 1.734.391.512-.117 1.621-.703 1.852 0 .672-.418 1.262-1.008 1.203-.113.645-1.203 1.09-1.734.758-.586.387-1.789.164-1.844-.395-.562.172-1.375-.168-1.293-.73-.5-.027-1.035-.637-.98-1.172-.555-.422-.699-1.176-.391-1.453-.337-.231-.224-.785.112-1.18z" fill="none" stroke="#000" stroke-width=".067"/><path d="M236.468 82.441c-.309-1.512.414-2.156 2.012-2.289.613-.957 1.449-1.426 2.043-1.289.895.195 1.555-.312 2.77.395.73.418 2.043.949 4.117.949 2.07 0 4.195 0 4.195 1.68 0 1.227-1.508 1.172-2.906 1.172-1.402 0-2.578 0-3.332-.359-.758-.363-1.766-.508-2.629-.141-.871.359-3.195.5-4.172-.734-1.485-.051-1.821-.079-2.098.616z" fill="#ffe7be"/><path d="M236.468 82.441c-.309-1.512.414-2.156 2.012-2.289.613-.957 1.449-1.426 2.043-1.289.895.195 1.555-.312 2.77.395.73.418 2.043.949 4.117.949 2.07 0 4.195 0 4.195 1.68 0 1.227-1.508 1.172-2.906 1.172-1.402 0-2.578 0-3.332-.359-.758-.363-1.766-.508-2.629-.141-.871.359-3.195.5-4.172-.734-1.485-.051-1.821-.079-2.098.616z" fill="none" stroke="#000" stroke-width=".067"/><path d="M249.452 98.375c-.543 1.191-1.941 2.914-3.387 2.684-1.734-.285-2.273.531-2.098 1.172.168.645 1.398.727 2.18.395-.922.867-.781 1.398-.418 1.766.363.359 1.285.332 1.512-.539.223-.867 1.062-1.754 1.734-1.871.672-.113 1.09.332 1.035 1.031-.055.707.699 1.012 1.203.84.504-.16.965-1.477-.113-1.902-.922-.359-1.418-.809-1.172-1.793.168-.672.277-1.336.469-2.121.204-.791-.414-.842-.945.338z" fill="#ffe7be"/><path d="M249.452 98.375c-.543 1.191-1.941 2.914-3.387 2.684-1.734-.285-2.273.531-2.098 1.172.168.645 1.398.727 2.18.395-.922.867-.781 1.398-.418 1.766.363.359 1.285.332 1.512-.539.223-.867 1.062-1.754 1.734-1.871.672-.113 1.09.332 1.035 1.031-.055.707.699 1.012 1.203.84.504-.16.965-1.477-.113-1.902-.922-.359-1.418-.809-1.172-1.793.168-.672.277-1.336.469-2.121.204-.791-.414-.842-.945.338z" fill="none" stroke="#000" stroke-width=".067"/><path d="M256.085 97.785c-.031 1.062.043 2.812-1.012 3.105-1.535.418-1.172.785-2.094 1.172-.738.312-.59 1.316-.309 1.457.277.137 1.008.332 1.316-.59a1.49 1.49 0 0 1 .867-.922c.418-.168.504.172.504.422s-.027.867-.254 1.145c-.223.277.168.867.699.949.531.09.699-.324.813-.699.227-.723-.223-1.062-.109-1.484.109-.414.469-.285.645.117.191.445.777.555 1.004 1.117.227.562.754.645 1.121.367.363-.285.672-1.18-.59-1.656-1.258-.473-1.676-.867-1.707-1.957-.027-1.004-.449-1.148-.473-1.738-.03-.582-.394-1.789-.421-.805z" fill="#ffe7be"/><path d="M256.085 97.785c-.031 1.062.043 2.812-1.012 3.105-1.535.418-1.172.785-2.094 1.172-.738.312-.59 1.316-.309 1.457.277.137 1.008.332 1.316-.59a1.49 1.49 0 0 1 .867-.922c.418-.168.504.172.504.422s-.027.867-.254 1.145c-.223.277.168.867.699.949.531.09.699-.324.813-.699.227-.723-.223-1.062-.109-1.484.109-.414.469-.285.645.117.191.445.777.555 1.004 1.117.227.562.754.645 1.121.367.363-.285.672-1.18-.59-1.656-1.258-.473-1.676-.867-1.707-1.957-.027-1.004-.449-1.148-.473-1.738-.03-.582-.394-1.789-.421-.805z" fill="none" stroke="#000" stroke-width=".067"/><path d="M243.515 103.297c-.309-.73.242-1.445.73-1.457.297-.008.492.238.34.617-.113.27-.844.027-1.07.84zM245.851 105.406c-.574-.543-.363-1.41.078-1.629.273-.121.547.027.559.434.007.293-.758.367-.637 1.195zM250.815 104.816c.73-.305.836-1.199.492-1.547-.207-.215-.516-.168-.672.203-.105.274.587.61.18 1.344zM252.643 104.613c-.605-.504-.453-1.391-.027-1.629.262-.141.543-.012.582.395.028.285-.73.414-.555 1.234zM258.878 105.039c.727-.305.832-1.191.488-1.547-.207-.207-.516-.176-.668.203-.105.274.586.614.18 1.344zM255.765 105.496c-.52-.578-.648-1.215-.309-1.57.207-.215.559-.188.672.207.125.453-.391.223-.363 1.363z"/><path d="M197.308 81.774c1.906-.34 6.367-1.555 8.285-2.578 3.355-1.789 7.723-.055 12.203-3.133 2.688-1.844 6.156-1.066 8.848-2.07 2.684-1.008 5.094-.223 6.602-.895 1.512-.676 2.258-1.016 2.352.164.168 2.129 4.254 4.48 7.168 4.707m-38.349 4.699c1.176-.332 4.812-2.238 6.383-3.75m-2.856 3.863c1.848-.895 5.094-2.352 7.836-4.367m-4.254 4.367c1.684-.73 4.703-2.129 6.605-3.473m-4.198 4.137c1.402-.555 3.863-1.844 5.152-2.621m-3.586 3.524c1.516-.562 3.75-1.789 5.211-2.855m-3.473 3.527c.672-.73 3.918-2.801 5.598-3.75m-3.078 4.699c1.453-.84 3.023-1.957 4.645-3.078m.394 2.129c1.117-.617 2.629-2.012 3.301-2.684m-.954 3.355c.953-.5 2.41-1.906 3.637-3.473m-2.179 4.477c.59-.395 1.707-1.539 2.602-2.57m-.251 3.973c.641-.473 1.176-1.262 1.707-2.039m1.317 3.269c.559-.422 1.48-1.676 2.492-2.965m.359 3.356c.617-.5 1.766-2.184 2.242-2.996m5.203 4.008c.395-.477.871-1.18 1.094-1.621m.809 2.015c0-.617.086-1.18.199-1.656m-4.894 1.199c.332-.332.641-.805.976-1.34m-3.336.84c.398-.277.535-.645.789-.949m7.891 5.039c0-.367.043-1.207.055-1.609m1.066 3.57c0-.484.039-1.234.176-1.793m5.14 1.226c.336.539.617 1.289.98 1.543.363.25.277 1.207.836 1.707m.762.5c.137.336.418 0 .445-.723.027-.734.73-1.426.191-2.488-.164-.34.254-1.379.031-1.879-.223-.504.059-1.566-.309-2.211m4.959.813c-.449-.223-1.793-1.098-2.469-1.789m3.25 1.172c-.391-.285-.781-.645-1.062-.895m3.414.782c-.645-.336-1.762-1.121-2.211-1.594m4.562 1.035c-.73-.367-1.875-1.012-2.352-1.371m6.383-1.098a52.979 52.979 0 0 1-2.211-1.422m.028 2.934c-.641-.332-1.793-1.09-2.352-1.539m6.774-.359c-.977-.535-2.016-1.207-2.602-1.707m4.672 1.089c-.477-.223-1.398-.84-1.988-1.289m3.5-.113c-.559-.332-1.262-.914-1.707-1.281m3.668 1.117c-.059-.895-1.23-2.102-1.934-2.801m4.391 3.418c-.891-.812-2.152-2.266-2.938-3.445m5.012 3.672c-.695-.512-2.828-2.945-3.418-4.035m6.777 4.14c-.785-.699-2.996-2.543-4.785-4.055m6.18 3.383c-.949-.617-3.605-2.934-5.422-4.164m7.836 3.942c-1.207-.617-5.234-3.438-7.531-5.344m11.281 5.121c-1.625-.617-7.73-3.75-9.684-5.594m16.012 6.266c-4.988-1.453-10.527-4.871-13.215-6.883m17.184 6.211c-1.68-.504-7.668-3.023-9.738-4.477m14.386 4.477c-3.301-.895-6.156-2.742-10.523-3.527-4.367-.781-7.168-1.344-9.969-3.133-2.797-1.789-5.594-1.344-7.164-2.688-1.562-1.348-3.074-1.566-4.641-1.348-1.57.23-5.879.73-6.887-1.281-.395 3.242-2.633 2.516-3.359 3.582-.727 1.062-2.191 1.34-3.188 1-2.184-.723-3.473.844-4.93.117" fill="none" stroke="#000" stroke-width=".067"/><path d="M241.429 80.078c-.184.078-.434.031-.59.336-.18.32-.668.281-.863.027-.211-.27-.113-.359-.371-.316.714-.687 1.246.059 1.824-.047z"/><path d="M238.48 80.152c.168-.023.66-.027 1.039.16m-2.872 1.797c.137-.242.293-.617 1.977-.59" fill="none" stroke="#000" stroke-width=".067"/><path fill="#996b38" d="M258.546 161.824l.363-7.949.031 7.332-.394.617z"/><path fill="none" stroke="#000" stroke-width=".034" d="M258.546 161.824l.363-7.949.031 7.332-.394.617z"/><path fill="#996b38" d="M261.765 161.191l2.183-3.429-2.09 3.652"/><path fill="none" stroke="#000" stroke-width=".034" d="M261.765 161.191l2.183-3.429-2.09 3.652"/><path d="M250.46 161.652l2.324-6.891 2.711 6.973m1.148-.113l2.211-4.871 1.848 4.258m-1.848-4.535l2.047 2.883" fill="none" stroke="#000" stroke-width=".017"/><path d="M243.097 161.43c1.488.367 3.301 1.344 3.977 3.52 1.148-.332 2.684.812 3.723.195 1.035-.609 1.844.367 2.633.035.781-.34 2.238.422 2.93.027.707-.395 2.973-.449 3.59.027 1.117-.699 2.516-2.945 1.844-4.281-.082-.168-.082-.391-2.434-.391l-.812 1.262h-6.582v.695h-4.137c-1.877.001-2.631-.898-4.732-1.089z" fill="#996b38"/><path d="M243.097 161.43c1.488.367 3.301 1.344 3.977 3.52 1.148-.332 2.684.812 3.723.195 1.035-.609 1.844.367 2.633.035.781-.34 2.238.422 2.93.027.707-.395 2.973-.449 3.59.027 1.117-.699 2.516-2.945 1.844-4.281-.082-.168-.082-.391-2.434-.391l-.812 1.262h-6.582v.695h-4.137c-1.877.001-2.631-.898-4.732-1.089z" fill="none" stroke="#000" stroke-width=".034"/><path d="M258.073 161.824a1.8 1.8 0 0 0-1.82-1.797c-1.004 0-1.82.793-1.82 1.797h3.64z" fill="#996b38"/><path d="M258.073 161.824a1.8 1.8 0 0 0-1.82-1.797c-1.004 0-1.82.793-1.82 1.797h3.64z" fill="none" stroke="#000" stroke-width=".034"/><path fill="#996b38" d="M250.487 162.52l-.168-5.77h-1.008l-.168 5.77h1.344z"/><path fill="none" stroke="#000" stroke-width=".034" d="M250.487 162.52l-.168-5.77h-1.008l-.168 5.77h1.344z"/><path fill="#996b38" d="M252.64 161.824l.144-10.765.152 10.765h-.296z"/><path fill="none" stroke="#000" stroke-width=".034" d="M252.64 161.824l.144-10.765.152 10.765h-.296z"/><path d="M252.788 151.957c.18 0 .422-.102.547-.512.07-.223.543-.223.727-.094.184.121.547-.039.645-.324 0 .941-.676 1.152-1.918 1.152-1.246 0-1.93-.211-1.93-1.152.105.285.469.445.645.324.188-.129.664-.129.734.094.124.41.367.512.55.512zM252.097 152.652c-.734.41-.664 1.156.035 1.852 1 1.004 1.391 1.203.371 2.219-.461.461-.938.969-.391 1.512.547.551 1.469 1.473.836 2.102.828-.152.129-1.645-.25-2.031-.379-.375-.516-.613.027-1.16 1.07-1.074 1.371-1.438-.184-3-.32-.316-.527-.805-.238-.875.293-.074.492-.27.379-.52-.097-.22-.331-.239-.585-.099z"/><path d="M253.468 152.652c.734.41.664 1.156-.035 1.852-1 1.004-1.391 1.203-.375 2.219.465.461.941.969.398 1.512-.547.551-1.469 1.473-.844 2.102-.824-.152-.129-1.645.254-2.031.375-.375.52-.613-.027-1.16-1.07-1.074-1.371-1.438.18-3 .324-.316.535-.805.238-.875-.293-.074-.492-.27-.375-.52.098-.22.336-.239.586-.099zM252.784 150.984c-.574 0-.562.266 0 .266.559 0 .571-.266 0-.266z"/><path d="M260.952 160.629l-.027-6.754-.305 6.727c.152.015.246.027.332.027z" fill="#996b38"/><path d="M260.952 160.629l-.027-6.754-.305 6.727c.152.015.246.027.332.027z" fill="none" stroke="#000" stroke-width=".034"/><path fill="#996b38" d="M260.882 154.668l-1.953 1.609v.153l1.953-1.762z"/><path fill="none" stroke="#000" stroke-width=".034" d="M260.882 154.668l-1.953 1.609v.153l1.953-1.762z"/><path d="M251.964 162.52h6.723c1.348 0 3.234.043 3.262-.492" fill="none" stroke="#000" stroke-width=".033"/><path d="M258.546 161.824h3.012c.207 0 .402.012.402-.156" fill="#996b38"/><path d="M258.546 161.824h3.012c.207 0 .402.012.402-.156" fill="none" stroke="#000" stroke-width=".017"/><path d="M246.065 163.164c.363.449.785.531 1.215.559 2.957.195 9.699.223 11.66.113 1.961-.113 2.434-.223 2.602-.562" fill="none" stroke="#000" stroke-width=".033"/><path fill="#ffe666" d="M264.12 161.973l1.34-2.211-1.512-2-1.344 2.211 1.516 2z"/><path fill="none" stroke="#000" stroke-width=".034" d="M264.12 161.973l1.34-2.211-1.512-2-1.344 2.211 1.516 2z"/><path fill="#ec174c" d="M264.12 161.973l-1.516-2 .336-.551 1.516 2-.336.551z"/><path fill="none" stroke="#000" stroke-width=".034" d="M264.12 161.973l-1.516-2 .336-.551 1.516 2-.336.551z"/><path fill="#007ac1" d="M264.456 161.422l-1.516-2 .336-.555 1.512 2-.332.555z"/><path fill="none" stroke="#000" stroke-width=".034" d="M264.456 161.422l-1.516-2 .336-.555 1.512 2-.332.555z"/><path d="M249.815 117.707c8.328 0 16.367 2.734 22.305 5.855-.5-1.656-1.328-3.883-1.941-5.012-5.434-2.855-12.75-5.094-20.363-5.094-7.613 0-14.934 2.238-20.363 5.094-.613 1.129-1.438 3.355-1.945 5.012 5.94-3.121 13.979-5.855 22.307-5.855z" fill="#9edcf8" stroke="#ffe666" stroke-width=".067"/><path d="M231.87 118.223c.773-.141 1.117-.086 1.262.379.148.469.27 1.133.359 1.574m-.359-1.574a.852.852 0 0 1 .441-1.016m4.852-1.371c-.508.129-.707.504-.414 1.141.262.578.461.746.828.68.316-.062.473-.488.434-1-.051-.774-.337-.954-.848-.821zm-.879-.02c.363.32 1.453.047 1.711-.352m-1.141 2.544c.172-.273.965-.543 1.406-.305m20.871.156c.309.031.785-.164 1.039-.918.223-.684.109-1.098-.168-1.375m1.348 2.887c-.242-.18-.465-.641-.145-1.375.285-.656.648-.883 1.043-.91m-2.277.605a5.784 5.784 0 0 1 1.457.359m5.543 1.04c-.254-.699-1.371-.953-1.707-.594-.336.367.195.984.754 1.094.559.117 1.543.672 1.285 1.18-.25.504-1.902.305-2.461-.672m1.344-1.602l.055 2.469" fill="none" stroke="#000" stroke-width=".067"/><path fill="#ffe666" d="M249.929 124.727l-.895-4.223-2.375 3.586.781-4.258-3.593 2.387 2.347-3.629-4.211.82 3.575-2.414-4.219-.855 4.219-.887-3.575-2.383 4.247.789-2.383-3.594 3.621 2.352-.809-4.227 2.402 3.59.868-4.226.879 4.226 2.39-3.59-.797 4.262 3.606-2.387-2.367 3.625 4.234-.82-3.594 2.414 4.238.856-4.238.89 3.594 2.379-4.266-.781 2.399 3.59-3.637-2.356.828 4.227-2.422-3.586-.847 4.223z"/><path fill="none" stroke="#000" stroke-width=".067" d="M249.929 124.727l-.895-4.223-2.375 3.586.781-4.258-3.593 2.387 2.347-3.629-4.211.82 3.575-2.414-4.219-.855 4.219-.887-3.575-2.383 4.247.789-2.383-3.594 3.621 2.352-.809-4.227 2.402 3.59.868-4.226.879 4.226 2.39-3.59-.797 4.262 3.606-2.387-2.367 3.625 4.234-.82-3.594 2.414 4.238.856-4.238.89 3.594 2.379-4.266-.781 2.399 3.59-3.637-2.356.828 4.227-2.422-3.586-.847 4.223z"/><path d="M249.929 120.691a4.55 4.55 0 1 0 0-9.102 4.55 4.55 0 1 0 0 9.102z" fill="#ffe666"/><path d="M249.929 120.691a4.55 4.55 0 1 0 0-9.102 4.55 4.55 0 1 0 0 9.102z" fill="none" stroke="#000" stroke-width=".067"/><path d="M249.116 118.184c.246-.129.641-.203.812.008.168-.211.566-.137.809-.008.242.137.586.039.762.149-.102-.027-.519.203-.809.094-.293-.102-.266.082-.762.082-.504 0-.473-.184-.766-.082-.289.109-.707-.121-.809-.094.181-.11.521-.013.763-.149zM249.929 118.902c.238 0 .457-.043.641-.109.086-.035.145-.156.148-.035.004.117-.195.395-.789.395-.594 0-.797-.277-.789-.395 0-.121.059 0 .148.035.184.066.398.109.641.109zM249.929 117.449c.117 0 .23-.082.285-.141.059-.07.176-.062.309-.055.152.008.215-.066.242-.148.035-.125.043-.312-.156-.406.121.051.148.258.094.387-.043.094-.168.102-.27.094a.42.42 0 0 0-.309.102c-.051.055-.109.074-.195.074-.086 0-.148-.02-.199-.074a.415.415 0 0 0-.312-.102c-.098.008-.223 0-.262-.094-.062-.129-.031-.336.09-.387-.199.094-.195.281-.156.406.023.082.09.156.242.148.137-.008.246-.016.316.055.05.059.16.141.281.141zM247.015 115.281c.402-.219.785-.355 1.43-.312.641.035.941.184 1.078.27.148.082.102.117-.043.117-.141 0-.574-.09-.91-.184-.34-.09-.965-.102-1.512.137-.036.011-.118.004-.043-.028z"/><path d="M249.034 115.309c-.074.277-.395.594-.707.594-.477 0-.871-.316-.883-.711.059.375.402.625.879.625.309-.001.598-.223.711-.508z"/><path d="M247.929 115.309c.031.184.191.336.43.336.172 0 .445-.047.543-.406-.137-.094-.555-.141-.672-.141.101.187-.067.312-.301.211zM249.624 114.649c-.664-.371-1.594-.5-2.242-.371-.188.031-.375.102-.199.23.129.102.207.039.441 0 .566-.082 1.379-.008 1.727.211a.458.458 0 0 0 .273.094c.098 0 .191-.047 0-.164zM252.878 115.281c-.402-.219-.789-.355-1.434-.312-.637.035-.938.184-1.078.27-.145.082-.098.117.047.117.137 0 .57-.09.91-.184.34-.09.965-.102 1.516.137.031.011.109.004.039-.028z"/><path d="M250.858 115.309c.074.277.395.594.707.594.477 0 .871-.316.879-.711-.055.375-.402.625-.875.625-.312-.001-.601-.223-.711-.508z"/><path d="M251.323 115.207c.035.184.195.332.438.332.168 0 .523-.074.594-.504-.133-.094-.594-.066-.727-.039.102.188-.063.305-.305.211zM250.268 114.649c.664-.371 1.594-.5 2.242-.371.191.031.371.102.195.23-.125.102-.203.039-.438 0-.566-.082-1.379-.008-1.723.211-.109.066-.176.094-.277.094-.1 0-.194-.047.001-.164z"/></g></svg>