<svg xmlns="http://www.w3.org/2000/svg" viewBox="0 0 499.839 277.402"><path fill="#fff" d="M499.839 184.805h-500v-92.59h500v92.59z"/><path fill="#ce1126" d="M-.161 92.215h500V-.375h-500v92.59z"/><path d="M499.839 277.402h-500v-92.597h500v92.597z"/><g><path d="M249.839 181.375c8.863 0 17.398-.723 22.527-2.168 1.871-.527 2.102-1.379 1.969-2.887 2.035-.789.984-3.156 2.688-3.352-1.703.266-1.832-2.363-3.543-2.102-.262-2.297-2.492-2.762-4.859-2.035-4.094 1.254-11.555 1.836-18.781 1.578-7.227-.266-14.684-.324-18.781-1.578-2.367-.727-4.598-.262-4.859 2.035-1.707-.262-1.84 2.367-3.547 2.102 1.707.195.656 2.562 2.688 3.352-.125 1.508.105 2.359 1.977 2.887 5.118 1.445 13.654 2.168 22.521 2.168z" fill="#fff" stroke="#ffce46" stroke-width=".076" stroke-linecap="round"/><path d="M229.382 172.156c-.41 0-.41.617 0 .617s.418-.617 0-.617zM229.675 170.977c-.406 0-.406.613 0 .613.414 0 .422-.613 0-.613zM229.515 176.23c-.41 0-.41.613 0 .613.41.001.418-.613 0-.613zM230.827 176.656c-.406 0-.406.617 0 .617.41 0 .418-.617 0-.617zM232.538 177.09c-.414 0-.414.609 0 .609.41 0 .41-.609 0-.609zM254.534 173.41c-.41 0-.41.609 0 .609.41.001.414-.609 0-.609zM254.698 174.656c-.41 0-.41.613 0 .613.41.001.418-.613 0-.613zM255.98 178.367c-.41 0-.41.609 0 .609.41.001.417-.609 0-.609zM257.194 178.301c-.41 0-.41.609 0 .609.414 0 .418-.609 0-.609zM271.772 175.344c-.41 0-.41.617 0 .617.414 0 .418-.617 0-.617z" fill="#ffce46"/><path d="M230.96 171c-.398 1.441-.789 2.824-.953 3.578-.133.609.129.789.691.969.918.293.949.195 1.41-1 .25-.648.098-.82-.148.078-.242.887-.754 1.117.688 1.594 1.09.359 1.594-.098 1.762-1.363.109-.883-.449-.477-.25-.082m-3.888-1.067c-1.645.277-1.086 1.297.18 1.77m4.383 2.351c.688-.457 1.246-1.086 1.082-2.039-.164-.949-.527-.785-.363 0 .168.789.332 1.086 1.316 1.121.984.031 1.602-.227 2.23-.621.887-.562.855-1.547-.062-1.875-.902-.32-1.555 1.043-.656 1.805.426.359.949.852 1.605 1.055-.098.324 0 1.016.457 1.148.461.129 1.055-.594 1.086-1.906.035-1.316.133-2.363.195-2.988m1.418-.231c-.035 1.02-.562 2.793-.461 4.039m1.016 1.937c1.379-.922 1.48-1.445 1.348-2.363-.133-.922-.789-.82-.527-.133.266.688.758.984 1.348.953.59-.031.824-.355.723-1.809-.031-.457-.262-.492-.199-.094.066.391.789.523 1.348.555.559.035 2.398.098 2.855 0 .465-.094.297.715.266.918-.066.398-.133.82-.461 1.219-.328.391-.691.324-.887-.199-.195-.523-.555-.656-1.215-.59-.656.066-1.344-.199-2.43 0m4.89.098c.527-.098 1.348-.363 1.711-.195.359.164.875-.168.855-.855-.035-.949-1.613-.918-.855.855m3.48-4.071c.262 1.082.262 2.918 0 3.578-.262.656-1.215.586-.953 0 .129-.297.922-.547 1.215-.102.133.199.363.465.949.395.82-.098 1.219-.062 1.152-1.805-.023-.598-.852-.395-.102.16m1.153 2.763c.953-.688 1.676-1.84 1.117-2.66s-.922-.621-.887-.133c.031.496.262.758.852 1.152m1.61 1.184c.887-.395 1.105-1.148 1.016-1.941-.062-.59-.312-.961-.82-.621-.492.328-.539 1.121.23 1.082 1.383-.062 3.613-.492 5.648-1.281m-3.574 1.019c-.203-.691.227-1.512.852-1.707.617-.199 1.508.098 1.703.754.277.926-.625 1.672-1.113 1.082-.527-.629-.922-2.395-1.082-3.809m5.089 1.937c-.562-.988-2.254-.262-1.875.723.383.984 2.398.207 1.875-.723zm.027.133c.301-.066.891-.363 1.254-.59m-2.957-3.222c.723-.59 1.934-.668 2.004.793.098 2.195 1.379 3.383 2.527 2.328.281-.254-.031-.59-.262-.133m-35.269 1.117c.125.02.363.055.66.102m1.774.285c.152.027.273.051.359.078" fill="none" stroke="#ffce46" stroke-width=".076" stroke-linecap="round" stroke-linejoin="round"/><path d="M280.835 168.637l-2.23-51.488c-.426-7.742-7.094-6.176-12.086-3.152s-10.641 3.242-16.68 1.008c-6.047 2.234-11.688 2.016-16.68-1.008-4.992-3.023-11.66-4.59-12.086 3.152l-2.23 51.488" fill="#fff" stroke="#ffce46" stroke-width=".076" stroke-linecap="round"/><path d="M254.956 116.957c1.707 1.051 3.484.848 4.539.719-3.746-2.168-4.668-9.008-4.336-11.953.656-5.848-.727-8.996-4.141-9.523-.816-.129-1.312-.363-2.59-.527-1.082-.137-1.973.758-2.461 1.676-.988-.691-1.711-.66-2.824-1.051-1.305-.461-2.793-.098-2.957 2.168l.523-.23c.426.555 1.082.195 1.938.754.855.559 2.348 1.391 2.629 3.973.559 5.125-.098 10.375-5.09 14.715 1.051.129 2.828.332 4.535-.719a10.424 10.424 0 0 1-1.711 1.898c2.297-.453 3.898-1.176 4.906-2.664.394.43 1.594 1.742 1.922 2.5.328-.758 1.535-2.051 1.934-2.48 1.008 1.465 2.609 2.191 4.895 2.645a10.697 10.697 0 0 1-1.711-1.901z" fill="#fff" stroke="#ffce46" stroke-width=".076" stroke-linecap="round"/><path d="M252.929 110.188a11.453 11.453 0 0 0 2.027 6.77m-3.195-.727c-.902-1.316-1.332-3.234-1.332-6.109m-3.68.066c.051 2.617-.769 4.969-2.027 6.77m3.214-.767c.891-1.312 1.309-3.219 1.309-6.07" fill="none" stroke="#ffce46" stroke-width=".076" stroke-linecap="round"/><path d="M240.71 98.234c.426.555 1.082.195 1.938.754.785.516 2.105 1.262 2.531 3.383-.195-.918.461-1.836 1.277-1.734-1.41-2.207-4.461-2.961-5.746-2.403z" fill="#ffce46"/><path fill="#ffce46" stroke="#ffce46" stroke-width=".076" stroke-linecap="round" d="M251.347 146.043l4.339 19.437-1.445 1.446-1.515-1.117-2.559-17.207 1.25 17.406-1.578 1.707-1.574-1.707 1.246-17.406-2.559 17.207-1.516 1.117-1.441-1.446 4.336-19.437h3.016zM224.48 115.41l-2.172 50.023-3.465 3.203 2.23-51.488c1.02-.558 2.871-1.808 3.407-1.738zM228.96 118.824l-1.824 42.027-3.473 3.289 2.09-48.207c.707.755 2.75 2.528 3.207 2.891zM232.917 122.106l-1.508 34.684-2.922 2.781 1.723-39.66c.75.683 2.332 1.964 2.707 2.195zM236.905 123.977l-1.25 28.773-2.922 2.781 1.418-32.672c.586.364 2.004 1.086 2.754 1.118zM240.98 123.914l-1.074 24.82-2.922 2.766 1.184-27.391c.64.032 2.46-.035 2.812-.195zM275.198 115.41l2.172 50.023 3.465 3.203-2.23-51.488c-1.02-.558-2.868-1.808-3.407-1.738zM270.718 118.824l1.828 42.027 3.473 3.289-2.094-48.207c-.707.755-2.746 2.528-3.207 2.891zM266.761 122.106l1.504 34.684 2.926 2.781-1.723-39.66c-.746.683-2.332 1.964-2.707 2.195zM262.772 123.977l1.246 28.773 2.93 2.781-1.418-32.672c-.586.364-2.004 1.086-2.758 1.118zM258.698 123.914l1.074 24.82 2.926 2.766-1.191-27.391c-.637.032-2.453-.035-2.809-.195z"/><path fill="#fff" stroke="#ffce46" stroke-width=".076" stroke-linecap="round" d="M240.382 137.375l-8.668 30.34 11.82 1.578 4.859-22.594-8.011-9.324zM259.296 137.375l8.668 30.34-11.821 1.578-4.859-22.594 8.012-9.324z"/><path d="M237.429 147.75l1.18 2.363 3.023-3.281m-.395-4.535l1.113 9.918 3.547-4.395m-1.379 1.707l2.039 5.516m-.199 1.18l-3.086 2.754-1.445-5.383-2.098 3.223-1.445-3.812-3.156 2.891m-.523 1.577l2.101 5.383 2.301-3.215 1.504 4.234 2.762-3.645 1.098 5.152m-10.294 1.579l2.203-2.953 1.641 4.859 2.43-3.68 1.215 4.137 2.363-1.773m18.32-19.801l-1.18 2.363-3.02-3.281m.391-4.535l-1.113 9.918-3.547-4.395m1.379 1.707l-2.039 5.516m.203 1.18l3.082 2.754 1.445-5.383 2.102 3.223 1.445-3.812 3.156 2.891m.52 1.577l-2.102 5.383-2.297-3.215-1.508 4.234-2.762-3.645-1.098 5.152m10.295 1.579l-2.199-2.953-1.645 4.859-2.426-3.68-1.219 4.137-2.363-1.773" fill="none" stroke="#ffce46" stroke-width=".076" stroke-linecap="round"/><path d="M249.839 120.106c3.484 2.82 8.344 4.07 13.645 3.711-.641 12.375-4.188 21.18-13.645 27.609-9.457-6.43-13.004-15.234-13.645-27.609 5.305.359 10.164-.891 13.645-3.711z" fill="#fff" stroke="#ffce46" stroke-width=".076" stroke-linecap="round"/><path d="M249.839 149.883c7.621-5 11.727-13.445 12.277-24.887-4.922.098-9.254-1.019-12.277-3.527-3.02 2.508-7.355 3.625-12.277 3.527.55 11.442 4.66 19.887 12.277 24.887z" fill="#fff" stroke="#ffce46" stroke-width=".076" stroke-linecap="round"/><path d="M253.893 123.766c2.406.895 5.207 1.289 8.223 1.23-.441 9.203-3.188 16.473-8.215 21.566l-.008-22.796zM245.788 123.766c-2.41.895-5.207 1.289-8.227 1.23.445 9.203 3.191 16.473 8.211 21.566l.016-22.796z" fill="#ffce46" stroke="#ffce46" stroke-width=".076" stroke-linecap="round"/><path d="M237.886 167.715c2.867.391 6.031.566 8.289.445 1.551-.086 2.547 2.473-.145 2.766-2.699.289-6.438-.191-8.52-.48-2.082-.285-5.816-.832-8.332-1.836-2.508-1.016-.855-3.203.605-2.703 2.142.726 5.243 1.413 8.103 1.808zM261.792 167.715c-2.863.391-6.031.566-8.289.445-1.543-.086-2.543 2.473.148 2.766 2.691.289 6.434-.191 8.516-.48 2.082-.285 5.816-.832 8.332-1.836 2.512-1.016.863-3.203-.602-2.703-2.144.726-5.242 1.413-8.105 1.808z" fill="#fff" stroke="#ffce46" stroke-width=".076" stroke-linecap="round"/><path d="M228.8 166.328c-2-.484-3.227 2.141-2.309 3.566.051-.828 1.801-.848 2.008-1.566.246-.89-.531-1.164.301-2zM237.23 172.156c.199-1.422 1.41-.461 1.621-1.984.105-.773-.254-1.664-1.098-1.781-.848-.113-1.402.648-1.512 1.426-.211 1.523 1.18.949.989 2.339zM247.011 168.832c2.059.078 2.527 2.938 1.258 4.062.18-.812-1.504-1.305-1.504-2.055 0-.925.82-.976.246-2.007zM270.878 166.328c2.004-.484 3.227 2.141 2.312 3.566-.051-.828-1.805-.848-2.008-1.566-.249-.89.528-1.164-.304-2zM262.448 172.156c-.199-1.422-1.41-.461-1.617-1.984-.109-.773.254-1.664 1.098-1.781.848-.113 1.402.648 1.508 1.426.21 1.523-1.18.949-.989 2.339zM252.667 168.832c-2.059.078-2.527 2.938-1.258 4.062-.18-.812 1.508-1.305 1.508-2.055 0-.925-.824-.976-.25-2.007zM229.581 166.98c.555-.141 1.875.34 2.137.746M233.081 168.148c.527-.18 1.957.223 2.363.59M245.78 169.625c-.48-.312-1.883-.273-2.266.027M242.093 169.617c-.449-.336-1.934-.414-2.434-.195M270.101 166.98c-.559-.141-1.879.34-2.141.746M266.593 168.148c-.52-.18-1.957.223-2.359.59M253.897 169.625c.484-.312 1.879-.273 2.266.027M257.589 169.617c.441-.336 1.93-.414 2.426-.195" fill="#fff" stroke="#ffce46" stroke-width=".076" stroke-linecap="round"/><path d="M254.745 99.289c-.66-1.785-1.902-2.812-3.727-3.09-.816-.129-1.621-.367-2.59-.527-1.02-.164-1.973.758-2.461 1.676.914.461 1.551 1.547 2.195 1.676.82.164 1.387-.055 2.266-.953 1.348-1.383 3.68-.774 4.317 1.218z" fill="#ffce46"/><path d="M248.101 97.543c-.625 0-.625.934 0 .934s.636-.934 0-.934z" fill="#fff"/></g></svg>