<svg xmlns="http://www.w3.org/2000/svg" viewBox="0 0 499.839 277.402"><path fill="#ea0437" d="M499.839 277.402V-.375h-500v277.777h500z"/><path fill="#4189dd" d="M-.161 277.402h500V138.52l-500 138.882z"/><path fill="#12ad2b" d="M-.161-.375h500V138.52L-.161-.375z"/><path d="M110.14 188.336c.457-5.586-.062-14.371-1.531-20.676 3.543-1.113 6.137-4.379 7.91-6.891 10.883 4.398 18.324-2.562 20.082-8.562-1.836 1.68-5.199 3.441-8.32 4.078-.797.164-1.117-.215-.238-.719 4.805-2.719 7.441-6.879 7.84-11.039-2.559 2.316-4.238 2.316-6.242 2.316-.961 0-4.719.082-6.156 2.641-.656 1.164-1.523.32-1.281-.32.238-.641.398-1.441.398-2.398 0-.961-.32-2.16 3.441-4.801.617-.434.562-.801-.16-.641-9.125 2.027-12.004 9.602-9.84 15.602-2.184 4.934-6.117 6.469-8.352 7.539-.016-.051-.031-.105-.051-.152-2.52-6.844-4.68-15.848-4.004-21.949.106-.953 0-2.48 1.684-2.637 2.242-.215 4.238-1.203 5.918-2.727 1.684-1.516 3.898-1.074 5.445-.238 5.039 2.723 11.84-1.121 13.34-4.078.828-1.637.051-1.43-.719-.844-2.047 1.562-4.441 1.801-7.324.723-.996-.375-.957-1.145.301-1.082 4.621.242 8.043-3.656 9.902-6.781.359-.598.262-.984-.422-.598-2.758 1.559-3.957 1.203-5.641.598-1.676-.598-3.238-.898-5.52.781-1.07.789-1.082-.242-.117-.961.957-.719.656-1.801 3.18-3.18.535-.293.961-.793.18-.84-7.023-.422-8.582 3.062-10.562 8.402-1.98 5.34-2.762 5.703-7.262 7.621-1.66.711-1.309-.355-.898-1.141 2.938-5.641 5.816-10.023 7.738-17.527.215-.828.48-1.738.719-1.977 1.863-1.859 4.504-3 4.863-3.418.359-.422.707-.566 1.5-.301 4.98 1.68 10.742-.062 12.664-4.203.461-.996.242-1.316-.242-1.024-2.23 1.399-4.02 1.445-5.52 1.445s-1.496-.754-.059-1.02c2.578-.477 5.637-3.664 6.18-6.484.23-1.199-.359-1.199-1.141-.418-.781.781-2.102 1.02-3.598.898-3.594-.285-4.145 1.023-4.926 2.34-.781 1.32-.836.422-.836-.059 0-.48-.246-1.199.418-1.801.66-.598.602-1.68 2.641-2.879 1-.59 1.02-1.024.039-1.16-4.516-.645-7.441 3.68-7.602 7.359-.16 3.68-.32 4.801-2.961 7.199-.855.777-1.375.773-1.121-.152 1.922-6.965 1.68-11.148-1.02-17.207-.305-.688-.48-1.141-.102-1.68 2.438-3.457.723-9.766-2.418-12.664-1-.922-1.203-.543-.965 0 .676 1.508-.418 3.539.242 6.238.078.316-.481 1.863-.957.359-.742-2.312-4.141-3.238-4.684-5.816-.137-.652-.352-.84-.719-.48-2.223 2.156-1.5 6 1.379 8.582.887.793.305.898-.539.598-.84-.297-2.102-1.02-3.66-2.641-.473-.488-1.09-.605-.961.301.723 5.105 6.121 8.164 9.961 7.621 1.055-.148 1.199-.273 1.559.461 3.066 6.203.727 15.684-2.074 25.766-.5 1.793-1.043 1.039-1.844.637-2.18-1.086-4.961-4.156-5.762-4.961-.797-.797-.738-1.219-.559-1.914 1.039-4.164-1.52-9.043-6.559-12.562-1.5-1.047-1.684-.086-.723.879.961.957 1.598 3.758 1.84 5.199.242 1.438-.242 1.68-.879.078-.641-1.598-3.281-2.394-5.363-2.238-2.078.16-3.039-1.203-3.922-2.48-.875-1.281-.973-.32-.957.164.082 2.879 1.918 7.438 6 9.117 1.473.606 1.121 1.121 0 1.281-1.121.16-2.801 0-5.043-.402-1.188-.211-1.727-.023-.875 1.043 3.438 4.32 7.199 4.156 13.598 3.996 2.777-.066 2.402-.078 3.203.562.801.644 2.082 1.762 3.801 3.523 2.551 2.609 1.879 2.609 1.082 3.84-5.762 8.879-7.324 18.961-5.602 24.883.719 2.48.078 1.84-.961.961-1.039-.879-1.922-2.082-3.523-3.676-1.199-1.207-1.438-2.008-1.52-5.285-.082-3.281-.082-10.004-9.277-12.32-1.211-.309-1.285.402-.566.719 2.262 1.004 2.562 3.281 2.883 5.52.32 2.242-.16 1.922-1.523-.16-1.359-2.078-2.637-1.84-5.359-1.762-2.719.078-4.398-.797-6.559-3.676-.562 5.438 3.84 10.398 9.195 12.316 1.363.488 1.129 1.125.168 1.125-.965 0-2.402-.16-3.363-.801-.961-.641-1.121-.559-2.078-.719-.965-.164-2.484-.723-3.121-1.281-.641-.562-.801-.082-.121 1.562 1.582 3.812 10.562 10.438 18.242 5.277 2.281 1.438 3.844 4.922 7.562 7.441 2.605 1.766 2.16 3.961 2.281 4.68.117.723.719 2.883 1.555 4.801.848 1.918 1.156 4.07 1.086 6-.18 4.84-.223 11.883-.238 16.242a472.605 472.605 0 0 0-3.602-1.719c-14.766-6.961-11.766-19.68-27.605-30.246-1.25-.828-2.281-1.078-1.199.363 1.078 1.441 2.16 6.84 2.277 9.723.117 2.879.242 4.918 1.199 6.719.961 1.797.121 1.441-1.082.602-1.195-.84-2.277-1.918-3.961-3.723.848-7.078-.234-21.082-4.637-29.727-.656-1.273-.926-.48-.879.16.398 5.523-1.363 8.242-2.965 10.641-.762 1.148-1.359 2.406-1.438 3.844-.078 1.441-.723.801-1.199.082-.48-.723-.883-2.004-1.442-2.801-.558-.801-.844-1.246-.32-1.844 4.641-5.277 7.84-17.199 6.164-25.281-.156-.746-.481-.773-.723.16-2 7.68-5.52 4.477-8.402 8.961-1.172 1.816-1.277-.242-1.441-1.441s-.25-2.016.242-2.324c8.641-5.277 10.961-11.68 13.52-18.559.789-2.113-.156-3.52-1.277-.398-1.121 3.117-4.32 3.277-6 3.277-1.68 0-2.645.32-3.363 1.039-.719.723-1.203.801-1.281.082-.059-.559.164-1.039.961-2.883.801-1.836.562-2 2.559-2 5.848 0 11.445-4.48 14.805-11.199 1.484-2.969-.48-1.844-1.52-.641-1.039 1.203-2.641 1.039-3.601 1.039-.957 0-2.801-.641-3.922-.48-1.117.16-.797-1.039.082-2.238.883-1.203.965-1.496 1.922-.883 5.519 3.52 15.844-.641 17.684-5.836.578-1.637.559-1.766-.801-1.285-4.137 1.461-6.484-.16-7.844 0-1.359.16-1.516-.32 1.043-1.762 2.555-1.438 3.356-1.039 7.762-.559 4.398.48 7.906-.555 13.441-5.684.809-.75.293-.945-.602-.637-.777.27-1.176-.02-2.117.16-1.359.258-3.637.695-5.203 1.281-1.621.598-1.918-.961-.078-1.203 5.578-.727 9.441-3.035 11.121-4.082 1.68-1.039 1.281-1.832.32-1.598-.961.242-2.082.16-4.16 0-2.086-.16-5.98 2.352-7.684 4.48-.961 1.199-1.32.961-.84.18 1.086-1.762 3.777-4.441 5.461-5.582.457-.312.184-.465-.297-.48-6.605-.18-12.785 3.484-15.605 9.906-.84.297-1.98.961-3.18 1.559-.059-4.562 3.84-6.902 7.559-9.602.742-.539.246-.793-.234-.781-13.444.403-18.467 10.567-18.065 19.446-.328.32-.719.801-1.121 1.203-2.242-2-.082-8.965 2-11.684-11.519 2.16-14.082 20.164-11.043 24.645.551.812.562 1.359.562 2 0 1.363-.398 1.121-.723.645-1.758-2.645-3.039-8.723-1.441-14.246.145-.484-.102-.621-.48-.277-11.84 10.758-8.316 26.125-.32 33 .082.488-.078 1.285-.078 1.766-5.398-3.48-7.281-9.199-8.242-14.484-7.078 16.203.402 28.805 11.922 34.809.078.477.324.879.562 1.559-7.684-2.164-12.004-8.402-14.402-11.762-.121 20.883 16.199 30.363 26.887 30.363.477.484 1.316 1.203 2.277 1.922-8.883.363-18-3.238-21.125-5.52-.996-.73-1.145-.273-.719.48 13.082 22.926 40.445 22.684 53.051 21.664a6.312 6.312 0 0 1 1.609.086c-3.871 2.242-7.254 4.598-8.809 6.156-.723.719-.363 1.141.598 2.219.961 1.082 1.195 1.676 2.52.48 2.074-1.871 4.305-3.906 6.797-5.57-.207 1.473-.629 3.078-1.395 4.371-.902 1.52.121 1.801 1.078 1.68.961-.121 2.879 0 4.082.355 1.203.363.84 0 .602-1.074-.188-.836-.438-2.41-.043-5.73 2.418 2 4.902 4.715 7.781 7.23 1.152 1.004 1.145.719 2.344-.426 1.359-1.289 1.535-1.648.598-2.52-3.273-3.02-4.309-4.105-9.211-6.688a15.76 15.76 0 0 1 6.211-.512c12.484 1.441 40.57-2.16 46.887-20.844-3.199 4.082-10.398 5.117-14.957 5.039-1.445-.023-3.441-.078-4.645.402-1.199.48-1.598 0-.641-.719.859-.645 1.684-.965 2.52-1.043 18.66-1.773 25.211-18.48 23.566-29.043-1.758 4.316-6 7.762-11.203 10.32-1.219.602-1.598.641-1.52.082.078-.562.383-.879 1.281-1.523 17.164-12.242 13.32-27.242 10.684-34.324-.301-.805-.539-.539-.602 0-.777 6.723-3.359 9.176-6.84 14.164-.547.773-.898.719-.844.297.062-.422-.055-1.078 0-1.738 11.164-11.043 6.086-25.445-1.519-32.891 1.121 5.043-.238 11.922-.797 13.605-.562 1.684-.961 1.523-1.121.961a11.907 11.907 0 0 1-.32-1.52c3.281-11.766-.801-21.363-10.723-27.047 1.199 2 2.801 9.125 2.477 11.043-.316 1.922-1.082 1.359-1.277.16-2.32-14.246-8.961-18.562-19.422-20.426-.711-.125-.582.371-.121.605 3.898 1.977 6.961 5.934 7.981 7.914 1.016 1.984-.059 1.441-1.379 1.203-1.32-.242-1.73-.473-2.102-1.203-4.262-8.34-9.719-9.535-16.262-10.383-1.273-.16-.801.086-.301.363 2.699 1.5 4.5 3.242 6.844 6.004.914 1.078-.062 1.262-.844.359-4.863-5.613-7.738-5.402-12.363-4.98-1.016.09-.898.777-.238.898s1.199.898 1.68 1.262c3.59 2.691 7.262 3.777 12.062 4.496.809.125.66.664.062.664-2.824 0-6.367-1.078-8.941-2.34-.852-.418-.734.07-.484.359 7.684 8.883 13.566 7.621 16.625 6.961 1.004-.219 1.559-.477 2.461-.121.902.363 2.637 1.082 3.719 1.859 1.082.781 0 1.141-.961 1.023-.957-.125-3.297-.125-4.379-.125-1.078 0-2.941-.359-4.02-1.137-.449-.324-.84-.418-.742.02 1.172 5.148 9.684 12.082 19.445 8.961.719.641 1.363 1.281 2.238 2.16.879.883.402 1.359-.398 1.203-.801-.16-1.602-.402-2.719-.402-1.121 0-3.68-.16-6.082-1.602-.688-.41-1.551-.574-1.363.043 2.285 7.32 9.844 12.004 17.367 13.48.312.883.801 2.16 1.199 2.961 1.184 2.371-.16 1.602-.641 1.121-1.281-1.281-5.52.641-10.559-5.52-.504-.617-.781-.504-.641.078 1.801 7.684 6.238 15.363 14.559 20.484 0 1.281.16 2.16-.16 3.199-.316 1.043-.719 1.402-1.918-.16-1.199-1.559-7.078-2.758-8.281-9.84-1.68 7.801.84 18.605 5.16 24.723 1.277 1.809 1.68 2.645 1.32 3.242-.359.602-1.082 2.043-1.441 3.121-.359 1.082-1.32 1.801-1.199 0s-6.238-6.242-5.043-15.965c-4.918 5.281-5.519 21.488-4.32 30.129-1.078 1.438-2.277 2.879-3.961 4.438-2.238 2.082-2.398 1.082-1.082-.836 1.324-1.926.965-5.402.844-7.922-.121-2.523 1.082-6.484 1.922-8.523.836-2.039.719-2.398-.84-1.441-1.566.961-9.992 9.215-14.164 18.605-1.68 3.777-3.305 7.918-10.324 10.258-1.571.533-3.294 1.244-5.059 2.072z" fill="#ffc726"/></svg>