<svg xmlns="http://www.w3.org/2000/svg" viewBox="0 0 499.839 277.402"><path fill="#0f47af" d="M-.161 184.812h500v92.59h-500v-92.59zM499.839-.375h-500v92.594h500V-.375z"/><path fill="#fff" d="M499.839 92.219h-500v92.593h500V92.219z"/><g><path d="M249.905 112.195c-2.129 1.016-.855 3.75-2.41 5.84-.832 1.105-.926 5.551-.832 7.594l8.898 2.223c-.281-4.074-2.32-7.043-2.879-10.191-.554-3.153-2.222-3.989-2.777-5.466z" fill="#00678e" stroke="#000" stroke-width=".031"/><path d="M253.565 133.09l14.785-15.523c.367 6.02-.469 13.625-2.504 17.238l8.988-5.379c-1.766 9.176-4.559 16.039-9.176 20.109-1.574 1.395-8.605 5.113-11.957 3.527-1.758-.836-3.148-2.133-3.797-3.617-.652 1.484-2.043 2.781-3.801 3.617-3.348 1.586-10.43-2.133-12-3.527-4.621-4.07-7.461-10.934-9.227-20.109l8.996 5.379c-2.043-3.613-2.879-11.219-2.504-17.238l14.785 15.523h7.412z" fill="#00678e" stroke="#000" stroke-width=".031"/><path d="M249.858 147.684c-.137 1.344-1.215 4.535-1.996 5.84-.875 1.484.727 1.77.93 2.73.184.883.691 1.438 1.805 1.676-.137-.977.324-1.953.93-2.23.602-.27 1.34-.414 1.301-1.152-.047-.746.875-1.254-.238-2.414-1.114-1.154-2.732-2.689-2.732-4.45z" fill="#00678e" stroke="#000" stroke-width=".031"/><path d="M250.784 121.133c-.602-2.223 1.949-4.793.449-6.926.578.801 1.16 1.82 1.449 3.453.145.785.375 1.559.645 2.348.516 1.402-.777 3.215-.223 5.762-.793-.832-2.089-3.477-2.32-4.637zM257.593 135.496c1.672-2.312 2.367-7.363 2.098-8.836l4.34-4.562c1.07 5.336-1.289 12.797-3.418 16.457l1.602 1.84c1.059-1.156 1.668-2.559 1.523-4.328l5.156-3.086c.055 4.922-1.566 9.332-4.992 11.598l-6.309-9.083zM242.12 135.496c-1.668-2.312-2.363-7.363-2.09-8.836l-4.348-4.562c-1.07 5.336 1.297 12.797 3.426 16.457l-1.602 1.84c-1.062-1.156-1.668-2.559-1.527-4.328l-5.16-3.086c-.055 4.922 1.566 9.332 5 11.598l6.301-9.083zM260.058 148.285c-3.574 4.355-5.656 4.863-10.199.836-4.547 4.027-6.629 3.52-10.195-.836h20.394z" fill="#fff" stroke="#000" stroke-width=".031"/><path d="M250.597 157.93c-.969-.211-1.445-.598-1.555-2.5-.137-2.465.996-2.898 1.234-3.711.508.367.25.625.855 1.344.602.719.812 1.945.047 2.914-.765.976-.554 1.324-.581 1.953z" fill="#fff" stroke="#000" stroke-width=".031"/><path d="M226.222 122.063c.605-1.023 1.207-1.996 1.852-2.504-.414.606-1.43 2.274-1.707 2.688M223.116 127.664c.23-1.336.094-3.051 0-3.981.191.699.508 2.922.277 3.891M220.382 137.117c.309-1.898.605-3.309 1.766-4.305-.652.969-1.16 1.852-1.535 4.676M220.296 136.195c-.094-1.352-.699-3.664-1.16-4.543.785 1.391 1.246 2.453 1.246 4.121M221.671 145.383c.102-1.918.258-3.355 1.309-4.469-.543 1.039-.961 1.969-1.043 4.816M221.409 144.301c-.469-.926-1.16-1.805-1.766-2.363.605.375 1.621 1.438 1.899 2.043M229.655 159.688c-1.23-.137-3.059-.164-4.078.344.762-.277 3.52-.277 4.375-.066M231.714 161.262c-.23-1.184-.949-2.621-1.523-3.176.625.375 1.363 1.812 1.734 3.086M225.851 155.43c-.461-1.953-.742-3.387-.414-4.965 0 1.16.184 3.844.785 4.914M225.39 154.547c-.789-1.398-2.043-2.461-2.918-2.875 1.02.324 2.082 1.16 2.82 2.223" fill="#00693f" stroke="#000" stroke-width=".031"/><path d="M223.069 127.828c.445-.465 1.348-1.344 1.789-1.645-.352.375-1.391 1.481-1.668 1.852" fill="#00693f" stroke="#000" stroke-width=".031"/><path d="M222.839 128.734c.73-2.055 2.781-1.344 3.574-2.684.367 1.57-2.32 4.535-4.41 5.602.238-.511.605-2.273.836-2.918zM224.554 124.699c.836-1.715 2.043-3.52 4.266-4.219-.509 1.399-1.438 4.219-4.266 4.219z" fill="#00693f" stroke="#000" stroke-width=".031"/><path d="M227.151 118.91c-1.668 1.207-2.781 3.336-2.734 5.652-.188.414-.832 1.719-1.391 2.227 1.066-.699 1.441-1.344 1.758-1.715 1.812.184 4.219-.559 4.918-3.336-1.629 0-2.598 2.824-5.004 2.914 2.731-2.218 1.617-5.234 2.453-5.742zM220.987 132.352c-.883-1.352-1.715-3.664-1.344-4.688.375-1.02 1.16-2.312.969-2.965.699.375.375 1.766 1.258 3.289.539.946.277 2.414-.883 4.364z" fill="#00693f" stroke="#000" stroke-width=".031"/><path d="M221.726 145.879c-1.113-4.082-2.176-8.484-1.293-11.312.52-1.66.508-1.984.277-2.82-.23-.836-.098-2.223.461-3.059.555-.836 1.07-2.828.93-3.519 1.34.691 2.223 3.75 1.207 5.047-1.023 1.301-1.949 2.176-2.457 4.406-.516 2.219-.047 6.762 1.574 11.535" fill="#00693f" stroke="#000" stroke-width=".031"/><path d="M220.71 141.012c-4.816-2.457-3.664-5.746-4.355-7.09-.524-1.016.027-.664.508-.324 1.851 1.297 3.617 5.14 3.847 7.414z" fill="#00693f" stroke="#000" stroke-width=".031"/><path d="M221.171 142.074c.516-2.496 3.805-2.168 3.938-8.246-1.848 1.297-5.188 5.051-3.938 8.246z" fill="#00693f" stroke="#000" stroke-width=".031"/><path d="M221.171 142.074c-.23-2.082.746-2.867 1.348-3.656.598-.793 1.152-2.453 1.152-4.68 0-.832-.445-.77-.738-.188-.414.832-1.098 1.539-1.852 2.367-.976 1.062-.93 3.242-.188 5.973" fill="#00693f" stroke="#000" stroke-width=".031"/><path d="M220.663 140.867c-.512-1.707-1.25-1.758-1.949-2.59-.691-.836-1.57-2.273-1.246-3.289.324-1.02.508-1.898.414-2.637-.09-.746.371-.746.793.277.414 1.016 1.988 4.211 2.129 7.824M223.538 149.168c-.836-1.992-1.574-4.074-.469-6.211 1.113-2.129 1.16-2.227 1.578-.836.414 1.391.368 5.332-1.109 7.047z" fill="#00693f" stroke="#000" stroke-width=".031"/><path d="M224.23 151.441c-1.02-1.621-3.012-1.668-4.027-2.414-1.02-.742-2.918-2.688-3.34-4.816-.414-2.137.332-1.633 1.766-.785 1.805 1.062 4.121 3.098 5.371 7.227M224.507 152.133c-.555-2.312.203-2.992.602-3.473.742-.883.559-2.227 1.113-3.02.559-.785.652-1.844.605-2.59-.047-.738-.652-.461-1.344.508-.699.973-1.066 1.766-1.391 2.918-.324 1.164-.324 3.344.047 4.504" fill="#00693f" stroke="#000" stroke-width=".031"/><path d="M226.499 155.699c-1.062-1.898-2.547-5.234-2.637-6.672-.094-1.434-1.023-3.387-1.992-4.125-.977-.738-2.273-1.477-2.688-2.406-.422-.93-.699-.469-.508.699.184 1.152.121 2.418 1.43 3.699 3.894 3.801 4.496 6.348 5.746 9.176M234.335 162.977c-1.113-1.715-3.805-3.52-5.938-2.598.789.746 1.489 2.461 5.938 2.598z" fill="#00693f" stroke="#000" stroke-width=".031"/><path d="M231.972 161.309c-1.715-1.344-3.754-3.105-2.969-4.125.785-1.016 1.621-1.852 1.812-3.152.18-1.297.785-3.051.277-4.496-.523-1.457-.793-1.344-1.066.238-.645 3.621-3.852 4.957-2.367 8.293.719 1.613 2.129 1.898 3.012 2.59" fill="#00693f" stroke="#000" stroke-width=".031"/><path d="M229.233 159.273c-.969-1.391-1.402-2.379-.969-3.711.645-1.992.645-4.266.133-6.258-.508-1.988-1.23-1.066-1.293.094-.094 1.715-1.254 1.996-1.16 3.012.094 1.023-.969 2.922.141 4.449 1.113 1.532 2.41 1.899 3.148 2.414z" fill="#00693f" stroke="#000" stroke-width=".031"/><path d="M228.542 158.949c-.93-.699-1.399-1.312-1.621-2.32-.277-1.25-.965-2.293-2.875-3.059-.699-.277-2.688-.883-3.152-1.805.277 2.782 2.921 5.88 7.648 7.184z" fill="#00693f" stroke="#000" stroke-width=".031"/><path d="M232.433 161.402c-1.902-2.129-6.582-3.52-7.879-5.512-.848-1.312-2.59-1.672-4.586-1.438 1.203.738.973 1.945 2.41 3.055 1.438 1.113 3.75 1.441 5.051 1.629 1.297.184 3.777 1.758 5.234 3.309M245.714 167.289c-1.305-1.16-6.703-3.336-10.172-.746 1.438.977 7.898 2.277 10.172.746zM237.855 164.969c-.922-.602-1.113-1.016-1.113-2.453s-.414-3.289-1.25-4.078c-.832-.793-2.086-2.5-2.316-3.43-.23-.93-.258-.625-.512.371-.649 2.551 1.21 7.785 5.191 9.59z" fill="#00693f" stroke="#000" stroke-width=".031"/><path d="M235.858 164.598c-1.898-1.711-3.336-2.641-4.582-2.543-1.25.086-2.41.086-3.434-.145-1.016-.23-.602.414.516 1.023 1.113.598 4.402 2.496 7.5 1.996" fill="#00693f" stroke="#000" stroke-width=".031"/><path d="M237.995 165.016c-1.391-.691-1.914-1.707-2.039-2.453-.234-1.344-1.527-1.812-1.851-2.875-.328-1.066-1.766-2.598-2.734-3.48-.977-.875-.555.324-.469 1.398.094 1.062.711 1.852.746 2.914.039 1.621 2.781 3.941 4.77 4.355" fill="#00693f" stroke="#000" stroke-width=".031"/><path d="M243.183 167.195c-2.359-2.645-7.18-1.621-8.715-.93-1.523.699-3.52.277-4.168-.184-.645-.461-1.527-.883-2.543-1.207-1.312-.414-.422-.785.41-.645.836.137 2.273.367 3.434.23 1.16-.137 2.129-.324 2.828-.047.691.277 1.805.516 3.52.418 1.715-.094 3.844.742 5.188 1.852M243.69 165.527c-1.477-3.012-3.98-5.84-6.527-6.809.508 2.591 3.289 6.434 6.527 6.809z" fill="#00693f" stroke="#000" stroke-width=".031"/><path d="M246.472 167.379c-1.984-.598-2.359-2.641-3.98-3.523-2.398-1.301-3.152-4.027-3.059-5.652.836.234 2.312.602 2.688 1.578.371.969 1.109 1.391 1.992 2.129s1.309 2.137 1.48 3.664c.047.414 0 1.16 1.207 1.484" fill="#00693f" stroke="#000" stroke-width=".031"/><path d="M247.03 167.473c-1.344 0-2.219.285-3.102 1.062-1.859 1.621-3.086.965-4.359 1.668-1.668.93-2.734-.602-3.52-.18 1.391-1.16 3.938-2.227 6.395-2.457 2.453-.23 2.867-.418 4.586-.277" fill="#00693f" stroke="#000" stroke-width=".031"/><path d="M247.909 167.242c-1.898-.277-2.73-.328-3.566-1.621-.832-1.297-2.637-1.668-3.336-2.781-.699-1.113-2.781-.832-3.336-1.859-.559-1.016-.883-.555-.422.469.469 1.02 1.906 3.664 3.895 4.586 1.992.93 2.691.277 3.524.879.836.605 2.457.742 3.242.742" fill="#00693f" stroke="#000" stroke-width=".031"/><path d="M248.745 167.242c-2.043-.449-4.863.184-6.117-.277-1.25-.461-4.078-.977-4.91-.375-.836.605-1.715 1.023-2.273 1.16-.555.141-.699.605.691.555 1.398-.047 2.598.098 3.25.281.645.18 2.59.234 3.379-.328.793-.555 3.707-.984 5.012-.367 1.477.695 3.246.137 4.859 1.434 2.367 1.906 5.84 1.402 6.629 2.645.16.25 1.07.602 1.688.324.629-.277.543-.914-.531-1.344-2.25-.906-6.801-2.004-8.293-2.785-1.208-.626-2.111-.645-3.384-.923z" fill="#00693f" stroke="#000" stroke-width=".031"/><path d="M228.116 118.82c-.742 0-.742 1.105 0 1.105.746.001.75-1.105 0-1.105zM223.069 123.031c-.746 0-.746 1.105 0 1.105.739.001.746-1.105 0-1.105zM222.194 132.262c-.746 0-.746 1.105 0 1.105.739 0 .754-1.105 0-1.105zM219.136 130.871c-.738 0-.738 1.105 0 1.105s.754-1.105 0-1.105zM222.968 140.367c-.734.078-.625 1.18.113 1.105.742-.081.641-1.179-.113-1.105zM219.718 141.301c-.738.082-.629 1.176.109 1.105.738-.082.637-1.179-.109-1.105zM225.511 159.469c-.738.074-.625 1.176.109 1.098.738-.075.637-1.18-.109-1.098zM230.054 157.613c-.746.074-.629 1.18.109 1.105.738-.081.637-1.183-.109-1.105zM225.382 149.777c-.738.074-.625 1.176.113 1.102.735-.078.633-1.184-.113-1.102zM222.46 151.074c-.734.074-.625 1.18.113 1.098.738-.074.637-1.18-.113-1.098zM225.015 125.465c-.746 0-.746 1.105 0 1.105.738 0 .753-1.105 0-1.105z" fill="#e03a3e" stroke="#000" stroke-width=".031"/><path d="M273.577 122.063c-.594-1.023-1.199-1.996-1.852-2.504.422.606 1.441 2.274 1.719 2.688M276.686 127.664c-.23-1.336-.09-3.051 0-3.981-.184.699-.512 2.922-.281 3.891M279.417 137.117c-.297-1.898-.598-3.309-1.754-4.305.648.969 1.156 1.852 1.523 4.676M279.515 136.195c.094-1.352.695-3.664 1.156-4.543-.785 1.391-1.254 2.453-1.254 4.121M278.136 145.383c-.109-1.918-.266-3.355-1.309-4.469.543 1.039.965 1.969 1.039 4.816M278.401 144.301c.469-.926 1.16-1.805 1.762-2.363-.602.375-1.621 1.438-1.898 2.043M270.155 159.688c1.227-.137 3.059-.164 4.074.344-.758-.277-3.52-.277-4.375-.066M268.093 161.262c.23-1.184.949-2.621 1.527-3.176-.625.375-1.363 1.812-1.738 3.086M273.952 155.43c.461-1.953.746-3.387.422-4.965 0 1.16-.191 3.844-.797 4.914M274.413 154.547c.793-1.398 2.043-2.461 2.922-2.875-1.023.324-2.086 1.16-2.828 2.223" fill="#00693f" stroke="#000" stroke-width=".031"/><path d="M276.733 127.828c-.441-.465-1.344-1.344-1.785-1.645.348.375 1.391 1.481 1.668 1.852" fill="#00693f" stroke="#000" stroke-width=".031"/><path d="M276.964 128.734c-.727-2.055-2.781-1.344-3.566-2.684-.375 1.57 2.316 4.535 4.398 5.602-.231-.511-.602-2.273-.832-2.918zM275.249 124.699c-.836-1.715-2.035-3.52-4.262-4.219.508 1.399 1.438 4.219 4.262 4.219z" fill="#00693f" stroke="#000" stroke-width=".031"/><path d="M272.655 118.91c1.668 1.207 2.781 3.336 2.734 5.652.184.414.836 1.719 1.391 2.227-1.066-.699-1.438-1.344-1.762-1.715-1.805.184-4.215-.559-4.91-3.336 1.617 0 2.594 2.824 5.004 2.914-2.734-2.218-1.621-5.234-2.457-5.742zM278.819 132.352c.875-1.352 1.711-3.664 1.344-4.688-.371-1.02-1.16-2.312-.977-2.965-.691.375-.367 1.766-1.246 3.289-.543.946-.277 2.414.879 4.364z" fill="#00693f" stroke="#000" stroke-width=".031"/><path d="M278.073 145.879c1.113-4.082 2.18-8.484 1.305-11.312-.523-1.66-.508-1.984-.277-2.82.23-.836.086-2.223-.469-3.059-.559-.836-1.066-2.828-.922-3.519-1.352.691-2.227 3.75-1.207 5.047 1.016 1.301 1.945 2.176 2.453 4.406.508 2.219.047 6.762-1.574 11.535" fill="#00693f" stroke="#000" stroke-width=".031"/><path d="M279.101 141.012c4.812-2.457 3.652-5.746 4.352-7.09.523-1.016-.027-.664-.508-.324-1.86 1.297-3.614 5.14-3.844 7.414z" fill="#00693f" stroke="#000" stroke-width=".031"/><path d="M278.632 142.074c-.508-2.496-3.797-2.168-3.934-8.246 1.852 1.297 5.188 5.051 3.934 8.246z" fill="#00693f" stroke="#000" stroke-width=".031"/><path d="M278.632 142.074c.238-2.082-.738-2.867-1.344-3.656-.602-.793-1.16-2.453-1.16-4.68 0-.832.449-.77.746-.188.414.832 1.098 1.539 1.852 2.367.969 1.062.922 3.242.184 5.973" fill="#00693f" stroke="#000" stroke-width=".031"/><path d="M279.147 140.867c.5-1.707 1.246-1.758 1.938-2.59.699-.836 1.582-2.273 1.258-3.289-.328-1.02-.512-1.898-.422-2.637.094-.746-.367-.746-.789.277-.41 1.016-1.984 4.211-2.129 7.824M276.272 149.168c.832-1.992 1.57-4.074.461-6.211-1.113-2.129-1.16-2.227-1.574-.836-.422 1.391-.375 5.332 1.113 7.047z" fill="#00693f" stroke="#000" stroke-width=".031"/><path d="M275.573 151.441c1.023-1.621 3.012-1.668 4.035-2.414 1.016-.742 2.914-2.688 3.336-4.816.414-2.137-.332-1.633-1.762-.785-1.805 1.062-4.125 3.098-5.379 7.227M275.296 152.133c.555-2.312-.191-2.992-.598-3.473-.746-.883-.562-2.227-1.121-3.02-.555-.785-.641-1.844-.594-2.59.039-.738.645-.461 1.34.508.695.973 1.066 1.766 1.391 2.918.32 1.164.32 3.344-.047 4.504" fill="#00693f" stroke="#000" stroke-width=".031"/><path d="M273.3 155.699c1.074-1.898 2.551-5.234 2.645-6.672.09-1.434 1.02-3.387 1.996-4.125.969-.738 2.27-1.477 2.684-2.406.422-.93.691-.469.508.699-.18 1.152-.121 2.418-1.438 3.699-3.891 3.801-4.488 6.348-5.742 9.176M265.476 162.977c1.113-1.715 3.797-3.52 5.926-2.598-.786.746-1.477 2.461-5.926 2.598z" fill="#00693f" stroke="#000" stroke-width=".031"/><path d="M267.835 161.309c1.715-1.344 3.758-3.105 2.969-4.125-.793-1.016-1.621-1.852-1.809-3.152-.184-1.297-.789-3.051-.277-4.496.52-1.457.785-1.344 1.062.238.645 3.621 3.848 4.957 2.367 8.293-.711 1.613-2.137 1.898-3.012 2.59" fill="#00693f" stroke="#000" stroke-width=".031"/><path d="M270.569 159.273c.977-1.391 1.41-2.379.977-3.711-.652-1.992-.652-4.266-.145-6.258.516-1.988 1.242-1.066 1.301.094.09 1.715 1.25 1.996 1.156 3.012-.09 1.023.977 2.922-.137 4.449-1.113 1.532-2.406 1.899-3.152 2.414z" fill="#00693f" stroke="#000" stroke-width=".031"/><path d="M271.265 158.949c.93-.699 1.398-1.312 1.621-2.32.281-1.25.965-2.293 2.875-3.059.695-.277 2.688-.883 3.148-1.805-.277 2.782-2.914 5.88-7.644 7.184z" fill="#00693f" stroke="#000" stroke-width=".031"/><path d="M267.374 161.402c1.898-2.129 6.578-3.52 7.875-5.512.852-1.312 2.594-1.672 4.59-1.438-1.207.738-.969 1.945-2.406 3.055-1.438 1.113-3.758 1.441-5.055 1.629-1.293.184-3.777 1.758-5.234 3.309M254.097 167.289c1.301-1.16 6.699-3.336 10.172-.746-1.438.977-7.903 2.277-10.172.746zM261.956 164.969c.922-.602 1.109-1.016 1.109-2.453s.414-3.289 1.25-4.078c.832-.793 2.09-2.5 2.32-3.43.23-.93.258-.625.508.371.653 2.551-1.207 7.785-5.187 9.59z" fill="#00693f" stroke="#000" stroke-width=".031"/><path d="M263.948 164.598c1.898-1.711 3.332-2.641 4.586-2.543 1.246.086 2.406.086 3.426-.145 1.023-.23.602.414-.512 1.023-1.109.598-4.398 2.496-7.5 1.996" fill="#00693f" stroke="#000" stroke-width=".031"/><path d="M261.811 165.016c1.391-.691 1.914-1.707 2.043-2.453.23-1.344 1.523-1.812 1.852-2.875.324-1.066 1.762-2.598 2.73-3.48.977-.875.559.324.469 1.398-.094 1.062-.711 1.852-.746 2.914-.047 1.621-2.781 3.941-4.766 4.355" fill="#00693f" stroke="#000" stroke-width=".031"/><path d="M256.624 167.195c2.359-2.645 7.184-1.621 8.715-.93 1.527.699 3.52.277 4.164-.184.652-.461 1.531-.883 2.551-1.207 1.309-.414.418-.785-.414-.645-.836.137-2.273.367-3.434.23-1.156-.137-2.129-.324-2.828-.047-.691.277-1.801.516-3.52.418-1.715-.094-3.844.742-5.191 1.852M256.116 165.527c1.477-3.012 3.98-5.84 6.531-6.809-.507 2.591-3.289 6.434-6.531 6.809z" fill="#00693f" stroke="#000" stroke-width=".031"/><path d="M253.335 167.379c1.988-.598 2.359-2.641 3.98-3.523 2.402-1.301 3.156-4.027 3.059-5.652-.832.234-2.312.602-2.684 1.578-.375.969-1.113 1.391-1.996 2.129-.879.738-1.309 2.137-1.484 3.664-.047.414 0 1.16-1.199 1.484" fill="#00693f" stroke="#000" stroke-width=".031"/><path d="M252.78 167.473c1.344 0 2.219.285 3.098 1.062 1.859 1.621 3.086.965 4.363 1.668 1.668.93 2.73-.602 3.52-.18-1.391-1.16-3.941-2.227-6.398-2.457-2.453-.23-2.875-.418-4.582-.277" fill="#00693f" stroke="#000" stroke-width=".031"/><path d="M251.897 167.242c1.898-.277 2.734-.328 3.566-1.621.836-1.297 2.641-1.668 3.336-2.781.699-1.113 2.781-.832 3.34-1.859.555-1.016.879-.555.414.469-.465 1.02-1.902 3.664-3.887 4.586-2 .93-2.691.277-3.527.879-.836.605-2.457.742-3.242.742" fill="#00693f" stroke="#000" stroke-width=".031"/><path d="M251.065 167.242c2.039-.449 4.859.184 6.117-.277 1.246-.461 4.074-.977 4.906-.375.836.605 1.719 1.023 2.273 1.16.555.141.699.605-.691.555-1.398-.047-2.598.098-3.25.281-.648.18-2.598.234-3.383-.328-.785-.555-3.703-.984-5.004-.367-1.48.695-3.25.137-4.863 1.434-2.367 1.906-5.84 1.402-6.625 2.645-.164.25-1.066.602-1.695.324-.625-.277-.535-.914.535-1.344 2.246-.906 6.801-2.004 8.293-2.785 1.208-.626 2.11-.645 3.387-.923z" fill="#00693f" stroke="#000" stroke-width=".031"/><path d="M271.694 118.82c.738 0 .738 1.105 0 1.105-.746.001-.754-1.105 0-1.105zM276.745 123.031c.738 0 .738 1.105 0 1.105-.746.001-.75-1.105 0-1.105zM277.612 132.262c.742 0 .742 1.105 0 1.105-.738 0-.75-1.105 0-1.105zM280.671 130.871c.742 0 .742 1.105 0 1.105-.746.001-.75-1.105 0-1.105zM276.843 140.367c.73.078.617 1.18-.117 1.105-.739-.081-.637-1.179.117-1.105zM280.089 141.301c.738.082.625 1.176-.113 1.105-.735-.082-.633-1.179.113-1.105zM274.296 159.469c.742.074.625 1.176-.113 1.098-.735-.075-.629-1.18.113-1.098zM269.753 157.613c.742.074.633 1.18-.105 1.105-.743-.081-.641-1.183.105-1.105zM274.425 149.777c.742.074.625 1.176-.113 1.102-.735-.078-.633-1.184.113-1.102zM277.351 151.074c.73.074.621 1.18-.117 1.098-.739-.074-.637-1.18.117-1.098zM274.792 125.465c.746 0 .746 1.105 0 1.105-.738 0-.746-1.105 0-1.105z" fill="#e03a3e" stroke="#000" stroke-width=".031"/><path d="M249.858 157.605c2.969 0 5.953-1.629 7.695-2.367 1.133-.488 2.035-.297 2.938.141.906.441 2.691.137 3.594.855.719.57-.02 1.344-.766 1.02-.348-.152-.855-.543-1.547-.594-.609.34-1.41.781-2.461 1.289-1.695.809-5.516 2.668-9.453 2.668-3.941 0-7.762-1.859-9.457-2.668-1.051-.508-1.844-.949-2.461-1.289-.691.051-1.199.441-1.547.594-.738.324-1.476-.449-.766-1.02.902-.719 2.691-.414 3.594-.855.902-.438 1.812-.629 2.945-.141 1.735.739 4.727 2.367 7.692 2.367z" fill="#ffd300" stroke="#000" stroke-width=".031"/><path d="M237.94 156.66c-1.164-.648-1.703-.914-2.312-.426m1.242-.129c-.359.117-.82.34-1.031.453.746-.461.812.586.555.695m25.378-.593c1.164-.648 1.703-.914 2.312-.426m-1.241-.129c.359.117.828.34 1.031.453-.738-.461-.812.586-.555.695" fill="none" stroke="#000" stroke-width=".031"/><path fill="#ad6119" stroke="#000" stroke-width=".031" d="M247.421 140.109l21.722-22.843-.535-.5-21.722 22.839.535.504zM247.972 145.973l27.023-16.219-.379-.633-27.023 16.231.379.621z"/><path fill="#ad6119" stroke="#000" stroke-width=".031" d="M252.3 140.109l-21.723-22.843.528-.5 21.722 22.839-.527.504zM251.741 145.973l-27.023-16.219.379-.633 27.019 16.231-.375.621z"/><path d="M250.241 112.852v-1.016c0-.43.402-1.039 1.105-1.305-1.211-1.633-1.172-3.348-1.469-3.879-.285.531-.25 2.246-1.465 3.879.703.266 1.098.875 1.098 1.305v.598c.137-.098.293-.199.395-.238.102.222.203.495.336.656zM269.143 117.266c.297-.309 1.004-.473 1.695-.18.246-2.023 1.457-3.242 1.613-3.828-.574.184-1.734 1.453-3.742 1.805.332.672.195 1.391-.102 1.703l.536.5zM274.995 129.754c.367-.219 1.102-.191 1.691.277.773-1.887 2.262-2.742 2.57-3.262-.605.027-2.062.941-4.09.738.141.746-.176 1.398-.551 1.613l.38.634zM230.577 117.266c-.301-.309-1.012-.473-1.703-.18-.242-2.023-1.457-3.242-1.605-3.828.566.184 1.727 1.453 3.734 1.805-.324.672-.195 1.391.102 1.703l-.528.5zM224.718 129.754c-.367-.219-1.094-.191-1.684.277-.777-1.887-2.27-2.742-2.57-3.262.598.027 2.055.941 4.082.738-.133.746.18 1.398.551 1.613l-.379.634z" fill="#fff" stroke="#000" stroke-width=".031"/><path d="M249.878 111.922c.672.672 2.168.957 2.168-.078 0-1.047-1.496-.762-2.168-.082v.02c.602-.449 1.945-.652 1.945.062 0 .703-1.344.465-1.945.012-.598.453-1.941.691-1.941-.012 0-.715 1.344-.512 1.941-.062v-.02c-.664-.68-2.164-.965-2.164.082 0 1.035 1.5.75 2.164.078z" fill="#ffd300" stroke="#000" stroke-width=".031"/><path d="M249.089 114.774c.273.074.57-.043.605-.191.203-.766-.062-1.207-.016-1.383.246-.93.496-1.48.238-1.547-.266-.066-.312.527-.562 1.465-.039.176-.488.426-.691 1.191-.039.152.164.394.426.465z" fill="#ffd300" stroke="#000" stroke-width=".031"/><path d="M249.55 113.027c-.289-.078-.391.293-.094.375.297.075.402-.3.094-.375zM250.608 114.793c.273-.07.469-.312.43-.461-.191-.774-.641-1.024-.68-1.203-.242-.934-.285-1.531-.551-1.465-.258.07-.012.613.227 1.547.047.176-.227.609-.027 1.379.031.156.332.277.601.203z" fill="#ffd300" stroke="#000" stroke-width=".031"/><path d="M250.163 113.043c-.301.074-.203.445.094.371.297-.074.211-.453-.094-.371zM268.507 117.43c.027.941.914 2.191 1.633 1.43.715-.75-.57-1.57-1.512-1.543l-.02.012c.746.09 1.852.867 1.363 1.383-.48.508-1.297-.59-1.418-1.328-.746-.09-1.879-.836-1.398-1.352.488-.508 1.332.559 1.453 1.297l.02-.012c-.027-.949-.914-2.191-1.633-1.438-.719.75.57 1.578 1.512 1.551z" fill="#ffd300" stroke="#000" stroke-width=".031"/><path d="M268.722 120.399c.281-.012.523-.215.516-.371-.047-.785-.434-1.125-.441-1.301-.051-.973.016-1.562-.25-1.547-.27.012-.133.598-.082 1.559.008.184-.336.562-.297 1.352.015.155.276.323.554.308z" fill="#ffd300" stroke="#000" stroke-width=".031"/><path d="M268.62 118.598c-.305.012-.285.398.023.387.305-.024.29-.411-.023-.387z" fill="#ffd300" stroke="#000" stroke-width=".031"/><path d="M267.788 119.934c.266.082.562-.023.602-.172.238-.758-.012-1.207.035-1.383.285-.922.449-1.117.191-1.191-.254-.082-.227.176-.504 1.098-.055.176-.508.406-.738 1.164-.047.152.141.409.414.484z" fill="#ffd300" stroke="#000" stroke-width=".031"/><path d="M268.308 118.203c-.289-.09-.406.277-.105.371.288.09.405-.281.105-.371zM274.339 129.746c-.223.914.297 2.348 1.188 1.809.895-.535-.125-1.672-1.039-1.898l-.027.016c.699.277 1.559 1.328.957 1.688-.609.375-1.098-.91-1.016-1.656-.695-.277-1.59-1.309-.992-1.668.609-.363 1.133.883 1.051 1.637l.027-.016c.23-.922-.297-2.352-1.188-1.816-.895.533.125 1.674 1.039 1.904z" fill="#ffd300" stroke="#000" stroke-width=".031"/><path d="M274.292 132.742c.277.008.543-.16.543-.316.031-.797-.32-1.168-.312-1.344.039-.969.168-1.555-.102-1.566-.266-.008-.191.582-.23 1.551-.008.184-.387.523-.422 1.309-.001.155.246.354.523.366z" fill="#ffd300" stroke="#000" stroke-width=".031"/><path d="M274.366 130.934c-.312-.016-.324.379-.02.387.309.011.333-.376.02-.387z" fill="#ffd300" stroke="#000" stroke-width=".031"/><path d="M273.401 132.188c.258.109.562.027.625-.117.297-.73.094-1.199.164-1.367.363-.898.547-1.074.297-1.168-.242-.109-.238.148-.602 1.043-.07.164-.551.359-.848 1.086-.054.147.106.421.364.523z" fill="#ffd300" stroke="#000" stroke-width=".031"/><path d="M274.093 130.512c-.285-.113-.434.246-.148.359.284.117.433-.238.148-.359zM231.206 117.43c-.027.941-.906 2.191-1.625 1.43-.719-.75.562-1.57 1.512-1.543l.012.012c-.746.09-1.852.867-1.363 1.383.488.508 1.297-.59 1.418-1.328.746-.09 1.887-.836 1.398-1.352-.488-.508-1.332.559-1.453 1.297l-.012-.012c.02-.949.906-2.191 1.625-1.438.715.75-.567 1.578-1.512 1.551z" fill="#ffd300" stroke="#000" stroke-width=".031"/><path d="M230.995 120.399c-.277-.012-.527-.215-.516-.371.043-.785.43-1.125.441-1.301.055-.973-.02-1.562.246-1.547.269.012.137.598.086 1.559-.012.184.332.562.293 1.352-.007.155-.269.323-.55.308z" fill="#ffd300" stroke="#000" stroke-width=".031"/><path d="M231.093 118.598c.305.012.285.398-.02.387-.312-.024-.293-.411.02-.387z" fill="#ffd300" stroke="#000" stroke-width=".031"/><path d="M231.925 119.934c-.262.082-.562-.023-.609-.172-.23-.758.02-1.207-.027-1.383-.285-.922-.449-1.117-.191-1.191.258-.082.227.176.504 1.098.055.176.508.406.738 1.164.046.152-.142.409-.415.484z" fill="#ffd300" stroke="#000" stroke-width=".031"/><path d="M231.405 118.203c.289-.09.406.277.105.371-.288.09-.405-.281-.105-.371zM225.374 129.746c.231.914-.297 2.348-1.191 1.809-.891-.535.129-1.672 1.043-1.898l.027.016c-.699.277-1.559 1.328-.949 1.688.602.375 1.09-.91 1.012-1.656.695-.277 1.594-1.309.98-1.668-.602-.363-1.125.883-1.043 1.637l-.027-.016c-.223-.922.297-2.352 1.195-1.816.887.533-.129 1.674-1.047 1.904z" fill="#ffd300" stroke="#000" stroke-width=".031"/><path d="M225.421 132.742c-.277.008-.543-.16-.543-.316-.031-.797.32-1.168.312-1.344-.031-.969-.16-1.555.102-1.566.273-.008.191.582.23 1.551.008.184.387.523.422 1.309.008.155-.242.354-.523.366z" fill="#ffd300" stroke="#000" stroke-width=".031"/><path d="M225.355 130.934c.305-.016.32.379.012.387-.306.011-.333-.376-.012-.387z" fill="#ffd300" stroke="#000" stroke-width=".031"/><path d="M226.311 132.188c-.258.109-.562.027-.625-.117-.297-.73-.094-1.199-.164-1.367-.363-.898-.547-1.074-.297-1.168.25-.109.238.148.602 1.043.07.164.551.359.852 1.086.051.147-.11.421-.368.523z" fill="#ffd300" stroke="#000" stroke-width=".031"/><path d="M225.624 130.512c.285-.113.43.246.152.359-.293.117-.441-.238-.152-.359z" fill="#ffd300" stroke="#000" stroke-width=".031"/><path d="M249.858 138.215a2.617 2.617 0 0 0 2.617-2.625 2.616 2.616 0 0 0-2.617-2.621 2.623 2.623 0 1 0 0 5.246z" fill="#fff"/><path d="M240.179 157.082a23.736 23.736 0 0 1-.195-.094l.434-.875s.156.074.195.094c.074.043.266.172.074.559-.204.418-.434.359-.508.316l-.039.273c.277.141.609-.129.785-.488.277-.586-.027-.789-.176-.863a11.195 11.195 0 0 0-.449-.215l-.656 1.328s.223.109.496.238l.039-.273zM240.933 157.734l.609-1.351.246.109-.613 1.352-.242-.11zM242.132 157.996c-.176-.066-.238-.309-.113-.59.105-.277.309-.41.492-.332.199.082.238.312.125.59-.125.293-.321.402-.504.332l-.094.227c.332.137.648-.047.828-.461.168-.414.074-.773-.258-.91-.328-.137-.652.047-.82.461-.172.414-.078.773.25.91l.094-.227zM243.917 157.855c.055-.129-.016-.23-.184-.293-.164-.059-.219.027-.238.098-.027.066-.008.148.211.277.223.129.367.27.27.535-.094.266-.305.387-.629.266-.324-.125-.348-.43-.293-.605l.23.09c-.055.141.035.25.184.312.145.047.246-.008.277-.102.035-.098-.02-.203-.168-.285-.379-.219-.367-.402-.305-.559.055-.148.23-.371.57-.25.324.121.379.367.297.598l-.222-.082zM245.272 159.129c.176.055.266-.059.297-.18l.277-.938.246.066s-.219.754-.27.938c-.07.23-.254.453-.617.352-.359-.109-.395-.398-.328-.629.055-.184.273-.938.273-.938l.25.074s-.246.82-.277.938c-.034.129-.026.266.149.317zM246.636 158.223l.265.976.196-.867.265.059-.34 1.445-.246-.063-.296-1.035-.219.922-.258-.062.34-1.446.293.071zM247.366 159.902l.258-1.457.266.047-.258 1.457-.266-.047zM249.858 158.695l.5.883-.019-.894.266-.008.038 1.484-.257.008-.543-.93.019.946-.261.004-.043-1.485.3-.008zM251.702 158.539l.211 1.195.59-.101.047.269-.856.145-.258-1.457.266-.051zM252.811 159.848l-.316-1.45.258-.062.324 1.453-.266.059zM255.28 157.883l-.629.203.102.32.562-.191.09.258-.57.191.121.371.633-.203.074.223-.891.293-.461-1.41.895-.293.074.238zM255.925 158.074l-.133-.367s.223-.082.316-.121c.09-.035.191.004.23.121.043.113.008.211-.074.242-.081.028-.339.125-.339.125l.09.25s.121-.047.25-.094c.129-.043.211-.027.277.141.062.168.117.324.117.324l.242-.086s-.105-.305-.141-.387c-.062-.176-.195-.246-.277-.211.066-.027.156-.211.082-.406-.078-.199-.254-.352-.43-.293-.176.07-.684.258-.684.258 0-.008.508 1.391.508 1.391l.258-.102-.203-.535-.089-.25zM257.561 158.352l-.468-1.141-.367.144-.094-.226.949-.399.094.231-.36.156.469 1.137-.223.098zM258.565 157.32l-.102-.625.406.48c.001.001-.304.137-.304.145l.039.25.434-.203.203.246.227-.109-1.004-1.168-.281.129.238 1.527.23-.109-.047-.312-.039-.251zM248.616 159.848c-.191-.02-.312-.23-.285-.527.035-.297.184-.48.387-.461.203.02.316.23.285.535-.035.312-.199.468-.387.453l-.027.246c.359.035.609-.238.656-.68.047-.441-.148-.758-.5-.801-.352-.031-.609.238-.66.68-.047.441.152.762.504.801l.027-.246zM253.628 159.387s.25-.066.34-.094c.086-.02.121-.109.094-.223-.035-.117-.109-.176-.195-.148-.09.02-.34.094-.34.094l-.07-.25s.203-.047.32-.082c.117-.035.117-.156.102-.199-.012-.059-.094-.148-.184-.121l-.324.09c.008.008.086.312.086.312l.07.25.101.371.066.258c-.141.035-.266.07-.266.07.008.004-.383-1.438-.383-1.438s.141-.035.5-.137c.25-.066.5-.008.562.242a.454.454 0 0 1-.039.34.42.42 0 0 1 .23.305c.055.172.031.441-.293.531-.094.027-.211.059-.312.086l-.065-.257zM260.022 156.934c-.066.039-.191.094-.191.094l-.445-.859s.16-.09.203-.102c.074-.043.293-.117.488.262.215.421.027.566-.055.605l.203.191c.27-.137.25-.566.066-.918-.297-.574-.645-.453-.793-.379-.148.074-.324.168-.445.23l.676 1.324s.219-.117.496-.258l-.203-.19zM251.315 159.441l-.047-.234-.332.074.051.235.328-.075zM244.608 158.539l.075-.234-.325-.09-.07.23.32.094z"/><path d="M234.284 175.367s-.75-.355-.98-.461c-.227-.102-.516.027-.672.352-.156.332-.035.617.23.746l.93.426.492-1.063.332-.719.727-1.555.727.332s-1.863 4.023-1.863 4.016c0 0-1.488-.684-1.996-.922-.5-.238-.535-.949-.27-1.52.27-.578.848-.766 1.043-.68-.258-.113-.387-.535-.148-1.031.113-.25.523-1.117.523-1.117l.695.324s-.203.449-.434.945c-.23.48-.082.703.277.875.367.168.719.332.719.332l-.332.72zM227.409 172.938l1.684 1.066.527-.836-1.512-.957.434-.691 1.512.964.625-.992-1.676-1.054.387-.614 2.359 1.5-2.367 3.738-2.367-1.5.394-.624zM225.87 170.078s-.312-.254-.59-.488c-.293-.238-.691-.145-.965.188-.27.324-.184.68.07.883.25.203.594.496.594.496l.891-1.079.441-.539 1.016-1.227.562.469-2.82 3.418s-.551-.453-1.297-1.078c-.52-.43-.512-1.188-.004-1.797.445-.551 1.266-.836 1.809-.379.332.27.734.594.734.594l-.441.539zM222.897 165.254c-.371-.398-.766-.238-1.035.02-.273.258-2.137 2-2.137 2l-.527-.566s1.699-1.594 2.121-1.996c.523-.48 1.344-.785 2.117.047.773.82.418 1.621-.102 2.109-.422.395-2.133 1.988-2.133 1.988l-.52-.562 2.129-2c.279-.259.462-.638.087-1.04zM220.132 162.094s-.453-.645-.609-.859c-.156-.211-.441-.227-.738-.016-.293.211-.367.477-.219.691.164.227.617.863.617.863l-.617.441s-.359-.504-.57-.809c-.211-.297-.547-.164-.648-.09-.156.117-.312.414-.145.652.172.246.57.809.57.809.02-.016.793-.562.793-.562l.617-.441c.015-.015.949-.679.949-.679l.637-.445.461.641c.023-.004-3.606 2.57-3.606 2.57s-.258-.359-.894-1.258c-.441-.617-.539-1.391.078-1.824a1.34 1.34 0 0 1 1-.219c.055-.352.168-.664.609-.984.441-.312 1.215-.535 1.789.277.172.238.379.531.562.797l-.636.445zM214.151 159.559l3.196-1.704-.844-1.574.715-.386 1.218 2.293-3.906 2.082-.379-.711zM216.511 154.363l-4.098 1.688-.305-.746 4.098-1.68.305.738zM211.987 150.254c-.258.074-.664.395-.496.996.176.598.809.719 1.648.469.828-.238 1.297-.766 1.148-1.281a.825.825 0 0 0-1.004-.562l-.191-.672c.883-.258 1.668.188 1.934 1.07.258.895-.414 1.762-1.688 2.129-1.289.379-2.309.008-2.586-.941-.27-.949.375-1.684 1.039-1.879l.196.671zM212.788 138.297c-.016.246-.035.637-.035.637-.02 0-2.91-.176-2.91-.176l.043-.664c.012-.25.164-.922 1.445-.848 1.395.09 1.477.809 1.457 1.051l.801-.211c.055-.922-1.066-1.52-2.254-1.594-1.926-.113-2.148.965-2.176 1.461a82.339 82.339 0 0 0-.094 1.496l4.422.277s.039-.723.102-1.641l-.801.212zM210.843 131.137l-.395 1.945.969.195.355-1.75.793.157-.347 1.75 1.14.23.391-1.945.707.144-.551 2.746-4.344-.871.555-2.75.727.149zM213.268 123.914l-.765 1.836.914.383.688-1.656.746.312-.688 1.652 1.078.45.77-1.84.664.273-1.078 2.59-4.09-1.695 1.07-2.582.691.277zM213.995 120.793l3.148 1.793.879-1.555.708.399-1.282 2.254-3.851-2.184.398-.707zM219.983 114.539c-.32-.262-.664-.188-1.012.219-.34.398-.141.645.02.781.156.141.422.176 1.004-.312.59-.488 1.141-.746 1.785-.203.637.543.758 1.254.09 2.055-.672.785-1.547.516-1.98.176l.465-.551c.348.293.754.172 1.055-.184.305-.359.25-.695.02-.895-.23-.195-.586-.141-.984.191-.984.832-1.477.602-1.859.285-.363-.32-.812-1.051-.121-1.867.68-.797 1.418-.691 1.969-.215l-.452.52zM223.882 112.555l.754-.672-1.574-1.004.82 1.676.332.691.414.84-.562.504-2-4.152.664-.598 3.906 2.449-.555.504-.789-.512c-.004.008-1.078.965-1.078.965l-.332-.691zM226.155 107.113l2.047 2.985 1.481-1.008.453.672-2.137 1.465-2.504-3.657.66-.457zM232.686 108.274l-3.168-3.356.7-.352 2.277 2.59-.765-3.363.699-.359.859 4.527-.602.313zM247.776 103.332c-.578.039-1.031-.543-1.074-1.434-.039-.902.32-1.512.938-1.539.609-.027 1.031.551 1.062 1.445.043.95-.351 1.485-.926 1.528l.031.73c1.066-.055 1.695-.961 1.637-2.293-.062-1.328-.773-2.184-1.84-2.129-1.07.047-1.695.957-1.633 2.285.059 1.332.773 2.184 1.836 2.137l-.031-.73zM262.179 102.219l-1.907-.551-.277.945 1.723.5-.231.782-1.715-.504-.328 1.129 1.907.554-.204.692-2.683-.785 1.234-4.254 2.692.781-.211.711zM265.476 102.641l.238 3.023 1.078-2.441.723.32-1.782 4.055-.699-.313-.285-3.207-1.141 2.582-.73-.324 1.781-4.055.817.36zM272.569 106.422l-2.062 2.984 1.472 1.012-.461.664-2.128-1.473 2.519-3.64.66.453zM281.804 122.84l2.668-2.188-3 1.551-.34-.664 3.933-2.035.532 1.031-2.7 2.172 3.336-.945.535 1.027-3.933 2.039-.344-.664 2.996-1.555-3.328.918-.355-.687zM288.104 128.266l-.644-1.879-.934.32.582 1.688-.765.265-.582-1.687-1.106.379.649 1.878-.684.231-.91-2.645 4.183-1.437.918 2.652-.707.235zM285.968 135.957l4.41-.414.066.801-4.402.406-.074-.793zM289.081 141.227a.765.765 0 0 0 .766-.812c.008-.625-.562-.918-1.43-.93-.867-.016-1.473.359-1.477.895-.008.535.453.82.793.836l-.008.691c-.922-.016-1.547-.664-1.539-1.594.012-.93.91-1.562 2.238-1.539 1.344.012 2.203.668 2.191 1.652-.016.992-.848 1.508-1.543 1.492l.009-.691zM286.436 154.168c.258.094.773.078.996-.512.219-.582-.215-1.051-1.035-1.363-.809-.297-1.5-.156-1.691.348a.821.821 0 0 0 .469 1.051l-.242.656c-.863-.324-1.234-1.152-.91-2.02.324-.867 1.375-1.16 2.625-.699 1.254.469 1.852 1.379 1.504 2.301-.344.93-1.309 1.133-1.957.887l.241-.649zM284.749 159.539l.93-1.75-.871-.461-.84 1.578-.719-.386.84-1.579-1.028-.55-.937 1.757-.637-.339 1.317-2.469 3.91 2.074-1.317 2.477-.648-.352zM283.655 162.684l-3.004-.395 2.164 1.563-.461.644-3.601-2.578.449-.625 3.199.379-2.293-1.641.469-.656 3.594 2.582-.516.727zM276.788 164.238l2.676 2.535.801-.847.543.5-2.118 2.238-.535-.508.809-.855-2.68-2.535.504-.528zM267.007 176.758l-1.457-3.313-1.637.719-.324-.738 2.375-1.043 1.781 4.047-.738.328zM212.39 146.184l-.145-1.004-1.707.754 1.852.25.766.102.93.121.105.746-4.57-.629-.129-.887 4.207-1.902.102.746-.855.375c0 .008.211 1.43.211 1.43l-.767-.102zM236.722 104.672l.953-.332-1.055-1.531.102 1.863.039.769.054.934-.71.246-.231-4.597.84-.293 2.652 3.765-.715.242-.527-.765-1.363.468-.039-.769zM242.233 104.004a28.35 28.35 0 0 0-.629.113c0-.012-.543-2.855-.543-2.855s.52-.102.648-.129c.246-.047.93-.066 1.176 1.195.266 1.375-.405 1.625-.652 1.676l.402.719c.906-.18 1.207-1.406.98-2.578-.363-1.899-1.469-1.84-1.953-1.75-.48.094-1.078.203-1.469.285l.824 4.348s.715-.137 1.617-.305l-.401-.719zM252.46 101.574s.828.074 1.078.094c.25.027.484-.195.516-.555.035-.359-.176-.598-.469-.625-.289-.027-1.016-.086-1.016-.086l-.109 1.172-.066.785-.156 1.711-.801-.074.398-4.41s1.637.152 2.191.199c.551.055.82.711.766 1.34-.059.633-.535 1.004-.75.984.277.027.543.379.488.922-.02.277-.109 1.242-.109 1.242l-.773-.074s.047-.496.094-1.039c.047-.535-.168-.691-.562-.723-.398-.043-.785-.078-.785-.078l.065-.785zM274.847 111.68c.008-.008.762.672.762.672l.82-1.676-1.582 1.004-.645.406-.793.5-.562-.5 3.914-2.449.664.598-2.008 4.152-.562-.504.418-.84-1.07-.957.644-.406zM280.179 117.356l.602.812 1.152-1.465-1.754.653-.715.258-.879.332-.449-.609 4.332-1.582.531.719-2.82 3.648-.449-.609.582-.73c0-.008-.848-1.168-.848-1.168l.715-.259zM287.753 131.496l.215 1.059c.051.242.32.406.68.332.352-.074.523-.34.461-.633-.055-.277-.203-.996-.203-.996l-1.153.238-.781.156-1.68.34-.156-.789s4.348-.883 4.34-.883c0 0 .316 1.609.434 2.16.117.539-.441.996-1.059 1.117-.625.121-1.117-.223-1.164-.434.051.266-.207.617-.742.727l-1.211.25-.156-.762s.48-.102 1.023-.207c.52-.102.609-.355.535-.746-.082-.402-.164-.773-.164-.773l.781-.156zM287.507 145.004l-.156.996 1.859-.223-1.703-.773-.696-.316-.855-.387.113-.746 4.188 1.929-.137.883-4.57.598.113-.746.93-.117.218-1.414.696.316zM275.167 169.289s-.645.523-.844.68c-.195.16-.207.473.023.758.223.285.543.305.766.117.23-.176.793-.641.793-.641l-.738-.914-.504-.617-1.078-1.336.633-.5s2.785 3.445 2.777 3.438l-1.707 1.391c-.426.344-1.086.059-1.48-.43-.398-.492-.316-1.098-.148-1.234-.215.18-.648.109-.996-.316a69.52 69.52 0 0 0-.781-.965l.605-.488.652.809c.336.422.602.387.914.137l.609-.504.504.615zM270.249 171.824c0 .008-.867.531-.867.531l1.363 1.273-.496-1.804-.203-.738-.25-.902.645-.391 1.207 4.445-.77.469-3.391-3.125.645-.387.68.637 1.234-.746.203.738z" fill="#ffd300"/><path fill="#ffd300" stroke="#000" stroke-width=".031" d="M230.726 149.996l19.125-33.129 19.128 33.129h-38.253z"/><path fill="#fff" stroke="#000" stroke-width=".031" d="M232.632 148.957l17.219-29.832 17.23 29.832h-34.449z"/><path d="M267.081 148.957l-4.285-7.418c-2.293-.156-14.316.191-16.547.27-2.227.082-7.473-.398-9.266-.406l-4.352 7.555h34.45v-.001z" fill="#00678e"/><path d="M236.983 141.402c1.793.008 7.039.488 9.266.406 2.231-.078 14.254-.426 16.547-.27l-12.945-22.414-12.868 22.278z" fill="#fff"/><path d="M244.98 130.18s2.863 2.883 3.101 3.141c.234.258.363.223.129-.102-.246-.32-.348-.578-.516-.844.305.328.441.422.574.613.129.195.402.316.156-.043-.238-.352-1.883-3.234-1.883-3.234 1.133 1.684 1.875 2.848 2.019 3.141.137.293.434.312.191-.074-.238-.387-.551-1.098-.727-1.457.445.676.758 1.227.859 1.457.102.223.301.215.156-.203-.141-.422-.691-2.773-.832-3.391.418 1.164.887 2.832.996 3.227.109.387.305.449.297.02-.012-.426.07-2.461.09-2.988.035 1.375.195 2.59.168 2.887-.027.301.145.422.258-.133.121-.566.59-2.75.711-3.242-.281 1.816-.481 3.164-.539 3.363-.062.203-.008.312.102.059.129-.305.297-.684.336-.793-.133.617-.176.844-.215.973-.043.133.055.305.156.039.102-.266 1.418-3.758 1.418-3.758-.652 2.027-1.094 3.684-1.152 3.82-.062.129-.082.352.105.078.191-.262 1.609-2.488 1.609-2.488s-1.344 2.504-1.434 2.66c-.078.156.062.352.23.148.172-.203 2.328-3.039 2.328-3.039s-1.961 2.875-2.09 3.059c-.129.176-.102.328.109.082.219-.242 1.621-1.859 1.621-1.859s-1.309 1.902-1.438 2.031c-.129.133-.02.234.156.086.168-.164 3.668-3.113 3.668-3.113s-3.086 2.945-3.273 3.102c-.199.16-.105.262.133.078.231-.176 2.109-1.32 2.109-1.32s-1.695 1.336-1.91 1.449c-.219.117-.172.312.113.172.277-.137 3.074-1.363 3.074-1.363s-2.809 1.512-3.109 1.676c-.305.156-.316.379.109.234.434-.141 3.324-1.238 3.324-1.238s-2.816 1.316-3.074 1.41c-.262.094-.277.27-.039.215.238-.047 4.402-.914 4.402-.914s-3.941 1.078-4.199 1.152c-.258.074-.316.301.094.238.414-.047 1.637-.129 1.637-.129s-1.281.277-1.566.305c-.285.027-.258.164.066.148.332-.004 3.574 0 3.574 0s-3.391.219-3.566.219c-.176.008-.348.102-.082.137.258.039 2.699.371 2.699.371s-2.68-.129-3.004-.141c-.324-.016-.543.18-.035.285.504.094 6.199 1.117 6.199 1.117s-6.016-.82-6.258-.855c-.246-.039-.414.184.004.285.422.094 4.809 1.5 4.809 1.5s-5.043-1.234-5.301-1.289c-.266-.062-.355.113-.043.238.312.121 8.309 3.891 8.309 3.891s-8.207-3.457-8.457-3.578c-.246-.129-.324.059-.102.242.359.293 1.297 1.145 1.297 1.145s-1.672-1.137-1.934-1.375c-.273-.23-.34.008-.082.352.637.844 1.27 1.84 1.27 1.84s-1.352-1.547-1.527-1.766c-.184-.207-.508-.16-.324.145.18.297.684 1.188.684 1.188s-.746-.773-.902-.992c-.156-.211-.195-.039-.195.098.039 1.027-.074 1.918-.258.004-.027-.242-.332-.195-.379-.055-.465 1.434-.668 1.473-.285-.105.059-.246-.312-.293-.375-.137-.066.148-.527.91-.527.91s.133-.645.215-.953c.082-.309-.289-.492-.441-.297-.148.203-.914 1.168-.914 1.168s.629-1.074.738-1.23c.102-.152-.047-.324-.223-.121-.34.379-1.758 1.75-1.758 1.75s1.434-1.613 1.601-1.816c.168-.199.039-.324-.195-.172-.246.164-1.445 1.004-1.445 1.004s1.113-.969 1.309-1.152c.191-.176.055-.371-.164-.215-.211.16-1.707.902-1.707.902s1.316-.949 1.551-1.133c.238-.184.184-.559-.18-.367-.375.176-8.16 3.941-8.16 3.941l7.719-4.062c.297-.164.031-.227-.227-.109-.258.121-2.066.625-2.066.625s1.695-.613 2-.727c.305-.121.387-.32-.027-.223-.414.102-4.586.637-4.586.637s4.188-.82 4.559-.895c.367-.078.535-.32-.055-.309-.59.016-3.594-.176-3.594-.176s3.047.016 3.281.008c.246-.008.266-.094.023-.129-.246-.039-3.371-.887-3.371-.887s3.273.555 3.668.637c.398.074.656-.082.238-.273-.422-.18-2.57-1.266-2.57-1.266s2.848 1.152 3.207 1.34c.352.191.562-.188-.016-.52-.574-.34-3.43-2.434-3.43-2.434s3.309 1.973 3.582 2.141c.262.172.324.074.102-.137-.227-.207-2.125-1.898-2.125-1.898s2.027 1.508 2.273 1.723c.242.211.574.227.238-.113-.329-.352-2.867-3.274-2.867-3.274z" fill="#fff100"/><path d="M249.483 136.621c-.219-.211-.414-.535-.285-.75.184-.328.531-.531.996-.512.137-.305-.352-.555-.648-.305-.23-.461.434-.949.949-.656.648.359.621 1.051.543 1.504-.043.227-.246.645-.652.996-.211.2-.656-.046-.903-.277z" fill="#e03a3e" stroke="#000" stroke-width=".031"/><path d="M250.386 136.898c-.219.191-.656-.047-.902-.277-.219-.211-.422-.535-.285-.75.117-.191.57.094.738.262.21.211.624.617.449.765z" fill="#e03a3e" stroke="#000" stroke-width=".031"/><path d="M249.722 139.621v-3.133c0-.145.277-.156.277 0v3.133" fill="#ffd300" stroke="#000" stroke-width=".031"/><path d="M264.288 145.484c-.352-.176-.875-.48-1.227-.48-.355 0-1.27-1.355-2.016-1.707-.746-.348-1.887-1.664-2.625-1.887-.746-.219-1.578-.875-1.926-1.355-.312-.43-.73-.477-1.402.047.27.258.5.367.656.5.231.199 1.02 1.77 1.609 2.035.594.266 1.184 1.676 1.871 1.973.691.293 1.246 1.113 1.547 1.215.156.047.277.184.258.328.98.391 2.223.16 2.508.078.305-.094.656-.223.922-.223.259 0 .177-.352-.175-.524z" fill="#00693f" stroke="#000" stroke-width=".031"/><path d="M260.776 145.824c-.301-.102-.855-.922-1.547-1.215-.688-.297-1.277-1.707-1.871-1.973-.59-.266-1.379-1.836-1.609-2.035-.156-.133-.387-.242-.656-.5a3.838 3.838 0 0 1-.395-.449c-.461-.621-.887-.359-1.086-.133-.148.18-.363.461-.582.719.156.371.629 1.125.949 1.383.359.297 1.25 1.117 1.379 1.41.129.297.82.82 1.117 1.449.293.617 1.043 1.438 1.375 1.773.109.105.219.23.281.332a5.402 5.402 0 0 0 2.379-.074c.367-.098.5-.234.523-.359.021-.144-.1-.281-.257-.328z" fill="#00693f" stroke="#000" stroke-width=".031"/><path d="M256.476 144.48c-.297-.629-.988-1.152-1.117-1.449-.129-.293-1.02-1.113-1.379-1.41-.32-.258-.793-1.012-.949-1.383-.012-.051-.035-.098-.039-.125-.062-.297-.754-.594-1.113-.793-.359-.195-.395-.195-.828.035-.242.137-.551.25-.812.34.203.344.324.691.59.875.555.391.82.887.887 1.152.062.258.199.625.652.949.461.332 1.316 1.086 1.512 1.578.195.488.461.82.785 1.078.336.266.43.625.762.891.164.129.297.293.305.422.121 0 .246.02.379.066.531.203.66-.129 1.512.066.562.129.625.008.512-.188a1.859 1.859 0 0 0-.281-.332c-.336-.334-1.086-1.154-1.378-1.772z" fill="#00693f" stroke="#000" stroke-width=".031"/><path d="M255.425 146.219c-.332-.266-.426-.625-.762-.891a2.51 2.51 0 0 1-.785-1.078c-.195-.492-1.051-1.246-1.512-1.578-.453-.324-.59-.691-.652-.949-.066-.266-.332-.762-.887-1.152-.266-.184-.387-.531-.59-.875-.145-.23-.312-.461-.59-.633-.348-.215-.891-.363-1.281-.398-.402-.027-.992.367-1.121.555-.113.172-.297.387-.598.734.109.141.203.277.301.406.57.785 1.621 2.109 2.148 2.414.523.305 1.84 1.965 2.273 2.23.406.246 1.281 1.41 1.715 1.879.242.012.453-.02.598-.074.258-.102.852 0 1.57.035.367.012.488-.078.477-.203-.007-.129-.14-.293-.304-.422z" fill="#00693f" stroke="#000" stroke-width=".031"/><path d="M264.124 146.062c.125-.035.238-.055.34-.055.258 0 .176-.352-.176-.523-.352-.176-.875-.48-1.227-.48-.355 0-1.27-1.355-2.016-1.707-.746-.348-1.887-1.664-2.625-1.887-.746-.219-1.578-.875-1.926-1.355-.211-.277-.461-.402-.805-.293.316-.082.617.809 1.043 1.07.426.266.82.625.957.949.129.336.359.59.59.754.23.172.656.598.82 1.023.164.43.461.691.785.691.332 0 .754.062.82.387.07.332.395.691.789.664.398-.031.629.027.887.027.266 0 .625.266.461.367-.16.094 0 .359.43.328.427-.034.591-.385.853.04zM261.034 146.152c.02-.145-.102-.281-.258-.328-.301-.102-.855-.922-1.547-1.215-.688-.297-1.277-1.707-1.871-1.973-.59-.266-1.379-1.836-1.609-2.035-.156-.133-.387-.242-.656-.5a3.838 3.838 0 0 1-.395-.449c-.461-.621-.887-.359-1.086-.133-.148.18-.363.461-.582.719.035.074.074.16.129.262.395-.324.324-.258.59-.488.258-.23.523-.82.82-.195.293.625.949 1.016 1.051 1.445.098.426.387.621.559.984.16.359.16.492.555.555.395.066 1.051 1.016.82 1.219-.23.199-.523.422 0 .559.527.129.555.23.555.426 0 .195.23.426.496.426s.789.129.789.359c0 .234.297.336.527.301.23-.035-.035.195.297.129.328-.068.55-.177.816-.068zM255.425 146.219c-.332-.266-.426-.625-.762-.891a2.51 2.51 0 0 1-.785-1.078c-.195-.492-1.051-1.246-1.512-1.578-.453-.324-.59-.691-.652-.949-.066-.266-.332-.762-.887-1.152-.266-.184-.387-.531-.59-.875-.145-.23-.312-.461-.59-.633-.348-.215-.891-.363-1.281-.398-.301-.02-.699.188-.945.379.578-.113.809.441 1.004.375.199-.062.691.297.855.723.164.43.195.82.727.957.52.129 1.41 1.273 1.41 1.508.324-.293 1.086.332 1.316.59.223.262.223.594-.266.434-.496-.172-.625.094-.102.289.523.199.656.59 1.086.719.426.137.656.301.461.434-.199.129.324.199.23.387-.101.199.289.102.461.238.162.126.49.521.822.521z" fill="#cdd31f" stroke="#000" stroke-width=".031"/><path d="M258.042 146.457a1.897 1.897 0 0 0-.191-.203c-.332-.336-1.082-1.156-1.375-1.773-.297-.629-.988-1.152-1.117-1.449-.129-.293-1.02-1.113-1.379-1.41-.32-.258-.793-1.012-.949-1.383-.012-.051-.035-.098-.039-.125-.062-.297-.754-.594-1.113-.793-.359-.195-.395-.195-.828.035a4.884 4.884 0 0 1-.68.293c.484-.062.816.004.883.133.062.129.293.199.523.102.23-.102.625.258.625.848s.391.957.691 1.086c.289.137.555.395.555.66 0 .262.164.297.426.391.266.102.43.266.59.301.172.027.566.852.301.719-.266-.129-.328.555.23.82.555.262 1.145.461 1.281.82.129.359.293.496.453.391.172-.094.625.105.461.207-.161.092-.149.334.652.33z" fill="#cdd31f" stroke="#000" stroke-width=".031"/><path d="M234.772 147.539c.355-.129.66-.305 1.102-.176.441.137.785.09 1.004-.039.223-.137.832-.137 1.184.086.348.219 1.055.18 1.535-.086s1.355-.219 2.012 0c.66.215 1.359-.352 2.184-.043.836.309.973-.262 1.672-.094.695.176 1.617-.387 2.672-.039 1.051.352.875.039 1.484 0 .617-.043 2.453-.129 3.547-.176a.611.611 0 0 1-.082-.09c-.434-.469-1.309-1.633-1.715-1.879-.434-.266-1.75-1.926-2.273-2.23-.527-.305-1.578-1.629-2.148-2.414-.098-.129-.191-.266-.301-.406-.508-.688-1.078-1.438-1.402-1.914-.398-.57-.883-.434-1.188-.57-.305-.129-.57 0-.914.219-.57.359-2.367 1.492-2.891 2.414-.48.84-3.273 3.41-5.426 5.047l-1.301 2.258c.324.14.956.241 1.245.132z" fill="#00693f" stroke="#000" stroke-width=".031"/><path d="M252.855 146.617c-.469-.543-1.141-1.41-1.484-1.613-.434-.266-1.75-1.926-2.273-2.23-.527-.305-1.578-1.629-2.148-2.414-.098-.129-.191-.266-.301-.406-.508-.688-1.078-1.438-1.402-1.914-.398-.57-.883-.434-1.188-.57-.305-.129-.57 0-.914.219.359-.109.649.094 1.051.094.395 0 .555.195.883.43.332.223 1.016 1.082 1.051 1.441.031.359.527 1.051.82 1.25.297.195.922.879 1.051 1.215.137.332.426.719.82.887.395.164.727.848 1.051 1.016.332.164 1.016.754 1.281 1.18.264.427 1.26.833 1.702 1.415z" fill="#cdd31f" stroke="#000" stroke-width=".031"/><path d="M245.413 147.852c.883.219 1.582-.133 2.152 0 .57.129 1.355-.086 1.707-.223.965.223 2.273.09 2.715-.129 1.004.129 2.758.395 3.938-.047.918.137 1.398-.172 1.926.047.523.219 1.23-.09 1.617-.137 1.145.227 3.152.047 3.945-.258.48.176.48.258 1.004.176.527-.094 1.355 0 1.621.219-.785-.137-1.75.352-2.586-.176-1.309.48-2.188.875-3.762.266-1.484.305-2.23 0-3.066.215-.832.219-3.41 0-4.379-.129-1.309.348-2.492.395-2.93.219-.746.176-1.316.215-1.75.086-.617.089-1.668.042-2.152-.129zM253.601 148.367c.352.09 1.703.387 2.312.258.48.129 1.098.09 1.531 0 .66.176 1.887-.047 2.543-.047.789.223 1.352.09 2.016 0 .473.137 1.004-.039 1.574-.219.352.18 1.051.266 1.492 0 .434.137 1.051.098 1.441.137a10.194 10.194 0 0 1-1.523-.297c-.441.266-1.141.176-1.484 0-.578.176-1.102.352-1.582.215-.656.09-1.043.18-1.836-.039-.66 0-2.055.266-2.715.09-.441.086-1.051.129-1.531 0-.609.129-1.887-.008-2.238-.098zM235.784 148.266c.496-.035.754-.055 1.086-.156.324.203.82.137 1.316.102.914.23 1.699.359 2.426.199.559.133 1.25 0 1.574-.062.426.094 1.254.094 1.641-.035.43.199.957.164 1.316.062.496.195.855.23 1.246.066.957.07 2.531.07 2.992-.066.625.168 1.145.02 1.375-.074-.23.094-.887.086-1.512-.082-.461.137-2.035.137-2.984.066-.398.164-.758.129-1.246-.066-.367.102-.887.137-1.316-.062-.395.129-1.215.129-1.641.035-.332.062-1.016.195-1.574.062-.727.16-1.512.031-2.434-.199-.496.035-.984.102-1.309-.094-.331.093-.46.268-.956.304zM265.198 146.742c-.355.195-1.195.305-1.695.121-.422.266-1.516.23-1.711.074-.191-.148-.195-.043-.48.082-.285.133-.531.109-.66.039-.129-.059-.258-.109-.609-.008-.352.109-.656.18-.766.062-.109-.109-.781-.047-1.281.035.5-.09 1.191-.238 1.301-.129.109.109.414.039.766-.07.348-.105.484-.066.613 0 .133.07.371.09.656-.039.285-.137.285-.246.48-.09.199.152 1.289.18 1.711-.086.499.177 1.32.205 1.675.009z"/><path d="M254.714 127.535c-2.43-1.07-6.457-1.582-9.809.156l.434-.762c2.949-1.227 6.566-.98 8.945-.133l.43.739z" fill="#febf50"/><path d="M255.561 129c-2.516-1.512-7.375-2.535-11.539.211l.441-.762c3.766-2.242 8.199-1.477 10.668-.184l.43.735z" fill="#00693f"/><path d="M256.409 130.465c-2.613-1.945-8.289-3.5-13.258.266l.438-.762c4.566-3.254 9.836-1.965 12.391-.238l.429.734z" fill="#590058"/><path d="M254.284 126.797c-2.379-.848-5.996-1.094-8.945.133l.441-.758c2.551-.719 5.75-.738 8.086-.109l.418.734z" fill="#e03a3e"/><path d="M255.132 128.266c-2.469-1.293-6.902-2.059-10.668.184l.441-.758c3.352-1.738 7.379-1.227 9.809-.156l.418.73z" fill="#fff100"/><path d="M255.98 129.73c-2.555-1.727-7.824-3.016-12.391.238l.434-.758c4.164-2.746 9.023-1.723 11.539-.211l.418.731z" fill="#00678e"/><path d="M244.018 135.727l1.375.047-.008.238-.941-.035-.012.266-.191-.008c0-.082-.02-.316-.223-.352v-.156zM244.46 134.602l-.102.445c.074.027.168.062.242.098-.141-.25.109-.531.48-.449.332.07.43.301.383.516-.035.184-.23.305-.457.258l.047-.203c.082.016.184-.027.203-.113.023-.125-.086-.211-.207-.238-.301-.062-.348.188-.23.277l-.043.195c-.215-.082-.52-.203-.699-.258l.129-.59.254.062zM245.8 133.645c-.047.066-.105.172-.105.172l-.762-.488s.09-.137.109-.172c.039-.066.184-.223.516-.012.367.234.285.437.242.5l.246.062c.156-.238-.062-.57-.375-.766-.5-.328-.723-.062-.805.066-.082.129-.184.285-.25.395l1.156.738s.117-.191.273-.434l-.245-.061zM246.284 131.691l-.449.426.203.219.406-.371.176.18-.406.382.25.258.449-.422.148.164-.628.594-.946-.996.633-.598.164.164zM247.89 130.961c-.055-.125-.164-.152-.312-.082-.156.059-.129.156-.109.215.027.062.098.109.328.055.23-.055.418-.055.52.191.102.238.043.453-.258.582-.289.129-.5-.066-.574-.223l.203-.09c.062.129.191.148.324.09.129-.055.164-.156.125-.246-.035-.078-.137-.113-.293-.078-.395.094-.496-.035-.555-.18-.062-.141-.082-.406.215-.535.297-.121.496 0 .578.211l-.192.09zM249.327 130.398l-.609.102.047.297.55-.094.047.25-.551.094.063.359.602-.109.042.219-.855.148-.23-1.355.855-.145.039.234zM249.999 130.797l.02-.434.246.02c.094 0 .184.074.176.211-.008.129-.094.223-.203.215-.118-.004-.239-.012-.239-.012l-.012.219s.152.004.289.012c.219.012.375-.203.387-.426.016-.246-.121-.438-.332-.449-.297-.012-.523-.027-.523-.027l-.078 1.363.223.02.035-.492.011-.22zM253.784 131.836l-.484-.387-.188.242.426.34-.156.196-.434-.344-.222.285.48.387-.137.168-.676-.535.856-1.079.676.543-.141.184zM254.991 132.941l-1.148.75-.129-.203.789-.516-.145-.223.156-.109c.047.074.203.25.387.164l.09.137zM255.206 133.766c-.039-.094-.121-.105-.207-.074-.109.047-.144.129-.105.211.035.082.109.121.219.082.093-.047.136-.122.093-.219l.184-.074c.062.145.047.367-.188.469a.327.327 0 0 1-.301-.027c-.027.145-.094.23-.242.293-.164.074-.422.066-.535-.199l.203-.086c.047.109.156.121.258.082.094-.043.18-.152.133-.238-.039-.102-.168-.117-.27-.074-.094.039-.164.129-.121.23l-.203.086c-.109-.262.066-.445.231-.52a.383.383 0 0 1 .387.031.289.289 0 0 1 .18-.234.346.346 0 0 1 .469.188l-.185.073zM255.194 134.594c.238-.047.516-.008.57.258.047.266-.145.434-.332.469-.434.09-.578-.32-.828-.332l.094.469-.211.039-.148-.754c.312-.059.449.082.59.184.145.109.25.219.461.172.098-.027.164-.098.145-.191-.023-.109-.145-.137-.301-.102l-.04-.212zM255.886 136.129l-1.371.023-.004-.242.949-.012-.008-.266h.188c.008.082.043.316.246.34v.157zM251.776 131.629c-.062-.031-.176-.078-.176-.078l.379-.82s.148.066.184.078c.074.035.25.152.082.516-.176.394-.394.331-.469.304l-.02.254c.258.121.555-.137.711-.477.242-.543-.039-.727-.184-.785-.137-.07-.305-.145-.422-.199 0-.004-.574 1.25-.574 1.25s.203.094.469.211l.02-.254z" fill="#e03a3e"/><path d="M250.393 168.727a.735.735 0 0 1-.395.109c.527.547.707 1.43.793 2.012.109.809-.27 1.371-.25 3.141.121-.379.414-.777.73-1.117-.004.012-.012.012-.02.02-.006-1.568-.108-3.271-.858-4.165zM246.745 172.891c-.008-.008-.016-.008-.016-.012.129.148.266.305.414.5.102-.691.504-2.312.746-3.465.137-.633.406-1.051.691-1.289a1.085 1.085 0 0 1-.137-.23c-.792.699-1.393 2.531-1.698 4.496z" fill="#00678e" stroke="#000" stroke-width=".031"/><path d="M246.745 172.891c.305-1.965.906-3.797 1.699-4.496-.031-.074-.066-.156-.094-.238-1.32.734-2.008 2.836-2.477 4.715.043-.027.109-.074.125-.09l.231-.176c.019-.02.074-.062.16-.129.219.266.285.34.332.395h.008c.001.007.008.011.016.019z" fill="#fff" stroke="#000" stroke-width=".031"/><path d="M245.483 163.574c-.199-.23-.375-.375-.516-.355-.34.625-.211 2.238-.137 2.902.02.156.094.449.09.43.078.188.352.23.73.23-.303-.672-.366-2.558-.167-3.207zM246.886 166.746c-.285-.312-.406-.727-.324-1.531a.267.267 0 0 1-.047-.074c-.184-.285-.395-.641-.605-.965-.109.633-.102 1.988.129 2.598.257-.012.55-.028.847-.028z" fill="#00678e" stroke="#000" stroke-width=".031"/><path d="M246.038 166.773c-.23-.609-.238-1.965-.129-2.598a7.17 7.17 0 0 0-.426-.602c-.199.648-.137 2.535.168 3.207.121.001.25-.007.387-.007z" fill="#fff" stroke="#000" stroke-width=".031"/><path d="M248.311 167.391a.75.75 0 0 1 .082-.211c-.773-.645-1.359-2.348-1.656-3.059-.34-.812-.664-1.586-1.188-1.363.074-.039.148-.066.223-.094-.336.121-.637.277-.793.535a.022.022 0 0 1-.012.02c.391-.074 1.062 1.176 1.547 1.922.419.668.786 1.644 1.797 2.25zM247.218 163.051c.328.488.672 2.094 1.355 3.898.043-.027.082-.059.129-.086-.129-1.645-.277-3.074-.387-3.793-.105-.73-.941-.961-1.598-.719-.082.035-.172.062-.258.09.271-.054.427.133.759.61z" fill="#00678e" stroke="#000" stroke-width=".031"/><path d="M246.737 164.121c.297.711.883 2.414 1.656 3.059a.897.897 0 0 1 .18-.23c-.684-1.805-1.027-3.41-1.355-3.898-.359-.516-.516-.691-.828-.59-.223.066-.516.148-.84.297.523-.224.847.55 1.187 1.362z" fill="#fff" stroke="#000" stroke-width=".031"/><path d="M252.393 167.012c-.07-.055-.129-.109-.191-.148-.387.27-1.016.445-1.43.48-.02.035-.043.059-.062.094.02.184.02.379.008.559.629-.129 1.465-.465 1.898-.828a3.525 3.525 0 0 0-.223-.157z" fill="#00678e" stroke="#000" stroke-width=".031"/><path d="M252.476 167.527c.289-.191.277-.266.141-.359-.434.363-1.27.699-1.898.828 0 .074-.008.148-.008.207.894.008 1.499-.508 1.765-.676z" fill="#fff" stroke="#000" stroke-width=".031"/><path d="M250.698 165.344c.352-1.012.516-.844.555-.598.043.238.094.895.219 1.219.344.613.555.754.922 1.047.285.215.496.242.082.516-.266.168-.871.684-1.766.676a.69.69 0 0 1-.121.332c.672.027 1.75-.168 2.48-.852.227-.219.23-.254-.102-.551-.336-.305-1.301-1.52-1.449-2.727-.094-.781-.543-.602-1.031.719.012-.113.035-.215.055-.312-.149.66-.258 1.344-.305 1.887a.36.36 0 0 1 .16.055c.043-.45.129-.923.301-1.411zM248.315 168.043a17.76 17.76 0 0 0-.461.02c-1.422.988-2.149 3.246-2.801 5.297.312-.156.543-.293.82-.488.469-1.879 1.156-3.98 2.477-4.715-.012-.039-.027-.086-.035-.129v.015zM252.311 173.102c.27.195.562.387.801.543.371-1.797-.691-3.59-1.797-4.762a6.926 6.926 0 0 1-.469-.062c.895 1.14 1.426 3.093 1.465 4.281z" fill="#00678e" stroke="#000" stroke-width=".031"/><path d="M250.413 168.715a.07.07 0 0 0 .012-.016c-.004.008-.02.016-.031.027.75.895.852 2.598.859 4.164.043-.035.09-.09.109-.109a.81.81 0 0 1 .094-.086c.035-.035.07-.062.09-.082l.086-.082c.156.168.41.371.68.57-.039-1.188-.57-3.141-1.465-4.281a8.549 8.549 0 0 1-.434-.105z" fill="#fff" stroke="#000" stroke-width=".031"/><path d="M248.315 168.027c-.004-.027-.004-.039-.012-.059v-.027a1.3 1.3 0 0 1 .007-.551 3.474 3.474 0 0 1-.727-.59c-1.215-.184-2.477.203-2.664-.25.234.746.344 1.586 2.934 1.512.152-.008.309-.016.461-.02l.001-.015zM254.202 166.793c-.5-.645-1.137-2.109-1.531-3.117-.379-1.004-1.473-1.156-1.852.078a6.68 6.68 0 0 0-.168.586c.129-.434.285-.691.434-.922.215-.332.855-.559.988.371.191 1.289.734 2.434 1.602 3.324.27.285.305.508-.238.934-.434.348-1.363.742-2.305.652a2.654 2.654 0 0 1-.57-.129l-.008.008a.247.247 0 0 1-.055.059c-.004.016-.019.016-.023.027-.016.008-.027.023-.043.035 0 0-.012.008-.02.016.141.039.293.074.434.105.156.027.312.047.469.062.93.09 1.777-.109 2.285-.441.754-.48 1.097-1.011.601-1.648z" fill="#00678e" stroke="#000" stroke-width=".031"/><path d="M250.968 167.004c.074-.137.145-.25.191-.344.074-.137.129-.254.168-.34.035-.074.055-.137.074-.176.027-.062.051-.125.07-.18-.125-.324-.176-.98-.219-1.219-.039-.246-.203-.414-.555.598a5.887 5.887 0 0 0-.301 1.41.275.275 0 0 1 .109.074c.129.121.184.352.203.609.076-.112.178-.288.26-.432z" fill="#00678e" stroke="#000" stroke-width=".031"/><path d="M251.518 164.406c.149 1.207 1.113 2.422 1.449 2.727.332.297.328.332.102.551-.73.684-1.809.879-2.48.852-.008.008-.012.023-.027.035 1.121.387 2.359-.109 2.875-.523.543-.426.508-.648.238-.934-.867-.891-1.41-2.035-1.602-3.324-.133-.93-.773-.703-.988-.371-.219.336-.461.75-.598 1.707.489-1.321.938-1.501 1.031-.72z" fill="#fff" stroke="#000" stroke-width=".031"/><path d="M250.393 168.727a.678.678 0 0 0 .316-.543c.02-.434.055-1.113-.203-1.355-.258-.25-.625-.066-.738 0-.191.121-.34-.176-.578-.137-.645.109-.961.477-.902 1.125v.043c.078.672.633 1.547 1.543.961a.742.742 0 0 0 .562-.094z" fill="#00678e" stroke="#000" stroke-width=".031"/><path d="M250.507 166.828c-.258-.25-.625-.066-.738 0-.156.102-.277-.074-.449-.121-.508-.047-.906.84-.621 1.457.223.48.52.738.969.645.156-.027.019-.102-.129-.156-.148-.055-.535-.352-.453-.68.086-.324.203-.234.242.027.043.266.219.488.379.57.176.082.457.168.246-.086-.219-.266-.352-.809-.25-1.113.105-.328.593-.66.804-.543z" fill="#fff" stroke="#000" stroke-width=".031"/><path fill="none" stroke="#000" stroke-width=".031" d="M232.632 148.957l17.219-29.832 17.23 29.832h-34.449z"/></g></svg>