<svg xmlns="http://www.w3.org/2000/svg" viewBox="0 0 499.839 277.402"><path fill="#078930" d="M499.839 92.215h-500V-.375h500v92.59z"/><path fill="#da121a" d="M-.161 277.402h500v-92.593h-500v92.593z"/><path fill="#fcdd09" d="M499.839 184.809h-500V92.215h500v92.594z"/><g><path d="M249.839 205.641c37.074 0 67.125-30.055 67.125-67.125 0-37.074-30.051-67.125-67.125-67.125-37.07 0-67.125 30.051-67.125 67.125 0 37.07 30.054 67.125 67.125 67.125z" fill="#0f47af"/><path fill="#fff100" d="M250.753 163.996l-.41 28.145h-1.02l-.418-28.145h1.848zM274.503 145.402l26.633 9.09-.313.969-26.89-8.305.57-1.754zM264.151 117.074l16.879-22.527.824.602-16.207 23.015-1.496-1.09zM234.015 118.164l-16.204-23.015.817-.602 16.883 22.527-1.496 1.09zM225.737 147.156l-26.894 8.305-.313-.961 26.633-9.098.574 1.754z"/><path fill="#fcdd09" d="M246.175 96.551l-8.297 25.496h-38.715l7.418 5.402h29.527l-3.363 10.36 4.586 3.343 11.66-35.898-2.816-8.703z"/><path fill="#fcdd09" d="M208.776 129.031l21.688 15.762-11.961 36.824 7.43-5.387 9.121-28.085 8.816 6.402 4.598-3.328-30.543-22.184-9.149-.004z"/><path fill="#fcdd09" d="M228.108 174.637l21.7-15.758 31.32 22.754-2.828-8.727-23.891-17.355 8.813-6.406-1.743-5.399-30.535 22.192-2.836 8.699z"/><path fill="#fcdd09" d="M277.46 170.332l-8.277-25.504 31.316-22.758-9.172-.011-23.891 17.359-3.367-10.359-5.676-.012 11.668 35.894 7.399 5.391z"/><path fill="#fcdd09" d="M288.628 122.078l-26.82-.008-11.961-36.816-2.844 8.723 9.125 28.082h-10.895l-1.761 5.394 37.746-.008 7.41-5.367z"/></g></svg>