<svg xmlns="http://www.w3.org/2000/svg" viewBox="0 0 499.839 277.402"><path fill="#68bfe5" d="M499.839 277.402V-.375h-500v277.777h500z"/><path fill="#171f69" d="M-.161-.375v134.23h268.14V-.375H-.161z"/><path fill="#fff" d="M-.161 44.356h56.633L-.161 15.938V-.375h32.402l79.223 39.488V-.375h44.613v39.488L235.296-.375h32.683v16.313l-56.91 28.418h56.91v44.765h-56.91l56.91 28.414v16.32h-32.683l-79.219-39.492v39.492h-44.613V94.363l-79.223 39.492H-.161v-16.32l56.633-28.414H-.161V44.356z"/><path fill="#ec1c2e" d="M246.901-.375l-89.5 44.762h21.426L267.979-.375h-21.078zM267.979 133.855l-89.246-44.734h21.516l67.73 34.07v10.664zM89.511 44.387L-.161-.375v10.688l68.062 34.074h21.61zM89.327 89.121L-.161 133.855h21.414l89.5-44.734H89.327z"/><path fill="#ec1c2e" d="M-.161 53.641h121.129V-.375h26.215v54.016h120.796v26.215H147.183v53.999h-26.215V79.856H-.161V53.641z"/><g><path d="M430.19 82.156v76.777c0 16.977-22 33.949-46.168 44.051-24.168-10.102-46.168-27.074-46.168-44.051V82.156h92.336z" fill="#ec1c2e"/><path d="M430.19 82.156v76.777c0 16.977-22 33.949-46.168 44.051-24.168-10.102-46.168-27.074-46.168-44.051V82.156h92.336z" fill="none" stroke="#000" stroke-width=".034"/><path d="M375.37 199.008c-20.527-10.25-37.516-25.152-37.516-40.074h37.516v40.074z" fill="#fff"/><path d="M375.37 199.008c-20.527-10.25-37.516-25.152-37.516-40.074h37.516v40.074z" fill="none" stroke="#000" stroke-width=".034"/><path d="M337.854 141.645v-28.109h37.516v28.109h-37.516z" fill="#fff"/><path d="M337.854 141.645v-28.109h37.516v28.109h-37.516z" fill="none" stroke="#000" stroke-width=".034"/><path d="M392.675 199.008c20.527-10.25 37.516-25.152 37.516-40.074h-37.516v40.074z" fill="#fff"/><path d="M392.675 199.008c20.527-10.25 37.516-25.152 37.516-40.074h-37.516v40.074z" fill="none" stroke="#000" stroke-width=".034"/><path d="M430.19 141.645v-28.109h-37.516v28.109h37.516z" fill="#fff"/><path d="M430.19 141.645v-28.109h-37.516v28.109h37.516z" fill="none" stroke="#000" stroke-width=".034"/><path d="M415.39 164.953c1.98-1.727 6.52-1.918 8.098-.766.352.262 1.023.035 1.098-1.23.07-1.266-.457-1.977-2.273-1.945-1.816.027-6.203-.219-9.086 2.77-1.49 1.542.706 2.183 2.163 1.171z" fill="#b03427"/><path d="M415.39 164.953c1.98-1.727 6.52-1.918 8.098-.766.352.262 1.023.035 1.098-1.23.07-1.266-.457-1.977-2.273-1.945-1.816.027-6.203-.219-9.086 2.77-1.49 1.542.706 2.183 2.163 1.171z" fill="none" stroke="#000" stroke-width=".034"/><path d="M402.081 182.102c-.645.57-1.672 2.484-2.109 3.246-.438.766-1.023 1.281-2.465 1.742-2.32.746-.785 1.531-2.555 4.277 1.094-.066 2.52-.602 3.035-1.145.41.508.914.887 1.258.992.086-.738 1.199-1.023 1.18-1.465.152.402.645.91.98 1.148.156-.469.918-1.477 1.508-1.84-.035-.547-.582-.512-.602-1.738-.023-1.23-.781-1.707.797-3.305 1.231-1.241 1.012-3.901-1.027-1.912z" fill="#b03427"/><path d="M402.081 182.102c-.645.57-1.672 2.484-2.109 3.246-.438.766-1.023 1.281-2.465 1.742-2.32.746-.785 1.531-2.555 4.277 1.094-.066 2.52-.602 3.035-1.145.41.508.914.887 1.258.992.086-.738 1.199-1.023 1.18-1.465.152.402.645.91.98 1.148.156-.469.918-1.477 1.508-1.84-.035-.547-.582-.512-.602-1.738-.023-1.23-.781-1.707.797-3.305 1.231-1.241 1.012-3.901-1.027-1.912zm21.406-17.914c-.547-.359-.375-1.465-.312-1.879.07-.41.418-1.156.777-.941m-25.965 28.855c.16-.145.203-.512.203-1.301m2.235.828c.023-.414.293-.965.309-1.578" fill="none" stroke="#000" stroke-width=".034"/><path d="M420.433 170.203c-1.172-.906-2.43 1.215-3.543 2.648-1.113 1.43-2.434 3.512-1.695 4.086.742.57 2.809-.844 3.922-2.273 1.109-1.434 2.491-3.543 1.316-4.461z" fill="#ffe152"/><path d="M420.433 170.203c-1.172-.906-2.43 1.215-3.543 2.648-1.113 1.43-2.434 3.512-1.695 4.086.742.57 2.809-.844 3.922-2.273 1.109-1.434 2.491-3.543 1.316-4.461z" fill="none" stroke="#000" stroke-width=".034"/><path d="M419.765 168.898c-1.059-1.047-2.555.918-3.832 2.207-1.277 1.289-2.828 3.199-2.164 3.855.664.664 2.883-.5 4.16-1.793 1.273-1.288 2.894-3.218 1.836-4.269z" fill="#ffe152"/><path d="M419.765 168.898c-1.059-1.047-2.555.918-3.832 2.207-1.277 1.289-2.828 3.199-2.164 3.855.664.664 2.883-.5 4.16-1.793 1.273-1.288 2.894-3.218 1.836-4.269z" fill="none" stroke="#000" stroke-width=".034"/><path d="M418.667 167.434c-1.059-1.043-2.559.918-3.832 2.207-1.273 1.289-2.898 3.68-2.234 4.336.664.656 2.953-.98 4.23-2.27 1.277-1.293 2.895-3.223 1.836-4.273z" fill="#ffe152"/><path d="M418.667 167.434c-1.059-1.043-2.559.918-3.832 2.207-1.273 1.289-2.898 3.68-2.234 4.336.664.656 2.953-.98 4.23-2.27 1.277-1.293 2.895-3.223 1.836-4.273z" fill="none" stroke="#000" stroke-width=".034"/><path d="M417.011 165.727c-1.059-1.047-2.555.914-3.832 2.203-1.273 1.293-2.465 3.742-1.801 4.402.668.66 2.602-.914 3.879-2.203 1.277-1.289 2.812-3.359 1.754-4.402z" fill="#ffe152"/><path d="M417.011 165.727c-1.059-1.047-2.555.914-3.832 2.203-1.273 1.293-2.465 3.742-1.801 4.402.668.66 2.602-.914 3.879-2.203 1.277-1.289 2.812-3.359 1.754-4.402z" fill="none" stroke="#000" stroke-width=".034"/><path d="M411.479 161.57c-1.172-.91-2.422 1.215-3.531 2.652-1.109 1.434-1.828 4.156-1.09 4.727.738.578 2.051-1.465 3.156-2.898 1.114-1.434 2.645-3.574 1.465-4.481z" fill="#ffe152"/><path d="M411.479 161.57c-1.172-.91-2.422 1.215-3.531 2.652-1.109 1.434-1.828 4.156-1.09 4.727.738.578 2.051-1.465 3.156-2.898 1.114-1.434 2.645-3.574 1.465-4.481z" fill="none" stroke="#000" stroke-width=".034"/><path d="M413.702 162.57c-1.133-.965-2.48 1.109-3.652 2.496-1.168 1.383-2.004 4.07-1.293 4.676.719.602 2.109-1.371 3.285-2.758 1.172-1.382 2.793-3.453 1.66-4.414z" fill="#ffe152"/><path d="M413.702 162.57c-1.133-.965-2.48 1.109-3.652 2.496-1.168 1.383-2.004 4.07-1.293 4.676.719.602 2.109-1.371 3.285-2.758 1.172-1.382 2.793-3.453 1.66-4.414z" fill="none" stroke="#000" stroke-width=".034"/><path d="M415.265 164.141c-1.164-.93-2.445 1.18-3.578 2.598-1.129 1.414-2.469 3.48-1.738 4.066.73.582 2.445-1.184 3.574-2.605 1.132-1.415 2.906-3.134 1.742-4.059z" fill="#ffe152"/><path d="M415.265 164.141c-1.164-.93-2.445 1.18-3.578 2.598-1.129 1.414-2.469 3.48-1.738 4.066.73.582 2.445-1.184 3.574-2.605 1.132-1.415 2.906-3.134 1.742-4.059z" fill="none" stroke="#000" stroke-width=".034"/><path d="M406.749 166.891c-1.469-.648-2.777 1.723-3.57 3.512-.789 1.793-1.066 4.504-.145 4.91.922.41 2.227-1.906 3.02-3.699.789-1.794 2.16-4.079.695-4.723z" fill="#ffe152"/><path d="M406.749 166.891c-1.469-.648-2.777 1.723-3.57 3.512-.789 1.793-1.066 4.504-.145 4.91.922.41 2.227-1.906 3.02-3.699.789-1.794 2.16-4.079.695-4.723z" fill="none" stroke="#000" stroke-width=".034"/><path d="M408.737 167.699c-1.457-.664-2.797 1.688-3.605 3.473-.812 1.781-1.766 5.066-.848 5.484.922.418 2.895-2.461 3.699-4.242.817-1.781 2.219-4.051.754-4.715z" fill="#ffe152"/><path d="M408.737 167.699c-1.457-.664-2.797 1.688-3.605 3.473-.812 1.781-1.766 5.066-.848 5.484.922.418 2.895-2.461 3.699-4.242.817-1.781 2.219-4.051.754-4.715z" fill="none" stroke="#000" stroke-width=".034"/><path d="M410.089 168.961c-1.316-.688-2.176 1.625-3.016 3.234-.84 1.609-2.52 4.531-1.379 5.129 1.148.594 2.617-2.438 3.461-4.043.84-1.609 2.25-3.633.934-4.32z" fill="#ffe152"/><path d="M410.089 168.961c-1.316-.688-2.176 1.625-3.016 3.234-.84 1.609-2.52 4.531-1.379 5.129 1.148.594 2.617-2.438 3.461-4.043.84-1.609 2.25-3.633.934-4.32z" fill="none" stroke="#000" stroke-width=".034"/><path d="M416.503 176.258c-.902-1.184-2.551.953-3.992 2.055-1.441 1.102-3.652 1.891-2.867 2.918.781 1.027 2.77-.086 4.207-1.188 1.445-1.102 3.554-2.605 2.652-3.785z" fill="#ffe152"/><path d="M416.503 176.258c-.902-1.184-2.551.953-3.992 2.055-1.441 1.102-3.652 1.891-2.867 2.918.781 1.027 2.77-.086 4.207-1.188 1.445-1.102 3.554-2.605 2.652-3.785z" fill="none" stroke="#000" stroke-width=".034"/><path d="M415.976 174.07c-1.496-1.508-2.93 1.711-4.273 2.926-1.344 1.223-3.48 2.195-2.613 3.152.871.953 2.758-.32 4.102-1.539 1.342-1.218 3.83-3.48 2.784-4.539z" fill="#ffe152"/><path d="M415.976 174.07c-1.496-1.508-2.93 1.711-4.273 2.926-1.344 1.223-3.48 2.195-2.613 3.152.871.953 2.758-.32 4.102-1.539 1.342-1.218 3.83-3.48 2.784-4.539z" fill="none" stroke="#000" stroke-width=".034"/><path d="M414.421 172.051c-1.715-1.387-2.703 1.023-3.84 2.441-1.137 1.41-3.785 4.734-2.777 5.539 1.004.812 3.723-2.512 4.859-3.922 1.137-1.414 2.918-3.129 1.758-4.058z" fill="#ffe152"/><path d="M414.421 172.051c-1.715-1.387-2.703 1.023-3.84 2.441-1.137 1.41-3.785 4.734-2.777 5.539 1.004.812 3.723-2.512 4.859-3.922 1.137-1.414 2.918-3.129 1.758-4.058z" fill="none" stroke="#000" stroke-width=".034"/><path d="M412.3 170.137c-1.566-.984-2.301 1.445-3.266 2.977-.973 1.539-3.492 5.027-2.395 5.711 1.09.691 3.41-2.922 4.375-4.457.973-1.536 2.547-3.442 1.286-4.231z" fill="#ffe152"/><path d="M412.3 170.137c-1.566-.984-2.301 1.445-3.266 2.977-.973 1.539-3.492 5.027-2.395 5.711 1.09.691 3.41-2.922 4.375-4.457.973-1.536 2.547-3.442 1.286-4.231z" fill="none" stroke="#000" stroke-width=".034"/><path d="M402.698 173.855c-1.27-.414-1.68 1.773-2.184 3.324-.5 1.551-.973 3.711-.18 3.973.805.258 1.688-1.773 2.188-3.324.504-1.555 1.45-3.558.176-3.973z" fill="#ffe152"/><path d="M402.698 173.855c-1.27-.414-1.68 1.773-2.184 3.324-.5 1.551-.973 3.711-.18 3.973.805.258 1.688-1.773 2.188-3.324.504-1.555 1.45-3.558.176-3.973z" fill="none" stroke="#000" stroke-width=".034"/><path d="M404.058 174.926c-1.363-.508-1.914 1.836-2.539 3.5-.625 1.656-1.246 3.98-.395 4.301.859.324 1.918-1.836 2.543-3.496.621-1.661 1.746-3.793.391-4.305z" fill="#ffe152"/><path d="M404.058 174.926c-1.363-.508-1.914 1.836-2.539 3.5-.625 1.656-1.246 3.98-.395 4.301.859.324 1.918-1.836 2.543-3.496.621-1.661 1.746-3.793.391-4.305z" fill="none" stroke="#000" stroke-width=".034"/><path d="M410.897 181.379c-.617-.871-1.934.176-2.992.93-1.062.758-2.395 1.918-2.008 2.465.656.918 2.105.043 3.16-.707 1.059-.755 2.461-1.821 1.84-2.688z" fill="#ffe152"/><path d="M410.897 181.379c-.617-.871-1.934.176-2.992.93-1.062.758-2.395 1.918-2.008 2.465.656.918 2.105.043 3.16-.707 1.059-.755 2.461-1.821 1.84-2.688z" fill="none" stroke="#000" stroke-width=".034"/><path d="M409.597 179.797c-1.277-1.367-1.969.793-3.031 1.727-1.07.934-2.383 2.328-1.902 2.879.48.547 2.039-.57 3.105-1.504 1.066-.93 2.867-1.977 1.828-3.102z" fill="#ffe152"/><path d="M409.597 179.797c-1.277-1.367-1.969.793-3.031 1.727-1.07.934-2.383 2.328-1.902 2.879.48.547 2.039-.57 3.105-1.504 1.066-.93 2.867-1.977 1.828-3.102z" fill="none" stroke="#000" stroke-width=".034"/><path d="M408.495 177.473c-1.129-1.031-2.34 1.277-3.594 2.652-1.258 1.371-2.773 3.391-2.062 4.039.707.648 2.586-1.039 3.836-2.418 1.261-1.371 2.949-3.242 1.82-4.273z" fill="#ffe152"/><path d="M408.495 177.473c-1.129-1.031-2.34 1.277-3.594 2.652-1.258 1.371-2.773 3.391-2.062 4.039.707.648 2.586-1.039 3.836-2.418 1.261-1.371 2.949-3.242 1.82-4.273z" fill="none" stroke="#000" stroke-width=".034"/><path d="M406.214 176.094c-1.598-.898-2.41 1.492-3.262 3.113-.852 1.617-1.574 4.059-.746 4.5.836.438 2.203-1.637 3.055-3.254.851-1.621 2.261-3.625.953-4.359z" fill="#ffe152"/><path d="M406.214 176.094c-1.598-.898-2.41 1.492-3.262 3.113-.852 1.617-1.574 4.059-.746 4.5.836.438 2.203-1.637 3.055-3.254.851-1.621 2.261-3.625.953-4.359z" fill="none" stroke="#000" stroke-width=".034"/><path d="M346.007 94.258c3.547 4.133 4.219 8.871 0 13.434h-3.309c-4.219-4.562-3.547-9.301 0-13.434h3.309z" fill="#fff"/><path d="M346.007 94.258c3.547 4.133 4.219 8.871 0 13.434h-3.309c-4.219-4.562-3.547-9.301 0-13.434h3.309zm-.84 0c1.746 4.133 2.074 8.871 0 13.434h-1.629c-2.074-4.562-1.746-9.301 0-13.434h1.629z" fill="none" stroke="#000" stroke-width=".034"/><path d="M358.69 93.625c-2.199.105-4.375-1.262-5.816-2.117-1.441-.855-3.699-1.445-4.691-.812-2.004 1.285-2.316 1.797-3.043 1.582-1.262-.387-1.645-.43-2.703.316-1.121.785-1.211 2.004-.891 2.637.113.223.363.551.664.516.16.227.496.602.906.543-.16-.137-.387-.43-.434-.637.23-.02.387-.246.473-.402.117.156.273.359.473.43 0 .293.297.832.75.969-.18-.316-.141-.812.02-.969.137.012.316-.09.363-.203.102.047.441.078.562 0 .109.25.203.699.133 1.035.316-.16.699-.629.723-.988.723.129 1.418-.273 1.238-1.152-.18-.879-.109-1.285.34-1.488.449-.203 2.434.094 3.227.562.789.477 3.059 2.48 4.102 2.75 4.147.764 5.948-2.275 3.604-2.572z" fill="#ffe152"/><path d="M358.69 93.625c-2.199.105-4.375-1.262-5.816-2.117-1.441-.855-3.699-1.445-4.691-.812-2.004 1.285-2.316 1.797-3.043 1.582-1.262-.387-1.645-.43-2.703.316-1.121.785-1.211 2.004-.891 2.637.113.223.363.551.664.516.16.227.496.602.906.543-.16-.137-.387-.43-.434-.637.23-.02.387-.246.473-.402.117.156.273.359.473.43 0 .293.297.832.75.969-.18-.316-.141-.812.02-.969.137.012.316-.09.363-.203.102.047.441.078.562 0 .109.25.203.699.133 1.035.316-.16.699-.629.723-.988.723.129 1.418-.273 1.238-1.152-.18-.879-.109-1.285.34-1.488.449-.203 2.434.094 3.227.562.789.477 3.059 2.48 4.102 2.75 4.147.764 5.948-2.275 3.604-2.572z" fill="none" stroke="#000" stroke-width=".034"/><path d="M359.003 106.934c-1.066.699-3.113 1.961-4.227 2.75-1.215.871-2.625 1.594-6.059.16-.645-.27-1.387-.492-2.152-.43s-1.672-.188-2.039-.539c-.945-.906-.887-.141-2.176-.426-1.293-.289-1.785-1.293-1.668-1.816-.133-.199-.238-.777-.129-1.008.047.246.375.617.602.73.293-.098.785-.02.992.09-.586-1.07-.211-1.57.227-1.965-.121-.406.16-1.066.445-1.367-.172.32.043 1.016.094 1.266.23-.031.551.277.602.551.09-.117.223-.121.336-.125-.012-.516.469-1 .832-1.098-.242.363.023.945.004 1.172.539.055 1.07.562 1.234.922-.285-.648.25-1.09.492-1.23.109-.18.254-1 .062-1.332.629-.035.992 1.082 1.023 1.578.969.051 1.043 1.152.812 1.949.324.348.777.523 1.422 1.047.641.531 2.031.184 3.199-.16 1.004-.293 2.848-1.82 4.086-2.93 2.306-2.125 4.146.008 1.986 2.211z" fill="#ffe152"/><path d="M359.003 106.934c-1.066.699-3.113 1.961-4.227 2.75-1.215.871-2.625 1.594-6.059.16-.645-.27-1.387-.492-2.152-.43s-1.672-.188-2.039-.539c-.945-.906-.887-.141-2.176-.426-1.293-.289-1.785-1.293-1.668-1.816-.133-.199-.238-.777-.129-1.008.047.246.375.617.602.73.293-.098.785-.02.992.09-.586-1.07-.211-1.57.227-1.965-.121-.406.16-1.066.445-1.367-.172.32.043 1.016.094 1.266.23-.031.551.277.602.551.09-.117.223-.121.336-.125-.012-.516.469-1 .832-1.098-.242.363.023.945.004 1.172.539.055 1.07.562 1.234.922-.285-.648.25-1.09.492-1.23.109-.18.254-1 .062-1.332.629-.035.992 1.082 1.023 1.578.969.051 1.043 1.152.812 1.949.324.348.777.523 1.422 1.047.641.531 2.031.184 3.199-.16 1.004-.293 2.848-1.82 4.086-2.93 2.306-2.125 4.146.008 1.986 2.211z" fill="none" stroke="#000" stroke-width=".034"/><path d="M388.765 108.965a1.37 1.37 0 0 0-.184.738c-1.035.402-1.105.945-1.105 1.73.34-.469 1.059-.945 1.672-.945.676.812 1.656 1.027 2.656-.043.34-.363.914-.973 2.098-.566 1.895.656 6.496.293 10.148-2.949-2.754-2.078-1.445-4.105-.051-4.602 1.203-.422 2.457-.836 2.82-1.824.777.621 1.375 1.512 1.375 2.996.723-.809 1.219-1.801 1.172-2.566 1.488 2.344 3.605 1.395 4.242 2.16.086-.312 0-.992-.098-1.352 3.609 2.391 7.035-.328 8.797.633.992.539 1.758 1.125 2.301 2.117.535.992.941 1.805.18 2.707-.98 1.156-2.027-.023-2.438 1.035-.359-1.125-1.848-1.305-2.297-.18-.766-1.398-1.895-1.082-2.438-.359-.441.586-.586 1.891.363 2.344-.723.723-.453 1.758.449 2.207-.09-.539-.043-1.578.582-1.894a.79.79 0 0 0 .727.359c-.227.84.156 1.789 1.195 2.281-.113-.586-.137-1.781.27-2.207.137.223.902.426 1.172.18-.227.879.77 1.891 1.602 2.051-.387-.34-.52-1.691-.293-2.324.742.43 1.195.25 1.512-1.105.391-1.68 3.559-1.574 3.605-3.832.02-1.168-1.535-.672-2.703-5.273-.699-2.738-3.613-1.715-7.035-.949-6.547 1.465-6.676-3.648-9.152-4.418 4.598 1.039 6.402-3.242 7.438-5.004 1.039-1.754 3.875-.445 4.148 1.176 1.348-2.301-1.484-4.555-3.789-3.203.492-.543.047-1.399-.723-1.758-.762-.359-.672-1.219-.223-2.117-1.309.266-2.027 1.215-1.309 3.016-6.855-6.488-18.391 4.691-27.77.633-.453-6.039-11.902 3.699-10.82-2.973-2.391 1.98.043 3.875 1.578 4.504-1.988 1.488-.816 3.293.992 3.973-.953-1.625-.242-3.781 2.117-3.336 4.328.809 5.859 1.125 5.816-.543 10.773 2.703 21.086-5.816 26.195-1.805 3.785 2.977-.453 6.945-4.871 6.309-9.918-6.848-19.207 6.227-34.355 3.52-4.328-1.172-11.633 6.043-4.871 9.02 8.477 3.695 26.242-12.176 30.66-9.648 1.133.645 1.613 1.32 1.746 1.969-.902 1.625-3.668-.074-4.406 2.129-.18.543-.992 1.445-1.531 1.582.809.18 1.848 0 2.523-.539-1.035 1.711-.586 3.559 1.215 4.777-2.387 1.398-5.004 1.531-6.219-.137-1.219-1.668-2.93-1.555-3.492-.926-.406.07-1.086.137-1.289.406.27.027.746.16.992.293-.809-.02-1.488.34-1.598.859-.59.203-1.105.699-1.242 1.332.266-.226.898-.609 1.352-.633.119.357.303.767.592.974z" fill="#ffe152"/><path d="M388.765 108.965a1.37 1.37 0 0 0-.184.738c-1.035.402-1.105.945-1.105 1.73.34-.469 1.059-.945 1.672-.945.676.812 1.656 1.027 2.656-.043.34-.363.914-.973 2.098-.566 1.895.656 6.496.293 10.148-2.949-2.754-2.078-1.445-4.105-.051-4.602 1.203-.422 2.457-.836 2.82-1.824.777.621 1.375 1.512 1.375 2.996.723-.809 1.219-1.801 1.172-2.566 1.488 2.344 3.605 1.395 4.242 2.16.086-.312 0-.992-.098-1.352 3.609 2.391 7.035-.328 8.797.633.992.539 1.758 1.125 2.301 2.117.535.992.941 1.805.18 2.707-.98 1.156-2.027-.023-2.438 1.035-.359-1.125-1.848-1.305-2.297-.18-.766-1.398-1.895-1.082-2.438-.359-.441.586-.586 1.891.363 2.344-.723.723-.453 1.758.449 2.207-.09-.539-.043-1.578.582-1.894a.79.79 0 0 0 .727.359c-.227.84.156 1.789 1.195 2.281-.113-.586-.137-1.781.27-2.207.137.223.902.426 1.172.18-.227.879.77 1.891 1.602 2.051-.387-.34-.52-1.691-.293-2.324.742.43 1.195.25 1.512-1.105.391-1.68 3.559-1.574 3.605-3.832.02-1.168-1.535-.672-2.703-5.273-.699-2.738-3.613-1.715-7.035-.949-6.547 1.465-6.676-3.648-9.152-4.418 4.598 1.039 6.402-3.242 7.438-5.004 1.039-1.754 3.875-.445 4.148 1.176 1.348-2.301-1.484-4.555-3.789-3.203.492-.543.047-1.399-.723-1.758-.762-.359-.672-1.219-.223-2.117-1.309.266-2.027 1.215-1.309 3.016-6.855-6.488-18.391 4.691-27.77.633-.453-6.039-11.902 3.699-10.82-2.973-2.391 1.98.043 3.875 1.578 4.504-1.988 1.488-.816 3.293.992 3.973-.953-1.625-.242-3.781 2.117-3.336 4.328.809 5.859 1.125 5.816-.543 10.773 2.703 21.086-5.816 26.195-1.805 3.785 2.977-.453 6.945-4.871 6.309-9.918-6.848-19.207 6.227-34.355 3.52-4.328-1.172-11.633 6.043-4.871 9.02 8.477 3.695 26.242-12.176 30.66-9.648 1.133.645 1.613 1.32 1.746 1.969-.902 1.625-3.668-.074-4.406 2.129-.18.543-.992 1.445-1.531 1.582.809.18 1.848 0 2.523-.539-1.035 1.711-.586 3.559 1.215 4.777-2.387 1.398-5.004 1.531-6.219-.137-1.219-1.668-2.93-1.555-3.492-.926-.406.07-1.086.137-1.289.406.27.027.746.16.992.293-.809-.02-1.488.34-1.598.859-.59.203-1.105.699-1.242 1.332.266-.226.898-.609 1.352-.633.119.357.303.767.592.974z" fill="none" stroke="#000" stroke-width=".034"/><path d="M368.022 92.774c.949 2.57 3.832 3.965 7.078 3.648-.18.949-1.578 1.758-2.613 1.805 2.84.406 2.523 2.797 5.047 2.387-1.305 2.168-3.875 2.027-5.77 1.176 1.219.586 2.48 1.852 3.605 3.695-1.848.406-4.91.359-6.039-.902.133.766.359 2.121.27 3.473-1.039-1.668-4.461-2.434-4.461-4.238-.273 1.172-1.758 2.527-1.719 3.785-.988-1.258-1.664-1.981-1.484-3.469-.27 2.75-3.605 2.93-3.789 4.059 0-1.488 0-3.066.27-3.969-1.348.809-2.93 1.711-4.641.809 2.16-.855 1.664-4.059 3.832-4.82-1.941 1.035-3.695.496-4.555-.449.988 0 2.348-.816 2.84-1.402-1.309.184-3.062-.402-4.059-1.758 1.539.18 3.668-.898 5.152-2.344.849-.768 9.865-4.42 11.036-1.486z" fill="#ffe152"/><path d="M368.022 92.774c.949 2.57 3.832 3.965 7.078 3.648-.18.949-1.578 1.758-2.613 1.805 2.84.406 2.523 2.797 5.047 2.387-1.305 2.168-3.875 2.027-5.77 1.176 1.219.586 2.48 1.852 3.605 3.695-1.848.406-4.91.359-6.039-.902.133.766.359 2.121.27 3.473-1.039-1.668-4.461-2.434-4.461-4.238-.273 1.172-1.758 2.527-1.719 3.785-.988-1.258-1.664-1.981-1.484-3.469-.27 2.75-3.605 2.93-3.789 4.059 0-1.488 0-3.066.27-3.969-1.348.809-2.93 1.711-4.641.809 2.16-.855 1.664-4.059 3.832-4.82-1.941 1.035-3.695.496-4.555-.449.988 0 2.348-.816 2.84-1.402-1.309.184-3.062-.402-4.059-1.758 1.539.18 3.668-.898 5.152-2.344.849-.768 9.865-4.42 11.036-1.486z" fill="none" stroke="#000" stroke-width=".034"/><path d="M361.444 90.695c-1.086-.246-1.941 1.039-2.934.137-.023.609.312 1.398 1.285 1.621-1.359.141-1.359 1.129-3.449.883.336 1.125 1.191 1.824 2.32 1.465-1.059.469-1.824 2.027-2.82 1.824.387.789 2.211 1.512 3.227 1.082-.719 1.082-.047 2.797-.898 3.266 1.688.23 3.219-.965 3.762-2.094 0 1.668.676 2.863 2.48 3.316-.34-1.285.586-2.414.543-3.496.289.969 1.82.832 2.496 1.938.273-.949-.492-1.371-.02-3.469.539.652 1.398.852 2.121.695-.969-1.035-1.918-3.02-1.762-5.09.048-1.218-3.241-2.164-6.351-2.078z" fill="#ffe152"/><path d="M361.444 90.695c-1.086-.246-1.941 1.039-2.934.137-.023.609.312 1.398 1.285 1.621-1.359.141-1.359 1.129-3.449.883.336 1.125 1.191 1.824 2.32 1.465-1.059.469-1.824 2.027-2.82 1.824.387.789 2.211 1.512 3.227 1.082-.719 1.082-.047 2.797-.898 3.266 1.688.23 3.219-.965 3.762-2.094 0 1.668.676 2.863 2.48 3.316-.34-1.285.586-2.414.543-3.496.289.969 1.82.832 2.496 1.938.273-.949-.492-1.371-.02-3.469.539.652 1.398.852 2.121.695-.969-1.035-1.918-3.02-1.762-5.09.048-1.218-3.241-2.164-6.351-2.078z" fill="none" stroke="#000" stroke-width=".034"/><path d="M361.339 96.813c-1.23-.078-1.57-.98-1.145-1.641.422-.656.441-1.371.367-2.238-.07-.863.121-1.965 1.574-3.18-.715-.652-.465-1.352.039-1.848a.954.954 0 0 1 1.547.199c1.492.066 3.324 1.125 4.23 2.562.477-.027 1.141.465.895 1.281-.199.676-.711 1.223-1.617.895-.402 1.844-1.289 2.527-2.09 2.863-.801.336-1.434.68-1.816 1.363-.383.685-1.34.802-1.984-.256z" fill="#ffe152"/><path d="M361.339 96.813c-1.23-.078-1.57-.98-1.145-1.641.422-.656.441-1.371.367-2.238-.07-.863.121-1.965 1.574-3.18-.715-.652-.465-1.352.039-1.848a.954.954 0 0 1 1.547.199c1.492.066 3.324 1.125 4.23 2.562.477-.027 1.141.465.895 1.281-.199.676-.711 1.223-1.617.895-.402 1.844-1.289 2.527-2.09 2.863-.801.336-1.434.68-1.816 1.363-.383.685-1.34.802-1.984-.256z" fill="none" stroke="#000" stroke-width=".034"/><path d="M365.831 89.406c.703.43 1.555 1.23 1.91 1.703.172.23.219.211.441-.004.973-.965 2.219-1.816 3.586-2.211.703-.207.434-.461.211-.527-.227-.066-.66-.18-1.391.176a.62.62 0 0 0-.914-.695c-.348.23-.258.812-.059.984-.793.012-1.918-.68-1.691-2.078.277.547 1.031.379 1.125-.074.105-.5-.23-.812-.602-.77.43-.117.688-.793.168-1.105-.516-.32-1 .223-.902.66-.137-.348-.566-.504-.961-.18-.359.297-.16 1.043.453 1.035-1.137.848-2.27.176-2.625-.535.242.094.801-.094.844-.516.047-.449-.523-.899-1.039-.484-.02-.812-.32-1.145-.484-1.312-.168-.168-.516-.285-.371.43.281 1.395.102 2.891-.305 4.203-.086.297-.082.348.203.395.583.093 1.688.476 2.403.905z" fill="#ffe152"/><path d="M365.831 89.406c.703.43 1.555 1.23 1.91 1.703.172.23.219.211.441-.004.973-.965 2.219-1.816 3.586-2.211.703-.207.434-.461.211-.527-.227-.066-.66-.18-1.391.176a.62.62 0 0 0-.914-.695c-.348.23-.258.812-.059.984-.793.012-1.918-.68-1.691-2.078.277.547 1.031.379 1.125-.074.105-.5-.23-.812-.602-.77.43-.117.688-.793.168-1.105-.516-.32-1 .223-.902.66-.137-.348-.566-.504-.961-.18-.359.297-.16 1.043.453 1.035-1.137.848-2.27.176-2.625-.535.242.094.801-.094.844-.516.047-.449-.523-.899-1.039-.484-.02-.812-.32-1.145-.484-1.312-.168-.168-.516-.285-.371.43.281 1.395.102 2.891-.305 4.203-.086.297-.082.348.203.395.583.093 1.688.476 2.403.905z" fill="none" stroke="#000" stroke-width=".034"/><path d="M363.054 94.902c-.121-.355-.031-.867.34-1.477-.379.625-.785.941-1.16.992-.734.898-1.848 2.289-1.102 2.742.742.45 1.449-1.194 1.922-2.257z" fill="#ffe152"/><path d="M363.054 94.902c-.121-.355-.031-.867.34-1.477-.379.625-.785.941-1.16.992-.734.898-1.848 2.289-1.102 2.742.742.45 1.449-1.194 1.922-2.257zm41.941 4.539c.605.289 1.254.605 1.824 1.062m-15.597 7.798c-1.277-.391-2.109.059-2.457.664m13.105-10.121c.227 1.074-.551 2.039-1.113 2.402 2.387.406 4.91-.859 4.102-3.066m-15.196 8.25c.297.023.793.094 1.062.246m18.641-5.742c0-.406-.363-1.129-.723-1.402m4.868 2.21a4.267 4.267 0 0 1-.875-.77m7.418 7.083c-.18.363-.227 1.129-.043 1.375m2.34-1.196c-.133.293-.133.949.113 1.172m-77.703-13.929c-.332-.133-.656-1.352.336-1.668m-1.942 1.441c-.363-.562-.316-1.691.32-2.098m.04 11.778c-.266.184-.582 1.184.398 1.746m-1.766-.231c.137.285.555.586.973.773m21.305-13.98c-.207.344-.488.457-1.008.145-.516-.316-.543-.617-.328-.965m-.235-2.332c.32.301 1.246.129 1.57.645m-1.128-.477c-.145.152-.234.387-.133.57m.953-.336c.004.293-.16.539-.398.59m.336 4.383c-1.016.023-1.418-.785-.66-2.035-.758 1.25-1.66 1.266-2.113.355m5.316-1.429c-.41-.141-.684-1.043-1.297-1.094m.949.785c-.066.195-.234.387-.441.383m-.149-1.004c-.258.137-.402.395-.336.633m3.039-1.684c-.531-.629-1.438-1.387-2.059-1.762-.617-.379-1.727-.836-2.535-1.008" fill="none" stroke="#000" stroke-width=".034"/><path d="M410.936 126.438c1.258 7.148.141 10.707-1.219 13.496.59-.066 1.531-.555 1.883-.871.031.488.172 1.121.312 1.465.312-.277.875-1.113 1.047-1.57.281.629 1.012 1.121 1.781 1.293-1.5-2.93-1.5-11.164-1.293-14.059.036-.524-2.718-1.043-2.511.246z" fill="#b03427"/><path d="M410.936 126.438c1.258 7.148.141 10.707-1.219 13.496.59-.066 1.531-.555 1.883-.871.031.488.172 1.121.312 1.465.312-.277.875-1.113 1.047-1.57.281.629 1.012 1.121 1.781 1.293-1.5-2.93-1.5-11.164-1.293-14.059.036-.524-2.718-1.043-2.511.246z" fill="none" stroke="#000" stroke-width=".034"/><path d="M413.815 117.293a4.462 4.462 0 0 1 1.75-.66c-.77.734-1.434 2.23-1.68 3.07 1.887-2.516 6.074-3.453 6.664-4.816.055.371-.051.965-.102 1.152.68-.625 1.484-1.137 2.34-1.062-.297.348-.699.977-.789 1.496.789-.609 2.219-1.199 3.746-1.059-.484.383-1.078.941-1.355 1.461.836-.52 1.887-.695 3.207-.277-.621.176-1.184.488-1.602 1.047.836-.07 2.023.211 2.855 1.5-.797-.137-2.156-.211-2.75-.035.836.629 1.008 1.395 1.113 2.234-.801-.594-1.988-1.254-2.895-1.398.422.352.699 1.121.734 1.539-.699-.773-2.371-1.676-3.668-1.711.352.211.984.805 1.156 1.395-1.363-.734-2.898-1.328-3.977-.906.418.172 1.047.594 1.254.941-.449 0-2.02.141-2.516.484 3.984.91 8.34 3.246 6.562 8.832-.172-.945-.453-2.863-.977-3.668.035.699-.141 2.199-.98 2.516.105-.734-.035-2.199-.242-2.582-.172.488-.449 1.184-.836 1.5-.07-.836-.418-2.055-1.289-2.793.102.738.07 1.887-.633 2.27 0-.664-.277-1.988-.941-2.059-.137.383-.312.977-.734 1.258-.344-1.395-1.949-2.582-3.484-2.27 2.48 1.289 5.441 3.977 5.652 6.699.211 2.719-.105 3.977-1.012 4.848.07-.664-.07-1.676-.141-2.301-.242.418-.594 1.254-1.359 1.602.242-.559.594-1.742.629-2.824-.352.941-.801 1.605-1.5 2.094.273-1.637.523-2.965.488-3.941-.352.695-.734 1.254-1.398 1.672.25-1.043.559-2.441.176-3.59-.07.523-.277 1.219-.875 1.707.145-1.012-.066-2.301-.727-3-.176.453-.594.871-.91 1.082.176-.73.141-1.813-.137-2.336 0 .383-.035 1.465-.523 2.059 0-.555-.25-1.746-.633-2.203.074 2.238-.766 3.633-.695 4.328-.488-1.113-.695-1.953-.734-2.617-.066 1.258-.523 3.316-1.047 4.051-.277-.77-.625-1.781-.699-2.723.215 2.547-.867 4.641-.762 5.34-.422-.527-.914-1.504-1.051-2.199-.383 1.328-.766 2.48-.871 3.207-.312-.555-.594-1.043-.664-1.391-.246.484-.766 1.258-.973 1.984-.699-5.059 1.672-9.453 6.277-11.617-.555-.383-1.957-.176-2.621.906a11.934 11.934 0 0 1-.133-1.57c-.492.633-1.258 1.816-1.398 2.34-.105-.594-.312-1.363-.246-2.059-.52.766-1.219 2.266-1.324 2.895-.207-.664-.488-1.746-.453-2.266-.344.555-.73 1.777-.73 2.441-.523-.629-.664-1.328-.734-1.816-.418.91-.801 2.305-.871 3.105-.594-.418-.836-1.672-.871-2.266-.805.836-1.539 1.918-1.918 2.754-.945-4.988 3.977-8.859 12.383-6.937-2.059-.562-4.117-2.551-5.688-.633-.07-.418-.242-1.043.07-1.57-.805.352-1.742 1.363-2.059 1.992-.172-.594-.137-1.574.141-2.098-1.047.84-2.129 1.781-2.652 3.035-.176-.695-.176-1.742.07-2.336-.664.383-1.645 1.258-1.922 1.988-.168-1.082.145-2.438.664-3.137-1.465.594-2.859 2.441-3.172 3.484-.277-1.254.277-3.555.941-4.254-.98.035-1.781.109-2.129.524.453-1.324 2.82-2.34 3.664-2.059-.246-.418-.77-1.395-1.535-1.605.766-.066 2.305.559 3 1.434.105-.523.035-1.711-.352-2.199.77.242 1.957 1.008 2.375 1.707.07-.453.105-1.289-.035-1.707.871.559 1.637 1.289 2.059 2.23-.074-.555-.172-1.43-.387-1.883.668.418 1.363 1.188 1.785 2.125 0-.555.031-1.359-.145-1.879.875.695 1.742 1.812 2.234 2.93.07-.488.07-1.5-.137-1.953.867.488 1.953 2.754 2.648 4.012-.102-.629-.453-1.711-.801-2.199.293.09.852.262 1.012.488-.402-.977-.895-1.918-1.289-2.285.66.227 1.391.734 1.602 1.168.07-.68.156-1.746 0-2.211a3.551 3.551 0 0 1 1.328 1.688c.152-.676.801-1.812 1.359-2.16a6.393 6.393 0 0 0-.175 2.506z" fill="#009c57"/><path d="M413.815 117.293a4.462 4.462 0 0 1 1.75-.66c-.77.734-1.434 2.23-1.68 3.07 1.887-2.516 6.074-3.453 6.664-4.816.055.371-.051.965-.102 1.152.68-.625 1.484-1.137 2.34-1.062-.297.348-.699.977-.789 1.496.789-.609 2.219-1.199 3.746-1.059-.484.383-1.078.941-1.355 1.461.836-.52 1.887-.695 3.207-.277-.621.176-1.184.488-1.602 1.047.836-.07 2.023.211 2.855 1.5-.797-.137-2.156-.211-2.75-.035.836.629 1.008 1.395 1.113 2.234-.801-.594-1.988-1.254-2.895-1.398.422.352.699 1.121.734 1.539-.699-.773-2.371-1.676-3.668-1.711.352.211.984.805 1.156 1.395-1.363-.734-2.898-1.328-3.977-.906.418.172 1.047.594 1.254.941-.449 0-2.02.141-2.516.484 3.984.91 8.34 3.246 6.562 8.832-.172-.945-.453-2.863-.977-3.668.035.699-.141 2.199-.98 2.516.105-.734-.035-2.199-.242-2.582-.172.488-.449 1.184-.836 1.5-.07-.836-.418-2.055-1.289-2.793.102.738.07 1.887-.633 2.27 0-.664-.277-1.988-.941-2.059-.137.383-.312.977-.734 1.258-.344-1.395-1.949-2.582-3.484-2.27 2.48 1.289 5.441 3.977 5.652 6.699.211 2.719-.105 3.977-1.012 4.848.07-.664-.07-1.676-.141-2.301-.242.418-.594 1.254-1.359 1.602.242-.559.594-1.742.629-2.824-.352.941-.801 1.605-1.5 2.094.273-1.637.523-2.965.488-3.941-.352.695-.734 1.254-1.398 1.672.25-1.043.559-2.441.176-3.59-.07.523-.277 1.219-.875 1.707.145-1.012-.066-2.301-.727-3-.176.453-.594.871-.91 1.082.176-.73.141-1.813-.137-2.336 0 .383-.035 1.465-.523 2.059 0-.555-.25-1.746-.633-2.203.074 2.238-.766 3.633-.695 4.328-.488-1.113-.695-1.953-.734-2.617-.066 1.258-.523 3.316-1.047 4.051-.277-.77-.625-1.781-.699-2.723.215 2.547-.867 4.641-.762 5.34-.422-.527-.914-1.504-1.051-2.199-.383 1.328-.766 2.48-.871 3.207-.312-.555-.594-1.043-.664-1.391-.246.484-.766 1.258-.973 1.984-.699-5.059 1.672-9.453 6.277-11.617-.555-.383-1.957-.176-2.621.906a11.934 11.934 0 0 1-.133-1.57c-.492.633-1.258 1.816-1.398 2.34-.105-.594-.312-1.363-.246-2.059-.52.766-1.219 2.266-1.324 2.895-.207-.664-.488-1.746-.453-2.266-.344.555-.73 1.777-.73 2.441-.523-.629-.664-1.328-.734-1.816-.418.91-.801 2.305-.871 3.105-.594-.418-.836-1.672-.871-2.266-.805.836-1.539 1.918-1.918 2.754-.945-4.988 3.977-8.859 12.383-6.937-2.059-.562-4.117-2.551-5.688-.633-.07-.418-.242-1.043.07-1.57-.805.352-1.742 1.363-2.059 1.992-.172-.594-.137-1.574.141-2.098-1.047.84-2.129 1.781-2.652 3.035-.176-.695-.176-1.742.07-2.336-.664.383-1.645 1.258-1.922 1.988-.168-1.082.145-2.438.664-3.137-1.465.594-2.859 2.441-3.172 3.484-.277-1.254.277-3.555.941-4.254-.98.035-1.781.109-2.129.524.453-1.324 2.82-2.34 3.664-2.059-.246-.418-.77-1.395-1.535-1.605.766-.066 2.305.559 3 1.434.105-.523.035-1.711-.352-2.199.77.242 1.957 1.008 2.375 1.707.07-.453.105-1.289-.035-1.707.871.559 1.637 1.289 2.059 2.23-.074-.555-.172-1.43-.387-1.883.668.418 1.363 1.188 1.785 2.125 0-.555.031-1.359-.145-1.879.875.695 1.742 1.812 2.234 2.93.07-.488.07-1.5-.137-1.953.867.488 1.953 2.754 2.648 4.012-.102-.629-.453-1.711-.801-2.199.293.09.852.262 1.012.488-.402-.977-.895-1.918-1.289-2.285.66.227 1.391.734 1.602 1.168.07-.68.156-1.746 0-2.211a3.551 3.551 0 0 1 1.328 1.688c.152-.676.801-1.812 1.359-2.16a6.393 6.393 0 0 0-.175 2.506zm6.633-1.254a2.12 2.12 0 0 0-.488.68m-2.656 4.969c-.762-.172-2.332 0-3.027.461m3.691 3.554c.039-.242-.137-1.012-.59-1.258m.14 8.27c.176-.453.348-1.465.312-1.918m.419 3.141c.141-.387.211-1.121.211-1.5m-3.176-3.489c-.105-.352-.137-.805-.312-1.121m1.535 3.039c0-.664.035-1.535-.035-1.918m-2.789-1.293c.105-.238.262-.805.262-1.113m-7.454 5.895c-.176-.488-.066-1.676.137-2.305m-1.672 4.121c.211-.422.527-1.957.488-2.586m-2.824-6.176c.141-.328.172-.766.645-1.324m-2.387 2.164c-.035-.316.121-1.168.504-1.516m2.703.051c0-.262.211-.734.543-.941m1.234.312c.141-.227.453-.785.613-.961m1.032.68c.156-.223.348-.555.539-.75m2.738-2.91c.07.383.258 1.883 1.012 2.301m-10.817-4.43c3.352-.453 8.023 1.328 10.188 3.559m13.051-3.457c-4.121-1.082-7.926.633-10.535 3.668m.203-2.235c-.203.594-.273 1.219-.312 1.852m-1.973 17.507a4.22 4.22 0 0 1 0-.941" fill="none" stroke="#000" stroke-width=".034"/><path d="M413.69 127.586c-1.781 0-1.781 2.617 0 2.617 1.789 0 1.789-2.617 0-2.617z" fill="#b03427"/><path d="M413.69 127.586c-1.781 0-1.781 2.617 0 2.617 1.789 0 1.789-2.617 0-2.617z" fill="none" stroke="#000" stroke-width=".034"/><path d="M353.351 163.363c-.273.039-1.426.082-1.801.039-.086.484-.594 1.363-.965 1.785-.293-1.09-1.531-2.641-2.223-3 .148.566-.043 1.785-.207 2.223-.656-2.094-2.645-2.285-2.75-2.867-.375.711-.562 1.527-.332 2.09-.926-.922-3-1.672-3.922-1.34.355 1.68 1.719 2.77 2.707 3.25-1.074.039-2.016.5-2.746 1.238 1.211.691 2.617 1.191 3.812.691-.547.48-1.027 1.133-1.215 1.863.754.273 2.574.148 3.309-.25-.25.312-.48.879-.543 1.402.504.148 1.551-.023 1.973-.25-.859 1.234-1.199 3.961-.82 4.988 1.277-.797 2.453-2.285 2.938-3.332.457.605 1.215 1.172 2.051 1.258-.879-1.719.926-2.789.148-4.195-.777-1.402-1.488-1.887-1.844-2.137.523-.776 2.222-2.956 2.43-3.456z" fill="#009c57"/><path d="M353.351 163.363c-.273.039-1.426.082-1.801.039-.086.484-.594 1.363-.965 1.785-.293-1.09-1.531-2.641-2.223-3 .148.566-.043 1.785-.207 2.223-.656-2.094-2.645-2.285-2.75-2.867-.375.711-.562 1.527-.332 2.09-.926-.922-3-1.672-3.922-1.34.355 1.68 1.719 2.77 2.707 3.25-1.074.039-2.016.5-2.746 1.238 1.211.691 2.617 1.191 3.812.691-.547.48-1.027 1.133-1.215 1.863.754.273 2.574.148 3.309-.25-.25.312-.48.879-.543 1.402.504.148 1.551-.023 1.973-.25-.859 1.234-1.199 3.961-.82 4.988 1.277-.797 2.453-2.285 2.938-3.332.457.605 1.215 1.172 2.051 1.258-.879-1.719.926-2.789.148-4.195-.777-1.402-1.488-1.887-1.844-2.137.523-.776 2.222-2.956 2.43-3.456z" fill="none" stroke="#000" stroke-width=".034"/><path d="M356.104 176.137c-.816-.043-1.52.578-1.496 1.566.211-.379.609-.254.922-.254-.043.355.043.816.168 1.172.168-.398.672-.73 1.07-.961-.023.293.203 1.09.355 1.336.168-.586.633-1.004 1.051-1.234.391.355.848.66 1.32.859-.625.586-.859 1.277-.82 1.824.461-.758.797-.293.922.5.754-1.172 1.383-.793 1.383.297.547-1.676 1.723-1.301 3.02-.797 1.297.5 3.27 1.383 4.109 4.234.391 1.328 1.09 1.176 1.93 1.004.234.25.473.352.711.211.262-.156.398-.312.441-.48.305.23.648.602 1.32.02.277-.246.359-.488.277-.734 1.473-1.07.684-1.445-.152-1.738a5.992 5.992 0 0 1-2.391-1.508c-2.559-2.562-2.559-6.496-4.281-7.676.973-.414 1.551-1.281 1.105-1.195 1.215-.219 1.52-1.102 1.102-1.066-.176.016-.379-.078-.59-.156.961-.059 1.457-.703 2.203-1.395.543-.504.32-.59-.012-.594 1.449-1.172 2.844-3.012 1.562-2.637 2.305-2.18 1.133-2.055.336-1.797 2.77-3.609 1.387-3.523 1.09-3.148-1.367 1.758-4.543 2.941-7 3.188.461-.441.816-.918 1.047-1.508.355-.91-.031-.742-.34-.504-.164.129-.387.188-.625.234.527-.395 1.344-1.281 1.426-1.996.082-.711-.082-.965-.504-.504-.418.461-1.633 1.176-4.316 2.012-2.68.84-2.305 3.102-1.133 4.07 1.062.871 1.195 1.426.934 2.027-.801-.84-2.289-.906-2.738-2.613-.367-1.414-.625-2.184-1.777-2.582.605-.191 1.086-.859 1.133-1.785-.57.488-1.305.488-2.914-.078-1.617-.566-2.977.461-2.938 1.844-1.004.504-1.613 1.195-1.551 1.699.441.02.734-.355 1.07-.277.332.086 1.109-.078 1.363.086 1.895 1.266 1.59 3.355 1.172 5.703a7.401 7.401 0 0 0 1.036 5.331z" fill="#fff"/><path d="M356.104 176.137c-.816-.043-1.52.578-1.496 1.566.211-.379.609-.254.922-.254-.043.355.043.816.168 1.172.168-.398.672-.73 1.07-.961-.023.293.203 1.09.355 1.336.168-.586.633-1.004 1.051-1.234.391.355.848.66 1.32.859-.625.586-.859 1.277-.82 1.824.461-.758.797-.293.922.5.754-1.172 1.383-.793 1.383.297.547-1.676 1.723-1.301 3.02-.797 1.297.5 3.27 1.383 4.109 4.234.391 1.328 1.09 1.176 1.93 1.004.234.25.473.352.711.211.262-.156.398-.312.441-.48.305.23.648.602 1.32.02.277-.246.359-.488.277-.734 1.473-1.07.684-1.445-.152-1.738a5.992 5.992 0 0 1-2.391-1.508c-2.559-2.562-2.559-6.496-4.281-7.676.973-.414 1.551-1.281 1.105-1.195 1.215-.219 1.52-1.102 1.102-1.066-.176.016-.379-.078-.59-.156.961-.059 1.457-.703 2.203-1.395.543-.504.32-.59-.012-.594 1.449-1.172 2.844-3.012 1.562-2.637 2.305-2.18 1.133-2.055.336-1.797 2.77-3.609 1.387-3.523 1.09-3.148-1.367 1.758-4.543 2.941-7 3.188.461-.441.816-.918 1.047-1.508.355-.91-.031-.742-.34-.504-.164.129-.387.188-.625.234.527-.395 1.344-1.281 1.426-1.996.082-.711-.082-.965-.504-.504-.418.461-1.633 1.176-4.316 2.012-2.68.84-2.305 3.102-1.133 4.07 1.062.871 1.195 1.426.934 2.027-.801-.84-2.289-.906-2.738-2.613-.367-1.414-.625-2.184-1.777-2.582.605-.191 1.086-.859 1.133-1.785-.57.488-1.305.488-2.914-.078-1.617-.566-2.977.461-2.938 1.844-1.004.504-1.613 1.195-1.551 1.699.441.02.734-.355 1.07-.277.332.086 1.109-.078 1.363.086 1.895 1.266 1.59 3.355 1.172 5.703a7.401 7.401 0 0 0 1.036 5.331z" fill="none" stroke="#000" stroke-width=".034"/><path d="M354.589 163.004c.367-.176.586.305.223.473-.368.175-.59-.305-.223-.473z"/><path d="M362.249 168.809c.098.105.184.223.262.359m-1.196 1.172c1.426-.918 1.512-1.801 1.465-2.68-.039-.879.152-2.57 2.352-2.645.203 0 .414-.02.629-.039m-1.133-1.257c.246-.383.754-.426 1.215-.52m2.023 6.473c.41 0 1.102-.25 1.531-.285.117-.004.25-.016.375-.016m-2.691 1.871c.148-.016.324.043.5.117m-.922 1.266c.148-.004.289-.02.41-.043m3.887 10.59c.969.578 1.688 1.062 1.832 1.527m-3.254-1.445c.953.988 1.789 1.625 1.656 2.16m-2.371-1.656c.402.664.805 1.504 1.219 1.926m-9.121-6.832c-.473.066-.953-.035-1.422-.23m-3.391-2.485c.172.27.355.535.559.789m1.512.836a6.414 6.414 0 0 1-.422-.438m5.242-6.5c.793.484 1.715.043 1.945-.926m-.394-.164c1.613.816 2.43-1.195 1.34-2.012m-.379.231c1.027-.605 1.258-1.758.457-2.219m5.707-.796c-.461.125-1.848.984-2.555.566m2.219 1.23c-.484.422-1.18.969-2.492.969" fill="none" stroke="#000" stroke-width=".034"/><path d="M363.745 130.246c-.812 1.797-3.152 6.199-4.234 8.145-.406.727 2.008 2.184 2.523 1.055 1.465-3.172 3.176-7.328 3.824-8.379.653-1.063-1.586-1.915-2.113-.821z" fill="#b03427"/><path d="M363.745 130.246c-.812 1.797-3.152 6.199-4.234 8.145-.406.727 2.008 2.184 2.523 1.055 1.465-3.172 3.176-7.328 3.824-8.379.653-1.063-1.586-1.915-2.113-.821z" fill="none" stroke="#000" stroke-width=".034"/><path d="M347.776 127.473c.777 2.438 2.078 6.5 3.133 10.586.344 1.324 3.031.527 2.59-1.172-.891-3.383-2.637-8.426-3.379-10.602-.285-.828-2.762-.136-2.344 1.188z" fill="#b03427"/><path d="M347.776 127.473c.777 2.438 2.078 6.5 3.133 10.586.344 1.324 3.031.527 2.59-1.172-.891-3.383-2.637-8.426-3.379-10.602-.285-.828-2.762-.136-2.344 1.188z" fill="none" stroke="#000" stroke-width=".034"/><path d="M355.616 126.231c.07 2.215-.074 7.84-.18 10.348-.039.945 2.766 1.207 2.73-.191-.094-3.945-.406-9-.293-10.395.118-1.399-2.265-1.141-2.257.238z" fill="#b03427"/><path d="M355.616 126.231c.07 2.215-.074 7.84-.18 10.348-.039.945 2.766 1.207 2.73-.191-.094-3.945-.406-9-.293-10.395.118-1.399-2.265-1.141-2.257.238z" fill="none" stroke="#000" stroke-width=".034"/><path d="M350.276 126.789c-.203-2.238 1.422-6.059 2.641-6.793 1.227-.73 3.504-2.445 4.562-3.91-.98.488-4.48 1.547-5.211 1.797-3.598 1.195-3.578 4.637-3.664 7.891.086-2.117-.242-4.148-2.438-6.754-2.199-2.602-3.824-.73-4.641 1.223-.812 1.953 0 2.766.895 4.145.57-1.867.812-3.332 1.957-3.168 1.133.156 2.766 2.602 3.09 5.777-1.137-1.547-3.34-3.098-5.453-.894-2.113 2.195-.812 3.09.328 5.207.324-2.281.344-2.82 1.219-3.422 1.301-.891 3.418-.164 4.477 1.383 1.055 1.549 2.195-.244 2.238-2.482z" fill="#009c57"/><path d="M350.276 126.789c-.203-2.238 1.422-6.059 2.641-6.793 1.227-.73 3.504-2.445 4.562-3.91-.98.488-4.48 1.547-5.211 1.797-3.598 1.195-3.578 4.637-3.664 7.891.086-2.117-.242-4.148-2.438-6.754-2.199-2.602-3.824-.73-4.641 1.223-.812 1.953 0 2.766.895 4.145.57-1.867.812-3.332 1.957-3.168 1.133.156 2.766 2.602 3.09 5.777-1.137-1.547-3.34-3.098-5.453-.894-2.113 2.195-.812 3.09.328 5.207.324-2.281.344-2.82 1.219-3.422 1.301-.891 3.418-.164 4.477 1.383 1.055 1.549 2.195-.244 2.238-2.482z" fill="none" stroke="#000" stroke-width=".034"/><path d="M350.804 130.086c-3.742-3.176-7.242-.895-7.973 2.113-.734 3.016.484 4.562 1.465 5.621.402-4.723 2.805-8.723 4.883-7.164.976.731 2.359.731 1.625-.57z" fill="#009c57"/><path d="M350.804 130.086c-3.742-3.176-7.242-.895-7.973 2.113-.734 3.016.484 4.562 1.465 5.621.402-4.723 2.805-8.723 4.883-7.164.976.731 2.359.731 1.625-.57z" fill="none" stroke="#000" stroke-width=".034"/><path d="M357.561 128.625c.977-1.547 2.566-3.016 2.684-1.059.16 2.766 1.871 2.68 2.848 2.602-1.465-.898-.734-1.793-.734-3.984 0-2.109-.223-5.402-4.457-1.039 2.422-5.149 2.746-5.762 6.086-7.203 3.34-1.445 4.395-2.75.242-1.445-4.148 1.301-6.59 2.199-6.914 6.512.246-2.523.777-3.555-.652-4.719-2.684-2.203-3.254-2.523-8.141-1.871 1.465.645 2.922 1.98 4.969 2.848 1.547.645 2.438.645 2.52 5.453-.484-1.711-1.711-3.828-3.496-.82-2.332 3.926-.652 4.07.652 8.301.812-.812.895-3.25.566-4.633-.324-1.383-.16-1.383.41-2.359.566-.977.984-.934 1.473 1.023.491 1.948 1.128 3.206 1.944 2.393z" fill="#009c57"/><path d="M357.561 128.625c.977-1.547 2.566-3.016 2.684-1.059.16 2.766 1.871 2.68 2.848 2.602-1.465-.898-.734-1.793-.734-3.984 0-2.109-.223-5.402-4.457-1.039 2.422-5.149 2.746-5.762 6.086-7.203 3.34-1.445 4.395-2.75.242-1.445-4.148 1.301-6.59 2.199-6.914 6.512.246-2.523.777-3.555-.652-4.719-2.684-2.203-3.254-2.523-8.141-1.871 1.465.645 2.922 1.98 4.969 2.848 1.547.645 2.438.645 2.52 5.453-.484-1.711-1.711-3.828-3.496-.82-2.332 3.926-.652 4.07.652 8.301.812-.812.895-3.25.566-4.633-.324-1.383-.16-1.383.41-2.359.566-.977.984-.934 1.473 1.023.491 1.948 1.128 3.206 1.944 2.393z" fill="none" stroke="#000" stroke-width=".034"/><path d="M366.999 121.863c.328-2.195-1.141-3.656-2.359-3.824-1.223-.156-3.582-.566-4.559-1.707 0 2.363 1.625 4.07 3.172 4.559 1.551.484 1.711 1.781 1.711 3.008 0 7.41 1.793 10.257 2.035-2.036z" fill="#009c57"/><path d="M366.999 121.863c.328-2.195-1.141-3.656-2.359-3.824-1.223-.156-3.582-.566-4.559-1.707 0 2.363 1.625 4.07 3.172 4.559 1.551.484 1.711 1.781 1.711 3.008 0 7.41 1.793 10.257 2.035-2.036z" fill="none" stroke="#000" stroke-width=".034"/><path d="M363.581 130.734c.328-5.039-.895-7.156 3.094-9.516 3.988-2.359 5.941-2.688 6.184 2.926-1.223-.324-2.359-1.223-2.848-1.871-1.141 1.141-2.684 2.52-3.906 3.828-.406 2.766-.574 4.145-.812 5.285-.251 1.145-1.794 1.063-1.712-.652z" fill="#009c57"/><path d="M363.581 130.734c.328-5.039-.895-7.156 3.094-9.516 3.988-2.359 5.941-2.688 6.184 2.926-1.223-.324-2.359-1.223-2.848-1.871-1.141 1.141-2.684 2.52-3.906 3.828-.406 2.766-.574 4.145-.812 5.285-.251 1.145-1.794 1.063-1.712-.652z" fill="none" stroke="#000" stroke-width=".034"/><path d="M364.558 131.066c1.547-2.93 1.711-3.988 3.176-5.129 1.465-1.145 3.82-2.117 4.801 5.047-1.141-.898-2.523-2.199-3.176-2.688-.648-.488-.977.164-1.871 1.305-.895 1.133-3.661 3.254-2.93 1.465z" fill="#009c57"/><path d="M364.558 131.066c1.547-2.93 1.711-3.988 3.176-5.129 1.465-1.145 3.82-2.117 4.801 5.047-1.141-.898-2.523-2.199-3.176-2.688-.648-.488-.977.164-1.871 1.305-.895 1.133-3.661 3.254-2.93 1.465z" fill="none" stroke="#000" stroke-width=".034"/><path d="M363.499 131.141c1.793-3.086 3.848-2.211 5.211-.727 1.871 2.035-.734 4.637-.328 6.586-1.789-.074-1.383-2.277-1.219-3.414.164-1.137-.863-2.941-2.121-1.055-.156.239-1.949-.902-1.543-1.39z" fill="#009c57"/><path d="M363.499 131.141c1.793-3.086 3.848-2.211 5.211-.727 1.871 2.035-.734 4.637-.328 6.586-1.789-.074-1.383-2.277-1.219-3.414.164-1.137-.863-2.941-2.121-1.055-.156.239-1.949-.902-1.543-1.39z" fill="none" stroke="#000" stroke-width=".034"/></g></svg>