<svg xmlns="http://www.w3.org/2000/svg" viewBox="0 0 499.839 277.402"><path fill="#75b2dd" d="M499.839 277.402V-.375h-500v277.777h500z"/><g fill="#fff"><path d="M249.546 29.059l-6.813 21.172h-22.41l18.199 13.175-6.992 21.157 18.016-13.145 18.019 13.145-6.898-21.336 18.101-12.907h-22.32l-6.902-21.261zM156.124 138.516l21.176 6.812v22.41l13.176-18.199 21.152 6.992-13.145-18.015 13.145-18.016-21.332 6.895-12.91-18.102v22.316l-21.262 6.907zM249.546 247.969l6.812-21.172h22.41l-18.195-13.176 6.992-21.156-18.019 13.148-18.016-13.148 6.899 21.336-18.106 12.91h22.317l6.906 21.258zM343.558 138.516l-21.176-6.817v-22.406l-13.18 18.195-21.156-6.988 13.148 18.016-13.148 18.015 21.336-6.898 12.91 18.105v-22.32l21.266-6.902z"/></g></svg>