<svg xmlns="http://www.w3.org/2000/svg" viewBox="0 0 499.839 277.402"><path fill="#273376" d="M499.839 277.402V-.375h-500v277.777h500z"/><path fill="#fff" d="M291.171-.375v81.719L438.897-.375h60.942v33.758L393.714 92.191h106.125v92.637H393.714l106.125 58.801v33.773h-60.942l-147.726-81.73v81.73h-83.184v-81.73l-147.726 81.73H-.161v-33.773l105.601-58.801H-.161V92.191H105.44L-.161 33.383V-.375h60.422l147.726 81.719V-.375"/><path fill="#ce202c" d="M460.53-.375L293.647 92.258h39.95L499.839-.375H460.53zM499.839 277.402l-166.422-92.574h40.129l126.293 70.504v22.07zM167.05 92.258L-.161-.375V21.75l126.914 70.508h40.297zM166.706 184.828L-.161 277.402h39.93l166.89-92.574h-39.953z"/><path fill="#ce202c" d="M-.161 111.41h225.867V-.375h48.875V111.41h225.258v54.246H274.581v111.746h-48.875V165.656H-.161V111.41z"/></svg>