<svg xmlns="http://www.w3.org/2000/svg" viewBox="0 0 500.4 278.6"><defs><style>.cls-1{fill:#fff}.cls-2{fill:#ec2224}</style></defs><g id="Layer_2" data-name="Layer 2"><g id="GEO"><path class="cls-1" d="M277.2 277.8H500V167.5H277.2zm104.5-82.4a74.5 74.5 0 0 0 19 0 144.9 144.9 0 0 0-2.4 19.9 144.8 144.8 0 0 0 19.9-2.4 74.5 74.5 0 0 0 0 19 144.8 144.8 0 0 0-19.9-2.4 144.8 144.8 0 0 0 2.4 19.9 74.5 74.5 0 0 0-19 0 144.8 144.8 0 0 0 2.4-19.9 144.8 144.8 0 0 0-19.9 2.4 74.5 74.5 0 0 0 0-19 144.8 144.8 0 0 0 19.9 2.4 144.9 144.9 0 0 0-2.4-19.9z"/><path class="cls-1" d="M.4 167.5v-55.6h221.4V.8h55.4v111.1H500V0H0v277.8h221.8V167.5zM381.7 27a77.1 77.1 0 0 0 9.5.6 77.1 77.1 0 0 0 9.5-.6 144.9 144.9 0 0 0-2.4 19.9 144.8 144.8 0 0 0 19.9-2.4 74.5 74.5 0 0 0 0 19 144.8 144.8 0 0 0-19.9-2.4 144.8 144.8 0 0 0 2.4 19.9 74.5 74.5 0 0 0-19 0 144.9 144.9 0 0 0 2.3-19.9 144.8 144.8 0 0 0-19.9 2.4 74.5 74.5 0 0 0 0-19 144.9 144.9 0 0 0 19.9 2.4 144.9 144.9 0 0 0-2.3-19.9zm-275.4 0a77.1 77.1 0 0 0 9.5.6 77.1 77.1 0 0 0 9.5-.6 144.9 144.9 0 0 0-2.4 19.9 144.8 144.8 0 0 0 19.9-2.4 74.5 74.5 0 0 0 0 19 144.8 144.8 0 0 0-19.9-2.4 144.8 144.8 0 0 0 2.4 19.9 74.5 74.5 0 0 0-19 0 144.9 144.9 0 0 0 2.4-19.9 144.8 144.8 0 0 0-19.9 2.4 74.5 74.5 0 0 0 0-19 144.8 144.8 0 0 0 19.9 2.4 144.9 144.9 0 0 0-2.4-19.9zm36.9 204.9a144.8 144.8 0 0 0-19.9-2.4 144.8 144.8 0 0 0 2.4 19.9 74.5 74.5 0 0 0-19 0 144.9 144.9 0 0 0 2.4-19.9 144.9 144.9 0 0 0-19.9 2.4 74.5 74.5 0 0 0 0-19 144.9 144.9 0 0 0 19.9 2.4 144.9 144.9 0 0 0-2.4-19.9 74.5 74.5 0 0 0 19 0 144.9 144.9 0 0 0-2.4 19.9 144.8 144.8 0 0 0 19.9-2.4 74.5 74.5 0 0 0 0 19z"/><path class="cls-2" d="M500 111.9H277.2V.8h-55.4v111.1H.4v55.6h221.4v111.1h55.4V167.5H500.4v-55.6h-.4z"/><path class="cls-2" d="M142.2 54a77.2 77.2 0 0 1 .6-9.5 144.8 144.8 0 0 1-19.9 2.4 144.9 144.9 0 0 1 2.4-19.9 77.1 77.1 0 0 1-9.5.6 77.1 77.1 0 0 1-9.5-.6 144.9 144.9 0 0 1 2.4 19.9 144.8 144.8 0 0 1-19.9-2.4 74.5 74.5 0 0 1 0 19 144.8 144.8 0 0 1 19.9-2.4 144.9 144.9 0 0 1-2.4 19.9 74.5 74.5 0 0 1 19 0 144.8 144.8 0 0 1-2.4-19.9 144.8 144.8 0 0 1 19.9 2.4 77.1 77.1 0 0 1-.6-9.5zM398.3 215.3a144.9 144.9 0 0 1 2.4-19.9 74.5 74.5 0 0 1-19 0 144.9 144.9 0 0 1 2.4 19.9 144.8 144.8 0 0 1-19.9-2.4 74.5 74.5 0 0 1 0 19 144.8 144.8 0 0 1 19.9-2.4 144.8 144.8 0 0 1-2.4 19.9 74.5 74.5 0 0 1 19 0 144.8 144.8 0 0 1-2.4-19.9 144.8 144.8 0 0 1 19.9 2.4 74.5 74.5 0 0 1 0-19 144.8 144.8 0 0 1-19.9 2.4zM418.2 44.5a144.8 144.8 0 0 1-19.9 2.4 144.9 144.9 0 0 1 2.4-19.9 77.1 77.1 0 0 1-9.5.6 77.1 77.1 0 0 1-9.5-.6 144.9 144.9 0 0 1 2.3 19.9 144.9 144.9 0 0 1-19.9-2.4 74.5 74.5 0 0 1 0 19 144.8 144.8 0 0 1 19.9-2.4 144.9 144.9 0 0 1-2.3 19.9 74.5 74.5 0 0 1 19 0 144.8 144.8 0 0 1-2.4-19.9 144.8 144.8 0 0 1 19.9 2.4 74.5 74.5 0 0 1 0-19zM123.3 215.3a144.9 144.9 0 0 1 2.4-19.9 74.5 74.5 0 0 1-19 0 144.9 144.9 0 0 1 2.4 19.9 144.9 144.9 0 0 1-19.9-2.4 74.5 74.5 0 0 1 0 19 144.9 144.9 0 0 1 19.9-2.4 144.9 144.9 0 0 1-2.4 19.9 74.5 74.5 0 0 1 19 0 144.8 144.8 0 0 1-2.4-19.9 144.8 144.8 0 0 1 19.9 2.4 74.5 74.5 0 0 1 0-19 144.8 144.8 0 0 1-19.9 2.4z"/></g></g></svg>