<svg xmlns="http://www.w3.org/2000/svg" viewBox="0 0 499.839 277.402"><path fill="#3e9a00" d="M499.839 92.219h-500V-.375h500v92.594z"/><path fill="#e32118" d="M-.161 277.402h500v-92.59h-500v92.59z"/><path fill="#fff" d="M499.839 184.812h-500V92.219h500v92.593z"/><path fill="#0073ce" d="M-.161.848l160.91 138.269L-.161 277.402V.848z"/><path d="M305.808 110.789v44.047c0 7.801-4.141 10.73-8.535 10.73h-7.805c-2.594 0-4.789.566-5.605 3.168-.812-2.602-3.004-3.168-5.602-3.168h-7.805c-4.387 0-8.535-2.93-8.535-10.73v-44.047h43.887z" fill="#e2e3e4"/><path d="M305.808 110.789v44.047c0 7.801-4.141 10.73-8.535 10.73h-7.805c-2.594 0-4.789.566-5.605 3.168-.812-2.602-3.004-3.168-5.602-3.168h-7.805c-4.387 0-8.535-2.93-8.535-10.73v-44.047h43.887z" fill="none" stroke="#000" stroke-width=".084"/><path fill="#ffce46" d="M278.561 106.629l1.106-2.223 2.469-.168-1.379-2.082 1.094-2.246-2.469.164-1.399-2.058-1.113 2.226-2.461.16 1.363 2.086-1.078 2.246 2.469-.164 1.398 2.059z"/><path fill="none" stroke="#000" stroke-width=".042" d="M278.561 106.629l1.106-2.223 2.469-.168-1.379-2.082 1.094-2.246-2.469.164-1.399-2.058-1.113 2.226-2.461.16 1.363 2.086-1.078 2.246 2.469-.164 1.398 2.059z"/><path fill="#ffce46" d="M268.183 108.121l.773-2.359 2.422-.52-1.656-1.863.742-2.383-2.414.524-1.676-1.84-.781 2.359-2.422.524 1.664 1.863-.754 2.379 2.422-.516 1.68 1.832z"/><path fill="none" stroke="#000" stroke-width=".042" d="M268.183 108.121l.773-2.359 2.422-.52-1.656-1.863.742-2.383-2.414.524-1.676-1.84-.781 2.359-2.422.524 1.664 1.863-.754 2.379 2.422-.516 1.68 1.832z"/><path fill="#ffce46" d="M258.597 111.109l.242-2.476 2.25-1.031-2.02-1.461.211-2.481-2.254 1.031-2.031-1.429-.25 2.476-2.246 1.032 2.027 1.461-.211 2.48 2.25-1.027 2.032 1.425z"/><path fill="none" stroke="#000" stroke-width=".042" d="M258.597 111.109l.242-2.476 2.25-1.031-2.02-1.461.211-2.481-2.254 1.031-2.031-1.429-.25 2.476-2.246 1.032 2.027 1.461-.211 2.48 2.25-1.027 2.032 1.425z"/><path fill="#ffce46" d="M289.179 106.629l-1.11-2.223-2.468-.168 1.367-2.082-1.082-2.246 2.472.164 1.387-2.058 1.109 2.226 2.477.16-1.371 2.086 1.078 2.246-2.473-.164-1.386 2.059z"/><path fill="none" stroke="#000" stroke-width=".042" d="M289.179 106.629l-1.11-2.223-2.468-.168 1.367-2.082-1.082-2.246 2.472.164 1.387-2.058 1.109 2.226 2.477.16-1.371 2.086 1.078 2.246-2.473-.164-1.386 2.059z"/><path fill="#ffce46" d="M299.55 108.121l-.774-2.359-2.422-.52 1.664-1.863-.753-2.383 2.421.524 1.672-1.84.774 2.359 2.422.524-1.653 1.863.746 2.379-2.421-.516-1.676 1.832z"/><path fill="none" stroke="#000" stroke-width=".042" d="M299.55 108.121l-.774-2.359-2.422-.52 1.664-1.863-.753-2.383 2.421.524 1.672-1.84.774 2.359 2.422.524-1.653 1.863.746 2.379-2.421-.516-1.676 1.832z"/><path fill="#ffce46" d="M309.132 111.109l-.239-2.476-2.25-1.031 2.02-1.461-.211-2.481 2.246 1.031 2.043-1.429.235 2.476 2.253 1.032-2.023 1.461.211 2.48-2.246-1.027-2.039 1.425z"/><path fill="none" stroke="#000" stroke-width=".042" d="M309.132 111.109l-.239-2.476-2.25-1.031 2.02-1.461-.211-2.481 2.246 1.031 2.043-1.429.235 2.476 2.253 1.032-2.023 1.461.211 2.48-2.246-1.027-2.039 1.425z"/><path d="M283.862 179.02c11.137 0 11.867-1.543 11.91-2.441.039-.797-.211-1.465-.293-2.312 10.324.121 16.352-3.578 19.805-7.234 1.984-2.117.812-3.988.316-5.652-.156-.547-.25-1.102-.336-1.684 3.902-2.438 2.492-4.734 1.797-7.016-.684-2.273-1.055-4.793-1.258-7.027-.078 3.66-7.168 7.895-5.723 10.074.59.902 2.09 3.07 2.801 4.719-4.102 5.637-12.152 7.98-19.219 6.297-2.098-.496-2.312.25-2.312.773 0 2.195.625 3.781.562 4.777-2.387.375-5.473.508-8.051.508-2.57 0-5.656-.133-8.043-.508-.059-.996.57-2.582.57-4.777 0-.523-.223-1.27-2.32-.773-7.062 1.684-15.113-.66-19.219-6.297.711-1.648 2.219-3.816 2.809-4.719 1.438-2.18-5.656-6.414-5.738-10.074-.199 2.234-.57 4.754-1.254 7.027-.691 2.281-2.102 4.578 1.805 7.016-.098.582-.176 1.137-.348 1.684-.48 1.664-1.664 3.535.332 5.652 3.441 3.656 9.48 7.355 19.797 7.234-.082.848-.328 1.516-.293 2.312.044.898.774 2.441 11.903 2.441z" fill="#fff"/><path d="M283.862 179.02c11.137 0 11.867-1.543 11.91-2.441.039-.797-.211-1.465-.293-2.312 10.324.121 16.352-3.578 19.805-7.234 1.984-2.117.812-3.988.316-5.652-.156-.547-.25-1.102-.336-1.684 3.902-2.438 2.492-4.734 1.797-7.016-.684-2.273-1.055-4.793-1.258-7.027-.078 3.66-7.168 7.895-5.723 10.074.59.902 2.09 3.07 2.801 4.719-4.102 5.637-12.152 7.98-19.219 6.297-2.098-.496-2.312.25-2.312.773 0 2.195.625 3.781.562 4.777-2.387.375-5.473.508-8.051.508-2.57 0-5.656-.133-8.043-.508-.059-.996.57-2.582.57-4.777 0-.523-.223-1.27-2.32-.773-7.062 1.684-15.113-.66-19.219-6.297.711-1.648 2.219-3.816 2.809-4.719 1.438-2.18-5.656-6.414-5.738-10.074-.199 2.234-.57 4.754-1.254 7.027-.691 2.281-2.102 4.578 1.805 7.016-.098.582-.176 1.137-.348 1.684-.48 1.664-1.664 3.535.332 5.652 3.441 3.656 9.48 7.355 19.797 7.234-.082.848-.328 1.516-.293 2.312.044.898.774 2.441 11.903 2.441zm-8.043-6.727c-2.219-.348-3.816-.906-3.816-1.77 0-2.359 4.387-1.059 4.387-3.008m-18.731-11.788c-.496.777-1.375.215-1.992-.629-.41-.543-1.371-.688-1.996-.098-.895.848-.527 2.559.199 3.898.293.539.621 1.055.98 1.547m-1.624-4.672c-.465 1.484-.578 2.75-.754 3.926m19.531 10.824c.039 1.629.324 2.395.285 3.41-.012.113-.016.227-.027.332m19.652-1.972c2.219-.348 3.816-.906 3.816-1.77 0-2.359-4.379-1.059-4.379-3.008m18.731-11.788c.48.777 1.371.215 1.988-.629.398-.543 1.367-.688 1.992-.098.902.848.523 2.559-.203 3.898a14.896 14.896 0 0 1-.977 1.547m1.63-4.672c.461 1.484.574 2.75.746 3.926m-19.528 10.824c-.031 1.629-.324 2.395-.281 3.41.004.113.012.227.023.332" fill="none" stroke="#000" stroke-width=".084"/><path d="M277.854 128.828c5.438 2.848 5.039 4.793 4.785 10.406-.152 3.652-.871 9.203-1.535 12.27-.816 3.742-1.723 6.113-2.652 8.129-.488 1.059 1.23 2.438 2.109 1.629.977.727 1.961.77 2.277.078 1.711 1.219 2.605.566 3.004-.164.977.488 1.098-.043 1.18-.445 1.629 1.379 2.129 1.109.879-3.215-1.535-5.359-2.816-10.156-2.648-18.043.145-7.117.969-7.477 2.434-8.613 1.461-1.137 4.145-3.008 8.043-3.168l-2.031-1.465c-2.484.367-7.148 2.727-8.57 5 .125-1.344-.289-3.453.125-6.539h-2.203c.242 1.703.332 5.605.332 6.336-.895-1.141-3.254-2.844-4.395-3.25l-1.134 1.054z" fill="#7d4802"/><path d="M277.854 128.828c5.438 2.848 5.039 4.793 4.785 10.406-.152 3.652-.871 9.203-1.535 12.27-.816 3.742-1.723 6.113-2.652 8.129-.488 1.059 1.23 2.438 2.109 1.629.977.727 1.961.77 2.277.078 1.711 1.219 2.605.566 3.004-.164.977.488 1.098-.043 1.18-.445 1.629 1.379 2.129 1.109.879-3.215-1.535-5.359-2.816-10.156-2.648-18.043.145-7.117.969-7.477 2.434-8.613 1.461-1.137 4.145-3.008 8.043-3.168l-2.031-1.465c-2.484.367-7.148 2.727-8.57 5 .125-1.344-.289-3.453.125-6.539h-2.203c.242 1.703.332 5.605.332 6.336-.895-1.141-3.254-2.844-4.395-3.25l-1.134 1.054zm4.985 32.512c.254-1.465.172-4.902.664-6.094.766-1.875.562-5.406.531-6.707m1.809 12.637c-.555-.203-1.328-2.719-1.164-4.793.16-2.074.078-8.742-.25-10.645-.312-1.914.57-9.918.086-13.336m2.507 28.328c.125-.652-.234-3.332-.637-4.43-.406-1.098-.93-3.941-.977-5.367m-4.847 10.329c-.387-.289-.793-.453-.355-2.035.449-1.586 3.25-8.938 3.176-12.926-.09-3.98.48-11.457 0-13.246" fill="none" stroke="#000" stroke-width=".084"/><path d="M285.612 115.172c-.242-1.016-1.875-1.461-2.473-.766-.652-.574-2.035-.086-1.914.891-1.586-.125-2.68 1.18-2.355 2.602-.656-.246-1.512.242-1.34 1.137-1.18-.406-2.363.812-2.199 2.031-1.016-.164-1.832 1.258-1.422 2.113-1.297.125-1.832 2.156-1.297 3.336-.652.359-1.059 1.098-.812 1.781-.613-.445-1.383-.117-1.75.371-1.098-.406-2.273.16-2.355 1.137-.98.16-1.953.527-1.504 1.582-.121.594.652.938 1.262.773.477.855 2.105.855 2.797.445.938.328 1.793-.16 1.914-1.055.367.691 1.461.852 1.988.691 0 .977 1.168 1.543 1.914 1.32.852.324 1.75-.262 1.934-.793.547.062.953-.609.746-1.078.281-.16.445-.766.141-.973.836.102 1.609-.469 1.688-1.078.773-.082.855-.734.773-1.055.934 0 1.867-.406 2.191-.937a1.42 1.42 0 0 0 1.105.613c.879.645 2.504.203 2.965-.531.523 1.262 1.945 2.113 3.777 1.664.078.695 1.383 1.141 1.871.695.324.73 1.906 1.051 2.516.527.773.488 1.789.344 2.277-.285.605.445 2.273 0 2.598-.812.895.141 1.543-.488 1.508-1.32.488.02 1.211-.629.977-1.324.406-.484 0-1.906-.977-2.109-.125-.613-.613-.934-1.02-.855.363-.527.129-1.422-.887-1.344-.047-.707-1.141-1.215-1.871-.688-.043-.344-.367-.551-.652-.484.164-.738-.574-1.828-1.508-1.664-.039-.266-.426-.676-.812-.594.141-.672-.508-1.199-1.012-1.137-.695-.609-2.16-.285-2.359.652-.609-.27-1.523.18-1.566.582-.223-.199-.672-.16-.832 0-.082-.48-.715-.668-.973-.422-.102-.527-.73-.914-1.156-.734.16-.363.121-1.016-.266-1.176.324-.527-.145-1.488-.812-1.359-.126-.409-.47-.534-.818-.37z" fill="#008256"/><path d="M285.612 115.172c-.242-1.016-1.875-1.461-2.473-.766-.652-.574-2.035-.086-1.914.891-1.586-.125-2.68 1.18-2.355 2.602-.656-.246-1.512.242-1.34 1.137-1.18-.406-2.363.812-2.199 2.031-1.016-.164-1.832 1.258-1.422 2.113-1.297.125-1.832 2.156-1.297 3.336-.652.359-1.059 1.098-.812 1.781-.613-.445-1.383-.117-1.75.371-1.098-.406-2.273.16-2.355 1.137-.98.16-1.953.527-1.504 1.582-.121.594.652.938 1.262.773.477.855 2.105.855 2.797.445.938.328 1.793-.16 1.914-1.055.367.691 1.461.852 1.988.691 0 .977 1.168 1.543 1.914 1.32.852.324 1.75-.262 1.934-.793.547.062.953-.609.746-1.078.281-.16.445-.766.141-.973.836.102 1.609-.469 1.688-1.078.773-.082.855-.734.773-1.055.934 0 1.867-.406 2.191-.937a1.42 1.42 0 0 0 1.105.613c.879.645 2.504.203 2.965-.531.523 1.262 1.945 2.113 3.777 1.664.078.695 1.383 1.141 1.871.695.324.73 1.906 1.051 2.516.527.773.488 1.789.344 2.277-.285.605.445 2.273 0 2.598-.812.895.141 1.543-.488 1.508-1.32.488.02 1.211-.629.977-1.324.406-.484 0-1.906-.977-2.109-.125-.613-.613-.934-1.02-.855.363-.527.129-1.422-.887-1.344-.047-.707-1.141-1.215-1.871-.688-.043-.344-.367-.551-.652-.484.164-.738-.574-1.828-1.508-1.664-.039-.266-.426-.676-.812-.594.141-.672-.508-1.199-1.012-1.137-.695-.609-2.16-.285-2.359.652-.609-.27-1.523.18-1.566.582-.223-.199-.672-.16-.832 0-.082-.48-.715-.668-.973-.422-.102-.527-.73-.914-1.156-.734.16-.363.121-1.016-.266-1.176.324-.527-.145-1.488-.812-1.359-.126-.409-.47-.534-.818-.37zm-9.386 8.945c.613.164 1.629-.328 1.793-.812.242.078.934-.082 1.09-.371m-5.926 6.91c.562-.203 1.629.168 1.832.652m2.515-11.461c.523-.281 1.762-.078 2.191.484.484-.199 1.254.145 1.457.695m17.2 1.665c-.41-.242-1.203-.141-1.488.285-.285-.266-1.078-.203-1.395.289m6.66 5.746c-.207.449-1.262.488-1.609.285-.367.266-1.09-.02-1.059-.469-.203-.02-.527-.223-.57-.508m-7.531 1.888c.316-.035 1.098-.242 1.422-.527.223.125.969.086 1.223-.117m4.019 1.581c-.262-.16-.59-.59-.652-.895-.246-.043-.609-.223-.754-.57m-9.137-10.789c-.082.387-.719 1.078-1.512.957-.184.484-.742.934-1.566.695m-10.278 12.512c.43-.082 1.324-.387 1.527-.613.324.023.691-.16.762-.344m2.446-.566c-.246-.023-.508-.203-.625-.328-.242.062-.715-.164-.793-.367m-10.016 2.136c.469-.043.988-.305 1.152-.508m4.008-5.136c.363-.27 1.047-.309 1.418-.203.406-.41 1.289-.758 2.219-.555m13.387-6.524c.121.395.141.777-.035 1.082.324.203.461.852.359 1.277m-2.352 6.138c-.41-.773-.531-1.34-.531-1.949m-5.121-3.329c.125.523 1.305 1.176 1.988 1.211.246.777 2.684.898 3.418.328m4.145 1.219c.488.406 1.664.609 2.32.328.312.324 1.414.605 1.902.484m-18.043 1.422c.812.246 1.797-.32 2.113-.727" fill="none" stroke="#000" stroke-width=".084"/><path d="M279.55 173.684v1.43h.645v-.77h.664c.293 0 .551.168.551.539 0 .367-.223.676-.551.676h-.664v-.445h-.645v2.441h.645v-1.387h.855c.617 0 .977-.68.977-1.297 0-.691-.387-1.188-.977-1.188l-1.5.001zM284.538 176.949l.219.785h.656l-1.109-3.91h-.782l-1.109 3.91h.656l.219-.785h.574v-.644h-.39l.445-1.567.441 1.567h-.496v.644h.676zM287.71 176.906h1.648v.68h-2.429v-.75l1.656-2.41h-1.695v-.688h2.468v.754l-1.648 2.414zM253.046 165.09c.383.312.715.117.93-.145.211-.266 1.668-2.055 1.668-2.055l.543.441s-1.336 1.633-1.66 2.039c-.402.5-1.105.871-1.895.23-.793-.645-.574-1.406-.168-1.902.332-.406 1.66-2.043 1.66-2.043l.539.438s-1.461 1.797-1.668 2.055c-.211.258-.336.625.051.942zM257.511 164.5l-.485 2.887 1.547-2.106.563.418-2.278 3.11-.535-.395.524-3.004-1.617 2.203-.563-.414 2.285-3.109.559.41zM258.819 169.867l1.809-3.414-.617-.332-1.809 3.414.617.332zM261.714 166.938c.316.137.801.352 1.191.523.395.176 1.191.734.52 2.266-.422.961-1.242 1.695-1.98 1.371-.734-.324-1.309-.574-1.309-.574l.82-1.863.582.262-.535 1.234.504.227c.199.082.805.234 1.301-.887.453-1.023-.062-1.34-.254-1.426-.105-.051-.535-.234-.535-.234l-.48 1.086-.582-.262.757-1.723zM265.933 171.594l.011.816.641.16-.082-4.066-.762-.199-2.066 3.504.636.168.415-.704.562.145.152-.621-.375-.106.828-1.398.028 1.633-.481-.129-.152.621.645.176zM268.097 168.816c.344.039.867.094 1.293.137.438.047 1.363.328 1.18 2-.105 1.043-.664 1.996-1.465 1.91l-1.414-.145.207-2.027.641.07-.137 1.344s.332.035.551.051c.215.027.836-.016.969-1.23.113-1.113-.469-1.262-.68-1.285l-.582-.062-.121 1.184-.641-.07.199-1.877zM295.546 172.598c.16.246.449.465.914.445.73-.031 1.027-.598 1.008-1.035a445.77 445.77 0 0 1-.137-2.922l-.648.027s.094 2.238.113 2.598c.016.363-.039.691-.359.703-.277.02-.367-.273-.395-.875l-.352.012c-.043.332-.109.824-.144 1.047zM299.702 172.09c.5-.062.578-.441.547-.77a511.63 511.63 0 0 1-.332-2.629l.691-.086s.262 2.09.324 2.609c.082.641-.137 1.398-1.145 1.527-1.02.129-1.41-.559-1.488-1.195l-.332-2.609.691-.09.336 2.625c.04.333.216.68.708.618zM303.722 169.012c-.203-.637-.734-1.078-1.668-.766-.93.305-.938 1.098-.789 1.531.145.434.422.848 1.602.668.473-.07.781.051.867.324.086.266-.035.566-.441.695-.414.137-.793.035-.922-.359l-.633.215c.18.477.742 1.105 1.652.805.914-.301 1.156-.926.922-1.664-.246-.742-.809-.801-1.516-.695-.695.105-.887-.051-.949-.238-.059-.188-.102-.477.367-.633.469-.152.781-.043.898.32l.61-.203zM306.706 170.984l-1.184-2.98.946-.375-.239-.598-2.48.989.238.597.946-.375 1.191 2.981.582-.239zM309.249 169.77l-1.895-3.375-.609.339 1.891 3.371.613-.335zM311.159 165.641c-.332-.555-1.141-.969-1.926-.504-.789.461-.883 1.465-.258 2.527.621 1.07 1.539 1.461 2.277 1.031.742-.438.953-1.246.531-1.973l-.559.32a.749.749 0 0 1-.277 1.023c-.426.246-.996-.039-1.402-.73-.414-.699-.449-1.297.047-1.586.504-.293.875-.004 1.012.215l.555-.323zM313.565 166.902l-2.261-3.125-.571.407 2.27 3.128.562-.41zM315.097 164.523l.691.434.348-.484-3.321-2.098-.57.523 1.816 3.641.481-.445-.367-.723.429-.394-.433-.477-.293.27-.731-1.454 1.391.852-.367.332.433.477.493-.454z"/></svg>