<svg xmlns="http://www.w3.org/2000/svg" viewBox="0 0 499.839 277.402"><path fill="#ce1126" d="M499.839 277.402V-.375h-500v277.777h500z"/><path fill="#fcd116" d="M460.843 236.863V40.859H38.839v196.004h422.004z"/><path fill="#007a5e" d="M38.839 236.863V40.859l211 98-211 98.004zM460.843 236.863V40.859l-211.004 98 211.004 98.004z"/><path d="M76.698 128.41c5.453 5.352 10.871 16.48 8.324 27.227-10.727-2.637-18.16-12.531-20.438-19.828l12.114-7.399z" fill="#f05c2f"/><path d="M73.144 136.195c9.562 3.133 14.906 11.285 19.227 18.359 10.875-33.848-23.418-30.371-31.547-38.516 3.539 10.953-15.199 39.883 19.883 45.641-4.325-7.074-9.142-15.542-7.563-25.484zM155.667 241.672l-3.387 10.516h-11.133l9.047 6.55-3.484 10.512 8.957-6.527 8.953 6.527-3.43-10.605 9-6.411h-11.097l-3.426-10.562zM249.718 241.672l-3.383 10.516h-11.137l9.039 6.55-3.472 10.512 8.953-6.527 8.957 6.527-3.43-10.605 9-6.411h-11.098l-3.429-10.562zM343.776 241.672l-3.39 10.516h-11.141l9.051 6.55-3.477 10.512 8.957-6.527 8.953 6.527-3.429-10.605 8.996-6.411h-11.09l-3.43-10.562zM155.667 7.777l-3.387 10.524h-11.133l9.047 6.551-3.484 10.511 8.957-6.527 8.953 6.527-3.43-10.605 9-6.414h-11.097l-3.426-10.567zM249.718 7.777l-3.383 10.524h-11.137l9.039 6.551-3.472 10.511 8.953-6.527 8.957 6.527-3.43-10.605 9-6.414h-11.098l-3.429-10.567zM343.776 7.777l-3.39 10.524h-11.141l9.051 6.551-3.477 10.511 8.957-6.527 8.953 6.527-3.429-10.605 8.996-6.414h-11.09l-3.43-10.567z" fill="#fcd116"/><path d="M249.839 170.254c17.34 0 31.395-14.055 31.395-31.395s-14.055-31.398-31.395-31.398-31.395 14.059-31.395 31.398c0 17.34 14.055 31.395 31.395 31.395z" fill="#ce1126"/><path fill="#fcd116" d="M249.839 112.856l-5.785 17.98H225.03l15.45 11.184-5.938 17.96 15.297-11.152 15.293 11.152-5.86-18.117 15.371-10.961h-18.945l-5.859-18.046z"/></svg>