<svg xmlns="http://www.w3.org/2000/svg" viewBox="0 0 499.839 277.402"><path fill="#3697d3" d="M166.503-.375v277.777H-.161V-.375h166.664zM333.167-.375v277.777h166.672V-.375H333.167z"/><path fill="#fff" d="M166.503 277.402V-.375h166.664v277.777H166.503z"/><path d="M243.706 184.582c-7.215-2.992-10.172-10.703-9.48-14.879.289-1.75 1.125-2.848 1.898.074.949 3.57 3.574 2.695 5.691 9.477 1.078 3.461 2.039 4.16 6.562 6.203" fill="#23913c"/><path d="M243.706 184.582c-7.215-2.992-10.172-10.703-9.48-14.879.289-1.75 1.125-2.848 1.898.074.949 3.57 3.574 2.695 5.691 9.477 1.078 3.461 2.039 4.16 6.562 6.203" fill="none" stroke="#000" stroke-width=".084"/><path d="M242.323 185.168c-13.348-2.047-12.98 4.008-19.621 5.98-1.918.566-2.496 1.629.582 1.891 13.566 1.168 15.539-8.75 23.195-5.758" fill="#23913c"/><path d="M242.323 185.168c-13.348-2.047-12.98 4.008-19.621 5.98-1.918.566-2.496 1.629.582 1.891 13.566 1.168 15.539-8.75 23.195-5.758" fill="none" stroke="#000" stroke-width=".084"/><path d="M227.909 180.191c-3.957-1.91-10.918-4.359-15.121-3.047-4.211 1.309-4.938 1.789-1.734 3.387 11.078 5.527 15.434.215 20.215 1.281" fill="#23913c"/><path d="M227.909 180.191c-3.957-1.91-10.918-4.359-15.121-3.047-4.211 1.309-4.938 1.789-1.734 3.387 11.078 5.527 15.434.215 20.215 1.281" fill="none" stroke="#000" stroke-width=".084"/><path d="M222.995 177.285c-7.875-5.688-6.566-9.039-8.68-12.324-2.109-3.281-1.84-4.098 1.098-2.113 9.914 6.711 5.758 11.742 9.48 13.859" fill="#23913c"/><path d="M222.995 177.285c-7.875-5.688-6.566-9.039-8.68-12.324-2.109-3.281-1.84-4.098 1.098-2.113 9.914 6.711 5.758 11.742 9.48 13.859" fill="none" stroke="#000" stroke-width=".084"/><path d="M213.804 168.758c-7.289-9.844-1.09-12.254-1.598-14.734-.516-2.477.149-2.922 1.524.148 3.648 8.094-2.691 10.938 1.824 15.531" fill="#23913c"/><path d="M213.804 168.758c-7.289-9.844-1.09-12.254-1.598-14.734-.516-2.477.149-2.922 1.524.148 3.648 8.094-2.691 10.938 1.824 15.531" fill="none" stroke="#000" stroke-width=".084"/><path d="M203.667 154.094c-1.75-4.008-5.906-5.398-7.731-5.176-1.82.219-4.16.512-5.469.074-1.312-.438-1.312 1.527 2.336 3.062 3.648 1.527 11.812 4.738 13.637 7.879" fill="#23913c"/><path d="M203.667 154.094c-1.75-4.008-5.906-5.398-7.731-5.176-1.82.219-4.16.512-5.469.074-1.312-.438-1.312 1.527 2.336 3.062 3.648 1.527 11.812 4.738 13.637 7.879" fill="none" stroke="#000" stroke-width=".084"/><path d="M200.026 134.773c.215-4.453.875-7.152 3.641-9.629 2.773-2.48 4.164-2.793 3.066-.656-2.336 4.52-.949 7.582-5.91 14.074" fill="#23913c"/><path d="M200.026 134.773c.215-4.453.875-7.152 3.641-9.629 2.773-2.48 4.164-2.793 3.066-.656-2.336 4.52-.949 7.582-5.91 14.074" fill="none" stroke="#000" stroke-width=".084"/><path d="M200.749 126.016c-.582-6.781-4.082-6.637-5.172-9.699-1.102-3.059-1.793-.492-1.391 2.41.656 4.738 5.688 7.871 5.688 12.398" fill="#23913c"/><path d="M200.749 126.016c-.582-6.781-4.082-6.637-5.172-9.699-1.102-3.059-1.793-.492-1.391 2.41.656 4.738 5.688 7.871 5.688 12.398" fill="none" stroke="#000" stroke-width=".084"/><path d="M200.534 129.301c.215-4.301-.293-7.879-1.75-10.434-1.457-2.551-1.098.66-2.406 3.504-1.488 3.215-.949 10.137 3.648 15.535" fill="#23913c"/><path d="M200.534 129.301c.215-4.301-.293-7.879-1.75-10.434-1.457-2.551-1.098.66-2.406 3.504-1.488 3.215-.949 10.137 3.648 15.535" fill="none" stroke="#000" stroke-width=".084"/><path d="M202.647 116.977c.367-8.973-3.281-8.898-4.371-12.766-1.102-3.863-1.316-2.961-1.824.145-2.336 14.148 5.398 12.543 4.664 18.016" fill="#23913c"/><path d="M202.647 116.977c.367-8.973-3.281-8.898-4.371-12.766-1.102-3.863-1.316-2.961-1.824.145-2.336 14.148 5.398 12.543 4.664 18.016" fill="none" stroke="#000" stroke-width=".084"/><path d="M206.44 105.672c.949-5.762-1.215-7.297 1.023-10.867 1.094-1.75 2.766-4.086 2.332-1.168-.44 2.914-.073 7.515-3.355 12.035z" fill="#23913c"/><path d="M206.44 105.672c.949-5.762-1.215-7.297 1.023-10.867 1.094-1.75 2.766-4.086 2.332-1.168-.44 2.914-.073 7.515-3.355 12.035z" fill="none" stroke="#000" stroke-width=".084"/><path d="M202.866 114.859c.949-7.078-4.074-12.945-.434-18.961 1.891-3.137 2.902-3.422 2.691-.879-.359 4.523 4.09 9.41-1.676 18.383" fill="#23913c"/><path d="M202.866 114.859c.949-7.078-4.074-12.945-.434-18.961 1.891-3.137 2.902-3.422 2.691-.879-.359 4.523 4.09 9.41-1.676 18.383" fill="none" stroke="#000" stroke-width=".084"/><path d="M238.456 182.176c9.774 2.625 15.027 4.664 17.652 7.875-.148 1.312 0 2.77-.289 3.5-7.441-7.875-15.906-6.27-26.695-12.395-36.289-20.598-33.258-52.223-22.902-75.414 1.359-3.043 2.844-5.977 3.133-9.262.32-3.574 3.211-5.613 6.859-6.781 3.117-1 2.148.473 1.023 1.676-2.266 2.406-.559 5.547-6.781 9.699-1.535 1.027-2.117 2.449-3.066 4.668-18.235 42.738 4.644 69.332 31.066 76.434z" fill="#23913c"/><path d="M238.456 182.176c9.774 2.625 15.027 4.664 17.652 7.875-.148 1.312 0 2.77-.289 3.5-7.441-7.875-15.906-6.27-26.695-12.395-36.289-20.598-33.258-52.223-22.902-75.414 1.359-3.043 2.844-5.977 3.133-9.262.32-3.574 3.211-5.613 6.859-6.781 3.117-1 2.148.473 1.023 1.676-2.266 2.406-.559 5.547-6.781 9.699-1.535 1.027-2.117 2.449-3.066 4.668-18.235 42.738 4.644 69.332 31.066 76.434z" fill="none" stroke="#000" stroke-width=".084"/><path d="M203.593 115.516c.949-2.773 3.504-8.824 7.297-9.844 3.789-1.023 7.289-2.773 9.039-7.879.609-1.766 1.898-5.688-.582-2.629-2.477 3.07-7.215.516-12.105 10.289-.875 1.746-3.059 5.543-4.742 11.156" fill="#23913c"/><path d="M203.593 115.516c.949-2.773 3.504-8.824 7.297-9.844 3.789-1.023 7.289-2.773 9.039-7.879.609-1.766 1.898-5.688-.582-2.629-2.477 3.07-7.215.516-12.105 10.289-.875 1.746-3.059 5.543-4.742 11.156" fill="none" stroke="#000" stroke-width=".084"/><path d="M201.991 117.191c2.48-8.895 7.516-7.508 9.922-10.719 2.402-3.211 3.363-3.262 1.891.871-3.574 10.066-10.719 9.555-11.887 14.227" fill="#23913c"/><path d="M201.991 117.191c2.48-8.895 7.516-7.508 9.922-10.719 2.402-3.211 3.363-3.262 1.891.871-3.574 10.066-10.719 9.555-11.887 14.227" fill="none" stroke="#000" stroke-width=".084"/><path d="M201.483 122.586c2.625-9.113 8.898-7.871 11.523-11.738 2.621-3.863 3.641-4.301 3.133.293-1.363 12.273-14.074 7.801-14.879 14.586" fill="#23913c"/><path d="M201.483 122.586c2.625-9.113 8.898-7.871 11.523-11.738 2.621-3.863 3.641-4.301 3.133.293-1.363 12.273-14.074 7.801-14.879 14.586" fill="none" stroke="#000" stroke-width=".084"/><path d="M199.659 129.008c1.016-9.773 8.965-8.676 11.445-11.23.973-1 1.492 1.445-.289 4.012-4.301 6.195-9.266 2.039-9.84 8.68" fill="#23913c"/><path d="M199.659 129.008c1.016-9.773 8.965-8.676 11.445-11.23.973-1 1.492 1.445-.289 4.012-4.301 6.195-9.266 2.039-9.84 8.68" fill="none" stroke="#000" stroke-width=".084"/><path d="M201.261 141.336c-1.02-9.852-7.293-12.84-8.75-16.484-1.457-3.648-1.207.797-.875 2.992 1.965 13.051 7.074 8.602 8.457 15.895" fill="#23913c"/><path d="M201.261 141.336c-1.02-9.852-7.293-12.84-8.75-16.484-1.457-3.648-1.207.797-.875 2.992 1.965 13.051 7.074 8.602 8.457 15.895" fill="none" stroke="#000" stroke-width=".084"/><path d="M200.167 144.617c-1.309-6.855 1.094-12.035 5.031-14.805 3.941-2.773 2.945-1.188 2.625 1.238-1.531 11.742-7.289 7.074-5.684 15.461" fill="#23913c"/><path d="M200.167 144.617c-1.309-6.855 1.094-12.035 5.031-14.805 3.941-2.773 2.945-1.188 2.625 1.238-1.531 11.742-7.289 7.074-5.684 15.461" fill="none" stroke="#000" stroke-width=".084"/><path d="M201.917 146.875c-1.969-6.781-6.926-9.555-10.574-9.77-3.648-.219-.98 1.188-.438 2.477 3.211 7.586 8.828 4.449 10.871 10.359" fill="#23913c"/><path d="M201.917 146.875c-1.969-6.781-6.926-9.555-10.574-9.77-3.648-.219-.98 1.188-.438 2.477 3.211 7.586 8.828 4.449 10.871 10.359" fill="none" stroke="#000" stroke-width=".084"/><path d="M209.14 162.266c-3.355-4.887-2.699-8.457-6.125-11.453-3.43-2.988-6.055-3.281-7.805-5.102-1.75-1.824-1.941.348-.293 3.645 3.719 7.438 9.117 6.781 12.18 12.109" fill="#23913c"/><path d="M209.14 162.266c-3.355-4.887-2.699-8.457-6.125-11.453-3.43-2.988-6.055-3.281-7.805-5.102-1.75-1.824-1.941.348-.293 3.645 3.719 7.438 9.117 6.781 12.18 12.109" fill="none" stroke="#000" stroke-width=".084"/><path d="M207.171 159.273c-1.531-3.137-.438-12.25.652-16.992 1.098-4.738.312-5.48-1.891-2.918-2.699 3.137-6.492 7.586.727 19.91" fill="#23913c"/><path d="M207.171 159.273c-1.531-3.137-.438-12.25.652-16.992 1.098-4.738.312-5.48-1.891-2.918-2.699 3.137-6.492 7.586.727 19.91" fill="none" stroke="#000" stroke-width=".084"/><path d="M208.921 162.629c-7.07-8.535-12.035-5.18-15.535-7.223-3.5-2.035-1.609 1.168-.656 2.117 9.996 9.988 11.453 2.191 17.066 7.805" fill="#23913c"/><path d="M208.921 162.629c-7.07-8.535-12.035-5.18-15.535-7.223-3.5-2.035-1.609 1.168-.656 2.117 9.996 9.988 11.453 2.191 17.066 7.805" fill="none" stroke="#000" stroke-width=".084"/><path d="M208.265 161.609c-3.5-5.473-3.5-10.652-1.094-15.535 2.207-4.477 2.852-3.203 2.625.223-.223 3.277 2.523 4.578.727 10.863-.582 2.043-1.016 6.27 1.609 9.043" fill="#23913c"/><path d="M208.265 161.609c-3.5-5.473-3.5-10.652-1.094-15.535 2.207-4.477 2.852-3.203 2.625.223-.223 3.277 2.523 4.578.727 10.863-.582 2.043-1.016 6.27 1.609 9.043" fill="none" stroke="#000" stroke-width=".084"/><path d="M216.577 171.453c-2.848-3.355-5.398-6.562-9.77-7.074-4.375-.508-5.93-1.16-3.648 1.609 7.879 9.551 11.887 5.395 15.828 8.309" fill="#23913c"/><path d="M216.577 171.453c-2.848-3.355-5.398-6.562-9.77-7.074-4.375-.508-5.93-1.16-3.648 1.609 7.879 9.551 11.887 5.395 15.828 8.309" fill="none" stroke="#000" stroke-width=".084"/><path d="M221.944 174.84c-3.492-2.164-10.559-3.812-15.543-2.773-2.828.59-1.875 1.094.047 1.676 3.75 1.141 4.867 4.906 13.031 4.305 1.601-.117 3.266-.602 6.152.996" fill="#23913c"/><path d="M221.944 174.84c-3.492-2.164-10.559-3.812-15.543-2.773-2.828.59-1.875 1.094.047 1.676 3.75 1.141 4.867 4.906 13.031 4.305 1.601-.117 3.266-.602 6.152.996" fill="none" stroke="#000" stroke-width=".084"/><path d="M225.327 177.727c-4.008-2.555-6.559-8.461-7.148-14.441-.312-3.246.551-4.82 1.973-1.312 1.75 4.301 4.883 4.23 6.859 10.723 1.77 5.859 2.914 6.488 5.973 7.73" fill="#23913c"/><path d="M225.327 177.727c-4.008-2.555-6.559-8.461-7.148-14.441-.312-3.246.551-4.82 1.973-1.312 1.75 4.301 4.883 4.23 6.859 10.723 1.77 5.859 2.914 6.488 5.973 7.73" fill="none" stroke="#000" stroke-width=".084"/><path d="M235.03 181.953c-5.391-2.926-8.098-7.516-8.746-12.926-.598-4.957.645-4.242 2.32-1.25 1.613 2.867 4.617 2.457 6.543 8.707.629 2.027 2.066 5.254 6.227 6.492" fill="#23913c"/><path d="M235.03 181.953c-5.391-2.926-8.098-7.516-8.746-12.926-.598-4.957.645-4.242 2.32-1.25 1.613 2.867 4.617 2.457 6.543 8.707.629 2.027 2.066 5.254 6.227 6.492" fill="none" stroke="#000" stroke-width=".084"/><path d="M240.355 183.707c-8.461-2.629-16.234-2.328-20.859 1.094-2.328 1.719-1.688 2.352.293 2.039 5.668-.887 7.945 2.336 14.805-.727 1.465-.656 4.012-1.387 9.629.727" fill="#23913c"/><path d="M240.355 183.707c-8.461-2.629-16.234-2.328-20.859 1.094-2.328 1.719-1.688 2.352.293 2.039 5.668-.887 7.945 2.336 14.805-.727 1.465-.656 4.012-1.387 9.629.727" fill="none" stroke="#000" stroke-width=".084"/><path d="M255.96 184.582c7.223-2.992 10.18-10.703 9.48-14.879-.293-1.75-1.117-2.848-1.891.074-.949 3.57-3.574 2.695-5.691 9.477-1.078 3.461-2.039 4.16-6.562 6.203" fill="#23913c"/><path d="M255.96 184.582c7.223-2.992 10.18-10.703 9.48-14.879-.293-1.75-1.117-2.848-1.891.074-.949 3.57-3.574 2.695-5.691 9.477-1.078 3.461-2.039 4.16-6.562 6.203" fill="none" stroke="#000" stroke-width=".084"/><path d="M257.343 185.168c13.355-2.047 12.988 4.008 19.621 5.98 1.918.566 2.5 1.629-.586 1.891-13.562 1.168-15.527-8.75-23.191-5.758" fill="#23913c"/><path d="M257.343 185.168c13.355-2.047 12.988 4.008 19.621 5.98 1.918.566 2.5 1.629-.586 1.891-13.562 1.168-15.527-8.75-23.191-5.758" fill="none" stroke="#000" stroke-width=".084"/><path d="M271.753 180.191c3.969-1.91 10.926-4.359 15.133-3.047 4.203 1.309 4.938 1.789 1.727 3.387-11.078 5.527-15.426.215-20.215 1.281" fill="#23913c"/><path d="M271.753 180.191c3.969-1.91 10.926-4.359 15.133-3.047 4.203 1.309 4.938 1.789 1.727 3.387-11.078 5.527-15.426.215-20.215 1.281" fill="none" stroke="#000" stroke-width=".084"/><path d="M276.671 177.285c7.879-5.688 6.566-9.039 8.68-12.324 2.117-3.281 1.84-4.098-1.09-2.113-9.922 6.711-5.766 11.742-9.48 13.859" fill="#23913c"/><path d="M276.671 177.285c7.879-5.688 6.566-9.039 8.68-12.324 2.117-3.281 1.84-4.098-1.09-2.113-9.922 6.711-5.766 11.742-9.48 13.859" fill="none" stroke="#000" stroke-width=".084"/><path d="M285.862 168.758c7.297-9.844 1.098-12.254 1.605-14.734.508-2.477-.148-2.922-1.531.148-3.648 8.094 2.699 10.938-1.824 15.531" fill="#23913c"/><path d="M285.862 168.758c7.297-9.844 1.098-12.254 1.605-14.734.508-2.477-.148-2.922-1.531.148-3.648 8.094 2.699 10.938-1.824 15.531" fill="none" stroke="#000" stroke-width=".084"/><path d="M295.999 154.094c1.75-4.008 5.906-5.398 7.73-5.176 1.824.219 4.156.512 5.473.074 1.309-.438 1.309 1.527-2.332 3.062-3.648 1.527-11.82 4.738-13.637 7.879" fill="#23913c"/><path d="M295.999 154.094c1.75-4.008 5.906-5.398 7.73-5.176 1.824.219 4.156.512 5.473.074 1.309-.438 1.309 1.527-2.332 3.062-3.648 1.527-11.82 4.738-13.637 7.879" fill="none" stroke="#000" stroke-width=".084"/><path d="M299.647 134.773c-.215-4.453-.875-7.152-3.648-9.629-2.766-2.48-4.164-2.793-3.059-.656 2.332 4.52.941 7.582 5.898 14.074" fill="#23913c"/><path d="M299.647 134.773c-.215-4.453-.875-7.152-3.648-9.629-2.766-2.48-4.164-2.793-3.059-.656 2.332 4.52.941 7.582 5.898 14.074" fill="none" stroke="#000" stroke-width=".084"/><path d="M298.917 126.016c.582-6.781 4.086-6.637 5.18-9.699 1.09-3.059 1.785-.492 1.383 2.41-.656 4.738-5.688 7.871-5.688 12.398" fill="#23913c"/><path d="M298.917 126.016c.582-6.781 4.086-6.637 5.18-9.699 1.09-3.059 1.785-.492 1.383 2.41-.656 4.738-5.688 7.871-5.688 12.398" fill="none" stroke="#000" stroke-width=".084"/><path d="M299.14 129.301c-.223-4.301.293-7.879 1.75-10.434 1.457-2.551 1.09.66 2.406 3.504 1.48 3.215.941 10.137-3.648 15.535" fill="#23913c"/><path d="M299.14 129.301c-.223-4.301.293-7.879 1.75-10.434 1.457-2.551 1.09.66 2.406 3.504 1.48 3.215.941 10.137-3.648 15.535" fill="none" stroke="#000" stroke-width=".084"/><path d="M297.022 116.977c-.367-8.973 3.281-8.898 4.375-12.766 1.09-3.863 1.309-2.961 1.824.145 2.332 14.148-5.398 12.543-4.672 18.016" fill="#23913c"/><path d="M297.022 116.977c-.367-8.973 3.281-8.898 4.375-12.766 1.09-3.863 1.309-2.961 1.824.145 2.332 14.148-5.398 12.543-4.672 18.016" fill="none" stroke="#000" stroke-width=".084"/><path d="M293.233 105.672c-.949-5.762 1.207-7.297-1.023-10.867-1.094-1.75-2.777-4.086-2.336-1.168.434 2.914.07 7.515 3.359 12.035z" fill="#23913c"/><path d="M293.233 105.672c-.949-5.762 1.207-7.297-1.023-10.867-1.094-1.75-2.777-4.086-2.336-1.168.434 2.914.07 7.515 3.359 12.035z" fill="none" stroke="#000" stroke-width=".084"/><path d="M296.808 114.859c-.957-7.078 4.066-12.945.434-18.961-1.898-3.137-2.902-3.422-2.699-.879.367 4.523-4.082 9.41 1.676 18.383" fill="#23913c"/><path d="M296.808 114.859c-.957-7.078 4.066-12.945.434-18.961-1.898-3.137-2.902-3.422-2.699-.879.367 4.523-4.082 9.41 1.676 18.383" fill="none" stroke="#000" stroke-width=".084"/><path d="M261.21 182.176c-9.773 2.625-15.023 4.664-17.648 7.875.145 1.312 0 2.77.293 3.5 7.441-7.875 15.898-6.27 26.691-12.395 36.289-20.598 33.258-52.223 22.902-75.414-1.363-3.043-2.848-5.977-3.141-9.262-.309-3.574-3.207-5.613-6.855-6.781-3.117-1-2.148.473-1.016 1.676 2.258 2.406.555 5.547 6.781 9.699 1.531 1.027 2.117 2.449 3.066 4.668 18.228 42.738-4.651 69.332-31.073 76.434z" fill="#23913c"/><path d="M261.21 182.176c-9.773 2.625-15.023 4.664-17.648 7.875.145 1.312 0 2.77.293 3.5 7.441-7.875 15.898-6.27 26.691-12.395 36.289-20.598 33.258-52.223 22.902-75.414-1.363-3.043-2.848-5.977-3.141-9.262-.309-3.574-3.207-5.613-6.855-6.781-3.117-1-2.148.473-1.016 1.676 2.258 2.406.555 5.547 6.781 9.699 1.531 1.027 2.117 2.449 3.066 4.668 18.228 42.738-4.651 69.332-31.073 76.434z" fill="none" stroke="#000" stroke-width=".084"/><path d="M296.073 115.516c-.949-2.773-3.5-8.824-7.297-9.844-3.789-1.023-7.289-2.773-9.039-7.879-.609-1.766-1.898-5.688.582-2.629 2.477 3.07 7.223.516 12.105 10.289.875 1.746 3.066 5.543 4.742 11.156" fill="#23913c"/><path d="M296.073 115.516c-.949-2.773-3.5-8.824-7.297-9.844-3.789-1.023-7.289-2.773-9.039-7.879-.609-1.766-1.898-5.688.582-2.629 2.477 3.07 7.223.516 12.105 10.289.875 1.746 3.066 5.543 4.742 11.156" fill="none" stroke="#000" stroke-width=".084"/><path d="M297.675 117.191c-2.477-8.895-7.508-7.508-9.914-10.719-2.41-3.211-3.363-3.262-1.898.871 3.57 10.066 10.719 9.555 11.887 14.227" fill="#23913c"/><path d="M297.675 117.191c-2.477-8.895-7.508-7.508-9.914-10.719-2.41-3.211-3.363-3.262-1.898.871 3.57 10.066 10.719 9.555 11.887 14.227" fill="none" stroke="#000" stroke-width=".084"/><path d="M298.19 122.586c-2.625-9.113-8.898-7.871-11.531-11.738-2.621-3.863-3.641-4.301-3.133.293 1.363 12.273 14.074 7.801 14.879 14.586" fill="#23913c"/><path d="M298.19 122.586c-2.625-9.113-8.898-7.871-11.531-11.738-2.621-3.863-3.641-4.301-3.133.293 1.363 12.273 14.074 7.801 14.879 14.586" fill="none" stroke="#000" stroke-width=".084"/><path d="M300.007 129.008c-1.016-9.773-8.965-8.676-11.445-11.23-.973-1-1.488 1.445.289 4.012 4.309 6.195 9.266 2.039 9.848 8.68" fill="#23913c"/><path d="M300.007 129.008c-1.016-9.773-8.965-8.676-11.445-11.23-.973-1-1.488 1.445.289 4.012 4.309 6.195 9.266 2.039 9.848 8.68" fill="none" stroke="#000" stroke-width=".084"/><path d="M298.405 141.336c1.027-9.852 7.293-12.84 8.75-16.484 1.457-3.648 1.207.797.883 2.992-1.977 13.051-7.082 8.602-8.465 15.895" fill="#23913c"/><path d="M298.405 141.336c1.027-9.852 7.293-12.84 8.75-16.484 1.457-3.648 1.207.797.883 2.992-1.977 13.051-7.082 8.602-8.465 15.895" fill="none" stroke="#000" stroke-width=".084"/><path d="M299.499 144.617c1.316-6.855-1.094-12.035-5.031-14.805-3.934-2.773-2.938-1.188-2.625 1.238 1.531 11.742 7.297 7.074 5.688 15.461" fill="#23913c"/><path d="M299.499 144.617c1.316-6.855-1.094-12.035-5.031-14.805-3.934-2.773-2.938-1.188-2.625 1.238 1.531 11.742 7.297 7.074 5.688 15.461" fill="none" stroke="#000" stroke-width=".084"/><path d="M297.749 146.875c1.973-6.781 6.93-9.555 10.578-9.77 3.645-.219.977 1.188.434 2.477-3.207 7.586-8.82 4.449-10.871 10.359" fill="#23913c"/><path d="M297.749 146.875c1.973-6.781 6.93-9.555 10.578-9.77 3.645-.219.977 1.188.434 2.477-3.207 7.586-8.82 4.449-10.871 10.359" fill="none" stroke="#000" stroke-width=".084"/><path d="M290.534 162.266c3.348-4.887 2.699-8.457 6.121-11.453 3.426-2.988 6.059-3.281 7.809-5.102 1.75-1.824 1.938.348.289 3.645-3.723 7.438-9.121 6.781-12.18 12.109" fill="#23913c"/><path d="M290.534 162.266c3.348-4.887 2.699-8.457 6.121-11.453 3.426-2.988 6.059-3.281 7.809-5.102 1.75-1.824 1.938.348.289 3.645-3.723 7.438-9.121 6.781-12.18 12.109" fill="none" stroke="#000" stroke-width=".084"/><path d="M292.499 159.273c1.535-3.137.441-12.25-.656-16.992-1.094-4.738-.305-5.48 1.898-2.918 2.691 3.137 6.488 7.586-.734 19.91" fill="#23913c"/><path d="M292.499 159.273c1.535-3.137.441-12.25-.656-16.992-1.094-4.738-.305-5.48 1.898-2.918 2.691 3.137 6.488 7.586-.734 19.91" fill="none" stroke="#000" stroke-width=".084"/><path d="M290.749 162.629c7.074-8.535 12.031-5.18 15.531-7.223 3.508-2.035 1.605 1.168.656 2.117-9.988 9.988-11.445 2.191-17.062 7.805" fill="#23913c"/><path d="M290.749 162.629c7.074-8.535 12.031-5.18 15.531-7.223 3.508-2.035 1.605 1.168.656 2.117-9.988 9.988-11.445 2.191-17.062 7.805" fill="none" stroke="#000" stroke-width=".084"/><path d="M291.401 161.609c3.508-5.473 3.508-10.652 1.098-15.535-2.203-4.477-2.855-3.203-2.625.223.219 3.277-2.527 4.578-.73 10.863.582 2.043 1.023 6.27-1.602 9.043" fill="#23913c"/><path d="M291.401 161.609c3.508-5.473 3.508-10.652 1.098-15.535-2.203-4.477-2.855-3.203-2.625.223.219 3.277-2.527 4.578-.73 10.863.582 2.043 1.023 6.27-1.602 9.043" fill="none" stroke="#000" stroke-width=".084"/><path d="M283.085 171.453c2.852-3.355 5.398-6.562 9.781-7.074 4.375-.508 5.922-1.16 3.641 1.609-7.871 9.551-11.887 5.395-15.82 8.309" fill="#23913c"/><path d="M283.085 171.453c2.852-3.355 5.398-6.562 9.781-7.074 4.375-.508 5.922-1.16 3.641 1.609-7.871 9.551-11.887 5.395-15.82 8.309" fill="none" stroke="#000" stroke-width=".084"/><path d="M277.722 174.84c3.492-2.164 10.559-3.812 15.551-2.773 2.828.59 1.871 1.094-.047 1.676-3.758 1.141-4.875 4.906-13.035 4.305-1.602-.117-3.27-.602-6.156.996" fill="#23913c"/><path d="M277.722 174.84c3.492-2.164 10.559-3.812 15.551-2.773 2.828.59 1.871 1.094-.047 1.676-3.758 1.141-4.875 4.906-13.035 4.305-1.602-.117-3.27-.602-6.156.996" fill="none" stroke="#000" stroke-width=".084"/><path d="M274.339 177.727c4.016-2.555 6.562-8.461 7.148-14.441.316-3.246-.543-4.82-1.969-1.312-1.754 4.301-4.887 4.23-6.855 10.723-1.777 5.859-2.914 6.488-5.98 7.73" fill="#23913c"/><path d="M274.339 177.727c4.016-2.555 6.562-8.461 7.148-14.441.316-3.246-.543-4.82-1.969-1.312-1.754 4.301-4.887 4.23-6.855 10.723-1.777 5.859-2.914 6.488-5.98 7.73" fill="none" stroke="#000" stroke-width=".084"/><path d="M264.64 181.953c5.391-2.926 8.09-7.516 8.742-12.926.598-4.957-.645-4.242-2.32-1.25-1.605 2.867-4.617 2.457-6.543 8.707-.625 2.027-2.07 5.254-6.227 6.492" fill="#23913c"/><path d="M264.64 181.953c5.391-2.926 8.09-7.516 8.742-12.926.598-4.957-.645-4.242-2.32-1.25-1.605 2.867-4.617 2.457-6.543 8.707-.625 2.027-2.07 5.254-6.227 6.492" fill="none" stroke="#000" stroke-width=".084"/><path d="M259.315 183.707c8.457-2.629 16.238-2.328 20.855 1.094 2.324 1.719 1.695 2.352-.293 2.039-5.668-.887-7.945 2.336-14.805-.727-1.465-.656-4.008-1.387-9.621.727" fill="#23913c"/><path d="M259.315 183.707c8.457-2.629 16.238-2.328 20.855 1.094 2.324 1.719 1.695 2.352-.293 2.039-5.668-.887-7.945 2.336-14.805-.727-1.465-.656-4.008-1.387-9.621.727" fill="none" stroke="#000" stroke-width=".084"/><path d="M216.14 90.938c-4.008 2.992-4.086 7.438-6.125 9.113m-.149 4.379c3.355-3.645 7.297-3.793 8.828-7.145m-9.773-2.773c-1.531 1.68-.582 5.254-1.391 6.711m-3.347-5.692c-1.535 4.156 1.309 8.387.359 12.25m-7-3.207c.144 5.328 2.117 4.16 3.066 11.305m12.106-8.68c-1.824 4.012-6.566 4.668-8.098 8.395m.731 3.785c2.992-3.062 7.801-3.645 9.625-8.672m-4.375 8.82c-2.191 2.844-5.688 2.113-7.438 5.25m-5.035-3.718c.367 2.555 0 6.711.367 8.676m-3.5-12.544c.293 1.387.945 2.699 1.387 3.645m-3.867 5.617c1.242 5.98 4.957 6.352 5.832 10.215m8.316-5.617c-1.094 3.723-4.301 5.906-5.25 9.188m-9.922-1.825c3.215 1.168 4.449 3.867 7.59 5.91m-3.574 3.059c2.258 3.215 4.371 3.285 5.758 5.621m5.547-12.766c-.367 2.848-2.773 4.961-2.559 7.949m4.523-2.914c-1.309 4.301.367 7.289-.508 10.793m-14.878.438c2.914 2.258 7.875 2.039 9.699 3.938m9.996-5.688c.215 2.914-1.391 5.031-.949 7.434m-7.883 3.066c3.359 1.312 6.93 4.594 8.898 5.324m1.75-6.926c1.316 1.602 1.75 4.445 3.797 7m.653-8.242c.656 4.523 3.723 6.418 5.328 11.449m-16.778-.949c4.016.223 7.59 2.484 11.156 2.848m-7.214 3.426c3.352-.07 7.656 1.676 10.863 1.312m4.449-12.984c1.023 4.895 4.156 6.203 5.473 10.07m2.551-7.441c.367 4.379 3.5 6.711 4.598 9.34m-19.329 6.269c5.758-1.75 10.281-.875 14.004-1.824m-10.137 7.949c7.504-1.023 8.82-5.035 12.902-5.25m46.313-95.687c4.016 2.992 4.082 7.438 6.133 9.113m.141 4.379c-3.355-3.645-7.289-3.793-8.82-7.145m9.769-2.773c1.535 1.68.586 5.254 1.383 6.711m3.359-5.692c1.531 4.156-1.316 8.387-.367 12.25m7-3.207c-.145 5.328-2.117 4.16-3.059 11.305m-12.105-8.68c1.816 4.012 6.559 4.668 8.09 8.395m-.727 3.785c-2.988-3.062-7.805-3.645-9.629-8.672m4.375 8.82c2.188 2.844 5.688 2.113 7.438 5.25m5.031-3.718c-.359 2.555 0 6.711-.359 8.676m3.5-12.544c-.289 1.387-.949 2.699-1.383 3.645m3.859 5.617c-1.234 5.98-4.957 6.352-5.832 10.215m-8.316-5.617c1.102 3.723 4.301 5.906 5.258 9.188m9.914-1.825c-3.207 1.168-4.449 3.867-7.582 5.91m3.574 3.059c-2.266 3.215-4.379 3.285-5.766 5.621m-5.539-12.766c.367 2.848 2.766 4.961 2.551 7.949m-4.524-2.914c1.316 4.301-.359 7.289.508 10.793m14.879.438c-2.918 2.258-7.875 2.039-9.699 3.938m-9.988-5.688c-.223 2.914 1.383 5.031.949 7.434m7.875 3.066c-3.359 1.312-6.934 4.594-8.898 5.324m-1.751-6.926c-1.316 1.602-1.75 4.445-3.789 7m-.66-8.242c-.656 4.523-3.723 6.418-5.324 11.449m16.773-.949c-4.008.223-7.582 2.484-11.156 2.848m7.223 3.426c-3.359-.07-7.664 1.676-10.871 1.312m-4.449-12.984c-1.02 4.895-4.156 6.203-5.465 10.07m-2.559-7.441c-.367 4.379-3.5 6.711-4.59 9.34m19.328 6.269c-5.766-1.75-10.289-.875-14.004-1.824m10.137 7.949c-7.516-1.023-8.828-5.035-12.914-5.25" fill="none" stroke="#000" stroke-width=".084" stroke-linecap="round"/><path d="M299.573 120.035c1.777 0 1.797 2.629 0 2.629s-1.777-2.629 0-2.629zM292.573 106.758c1.77 0 1.797 2.629 0 2.629-1.805 0-1.777-2.629 0-2.629zM300.155 130.539c1.777 0 1.797 2.625 0 2.625s-1.777-2.625 0-2.625zM290.241 161.895c1.77 0 1.797 2.633 0 2.633-1.805-.001-1.777-2.633 0-2.633zM263.69 179.543c1.777 0 1.797 2.633 0 2.633s-1.777-2.633 0-2.633zM200.093 120.035c-1.77 0-1.797 2.629 0 2.629 1.804 0 1.777-2.629 0-2.629zM207.097 106.758c-1.777 0-1.801 2.629 0 2.629 1.796 0 1.777-2.629 0-2.629zM199.511 130.539c-1.77 0-1.797 2.625 0 2.625 1.8 0 1.777-2.625 0-2.625zM209.433 161.895c-1.777 0-1.805 2.633 0 2.633 1.797-.001 1.773-2.633 0-2.633zM235.976 179.543c-1.77 0-1.797 2.633 0 2.633 1.804 0 1.777-2.633 0-2.633z" fill="#ec1c2e"/><path d="M273.245 163.031c-.797.438-2.223.727-3.137-.844-.652-1.129-.438-2.547.949-3.129l1.496 2.551c-.398.617-1.164.727-1.68.801" fill="none" stroke="#000" stroke-width=".084" stroke-linecap="round" stroke-linejoin="round"/><path d="M276.964 161.391s-1.098-1.105-1.418-1.422c-.551-.551-.57-2.336.398-2.883-1.055-.109-2.008-.988-1.754-2.332l-18.305-18.309c-.324-.328-.527-.238-.691-.074-2.848-2.844-27.648-27.645-30.52-30.516l-1.41 1.402 28.062 28.062c-.906.906-1.059 2.949 1.859 5.867 2.922 2.918 15.461 15.461 15.461 15.461l.477-.477c.84 1.352 4.848 8.246 4.848 8.246l2.993-3.025z" fill="#c3b8af"/><path d="M276.964 161.391s-1.098-1.105-1.418-1.422c-.551-.551-.57-2.336.398-2.883-1.055-.109-2.008-.988-1.754-2.332l-18.305-18.309c-.324-.328-.527-.238-.691-.074-2.848-2.844-27.648-27.645-30.52-30.516l-1.41 1.402 28.062 28.062c-.906.906-1.059 2.949 1.859 5.867 2.922 2.918 15.461 15.461 15.461 15.461l.477-.477c.84 1.352 4.848 8.246 4.848 8.246l2.993-3.025z" fill="none" stroke="#000" stroke-width=".084" stroke-linecap="round" stroke-linejoin="round"/><path d="M233.792 116.375c-1.066 1.066-1.371.891-2.078.18-.914-.914-.77-1.113-.617-1.438.18.18.707-.195.973-.465.27-.266.645-.793.469-.973.316-.152.52-.297 1.43.617.71.708.893 1.017-.177 2.079z" fill="#c3b8af"/><path d="M233.792 116.375c-1.066 1.066-1.371.891-2.078.18-.914-.914-.77-1.113-.617-1.438.18.18.707-.195.973-.465.27-.266.645-.793.469-.973.316-.152.52-.297 1.43.617.71.708.893 1.017-.177 2.079z" fill="none" stroke="#000" stroke-width=".084" stroke-linecap="round" stroke-linejoin="round"/><path d="M223.245 106.973l-2.84 2.836-19.07-19.07c-1.859-1.863-1.691-2.176.289-.363 5.035 4.59 19.004 17.25 19.004 17.25l1.629-1.637.988.984z" fill="#c3b8af"/><path d="M223.245 106.973l-2.84 2.836-19.07-19.07c-1.859-1.863-1.691-2.176.289-.363 5.035 4.59 19.004 17.25 19.004 17.25l1.629-1.637.988.984z" fill="none" stroke="#000" stroke-width=".084" stroke-linecap="round" stroke-linejoin="round"/><path d="M224.222 105.059c-.711-.719-1.004-.914-1.832-.082-.828.824-.629 1.117.09 1.828.711.723 1.012.918 1.832.094.824-.829.628-1.122-.09-1.84z" fill="#c3b8af"/><path d="M224.222 105.059c-.711-.719-1.004-.914-1.832-.082-.828.824-.629 1.117.09 1.828.711.723 1.012.918 1.832.094.824-.829.628-1.122-.09-1.84z" fill="none" stroke="#000" stroke-width=".084" stroke-linecap="round" stroke-linejoin="round"/><path d="M273.972 164.418c-.066.621.367 1.348 1.391 2.949 1.016 1.605 4.883 8.68 8.676 15.246.332.566 1.465.363 2.406-.363.949-.734 2.988-2.484 4.156-3.574 1.508-1.414 2.082-2.047.984-3.281-1.094-1.242-9.094-10.086-10.531-11.707-2.008-2.258-2.594-1.316-4.09-2.297-.402-.293-1.309.543-1.969 1.277-.656.727-.98 1.422-1.023 1.75z" fill="#7b2d19"/><path d="M273.972 164.418c-.066.621.367 1.348 1.391 2.949 1.016 1.605 4.883 8.68 8.676 15.246.332.566 1.465.363 2.406-.363.949-.734 2.988-2.484 4.156-3.574 1.508-1.414 2.082-2.047.984-3.281-1.094-1.242-9.094-10.086-10.531-11.707-2.008-2.258-2.594-1.316-4.09-2.297-.402-.293-1.309.543-1.969 1.277-.656.727-.98 1.422-1.023 1.75z" fill="none" stroke="#000" stroke-width=".084" stroke-linecap="round" stroke-linejoin="round"/><path d="M268.573 156.578s-12.465-12.473-15.387-15.391c-2.918-2.918-2.766-4.961-1.859-5.867.109-.113 1.023-1.027 1.023-1.027l19.324 19.328c-.87.293-2.218 3.828-3.101 2.957z" fill="#7b2d19"/><path d="M268.573 156.578s-12.465-12.473-15.387-15.391c-2.918-2.918-2.766-4.961-1.859-5.867.109-.113 1.023-1.027 1.023-1.027l19.324 19.328c-.87.293-2.218 3.828-3.101 2.957zm-42.148 6.453c.801.438 2.227.727 3.133-.844.66-1.129.434-2.547-.949-3.129l-1.492 2.551c.402.617 1.168.727 1.676.801" fill="none" stroke="#000" stroke-width=".084" stroke-linecap="round" stroke-linejoin="round"/><path d="M222.702 161.391s1.105-1.105 1.426-1.422c.547-.551.562-2.336-.402-2.883 1.059-.109 2-.988 1.75-2.332l18.305-18.309c.324-.328.527-.238.691-.074 2.848-2.844 27.648-27.645 30.523-30.516l1.406 1.402-28.062 28.062c.914.906 1.055 2.949-1.859 5.867l-15.461 15.461-.476-.477c-.84 1.352-4.848 8.246-4.848 8.246l-2.993-3.025z" fill="#c3b8af"/><path d="M222.702 161.391s1.105-1.105 1.426-1.422c.547-.551.562-2.336-.402-2.883 1.059-.109 2-.988 1.75-2.332l18.305-18.309c.324-.328.527-.238.691-.074 2.848-2.844 27.648-27.645 30.523-30.516l1.406 1.402-28.062 28.062c.914.906 1.055 2.949-1.859 5.867l-15.461 15.461-.476-.477c-.84 1.352-4.848 8.246-4.848 8.246l-2.993-3.025z" fill="none" stroke="#000" stroke-width=".084" stroke-linecap="round" stroke-linejoin="round"/><path d="M265.874 116.375c1.066 1.066 1.371.891 2.082.18.91-.914.766-1.113.617-1.438-.184.18-.711-.195-.977-.465-.266-.266-.645-.793-.461-.973-.324-.152-.523-.297-1.438.617-.71.708-.886 1.017.177 2.079z" fill="#c3b8af"/><path d="M265.874 116.375c1.066 1.066 1.371.891 2.082.18.91-.914.766-1.113.617-1.438-.184.18-.711-.195-.977-.465-.266-.266-.645-.793-.461-.973-.324-.152-.523-.297-1.438.617-.71.708-.886 1.017.177 2.079z" fill="none" stroke="#000" stroke-width=".084" stroke-linecap="round" stroke-linejoin="round"/><path d="M276.429 106.973l2.832 2.836 19.07-19.07c1.859-1.863 1.691-2.176-.289-.363-5.035 4.59-18.996 17.25-18.996 17.25s-.867-.871-1.637-1.637l-.98.984z" fill="#c3b8af"/><path d="M276.429 106.973l2.832 2.836 19.07-19.07c1.859-1.863 1.691-2.176-.289-.363-5.035 4.59-18.996 17.25-18.996 17.25s-.867-.871-1.637-1.637l-.98.984z" fill="none" stroke="#000" stroke-width=".084" stroke-linecap="round" stroke-linejoin="round"/><path d="M275.444 105.059c.719-.719 1.012-.914 1.836-.082.82.824.625 1.117-.086 1.828-.719.723-1.012.918-1.84.094-.824-.829-.628-1.122.09-1.84z" fill="#c3b8af"/><path d="M275.444 105.059c.719-.719 1.012-.914 1.836-.082.82.824.625 1.117-.086 1.828-.719.723-1.012.918-1.84.094-.824-.829-.628-1.122.09-1.84z" fill="none" stroke="#000" stroke-width=".084" stroke-linecap="round" stroke-linejoin="round"/><path d="M225.694 164.418c.074.621-.367 1.348-1.383 2.949-1.027 1.605-4.891 8.68-8.684 15.246-.324.566-1.457.363-2.406-.363-.949-.734-2.992-2.484-4.156-3.574-1.508-1.414-2.074-2.047-.984-3.281 1.094-1.242 9.102-10.086 10.539-11.707 2.008-2.258 2.59-1.316 4.082-2.297.402-.293 1.316.543 1.973 1.277.652.727.984 1.422 1.019 1.75z" fill="#7b2d19"/><path d="M225.694 164.418c.074.621-.367 1.348-1.383 2.949-1.027 1.605-4.891 8.68-8.684 15.246-.324.566-1.457.363-2.406-.363-.949-.734-2.992-2.484-4.156-3.574-1.508-1.414-2.074-2.047-.984-3.281 1.094-1.242 9.102-10.086 10.539-11.707 2.008-2.258 2.59-1.316 4.082-2.297.402-.293 1.316.543 1.973 1.277.652.727.984 1.422 1.019 1.75z" fill="none" stroke="#000" stroke-width=".084" stroke-linecap="round" stroke-linejoin="round"/><path d="M231.093 156.578l15.387-15.391c2.914-2.918 2.773-4.961 1.859-5.867-.109-.113-1.02-1.027-1.02-1.027l-19.328 19.328c.875.293 2.227 3.828 3.102 2.957z" fill="#7b2d19"/><path d="M231.093 156.578l15.387-15.391c2.914-2.918 2.773-4.961 1.859-5.867-.109-.113-1.02-1.027-1.02-1.027l-19.328 19.328c.875.293 2.227 3.828 3.102 2.957z" fill="none" stroke="#000" stroke-width=".084" stroke-linecap="round" stroke-linejoin="round"/><path d="M234.179 173.879c14.938-15.867 34.816-33.117 51.297-41.898-18.793 6.465-37.43 24.492-52.219 40.973l.922.925z" fill="#c3b8af"/><path d="M234.179 173.879c14.938-15.867 34.816-33.117 51.297-41.898-18.793 6.465-37.43 24.492-52.219 40.973l.922.925z" fill="none" stroke="#000" stroke-width=".084" stroke-linecap="round" stroke-linejoin="round"/><path d="M233.64 174.418c-.73.734-5.059 5.062-6.348 6.348.035.352-.731.465-1.117.117-.387-.348-.242-.938.176-1.051-.934-.293-1.547-.906-1.734-1.586-.578-2.086.188-3.387 1.676-4.871 2.105-2.117 4.883-2.195 6.156-1.227 1.207.914 1.926 1.418 3.234 1.727 1.316.309 1.234 1.465.312 1.539-.922.078-1.969-.5-3.203-1.812-1.227-1.305-2.5-1.418-3.695-.918-1.727.727-2.773 2.023-3.309 2.922-.461.77-.562 2.07.055 2.762.617.691 1.098 1.016 1.871.242.707-.707 3.434-3.238 5.121-4.957.223.222.609.585.805.765z" fill="#ffce46"/><path d="M233.64 174.418c-.73.734-5.059 5.062-6.348 6.348.035.352-.731.465-1.117.117-.387-.348-.242-.938.176-1.051-.934-.293-1.547-.906-1.734-1.586-.578-2.086.188-3.387 1.676-4.871 2.105-2.117 4.883-2.195 6.156-1.227 1.207.914 1.926 1.418 3.234 1.727 1.316.309 1.234 1.465.312 1.539-.922.078-1.969-.5-3.203-1.812-1.227-1.305-2.5-1.418-3.695-.918-1.727.727-2.773 2.023-3.309 2.922-.461.77-.562 2.07.055 2.762.617.691 1.098 1.016 1.871.242.707-.707 3.434-3.238 5.121-4.957.223.222.609.585.805.765z" fill="none" stroke="#000" stroke-width=".084" stroke-linecap="round" stroke-linejoin="round"/><path d="M232.835 173.648c-.375.039-.652.156-.855.34-.387.348-.426.957-.426 1.727 0 .309-.02.59-.055.84.379-.035.656-.156.859-.34.387-.352.422-.961.422-1.727 0-.308.02-.586.055-.84z" fill="#ffce46"/><path d="M232.835 173.648c-.375.039-.652.156-.855.34-.387.348-.426.957-.426 1.727 0 .309-.02.59-.055.84.379-.035.656-.156.859-.34.387-.352.422-.961.422-1.727 0-.308.02-.586.055-.84z" fill="none" stroke="#000" stroke-width=".084" stroke-linecap="round" stroke-linejoin="round"/><path d="M231.593 174.891c-.379.039-.648.152-.859.34-.383.348-.422.961-.422 1.727 0 .312-.019.594-.055.84.379-.035.66-.156.863-.34.387-.348.418-.957.418-1.727 0-.309.023-.59.055-.84z" fill="#ffce46"/><path d="M231.593 174.891c-.379.039-.648.152-.859.34-.383.348-.422.961-.422 1.727 0 .312-.019.594-.055.84.379-.035.66-.156.863-.34.387-.348.418-.957.418-1.727 0-.309.023-.59.055-.84z" fill="none" stroke="#000" stroke-width=".084" stroke-linecap="round" stroke-linejoin="round"/><path d="M230.351 176.133c-.371.039-.648.152-.859.34-.379.348-.422.957-.422 1.727 0 .309-.02.59-.055.84.383-.039.652-.152.863-.344.379-.344.422-.957.422-1.723 0-.309.019-.59.051-.84z" fill="#ffce46"/><path d="M230.351 176.133c-.371.039-.648.152-.859.34-.379.348-.422.957-.422 1.727 0 .309-.02.59-.055.84.383-.039.652-.152.863-.344.379-.344.422-.957.422-1.723 0-.309.019-.59.051-.84z" fill="none" stroke="#000" stroke-width=".084" stroke-linecap="round" stroke-linejoin="round"/><path d="M229.112 177.375c-.379.039-.66.152-.863.34-.387.352-.418.957-.418 1.727 0 .309-.023.59-.055.836.371-.031.648-.152.859-.336.379-.352.422-.961.422-1.727.001-.309.02-.586.055-.84z" fill="#ffce46"/><path d="M229.112 177.375c-.379.039-.66.152-.863.34-.387.352-.418.957-.418 1.727 0 .309-.023.59-.055.836.371-.031.648-.152.859-.336.379-.352.422-.961.422-1.727.001-.309.02-.586.055-.84z" fill="none" stroke="#000" stroke-width=".084" stroke-linecap="round" stroke-linejoin="round"/><path d="M234.491 172.492c13.398-14.629 34.734-33.195 48.445-39.359" fill="none" stroke="#000" stroke-width=".042" stroke-linecap="round" stroke-linejoin="round"/><path d="M265.487 173.879c-14.938-15.867-34.816-33.117-51.297-41.898 18.793 6.465 37.438 24.492 52.227 40.973l-.93.925z" fill="#c3b8af"/><path d="M265.487 173.879c-14.938-15.867-34.816-33.117-51.297-41.898 18.793 6.465 37.438 24.492 52.227 40.973l-.93.925z" fill="none" stroke="#000" stroke-width=".084" stroke-linecap="round" stroke-linejoin="round"/><path d="M266.03 174.418c.734.734 5.059 5.062 6.348 6.348-.039.352.734.465 1.121.117.387-.348.234-.938-.184-1.051.934-.293 1.551-.906 1.742-1.586.57-2.086-.195-3.387-1.676-4.871-2.117-2.117-4.891-2.195-6.164-1.227-1.207.914-1.926 1.418-3.234 1.727-1.309.309-1.234 1.465-.305 1.539.922.078 1.957-.5 3.191-1.812 1.23-1.305 2.512-1.418 3.703-.918 1.73.727 2.77 2.023 3.312 2.922.461.77.555 2.07-.062 2.762-.609.691-1.098 1.016-1.863.242-.715-.707-3.434-3.238-5.129-4.957-.222.222-.601.585-.8.765z" fill="#ffce46"/><path d="M266.03 174.418c.734.734 5.059 5.062 6.348 6.348-.039.352.734.465 1.121.117.387-.348.234-.938-.184-1.051.934-.293 1.551-.906 1.742-1.586.57-2.086-.195-3.387-1.676-4.871-2.117-2.117-4.891-2.195-6.164-1.227-1.207.914-1.926 1.418-3.234 1.727-1.309.309-1.234 1.465-.305 1.539.922.078 1.957-.5 3.191-1.812 1.23-1.305 2.512-1.418 3.703-.918 1.73.727 2.77 2.023 3.312 2.922.461.77.555 2.07-.062 2.762-.609.691-1.098 1.016-1.863.242-.715-.707-3.434-3.238-5.129-4.957-.222.222-.601.585-.8.765z" fill="none" stroke="#000" stroke-width=".084" stroke-linecap="round" stroke-linejoin="round"/><path d="M266.831 173.648c.379.039.656.156.863.34.379.348.418.957.418 1.727 0 .309.02.59.055.84-.371-.035-.656-.156-.859-.34-.383-.352-.422-.961-.422-1.727 0-.308-.02-.586-.055-.84z" fill="#ffce46"/><path d="M266.831 173.648c.379.039.656.156.863.34.379.348.418.957.418 1.727 0 .309.02.59.055.84-.371-.035-.656-.156-.859-.34-.383-.352-.422-.961-.422-1.727 0-.308-.02-.586-.055-.84z" fill="none" stroke="#000" stroke-width=".084" stroke-linecap="round" stroke-linejoin="round"/><path d="M268.073 174.891c.379.039.656.152.859.34.387.348.422.961.422 1.727 0 .312.02.594.055.84-.375-.035-.652-.156-.863-.34-.379-.348-.418-.957-.418-1.727 0-.309-.024-.59-.055-.84z" fill="#ffce46"/><path d="M268.073 174.891c.379.039.656.152.859.34.387.348.422.961.422 1.727 0 .312.02.594.055.84-.375-.035-.652-.156-.863-.34-.379-.348-.418-.957-.418-1.727 0-.309-.024-.59-.055-.84z" fill="none" stroke="#000" stroke-width=".084" stroke-linecap="round" stroke-linejoin="round"/><path d="M269.319 176.133c.375.039.652.152.855.34.387.348.422.957.422 1.727 0 .309.02.59.051.84-.371-.039-.648-.152-.859-.344-.379-.344-.422-.957-.422-1.723 0-.309-.019-.59-.047-.84z" fill="#ffce46"/><path d="M269.319 176.133c.375.039.652.152.855.34.387.348.422.957.422 1.727 0 .309.02.59.051.84-.371-.039-.648-.152-.859-.344-.379-.344-.422-.957-.422-1.723 0-.309-.019-.59-.047-.84z" fill="none" stroke="#000" stroke-width=".084" stroke-linecap="round" stroke-linejoin="round"/><path d="M270.561 177.375c.371.039.652.152.855.34.387.352.426.957.426 1.727 0 .309.02.59.047.836-.371-.031-.652-.152-.855-.336-.387-.352-.426-.961-.426-1.727 0-.309-.019-.586-.047-.84z" fill="#ffce46"/><path d="M270.561 177.375c.371.039.652.152.855.34.387.352.426.957.426 1.727 0 .309.02.59.047.836-.371-.031-.652-.152-.855-.336-.387-.352-.426-.961-.426-1.727 0-.309-.019-.586-.047-.84z" fill="none" stroke="#000" stroke-width=".084" stroke-linecap="round" stroke-linejoin="round"/><path d="M265.183 172.492c-13.406-14.629-34.742-33.195-48.449-39.359" fill="none" stroke="#000" stroke-width=".042" stroke-linecap="round" stroke-linejoin="round"/><path d="M246.038 96.043c1.242 4.234 3.141 10.281 14.953 9.922-.801-4.742-7.945-12.113-14.953-9.922z" fill="#ec1c2e"/><path d="M246.038 96.043c1.242 4.234 3.141 10.281 14.953 9.922-.801-4.742-7.945-12.113-14.953-9.922z" fill="none" stroke="#000" stroke-width=".084" stroke-linecap="round" stroke-linejoin="round"/><path d="M246.296 90.246c-.801 0-1.891-.328-2.477-.879.512 0 2.336.039 2.734 0l-.257.879z" fill="#ec1c2e"/><path d="M246.296 90.246c-.801 0-1.891-.328-2.477-.879.512 0 2.336.039 2.734 0l-.257.879z" fill="none" stroke="#000" stroke-width=".084" stroke-linecap="round" stroke-linejoin="round"/><path d="M245.679 87.84c-.332.328-1.422.98-1.758 1.164-.324.184-.574.438.336.473.906.035 2.148.109 2.48.109l-1.058-1.746z" fill="#ec1c2e"/><path d="M245.679 87.84c-.332.328-1.422.98-1.758 1.164-.324.184-.574.438.336.473.906.035 2.148.109 2.48.109l-1.058-1.746z" fill="none" stroke="#000" stroke-width=".084" stroke-linecap="round" stroke-linejoin="round"/><path d="M254.976 89.809c-2.082-1.348 1.168-7.367-3.906-8.281-2.223-.398-4.59.512-5.605 2.117-.531.828-1.059 2.77.031 4.523 1.094 1.75.789 2.18.441 2.844-1.574 2.988-.988 6.125 3.457 7.512 4.449 1.386 6.89-7.868 5.582-8.715z" fill="#23913c"/><path d="M254.976 89.809c-2.082-1.348 1.168-7.367-3.906-8.281-2.223-.398-4.59.512-5.605 2.117-.531.828-1.059 2.77.031 4.523 1.094 1.75.789 2.18.441 2.844-1.574 2.988-.988 6.125 3.457 7.512 4.449 1.386 6.89-7.868 5.582-8.715z" fill="none" stroke="#000" stroke-width=".084" stroke-linecap="round" stroke-linejoin="round"/><path d="M249.835 91.012c-2.582 4.133-3.062 10.062 6.273 10.645.949 1.32 1.969 4.453 1.527 5.836.547-.402 1.207-1.492 1.164-2.516.551.766.551 1.824.336 2.551.582-.438 1.09-1.203 1.164-1.855.219.836.508 2.219.184 3.023.656-.691 1.273-1.785 1.383-2.77.551 1.203.66 2.809.477 3.828.363-.477.766-1.418.906-2.117-.141 1.133-.105 2.922-.906 4.414 1.133-1.02 2.699-2.773 3.281-5.219.477.949 1.059 3.141 1.199 4.746.441-.73.809-1.75.949-2.555 14.738 16.703 11.016 33.184-.074 48.062.949-.875 2.516-1.605 3.508-3.137-.223.367-1.098 1.605-1.535 2.043 1.352-.547 2.336-1.352 3.137-2.41-.402.988-1.059 2.082-1.602 2.668.984-.223 1.926-.949 2.293-1.422-6.742 14.508-20.312 25.16-29.211 30.41 7.008-1.312 14.738-6.707 18.82-10.211-3.648 5.832-7.148 13.566-8.465 20.566 3.359-7 8.375-16.574 15.32-23.773 7.73-8.02 13.715-19.84 13.715-37.34 0-16.047-11.164-29.613-17.145-35.742-5.977-6.121-7.219-5.176-10.941-8.969-2.921-2.975-5.398.666-5.757 1.244z" fill="#23913c"/><path d="M249.835 91.012c-2.582 4.133-3.062 10.062 6.273 10.645.949 1.32 1.969 4.453 1.527 5.836.547-.402 1.207-1.492 1.164-2.516.551.766.551 1.824.336 2.551.582-.438 1.09-1.203 1.164-1.855.219.836.508 2.219.184 3.023.656-.691 1.273-1.785 1.383-2.77.551 1.203.66 2.809.477 3.828.363-.477.766-1.418.906-2.117-.141 1.133-.105 2.922-.906 4.414 1.133-1.02 2.699-2.773 3.281-5.219.477.949 1.059 3.141 1.199 4.746.441-.73.809-1.75.949-2.555 14.738 16.703 11.016 33.184-.074 48.062.949-.875 2.516-1.605 3.508-3.137-.223.367-1.098 1.605-1.535 2.043 1.352-.547 2.336-1.352 3.137-2.41-.402.988-1.059 2.082-1.602 2.668.984-.223 1.926-.949 2.293-1.422-6.742 14.508-20.312 25.16-29.211 30.41 7.008-1.312 14.738-6.707 18.82-10.211-3.648 5.832-7.148 13.566-8.465 20.566 3.359-7 8.375-16.574 15.32-23.773 7.73-8.02 13.715-19.84 13.715-37.34 0-16.047-11.164-29.613-17.145-35.742-5.977-6.121-7.219-5.176-10.941-8.969-2.921-2.975-5.398.666-5.757 1.244z" fill="none" stroke="#000" stroke-width=".084" stroke-linecap="round" stroke-linejoin="round"/><path d="M247.647 85.039c-.855 0-.871 1.273 0 1.273.868.001.852-1.273 0-1.273z" fill="#fff100"/><path d="M273.499 154.828c6.238-12.035 11.926-27.789-4.117-47.191m3.426 45.945c1.531-2.219 3.648-6.051 5.473-12.828m-7.075 13.195c4.957-6.926 10.938-18.887 5.031-33.617m-13.129 54.695c8.605-7.289 18.668-24.508 18.668-38.508 0-11.961-2.914-21.004-12.105-31.211m-16.043 75.118c7.582-5.105 18.086-15.027 23.191-28.445m-16.043 30.632c3.5-5.984 8.164-11.23 10.645-13.855 2.484-2.629 8.457-13.422 9.48-20.133m-19-42.738c.074-1.457-.25-3.574-.691-4.734m-.91 4.554c.219-1.024-.074-2.371-.258-3.027m3.207 4.957c.227-.984.477-2.809.477-3.352m1.898 2.547c.219-.867.508-3.059.324-4.188m1.824 6.38c-.508-.582-1.238-1.566-1.531-1.934m-7.441-2.113c.078-1.129-.25-3.062-.98-4.082" fill="none" stroke="#000" stroke-width=".042" stroke-linecap="round" stroke-linejoin="round"/><path d="M259.397 105.125c-6.164.441-16.375.098-24.312-1.594-4.488-.953-8.938 4.375-6.59 11.617 3.531 10.93 8.203 15.75 12.621 23.961-5.25-1.902-10.02.719-9.875 4.762.176 4.703 2.867 7.496 8.973 6.469 6.102-1.027 20.047-2.082 27.574-1.25 2.637.297 4.434-2.074 4.773-3.453 2.129-8.605.941-16.75-11.285-32.5 2.348 0 3.242-2.242 3.02-4.574-.149-1.512-.774-3.735-4.899-3.438z" fill="#fffbd4"/><path d="M259.397 105.125c-6.164.441-16.375.098-24.312-1.594-4.488-.953-8.938 4.375-6.59 11.617 3.531 10.93 8.203 15.75 12.621 23.961-5.25-1.902-10.02.719-9.875 4.762.176 4.703 2.867 7.496 8.973 6.469 6.102-1.027 20.047-2.082 27.574-1.25 2.637.297 4.434-2.074 4.773-3.453 2.129-8.605.941-16.75-11.285-32.5 2.348 0 3.242-2.242 3.02-4.574-.149-1.512-.774-3.735-4.899-3.438z" fill="none" stroke="#000" stroke-width=".084"/><path d="M235.085 103.531c-4.488-.953-8.938 4.375-6.59 11.617 3.531 10.93 8.203 15.75 12.621 23.961-5.367-1.848-10.02.719-9.875 4.762.176 4.703 2.867 7.496 8.973 6.469-2.227.492-5.469-.453-6.301-2.469.609 1.121 2.785 1.289 3.961 1.289 1.438 0 4.977-.93 5.812-4.414 1.031-4.324-.949-6.645-6.484-15.465-3.336-5.336-7.312-13.574-7.363-17.926-.062-4.082 2.004-6.258 4.129-5.367-2.266-.336-3.02 2.512-3.02 4.133 0 1.617 1.793 4.219 4.863 3.856 7.481-.895 20.887-1.285 25.465-.84-7.766-.781-18.207-.391-22.176.113-3.961.5-6.699.223-6.926-2.738 1.344 1.789 4.809 2.07 5.758-1.727.77-3.078-1.117-4.972-2.847-5.254z"/><path d="M238.546 112.102c5.695-.449 17.59-.223 22.73 0-3.859-.336-20.832-.895-22.73 0zM240.222 111.484c4.84-.445 14.953-.219 19.32 0-3.277-.332-17.707-.89-19.32 0zM241.643 110.832c4.117-.445 12.711-.223 16.426 0-2.789-.332-15.054-.891-16.426 0zM242.686 148.75c6.477-.895 22.117-1.227 26.918-.559-5.472-1.117-22.785-.781-26.918.559z"/><path d="M244.565 147.969c5.508-.895 18.793-1.227 22.883-.559-4.652-1.113-19.367-.781-22.883.559z"/><path d="M246.159 147.203c4.68-.891 15.98-1.227 19.445-.559-3.953-1.113-16.461-.777-19.445.559z"/><path d="M236.421 106.828c1.004 1.84.172 3.074-.895 3.629.727-1.059-.164-3.016-1.504-3.91.84 0 1.899.055 2.399.281zM233.073 109.563v-1.285c.723.059 1.289.727 1.289 1.285h-1.289zM241.577 140.211l-2.414-.66c2.344.676 2.785 5.809 1.082 7.82 1.703-1.59 2.164-4.644 1.332-7.16z" fill="#fffbd4"/><path d="M239.522 141.395c-.699-2.09-2.652-1.898-4.328-1.23-2.25.906-3.852 3.633-1.73 7.27-.555-1.289-.113-3.523.281-4.082.391-.56 1.309-2.458 5.777-1.958z" fill="#fffbd4"/><path d="M239.636 145.973c.359-1.227.449-2.617.137-3.625-3.457-.113-4.855.332-5.305 1.562 1.785-1.395 3.801-.336 3.801.895-.001 1.226.019 1.277 1.367 1.168z" fill="#fffbd4"/><path d="M239.296 146.703c-1.559 1.004-4.27.445-3.152-2.293.672-.109 1.453-.336 1.453 1.012 0 .555.14 1.281 1.699 1.281z" fill="#fffbd4"/><path d="M227.909 180.191c-3.957-1.91-10.918-4.359-15.121-3.047-4.211 1.309-4.938 1.789-1.734 3.387 11.078 5.527 15.434.215 20.215 1.281" fill="#23913c"/><path d="M227.909 180.191c-3.957-1.91-10.918-4.359-15.121-3.047-4.211 1.309-4.938 1.789-1.734 3.387 11.078 5.527 15.434.215 20.215 1.281" fill="none" stroke="#000" stroke-width=".084"/><path d="M211.839 179.184c3.352-.07 7.656 1.676 10.863 1.312" fill="#23913c"/><path d="M211.839 179.184c3.352-.07 7.656 1.676 10.863 1.312" fill="none" stroke="#000" stroke-width=".084" stroke-linecap="round"/><path d="M271.753 180.191c3.969-1.91 10.926-4.359 15.133-3.047 4.203 1.309 4.938 1.789 1.727 3.387-11.078 5.527-15.426.215-20.215 1.281" fill="#23913c"/><path d="M271.753 180.191c3.969-1.91 10.926-4.359 15.133-3.047 4.203 1.309 4.938 1.789 1.727 3.387-11.078 5.527-15.426.215-20.215 1.281" fill="none" stroke="#000" stroke-width=".084"/><path d="M287.835 179.184c-3.359-.07-7.664 1.676-10.871 1.312" fill="#23913c"/><path d="M287.835 179.184c-3.359-.07-7.664 1.676-10.871 1.312" fill="none" stroke="#000" stroke-width=".084" stroke-linecap="round"/><path d="M268.011 130.164l-1.199.047v2.336l1.199-.043m-1.2-1.129l.906-.031m-28.82-12.699v2.332l1.234-.047m1.974-2.406v2.336m7.109-2.606l-1.203.047v2.332l1.203-.043m-1.203-1.121l.91-.031m5.851-1.426v2.332m-.832-2.301l1.715-.066m-11.074.453l.777-.031c.312-.012.523.23.523.562 0 .336-.195.59-.469.598-.27.012-.676.027-.832.035m.001 1.164l.777-.031c.312-.012.523-.27.523-.602 0-.328-.195-.574-.469-.566-.27.012-.676.027-.832.035m.001-1.164v2.332m6.348-2.571l.777-.031c.309-.012.524.234.524.566 0 .328-.195.586-.469.594-.27.012-.676.027-.832.031.461-.012.727-.066 1.012.203.277.266.113.637.234.922m-1.246-2.285v2.336m5.886-.242l.84-2.363.875 2.297m-1.328-.899l.98-.035m2.485.864v-2.324c.25-.008.523-.02.652-.023.133-.004.703.172.703 1.121 0 .949-.461 1.195-.703 1.203-.238.011-.468.019-.652.023zm-13.098 6.628v-2.332l-.434.016m3.212-.051l-1.059.047v1.086c.711-.426 1.383-.195 1.383.516 0 .508-.836.926-1.383.508m5.344-.067v-2.32c.258-.012.52-.023.648-.027.137-.004.715.176.715 1.125 0 .945-.469 1.188-.715 1.199-.234.011-.465.015-.648.023zm4.246-2.476l-1.203.039v2.332l1.203-.043m-1.203-1.121l.91-.031m-10.43 5.71l-1.203.051v2.332l1.203-.043m-1.203-1.129l.91-.027m2.535-1.266v2.332m-.839-2.301l1.715-.066m1.554-.059v2.336m3.207-2.449l-1.207.039v2.336l1.207-.047m-1.207-1.121l.914-.035m5.652-1.371l.777-.027c.305-.012.523.227.523.559 0 .332-.195.59-.469.602-.27.008-.676.023-.832.027m.001 1.163l.777-.023c.305-.012.523-.27.523-.605 0-.332-.195-.574-.469-.562-.27.008-.676.023-.832.027m.001-1.161v2.336m-12.011 6.43v-2.32c.258-.012.523-.02.656-.023.137-.008.707.172.707 1.117 0 .945-.469 1.195-.707 1.203a27.48 27.48 0 0 1-.656.023zm3.789-2.5l-1.199.043v2.332l1.199-.043m-1.199-1.122l.91-.031m4.461.981v-2.336l-.434.016m-11.758-5.231c-.258-.352-1.004-.359-1.207.305-.117.391.289.57.711.645.473.086.691.488.508.875-.23.504-.93.398-1.18.008m15.993-.345l-.402-2.32-.82 1.289-.812-1.227-.398 2.348m2.119 3.547c-.812.031-.82 1.156 0 1.125.82-.031.813-1.156 0-1.125zm0 1.098c-.91.035-.922 1.293 0 1.254.914-.032.902-1.286 0-1.254zm5.195 1.042v-2.336l-.441.02m-2.496.344c.379-.344.914-.227 1.113.176.215.449.02.824-.293 1.035-.371.258-.875.438-.875.906l1.277-.047m1.008-8.351l.781-.027c.305-.012.523.227.523.566 0 .328-.199.586-.469.598-.273.008-.68.023-.836.031.461-.02.727-.074 1.02.203.27.258.105.629.234.918m-1.253-2.289v2.336" fill="none" stroke="#ffce46" stroke-width=".168" stroke-linecap="round" stroke-linejoin="round"/></svg>