<svg xmlns="http://www.w3.org/2000/svg" viewBox="0 0 499.839 277.402"><path fill="#ec1c2e" d="M499.839 277.402V-.375h-500v277.777h500z"/><path fill="#003876" d="M476.245 256.09V20.941H23.429V256.09h452.816z"/><path d="M249.839 217.23c24.945-20.711 52.547-44.746 52.547-78.715 0-33.973-27.602-58.004-52.547-78.715-24.945 20.711-52.543 44.742-52.543 78.715 0 33.969 27.597 58.005 52.543 78.715z" fill="#ec1c2e"/><path d="M249.839 217.23c24.945-20.711 52.547-44.746 52.547-78.715 0-33.973-27.602-58.004-52.547-78.715-24.945 20.711-52.543 44.742-52.543 78.715 0 33.969 27.597 58.005 52.543 78.715z" fill="none" stroke="#000" stroke-width=".072"/><path d="M205.112 151.914c5.734 23.895 26.074 41.965 44.727 57.883 18.652-15.918 38.988-33.988 44.723-57.883h-89.45z" fill="#003876"/><path d="M205.112 151.914c5.734 23.895 26.074 41.965 44.727 57.883 18.652-15.918 38.988-33.988 44.723-57.883h-89.45z" fill="none" stroke="#000" stroke-width=".072"/><path d="M294.561 151.914a56.903 56.903 0 0 0 1.586-13.398c0-30.762-24.324-52.527-46.309-71.285-21.984 18.758-46.316 40.523-46.316 71.285 0 4.664.562 9.125 1.59 13.398h89.449z" fill="#00aee7"/><path d="M294.561 151.914a56.903 56.903 0 0 0 1.586-13.398c0-30.762-24.324-52.527-46.309-71.285-21.984 18.758-46.316 40.523-46.316 71.285 0 4.664.562 9.125 1.59 13.398h89.449z" fill="none" stroke="#000" stroke-width=".072"/><path d="M295.983 142.93a57.202 57.202 0 0 1-1.422 8.984h-53.746c.664-1.797 1.59-4.562 2.387-6.633 15.125 2.071 38.949 1.512 52.781-2.351z" fill="#d4d5d6"/><path d="M295.983 142.93a57.202 57.202 0 0 1-1.422 8.984h-53.746c.664-1.797 1.59-4.562 2.387-6.633 15.125 2.071 38.949 1.512 52.781-2.351z" fill="none" stroke="#000" stroke-width=".072"/><path d="M225.745 187.348c-4.117-4.473-7.914-9.176-11.168-14.145 8.461.395 24.977 2.148 31.543 7.848 1.598 1.383 1.598 2.074-.398 1.797-3.981-.559-14.625 1.687-19.977 4.5z" fill="#fff100"/><path d="M225.745 187.348c-4.117-4.473-7.914-9.176-11.168-14.145 8.461.395 24.977 2.148 31.543 7.848 1.598 1.383 1.598 2.074-.398 1.797-3.981-.559-14.625 1.687-19.977 4.5z" fill="none" stroke="#000" stroke-width=".072"/><path d="M289.694 165.199c-8.699 17.547-24.824 31.773-39.855 44.598-4.672-3.988-9.457-8.117-14.086-12.43 6.391-10.105 24.168-3.887 24.168-12.867 0-4.691-4.5-8.809-10.879-9.25-1.992-.141-2.465-.215-.93-1.383 7.301-5.527 14.723.414 27.203-5.25 9.082-4.121 13.231-3.805 14.379-3.418z" fill="#fff100"/><path d="M289.694 165.199c-8.699 17.547-24.824 31.773-39.855 44.598-4.672-3.988-9.457-8.117-14.086-12.43 6.391-10.105 24.168-3.887 24.168-12.867 0-4.691-4.5-8.809-10.879-9.25-1.992-.141-2.465-.215-.93-1.383 7.301-5.527 14.723.414 27.203-5.25 9.082-4.121 13.231-3.805 14.379-3.418z" fill="none" stroke="#000" stroke-width=".072"/><path d="M259.393 103.594c-.164-.203-.363-.777-.438-.914.406.348 2.129.793 2.758.895-.266-.176-.73-.859-.898-1.004.5.211 2.355.867 2.758.66-.328-.34-1.262-1.316-1.66-1.59.691.238 2.355 1.176 2.781 1.176-.09-.379-.23-.965-.457-1.453.598.414 1.688.902 2.246 1.105-.059-.445-.191-1.172-.391-1.586.598.414 1.656 1.242 2.391 1.52-.199-.277-.141-1.172-.469-1.586.469.344 1.859 1.449 2.453 1.652-.328-.414-.395-1.238-.664-1.586.398.348 1.727.969 2.328 1.383-.141-.277-.402-.902-.664-1.316.395.414 2.188 1.453 2.715 1.867-.129-.414-.395-1.316-.598-1.656.801.273 2.855 1.52 3.52 1.789-2.383-4.773-13.113-6.371-19.25-4.434.98-.488 1.508-1.43 3.34-1.879-.461-.141-1.602-.727-1.734-.934.594.141 2.785-.281 3.25-.348-.398-.348-1.129-.895-1.461-1.242.867.07 2.918-.133 3.516-.344-.332-.137-1.062-.414-1.461-.625.598.066 1.992.211 2.59.066-.395-.336-1.059-1.164-1.594-1.512.863.203 2.586.203 3.715.07-.531-.348-1.258-.691-1.723-.973.527.07 2.789-.547 3.379-.691-.328-.34-1.188-.547-1.723-.75.93-.078 2.457-.973 2.918-1.387-7.402.109-13.531 3.699-16.746 8.973.105-1.707-.473-3.809-.555-5.023-.289.359-.758.961-.93 1.164.281-.949.277-3.484.125-4.25-.168.5-.617 1.246-.828 1.633.066-.914-.172-3.438-.461-4.434-.203.523-.727 1.234-.938 1.621.164-1.148-.566-4.09-.922-5.223.012.535-.488 1.871-.641 2.203-.027-1.016-.863-4.324-1.246-5.031.16.551-.137 2.016-.152 2.523-.254-.727-1.254-2.637-1.602-3.18.129.387.016 1.133.008 1.539-.582-.836-2.109-2.387-2.805-2.875.613.906 1.121 2.352 1.441 2.977-.18-.098-.629-.301-.863-.34.527.629 1.516 2.359 1.883 2.984-.336-.109-1.004-.164-1.344-.172.688.543 2.051 2.09 2.519 2.723-.297-.137-1.215-.074-1.453.039.594.32 1.984 1.594 2.406 2.172-.32-.219-1.117-.422-1.43-.395.699.73 1.723 2.027 2.176 2.527-.395-.25-1.699-.602-2.148-.555.531.531 2.148 2.254 2.574 2.828-.41-.141-1.359-.008-1.699-.008.609.562 2.184 2.367 2.57 2.828-.375-.223-1.43-.391-1.793-.418.695.785 1.691 2.352 2.133 3.012-.355-.035-1.145-.137-1.445-.266-3.469-5.723-9.711-9.25-14.059-9.578.598.281 2.656 1.59 3.316 2.281-.465 0-1.125-.145-1.52-.145.723.625 2.25 1.52 2.844 1.797-.195 0-1.059 0-1.324.176.602.586 2.191 1.039 3.215 1.793-.391 0-1.055.074-1.457.074.895.34 2.457 1.445 2.984 2.246a63.28 63.28 0 0 0-1.355-.145c.859.48 2.059 1.352 2.586 1.898-.332-.102-1.09-.102-1.395-.102.535.414 2.156 1.141 2.652 1.766a20.458 20.458 0 0 0-1.453-.109c.559.453 2.137 1.66 2.996 2.598-10.117-4.898-22.426-2.688-28.941 6.312.797-.277 3.582-1.934 4.516-2.211-.402.48-.27 1.098-.535 1.586.797-.488 2.059-1.52 2.984-2.141-.195.344-.332 1.105-.664 1.726.664-.41 2.723-1.797 3.715-2.621-.129.621-.395 1.172-.59 1.586 1.055-.617 3.047-2 3.711-2.484-.328.617-.594 1.309-.926 1.723.926-.344 3.047-1.723 4.309-2.414-.203.484-.328 1.176-.664 1.59.996-.559 2.59-1.039 3.652-.965-.199.348-.531.965-.93 1.242a8.841 8.841 0 0 1 4.008-.395c-6.84 2.25-13.676 9.629-13.496 14.48.633-1.105 1.895-2.594 2.684-3.316-.164.516-.062 1.348-.035 1.828.332-1.035 1.035-2.277 1.668-3.383-.102.625.098 1.418.227 1.832.336-1.004 1.527-3.039 2.062-3.867-.168.586.027 1.691.16 2.281.496-1.039 1.527-2.625 2.359-3.562-.199.625-.164 1.695-.137 2.074.535-.934 1.859-2.59 2.656-3.449-.234.723-.234 1.828-.262 2.344.629-1.004 2.418-2.867 3.445-3.762-.297.656-.398 1.73-.496 2.176.762-.828 2.984-2.211 3.812-2.449-1.324.93-2.719 3.312-3.516 4.449.402-.066 1.066-.211 1.297-.242-.738.488-2.156 2.242-2.488 2.867.395-.238 1.121-.48 1.488-.625-.559.594-1.824 2.492-2.191 3.352.434-.242 1.199-.414 1.559-.555-.754.691-1.918 3.18-2.316 4.184.301-.379 1.391-1.004 1.691-1.141-.566.727-1.859 3.52-1.988 4.246.195-.488 1.227-1.316 1.527-1.66-.234.656-.633 2.59-.699 3.18.133-.348.629-.793.859-1.07-.07.926.102 2.934.301 3.695.102-1.004.562-2.32.699-2.938.062.168.262.582.398.762 0-.762.297-2.559.398-3.215.16.277.59.723.824.934-.168-.793-.234-2.691-.203-3.418.141.277.805.793 1.035.867-.23-.59-.465-2.316-.434-2.977.102.348.531.973.762 1.141-.062-.93-.031-2.449-.062-3.074.133.414.824 1.453 1.16 1.699-.074-.695-.203-2.871-.168-3.527.195.344.93.828 1.16 1.035-.098-.758-.164-2.969-.164-3.52.133.383.766 1.141.996 1.379-.035-.965.168-2.652.234-3.379.231.238.723.793.859 1.07.133-1.449.996-2.969 2.121-4.352 1.195 1.242 2.226 4.008 2.426 4.246.133-.305.297-.965.426-1.105.039.691.332 2.488.399 2.969.141-.344.531-1.07.664-1.172 0 .828.105 2.211.203 2.828.133-.34.461-.895.66-1.031-.16.691-.098 2.551 0 3.242.137-.273.566-.863.797-1.066-.199.617.465 2.828.535 3.793.062-.348.523-.898.727-1.234 0 .75.266 2.961.332 4.066.129-.445.598-1.105.828-1.375-.164.996.332 2.895.691 3.758.074-.484.273-1.277.473-1.59.328.66 1.223 2.523 1.258 3.555.398-.996.332-3.039-.137-4.312.305.242.602.414.801.48-.238-.895-.93-2.625-1.293-2.93.336.172.824.414 1.027.586-.23-1.039-.996-2.762-1.426-3.488.398.102.965.211 1.324.414-.359-.758-1.625-2.523-2.184-3.004.332.102 1.156.379 1.453.48-.367-.617-2.055-2.102-3.086-2.758.535-.07 1.461-.07 1.891-.07-.629-.793-2.117-1.863-3.051-2.344.301.031 1.098.203 1.492.309-.262-.758-1.723-2.207-2.422-2.832.598.312 2.527 1.273 3.121 1.898.137-.48.035-1.621-.164-2.102.594.379 2.023 1.723 2.289 2.242.129-.488.129-1.312.098-1.621 1.531 1.066 2.492 2.34 2.887 3.031.066-.48.098-1.617-.035-2.203.465.414 1.562 1.691 1.789 2.238.035-.445.105-1.172-.035-1.551.336.41 1.23 2.211 1.367 2.59.098-.379.332-1.586.23-1.934.363.516 1.59 2.348 1.762 2.969.129-.555.363-1.414.324-1.727.402.59 1.137 2.691 1.195 3.281.172-.277.504-1.695.434-2.211.332.625 1.293 3.141 1.492 3.66.133-.383.332-1.516.301-1.828.23.379 1.328 3.105 1.363 3.551.16-.41.262-1.449.23-1.789.133.617.957 2.277 2.016 3.445.897-8.949-8.634-14.613-16.24-15.781z" fill="#009370"/><path d="M259.393 103.594c-.164-.203-.363-.777-.438-.914.406.348 2.129.793 2.758.895-.266-.176-.73-.859-.898-1.004.5.211 2.355.867 2.758.66-.328-.34-1.262-1.316-1.66-1.59.691.238 2.355 1.176 2.781 1.176-.09-.379-.23-.965-.457-1.453.598.414 1.688.902 2.246 1.105-.059-.445-.191-1.172-.391-1.586.598.414 1.656 1.242 2.391 1.52-.199-.277-.141-1.172-.469-1.586.469.344 1.859 1.449 2.453 1.652-.328-.414-.395-1.238-.664-1.586.398.348 1.727.969 2.328 1.383-.141-.277-.402-.902-.664-1.316.395.414 2.188 1.453 2.715 1.867-.129-.414-.395-1.316-.598-1.656.801.273 2.855 1.52 3.52 1.789-2.383-4.773-13.113-6.371-19.25-4.434.98-.488 1.508-1.43 3.34-1.879-.461-.141-1.602-.727-1.734-.934.594.141 2.785-.281 3.25-.348-.398-.348-1.129-.895-1.461-1.242.867.07 2.918-.133 3.516-.344-.332-.137-1.062-.414-1.461-.625.598.066 1.992.211 2.59.066-.395-.336-1.059-1.164-1.594-1.512.863.203 2.586.203 3.715.07-.531-.348-1.258-.691-1.723-.973.527.07 2.789-.547 3.379-.691-.328-.34-1.188-.547-1.723-.75.93-.078 2.457-.973 2.918-1.387-7.402.109-13.531 3.699-16.746 8.973.105-1.707-.473-3.809-.555-5.023-.289.359-.758.961-.93 1.164.281-.949.277-3.484.125-4.25-.168.5-.617 1.246-.828 1.633.066-.914-.172-3.438-.461-4.434-.203.523-.727 1.234-.938 1.621.164-1.148-.566-4.09-.922-5.223.012.535-.488 1.871-.641 2.203-.027-1.016-.863-4.324-1.246-5.031.16.551-.137 2.016-.152 2.523-.254-.727-1.254-2.637-1.602-3.18.129.387.016 1.133.008 1.539-.582-.836-2.109-2.387-2.805-2.875.613.906 1.121 2.352 1.441 2.977-.18-.098-.629-.301-.863-.34.527.629 1.516 2.359 1.883 2.984-.336-.109-1.004-.164-1.344-.172.688.543 2.051 2.09 2.519 2.723-.297-.137-1.215-.074-1.453.039.594.32 1.984 1.594 2.406 2.172-.32-.219-1.117-.422-1.43-.395.699.73 1.723 2.027 2.176 2.527-.395-.25-1.699-.602-2.148-.555.531.531 2.148 2.254 2.574 2.828-.41-.141-1.359-.008-1.699-.008.609.562 2.184 2.367 2.57 2.828-.375-.223-1.43-.391-1.793-.418.695.785 1.691 2.352 2.133 3.012-.355-.035-1.145-.137-1.445-.266-3.469-5.723-9.711-9.25-14.059-9.578.598.281 2.656 1.59 3.316 2.281-.465 0-1.125-.145-1.52-.145.723.625 2.25 1.52 2.844 1.797-.195 0-1.059 0-1.324.176.602.586 2.191 1.039 3.215 1.793-.391 0-1.055.074-1.457.074.895.34 2.457 1.445 2.984 2.246a63.28 63.28 0 0 0-1.355-.145c.859.48 2.059 1.352 2.586 1.898-.332-.102-1.09-.102-1.395-.102.535.414 2.156 1.141 2.652 1.766a20.458 20.458 0 0 0-1.453-.109c.559.453 2.137 1.66 2.996 2.598-10.117-4.898-22.426-2.688-28.941 6.312.797-.277 3.582-1.934 4.516-2.211-.402.48-.27 1.098-.535 1.586.797-.488 2.059-1.52 2.984-2.141-.195.344-.332 1.105-.664 1.726.664-.41 2.723-1.797 3.715-2.621-.129.621-.395 1.172-.59 1.586 1.055-.617 3.047-2 3.711-2.484-.328.617-.594 1.309-.926 1.723.926-.344 3.047-1.723 4.309-2.414-.203.484-.328 1.176-.664 1.59.996-.559 2.59-1.039 3.652-.965-.199.348-.531.965-.93 1.242a8.841 8.841 0 0 1 4.008-.395c-6.84 2.25-13.676 9.629-13.496 14.48.633-1.105 1.895-2.594 2.684-3.316-.164.516-.062 1.348-.035 1.828.332-1.035 1.035-2.277 1.668-3.383-.102.625.098 1.418.227 1.832.336-1.004 1.527-3.039 2.062-3.867-.168.586.027 1.691.16 2.281.496-1.039 1.527-2.625 2.359-3.562-.199.625-.164 1.695-.137 2.074.535-.934 1.859-2.59 2.656-3.449-.234.723-.234 1.828-.262 2.344.629-1.004 2.418-2.867 3.445-3.762-.297.656-.398 1.73-.496 2.176.762-.828 2.984-2.211 3.812-2.449-1.324.93-2.719 3.312-3.516 4.449.402-.066 1.066-.211 1.297-.242-.738.488-2.156 2.242-2.488 2.867.395-.238 1.121-.48 1.488-.625-.559.594-1.824 2.492-2.191 3.352.434-.242 1.199-.414 1.559-.555-.754.691-1.918 3.18-2.316 4.184.301-.379 1.391-1.004 1.691-1.141-.566.727-1.859 3.52-1.988 4.246.195-.488 1.227-1.316 1.527-1.66-.234.656-.633 2.59-.699 3.18.133-.348.629-.793.859-1.07-.07.926.102 2.934.301 3.695.102-1.004.562-2.32.699-2.938.062.168.262.582.398.762 0-.762.297-2.559.398-3.215.16.277.59.723.824.934-.168-.793-.234-2.691-.203-3.418.141.277.805.793 1.035.867-.23-.59-.465-2.316-.434-2.977.102.348.531.973.762 1.141-.062-.93-.031-2.449-.062-3.074.133.414.824 1.453 1.16 1.699-.074-.695-.203-2.871-.168-3.527.195.344.93.828 1.16 1.035-.098-.758-.164-2.969-.164-3.52.133.383.766 1.141.996 1.379-.035-.965.168-2.652.234-3.379.231.238.723.793.859 1.07.133-1.449.996-2.969 2.121-4.352 1.195 1.242 2.226 4.008 2.426 4.246.133-.305.297-.965.426-1.105.039.691.332 2.488.399 2.969.141-.344.531-1.07.664-1.172 0 .828.105 2.211.203 2.828.133-.34.461-.895.66-1.031-.16.691-.098 2.551 0 3.242.137-.273.566-.863.797-1.066-.199.617.465 2.828.535 3.793.062-.348.523-.898.727-1.234 0 .75.266 2.961.332 4.066.129-.445.598-1.105.828-1.375-.164.996.332 2.895.691 3.758.074-.484.273-1.277.473-1.59.328.66 1.223 2.523 1.258 3.555.398-.996.332-3.039-.137-4.312.305.242.602.414.801.48-.238-.895-.93-2.625-1.293-2.93.336.172.824.414 1.027.586-.23-1.039-.996-2.762-1.426-3.488.398.102.965.211 1.324.414-.359-.758-1.625-2.523-2.184-3.004.332.102 1.156.379 1.453.48-.367-.617-2.055-2.102-3.086-2.758.535-.07 1.461-.07 1.891-.07-.629-.793-2.117-1.863-3.051-2.344.301.031 1.098.203 1.492.309-.262-.758-1.723-2.207-2.422-2.832.598.312 2.527 1.273 3.121 1.898.137-.48.035-1.621-.164-2.102.594.379 2.023 1.723 2.289 2.242.129-.488.129-1.312.098-1.621 1.531 1.066 2.492 2.34 2.887 3.031.066-.48.098-1.617-.035-2.203.465.414 1.562 1.691 1.789 2.238.035-.445.105-1.172-.035-1.551.336.41 1.23 2.211 1.367 2.59.098-.379.332-1.586.23-1.934.363.516 1.59 2.348 1.762 2.969.129-.555.363-1.414.324-1.727.402.59 1.137 2.691 1.195 3.281.172-.277.504-1.695.434-2.211.332.625 1.293 3.141 1.492 3.66.133-.383.332-1.516.301-1.828.23.379 1.328 3.105 1.363 3.551.16-.41.262-1.449.23-1.789.133.617.957 2.277 2.016 3.445.897-8.949-8.634-14.613-16.24-15.781zm-2.988-4.508c.441-.219.93-.406 1.449-.57m1.539 5.078c-1.473-.223-2.875-.277-4.113-.156m-6.578-5.891a17.624 17.624 0 0 1 1.996 4.645m-3.965-.094c.594.289 1.195.582 1.777.93m-8.132 1.605a12.641 12.641 0 0 1 1.957-.5m9.758-2.219a16.61 16.61 0 0 1 2.027-4.973" fill="none" stroke="#000" stroke-width=".072"/><path d="M234.671 163.031c-.059-15.539.023-20.93-.422-20.93-.453 0-.371 5.391-.422 20.93" fill="#81683b"/><path d="M234.671 163.031c-.059-15.539.023-20.93-.422-20.93-.453 0-.371 5.391-.422 20.93" fill="none" stroke="#000" stroke-width=".072"/><path d="M231.198 166.09c9.746 0 13-2.164 12.801-4.309-4.648 0-5.906 1.105-12.801 1.105-6.906 0-8.16-1.105-12.805-1.105-.199 2.145 3.051 4.309 12.805 4.309z" fill="#81683b"/><path d="M231.198 166.09c9.746 0 13-2.164 12.801-4.309-4.648 0-5.906 1.105-12.801 1.105-6.906 0-8.16-1.105-12.805-1.105-.199 2.145 3.051 4.309 12.805 4.309z" fill="none" stroke="#000" stroke-width=".072"/><path d="M231.198 168.762c4.539 0 8.227-.383 7.922-1.934-.414.137-1.207.258-1.938.277l-.23-1.473c-.082-.398-1.176-.289-1.109.102l.195 1.48c-1.625.23-3.676.23-4.84.23-1.172 0-3.223 0-4.848-.23l.199-1.48c.07-.391-1.031-.5-1.105-.102l-.238 1.473c-.734-.02-1.523-.141-1.938-.277-.3 1.551 3.383 1.934 7.93 1.934z" fill="#81683b"/><path d="M231.198 168.762c4.539 0 8.227-.383 7.922-1.934-.414.137-1.207.258-1.938.277l-.23-1.473c-.082-.398-1.176-.289-1.109.102l.195 1.48c-1.625.23-3.676.23-4.84.23-1.172 0-3.223 0-4.848-.23l.199-1.48c.07-.391-1.031-.5-1.105-.102l-.238 1.473c-.734-.02-1.523-.141-1.938-.277-.3 1.551 3.383 1.934 7.93 1.934z" fill="none" stroke="#000" stroke-width=".072"/><path d="M251.159 106.004c.594 17.027-6.703 58.078 19.098 70.82 2.461 1.113.648 5.77-3.562 3.609-24.547-13.918-16.684-56.297-17.129-74.539l1.593.11z" fill="#81683b"/><path d="M251.159 106.004c.594 17.027-6.703 58.078 19.098 70.82 2.461 1.113.648 5.77-3.562 3.609-24.547-13.918-16.684-56.297-17.129-74.539l1.593.11z" fill="none" stroke="#000" stroke-width=".072"/><path d="M249.061 101.797c-2.391 0-2.391 3.73 0 3.73s2.391-3.73 0-3.73z" fill="#81683b"/><path d="M249.061 101.797c-2.391 0-2.391 3.73 0 3.73s2.391-3.73 0-3.73z" fill="none" stroke="#000" stroke-width=".072"/><path d="M252.347 102.375c-2.387 0-2.387 3.738 0 3.738 2.386 0 2.386-3.738 0-3.738z" fill="#81683b"/><path d="M252.347 102.375c-2.387 0-2.387 3.738 0 3.738 2.386 0 2.386-3.738 0-3.738z" fill="none" stroke="#000" stroke-width=".072"/><path d="M249.186 104.762c-2.394 0-2.394 3.738 0 3.738 2.391 0 2.391-3.738 0-3.738z" fill="#81683b"/><path d="M249.186 104.762c-2.394 0-2.394 3.738 0 3.738 2.391 0 2.391-3.738 0-3.738z" fill="none" stroke="#000" stroke-width=".072"/><path d="M251.421 104.125c-2.391 0-2.391 3.73 0 3.73 2.387.001 2.387-3.73 0-3.73z" fill="#81683b"/><path d="M251.421 104.125c-2.391 0-2.391 3.73 0 3.73 2.387.001 2.387-3.73 0-3.73z" fill="none" stroke="#000" stroke-width=".072"/><path d="M224.694 143.207c1.594 5.805-.133 13.469-2.988 18.785 6.102-.625 15.922-1.246 19.238 0-2.914-7.738-9.617-17.199-16.25-18.785z" fill="#fff"/><path d="M224.694 143.207c1.594 5.805-.133 13.469-2.988 18.785 6.102-.625 15.922-1.246 19.238 0-2.914-7.738-9.617-17.199-16.25-18.785z" fill="none" stroke="#000" stroke-width=".072"/><path d="M224.878 132.695c-.453-1.262-1.277-2.027-2.402-2.027-1.68 0-2.758 1.707-2.758 4.273 0 2.547 1.109 4.348 2.805 4.312 1.418-.02 2.355-1.031 2.461-2.691h-2.188v-2.004h4.031v6.52h-1.285c0-.434-.066-1.043-.195-1.445-.609 1.094-1.625 1.703-2.871 1.785-2.582.16-4.777-2.695-4.777-6.492s1.852-6.312 4.777-6.312c2.305 0 4.203 1.73 4.203 4.082h-1.801v-.001zM239.921 139.316c1.531 0 1.941-1.156 1.941-2.246v-8.457h2.152v8.43c0 2.066-.938 4.387-4.094 4.387-3.145 0-4.094-2.32-4.094-4.387v-8.43h2.156v8.457c.001 1.09.415 2.246 1.939 2.246zM259.425 136.664c-.395 0-1.375.004-1.375.012l1.418-5.207 1.402 5.207s-.953-.008-1.445-.008v2.137h2.043l.695 2.613h2.09l-3.551-12.82h-2.484l-3.551 12.82h2.094l.703-2.613h1.961v-2.141zM276.042 141.418l-2-9.773v9.773h-2.078v-12.82h3.23l1.91 9.82 1.926-9.82h3.231v12.82h-2.078v-9.773l-2 9.773h-2.141z" fill="#ec1c2e"/></svg>