<svg xmlns="http://www.w3.org/2000/svg" viewBox="0 0 499.839 277.402"><path fill="#de2910" d="M499.839 277.402V-.375h-500v277.777h500z"/><path d="M275.128 61.774c-8.359-14.219-34.434-22.738-49.18 2.539-14.688 25.168 2.789 64.234 18.66 77.832-9.449-14.902-8.809-26.809-2.918-43.211.434-1.211 2.66-.641 2.18.586-5.688 14.559-6.531 27.914 3.008 41.727-4.191-11.359-4.949-20.176 5.555-24.746 18.961-8.238 21.617-25.883 13.781-39.273-7.863-13.423-1.891-22.349 8.914-15.454z" fill="#fff"/><path fill="#ec1c2e" d="M247.741 85.277l-.203 6.387 6.004 2.16-6.133 1.778-.199 6.386-3.59-5.285-6.125 1.778 3.91-5.04-3.586-5.289 6 2.172 3.922-5.047z"/><path d="M178.526 94.477c-16.098 3.559-32.262 25.723-12.777 47.559 19.402 21.738 61.957 17.195 79.793 6.301-17.094 4.387-28.219.094-41.996-10.578-1.027-.789.207-2.727 1.234-1.887 12.082 9.902 24.52 14.84 40.605 10.027-12.098.48-20.715-1.52-21.816-12.926-1.977-20.574-17.938-28.555-33.094-25.234-15.191 3.316-21.828-5.114-11.949-13.262z" fill="#fff"/><path fill="#ec1c2e" d="M192.429 127.785l6.004 2.168 3.918-5.043-.211 6.383 6.007 2.164-6.129 1.781-.203 6.379-3.585-5.285-6.133 1.785 3.918-5.047-3.586-5.285z"/><path d="M179.788 196.457c-1.594 16.41 14.492 38.625 41.281 26.844 26.672-11.727 35.5-53.609 30.652-73.934-1.117 17.609-8.633 26.867-23.043 36.672-1.059.723-2.523-1.039-1.414-1.754 13.16-8.434 21.691-18.742 22.09-35.527-3.281 11.656-7.852 19.238-19.035 16.754-20.18-4.48-32.707 8.234-34.234 23.684-1.531 15.468-11.605 19.179-16.297 7.261z" fill="#fff"/><path fill="#ec1c2e" d="M215.761 193.531l3.918-5.043-3.59-5.281 6.008 2.16 3.914-5.039-.203 6.383 6.007 2.16-6.129 1.781-.203 6.383-3.586-5.285-6.136 1.781z"/><path d="M277.163 226.77c15.113 6.586 41.215-1.848 38.285-30.957-2.914-28.996-40.012-50.332-60.836-52.004 16.395 6.5 22.879 16.512 27.754 33.242.355 1.242-1.773 2.082-2.105.805-3.961-15.121-11.125-26.418-26.961-31.988 10.066 6.727 15.863 13.414 10.051 23.285-10.496 17.805-2.277 33.645 11.938 39.871 14.249 6.246 14.659 16.968 1.874 17.746z" fill="#fff"/><path fill="#ec1c2e" d="M285.499 191.656l-3.586-5.285-6.129 1.774 3.91-5.04-3.586-5.281 6 2.168 3.922-5.047-.203 6.387 6.004 2.16-6.129 1.781-.203 6.383z"/><path d="M336.077 143.531c10.941-12.336 10.988-39.773-17.605-45.981-28.473-6.191-60.234 22.496-68.258 41.789 11.25-13.586 22.773-16.656 40.191-16.117 1.289.031 1.438 2.32.113 2.246-15.605-.906-28.559 2.414-38.75 15.758 9.508-7.5 17.66-10.949 25.25-2.367 13.691 15.488 31.297 12.562 41.609.969 10.337-11.621 20.665-8.695 17.45 3.703z" fill="#fff"/><path fill="#ec1c2e" d="M305.265 124.75l-6.137 1.781-.199 6.379-3.586-5.281-6.141 1.777 3.922-5.047-3.586-5.277 6.008 2.168 3.914-5.043-.207 6.379 6.012 2.164z"/></svg>