<svg xmlns="http://www.w3.org/2000/svg" viewBox="0 0 499.839 277.402"><path fill="#fff" d="M-.161 184.809h500V92.215h-500v92.594z"/><path fill="#0073cf" d="M499.839 184.809h-500v92.593h500v-92.593zM499.839 92.215h-500V-.375h500v92.59z"/><g fill="#0073cf"><path d="M249.843 125.293l-3.25 10.09h-10.672l8.668 6.273-3.332 10.078 8.586-6.261 8.578 6.261-3.285-10.16 8.625-6.152h-10.637l-3.281-10.129zM285.128 103.617l-3.25 10.09h-10.68l8.676 6.277-3.332 10.078 8.586-6.265 8.578 6.265-3.289-10.163 8.629-6.153h-10.637l-3.281-10.129zM285.128 146.969l3.234 10.086h10.684l-8.668 6.273 3.332 10.082-8.582-6.265-8.586 6.265 3.281-10.164-8.625-6.148h10.637l3.293-10.129zM214.558 103.617l3.25 10.09h10.668l-8.668 6.277 3.335 10.078-8.585-6.265-8.582 6.265 3.285-10.163-8.625-6.153h10.632l3.29-10.129zM214.558 146.969l-3.25 10.086h-10.672l8.668 6.273-3.328 10.082 8.582-6.265 8.585 6.265-3.288-10.164 8.621-6.148h-10.629l-3.289-10.129z"/></g></svg>