<svg xmlns="http://www.w3.org/2000/svg" viewBox="0 0 499.839 277.402"><path fill="#fff" d="M499.839 184.809h-500v-92.59h500v92.59z"/><path fill="#f93" d="M499.839 92.219h-500V-.375h500v92.594z"/><path fill="#128807" d="M-.161 277.402h500v-92.593h-500v92.593z"/><g><path d="M249.839 178.75c22.227 0 40.238-18.008 40.238-40.234 0-22.227-18.012-40.238-40.238-40.238-22.227 0-40.238 18.012-40.238 40.238s18.011 40.234 40.238 40.234z" fill="#262699"/><path d="M256.815 103.488a2.31 2.31 0 0 1-2.598 1.984c-1.262-.164-2.207-1.32-2.043-2.59-1.418-.109-3.445-.133-4.672-.008a2.305 2.305 0 0 1-1.984 2.594c-1.262.164-2.476-.703-2.648-1.969-1.395.258-3.359.758-4.504 1.195a2.314 2.314 0 0 1-1.25 3.016c-1.18.488-2.578-.039-3.07-1.219-1.277.617-3.051 1.605-4.051 2.324a2.295 2.295 0 0 1-.422 3.234c-1.012.781-2.504.637-3.273-.379-1.082.922-2.531 2.332-3.312 3.293a2.305 2.305 0 0 1 .434 3.234c-.777 1.016-2.258 1.258-3.27.48-.805 1.172-1.836 2.914-2.34 4.035a2.307 2.307 0 0 1 1.25 3.016c-.488 1.184-1.852 1.797-3.031 1.309-.469 1.344-1.023 3.289-1.223 4.504a2.305 2.305 0 0 1 1.996 2.59c-.168 1.266-1.332 2.215-2.594 2.051-.105 1.414-.133 3.441-.012 4.664a2.308 2.308 0 0 1 2.594 1.988c.168 1.262-.703 2.477-1.965 2.648.258 1.395.754 3.359 1.195 4.508a2.306 2.306 0 0 1 3.012 1.246c.488 1.184-.039 2.582-1.223 3.07.617 1.281 1.609 3.051 2.328 4.047a2.31 2.31 0 0 1 3.242.426c.773 1.008.629 2.5-.383 3.277.926 1.078 2.332 2.531 3.293 3.309a2.305 2.305 0 0 1 3.234-.43c1.008.77 1.254 2.254.477 3.266 1.176.805 2.914 1.84 4.035 2.34a2.316 2.316 0 0 1 3.016-1.25c1.18.492 1.797 1.855 1.316 3.035 1.336.469 3.281 1.023 4.5 1.215a2.304 2.304 0 0 1 2.586-1.988c1.266.168 2.219 1.324 2.047 2.59 1.418.109 3.445.137 4.672.008a2.307 2.307 0 0 1 1.984-2.59c1.266-.168 2.48.699 2.641 1.969 1.406-.262 3.367-.758 4.52-1.191a2.31 2.31 0 0 1 1.246-3.023c1.18-.488 2.578.043 3.066 1.223 1.281-.617 3.051-1.605 4.051-2.328a2.298 2.298 0 0 1 .426-3.238c1.008-.777 2.5-.629 3.273.383 1.078-.922 2.531-2.332 3.309-3.289a2.317 2.317 0 0 1-.434-3.238c.781-1.012 2.258-1.258 3.27-.477.805-1.176 1.84-2.914 2.344-4.035a2.316 2.316 0 0 1-1.25-3.023c.488-1.18 1.848-1.793 3.031-1.305.473-1.34 1.023-3.289 1.219-4.504a2.295 2.295 0 0 1-1.988-2.594c.164-1.262 1.316-2.211 2.59-2.043.109-1.418.133-3.441.008-4.664a2.316 2.316 0 0 1-2.594-1.988c-.164-1.262.703-2.48 1.977-2.648-.262-1.398-.762-3.359-1.207-4.508a2.311 2.311 0 0 1-3.012-1.25c-.488-1.176.039-2.582 1.215-3.07-.609-1.281-1.598-3.051-2.32-4.043a2.309 2.309 0 0 1-3.238-.43c-.773-1.008-.633-2.496.379-3.269-.922-1.086-2.332-2.543-3.289-3.312a2.311 2.311 0 0 1-3.234.43c-1.016-.777-1.262-2.254-.48-3.27-1.172-.801-2.91-1.836-4.035-2.34a2.31 2.31 0 0 1-3.012 1.25c-1.18-.492-1.805-1.855-1.316-3.035-1.338-.467-3.284-1.017-4.499-1.213z" fill="#fff"/><path d="M249.839 138.516c.5-6.891.168-10.484 1.285-15.031-.73-6.074-.902-17.062-1.285-20.688-.383 3.625-.551 14.613-1.289 20.688 1.125 4.546.793 8.14 1.289 15.031zM249.839 138.516c-1.301-6.789-2.551-10.176-2.648-14.852-2.285-5.676-5.281-16.242-6.598-19.648.57 3.602 3.254 14.254 4.109 20.316 2.262 4.098 2.867 7.656 5.137 14.184zM249.839 138.516c-3.016-6.219-5.094-9.168-6.398-13.664-3.676-4.887-9.312-14.324-11.461-17.27 1.48 3.332 6.828 12.93 9.23 18.559 3.246 3.382 4.754 6.652 8.629 12.375z" fill="#008"/><path d="M249.839 138.516c-4.527-5.23-7.293-7.535-9.723-11.539-4.805-3.773-12.695-11.426-15.531-13.719 2.289 2.832 9.945 10.723 13.715 15.543 4.008 2.418 6.308 5.195 11.539 9.715z" fill="#008"/><path d="M249.839 138.516c-5.719-3.879-8.996-5.391-12.371-8.637-5.629-2.395-15.227-7.742-18.562-9.219 2.949 2.141 12.383 7.777 17.273 11.457 4.496 1.301 7.437 3.387 13.66 6.399zM249.839 138.516c-6.527-2.27-10.082-2.875-14.184-5.137-6.062-.859-16.715-3.543-20.312-4.105 3.398 1.305 13.973 4.309 19.641 6.598 4.683.093 8.066 1.335 14.855 2.644z" fill="#008"/><path d="M249.839 138.516c-6.895-.5-10.488-.172-15.023-1.289-6.078.734-17.062.902-20.695 1.289 3.633.387 14.617.551 20.695 1.289 4.535-1.121 8.128-.789 15.023-1.289zM249.839 138.516c-6.789 1.301-10.172 2.551-14.855 2.645-5.668 2.285-16.242 5.289-19.641 6.598 3.598-.562 14.25-3.25 20.312-4.105 4.102-2.263 7.656-2.873 14.184-5.138z" fill="#008"/><path d="M249.839 138.516c-6.223 3.012-9.164 5.094-13.66 6.398-4.891 3.676-14.324 9.312-17.273 11.457 3.336-1.477 12.934-6.828 18.562-9.223 3.375-3.246 6.652-4.753 12.371-8.632zM249.839 138.516c-5.23 4.52-7.531 7.297-11.539 9.715-3.77 4.816-11.426 12.707-13.715 15.539 2.836-2.293 10.727-9.941 15.531-13.715 2.43-4.008 5.195-6.313 9.723-11.539z" fill="#008"/><path d="M249.839 138.516c-3.875 5.723-5.383 8.996-8.629 12.371-2.402 5.629-7.75 15.227-9.23 18.559 2.148-2.941 7.785-12.379 11.461-17.27 1.304-4.496 3.382-7.442 6.398-13.66z" fill="#008"/><path d="M249.839 138.516c-2.27 6.527-2.875 10.082-5.137 14.188-.855 6.055-3.539 16.707-4.109 20.309 1.316-3.402 4.312-13.973 6.598-19.645.097-4.68 1.347-8.067 2.648-14.852zM249.839 138.516c-.496 6.895-.164 10.484-1.289 15.027.738 6.074.906 17.066 1.289 20.688.383-3.621.555-14.613 1.285-20.688-1.117-4.543-.785-8.133-1.285-15.027zM249.839 138.516c1.305 6.785 2.551 10.172 2.648 14.852 2.285 5.672 5.285 16.242 6.594 19.645-.562-3.602-3.25-14.254-4.105-20.309-2.262-4.106-2.868-7.661-5.137-14.188zM249.839 138.516c3.016 6.219 5.098 9.164 6.398 13.66 3.676 4.891 9.316 14.328 11.461 17.27-1.48-3.332-6.828-12.93-9.23-18.559-3.242-3.375-4.754-6.649-8.629-12.371z" fill="#008"/><path d="M249.839 138.516c4.52 5.227 7.293 7.531 9.723 11.539 4.809 3.773 12.703 11.422 15.531 13.715-2.285-2.832-9.938-10.723-13.715-15.539-4.008-2.419-6.313-5.196-11.539-9.715z" fill="#008"/><path d="M249.839 138.516c5.723 3.879 8.996 5.387 12.375 8.633 5.629 2.395 15.23 7.746 18.559 9.223-2.949-2.145-12.383-7.781-17.27-11.457-4.504-1.306-7.442-3.388-13.664-6.399zM249.839 138.516c6.527 2.266 10.082 2.875 14.184 5.137 6.059.855 16.719 3.543 20.32 4.105-3.406-1.309-13.977-4.312-19.656-6.598-4.676-.094-8.063-1.344-14.848-2.644z" fill="#008"/><path d="M249.839 138.516c6.895.5 10.48.168 15.031 1.289 6.07-.738 17.059-.902 20.688-1.289-3.629-.387-14.617-.555-20.688-1.289-4.551 1.117-8.137.789-15.031 1.289zM249.839 138.516c6.785-1.309 10.172-2.551 14.848-2.645 5.68-2.289 16.25-5.293 19.656-6.598-3.602.562-14.262 3.246-20.32 4.105-4.102 2.263-7.657 2.868-14.184 5.138zM249.839 138.516c6.223-3.012 9.16-5.098 13.664-6.402 4.887-3.676 14.32-9.313 17.27-11.461-3.328 1.484-12.93 6.832-18.559 9.227-3.379 3.245-6.653 4.757-12.375 8.636z" fill="#008"/><path d="M249.839 138.516c5.227-4.52 7.531-7.297 11.539-9.715 3.777-4.82 11.43-12.711 13.715-15.543-2.828 2.293-10.723 9.945-15.531 13.719-2.43 4.003-5.204 6.308-9.723 11.539z" fill="#008"/><path d="M249.839 138.516c3.875-5.723 5.387-8.992 8.629-12.375 2.402-5.629 7.75-15.227 9.23-18.559-2.145 2.945-7.785 12.379-11.461 17.27-1.301 4.496-3.382 7.445-6.398 13.664z" fill="#008"/><path d="M249.839 138.516c2.27-6.527 2.875-10.086 5.137-14.184.855-6.062 3.543-16.715 4.105-20.316-1.309 3.406-4.309 13.973-6.594 19.648-.097 4.676-1.344 8.063-2.648 14.852z" fill="#008"/></g></svg>