<svg xmlns="http://www.w3.org/2000/svg" viewBox="0 0 500 277.484"><path fill="#fff" d="M500.237 277.484V-.293h-500v277.777h500z"/><path fill="#009c57" d="M.479 92.301h2.602v-2.293h19.984v2.293h2.618v-2.293h19.976v2.293h2.598v-2.293h19.988v2.293h2.606v-2.293h19.98v2.293h2.606v-2.293h19.984v2.293h2.605v-2.293h19.985v2.293h2.601v-2.293h19.981v2.293h2.609v-2.293h19.977v2.293h2.609v-2.293h19.98v2.293h2.606v-2.293h19.977v2.293h2.609v-2.293h19.984v2.293h2.61v-2.293h19.976v2.293h2.606v-2.293h19.98v2.293h2.61v-2.293h19.98v2.293h2.609v-2.293h19.977v2.293h2.605v-2.293h19.985v2.293h2.601v-2.293h19.989v2.293h2.601v-2.293h19.985v2.293h2.601v-2.293h19.984v2.293h2.606v-2.293h19.98v2.293h2.61v-2.293h19.98v2.293h2.598v-2.293h19.988v2.293h2.59V-.293H.479v92.594z"/><path fill="#ec1c2e" d="M499.995 184.887h-2.59v2.297h-19.988v-2.297h-2.598v2.297h-19.98v-2.297h-2.61v2.297h-19.98v-2.297h-2.606v2.297h-19.984v-2.297h-2.601v2.297h-19.985v-2.297h-2.601v2.297h-19.989v-2.297h-2.601v2.297h-19.985v-2.297h-2.605v2.297h-19.977v-2.297h-2.609v2.297h-19.98v-2.297h-2.61v2.297h-19.98v-2.297h-2.606v2.297h-19.976v-2.297h-2.61v2.297H228.96v-2.297h-2.609v2.297h-19.977v-2.297h-2.606v2.297h-19.98v-2.297h-2.609v2.297h-19.977v-2.297h-2.609v2.297h-19.981v-2.297h-2.601v2.297h-19.985v-2.297h-2.605v2.297H93.437v-2.297h-2.606v2.297h-19.98v-2.297h-2.606v2.297H48.257v-2.297h-2.598v2.297H25.683v-2.297h-2.618v2.297H3.081v-2.297H.479v92.597h499.516v-92.597z"/><g fill="#fff"><path d="M40.667 86.348V74.559h-2.078v9.707h-2.848v-9.707h-2.078v9.707h-2.664v-9.707h-2.078v4.879h-9.715v6.91h6.957v-2.082h-4.879v-2.75h7.637v4.832h11.746z"/><path d="M26.163 76.633v-2.074H-5.2v2.074h31.363zM16.401 86.348v-6.91h-6.64v2.078h4.562v2.75h-7.59v-4.828H-5.2v6.91h2.078v-4.832h7.769v4.832h11.754zM89.226 86.348V74.559h-2.079v9.707h-2.843v-9.707h-2.082v9.707h-2.668v-9.707h-2.078v4.879h-9.715v6.91h6.957v-2.082h-4.879v-2.75h7.637v4.832h11.75z"/><path d="M74.718 76.633v-2.074h-31.36v2.074h31.36zM64.96 86.348v-6.91h-6.645v2.078h4.563v2.75h-7.59v-4.828h-11.93v6.91h2.079v-4.832h7.773v4.832h11.75z"/><path d="M50.315 84.266v2.082h-2.078v-2.082h2.078zM1.761 84.266v2.082H-.317v-2.082h2.078zM137.784 86.348V74.559h-2.082v9.707h-2.844v-9.707h-2.082v9.707h-2.664v-9.707h-2.082v4.879h-9.711v6.91h6.953v-2.082h-4.875v-2.75h7.633v4.832h11.754z"/><path d="M123.272 76.633v-2.074H91.913v2.074h31.359zM113.519 86.348v-6.91h-6.649v2.078h4.567v2.75h-7.594v-4.828h-11.93v6.91h2.078v-4.832h7.778v4.832h11.75z"/><path d="M98.874 84.266v2.082h-2.078v-2.082h2.078zM186.339 86.348V74.559h-2.082v9.707h-2.844v-9.707h-2.078v9.707h-2.668v-9.707h-2.078v4.879h-9.715v6.91h6.961v-2.082h-4.883v-2.75h7.637v4.832h11.75z"/><path d="M171.835 76.633v-2.074h-31.363v2.074h31.363zM162.069 86.348v-6.91h-6.64v2.078h4.562v2.75h-7.59v-4.828h-11.929v6.91h2.078v-4.832h7.773v4.832h11.746z"/><path d="M147.433 84.266v2.082h-2.078v-2.082h2.078zM234.897 86.348V74.559h-2.078v9.707h-2.851v-9.707h-2.078v9.707h-2.664v-9.707h-2.079v4.879h-9.714v6.91h6.953v-2.082h-4.879v-2.75h7.64v4.832h11.75z"/><path d="M220.386 76.633v-2.074h-31.36v2.074h31.36zM210.628 86.348v-6.91h-6.645v2.078h4.567v2.75h-7.594v-4.828h-11.93v6.91h2.079v-4.832h7.773v4.832h11.75z"/><path d="M195.987 84.266v2.082h-2.078v-2.082h2.078zM283.452 86.348V74.559h-2.078v9.707h-2.844v-9.707h-2.082v9.707h-2.664v-9.707h-2.082v4.879h-9.715v6.91h6.961v-2.082h-4.883v-2.75h7.637v4.832h11.75z"/><path d="M268.948 76.633v-2.074h-31.363v2.074h31.363zM259.186 86.348v-6.91h-6.644v2.078h4.562v2.75h-7.589v-4.828h-11.93v6.91h2.078v-4.832h7.773v4.832h11.75z"/><path d="M244.542 84.266v2.082h-2.078v-2.082h2.078zM332.011 86.348V74.559h-2.078v9.707h-2.852v-9.707h-2.078v9.707h-2.664v-9.707h-2.078v4.879h-9.715v6.91h6.953v-2.082h-4.875v-2.75h7.637v4.832h11.75z"/><path d="M317.499 76.633v-2.074h-31.363v2.074h31.363zM307.741 86.348v-6.91h-6.64v2.078h4.562v2.75h-7.594v-4.828h-11.933v6.91h2.082v-4.832h7.773v4.832h11.75z"/><path d="M293.101 84.266v2.082h-2.079v-2.082h2.079zM380.565 86.348V74.559h-2.078v9.707h-2.851v-9.707h-2.075v9.707h-2.664v-9.707h-2.078v4.879h-9.715v6.91h6.957v-2.082h-4.878v-2.75h7.636v4.832h11.746z"/><path d="M366.061 76.633v-2.074h-31.363v2.074h31.363zM356.3 86.348v-6.91h-6.645v2.078h4.567v2.75h-7.594v-4.828h-11.93v6.91h2.078v-4.832h7.774v4.832h11.75z"/><path d="M341.655 84.266v2.082h-2.078v-2.082h2.078zM429.12 86.348V74.559h-2.074v9.707h-2.848v-9.707h-2.082v9.707h-2.664v-9.707h-2.078v4.879h-9.719v6.91h6.961v-2.082h-4.887v-2.75h7.645v4.832h11.746z"/><path d="M414.616 76.633v-2.074h-31.359v2.074h31.359zM404.858 86.348v-6.91h-6.644v2.078h4.562v2.75h-7.59v-4.828h-11.929v6.91h2.078v-4.832h7.769v4.832h11.754z"/><path d="M390.21 84.266v2.082h-2.074v-2.082h2.074zM477.679 86.348V74.559h-2.078v9.707h-2.848v-9.707h-2.078v9.707h-2.668v-9.707h-2.078v4.879h-9.711v6.91h6.957v-2.082h-4.879v-2.75h7.633v4.832h11.75z"/><path d="M463.175 76.633v-2.074h-31.364v2.074h31.364zM453.413 86.348v-6.91h-6.645v2.078h4.567v2.75h-7.598v-4.828h-11.926v6.91h2.079v-4.832h7.773v4.832h11.75z"/><path d="M438.772 84.266v2.082h-2.082v-2.082h2.082zM526.233 86.348V74.559h-2.074v9.707h-2.847v-9.707h-2.083v9.707h-2.664v-9.707h-2.078v4.879h-9.719v6.91h6.961v-2.082h-4.882v-2.75h7.64v4.832h11.746z"/><path d="M511.729 76.633v-2.074H480.37v2.074h31.359zM501.964 86.348v-6.91h-6.641v2.078h4.567v2.75h-7.59v-4.828h-11.93v6.91h2.078v-4.832h7.774v4.832h11.742z"/><path d="M487.327 84.266v2.082h-2.078v-2.082h2.078z"/></g><g fill="#fff"><path d="M40.667 203.844v-11.793h-2.078v9.715h-2.848v-9.715h-2.078v9.715h-2.664v-9.715h-2.078v4.883h-9.715v6.91h6.957v-2.078h-4.879v-2.754h7.637v4.832h11.746z"/><path d="M26.163 194.129v-2.078H-5.2v2.078h31.363zM16.401 203.844v-6.91h-6.64v2.078h4.562v2.754h-7.59v-4.832H-5.2v6.91h2.078v-4.832h7.769v4.832h11.754z"/><path d="M1.761 201.766v2.078H-.317v-2.078h2.078zM89.226 203.844v-11.793h-2.079v9.715h-2.843v-9.715h-2.082v9.715h-2.668v-9.715h-2.078v4.883h-9.715v6.91h6.957v-2.078h-4.879v-2.754h7.637v4.832h11.75z"/><path d="M74.718 194.129v-2.078h-31.36v2.078h31.36zM64.96 203.844v-6.91h-6.645v2.078h4.563v2.754h-7.59v-4.832h-11.93v6.91h2.079v-4.832h7.773v4.832h11.75z"/><path d="M50.315 201.766v2.078h-2.078v-2.078h2.078zM137.784 203.844v-11.793h-2.082v9.715h-2.844v-9.715h-2.082v9.715h-2.664v-9.715h-2.082v4.883h-9.711v6.91h6.953v-2.078h-4.875v-2.754h7.633v4.832h11.754z"/><path d="M123.272 194.129v-2.078H91.913v2.078h31.359zM113.519 203.844v-6.91h-6.649v2.078h4.567v2.754h-7.594v-4.832h-11.93v6.91h2.078v-4.832h7.778v4.832h11.75z"/><path d="M98.874 201.766v2.078h-2.078v-2.078h2.078zM186.339 203.844v-11.793h-2.082v9.715h-2.844v-9.715h-2.078v9.715h-2.668v-9.715h-2.078v4.883h-9.715v6.91h6.961v-2.078h-4.883v-2.754h7.637v4.832h11.75z"/><path d="M171.835 194.129v-2.078h-31.363v2.078h31.363zM162.069 203.844v-6.91h-6.64v2.078h4.562v2.754h-7.59v-4.832h-11.929v6.91h2.078v-4.832h7.773v4.832h11.746z"/><path d="M147.433 201.766v2.078h-2.078v-2.078h2.078zM234.897 203.844v-11.793h-2.078v9.715h-2.851v-9.715h-2.078v9.715h-2.664v-9.715h-2.079v4.883h-9.714v6.91h6.953v-2.078h-4.879v-2.754h7.64v4.832h11.75z"/><path d="M220.386 194.129v-2.078h-31.36v2.078h31.36zM210.628 203.844v-6.91h-6.645v2.078h4.567v2.754h-7.594v-4.832h-11.93v6.91h2.079v-4.832h7.773v4.832h11.75z"/><path d="M195.987 201.766v2.078h-2.078v-2.078h2.078zM283.452 203.844v-11.793h-2.078v9.715h-2.844v-9.715h-2.082v9.715h-2.664v-9.715h-2.082v4.883h-9.715v6.91h6.961v-2.078h-4.883v-2.754h7.637v4.832h11.75z"/><path d="M268.948 194.129v-2.078h-31.363v2.078h31.363zM259.186 203.844v-6.91h-6.644v2.078h4.562v2.754h-7.589v-4.832h-11.93v6.91h2.078v-4.832h7.773v4.832h11.75z"/><path d="M244.542 201.766v2.078h-2.078v-2.078h2.078zM332.011 203.844v-11.793h-2.078v9.715h-2.852v-9.715h-2.078v9.715h-2.664v-9.715h-2.078v4.883h-9.715v6.91h6.953v-2.078h-4.875v-2.754h7.637v4.832h11.75z"/><path d="M317.499 194.129v-2.078h-31.363v2.078h31.363zM307.741 203.844v-6.91h-6.64v2.078h4.562v2.754h-7.594v-4.832h-11.933v6.91h2.082v-4.832h7.773v4.832h11.75z"/><path d="M293.101 201.766v2.078h-2.079v-2.078h2.079zM380.565 203.844v-11.793h-2.078v9.715h-2.851v-9.715h-2.075v9.715h-2.664v-9.715h-2.078v4.883h-9.715v6.91h6.957v-2.078h-4.878v-2.754h7.636v4.832h11.746z"/><path d="M366.061 194.129v-2.078h-31.363v2.078h31.363zM356.3 203.844v-6.91h-6.645v2.078h4.567v2.754h-7.594v-4.832h-11.93v6.91h2.078v-4.832h7.774v4.832h11.75z"/><path d="M341.655 201.766v2.078h-2.078v-2.078h2.078zM429.12 203.844v-11.793h-2.074v9.715h-2.848v-9.715h-2.082v9.715h-2.664v-9.715h-2.078v4.883h-9.719v6.91h6.961v-2.078h-4.887v-2.754h7.645v4.832h11.746z"/><path d="M414.616 194.129v-2.078h-31.359v2.078h31.359zM404.858 203.844v-6.91h-6.644v2.078h4.562v2.754h-7.59v-4.832h-11.929v6.91h2.078v-4.832h7.769v4.832h11.754z"/><path d="M390.21 201.766v2.078h-2.074v-2.078h2.074zM477.679 203.844v-11.793h-2.078v9.715h-2.848v-9.715h-2.078v9.715h-2.668v-9.715h-2.078v4.883h-9.711v6.91h6.957v-2.078h-4.879v-2.754h7.633v4.832h11.75z"/><path d="M463.175 194.129v-2.078h-31.364v2.078h31.364zM453.413 203.844v-6.91h-6.645v2.078h4.567v2.754h-7.598v-4.832h-11.926v6.91h2.079v-4.832h7.773v4.832h11.75z"/><path d="M438.772 201.766v2.078h-2.082v-2.078h2.082zM526.233 203.844v-11.793h-2.074v9.715h-2.847v-9.715h-2.083v9.715h-2.664v-9.715h-2.078v4.883h-9.719v6.91h6.961v-2.078h-4.882v-2.754h7.64v4.832h11.746z"/><path d="M511.729 194.129v-2.078H480.37v2.078h31.359zM501.964 203.844v-6.91h-6.641v2.078h4.567v2.754h-7.59v-4.832h-11.93v6.91h2.078v-4.832h7.774v4.832h11.742z"/><path d="M487.327 201.766v2.078h-2.078v-2.078h2.078z"/></g><g fill="#ec1c2e"><path d="M271.222 160.941c20.027-10.57 16.496-43.414-6.727-48.539 12.172 10.094 20.344 28.352 6.727 48.539zM229.249 160.941c-20.023-10.57-16.5-43.414 6.734-48.539-12.179 10.094-20.351 28.352-6.734 48.539z"/><path d="M246.87 167.992l3.359 4.484 3.375-4.484v-.16c4.523.633 9.562.293 15.055-1.281-4.348.047-8.418-.613-12.145-1.855 18.043-9.758 22.207-37.816 4.461-51.812 11.18 16.789 6.348 36.465-7.242 46.691l.672-45.09c-1.285-.637-3.047-1.766-4.176-3.363-1.117 1.598-2.871 2.727-4.164 3.363l.684 45.09c-13.602-10.227-18.434-29.902-7.246-46.691-17.758 13.996-13.59 42.055 4.457 51.812-3.723 1.242-7.801 1.902-12.145 1.855 5.492 1.574 10.535 1.914 15.055 1.281v.16z"/><path d="M250.23 105.996c-3.68 4.484-7.082 1.918-8.324-1.281-3.121 4.805 4.406 9.691 8.324 5.605 3.934 4.086 11.461-.801 8.336-5.605-1.239 3.199-4.645 5.766-8.336 1.281z"/></g></svg>