<svg xmlns="http://www.w3.org/2000/svg" viewBox="0 0 499.839 277.402"><path fill="#fff" d="M499.839 184.812h-500V92.215h500v92.597z"/><path fill="#ce1126" d="M499.839 92.215h-500V-.375h500v92.59z"/><path d="M499.839 277.402h-500v-92.59h500v92.59z"/><g fill="#009a67"><path d="M249.843 111.953l-7.258 22.539h-23.844l19.364 14.016-7.442 22.519 19.18-13.996 19.172 13.996-7.344-22.707 19.273-13.738h-23.758l-7.343-22.629zM127.8 111.953l-7.25 22.539H96.698l19.371 14.016-7.441 22.519 19.172-13.996 19.172 13.996-7.344-22.707 19.273-13.738h-23.758l-7.343-22.629zM371.878 111.953l-7.25 22.539H340.78l19.375 14.016-7.449 22.519 19.172-13.996 19.18 13.996-7.344-22.707 19.265-13.738h-23.753l-7.348-22.629zM156.257 155.016c2.934 1.137 4.969 1.527 6.754-1.148 1.789-2.68 2.555-3.953 2.426-4.973-.129-1.023.512-2.426 2.551-2.676 2.043-.258 3.188-1.023 4.207-1.789 1.016-.766 3.695-.891 3.695 1.66 0 3.055-.129 4.973 1.781 5.73 1.922.773 4.469-.527 5.359-5.094 1.145-5.867 1.66-8.672 4.332-7.902 1.52.43-.133 3.348-.637 5.227-.637 2.418-.887 4.844-2.035 7.77-1.227 3.141-2.68 5.23-5.484 5.105-2.809-.129-5.738-1.02-5.996-3.824-.25-2.812-2.203-2.246-4.203-1.152-2.551 1.402-2.68 2.551-2.68 4.723 0 2.164-.633 4.715-4.465 4.59-3.824-.129-5.316-1.207-7.141-2.426-2.288-1.528-.757-4.72 1.536-3.821zM172.573 160.562c.387 1.016-1.852 2.207-.957 3.629.766 1.211 3.344.641 2.996-1.594-.121-.827-.824-1.593-2.039-2.035zM188.643 136.145c-.976-2.922-.027-3.41 2.801-5.363 6.117-4.199 16.359-12.18 19.445-14.977 2.738-2.484 5.215-1.137 1.531 1.973-8.992 7.598-17.109 13.707-19.383 15.496-2.102 1.66-2.895 2.441-3.117 2.934-.319.698-1.085.511-1.277-.063zM201.327 132.574c1.078-.391 2.938-.57 4.848-.699.691-.055 1.188-.578 1.141-1.152-.121-1.66-.609-2.117 1.98-2.551 2.68-.449 5.805-.129 7.332-.449 1.523-.316 1.273 1.277-.191 1.723-1.465.445-4.402.445-5.418.445.129 2.43-.387 4.336-2.617 4.086-2.227-.258-5.102-.027-6.309.25-1.66.386-2.168-1.145-.766-1.653zM204.065 162.152c1.004-5.637 3.059-16.828 2.551-22.188-.148-1.523.258-2.738 1.98-2.102 1.715.637 1.18 1.719 1.145 2.488-.387 8.035-2.285 18.047-3.953 21.801-.766 1.724-2.039 1.783-1.723.001zM292.804 145.383c-.121-3.188-2.672-3.117-5.219-1.719-2.551 1.402-8.168 4.465-10.336 5.992-2.164 1.531-2.605 7.461.703 8.543 3.316 1.082 6.566.828 8.098.383 1.535-.445 1.508-2.387-.316-2.93-5.102-1.535-4.938-2.332-1.914-4.277 4.461-2.867 7.074-.379 6.566 2.613-.645 3.816-2.973 7.289-.512 8.609 4.273 2.293 8.656-5.855 13.387-2.742 4.465 2.938 14.555.512 14.73-7.398.062-2.926.57-8.406 1.465-9.75.891-1.336 1.277-2.293 1.148-3.441-.129-1.152-.828-.953-1.664-.258-.828.703-4.27 1.527-4.395 3.574-.516 8.094.062 10.324-4.719 10.965-4.773.641-4.973-.254-4.266-2.805.699-2.555 1.27-6.566 1.145-8.348-.129-1.793-.766-3.641-2.23-4.34-1.473-.699-4.461.316-3.324 1.977 1.156 1.656 1.211 7.477.449 10.52-.191.762-.82 1.531-2.93 2.801-2.102 1.277-5.73 2.938-5.73-.383 0-3.313-.066-6.051-.136-7.586zM306.132 127.664c-.531.883-1.059 3.309-1.02 4.527.07 1.977 1.289 2.641 2.543 1.273.773-.832.875-.789 1.535-.223 2.074 1.781 6.762.414 6.82-1.816.07-2.234-.766-1.562-1.238-.961-1.121 1.438-3.887 1.09-3.316-1.402.555-2.402-.57-1.879-1.309-.789-1.121 1.648-3.473 2.223-3 .219.164-.664-.121-2.328-1.015-.828zM305.495 121.801c1.164-4.238 2.23-9.117 2.547-12.812.227-2.555.387-2.43 1.465-2.836 1.086-.422 1.461.035 1.277 1.59-.578 4.816-2.422 11.191-3.824 14.375-.926 2.089-1.977 1.531-1.465-.317zM329.147 158.582c.867-4.059 2.164-13.293 1.914-19.508-.047-1.047.664-1.477 1.465-1.914 1.051-.57 2.324-.883 2.164 1.277-.57 7.715-2.422 16.129-3.828 20.781-.691 2.317-2.101 1.145-1.715-.636zM329.397 132.953c-1.918.645-2.996 2.359.07 1.723 3.059-.633 5.609-1.34 7.074-1.844 1.465-.512.637-1.535.188-2.43-.266-.531-.035-.746 1.148-1.082 2.676-.766 4.469-1.852 5.484-2.355 1.016-.512 1.145-2.105-.961-1.402-2.098.695-7.074 1.59-8.352 1.977-1.273.379-1.363.879-1.145 1.844.156.703.223 1.34.32 1.914.066.395-.062.383-.57.578-.513.186-2.107.698-3.256 1.077z"/></g></svg>