<svg xmlns="http://www.w3.org/2000/svg" viewBox="0 0 499.839 277.402"><path fill="#fff" d="M499.839 277.402V-.375h-500v277.777h500z"/><path d="M285.026 138.516c.137 0 17.848 30.82 17.848 30.82h-35.703l-17.328 29.91-17.332-29.91h-35.707s17.719-30.82 17.848-30.82c-.129 0-17.848-30.824-17.848-30.824h35.707l17.332-29.91 17.328 29.91h35.703c0-.001-17.711 30.824-17.848 30.824z" fill="#0038b8"/><path fill="#fff" d="M213.573 117.356h13.336l-6.668 11.527-6.668-11.527zM286.097 117.356h-13.332l6.679 11.527 6.653-11.527zM255.987 107.691l-6.144-10.609-6.153 10.609h12.297zM213.573 159.672h13.336l-6.668-11.524-6.668 11.524zM286.097 159.672h-13.332l6.679-11.524 6.653 11.524zM273.823 138.516l-12.18 21.156h-23.609l-12.179-21.156 12.179-21.16h23.609l12.18 21.16zM255.987 169.336l-6.144 10.613-6.153-10.613h12.297z"/><path fill="#0038b8" d="M499.839 65.84h-500V23.934h500V65.84zM499.839 253.094h-500v-41.903h500v41.903z"/></svg>