<svg xmlns="http://www.w3.org/2000/svg" viewBox="0 0 499.839 277.402"><path fill="#00afca" d="M499.839 277.402V-.375h-500v277.777h500z"/><g fill="#fec50c"><path d="M249.948 57.617c-.758 3.559-2.773 12.09-2.773 13.742a2.768 2.768 0 0 0 2.773 2.766 2.776 2.776 0 0 0 2.781-2.766c.001-1.531-2.054-10.246-2.781-13.742zM237.659 58.824c-.051 3.633-.359 12.391-.035 14.016a2.775 2.775 0 0 0 3.262 2.172 2.772 2.772 0 0 0 2.184-3.254c-.302-1.504-4.016-9.656-5.411-12.934zM225.839 62.395c.66 3.574 2.07 12.223 2.707 13.746a2.784 2.784 0 0 0 3.629 1.504 2.783 2.783 0 0 0 1.504-3.621c-.59-1.415-5.832-8.68-7.84-11.629zM214.948 68.191c1.348 3.379 4.418 11.586 5.34 12.961a2.773 2.773 0 0 0 3.855.766 2.771 2.771 0 0 0 .762-3.844c-.847-1.269-7.414-7.379-9.957-9.883zM205.393 76.004c1.984 3.055 6.609 10.508 7.774 11.672a2.778 2.778 0 0 0 3.93 0 2.753 2.753 0 0 0 0-3.91c-1.086-1.09-8.715-5.805-11.704-7.762zM197.558 85.527c2.543 2.602 8.535 9.02 9.906 9.934 1.27.848 3 .508 3.844-.762.859-1.281.52-3-.762-3.852-1.274-.843-9.676-3.991-12.988-5.32zM191.73 96.383c3.004 2.062 10.129 7.191 11.66 7.82a2.78 2.78 0 0 0 3.629-1.5 2.765 2.765 0 0 0-1.504-3.617c-1.414-.586-10.274-2.035-13.785-2.703zM188.136 108.176c3.355 1.43 11.352 5.074 12.973 5.391a2.763 2.763 0 0 0 3.258-2.172 2.761 2.761 0 0 0-2.18-3.258c-1.504-.301-10.477.012-14.051.039zM186.917 120.434c3.566.758 12.121 2.766 13.777 2.766a2.77 2.77 0 0 0 2.777-2.766 2.774 2.774 0 0 0-2.777-2.766c-1.539 0-10.273 2.043-13.777 2.766zM188.124 132.691c3.648.055 12.426.367 14.043.039a2.77 2.77 0 0 0 2.188-3.25 2.762 2.762 0 0 0-3.262-2.18c-1.504.298-9.676 3.997-12.969 5.391zM191.702 144.484c3.586-.664 12.258-2.062 13.793-2.691a2.767 2.767 0 0 0 1.496-3.625 2.783 2.783 0 0 0-3.625-1.5c-1.418.586-8.703 5.816-11.664 7.816zM197.518 155.355c3.391-1.352 11.613-4.41 12.996-5.332a2.775 2.775 0 0 0 .77-3.844c-.852-1.266-2.586-1.617-3.855-.762-1.278.853-7.403 7.395-9.911 9.938zM205.347 164.883c3.062-1.977 10.535-6.59 11.707-7.754a2.77 2.77 0 0 0 0-3.918 2.77 2.77 0 0 0-3.93 0c-1.078 1.078-5.813 8.687-7.777 11.672zM214.89 172.703c2.613-2.535 9.043-8.512 9.965-9.887a2.773 2.773 0 0 0-.766-3.844c-1.273-.844-3.008-.504-3.852.773-.855 1.267-4 9.65-5.347 12.958zM225.776 178.512c2.07-2.996 7.207-10.105 7.84-11.625a2.763 2.763 0 0 0-1.5-3.621 2.776 2.776 0 0 0-3.629 1.496c-.59 1.41-2.043 10.25-2.711 13.75zM237.593 182.102c1.445-3.344 5.09-11.312 5.418-12.938a2.765 2.765 0 0 0-2.188-3.25 2.755 2.755 0 0 0-3.258 2.168c-.304 1.504.008 10.453.028 14.02zM249.882 183.316c.766-3.562 2.781-12.09 2.781-13.738a2.773 2.773 0 0 0-2.781-2.773 2.77 2.77 0 0 0-2.773 2.762c-.001 1.538 2.054 10.249 2.773 13.749zM262.179 182.113c.051-3.641.352-12.395.039-14.012a2.78 2.78 0 0 0-3.266-2.176 2.763 2.763 0 0 0-2.184 3.25c.297 1.501 4.012 9.661 5.411 12.938zM273.995 178.551c-.66-3.582-2.07-12.234-2.703-13.766a2.772 2.772 0 0 0-3.625-1.492 2.76 2.76 0 0 0-1.504 3.621c.586 1.414 5.82 8.68 7.832 11.637zM284.89 172.746c-1.344-3.387-4.418-11.602-5.344-12.969a2.779 2.779 0 0 0-3.852-.758 2.762 2.762 0 0 0-.758 3.84c.852 1.27 7.407 7.379 9.954 9.887zM294.444 164.938c-1.984-3.059-6.605-10.508-7.773-11.68a2.78 2.78 0 0 0-3.926 0 2.756 2.756 0 0 0 0 3.918c1.086 1.082 8.715 5.797 11.699 7.762zM302.28 155.418c-2.539-2.609-8.527-9.027-9.902-9.945a2.795 2.795 0 0 0-3.855.762 2.775 2.775 0 0 0 .762 3.848c1.28.855 9.687 3.995 12.995 5.335zM308.116 144.555c-3.004-2.066-10.133-7.188-11.664-7.824a2.784 2.784 0 0 0-3.625 1.496 2.763 2.763 0 0 0 1.5 3.625c1.418.582 10.27 2.039 13.789 2.703zM311.706 132.766c-3.352-1.438-11.344-5.078-12.969-5.402a2.775 2.775 0 0 0-3.266 2.18 2.77 2.77 0 0 0 2.184 3.258c1.508.296 10.473-.009 14.051-.036zM312.925 120.5c-3.57-.754-12.121-2.773-13.777-2.773a2.774 2.774 0 0 0-2.773 2.773 2.777 2.777 0 0 0 2.773 2.777c1.535 0 10.273-2.054 13.777-2.777zM311.722 108.242c-3.652-.051-12.426-.355-14.051-.043a2.779 2.779 0 0 0-2.184 3.262 2.78 2.78 0 0 0 3.266 2.176c1.504-.293 9.676-4.008 12.969-5.395zM308.143 96.449c-3.586.656-12.258 2.062-13.793 2.699a2.767 2.767 0 0 0-1.5 3.621 2.782 2.782 0 0 0 3.633 1.496c1.414-.593 8.7-5.812 11.66-7.816zM302.331 85.578c-3.387 1.348-11.625 4.414-13 5.332a2.765 2.765 0 0 0-.766 3.84 2.771 2.771 0 0 0 3.852.758c1.277-.844 7.402-7.387 9.914-9.93zM294.503 76.047c-3.066 1.98-10.535 6.59-11.703 7.758a2.76 2.76 0 0 0 0 3.922 2.775 2.775 0 0 0 3.922 0c1.086-1.078 5.816-8.696 7.781-11.68zM284.96 68.227c-2.617 2.535-9.043 8.516-9.969 9.883a2.776 2.776 0 1 0 4.622 3.078c.851-1.262 4.003-9.653 5.347-12.961zM274.069 62.414c-2.066 2.996-7.203 10.109-7.84 11.629a2.769 2.769 0 0 0 1.508 3.621 2.778 2.778 0 0 0 3.629-1.496c.582-1.414 2.035-10.25 2.703-13.754zM262.257 58.828c-1.445 3.34-5.094 11.32-5.414 12.937a2.764 2.764 0 0 0 2.18 3.258 2.779 2.779 0 0 0 3.266-2.176c.296-1.503-.009-10.448-.032-14.019zM249.921 162.168c23.086 0 41.801-18.672 41.801-41.707 0-23.02-18.715-41.691-41.801-41.691-23.086 0-41.801 18.672-41.801 41.691 0 23.035 18.715 41.707 41.801 41.707z"/><path d="M247.991 189.938c-2.812.34-11.395-.441-16.078-2.332-7.742-3.102-15.715-5.215-19.961-8.891-5.387-4.652-23.09-14.355-29.66-41.312-1.277-5.246-1.145-7.418-2.617-7.355-.75.027-1.344 4.129-.586 8.812.711 4.398-.625 3.922-3.105-1.82-2.375-5.504-3.918-10.051-4.512-14.621-.449-3.473-3.184-.297-2.582 4.801.52 4.352 3.66 12.91 6.734 17.68 2.637 4.078.668 4.184-2.094.668-2.758-3.52-6.656-8.898-8.75-14.781-2.094-5.891-2.215 2.34-1.23 5.5 2.574 8.27 8.844 15.836 12.27 19.254 3.426 3.414 2 4.266-1.238 1.902-3.238-2.375-4.445-2.789-8.16-6.688-3.715-3.895-5.141-2.09-1.809 1.996 3.328 4.086 6.746 7.398 10.82 10.574 2.195 1.715 3.992 3.488.766 3.043-2.102-.285-5.332-2.566-6.766-3.988-1.422-1.426-3.82-1.453-1.707 1.324 2.383 3.137 8.016 8.281 12.57 9.879 1.617.574.285 1.617-3.141.859-3.438-.766-1.055 1.703.664 2.566 1.715.852 4.473 1.805 6.473 2.184 1.992.375 1.336 1.23-.387 1.324-1.711.098-3.039-.043-4.043-.379-1-.332-.234 1.094.859 1.617 1.09.523 2.996 1.09 4.43 1.188 1.43.098 1 1.848-.57 1.473-1.574-.379-3.289-.711-2.476.52.809 1.238 5.379 1.855 8.473 1.996 3.098.141 1.996 1.188.422 1.57-1.566.379-2.992.426-4.09.426-1.094 0-1.812 1.66.617 1.805 2.426.145 5.809.328 10.762 2.805 6.527 3.262 15.203 6.324 21.348 5.465 5.43-.766 2.477-2.297-.188-1.992-4.285.469-7.922-2.621-10.875-2.621-2.953 0-7.379-3.398-10.379-3.801-1.43-.191-2.57-1.422-.664-1.898 1.906-.48 2.566-1.5 2.379-2.277-.289-1.188-3.621-.047-5.715-.992-1.633-.746-1.414-1.328-.047-2.289 1.844-1.285.523-2.266-2.191-2.312-2.711-.051-3.234-1.387-1.902-2.391 1.336-.996.617-1.656-.715-1.566-1.332.102-1.152-1.184-.289-1.469.852-.285.609-.973-.434-1.09-2.426-.285-4.066-2.656-5.898-3.418-1.527-.645-1.426-1.316-.719-1.238.719.074 1.539-.371.391-1.285-1.715-1.352.117-1.969-2.312-3.367-1.848-1.07-2.445-2.125-2.094-2.926.449-1.02 3.352-.301 3.57-1.809.18-1.254-3.699-2.984-3.594-4.906.047-.879.738-.898 1.48-.504.727.406 1.586.453 1.352-.539-.262-1.141.125-1.625 1.762-.715 4.406 2.422 9.551 9.672 14.496 17.141 3.336 5.031 6.766 7.102 9.617 7.883 3.809 1.047 11.191 6.039 14.379 8.93 2.094 1.902 3.711 3.133 7.523 2.375 3.805-.758 7.898.098 11.137 1.613 3.238 1.516 6.324 3.344 9.238-.379 1.187-1.527.96-1.461-.954-1.222zM270.647 191.535c-8.477.156-13.707 1.055-15.703 2.758-3.906 3.328-4.668 1.617-6.477 2.844-1.809 1.242-3.332 1.383-4.188.859-.859-.52-1.051-1.094.707-1.52 1.766-.426 3.145-1.949 4.004-2.848 2.809-2.949 7.637-3.688 11.566-4.465 12.949-2.566 32.035-9.52 45.031-26.355 8.953-11.586 12.012-23.828 13.617-35.059.57-3.984 2.531-2.988 2.816-.328.285 2.66-.383 9.121-.855 11.211-.477 2.082-.051 3.754 1.906.664 2.953-4.656 5.805-14.25 6.664-19s2.492-4.273 2.566.195c.121 6.617-3.02 16.984-8.902 25.926-2.344 3.562-1.195 4.867 2 1.242 4.605-5.238 6.656-8.012 8.93-13.227 1.934-4.449 3.453-3.578 1.809 1.992-2.379 8.074-7.027 13.891-10.934 18.262-3.902 4.363-2.379 4.363-.094 3.605 2.285-.758 6.082-4.066 8.938-7.867 2.855-3.797 3.812-2.098 1.875 1.457-1.793 3.316-6.641 8.98-9.953 12.203-2.605 2.535-.289 2.664 1.426 1.047 1.715-1.617 3.051-3.613 4.855-4.086 1.812-.477 4.039-.434-.473 4.273-2.094 2.188-8.379 6.746-11.426 8.168-3.047 1.426-1.906 2.57.473 1.992 2.383-.566 6.098-2.527 6.098-1.418 0 1.23-2.762 2.367-5.047 3.32-2.453 1.02-3.863 3.277-.906 3.277 1.383 0 1 1.145-.238 1.379-1.234.238-3.586.379-3.762 1.426-.098.57.809.996 1.574 1.047.762.047.848.652-.191 1.422-3.332 2.473-7.809 1.047-9.621 2.375-1.805 1.324 0 1.227 2.242 1.188 2.617-.047 4.906 1.98 1.23 2.039-5.18.098-11.797 1.543-17.273 4.09-4.094 1.898-7.324-.156-1.809-2.188 3.094-1.141 7.539-2.766 9.043-3.516 3.43-1.715-2.223-1.086 1.383-3.277 1.094-.66 3.52-.711 3.52-1.566 0-.852-2.27-1.312-.426-2.281.902-.477 2.66-.617 3.656-.52 1.008.094 1.961-1.277.391-1.707-1.574-.434-1.527-1.285.285-1.711 1.812-.434 3.711-.953 4.715-1.43.996-.469.852-1.32-1.004-1.418-1.855-.094-2.09-.82-.379-1.43 2-.711 4.57-2.184 6.145-3.18 1.566-.996 1.281-1.57-.289-2.043-1.57-.473-1.766-.762-.34-1.57 1.527-.855 2.738-1.805 3.055-2.703.332-.949.559-1.941-1.191-1.809-1.902.145-2.855.145-2.664-1.855.191-1.984.641-2.629 1.805-3.98 1.191-1.379.227-2.461-2.715-1.332-4.945 1.898-6.422 2.375-8.711 5.789-2.285 3.422-5.141 7.219-6.66 10.359-1.523 3.133-5.148 6.555-8.664 7.504-3.523.945-11.469 4.555-14.855 7.219-4.477 3.518-3.43 4.463-8.575 4.557zM230.183 205.645c-1.664-.855-1.805-2.238.863-2.707 2.465-.438 2.43-.379 3.664-1 1.234-.613 5.711-2.754 7.711-2.805 1.996-.043 1.762 1.477-.094 1.527-1.855.043-6.191 2.133-7.711 3.223-1.527 1.098-2.285 1.289-3.098 1.098-.808-.192-1.14.132-1.335.664zM226.042 212.199c-1.805-1.996 0-4.184 2.621-5.277.73-.305 1.664 1.141 4.285.906 2.617-.242 5.355-.594 3.953-2.09-.766-.805-1.102-1.57.094-1.57.477 0 .902-.047 1.285-.285.379-.234 1-.328 1.473-.062.477.258.93.328 1.594.234.672-.098 1.211.418.457 1.02-1.668 1.324-.426 2.375.754 2.188 1.199-.191 3.242-.285 4.387.094 1.141.379 2.238.422 3.141.23.906-.184 2.691-.043 4.574.762 2.328.996 1.969 2.469 0 2.137-4.766-.805-8.477-.996-11.145-.52-2.664.477-7.121.07-10.09-.379-2.528-.376-5-.622-7.383 2.612z"/><path d="M243.8 213.051c-1.379 2.121-3.52 3.559-5.902 4.23-2.379.664-3.523 1.516-.57 1.898 2.953.383 4.094-.293 5.617-.953 1.523-.664 2.016-2.125 3.047-.281.953 1.707 2.141 1.523 3.945-.191 1.008-.957 1.719-1.617 2.816-1.574 1.094.051 1.375.285.574 1.336-.816 1.043-.102 2.852 1.566 1.281 1.664-1.562 2.473-2.566 3.809-2.512 1.336.043 1.047.609.098 1.516-.953.906-1.477 1.711.516 1.52 2.004-.188 2.957-.434 3.676-1.707.711-1.285 1.23-1.906 2.949-.523 1.715 1.379 2.617 2.562 3.43 1.094.805-1.473 1.23-1.902 2.18-1.094 1.293 1.094 5.574.191 5.863-1.809.129-.891.238-2.043 1.715-.754 1.473 1.277 4.379.852 4.422-.766.051-1.613.957-1.848 2.434-1.277 1.473.566 3.281.805 4.234-.047.953-.859 1.242-1.383.621-2.613-.621-1.238-.426-2.441 1.473-1.715 3.098 1.188 6.617 2.332 8.906-.422 2.281-2.754 3.043-3.426-.762-3.328-3.812.094-10.668-.477-13.809-.852-3.141-.383-7.332-1.188-8.238-1.188-.898 0-1.137.285-1.047.902.098.617-1.141.617-1.281 1.516-.145.906-.809 1.379-1.809.906-1.004-.473-1.242-.145-.859.801.383.957.297 1.848-1.047 1.57-3.477-.711-5.504.57-8.145 1.715-5.473 2.371-8.949 2.707-13.231 2.227-4.285-.477-5.855-.949-7.191 1.094z"/></g><path d="M32.722 202.379c0-3.52-5.879-12.695-13.898-8.141-10.23 5.805 5.316 28.258 9.852 40.293 2.441 6.488-.453 10.074-3.59 10.344-3.438.305-4.648-1.555-5.109-3.867-.34-1.699 1.328-3.441 3.012-3.652 1.676-.203 2.824 1.18 2.207 2.145-3.512-1.172-4.273 3.34-1.18 3.512 4.039.23 4.965-4.551 3.137-6.344-1.836-1.797-5.543-1.652-6.574-.066.543-1.582 1.043-3.871.996-6.211-.023-.828.383-3.969 1.336-4.691-.766-.344-2.16.352-1.973.934-.676-1.906-1.961-3.594-4.18-4.66 2.754 5.246 2.754 10.102.992 13.941-2.215 4.824-.762 12.547 7.793 11.516 8.117-.98 9.473-8.551 4.281-18.973-5.168-10.359-15.965-28.629-8.562-32.012 2.594-1.184 6.27 1.035 8.184 4.621.68 1.281.113 1.727-1.148 1.727h-2.559v-.551c0-2.105-2.106-2.105-2.106 0v.551c-.762 0-1.297.727-1.297 1.105 0 .379.535 1.102 1.297 1.102v.551c0 2.109 2.106 2.109 2.106 0V205h3.934c.57 0 1.066.309 1.066 1.172v8.766c0 .828-2.789.484-2.598-1.344.082-.762-.457-.969-.758-.625-2.742 3.09 2.328 5.039 3.356 4.035v5.316c0 3.652 3.969 3.652 3.969 0v-5.316c1.031 1.004 6.102-.945 3.367-4.035-.305-.344-.844-.137-.762.625.191 1.828-2.605 2.172-2.605 1.344v-8.766c0-.863.5-1.172 1.078-1.172h3.934v.551c0 2.109 2.098 2.109 2.098 0V205c.766 0 1.301-.723 1.301-1.102 0-.379-.535-1.105-1.301-1.105v-.551c0-2.105-2.098-2.105-2.098 0v.551h-2.562c-1.258 0-1.832-.445-1.148-1.727 1.91-3.586 5.59-5.805 8.176-4.621 7.41 3.383-3.391 21.652-8.551 32.012-5.199 10.422-3.84 17.992 4.273 18.973 8.558 1.031 10.008-6.691 7.797-11.516-1.766-3.84-1.766-8.695.992-13.941-2.219 1.066-3.504 2.754-4.184 4.66.191-.582-1.207-1.277-1.969-.934.957.723 1.355 3.863 1.34 4.691-.055 2.34.453 4.629.992 6.211-1.027-1.586-4.738-1.73-6.57.066-1.832 1.793-.914 6.574 3.133 6.344 3.094-.172 2.328-4.684-1.188-3.512-.609-.965.539-2.348 2.219-2.145 1.683.211 3.344 1.953 3.004 3.652-.461 2.312-1.668 4.172-5.105 3.867-3.133-.27-6.035-3.855-3.59-10.344 4.535-12.035 20.082-34.488 9.856-40.293-8.023-4.552-13.913 4.623-13.913 8.143z" fill="#fec50c"/><path d="M32.722 272.977c1.914 2.137 4.805 2.336 6.883.758 4.277-3.238-.992-7.652-2.664-12.828-2.133-6.574-.625-10.281 3.426-10.762 3.426-.406 4.645 1.551 5.105 3.871.34 1.703-1.32 3.438-3.004 3.648-1.68.203-2.828-1.172-2.219-2.137 3.516 1.172 4.281-3.348 1.188-3.523-4.047-.227-4.965 4.555-3.133 6.348s5.543 1.66 6.57.074c-.539 1.578-1.047 3.863-.992 6.203.016.836-.383 3.969-1.34 4.695.762.344 2.16-.348 1.969-.934.68 1.906 1.965 3.594 4.184 4.66-2.758-5.242-2.758-10.098-.992-13.941 2.211-4.82.762-12.551-7.797-11.52-8.113.98-9.703 9.035-3.406 20.672 2.113 3.906-3.008 4.234-3.777.992-.758 3.242-5.879 2.914-3.77-.992 6.293-11.637 4.707-19.691-3.41-20.672-8.555-1.031-10.008 6.699-7.793 11.52 1.762 3.844 1.762 8.699-.992 13.941 2.219-1.066 3.504-2.754 4.18-4.66-.188.586 1.207 1.277 1.973.934-.953-.727-1.359-3.859-1.336-4.695.047-2.34-.453-4.625-.996-6.203 1.031 1.586 4.738 1.719 6.574-.074 1.828-1.793.902-6.574-3.137-6.348-3.094.176-2.332 4.695 1.18 3.523.617.965-.531 2.34-2.207 2.137-1.684-.211-3.352-1.945-3.012-3.648.461-2.32 1.688-4.277 5.109-3.871 4.051.48 5.551 4.188 3.426 10.762-1.668 5.176-6.941 9.59-2.664 12.828 2.077 1.577 4.967 1.378 6.874-.758zM32.722 183.613c0 3.516-5.879 12.695-13.898 8.141-10.23-5.805 5.316-28.25 9.852-40.289 2.441-6.48-.453-10.078-3.59-10.352-3.438-.301-4.648 1.559-5.109 3.875-.34 1.703 1.328 3.438 3.012 3.645 1.676.211 2.824-1.168 2.207-2.141-3.512 1.176-4.273-3.344-1.18-3.52 4.039-.219 4.965 4.555 3.137 6.348-1.836 1.797-5.543 1.66-6.574.07.543 1.582 1.043 3.867.996 6.219-.023.82.383 3.957 1.336 4.684-.766.348-2.16-.344-1.973-.934-.676 1.91-1.961 3.598-4.18 4.66 2.754-5.242 2.754-10.102.992-13.938-2.215-4.828-.762-12.555 7.793-11.52 8.117.98 9.473 8.555 4.281 18.973-5.168 10.359-15.965 28.629-8.562 32.008 2.594 1.18 6.27-1.035 8.184-4.617.68-1.277.113-1.727-1.148-1.727h-2.559v.555c0 2.102-2.106 2.102-2.106 0v-.555c-.762 0-1.297-.727-1.297-1.102 0-.383.535-1.105 1.297-1.105v-.551c0-2.105 2.106-2.105 2.106 0v.551h3.934c.57 0 1.066-.316 1.066-1.176v-8.762c0-.828-2.789-.48-2.598 1.348.082.758-.457.965-.758.617-2.742-3.086 2.328-5.031 3.356-4.035v-5.312c0-3.652 3.969-3.652 3.969 0v5.312c1.031-.996 6.102.949 3.367 4.035-.305.348-.844.141-.762-.617.191-1.828-2.605-2.176-2.605-1.348v8.762c0 .859.5 1.176 1.078 1.176h3.934v-.551c0-2.105 2.098-2.105 2.098 0v.551c.766 0 1.301.723 1.301 1.105 0 .375-.535 1.102-1.301 1.102v.555c0 2.102-2.098 2.102-2.098 0v-.555h-2.562c-1.258 0-1.832.449-1.148 1.727 1.91 3.582 5.59 5.797 8.176 4.617 7.41-3.379-3.391-21.648-8.551-32.008-5.199-10.418-3.84-17.992 4.273-18.973 8.558-1.035 10.008 6.691 7.797 11.52-1.766 3.836-1.766 8.695.992 13.938-2.219-1.062-3.504-2.75-4.184-4.66.191.59-1.207 1.281-1.969.934.957-.727 1.355-3.863 1.34-4.684-.055-2.352.453-4.637.992-6.219-1.027 1.59-4.738 1.727-6.57-.07-1.832-1.793-.914-6.566 3.133-6.348 3.094.176 2.328 4.695-1.188 3.52-.609.973.539 2.352 2.219 2.141 1.683-.207 3.344-1.941 3.004-3.645-.461-2.316-1.668-4.176-5.105-3.875-3.133.273-6.035 3.871-3.59 10.352 4.535 12.039 20.082 34.484 9.856 40.289-8.023 4.555-13.913-4.625-13.913-8.141zM32.722 74.68c0 3.516-5.879 12.691-13.898 8.137-10.23-5.801 5.316-28.25 9.852-40.289 2.441-6.484-.453-10.07-3.59-10.348-3.438-.305-4.648 1.555-5.109 3.871-.34 1.703 1.328 3.445 3.012 3.652 1.676.203 2.824-1.18 2.207-2.145-3.512 1.172-4.273-3.344-1.18-3.516 4.039-.227 4.965 4.559 3.137 6.348-1.836 1.793-5.543 1.652-6.574.062.543 1.582 1.043 3.871.996 6.211-.023.832.383 3.969 1.336 4.699-.766.34-2.16-.355-1.973-.941-.676 1.906-1.961 3.602-4.18 4.66 2.754-5.242 2.754-10.102.992-13.938-2.215-4.828-.762-12.551 7.793-11.512 8.117.977 9.473 8.547 4.281 18.965-5.168 10.359-15.965 28.629-8.562 32.012 2.594 1.184 6.27-1.035 8.184-4.617.68-1.277.113-1.727-1.148-1.727h-2.559v.547c0 2.105-2.106 2.105-2.106 0v-.547c-.762 0-1.297-.73-1.297-1.105 0-.379.535-1.102 1.297-1.102v-.555c0-2.105 2.106-2.105 2.106 0v.555h3.934c.57 0 1.066-.316 1.066-1.172v-8.77c0-.824-2.789-.477-2.598 1.348.082.758-.457.965-.758.625-2.742-3.09 2.328-5.035 3.356-4.039v-5.312c0-3.648 3.969-3.648 3.969 0v5.312c1.031-.996 6.102.949 3.367 4.039-.305.34-.844.133-.762-.625.191-1.824-2.605-2.172-2.605-1.348v8.77c0 .855.5 1.172 1.078 1.172h3.934v-.555c0-2.105 2.098-2.105 2.098 0v.555c.766 0 1.301.723 1.301 1.102 0 .375-.535 1.105-1.301 1.105v.547c0 2.105-2.098 2.105-2.098 0v-.547h-2.562c-1.258 0-1.832.449-1.148 1.727 1.91 3.582 5.59 5.801 8.176 4.617 7.41-3.383-3.391-21.652-8.551-32.012-5.199-10.418-3.84-17.988 4.273-18.965 8.558-1.039 10.008 6.684 7.797 11.512-1.766 3.836-1.766 8.695.992 13.938-2.219-1.059-3.504-2.754-4.184-4.66.191.586-1.207 1.281-1.969.941.957-.73 1.355-3.867 1.34-4.699-.055-2.34.453-4.629.992-6.211-1.027 1.59-4.738 1.73-6.57-.062-1.832-1.789-.914-6.574 3.133-6.348 3.094.172 2.328 4.688-1.188 3.516-.609.965.539 2.348 2.219 2.145 1.683-.207 3.344-1.949 3.004-3.652-.461-2.316-1.668-4.176-5.105-3.871-3.133.277-6.035 3.863-3.59 10.348 4.535 12.039 20.082 34.488 9.856 40.289-8.023 4.554-13.913-4.622-13.913-8.137z" fill="#fec50c"/><path d="M32.722 4.078c1.914-2.137 4.805-2.332 6.883-.758 4.277 3.246-.992 7.656-2.664 12.828-2.133 6.578-.625 10.281 3.426 10.762 3.426.41 4.645-1.551 5.105-3.867.34-1.707-1.32-3.441-3.004-3.648-1.68-.207-2.828 1.168-2.219 2.141 3.516-1.18 4.281 3.344 1.188 3.52-4.047.223-4.965-4.555-3.133-6.351 1.832-1.793 5.543-1.66 6.57-.07-.539-1.574-1.047-3.867-.992-6.207.016-.836-.383-3.969-1.34-4.691.762-.344 2.16.348 1.969.93.68-1.906 1.965-3.594 4.184-4.656-2.758 5.246-2.758 10.101-.992 13.937 2.211 4.824.762 12.555-7.797 11.52-8.113-.98-9.703-9.035-3.406-20.672 2.113-3.906-3.008-4.234-3.777-.992-.758-3.242-5.879-2.914-3.77.992 6.293 11.637 4.707 19.691-3.41 20.672-8.555 1.035-10.008-6.695-7.793-11.52 1.762-3.836 1.762-8.691-.992-13.937 2.219 1.062 3.504 2.75 4.18 4.656-.188-.582 1.207-1.273 1.973-.93-.953.723-1.359 3.856-1.336 4.691.047 2.34-.453 4.633-.996 6.207 1.031-1.59 4.738-1.723 6.574.07 1.828 1.797.902 6.574-3.137 6.351-3.094-.176-2.332-4.699 1.18-3.52.617-.973-.531-2.348-2.207-2.141-1.684.207-3.352 1.941-3.012 3.648.461 2.316 1.688 4.277 5.109 3.867 4.051-.48 5.551-4.184 3.426-10.762-1.668-5.172-6.941-9.582-2.664-12.828 2.077-1.574 4.967-1.379 6.874.758zM32.722 93.445c0-3.516-5.879-12.699-13.898-8.141-10.23 5.805 5.316 28.25 9.852 40.285 2.441 6.488-.453 10.078-3.59 10.352-3.438.305-4.648-1.555-5.109-3.875-.34-1.695 1.328-3.438 3.012-3.645 1.676-.207 2.824 1.176 2.207 2.141-3.512-1.176-4.273 3.348-1.18 3.52 4.039.223 4.965-4.551 3.137-6.348-1.836-1.793-5.543-1.656-6.574-.07.543-1.578 1.043-3.867.996-6.211-.023-.828.383-3.965 1.336-4.684-.766-.352-2.16.34-1.973.93-.676-1.91-1.961-3.602-4.18-4.66 2.754 5.238 2.754 10.105.992 13.934-2.215 4.832-.762 12.559 7.793 11.52 8.117-.977 9.473-8.551 4.281-18.969-5.168-10.363-15.965-28.633-8.562-32.016 2.594-1.176 6.27 1.039 8.184 4.625.68 1.285.113 1.723-1.148 1.723h-2.559v-.551c0-2.102-2.106-2.102-2.106 0v.551c-.762 0-1.297.727-1.297 1.105 0 .383.535 1.102 1.297 1.102v.551c0 2.109 2.106 2.109 2.106 0v-.551h3.934c.57 0 1.066.312 1.066 1.18v8.758c0 .828-2.789.484-2.598-1.344.082-.762-.457-.965-.758-.621-2.742 3.082 2.328 5.039 3.356 4.035v5.312c0 3.652 3.969 3.652 3.969 0v-5.312c1.031 1.004 6.102-.953 3.367-4.035-.305-.344-.844-.141-.762.621.191 1.828-2.605 2.172-2.605 1.344v-8.758c0-.867.5-1.18 1.078-1.18h3.934v.551c0 2.109 2.098 2.109 2.098 0v-.551c.766 0 1.301-.719 1.301-1.102 0-.379-.535-1.105-1.301-1.105v-.551c0-2.102-2.098-2.102-2.098 0v.551h-2.562c-1.258 0-1.832-.438-1.148-1.723 1.91-3.586 5.59-5.801 8.176-4.625 7.41 3.383-3.391 21.652-8.551 32.016-5.199 10.418-3.84 17.992 4.273 18.969 8.558 1.039 10.008-6.688 7.797-11.52-1.766-3.828-1.766-8.695.992-13.934-2.219 1.059-3.504 2.75-4.184 4.66.191-.59-1.207-1.281-1.969-.93.957.719 1.355 3.855 1.34 4.684-.055 2.344.453 4.633.992 6.211-1.027-1.586-4.738-1.723-6.57.07-1.832 1.797-.914 6.57 3.133 6.348 3.094-.172 2.328-4.695-1.188-3.52-.609-.965.539-2.348 2.219-2.141 1.683.207 3.344 1.949 3.004 3.645-.461 2.32-1.668 4.18-5.105 3.875-3.133-.273-6.035-3.863-3.59-10.352 4.535-12.035 20.082-34.48 9.856-40.285-8.023-4.558-13.913 4.626-13.913 8.141z" fill="#fec50c"/></svg>