<svg xmlns="http://www.w3.org/2000/svg" viewBox="0 0 499.839 277.402"><path fill="#b00" d="M499.839 180.191h-500V96.856h500v83.335z"/><path d="M499.839 82.961h-500V-.375h500v83.336z"/><path fill="#060" d="M499.839 277.402h-500v-83.32h500v83.32z"/><path fill="#fff" d="M499.839 96.856h-500V82.961h500v13.895zM499.839 194.082h-500v-13.891h500v13.891z"/><g><path d="M196.608 238.562l91.84-154.367c6.832 1.918 11.793-6.691 16.281-20.074 5.262-15.672 9.566-26.312 8.672-26.844-.895-.527-8.188 8.336-19.449 20.43-9.746 10.473-14.969 19.023-9.672 24.094l-91.805 154.301c-.683 1.152 3.438 3.621 4.133 2.46z" fill="#fff"/><path d="M196.608 238.562l91.84-154.367c6.832 1.918 11.793-6.691 16.281-20.074 5.262-15.672 9.566-26.312 8.672-26.844-.895-.527-8.188 8.336-19.449 20.43-9.746 10.473-14.969 19.023-9.672 24.094l-91.805 154.301c-.683 1.152 3.438 3.621 4.133 2.46z" fill="none" stroke="#000" stroke-width=".071"/><path d="M303.077 238.562L211.233 84.195c-6.836 1.918-11.797-6.691-16.285-20.074-5.258-15.672-9.566-26.312-8.672-26.844.898-.527 8.188 8.336 19.453 20.43 9.742 10.473 14.965 19.023 9.668 24.094l91.805 154.301c.684 1.152-3.434 3.621-4.125 2.46z" fill="#fff"/><path d="M303.077 238.562L211.233 84.195c-6.836 1.918-11.797-6.691-16.285-20.074-5.258-15.672-9.566-26.312-8.672-26.844.898-.527 8.188 8.336 19.453 20.43 9.742 10.473 14.965 19.023 9.668 24.094l91.805 154.301c.684 1.152-3.434 3.621-4.125 2.46z" fill="none" stroke="#000" stroke-width=".071"/><path d="M249.839 239.773c31.438-23.582 46.574-55.016 46.574-94.609 0-39.586-15.137-71.023-46.574-94.609-31.438 23.586-46.578 55.023-46.578 94.609 0 39.594 15.14 71.027 46.578 94.609z" fill="#b00"/><path d="M249.839 239.773c31.438-23.582 46.574-55.016 46.574-94.609 0-39.586-15.137-71.023-46.574-94.609-31.438 23.586-46.578 55.023-46.578 94.609 0 39.594 15.14 71.027 46.578 94.609z" fill="none" stroke="#000" stroke-width=".071"/><path d="M213.276 195.312c6.719-14.961 10.016-31.555 10.016-50.039s-3.297-35.074-10.016-50.035c-6.715 14.961-10.016 31.551-10.016 50.035s3.301 35.079 10.016 50.039zM286.472 195.312c-6.715-14.961-10.012-31.555-10.012-50.039s3.297-35.074 10.012-50.035c6.715 14.961 10.016 31.551 10.016 50.035s-3.302 35.079-10.016 50.039z" stroke="#000" stroke-width=".071"/><path d="M249.839 157.102c3.863 0 7-5.344 7-11.938s-3.137-11.938-7-11.938c-3.867 0-6.996 5.344-6.996 11.938s3.129 11.938 6.996 11.938zM246.925 125.602c-6.336-9.32-9.402-21.16-9.402-35.602 0-14.445 3.066-26.285 9.402-35.602v71.204zM252.753 125.602c6.34-9.32 9.398-21.16 9.398-35.602 0-14.445-3.059-26.285-9.398-35.602v71.204zM246.925 164.711c-6.336 9.32-9.402 21.16-9.402 35.602 0 14.441 3.066 26.277 9.402 35.605v-71.207zM252.753 164.711c6.34 9.32 9.398 21.16 9.398 35.602 0 14.441-3.059 26.277-9.398 35.605v-71.207z" fill="#fff"/></g></svg>