<svg xmlns="http://www.w3.org/2000/svg" viewBox="0 0 499.839 277.402"><path fill="#ec1c2e" d="M499.839 277.402V-.375h-500v277.777h500z"/><path d="M253.851 87.57c.117-8.852 7.957-14.941 8.289-26.73 5.629 7.059-3.672 20.305-.367 27.984 1.496-8.719 10.191-13.508 12.371-25.105 4.453 7.859-6.805 19.484-4.746 27.586 2.844-8.383 12.188-11.75 16.148-22.863 3.168 8.457-9.77 18.18-9 26.504 4.117-7.836 13.867-9.699 19.52-20.059 1.812 8.852-12.492 16.43-13.031 24.773 5.293-7.094 15.215-7.41 22.414-16.754.406 9.02-14.91 14.27-16.75 22.422 6.34-6.176 16.191-4.934 24.766-13.043-1.012 8.977-16.953 11.77-20.051 19.531 7.227-5.109 16.762-2.34 26.5-9.004-2.41 8.703-18.586 8.965-22.859 16.148 7.934-3.914 16.922.309 27.582-4.75-3.734 8.223-19.758 5.949-25.102 12.375 8.449-2.625 16.664 2.953 27.984-.375-4.98 7.539-20.449 2.785-26.734 8.297 8.762-1.27 16.004 5.523 27.703 4.008-6.098 6.664-20.633-.449-27.703 4.012 8.848.113 14.941 7.961 26.734 8.293-7.066 5.629-20.309-3.672-27.988-.375 8.723 1.504 13.508 10.199 25.105 12.375-7.859 4.453-19.48-6.805-27.586-4.746 8.383 2.848 11.746 12.184 22.863 16.145-8.457 3.172-18.184-9.77-26.5-9 7.832 4.121 9.695 13.871 20.051 19.527-8.848 1.805-16.422-12.492-24.77-13.039 7.098 5.293 7.414 15.215 16.754 22.422-9.023.398-14.27-14.91-22.422-16.754 6.176 6.34 4.938 16.191 13.039 24.77-8.973-1.02-11.762-16.957-19.527-20.055 5.109 7.23 2.344 16.766 9.008 26.5-8.707-2.406-8.965-18.586-16.152-22.863 3.914 7.941-.312 16.93 4.75 27.586-8.223-3.738-5.945-19.762-12.379-25.105 2.629 8.453-2.949 16.664.375 27.988-7.535-4.977-2.781-20.449-8.293-26.734 1.266 8.758-5.523 16.004-4.008 27.699-6.664-6.094.449-20.633-4.012-27.699-.117 8.852-7.957 14.941-8.289 26.73-5.633-7.062 3.672-20.309.371-27.984-1.5 8.727-10.203 13.508-12.375 25.105-4.453-7.859 6.805-19.48 4.746-27.586-2.844 8.383-12.188 11.746-16.145 22.863-3.172-8.457 9.762-18.18 8.996-26.504-4.117 7.836-13.867 9.699-19.52 20.059-1.809-8.852 12.492-16.43 13.039-24.77-5.297 7.094-15.219 7.406-22.426 16.754-.398-9.027 14.906-14.273 16.754-22.426-6.34 6.176-16.191 4.938-24.766 13.043 1.016-8.977 16.953-11.766 20.055-19.527-7.234 5.105-16.77 2.34-26.504 9 2.402-8.707 18.59-8.965 22.859-16.148-7.941 3.914-16.922-.305-27.582 4.75 3.738-8.223 19.762-5.945 25.105-12.379-8.457 2.625-16.668-2.949-27.984.379 4.977-7.539 20.445-2.785 26.734-8.297-8.766 1.27-16.012-5.523-27.703-4.008 6.094-6.66 20.633.453 27.703-4.012-8.852-.113-14.941-7.957-26.734-8.293 7.062-5.629 20.309 3.672 27.988.371-8.727-1.5-13.512-10.195-25.105-12.371 7.855-4.453 19.48 6.805 27.578 4.75-8.383-2.852-11.746-12.188-22.855-16.148 8.449-3.172 18.176 9.766 26.5 9-7.836-4.121-9.695-13.875-20.055-19.527 8.852-1.805 16.422 12.492 24.766 13.043-7.094-5.301-7.406-15.223-16.75-22.422 9.023-.402 14.269 14.906 22.422 16.75-6.176-6.344-4.934-16.191-13.039-24.77 8.973 1.02 11.762 16.961 19.527 20.055-5.109-7.23-2.344-16.762-9.004-26.5 8.707 2.406 8.965 18.59 16.148 22.863-3.914-7.941.309-16.93-4.746-27.59 8.223 3.746 5.945 19.766 12.371 25.105-2.621-8.453 2.949-16.664-.371-27.984 7.531 4.98 2.781 20.449 8.297 26.734-1.273-8.762 5.512-16 4.004-27.703 6.67 6.098-.447 20.633 4.014 27.703z" fill="#ffe01b"/><path d="M249.855 180.074c22.953 0 41.555-18.605 41.555-41.559 0-22.953-18.602-41.559-41.555-41.559s-41.559 18.605-41.559 41.559c0 22.954 18.605 41.559 41.559 41.559z" fill="#ec1c2e"/><path d="M249.847 102.274c10.602 0 20.133 4.535 26.762 11.797-10.402 1.051-19.238 3.504-26.762 7.242-7.527-3.738-16.363-6.191-26.766-7.242 6.629-7.262 16.156-11.797 26.766-11.797zM247.105 122.789c-.836.469-1.656.953-2.457 1.453-6.75-3.59-14.844-5.898-24.445-6.586.434-.617.895-1.223 1.371-1.809 9.984.88 18.409 3.274 25.531 6.942zM252.597 122.789c.836.469 1.656.953 2.453 1.453 6.758-3.59 14.848-5.898 24.457-6.586a36.377 36.377 0 0 0-1.379-1.809c-9.981.88-18.41 3.274-25.531 6.942zM218.98 119.52a38.718 38.718 0 0 0-1.106 1.906c8.953.207 16.461 2.266 22.625 5.668a52.05 52.05 0 0 1 1.973-1.41c-6.446-3.512-14.227-5.707-23.492-6.164zM218.515 156.738a36.073 36.073 0 0 1-4.902-18.223c0-5.422 1.168-10.539 3.293-15.137 8.656-.062 15.902 1.828 21.812 5.113-8.762 7.173-15.235 16.732-20.203 28.247zM236.8 172.332a35.444 35.444 0 0 1-4.707-2.219c.859-13.609 5.312-26.586 14.191-36 .66.637 1.293 1.289 1.902 1.969-8.261 9.652-11.847 22.918-11.386 36.25zM280.722 119.52c.387.625.754 1.258 1.105 1.906-8.953.207-16.461 2.266-22.625 5.668a55.322 55.322 0 0 0-1.969-1.41c6.442-3.512 14.227-5.707 23.489-6.164zM281.186 156.738a36.076 36.076 0 0 0 4.906-18.223c0-5.422-1.176-10.539-3.293-15.137-8.656-.062-15.902 1.828-21.816 5.113 8.766 7.173 15.239 16.732 20.203 28.247z" fill="#ffe01b"/><path d="M249.851 138.094c7.441 9.633 10.23 22.777 8.809 35.582a36.398 36.398 0 0 1-8.809 1.078c-3.035 0-5.984-.375-8.809-1.078-1.426-12.805 1.363-25.949 8.809-35.582z" fill="#ffe01b"/><path d="M262.905 172.332a35.924 35.924 0 0 0 4.707-2.219c-.863-13.609-5.316-26.586-14.191-36a34.487 34.487 0 0 0-1.898 1.969c8.257 9.652 11.835 22.918 11.382 36.25zM244.116 132.18a35.666 35.666 0 0 0-2.484-1.883c-9.199 8.148-15.25 19.211-19.082 32.051a36.074 36.074 0 0 0 4.664 4.465c2.367-13.508 7.683-25.731 16.902-34.633z" fill="#ffe01b"/><path d="M255.589 132.18a33.31 33.31 0 0 1 2.488-1.883c9.188 8.148 15.242 19.211 19.078 32.051a36.53 36.53 0 0 1-4.664 4.465c-2.371-13.508-7.687-25.731-16.902-34.633zM249.851 124.32c.453.27 2.02 1.254 2.422 1.516a79.259 79.259 0 0 0-2.422 1.605 82.478 82.478 0 0 0-2.422-1.605 108.61 108.61 0 0 1 2.422-1.516zM245.268 127.344a53.156 53.156 0 0 0-1.914 1.484c.887.586 2.082 1.492 2.465 1.789.461-.398 1.375-1.211 1.895-1.586-.629-.457-1.973-1.414-2.446-1.687zM254.436 127.344c.613.461 1.551 1.18 1.914 1.484-.891.586-2.082 1.492-2.461 1.789-.461-.398-1.383-1.211-1.898-1.586.621-.457 1.969-1.414 2.445-1.687zM249.851 130.73c.395.34 1.574 1.375 1.883 1.695-.559.488-1.426 1.309-1.883 1.824-.457-.516-1.328-1.336-1.887-1.824.312-.32 1.488-1.355 1.887-1.695z" fill="#ffe01b"/></svg>