<svg xmlns="http://www.w3.org/2000/svg" viewBox="0 0 499.839 277.402"><path fill="#ce1126" d="M499.839 277.402V-.375h-500v277.777h500z"/><path d="M298.022 174.699c4.066-5.496 9.711-5.461 16.41-1.969-.902-8.91-11.559-14.547-16.387-15.301 1.965-6.566 8.277-9.844 15.766-8.887-3.867-8.059-16.75-8.32-21.551-7.352-.363-6.863 4.461-12.125 11.82-13.828-6.348-6.23-18.551-2.004-22.727.566-2.66-6.32.102-12.941 6.438-17.086-8.066-3.656-18.102 4.547-21.164 8.41-4.629-5.012-4.266-12.195.293-18.281-8.812-.645-15.477 10.57-17.047 15.262-6.055-3.09-8.148-9.93-5.941-17.242-8.492 2.48-10.945 15.316-10.832 20.27-6.723-.809-11.012-6.531-11.402-14.172-7.148 5.273-5.121 18.188-3.348 22.801-6.59 1.578-12.551-2.316-15.496-9.355-4.934 7.426 1.316 18.863 4.551 22.582-5.664 3.766-12.582 2.18-17.719-3.418-2.133 8.695 7.602 17.27 11.895 19.648-4.055 5.5-6.5 9.547-13.223 6.074.934 8.906 8.406 10.434 13.238 11.18l96.426.098z" fill="#fcd116"/><path d="M298.022 174.699c4.066-5.496 9.711-5.461 16.41-1.969-.902-8.91-11.559-14.547-16.387-15.301 1.965-6.566 8.277-9.844 15.766-8.887-3.867-8.059-16.75-8.32-21.551-7.352-.363-6.863 4.461-12.125 11.82-13.828-6.348-6.23-18.551-2.004-22.727.566-2.66-6.32.102-12.941 6.438-17.086-8.066-3.656-18.102 4.547-21.164 8.41-4.629-5.012-4.266-12.195.293-18.281-8.812-.645-15.477 10.57-17.047 15.262-6.055-3.09-8.148-9.93-5.941-17.242-8.492 2.48-10.945 15.316-10.832 20.27-6.723-.809-11.012-6.531-11.402-14.172-7.148 5.273-5.121 18.188-3.348 22.801-6.59 1.578-12.551-2.316-15.496-9.355-4.934 7.426 1.316 18.863 4.551 22.582-5.664 3.766-12.582 2.18-17.719-3.418-2.133 8.695 7.602 17.27 11.895 19.648-4.055 5.5-6.5 9.547-13.223 6.074.934 8.906 8.406 10.434 13.238 11.18l96.426.098z" fill="none" stroke="#000" stroke-width=".062"/><path fill="#fcd116" d="M284.046 166.02l33.148-12.016-35.176.176 27.055-22.805-33 12.371 17.735-30.812L266.972 136l6.273-35.105-17.434 30.98-5.945-35.156-5.949 35.156-17.434-30.98L232.757 136l-26.836-23.066 17.73 30.812-32.992-12.371 27.055 22.805-35.176-.176 33.145 12.016h68.363z"/><path fill="none" stroke="#000" stroke-width=".062" d="M284.046 166.02l33.148-12.016-35.176.176 27.055-22.805-33 12.371 17.735-30.812L266.972 136l6.273-35.105-17.434 30.98-5.945-35.156-5.949 35.156-17.434-30.98L232.757 136l-26.836-23.066 17.73 30.812-32.992-12.371 27.055 22.805-35.176-.176 33.145 12.016h68.363z"/><path d="M249.866 200.73c18.883 0 34.203-15.531 34.203-34.688 0-19.148-15.32-34.68-34.203-34.68-18.887 0-34.203 15.531-34.203 34.68 0 19.157 15.317 34.688 34.203 34.688z" fill="#fcd116"/><path d="M249.866 200.73c18.883 0 34.203-15.531 34.203-34.688 0-19.148-15.32-34.68-34.203-34.68-18.887 0-34.203 15.531-34.203 34.68 0 19.157 15.317 34.688 34.203 34.688z" fill="none" stroke="#000" stroke-width=".062"/><path d="M355.136 175.082c-15.547.148-33.293-8.699-49.793-8.363-18.715.387-37.363 15.492-56.539 15.41-18.457-.09-35.359-17.859-53.43-18.047-19.461-.215-39.512 15.293-57.574 14.961-17.258-.32-36.254-14.098-51.359-14.52-44.766-1.27-31.672 22-86.602.875v112.004h500V164.523c-50.25 17.156-58.594-1.324-91.266-.441-16.824.75-33.875 10.813-53.437 11" fill="#003f87"/><path d="M247.745 39.641c-2.738-3.695-6.148-7.629-10.254-9.477-4.102-1.848-11.441-2.984-19.367-.922-8.883 2.309-19.457 5.883-27.797 3.465-1.59-.465-2.727 1.156.461 3 3.18 1.852 11.277 2.316 19.363 1.273 5.688-.734 13.215-.465 16.176.695 3.531 1.383 9.914 6.121 12.648 10.973l8.77-9.007z" fill="#fcd116"/><path d="M247.745 39.641c-2.738-3.695-6.148-7.629-10.254-9.477-4.102-1.848-11.441-2.984-19.367-.922-8.883 2.309-19.457 5.883-27.797 3.465-1.59-.465-2.727 1.156.461 3 3.18 1.852 11.277 2.316 19.363 1.273 5.688-.734 13.215-.465 16.176.695 3.531 1.383 9.914 6.121 12.648 10.973l8.77-9.007z" fill="none" stroke="#000" stroke-width=".062"/><path d="M265.749 59.742c2.484-.992 8.066-1.457 10.344-1.07 2.969.492 7.09-.98 8.453-1.59 2.477-1.102-.137-2.961-9.695-2.426-6.254.344-8.7 3.11-9.102 5.086z" fill="#fcd116"/><path d="M265.749 59.742c2.484-.992 8.066-1.457 10.344-1.07 2.969.492 7.09-.98 8.453-1.59 2.477-1.102-.137-2.961-9.695-2.426-6.254.344-8.7 3.11-9.102 5.086z" fill="none" stroke="#000" stroke-width=".062"/><path d="M259.479 64.016c5.781-2.219 11.168-9.719 20.961-9.477 9.344.234 14.242-2.773 6.152-4.848-8.086-2.082-14.238-1.273-19.707-.23-7.031 1.332-14.238-5.547-24.945-1.738-4.305 1.535-10.145-.23-12.879-2.887-3.078-2.992-7.23-3.352-10.254-.285-.562.574-1.25 1.496-3.129 1.496-3.246 0-8.43.059-8.488 5.488 1.711-2.141 2.902-2.48 8.434-2.48.848 0 1.879.398 2.734 1.848 1.25 2.137 4.031 3.812 6.828 3.871 2.789.059 3.977 1.938 5.812 3.926 5.36 5.777 17.317 9.589 28.481 5.316z" fill="#fcd116"/><path d="M259.479 64.016c5.781-2.219 11.168-9.719 20.961-9.477 9.344.234 14.242-2.773 6.152-4.848-8.086-2.082-14.238-1.273-19.707-.23-7.031 1.332-14.238-5.547-24.945-1.738-4.305 1.535-10.145-.23-12.879-2.887-3.078-2.992-7.23-3.352-10.254-.285-.562.574-1.25 1.496-3.129 1.496-3.246 0-8.43.059-8.488 5.488 1.711-2.141 2.902-2.48 8.434-2.48.848 0 1.879.398 2.734 1.848 1.25 2.137 4.031 3.812 6.828 3.871 2.789.059 3.977 1.938 5.812 3.926 5.36 5.777 17.317 9.589 28.481 5.316z" fill="none" stroke="#000" stroke-width=".062"/><path d="M235.897 50.035c-.285 2.93 4.945 5.848 6.609 6.473 2.16.805 4.098.23 4.559-1.848 1.594 1.387 4.207.113 4.207-1.621 1.48.699 3.531-.23 3.879-2.309 1.82.461 3.645-.461 3.414-1.848 2.059.809 3.652.172 3.992-1.219 1.43.523 3.59-.344 4.043-1.844 1.426.574 3.527-.23 4.047-1.617 1.875.691 3.805.18 4.664-1.504 1.258.75 3.414-.055 3.766-1.785 1.25.801 3.188.691 3.645-1.156 1.594 1.094 3.531.23 3.418-1.621.742.348 2.281 0 2.395-1.156 2.961.117 6.719 0 6.719-2.195 2.508.113 6.031-1.027 5.973-3.738 1.77-.117 3.957-1.492 4.508-3.422.457-1.586-1.367-2.625-4.555-2.773-19.711-.926-24.723 3.117-34.293 3.93-8.738.734-14.227 3.379-18.676 8.547-3.992 4.617-7.945 8.828-10.145 10.281-1.317.863-2.11 1.851-2.169 2.425z" fill="#fcd116"/><path d="M235.897 50.035c-.285 2.93 4.945 5.848 6.609 6.473 2.16.805 4.098.23 4.559-1.848 1.594 1.387 4.207.113 4.207-1.621 1.48.699 3.531-.23 3.879-2.309 1.82.461 3.645-.461 3.414-1.848 2.059.809 3.652.172 3.992-1.219 1.43.523 3.59-.344 4.043-1.844 1.426.574 3.527-.23 4.047-1.617 1.875.691 3.805.18 4.664-1.504 1.258.75 3.414-.055 3.766-1.785 1.25.801 3.188.691 3.645-1.156 1.594 1.094 3.531.23 3.418-1.621.742.348 2.281 0 2.395-1.156 2.961.117 6.719 0 6.719-2.195 2.508.113 6.031-1.027 5.973-3.738 1.77-.117 3.957-1.492 4.508-3.422.457-1.586-1.367-2.625-4.555-2.773-19.711-.926-24.723 3.117-34.293 3.93-8.738.734-14.227 3.379-18.676 8.547-3.992 4.617-7.945 8.828-10.145 10.281-1.317.863-2.11 1.851-2.169 2.425z" fill="none" stroke="#000" stroke-width=".062"/><path d="M221.999 48.293c1.586 0 1.586-2.394 0-2.394-1.578 0-1.609 2.394 0 2.394z"/><path d="M301.226 31.047c-3.82.461-7.293-.066-9.684-.695" fill="#fcd116"/><path d="M301.226 31.047c-3.82.461-7.293-.066-9.684-.695" fill="none" stroke="#000" stroke-width=".062" stroke-linecap="round"/><path d="M295.253 34.785c-1.621 0-3.836-.285-5.648-.773" fill="#fcd116"/><path d="M295.253 34.785c-1.621 0-3.836-.285-5.648-.773" fill="none" stroke="#000" stroke-width=".062" stroke-linecap="round"/><path d="M288.534 36.981c-1.148-.074-2.633-.441-3.883-.863" fill="#fcd116"/><path d="M288.534 36.981c-1.148-.074-2.633-.441-3.883-.863" fill="none" stroke="#000" stroke-width=".062" stroke-linecap="round"/><path d="M499.839 175.973c-5.961.402-14.5 4.59-24.875 7.801-9.672 3-25.68 3.625-43.574-1.852-19.57-5.98-27.492-5.145-49.801 1.934-12.039 3.82-35.57 8.512-58.867-.969-16.602-6.754-24.562-6.926-47.203 2.73-16.992 7.246-40.391 6.434-57.578-1.426-17.637-8.051-25.418-9.105-55.242-.418-20.059 5.84-36.18 6.113-57.188-1.688-16.375-6.074-24.902-5.309-45.519 1.609-32.457 10.891-49.777-7.156-60.152-5.547v-18.223c10.375-1.609 27.695 16.434 60.152 5.547 20.617-6.91 29.144-7.688 45.519-1.609 21.008 7.801 37.129 7.531 57.188 1.691 29.824-8.684 37.605-7.637 55.242.418 17.188 7.855 40.586 8.668 57.578 1.426 22.641-9.656 30.602-9.488 47.203-2.73 23.297 9.484 46.828 4.789 58.867.965 22.309-7.07 30.23-7.91 49.801-1.93 17.895 5.465 33.902 4.848 43.574 1.852 10.375-3.215 18.914-7.402 24.875-7.805v18.224zM499.839 212.414c-5.961.398-14.5 4.586-24.875 7.801-9.672 2.996-25.68 3.621-43.574-1.852-19.57-5.977-27.492-5.148-49.801 1.93-12.039 3.82-35.57 8.512-58.867-.961-16.602-6.754-24.562-6.93-47.203 2.723-16.992 7.25-40.391 6.438-57.578-1.422-17.637-8.055-25.418-9.105-55.242-.418-20.059 5.836-36.18 6.113-57.188-1.691-16.375-6.074-24.902-5.309-45.519 1.613-32.457 10.887-49.777-7.16-60.152-5.551v-18.219c10.375-1.613 27.695 16.43 60.152 5.547 20.617-6.914 29.144-7.688 45.519-1.609 21.008 7.805 37.129 7.527 57.188 1.691 29.824-8.688 37.605-7.637 55.242.422 17.188 7.852 40.586 8.66 57.578 1.422 22.641-9.656 30.602-9.48 47.203-2.73 23.297 9.48 46.828 4.785 58.867.961 22.309-7.07 30.23-7.91 49.801-1.926 17.895 5.473 33.902 4.848 43.574 1.852 10.375-3.219 18.914-7.398 24.875-7.797v18.214zM499.839 248.848c-5.961.406-14.5 4.59-24.875 7.809-9.672 2.992-25.68 3.621-43.574-1.852-19.57-5.98-27.492-5.152-49.801 1.93-12.039 3.82-35.57 8.508-58.867-.965-16.602-6.754-24.562-6.926-47.203 2.726-16.992 7.246-40.391 6.434-57.578-1.426-17.637-8.055-25.418-9.102-55.242-.414-20.059 5.84-36.18 6.109-57.188-1.695-16.375-6.074-24.902-5.309-45.519 1.613-32.457 10.879-49.777-7.16-60.152-5.547V232.8c10.375-1.605 27.695 16.441 60.152 5.555 20.617-6.918 29.144-7.684 45.519-1.613 21.008 7.805 37.129 7.527 57.188 1.691 29.824-8.684 37.605-7.637 55.242.422 17.188 7.855 40.586 8.668 57.578 1.422 22.641-9.652 30.602-9.48 47.203-2.73 23.297 9.48 46.828 4.789 58.867.969 22.309-7.078 30.23-7.914 49.801-1.93 17.895 5.469 33.902 4.844 43.574 1.848 10.375-3.211 18.914-7.398 24.875-7.797v18.211z" fill="#fff"/></svg>