<svg xmlns="http://www.w3.org/2000/svg" viewBox="0 0 500 277.8"><defs><style>.cls-1{fill:#fff}</style></defs><g id="Layer_2" data-name="Layer 2"><g id="KOR"><path class="cls-1" d="M0 0h500v277.78H0z"/><g id="b2"><path id="b" d="M110.4 87.5l38.5-57.8m-24.1 67.5l38.5-57.8m-24.1 67.4L177.8 49"/><path d="M143.9 109.9l-9.2-6.2 38.5-57.8 9.2 6.2zm-14.4-9.6l-9.2-6.2 38.5-57.8 9.2 6.2zM115 90.6l-9.2-6.2 38.5-57.8 9.2 6.2z"/><path id="b-2" data-name="b" d="M322.2 228.8l38.5-57.8m-24.1 67.4l38.5-57.8m-24 67.4l38.5-57.8"/><path d="M355.7 251.1l-9.2-6.2 38.5-57.7 9.2 6.2zm-14.4-9.6l-9.2-6.2 38.5-57.8 9.2 6.2zm-14.4-9.6l-9.2-6.2 38.5-57.8 9.2 6.2z"/></g><path d="M331.9 193.5l48.1 32.1"/><path class="cls-1" transform="rotate(-56.3 356.07 209.514)" d="M350.4 180.6h11.1v57.87h-11.1z"/><circle cx="250" cy="138.9" r="69.4" transform="rotate(-56.3 250.109 138.875)" fill="#cd2e3a"/><path d="M192.2 100.4a34.7 34.7 0 1 0 57.8 38.5 34.7 34.7 0 1 1 57.8 38.5 69.4 69.4 0 0 1-115.6-77z" fill="#0047a0"/><g id="b2-2" data-name="b2"><path id="b-3" data-name="b" d="M148.9 248l-38.5-57.8m53 48.2l-38.5-57.8m53 48.2L139.3 171"/><path d="M144.3 251.1l-38.5-57.8 9.2-6.2 38.5 57.8zm14.4-9.6l-38.5-57.8 9.2-6.2 38.6 57.8zm14.4-9.6l-38.5-57.8 9.2-6.2 38.5 57.8z"/><path id="b-4" data-name="b" d="M360.7 106.8L322.2 49m53 48.2l-38.5-57.8m53 48.2l-38.6-57.9"/><path d="M356.1 109.9l-38.5-57.8 9.2-6.2 38.5 57.8zm14.4-9.6L332 42.5l9.2-6.2 38.5 57.8zm14.5-9.7l-38.5-57.8 9.2-6.2 38.5 57.8z"/></g><path d="M136.8 214.3l14.4-9.6M331.9 84.3l16.9-11.2m14.4-9.6l14.4-9.6"/><path class="cls-1" d="M139.9 218.9l-6.2-9.2 14.4-9.6 6.2 9.2zm195-130l-6.2-9.2 16.9-11.2 6.2 9.2zM366.2 68l-6.2-9.2 14.4-9.6 6.2 9.2z"/></g></g></svg>