<svg xmlns="http://www.w3.org/2000/svg" viewBox="0 0 499.839 277.402"><path fill="#bf0a30" d="M499.839 277.402V-.375h-500v277.777h500z"/><path fill="#fff" d="M499.839 50.133h-500V24.879h500v25.254zM499.839 100.637h-500V75.379h500v25.258zM499.839 151.141h-500v-25.227h500v25.227zM499.839 201.645h-500v-25.25h500v25.25zM499.839 252.156h-500v-25.258h500v25.258z"/><path fill="#002868" d="M126.159 125.914V-.375H-.161v126.289h126.32z"/><path fill="#fff" d="M62.999 14.078L51.085 51.102H11.901l31.821 23.039-12.227 36.984 31.504-22.98 31.504 22.98-12.066-37.301 31.656-22.57H75.065L62.999 14.078z"/></svg>