<svg xmlns="http://www.w3.org/2000/svg" viewBox="0 0 499.839 277.402"><path fill="#fff" d="M-.161-.375h500v277.777h-500z"/><path fill="#009448" d="M-.161 194.07h500v83.332h-500z"/><path fill="#28388f" d="M-.161-.375h500v83.332h-500z"/><g><path d="M249.393 88.118c-1.586.031-3.132 1.781-3.132 1.781l.14 18.735-5.917 6.199h4.789l-.039 10.746-28.324 38.14-4.187-1.453-7.324 15.617s18.106 11.336 44.383 11.024c28.832-.343 44.5-11.55 44.5-11.55l-7.563-15.41-3.703 1.613-28.687-37.946-.044-11.066h4.79l-6.517-6.121.04-18.66s-1.63-1.69-3.205-1.65z" stroke="#000" stroke-width=".30583955"/><path d="M259.264 132.97h-19.582s-7.109-14.985-5.96-25.454c1.175-10.66 7.27-15.707 15.371-15.797 9.578-.1 14.602 4.696 16.11 15.372 1.507 10.577-5.939 25.878-5.939 25.878z" fill="none" stroke="#000" stroke-width="1.5291977499999998"/><path d="M215.155 168.668c-.32.43-2.672 5.126-2.672 5.126l4.055-.855-1.383-4.27zM217.503 174.754l-4.274 1.387 5.125 2.032-.851-3.419zM219.42 168.774l2.142 6.296 5.223-1.496-1.383-2.984-5.981-1.816zM222.73 177.316l.745 2.558 6.941 1.707-2.773-5.872-4.914 1.607zM230.417 171.977l2.454 5.871 5.23-2.027-1.707-2.558-5.977-1.286zM233.83 179.98l.852 2.243 8.11 1.176-3.41-5.336-5.551 1.918zM241.62 173.683l2.988 5.23 7.577-2.773-.851-2.031-9.714-.426zM246 180.836l1.597 2.773 9.386-.32-3.515-5.227-7.469 2.774zM255.92 173.898l2.566 4.375 5.97-2.883-1.598-2.343-6.938.851zM265.741 177.207l-5.977 2.988 1.602 2.558 8-1.282-3.625-4.264zM267.667 172.617l3.09 3.84 5.02-3.942-1.71-1.82-6.4 1.922zM276.843 174.644l-4.809 3.63 1.285 2.238 6.617-1.703-3.093-4.165zM283.456 167.07l1.176 1.704-3.309 4.91-3.417-4.374 5.55-2.24zM285.702 171.336l2.027 4.054-4.055 1.39-.324-1.926 2.352-3.518z" fill="#fff"/></g></svg>