<svg xmlns="http://www.w3.org/2000/svg" viewBox="0 0 499.839 277.402"><path fill="#ed1c24" d="M499.839-.375h-500v277.777h500V-.375z"/><path fill="#fff" d="M499.839 69.07h-500v138.887h500V69.07z"/><path d="M245.569 72.254c-2.504 2.773-8.43 6.66-9.77 9.316-1.34 2.652-5.656 5.371-7.973 6.355-2.316.984-.293 2.578 2.242 1 2.531-1.57 4.633-1.496 6.117-2.93 1.488-1.438 3.617-.082 1.539.899-2.078.976-2.863 2.629-3.77 3.812-.91 1.191-1.359 1.781-3.457 1.828-2.102.051-3.961.551-5.426 2.688-1.473 2.129-3.285 4.621-4.078 5.809-.793 1.184-.191 2.098 1.77.66 1.945-1.445 4.141-2.66 5.109-1.043.969 1.609.93 2.375-1.676 3.418-5.555 2.227-7.156 3.543-8.16 5.777-1 2.238-.402 2.93-3.875 4.055-3.484 1.129-9.109 5.215-12.789 7.98-3.664 2.762-1.574 2.914 1.231 2.773 4.316-.215 9.855-3.133 12.684-1.914.848 1.617 1.828 3.695 3.145 5.188-4.527 6.399-5.293 8.863-9.953 8.969-4.672.102-7.602 4.832-9.762 7.215-2.172 2.383-4.047 4.637-6.301 5.617-1.965.863-2.414 1.574-.879 2.359 1.531.785 2.891-1.117 4.309-.449 1.414.672 2.34.418 4.523-1.031 2.188-1.449 4.477-3.363 7.973-3.789 1.68 1.945 2.516 2.977 4.402 3.984-3.285 4.508-8.219 8-12.512 9.492-4.285 1.496-4.945 3.145-8.016 7.059-3.059 3.926-2.918 5.199-6.066 5.27-3.152.07-3.016.766-1.355 2.012 1.66 1.25 2.93.637 5.387 1.172 2.465.523 5.625 1.039 8.82-2.414 3.191-3.453 11.016-9.496 17.656-8.898 3.16.277 5.395.926 1.613 4.508-3.766 3.586-9.203 6.309-12.906 7.051-7.203 1.445-10.297 4.309-12.395 4.242-2.102-.074-4.051 1.371-.867 3.281 3.195 1.922 4.254 2.359 7.836.766 3.582-1.594 9.473-4.293 11.797-4.922 2.32-.637 4.047-1.605 5.695-1.176 1.641.43 2.91-.066 4.758-1.273 1.84-1.211 4.512-1.379 6.801-3.527 2.664-2.508 5.48-.359 7.266 1.121 1.781 1.477 5.293 7.352 2.113 11.391-3.18 4.031-6.707 8.309-7.824 10.438-1.121 2.125-1.766 2.254-3.094 2.75-4.281 1.609-8.652 4.27-9.918 5.355-1.258 1.074-.785 1.414.973 1.727 1.758.312 1.988-.043 3.59-1.359 1.598-1.324 3.551-3.332 7.512-3.203 2.105.074 3.828-1.133 5.652-3.039 1.82-1.91 5.758-3.625 7.75-3.203 1.992.43 2.559-.055 3.711-.898 1.152-.84 2.078-1.215 3.859.266 1.789 1.48 3.289 1.215 5.137.121 1.848-1.09 3.84-.664 4.332.488.492 1.156.746 2.207 2.402 3.336 1.66 1.129 7.57 4.617 9.461 5.629 1.891 1 3.129-.887 1.703-2.137-1.434-1.258-2.148-2.289-1.941-3.344.207-1.055 1.309-1.484 4.531-1.031 5.031.703 12.227 4.281 14.828 5.855 2.598 1.578 4.965 2.93 7.062 2.887 2.105-.051 2.797-.531.891-2.238-1.906-1.711-4.246-1.539-5.09-3.281-1.465-2.996-3.988-.844-5.34-3.848-.957-2.141-2.266-2.398-3.898-2.246-1.629.156-3.812-1.32-5.328-3.621-5.312-8.051-6.754-15.254-5.004-20.66 1.746-5.402 6.852-7.031 9.816-4.766 2.969 2.27 6.5 3.711 8.012 3.559 1.512-.148 2.801-.18 4.805.949 2.012 1.121 5.41 1.867 9.574.137 4.16-1.723 5.613-.375 8.27-.293 2.23.066 4.918.477 6.703 1.953 1.781 1.473 4.484 2.469 8.582 3.082 4.102.605 6.879-.504 3.562-2.414-3.305-1.91-6.133-3.016-7.336-4.742-1.203-1.723-2.957-2.035-4.707-1.992-1.75.031-4.574-1.188-6.965-3.59-2.391-2.395-4.266-2.82-6.121-2.551-1.867.277-3.977-.258-5.293-1.867 1.82-2.141 3.715-6.148 5.441-7.352 2.094-.16 3.855.383 5.281 1.637 1.434 1.25 3.402.977 4.809.945 1.402-.031 3.398.625 4.578 1.418 1.188.793 3.051.75 4.785.008 1.734-.734 1.371-1.656-.766-2.898-2.125-1.238-3.309-2.031-4.035-3.176-.719-1.152-1.316-1.723-3.883-1.668-2.566.055-3.777-1.195-5.793-3.375-4.543-4.922-7.586-5.207-10.492-4.789-2.906.414-5.809.945-8.223-2.504 3.004-1.469 5.441 1.906 9.312-1.023 2.062-1.562 3.461-1.938 6.043-1.062 2.59.879 5.617.578 6.422-.02.805-.605 1.836-1.559 3.113-1.699 1.277-.148 1.121-1.844-.734-1.621-3.613.422-4.242-1.777-7.73-1.117-3.48.66-4.777.105-7.031-1.48-2.25-1.582-4.148-2.945-10.777-1.867.309-2.105.141-4.32 3.391-4.977 2.488 1.469 4.812 1.18 6.797 1.137 1.984-.039 8.75-.074 10.742.234 1.988.309 2.434-.637-.516-2.203-2.953-1.566-7.168-2.184-8.684-2.262-1.523-.09-2.25-1.121-3.219-3.082-.98-1.965-3.93-3.531-8.242-3.551-3.539-.023-6.105-1.621-7.895-3.215-1.785-1.594-3.445-2.844-5.551-3.148-2.109-.305-4.004-1.777-3.113-3.547.895-1.773 4.379-2.551 6.855-.969 2.492 1.582 4.016 1.664 5.512.816 1.5-.852 2.418-1.223 4.66-.457 2.23.773 4.473.723 1.008-1.887-4.988-3.742-9.855-2.234-11.531-4.297-1.68-2.066-3.062-1.223-4.219-.727-1.16.492-3.234-.652-.742-1.969 1.84-.973 3.703-1.481 5.352-.699 1.656.781 3.633.504 4.898-.105 1.273-.609 2.527-1.809-1.34-2.543-3.867-.734-9.75-3.051-12.012-5.102-2.262-2.047-4.719-2.465-6.699-2.07-1.973.391-3.598.664-7.035-1.48-3.426-2.145-7.906-4.262-11.035-8.629-3.13-4.371-3.419-1.68-5.361.465z" fill="#00a651"/><path d="M234.038 97.094c-2.266-.258-4.098.793-2.926 2.34 1.172 1.551 1.766.578 3.238-.156 1.469-.731 2.848-1.809-.312-2.184zM240.272 102.039c-2.078 1.008-4.062 2.188-4.723 4.305-.652 2.109-.566 3.973 1.391 3.469 2.961-.77 3.148-4.27 5.328-4.668-.726-1.039-.933-2.426-1.996-3.106zM243.909 100.207c.191.875.484 2.262 1.199 2.953 1.906-.922 6.762-2.777 8.594-3.164.148-1.316-.223-2.188-.582-2.879-2.621.235-6.457 1.192-9.211 3.09zM260.249 108.453c.023 1.285.566 4.547.824 5.824 1.184.551 2.711.984 3.883 1.312.785-1.535.969-3.754.938-5.16-2.129-1.347-4.028-2.827-5.645-1.976zM256.093 110.301c.133 1.047.168 2.562.309 3.492-1.516.031-3.949.902-5.457 1.398-1.504.504-3.316-2.258-.656-3.367 2.659-1.109 4.405-1.383 5.804-1.523zM218.745 120.797c2.766-1.461 4.191-.551 6.738-1.312 1.195 1.145 2.621 2.508 3.586 3.891-1.469 2.48-5.938.828-7.43 1.91-1.191-1.255-2.031-2.52-2.894-4.489zM230.003 117.984c.734 1.5 1.457 2.773 2.059 3.457 2.102.188 2.895-.996 3.797-2.418.906-1.422.863-3.172-1.469-2.996-2.325.161-3.602.661-4.387 1.957zM211.8 144.875c.613 1.504 2.379 2.047 2.871 3.203 1.957-1.207 2.895-1.113 4.535-.801 1.637.312 6.043-1.18 8.551-3.801 2.512-2.625.883-2.355-2.031-1.941-2.902.414-5.109.93-7.102.504-1.996-.418-5.004.461-6.824 2.836zM237.554 132.641c-1.379.848-2.062 1.445-.984 2.707 1.074 1.262 1.645.664 2.91-.066 1.273-.723 1.824-1.789 1.109-2.707-.719-.919-1.653-.782-3.035.066zM244.393 130.477c-1.402.031-1.293.906-1.109 1.602.199.699.379 1.129 1.52 1.102 1.137-.02 1.305-.289.934-1.418-.38-1.134-.47-1.302-1.345-1.286zM248.62 131.703c.035 1.578-.23 1.492 1.352 1.719 1.578.227 2.105.133 2.16-1.363.051-1.488.133-2.016-1.707-2.059-1.844-.051-1.828.562-1.805 1.703zM255.124 132.957c-.457 1.254-1.086 2.301.852 3.047 1.937.742 2.023.219 2.594-1.461.582-1.676.652-2.465-.848-2.867-1.496-.406-2.016-.305-2.598 1.281zM262.046 133.422c-.07.699-.637 2.633-.891 3.258.801.328 1.859.746 2.656 1.25.797.512 1.906-.918 1.52-2.219-.371-1.305-1.816-3.375-3.285-2.289zM270.257 112.496c-.242.887-1.055 3.789-1.391 4.586 2.297.562 4.047.875 5.625.75 1.566-.125 4.098-.617 5.332-.379 1.223.238 1.898-1.008-.152-2.535-2.043-1.535-3.273-1.766-4.59-1.738-1.305.027-3.535-1.582-4.824-.684zM278.983 123.332c-1.578-.242-2.434 1.02-1.355 1.871 1.066.852 2.453.473 2.613-.32.156-.789.238-1.32-1.258-1.551zM282.472 122.906c.109.785.309 2.18.332 2.793 1.152 1.113 2.355-.051 3.609 1.062 1.246 1.109 2.18-.047 2.418-1.191.242-1.145.406-1.758-.652-1.738-2.266.051-3.805-1.93-5.707-.926zM257.643 95.969c.27.609 1.004 1.992 1.02 2.691 1.066.676 3.531 1.41 4.207.172.672-1.242.922-1.77-.23-2.359-1.153-.59-3.645-2.723-4.997-.504zM267.058 98.129c-.758.852-.148 1.312.914 1.902 1.062.586 1.828-.391 1.723-1.172-.102-.789-1.528-1.98-2.637-.73zM232.507 157.719c.805.715 1.434 1.723 1.223 2.891-.207 1.176.504 1.629 1.332 1.961.816.328 2.973 2.363 3.383.156.418-2.227-1.41-5.688-2.695-5.891-1.285-.199-1.871-.191-2.465-.883-.602-.683-2.329.399-.778 1.766zM304.417 148.453c-.539 1.992-2.664 6.359-4.043 7.207-2.125-1.004-5.992-1.855-6.367-3.012.77-2.121 1.543-3.887 2.102-5.184 2.437-.515 6.288-.718 8.308.989zM291.28 145.473c-.09 1.52-.945 4.918-1.383 6.098-2.445.285-8.305-.871-10.27-.125.078-1.641.031-3.738.477-4.797 3.735-.083 7.184-2.489 11.176-1.176z" fill="#fff"/></svg>