<svg xmlns="http://www.w3.org/2000/svg" viewBox="0 0 499.839 277.402"><path fill="#002b7f" d="M499.839 138.516h-500V-.375h500v138.891z"/><path fill="#ce1126" d="M-.161 138.516h500v138.886h-500V138.516z"/><g><path d="M51.487 78.531c-1.434.711-3.844 1.75-4.676 2.703 5.258 2.754 8.492 18.938 13.156 23.84 17.582.473 43.426.832 70.582 1.191 3.227.051 4.352-3.086 5.504-5.5 2.629-5.504 6.977-15.082 10.648-16.395 1.672-.594.836-1.551-.598-2.508-1.438-.957-2.875-1.914-4.789-2.273 1.914-1.434 1.914-3.348.602-5.023 2.906-2.07 2.43-4.543.438-5.668 2.949-2.469 1.598-5.418-.562-5.5 1.996-2.867 1.117-5.981-2.395-5.824 1.043-3.024-1.59-5.098-4.062-4.145-.402-2.547-2.555-4.703-5.105-2.391-1.434-3.348-4.223-3.984-5.738-1.438-1.676-2.316-4.469-2.711-5.664-.398-1.836-1.355-4.469-.875-5.188.961-1.512-1.516-4.227-1.758-5.422.398-1.996-1.199-4.227-.961-5.023.875-.387-.664-1.355-.875-2.074-.637 2.168-2.793.996-7.101-2.152-7.976.422-.824.582-1.25.797-1.676.211-.422.055-.742-.215-1.223-.199-.363-.848-1.406-1.219-2.02l1.008-1.039c.93.535 1.992 1.141 2.422 1.359.422.211.793.398 1.488-.082.688-.477 2.047-1.461 2.652-1.859.617-.398.297-.719-.184-1.094-.48-.367-1.938-1.375-2.469-1.727-.531-.344-.906-.262-1.547.055-.637.32-1.594.797-2.391 1.199-.289-.324-.715-.695-1.168-.855 1.117-2.125 1.539-3 1.809-3.48.262-.48.367-.879.078-1.461-.293-.59-1.566-3.086-1.914-3.641-.344-.562-.68-.43-1.145.211a101.944 101.944 0 0 0-2.098 3.055c-.371.559-.516.797-.16 1.547.453.953 1.168 2.68 1.539 3.426-.238.133-.77.582-.957.934-1.039-.508-2.125-1.016-2.602-1.25-.477-.242-.805-.172-1.301.102-.988.535-2.797 1.699-3.273 1.969-.477.266-.027.508.527.93.566.426 2.133 1.438 2.555 1.73.426.293.723.293 1.301 0 .59-.293 1.918-.824 2.289-1.012.238.398.719.852 1.066 1.012a50.298 50.298 0 0 0-1.25 2.125c-.352.609-.32.77-.078 1.223.234.453.367.852.691 1.461-4.32 1.172-4.109 5.941-2.797 8.5-.559-.125-1.438.078-1.832.594-1.395-1.754-3.789-2.234-4.906-.836-1.234-1.93-3.785-2.57-5.488-1.074-1.438-2.449-3.828-2.664-5.371-.801-.906-1.754-4.09-2.34-5.371-.16-1.809-1.91-4.195-1.219-5.426.797-2.07-1.598-4.832-1.113-5.473 2.445-3.031-.531-5.316 1.277-4.414 4.465-3.77.215-4.09 3.137-2.016 5.426-3.828.848-3.621 4.098-1.227 5.953-3.086 1.277-2.125 4.523.051 5.531-1.541 1.277-1.549 3.645.537 4.949z"/><path d="M51.976 68.899c-2.641 0-2.641 3.941 0 3.941 2.644 0 2.644-3.941 0-3.941zM52.937 73.895c-2.645 0-2.645 3.945 0 3.945 2.64 0 2.64-3.945 0-3.945zM52.03 63.211c-2.645 0-2.645 3.941 0 3.941s2.645-3.941 0-3.941zM53.683 57.684c-2.644 0-2.644 3.938 0 3.938 2.64-.001 2.64-3.938 0-3.938zM56.815 53.109c-2.645 0-2.645 3.938 0 3.938s2.645-3.938 0-3.938zM61.604 49.836c-2.754 0-2.754 4.105 0 4.105 2.75 0 2.75-4.105 0-4.105zM66.706 48.75c-2.75 0-2.75 4.094 0 4.094s2.75-4.094 0-4.094z" fill="#ffd559" stroke="#000" stroke-width="0"/><path d="M71.917 48.426c-2.75 0-2.75 4.102 0 4.102s2.75-4.102 0-4.102zM77.233 49.121c-2.75 0-2.75 4.098 0 4.098s2.75-4.098 0-4.098zM82.546 50.024c-2.746 0-2.746 4.098 0 4.098 2.754-.001 2.754-4.098 0-4.098zM87.601 51.141c-2.75 0-2.75 4.102 0 4.102s2.75-4.102 0-4.102z" fill="#ffd559" stroke="#000" stroke-width="0"/><path d="M92.495 52.043c-2.754 0-2.754 4.102 0 4.102 2.75 0 2.75-4.102 0-4.102zM101.319 51.649c-2.75 0-2.75 4.094 0 4.094s2.75-4.094 0-4.094z" fill="#ffd559" stroke="#000" stroke-width="0"/><path d="M106.022 50.688c-2.746 0-2.746 4.102 0 4.102s2.747-4.102 0-4.102zM110.968 49.813c-2.75 0-2.75 4.102 0 4.102 2.754-.001 2.754-4.102 0-4.102zM97.124 34.356c-2.059 0-2.059 3.062 0 3.062s2.059-3.062 0-3.062zM116.312 49.254c-2.75 0-2.75 4.098 0 4.098 2.753 0 2.753-4.098 0-4.098zM121.495 48.695c-2.75 0-2.75 4.098 0 4.098s2.75-4.098 0-4.098zM126.999 49.176c-2.754 0-2.754 4.098 0 4.098s2.754-4.098 0-4.098zM132.343 50.93c-2.75 0-2.75 4.094 0 4.094 2.754 0 2.754-4.094 0-4.094zM136.73 54.199c-2.75 0-2.75 4.098 0 4.098 2.753 0 2.753-4.098 0-4.098zM139.999 58.504c-2.754 0-2.754 4.098 0 4.098 2.75 0 2.75-4.098 0-4.098zM141.28 64.32c-2.598 0-2.598 3.863 0 3.863 2.594.001 2.594-3.863 0-3.863zM141.112 69.586c-2.59 0-2.59 3.863 0 3.863 2.598 0 2.598-3.863 0-3.863zM139.917 74.93c-2.594 0-2.594 3.863 0 3.863 2.598 0 2.598-3.863 0-3.863zM96.64 57.305c-1.824 0-1.824 2.719 0 2.719s1.824-2.719 0-2.719zM96.854 53.422c-1.68 0-1.68 2.723 0 2.723s1.68-2.723 0-2.723zM96.538 61.188c-2.152 0-2.152 3.195 0 3.195 2.149 0 2.149-3.195 0-3.195zM96.64 65.41c-2.449 0-2.449 3.652 0 3.652 2.453.001 2.453-3.652 0-3.652zM96.589 69.984c-2.453 0-2.453 3.652 0 3.652 2.449.001 2.449-3.652 0-3.652zM61.237 104.426c.578-.164.965.043.672-1.121-.297-1.172.109-1.742.637-.16.348 1.035.312.828.855.695.543-.129.688.047.555-.855-.133-.902.227-1.379.586-.238.262.848.289.746.766.637.48-.109.852.137.617-.875-.246-1.012.148-1.062.445-.133.27.82.27.715.801.602.531-.109.797.062.664-.871-.133-.926.125-1.188.512-.133.34.957.453.695 1.055.574.605-.121.961-.016.801-.922-.16-.902.117-1.57.637-.102.293.824.336.734 1.141.586.809-.141 1.066-.004.934-.801-.133-.797.301-1.09.559-.129.184.684.27.699 1.016.566.742-.129.977.07.926-1.051-.051-1.113.332-1.758.535-.023.129 1.145.184.859.949.777.773-.082 1.066-.031.988-.906-.082-.883.324-1.301.477-.086.133 1.039.223.781.852.75.625-.027.93.18.875-.902-.051-1.094.535-1.496.645-.059.074 1.062.258.797.848.758.742-.059.82.176.82-.758 0-1.383.586-1.41.641-.234.055 1.09.238.859.852.828.848-.047 1.086.148 1.031-.91-.039-.906.484-.922.641-.055.16.863-.078.891.824.832.902-.055.746.043.773-.938.027-.98.637-1.062.664-.027.027 1.035-.078.898.875.879.957-.016.984.188.93-.851-.051-1.035.668-1.465.746-.082.055.895-.211.883 1.012.883 1.219 0 1.172.207 1.227-.91.051-1.117.688-1.41.711-.102.027 1.301.352 1.004.848 1.012.512.004 1.047-.012 1.465.016.43.027.375.062.375-.898 0-.953.613-1.328.613.023-.004.895-.27.844.824.922 1.086.07.852.145.879-.84.023-.984.578-1.168.609.027.027 1.039.051.852.609.887.559.035.789.152.746-.695-.055-1.043.879-1.789.824.027-.027.902-.164.738.715.781.879.047.68.141.742-.781.082-1.07.863-1.547.75.019-.059.719-.164.777.711.91.879.133.953.109.988-.828.055-1.484.719-1.199.691-.055-.027 1.145-.184.98.746 1.078.93.105 1.113.309 1.195-.812.109-1.383.719-1.277.664.027-.055 1.301.109.98.609 1.031.504.047.75.352.828-.715.082-1.059.867-1.5.664-.023-.121.891.027.879.664.98.637.113.902.375 1.039-.664.133-1.035.82-1.219.664 0-.137 1.012-.055.848.539.961.598.109.824.426.945-.617.164-1.32.902-1.301.75.055-.082.695 0 .789.418.871.43.086.855.152 1.121.18.262.023.375.094.48-.836.105-.93.797-1.195.719.078-.082 1.277.031.965.582 1.055.547.086.637.195.801-.734.156-.926.77-1.141.609.027-.16 1.168-.055.898.5 1.059.562.156.617.219.828-.66.211-.875 1.086-1.156.746.105-.297 1.09-.242.754.371.941.609.184.879.387 1.086-.488.215-.879.844-1.211.562.055-.215.957.023.793.609.922.582.121.719.484.961-.551.234-1.035.953-.984.637.055-.32 1.031-.32.797.445.977.773.184.75.43 1.043-.609.293-1.035 1.062-.957.742.164-.316 1.113-.195.824.395.996.59.168.645.383.988-.652.348-1.035.781-.953.508.129-.188.746-.371.906.688.906 1.062 0 1.695-.414 3.113-2.734 3.508-5.742 5.66-14.965 11.723-18.637 1.102-.668.434-1.516-1.598-2.234-7.066-2.496-14.031-2.129-17.652 7.226-.543 1.422-1.133 1.043-.797-.207 1.387-5.16.746-11.344-3.668-12.602-5.789-1.648-12.496 3.562-14.512 9.727-.332 1-.762.578-.957-.742-1.223-8.238-5.16-10.684-9.867-10.605-4.699.078-10.043 1.762-10.68 10.047-.086 1.039-.539.199-1.121-.477-6.578-7.656-9.691-10.047-13.523-9.012-3.574.969-5.941 6.555-5.297 10.766.098.637-.352 1.266-.723.078-2.285-7.277-10.473-9.672-16.531-5.258-.523.371-.961.215.422 1.539 4.07 3.879 5.629 13.84 10.848 21.664.37.553.518.697 1.19.51zM60.206 61.688c-1.938 2.512-1.578 9.367 0 12.703V61.688z" fill="#ffd559" stroke="#000" stroke-width="0"/><path d="M60.968 75.527c.484.777 1.082 1.422 1.715 1.836V59.426c-.664.449-1.281.965-1.715 1.59v14.511zM63.409 77.777c.719.164 1.32.141 1.98-.098V58.02c-.637.246-1.25.531-1.98.859v18.898zM66.108 77.344c.52-.293 1.078-.707 1.676-1.262.051-.051.105-.098.152-.145v-18.66c-.617.129-1.234.289-1.828.488v19.579zM68.663 75.344a8.35 8.35 0 0 1 1.668-.996V56.934c-.562.047-1.117.113-1.668.203v18.207zM71.054 74.086a6.08 6.08 0 0 1 1.434-.262V56.871a19.03 19.03 0 0 0-1.434.02v17.195zM73.206 73.824c.484.035.992.117 1.516.266V57.012a24.419 24.419 0 0 0-1.516-.121v16.933zM75.362 74.305c.609.234 1.246.547 1.914.969V57.422a26.8 26.8 0 0 0-1.914-.336v17.219zM77.991 75.75c.566.398 1.148.863 1.637 1.41V58.074c-.461-.184-1.047-.348-1.637-.488V75.75zM80.397 77.758c.555.516 1.133.926 1.66 1.18V58.926c-.57-.246-1.156-.465-1.66-.582v19.414zM82.776 79.184c.629.133 1.195.027 1.754-.254V60.141a23.68 23.68 0 0 0-1.754-.898v19.941zM85.21 78.356c.746-.434 1.316-1 1.953-1.637V61.902a9.698 9.698 0 0 0-1.953-1.234v17.688zM87.8 75.902c1.344-2.531 3.84-9.391 0-13.453v13.453zM104.831 61.91v15.039c.57.832 1.242 1.473 1.988 1.926V60.598c-.781.375-1.441.801-1.988 1.312zM119.897 74.512c.461.027.984.117 1.602.367V57.633a7.144 7.144 0 0 0-1.602-.016v16.895zM122.292 75.145a9.051 9.051 0 0 1 1.758 1.109V57.695a19.624 19.624 0 0 0-1.758-.129v17.579zM126.522 58.219a15.37 15.37 0 0 0-1.754-.422v19.004c.57.59 1.176 1.152 1.754 1.605V58.219zM127.319 78.953c.609.352 1.211.512 1.832.379V59.356a12.012 12.012 0 0 0-1.832-.863v20.46zM107.542 79.231c.637.258 1.246.297 1.832.094V59.649c-.664.195-1.273.406-1.832.637v18.945zM111.769 59.012c-.59.144-1.148.281-1.676.43V78.95c.578-.402 1.133-.793 1.676-1.152V59.012zM112.483 77.316a40.029 40.029 0 0 1 1.754-1.074V58.457c-.609.129-1.195.258-1.754.387v18.472zM114.933 75.809a14.542 14.542 0 0 1 1.754-.781V57.977c-.57.086-1.156.195-1.754.312v17.52zM117.429 74.824a7.624 7.624 0 0 1 1.758-.309V57.668c-.574.051-1.16.121-1.758.207v16.949zM104.194 62.602c-.891 1.133-1.359 2.629-1.438 4.707-.145 3.637.406 6.504 1.438 8.555V62.602zM129.87 59.805v19.242c.574-.332 1.176-.918 1.836-1.848V61.324a12.792 12.792 0 0 0-1.836-1.519zM132.425 75.715c2.043-3.758 2.746-9.594 0-13.328v13.328z" fill="#ffd559" stroke="#000" stroke-width="0"/><path d="M101.882 56.938c20.574-4.543 28.266-4.504 33.41 1.836 5.148 6.344 2.871 14.715.961 20.578-1.039.16-3.273.719-4.309 1.273 4.426-10.367 4.785-15.508-.359-20.895-5.141-5.383-18.062-3.988-29.469-.238-.16-.847-.332-1.742-.234-2.554zM101.081 56.863c.074 5.899.16 13.395 1.754 18.34-.926-.609-1.781-.879-2.637-1.035-.953-9.516-1.512-15.793-1.43-17.231.797-.156 1.512-.156 2.313-.074zM92.226 57.02c-.238 5.742-1.113 14.117-2.816 18.207 1.355-.555 2.258-1.297 3.297-1.457 1.035-3.668 1.676-13.238 2.074-16.508-.884-.242-1.356-.324-2.555-.242zM91.03 57.336c-18.777-5.859-28.594-4.422-32.18-.231-3.586 4.18-5.742 9.324-2.274 20.211 1.516.285 3.188.438 4.465 1.395-5.738-11.965-3.797-17.289 1.438-20.656 6.699-4.301 18.898-1.273 28.191 1.316.36-.758.36-1.551.36-2.035zM95.222 43.586c-.969.258-1.84 1.234-2.117 2.066-.082.246-.102.262.582.281.672.02.949-.02 1.336-.02.395 0 .316-.176.316-.52 0-.34.078-1.355.098-1.613.019-.26 0-.26-.215-.194z" fill="#ffd559" stroke="#000" stroke-width="0"/><path d="M96.233 43.461c0 .957-.137 2.336-.16 2.754-.019.418 0 .434-.637.457-.637.02-2.371.203-2.691.219-.32.02-.297.164-.32.422-.016.258 0 .797.043 1.113.035.32.266.258.895.16 2.195-.336 5.027-.277 7.215.16.434.082.605-.141.625-.52.012-.379.094-.734.039-1.078-.059-.336-.121-.336-.562-.399-.438-.059-1.773-.156-2.211-.137-.441.02-.637-.141-.656-.617-.02-.48.02-1.598-.02-2.133-.043-.543.02-.586-.32-.637-.34-.062-.656-.102-.996-.062-.341.036-.244.142-.244.298z" fill="#ffd559" stroke="#000" stroke-width="0"/><path d="M98.542 44.203c0 .297.027 1.012.027 1.234 0 .215.055.438.398.414.34-.016 1.195.082 1.516.102.32.023.645.125.297-.438-.441-.723-1.098-1.312-1.672-1.574-.578-.257-.566-.058-.566.262zM93.124 49.383c-.312.074-.473.074-.199.68.52 1.156 1.516 2.73 3.629 2.73s3.504-1.344 4.105-2.773c.164-.379-.086-.523-.914-.656-1.336-.219-4.906-.38-6.621.019zM96.03 42.504a7.424 7.424 0 0 1-.77-1.277c-.164-.316-.086-.582.234-1.219.324-.637.559-1.254.723-1.516.156-.266.215-.395.418-.375.195.023.438.043.613.023.184-.023.305 0 .562.457.262.457.855 1.52 1.078 1.914.219.398.199.5-.027.816-.215.32-.609.859-.891 1.234-.682-.116-1.252-.116-1.94-.057zM94.46 36.234c-.562.289-1.781.77-2.184.902-.391.133-.582.289-1.246-.16-.664-.453-1.195-.824-1.539-1.066-.348-.238-.586-.395.16-.793.742-.398 1.25-.723 1.723-.961.484-.234.828-.34 1.492-.055.664.293 1.172.508 1.73.75-.109.372-.242.981-.136 1.383zM97.175 33.414c-.535-1.168-1.383-2.848-1.621-3.434-.242-.582-.32-.688.156-1.301.48-.613 1.062-1.754 1.355-2.152.293-.399.395-.699.746-.082.555.984.93 1.73 1.246 2.395.324.664.418.914.129 1.41a83.548 83.548 0 0 0-1.668 3.164h-.343zM99.593 35.324c.051.269-.027.805-.133 1.066.738.344 1.887.852 2.312 1.012.426.16.773.344 1.383-.059.609-.391 1.566-1.031 1.887-1.215.32-.195.18-.387-.289-.746a53.84 53.84 0 0 0-1.547-1.145c-.387-.281-.555-.344-1.145-.082-.582.271-1.753.908-2.468 1.169z" fill="#ffd559" stroke="#000" stroke-width="0"/><path d="M53.269 84.293c-.512-.406-1.035-.754-1.477-1.074-.434-.32-.238-.879.555-.477.805.398 1.117.797 1.441 1.191.32.403.078.844-.519.36zM55.265 84.215a8.416 8.416 0 0 1-1.234-1.316c-.442-.559-.023-1.523.672-.477.399.598.68.957.879 1.312.198.364.077.84-.317.481zM56.335 83.074c.289.629.664 1.328.91 1.805.234.48.953.637.664-.102-.293-.746-.348-1.121-.613-1.812-.27-.688-1.356-.774-.961.109zM58.784 83.734c.191.641.59 1.332.719 1.734.129.395.555.211.48-.348-.082-.559-.109-.879-.219-1.492-.101-.608-1.218-.687-.98.106zM60.94 84.75c.109.535.262.98.398 1.488.129.504.477.422.477-.055 0-.476-.082-1.012-.156-1.516-.082-.503-.879-.69-.719.083zM69.069 87.883c-.352-.566-.875-1.25-1.113-1.672-.238-.426-1.223-.133-.664.582.559.719 1.168 1.227 1.383 1.492.211.266.742.156.394-.402zM69.394 85.996c-.484-.578-.961-1.09-1.305-1.512-.348-.426-.156-1.68.48-.668.637 1.016.984 1.434 1.219 1.836.242.399 0 .825-.394.344zM69.179 82.356c.305.555.824 1.246 1.066 1.648.234.398.66.133.367-.375-.289-.504-.395-1.09-.742-1.805-.344-.718-1.144-.297-.691.532zM71.386 82.191c-.262-.559-.426-.742-.695-1.273-.262-.531.516-1.328.773-.293.137.531.27.957.375 1.332.105.371-.192.82-.453.234zM73.296 81.77c-.297-.688-.609-1.09-.898-1.727-.297-.637.367-1.168.77-.266.398.902.527 1.379.664 1.805.132.43-.267.801-.536.188zM75.214 81.746c-.242-.637-.586-1.226-.828-1.809-.234-.586.512-1.016.828-.055.32.961.371 1.25.531 1.758.156.501-.32.661-.531.106zM76.729 80.68c-.301-.82.504-1.355.82-.293.32 1.062.453 1.781.562 2.211.105.422-.344.555-.613-.109-.265-.665-.558-1.227-.769-1.809zM79.202 81.746c.09.481.426 1.434.555 1.883.137.453.691.348.562-.262-.133-.613-.133-.797-.293-1.488-.16-.695-.961-.852-.824-.133zM88.397 85.25c-.109-.574-.289-1.168-.453-1.727-.156-.559.562-.902.746-.129.188.77.242 1.41.344 1.91.11.505-.527.505-.637-.054zM89.675 82.859c-.184-.723-.422-1.219-.586-1.777-.156-.562.691-1.145.879-.238.188.902.27 1.484.297 1.91.023.426-.43.742-.59.105zM91.511 80.652c0-.621-.137-1.301-.266-1.91-.133-.613.82-1.074.82 0 0 .719-.051 1.512-.078 1.883-.023.375-.476.559-.476.027zM93.425 79.59c-.047-.719-.188-1.305-.215-1.785-.023-.473.855-.898.906-.074a10.3 10.3 0 0 1-.051 1.887c-.058.425-.586.718-.64-.028zM95.261 79.723c-.094-.633-.188-1.57-.269-2.074-.133-.848 1.012-.93.98.105-.027 1.039.031 1.387-.074 1.941-.106.559-.536.746-.637.028zM97.147 79.805c-.031-.691-.109-1.57-.027-2.102.082-.531 1.062-.688.902.191-.164.875-.348 1.484-.402 1.961-.051.481-.445.532-.473-.05zM99.058 79.883c.035-.742.082-1.039.109-1.598.02-.555.66-.879.637.027-.027.902-.055 1.227-.078 1.648-.028.427-.696.56-.668-.077zM100.468 81.691c.121-.586.293-1.57.43-2.152.133-.59.902-.617.797.184-.105.797-.402 1.781-.539 2.234-.126.449-.895.797-.688-.266zM101.987 82.754c.129-.398.258-.797.344-1.035.078-.238.688-.371.605.078-.074.453-.312.93-.473 1.223-.159.293-.636.214-.476-.266zM110.038 86.316c-.059-.559-.055-.848-.105-1.383-.055-.531.906-1.223.852-.156-.055 1.059-.109 1.246-.164 1.594-.052.344-.528.422-.583-.055zM112.222 84.484c.09-.746.129-1.305.234-1.945.113-.637 1.145-.688.906.031-.242.719-.504 1.512-.609 1.965-.109.453-.617.586-.531-.051zM114.347 83.445c.094-.605.105-1.09.133-1.863.027-.77 1.379-1.461 1.168-.555-.211.902-.531 1.887-.715 2.34-.188.449-.664.582-.586.078zM116.233 82.621c.129-.672.215-1.301.426-1.996.211-.688 1.332-.902.98.133-.344 1.039-.691 1.57-.875 1.996-.183.426-.663.559-.531-.133zM118.624 81.957c.121-.77.16-1.277.32-1.727.16-.453 1.227-.59.906.234-.316.824-.48 1.359-.691 1.754-.215.403-.637.403-.535-.261zM120.276 83.152c.18-.668.395-1.625.531-2.207.133-.586 1.168-.902.82.344-.344 1.25-.555 1.598-.715 2.023-.159.422-.796.422-.636-.16zM121.522 84.508c.262-.691.535-1.383.797-1.992.266-.613 1.016-.531.668.262-.348.801-.746 1.516-.957 1.973-.211.448-.746.394-.508-.243zM122.159 86.289c.476-.637.617-.957.906-1.301.293-.348 1.121-.109.691.426-.422.527-.879 1.062-1.172 1.355-.292.294-.792.024-.425-.48zM131.226 86.633c.023-.535.293-1.09.613-1.461.32-.367.934-.293.613.27-.32.555-.559.93-.637 1.301-.082.37-.613.531-.589-.11zM133.167 86.106c.242-.719.531-1.812.879-2.289.348-.477 1.223-.266.797.426-.426.691-1.016 1.621-1.195 1.996-.188.367-.668.421-.481-.133zM135.347 85.414c.34-.809.637-1.652 1.012-2.125.371-.484 1.461-.375.852.312-.613.691-1.035 1.57-1.227 2-.18.423-.848.313-.637-.187zM137.605 85.066c.312-.617.617-1.168.906-1.672.293-.508 1.516-.48.906.422-.613.906-1.094 1.383-1.328 1.676-.246.293-.828.266-.484-.426zM139.573 84.668c.352-.441.613-.852 1.145-1.223.531-.371 1.277-.133.852.398-.426.527-1.223 1.035-1.598 1.355-.371.318-.797-.026-.399-.53zM128.968 99.953c1.871-3.07 3.777-5.988 6.324-7.496 1.176-.688 1.438-1.5-.117-.66-1.555.836-2.594.391-1.875-.883.719-1.277 1.16-2.395 1.477-2.867.32-.484.051-1.191-.559-.242-1 1.555-2.43 2.992-2.953 3.59-.516.601-1.27.867-1.473.156-.156-.555-.453-.957-.641-1.297-.184-.352-.57-.336-.5.504.289 3.535.164 6.812-.375 8.887-.281 1.078.504.613.692.308zM115.077 96.938c1.125-3.664 2.402-5.68 3.867-7.258.52-.555 1.477-1.32 1.676-1.633.199-.324.121-.641-.477-.398-.602.234-1.039.676-1.715.91-.68.242-1 .125-.844-.996.164-1.113.801-2.508.875-3.105.082-.602.008-.68-.391-.281-.598.602-1.312 3.156-2.078 4.023-.555.645-.996.285-1.191-.316-.203-.598-.562-1.355-.883-1.832-.316-.48-.812-.293-.395 1.078.715 2.355.957 5.898.957 7.016 0 1.117-.121 2.234 0 2.754.119.514.435.557.599.038zM96.538 95.914c.859-5.176 1.863-7.328 3.984-11.484.719-1.41.051-1.32-.582-.48-1.145 1.52-1.656 1.797-2.293.828-.691-1.066-.781-2.102-.82-3.059-.039-.961-.773-1.172-.812.066-.043 1.234-.559 2.43-.992 3.027-.441.602-1.082.438-1.68.121-.598-.32-.957-.562-1.594-1.035-.637-.48-1.121-.207-.355.879 2.215 3.164 4.504 5.977 4.504 11.137-.001.797.425 1.277.64 0zM78.112 96.899c-.66-4.18-.797-7.617.199-9.77.371-.812 0-1.594-.602-.281-.395.875-1.039 1.238-1.551.477-.524-.754-1.602-2.789-1.922-3.707-.316-.918-.816-.523-.594.281.684 2.43.879 3.711.762 4.301-.121.602-.441.684-.879.484a8.974 8.974 0 0 1-1.355-.762c-.402-.273-.812.047-.238.52 2.91 2.395 4.922 5.141 5.703 8.457.157.675.598.757.477 0zM63.917 98.094c-1.098-2.57-1.355-4.75-1.121-6.062.242-1.312.562-2.195.523-2.949-.043-.758-.461-.707-.637 0-.121.48-.367 1.117-.523 1.351-.16.238-.801.375-1.41-.449-.609-.824-2.148-2.422-2.656-2.816-.504-.398-1.035-.348-.531.344.719.98 1.512 2.473 1.57 3.109.051.637-.266.637-.559.637-.883 0-1.305-.637-2.102-.824-.797-.18-.918.231-.348.645 2.93 2.125 5.859 4.5 7.031 6.656.486.873 1.122 1.194.763.358z"/></g></svg>