<svg xmlns="http://www.w3.org/2000/svg" viewBox="0 0 499.839 277.402"><path fill="#c1272d" d="M499.839 277.402V-.375h-500v277.777h500z"/><path fill="#008256" d="M249.851 80.234l-14.461 44.54h-46.829l37.907 27.488-14.516 44.535 37.879-27.555 37.863 27.555-14.492-44.531 37.918-27.492h-46.84l-14.429-44.54z"/><path fill="#006233" d="M249.851 80.234l-14.461 44.54h-46.829l37.907 27.488-14.516 44.535 37.879-27.555 37.863 27.555-14.492-44.531 37.918-27.492h-46.84l-14.429-44.54z"/><path fill="#c1272d" d="M244.561 124.774h10.551l-5.285-16.2-5.266 16.2z"/><path fill="none" stroke="#000" stroke-width=".089" d="M244.561 124.774h10.551l-5.285-16.2-5.266 16.2z"/><path fill="#c1272d" d="M232.577 133.508h-17.074l13.777 10.023 3.297-10.023z"/><path fill="none" stroke="#000" stroke-width=".089" d="M232.577 133.508h-17.074l13.777 10.023 3.297-10.023z"/><path fill="#c1272d" d="M233.886 157.637l-5.254 16.23 13.773-10.004-8.519-6.226z"/><path fill="none" stroke="#000" stroke-width=".089" d="M233.886 157.637l-5.254 16.23 13.773-10.004-8.519-6.226z"/><path fill="#c1272d" d="M257.237 163.844l13.821 10.023-5.266-16.195-8.555 6.172z"/><path fill="none" stroke="#000" stroke-width=".089" d="M257.237 163.844l13.821 10.023-5.266-16.195-8.555 6.172z"/><path fill="#c1272d" d="M249.831 158.465l13.129-9.535-5.012-15.422h-16.222l-5.02 15.422 13.125 9.535z"/><path fill="none" stroke="#000" stroke-width=".089" d="M249.831 158.465l13.129-9.535-5.012-15.422h-16.222l-5.02 15.422 13.125 9.535z"/><path fill="#c1272d" d="M267.128 133.508h17.031l-13.801 10.047-3.23-10.047z"/><path fill="none" stroke="#000" stroke-width=".089" d="M267.128 133.508h17.031l-13.801 10.047-3.23-10.047z"/></svg>