<svg xmlns="http://www.w3.org/2000/svg" viewBox="0 0 499.839 277.402"><path fill="#fff" d="M499.839 277.402V-.375h-500v277.777h500z"/><path fill="#dc241f" d="M499.839 19.465h-500V-.375h500v19.84zM499.839 59.149h-500v-19.84h500v19.84zM499.839 98.828h-500v-19.84h500v19.84zM499.839 138.512h-500v-19.844h500v19.844zM499.839 178.195h-500v-19.629h500v19.629zM499.839 217.875h-500v-19.844h500v19.844zM499.839 257.555h-500v-19.84h500v19.84z"/><g><path fill="#0035ad" d="M241.288 138.273V-.375H-.161v138.648h241.449z"/><g fill="#ffd100"><path d="M156.097 112.973l3.875-27.055 15.218 22.676-8.269-25.938 23.418 13.817-18.684-19.922 27.196 2.203-25.45-9.699 25.336-9.649-27.183 2.094 18.91-19.93-23.543 14.032 8.269-26.153-15.218 22.782-3.875-27.086-3.875 27.086-15.219-22.782 8.273 26.153-23.543-14.032 18.903 19.93-27.18-2.094 25.336 9.649-25.449 9.699 27.191-2.203-18.683 19.922 23.425-13.817-8.273 25.938 15.219-22.676 3.875 27.055z"/><path d="M128.405 26.207a45.48 45.48 0 0 0-16.738-3.199c-25.434 0-46.047 20.621-46.047 46.047 0 25.434 20.613 46.051 46.047 46.051 5.738 0 11.445-1.184 16.508-3.109-8.453 5.879-18.496 9.184-29.563 9.184-28.789 0-52.125-23.34-52.125-52.125s23.336-52.117 52.125-52.117c11.055-.001 21.348 3.401 29.793 9.268z"/></g></g></svg>