<svg xmlns="http://www.w3.org/2000/svg" viewBox="0 0 499.839 277.402"><path fill="#ec1c2e" d="M499.839 184.812h-500V92.215h500v92.597z"/><path d="M-.161 92.215h500V-.375h-500v92.59z"/><path fill="#009c57" d="M499.839 277.402h-500v-92.59h500v92.59z"/><g fill="#ec1c2e"><path d="M249.73 37.774c0-4.899-5.109-27.125.012-27.125 5.113 0-.012 22.226-.012 27.125zM244.749 37.996c-.418-4.871-7.445-26.57-2.344-27.02 5.09-.445 1.926 22.149 2.344 27.02zM239.811 38.66c-.84-4.82-9.738-25.832-4.691-26.715 5.031-.894 3.852 21.895 4.691 26.715zM234.956 39.746c-1.266-4.727-11.949-24.883-7.012-26.203 4.938-1.328 5.746 21.477 7.012 26.203zM230.218 41.25c-1.676-4.601-14.078-23.742-9.277-25.496 4.808-1.746 7.601 20.895 9.277 25.496zM225.62 43.164c-2.078-4.434-16.094-22.426-11.457-24.586 4.633-2.164 9.379 20.153 11.457 24.586zM221.202 45.473c-2.445-4.238-17.984-20.941-13.555-23.496 4.43-2.559 11.11 19.257 13.555 23.496zM217.007 48.16c-2.801-4.012-19.742-19.297-15.551-22.231 4.191-2.933 12.75 18.22 15.551 22.231zM213.065 51.199c-3.145-3.754-21.348-17.504-17.43-20.793 3.915-3.289 14.286 17.039 17.43 20.793zM209.405 54.566c-3.469-3.461-22.801-15.57-19.18-19.191 3.622-3.613 15.711 15.731 19.18 19.191zM206.046 58.242c-3.75-3.145-24.066-13.523-20.777-17.445 3.289-3.918 17.027 14.301 20.777 17.445zM203.022 62.203c-4.008-2.809-25.152-11.379-22.219-15.566 2.93-4.196 18.212 12.758 22.219 15.566zM200.358 66.406c-4.246-2.445-26.051-9.144-23.492-13.57 2.555-4.437 19.246 11.125 23.492 13.57zM198.058 70.828c-4.43-2.07-26.738-6.836-24.578-11.477 2.163-4.636 20.148 9.407 24.578 11.477zM196.167 75.43c-4.598-1.672-27.234-4.477-25.492-9.285 1.75-4.809 20.894 7.613 25.492 9.285zM182.202 78.43c-7.207-.988-14.492-2.422-13.727-5.277 1.047-3.91 13.848 2.02 21.512 5.277h-7.785zM303.444 75.207c4.605-1.676 23.758-14.086 25.508-9.274 1.75 4.809-20.902 7.598-25.508 9.274zM301.534 70.609c4.434-2.07 22.434-16.098 24.598-11.461 2.16 4.637-20.164 9.391-24.598 11.461zM299.226 66.199c4.238-2.453 20.945-17.988 23.508-13.566 2.554 4.433-19.27 11.113-23.508 13.566zM296.534 62c4.016-2.809 19.309-19.75 22.238-15.559 2.938 4.192-18.222 12.75-22.238 15.559zM293.495 58.055c3.75-3.145 17.504-21.355 20.793-17.438 3.289 3.922-17.043 14.293-20.793 17.438zM290.128 54.391c3.457-3.465 15.574-22.805 19.195-19.184 3.617 3.617-15.738 15.719-19.195 19.184zM286.444 51.031c3.152-3.75 13.535-24.074 17.449-20.781 3.926 3.289-14.296 17.031-17.449 20.781zM282.491 48.008c2.805-4.012 11.379-25.16 15.57-22.227s-12.765 18.215-15.57 22.227zM278.28 45.34c2.453-4.238 9.148-26.055 13.574-23.496 4.438 2.555-11.121 19.258-13.574 23.496zM273.858 43.047c2.074-4.438 6.84-26.754 11.48-24.59 4.638 2.16-9.405 20.152-11.48 24.59zM269.253 41.152c1.676-4.602 4.48-27.25 9.289-25.5 4.816 1.75-7.613 20.899-9.289 25.5zM264.499 39.664c1.273-4.734 2.09-27.535 7.039-26.215 4.945 1.328-5.766 21.481-7.039 26.215zM259.636 38.594c.848-4.824-.32-27.613 4.719-26.719 5.038.887-3.872 21.895-4.719 26.719zM254.69 37.957c.43-4.883-2.719-27.48 2.375-27.035 5.102.441-1.945 22.152-2.375 27.035zM317.476 78.43c7.203-.988 14.492-2.422 13.727-5.277-1.043-3.91-13.855 2.02-21.512 5.277h7.785z"/><path d="M302.374 78.43c-7.082-22.328-27.969-38.496-52.633-38.496-24.672 0-45.559 16.168-52.633 38.496h105.266z"/></g></svg>