<svg xmlns="http://www.w3.org/2000/svg" viewBox="0 0 499.839 277.402"><path fill="#003893" d="M499.839 277.402V-.375h-500v277.777h500z"/><path fill="#dd7500" d="M499.839 68.281l-500 187.434v-9.695l500-234.262v56.523z"/><path fill="#fff" d="M-.161 265.352l500-140.391v-56.68l-500 187.434v9.637zM96.05 170.289l3.57-46.496 11.477 27.992-4.336-29.976 18.578 24.066L113.3 117.84l23.859 18.898-18.898-23.855 28.031 11.766-24.066-18.114 29.98 4.141-28.195-11.477 46.636-3.57-46.636-3.574 28.195-11.473-29.98 4.141 24.066-18.11-28.031 11.762 18.898-23.855L113.3 73.418l12.039-28.031-18.578 24.066 4.336-29.98L99.62 67.469l-3.57-46.5-3.571 46.5-11.476-27.996 4.336 29.98-18.578-24.066 12.035 28.031L54.94 54.52l18.899 23.855-28.031-11.762 24.062 18.11-29.976-4.141 28.195 11.473-46.641 3.574 46.641 3.57-28.195 11.477 29.976-4.141-24.062 18.114 28.031-11.766-18.899 23.855 23.856-18.898-12.035 28.035 18.578-24.066-4.336 29.976 11.476-27.992 3.571 46.496z"/></svg>