<svg xmlns="http://www.w3.org/2000/svg" viewBox="0 0 499.839 277.402"><path fill="#fff" d="M249.839-.375v277.777h-250V-.375h250z"/><path fill="#ec1c2e" d="M249.839 277.402V-.375h250v277.777h-250z"/><g><path d="M85.601 17.016V42.43c1.348.375 2.879 1.305 4.23 2.648 1.344 1.344 2.27 2.879 2.645 4.23h25.418v34.336H92.476c-.375 1.344-1.297 2.883-2.645 4.226-1.352 1.352-2.883 2.277-4.23 2.649v25.414H51.265V90.52c-1.351-.371-2.887-1.297-4.23-2.649-1.352-1.344-2.277-2.883-2.648-4.226H18.972V49.309h25.414c.371-1.352 1.297-2.887 2.648-4.23 1.344-1.344 2.879-2.273 4.23-2.648V17.016h34.337z" fill="#ec1c2e"/><path fill="#a6b0b6" stroke="#a6b0b6" stroke-width=".174" d="M83.366 45.098V19.684h-.422v25.414h.422zM83.366 88.473v24.797h-.422V88.473h.422zM90.226 81.414h25.414v-.418H90.226v.418zM46.714 81.414H21.632v-.418h25.082v.418z"/><path fill="#a6b0b6" stroke="#a6b0b6" stroke-width=".174" d="M115.64 80.996V51.953h-.418v29.043h.418zM53.913 113.68h29.453v-.41H53.913v.41z"/><path d="M115.222 51.953H90.437c.09-1.43-.594-3.602-2.25-5.262-1.648-1.648-3.805-2.328-5.242-2.254V19.684H53.913v24.785c-1.434-.09-3.586.609-5.25 2.277-1.645 1.645-2.344 3.777-2.266 5.207H21.632v29.043h24.793c-.09 1.43.613 3.586 2.27 5.246 1.648 1.648 3.785 2.352 5.219 2.27v24.758h29.031V88.481c1.441.09 3.617-.59 5.27-2.254 1.645-1.648 2.336-3.801 2.254-5.231h24.754V51.953h-.001z" fill="#e2e3e4" stroke="#a6b0b6" stroke-width=".174"/><path d="M51.101 45.617c.359 1.23 2.973 3.367 3.668 3.562-.215.652-.816 1.371-1.273 1.832-.133-1.559-2.527-3.844-3.891-4.344.406.484 2.336 4.07 2.93 5.145-1.035-.391-3.988-1.434-4.852-1.699-.027-.641.078-1.004.203-1.453.371.602 1.543 1.031 2.52 1.344-.145-.703-1.246-2.516-2.059-2.473.394-.746 1.601-1.824 2.754-1.914z" fill="#e2e3e4" stroke="#a6b0b6" stroke-width=".174" stroke-linejoin="bevel"/><path d="M52.644 45.668c-.883-.254-2.43-.16-3.805 1.211-1.156 1.156-1.652 3.793-.519 4.93 1.129 1.125 3.762.633 4.922-.523 1.086-1.09 2.562-3.156 1.355-4.359-.238-.246-.586-.348-.984-.273l1.547-1.535c1.609 1.609.23 4.336-1.758 6.324-1.433 1.426-4.109 2.5-6.379 1.766-1.664-1.371.227-5.059 1.656-6.484 1.113-1.117 2.969-2.254 5.234-2.254v.172l-1.269 1.025z" fill="#e2e3e4" stroke="#a6b0b6" stroke-width=".174"/><path d="M48.679 46.723c1.113-1.117 2.969-2.254 5.234-2.254v.172l-1.27 1.027c-.883-.254-2.43-.16-3.805 1.211l-.159-.156z" fill="#a6b0b6"/><path d="M47.593 83.824c1.23-.363 3.363-2.977 3.558-3.668.652.215 1.375.812 1.84 1.266-1.562.141-3.848 2.539-4.348 3.898.484-.41 4.074-2.34 5.148-2.934a151.531 151.531 0 0 0-1.711 4.859c-.637.02-1-.09-1.441-.215.59-.367 1.027-1.531 1.34-2.508-.703.137-2.52 1.238-2.48 2.051-.738-.389-1.816-1.596-1.906-2.749z" fill="#e2e3e4" stroke="#a6b0b6" stroke-width=".174" stroke-linejoin="bevel"/><path d="M47.644 82.274c-.25.891-.164 2.43 1.215 3.812 1.156 1.16 3.789 1.656 4.922.52 1.125-1.129.637-3.77-.52-4.926-1.09-1.086-3.16-2.562-4.363-1.359-.242.246-.348.594-.266.992l-1.539-1.543c1.605-1.613 4.336-.23 6.32 1.754 1.43 1.43 2.504 4.109 1.769 6.371-1.367 1.672-5.059-.223-6.484-1.652-1.117-1.109-2.25-2.965-2.25-5.234h.172l1.024 1.265z" fill="#e2e3e4" stroke="#a6b0b6" stroke-width=".174"/><path d="M48.698 86.242c-1.117-1.109-2.25-2.965-2.25-5.234h.172l1.023 1.266c-.25.891-.164 2.43 1.215 3.812l-.16.156z" fill="#a6b0b6"/><path d="M85.796 87.328c-.359-1.227-2.969-3.363-3.664-3.562.215-.648.812-1.367 1.266-1.836.133 1.566 2.531 3.852 3.895 4.348-.406-.484-2.34-4.066-2.93-5.145 1.035.395 3.992 1.438 4.852 1.703.027.641-.078 1.008-.211 1.449-.363-.598-1.531-1.027-2.508-1.34.141.707 1.242 2.516 2.055 2.473-.396.75-1.603 1.828-2.755 1.91z" fill="#e2e3e4" stroke="#a6b0b6" stroke-width=".174" stroke-linejoin="bevel"/><path d="M84.253 87.277c.887.254 2.43.164 3.809-1.211 1.152-1.156 1.652-3.793.52-4.922-1.129-1.129-3.766-.637-4.93.52-1.086 1.086-2.559 3.16-1.355 4.359.246.246.594.348.988.27l-1.543 1.539c-1.609-1.613-.231-4.336 1.758-6.324 1.426-1.43 4.105-2.5 6.371-1.766 1.668 1.367-.223 5.059-1.652 6.48-1.113 1.117-2.965 2.258-5.23 2.258v-.18l1.264-1.023z" fill="#e2e3e4" stroke="#a6b0b6" stroke-width=".174"/><path d="M88.218 86.223c-1.113 1.117-2.965 2.258-5.23 2.258v-.18l1.266-1.023c.887.254 2.43.164 3.809-1.211l.155.156z" fill="#a6b0b6"/><path d="M89.308 49.129c-1.23.359-3.367 2.969-3.562 3.664-.648-.211-1.371-.816-1.844-1.269 1.566-.137 3.852-2.535 4.348-3.895-.48.406-4.066 2.336-5.141 2.93a151.051 151.051 0 0 0 1.707-4.852c.633-.027 1 .086 1.445.211-.594.363-1.027 1.531-1.34 2.508.703-.137 2.516-1.242 2.469-2.055.75.395 1.824 1.602 1.918 2.758z" fill="#e2e3e4" stroke="#a6b0b6" stroke-width=".174" stroke-linejoin="bevel"/><path d="M89.257 50.672c.25-.887.16-2.434-1.215-3.805-1.16-1.16-3.789-1.66-4.922-.527-1.129 1.133-.641 3.773.516 4.93 1.086 1.082 3.16 2.559 4.367 1.363.242-.25.344-.598.266-1l1.539 1.547c-1.613 1.609-4.34.23-6.328-1.754-1.422-1.434-2.496-4.113-1.766-6.375 1.371-1.672 5.059.23 6.48 1.652 1.121 1.113 2.258 2.969 2.258 5.234h-.176l-1.019-1.265z" fill="#e2e3e4" stroke="#a6b0b6" stroke-width=".174"/><path d="M88.194 46.703c1.121 1.113 2.258 2.969 2.258 5.234h-.176l-1.02-1.266c.25-.887.16-2.434-1.215-3.805l.153-.163z" fill="#a6b0b6"/><path fill="#a6b0b6" stroke="#a6b0b6" stroke-width=".174" d="M81.429 53.891v-32.27h-.414v32.27h.414zM55.851 79.473H23.577v-.41h32.274v.41zM113.706 79.063V53.891h-.414v25.172h.414zM81.429 79.063v32.269h-.414V79.063h.414zM81.429 79.473h32.277v-.41H81.429v.41zM55.851 111.746h25.578v-.414H55.851v.414z"/><path fill="#e2e3e4" stroke="#a6b0b6" stroke-width=".174" d="M55.851 79.063H23.577V53.891h32.274v-32.27h25.164v32.27h32.277v25.172H81.015v32.269H55.851V79.063z"/><path d="M68.69 88.039c11.766 0 21.305-9.535 21.305-21.301 0-11.762-9.539-21.297-21.305-21.297-11.754 0-21.297 9.535-21.297 21.297.001 11.766 9.544 21.301 21.297 21.301z" fill="#a6b0b6" stroke="#a6b0b6" stroke-width=".174"/><path d="M68.425 87.774c11.77 0 21.305-9.535 21.305-21.297 0-11.766-9.535-21.297-21.305-21.297-11.754 0-21.289 9.531-21.289 21.297 0 11.761 9.535 21.297 21.289 21.297z" fill="#e2e3e4" stroke="#a6b0b6" stroke-width=".174"/><path d="M68.425 81.32c8.207 0 14.848-6.648 14.848-14.844 0-8.199-6.641-14.848-14.848-14.848-8.187 0-14.836 6.648-14.836 14.848 0 8.196 6.648 14.844 14.836 14.844z" fill="#e2e3e4" stroke="#a6b0b6" stroke-width=".174"/><path d="M56.144 76.422l-.121.066c-.203-.242-.469-.516-.812-.316l-2.914 1.707c-.348.195-.238.562-.125.859l-.117.07-2.105-3.609 1.27-.738.094.164c-.785.457-.688 1.309-.461 1.699.117.195.246.418.344.578.078.141.18.18.516-.02.258-.145 1.344-.785 1.344-.785-.141-.234-.418-.902-1.445-.516l-.066-.125 2.004-1.172.09.148c-.984.688-.512 1.309-.375 1.543l1.367-.797c.344-.199.277-.512.188-.758l.121-.074 1.203 2.076zM52.972 69.406c-.125-.77-1.18-1.039-2.383-.832-1.211.207-2.109.809-1.98 1.582.137.773 1.184 1.039 2.395.828 1.206-.207 2.104-.804 1.968-1.578l.16-.027c.254 1.5-.648 2.52-1.934 2.746-1.289.219-2.48-.449-2.738-1.945-.254-1.5.637-2.52 1.934-2.742 1.289-.219 2.48.438 2.738 1.941l-.16.027zM50.663 63.774c.199-1.145-.195-1.418-.812-1.539-.609-.125-1.055.164-1.141.645-.051.297 0 .496.199.543l1.754.351.172.039 1.535.305c.395.078.543-.187.641-.437l.133.027-.449 2.242-.133-.027c.008-.316-.027-.594-.414-.664l-3.316-.672c-.387-.078-.555.266-.66.562l-.137-.031.453-2.281c.223-1.098.742-1.891 1.613-1.719.621.125.891.637.918 1.309l2.348-.973c.066-.031.105-.109.137-.211l.133.023-.27 1.332-2.496 1.031-.035.184-.173-.039zM56.937 56.07c-.973 1.062-2.32 1.285-3.473.234-1.101-1.016-.953-2.414-.105-3.336.383-.414.738-.582 1.031-.723.285-.137.246-.344.18-.52l.129-.145 1.133 1.039-.129.141c-1.055-.438-1.773-.098-2.199.363-.242.274-.68 1.031.742 2.328 1.418 1.297 2.121.906 2.523.469.203-.23.391-.594.156-.809-.238-.219-.574-.523-.664-.605-.277-.258-.516-.121-.754.062l-.098-.09 1.504-1.644.098.086c-.156.254-.281.523 0 .773l.867.793c-.102.498-.586 1.202-.941 1.584zM60.358 51.27l.723-.352c-1.32-1.148-1.371-1.199-1.371-1.199s.047.637.117 1.816l.531-.265.113.273-.621.309c.016.199.027.422.039.648.031.586.336.477.73.379l.059.125-1.277.621-.058-.121c.188-.125.277-.445.277-.762-.266-4.324-.266-4.371-.266-4.371l.227-.109s.156.129 3.266 2.848c.223.199.367.414.832.266l.062.125-2.117 1.031-.051-.121c.398-.266.645-.457.316-.789-.211-.18-.398-.348-.566-.492l-.852.414-.113-.274zM66.577 46.285l.02.137c-.309.078-.598.199-.559.598l.328 3.289c.043.387.23.496.449.473.188-.019.375-.043.602-.059.531-.059 1.195-.52 1.332-1.48l.199-.02-.121 1.594-4.105.422-.008-.141c.301-.078.652-.207.613-.598l-.34-3.371c-.035-.395-.344-.461-.652-.477l-.016-.137 2.258-.23zM73.401 46.777l-.035.137c-.316-.031-.633-.008-.727.379l-.762 3.215c-.09.375.055.539.27.586.18.047.355.09.586.145.516.125 1.297-.09 1.742-.957l.191.047-.641 1.469-4.004-.953.031-.137c.309.023.688.02.781-.367l.789-3.293c.09-.383-.18-.547-.465-.664l.031-.129 2.213.522zM77.757 51.879l.594.395c.332-1.719.352-1.793.352-1.793s-.527.363-1.508 1.02l.562.378-.16.246-.668-.449c-.168.109-.356.238-.543.355-.492.324-.25.535.035.824l-.074.113-1.188-.793.082-.109c.203.102.527.012.793-.145a663.923 663.923 0 0 0 3.656-2.418l.207.141-.828 4.254c-.059.297-.172.531.184.851l-.074.117-1.953-1.309.074-.113c.438.211.723.332.844-.121.059-.27.102-.516.145-.734l-.691-.465.159-.245zM83.698 53.09c.035-.113-.035-.172-.074-.227l.113-.086.879 1.234-.988 3.762 1.883-1.348c.324-.23.238-.512.098-.789l.113-.086.781 1.094-.113.086c-.199-.238-.418-.348-.742-.113l-3.297 2.363-.145-.203 1.246-4.73-2.516 1.797c-.324.231-.234.516-.094.797l-.109.078-.82-1.148.113-.078c.215.223.453.395.781.168l2.734-1.965.157-.606zM83.269 61.113l.129-.031c.121.23.289.496.676.391l3.66-1.047-.066-.242c-.145-.48-.715-.953-1.375-.766l-.047-.144 1.309-.375 1.144 4-1.309.375-.039-.152c.664-.188.898-.895.766-1.371l-.07-.238-3.66 1.039c-.391.117-.394.422-.371.691l-.129.039-.618-2.169zM86.62 67.121c-.047 1.168.379 1.387 1.008 1.426.621.047 1.027-.293 1.047-.781.016-.305-.055-.5-.262-.516l-1.562-.129-.168-.012-1.797-.113c-.394-.023-.504.262-.578.516l-.133-.004.164-2.285.133.004c.023.316.101.586.5.613l3.371.242c.395.027.516-.332.586-.633l.141.008-.164 2.32c-.078 1.117-.496 1.969-1.383 1.91-.629-.043-.961-.516-1.074-1.18l-2.211 1.266c-.062.035-.094.113-.109.223l-.133-.012.102-1.348 2.34-1.34c.012-.113.016-.188.016-.188l.166.013zM83.101 74.016c-.359-.172-.598.113-.773.371l-.129-.059 1.074-2.242.125.055c-.09.301-.164.668.199.844l1.113.527s1.094-.078 2.469-.188c.387-.031.559-.031.742-.293l.113.055-.98 2.07-.121-.059c.121-.34.207-.695-.227-.633-.613.035-1.973.141-1.973.141l.898 1.461c.367.578.676.262.855-.047l.129.059-.691 1.434-.121-.055c.059-.324 0-.586-.273-.973l-1.133-1.855s-1.027-.488-1.296-.613zM66.897 53.184c.422-.539 1.129-.285 1.352-.48.23-.199.848.137 1.105.648.453.059 1.02-.055 1.188-.227.168-.168.578-.289.965.227.672.902 2.242 1.152 3.191 1.84 1.129.816 2.285 2.062-1.016 3.105 1.215 1.215 1.863 2.547 2.035 3.277 1.555-1.32 2.23-1.609 2.992-1.016.762.598 1.98 1.328 2.656 1.504.68.164 1.473.848 1.418 1.605-.062.762-.48 1.273-1.102 1.246-.625-.031-.68-.312-.875-.875-.207-.566-.969-.672-1.699-1.074-1.078-.594-1.047-.473-1.809.078-.371.277-.691.344-.727.711-.023.367.215.258.883.195.664-.055 1.113-.086 1.82.91.711.984 1.324 2.145 2.125 2.457.789.309.871.477.539 1.191-.344.699-.574.98.105 1.352.621.34.652.707.281 1.273-.363.562-1.41 1.863-1.98 2.402-.078.82.516.68.121 1.07-.402.398-.688 1.332-2.52 1.273-1.84-.055-2.828-.195-4.101.199-1.266.398-3.676.07-5.113.902-.875.512-.984-.703-.961-.984.059-.652-.34-.93-.906-.566-.562.367-.703.227-1.07-.031-.367-.254-1.188-.281-1.586.059-.391.34-.91 1.004.086 1.383 2.828 1.074 5.797 2.062 7.633 2.715.547.195.422 1.125-.734.703-2.688-.961-4.523-1.633-6-2.133-.625-.211-1.039.949-2.879.695-.984-.133-1.07-.68.086-.621 1.164.055 2.004-.34.957-.723-1.473-.535-2.711-.973-4.52-1.652-.476-.18-.269-1.02.594-.707.781.281 1.41.586 2.027.754.543.149.633-.105.574-.473-.055-.367.48-1.215 1.559-1.41-.312-.508-.961-1.188-1.363-1.305-.395-.109-.676-.453-.363-1.438.336-1.074.621-1.754-.285-1.863-.902-.121-1.922-.512-2.203-1.727-1.27-1.02-1.809-1.191-2.035-.82-.227.367-.074.453.285.734.645.508.73 1.535.336 3.898-.055.34.055.43.336.734.285.312.305 1.57-.504 2.262-.602.512-.629-.25-.539-.531.086-.285-.027-.539-.367-.738-.34-.199-.453-.34-.254-.902.195-.566.34-.879-.055-1.105-.398-.227-1.164-.707-.938-1.555.23-.848.172-1.555-.59-2.203-.766-.652-.309-1.527.309-2.152.621-.617 1.699-1.496 3.508 1.023.34-.566 1.074-1.59 1.664-2.094v-.426c-.418-.086-.93-.816-1.129-1.328-.195-.512-.902-.449-1.641.254-.73.707-1.129 1.305-1.582 1.188-.453-.113-.961-.906-.566-1.496-.199-.566-.395-1.215.285-1.723-.117-.797-.141-1.445 1.016-1.898-.059-.734.172-1.777 1.277-2.148-.031-.141-.125-.477-.133-.805.98-1.059 3.438-2.574 4.363-2.957.625-.082.812.879 1.504.457.504-.309 1.102-.484 2.027-.254.549.131.799.17.943.116z" fill="#a6b0b6"/><path d="M58.839 60.813c.082-.238.145-.648.336-.875.203-.223-.133-.453-.844-.031-.703.426-1.613.82-2.09 1.078-.48.258-.676.93.227.48.902-.453 1.523-.738 1.805-.879.285-.141.199.117.172.226-.028.114.339.172.394.001zM58.417 61.293c-.406.348-.961.371-1.586.797-.617.418-.848.617-.789 1.016.055.398.227.539.621.059.398-.484 1.301-1.223 1.754-1.387.453-.172.367-.794 0-.485zM56.858 59.231c.773-.461 1.754-.789 2.574-1.019.82-.223 1.188.254.258.539-.934.281-2.434 1.047-3.027 1.414-.594.366-.707-.395.195-.934zM57.343 58.492c.082-.359.18-1.75 1.867-1.75.648 0 2.121-.254 2.484-.254.367 0 .141.621-.481.68-.62.063-3.304 1.016-3.87 1.324zM62.827 55.137c-.258.195-.48.559-.512.758-.984-.172-1.215.285-1.723.285s-1.551-.055-1.836.055c.394-.426.848-.82 1.328-.676.473.137.875.137 1.469-.203.594-.332.993-.532 1.274-.219z" fill="#e2e3e4"/><path d="M59.515 54.965c1.105-.848 1.953-1.02 2.887-.68.934.34 1.895.367 2.262.168.367-.199.734-.168.906.086.168.25.48.395-.395.312-.879-.086-2.008-.086-2.488-.312-.484-.227-1.047-.031-1.332.227-.282.258-1.27.425-1.84.199zM62.229 53.379c.684.34 1.953.398 2.434.23.484-.172 1.582-.285 1.945.223l-.332.344c-.367-.371-1.164-.426-1.641-.23-.48.199-1.277.199-1.758-.027-.477-.23-1.066-.254-1.238-.199.196-.169.364-.255.59-.341zM57.796 65.816c-.734-1.047-1.645-.676-2.066-.055-.422.621.227.285.172.648-.058.367.281.254.34.512.051.254.477.254.539-.176.051-.418.336-.93.617-.672.281.255.593.025.398-.257z" fill="#e2e3e4"/><path d="M56.522 67.43c0 .285-.055.48-.309.426-.258-.062-.43.168-.062.504.371.34.172.566.062.848-.117.285-.324.992.223 1.359.344.23.562-.141.758.141.203.285.461.027.461-.649s-.145-.879-.398-.594c-.258.277-.562.277-.648 0-.086-.285-.227-.734.367-.652.594.086.82-.059.48-.535-.848-1.188-.934-1.133-.934-.848zM67.179 53.578c.227.312.312 1.188.312 1.613 0 .25.164.305.367.027.281-.394.93-.215.93-.82 0-.098-.238-.086-.309.07-.07.156-.383.039-.438-.25-.054-.3-.354-.808-.862-.64zM72.972 55.176c-.391-.016-.508.082-.539.238-.023.156-.18.211-.375.188-.195-.031-.312.355.055.367.508.012-.055.223.766.238.547.008 1.07-.055 1.223-.125.16-.074.242-.113-.066-.387-.314-.261-.627-.5-1.064-.519z" fill="#e2e3e4"/><path d="M69.808 54.227c-.254.461-.281 1.496-.566 2.035-.277.539-.055 1.726-.367 2.269-.309.531-.395 1.465.566 1.098s1.836-.68 2.32-.793c.481-.113.988-.762.449-1.016-.535-.258-1.129-.68-1.445-1.5-.312-.82.035-1.145.273-.934.238.215.395.129.406-.211.012-.34.16-.41.398-.391.238.004.297-.445.086-.484-.215-.047-.297-.145-.398-.285-.098-.141-.375-.043-.492-.012-.281.066-.586 0-.75-.059-.168-.053-.34.029-.48.283z" fill="#e2e3e4"/><path d="M66.417 55.106c-.254.25-1.469.367-2.012.281-.531-.082-.93-.195-1.152.422-.23.625-1.332 1.727-1.898 2.293s-1.609 1.922-1.84 2.684c-.223.766-.09.992.199 1.402.297.406.484.379.711.109.223-.27.254-.438 0-.844-.254-.414-.328-.895.223-1.359.555-.465 1.43-1.344 1.656-1.797.223-.449.508-.676.852-.805.336-.129.547-.324.746-.648.191-.328.723-.496.973-.254.258.234.355.539.113.719-.055.043-.098.027-.098-.113 0-.141-.758-.129-.719.398.012.199.098.141.223.043.129-.102.242-.145.344.125.094.269.25.351-.172.496-.426.141-.41.168-.242.477.168.316.34.453.481.156.144-.293.438-.168.508-.359.074-.203.453-.269.609-.066.211.285-.07.484-.07.695s-.012.242-.145.027c-.125-.207-.34-.109-.348.027-.016.145-.246.082-.383.074-.145-.016-.219.195-.219.539 0 .223 0 .309.148.324.137.012.152.215.309.223.152.012.176.32.094.328s-.035.125-.105.133c-.07.008.012-.16-.309-.156-.312.008-.66.266-.465.613.246.441-.117.711.062.977.184.27.496.27.922.203.426-.074 1.367-.129 1.797.18.418.312.984.477 1.723.594.738.113 1.09.203 1.188 1.016.055.48.254.793.766 1.219.504.422.875 1.07.816 1.355-.062.285.254.859.574.762.332-.098.613-.059.824.027.211.09.586.215.266-.238-.422-.609-.945-.594-1.113-1.031a13.484 13.484 0 0 0-.766-1.555c-.184-.324-.227-.652-.293-.824-.07-.164-.156-.164-.156-.465 0-.293-.145-.578-.535-.734-.402-.152-1.148-.59-1.695-.688-.559-.102-.496-.211-.566-.414-.074-.199-.172-.238-.254-.113-.086.129-.172.113-.23-.039-.055-.152-.184-.129-.34-.129-.152 0-.578 0-.336-.383.238-.379.27-.649-.086-.918-.352-.266-.453-.477-.184-.652.27-.168.043-.449.406-.492.367-.047.074-.297.355-.352.285-.059.27-.199.176-.312-.102-.113.18-.539.082-.723-.102-.18-.102-.438.07-.605.168-.172.043-.352-.027-.422-.078-.074-.203-.16-.215-.273-.012-.109-.156-.172-.324.059-.172.223-.508.379-.664.039-.156-.336-.047-.504.07-.676.113-.168.195-.465.113-.648-.086-.186-.258-.116-.438.068z" fill="#e2e3e4"/><path d="M72.718 61.309c-.336-.281-.805.062-1.059-.223-.254-.281-.453-.43-.703-.367-.258.051-.582.137-.754-.273-.164-.41-.352-.488-.566-.043-.211.453-.449.453-.691.582-.238.129-.352.426.227.59.582.172 1.305.496 1.551.684.254.18.43.086.359-.215-.066-.297-.215-.352-.359-.469-.137-.109-.152-.352.164-.293.309.059.352.254.602.27.258.012 1.203.082 1.684.676.48.598.734.938 0 1.355-.738.43-1.441.738-.93 1.414.508.684.703.113 1.469.512.758.395 1.273.137 1.754-.059.477-.199 1.012-.055 1.383-.113.367-.059.879-.195 1.215.227.336.426.766.793 1.188.965.426.168.594.449.848.422.25-.027-.086-.566-.395-.875-.316-.312-.594-.875-.992-1.133-.395-.254-.789-.566-1.215-.312-.426.254-1.469.113-1.812-.027-.332-.145-.699-.172-.984-.172-.281 0-.426-.223.113-.566.539-.336.676-.699.395-1.465-.281-.766-.906-2.547-1.84-3.309-.309-.254-.676-.109-.824.027-.133.145-.473.312-.812.344-.34.023-.453.168-.027.309.422.137.113.281.566.508.449.23.73.449.703.707-.032.255-.176.392-.258.322z" fill="#e2e3e4"/><path d="M71.558 62.313c.5-.16.438.215.863.184.426-.023.539.469.16.395-.383-.066-.418-.312-.652-.324-.242-.017-.68-.158-.371-.255zM75.972 62.188c.055.238.184.789.234 1.016 1.176-1.031 1.461-1.324 1.672-1.469.211-.141.422-.297 1.074.254.648.551 1.574 1.149 1.863 1.258.227.078.469.258.609.961.172.125.797.184.766-.297-.031-.484-.117-.719-.555-.922-.434-.195-1.766-.664-2.402-1.199-.633-.539-1.215-1.191-1.684-.82-.46.37-1.312 1.018-1.577 1.218zM62.687 58.93c-.355.473-1.02 1.094-1.387 1.402-.367.312-.379.738-.113 1.242.129.246.215.516.41.539.195.027.285.172.184.383-.098.211-.07.441.312.426.66-.031.633-.387 1.027-.414.231-.012.356-.027.371-.195.016-.172.211 0 .211-.609 0-.605-.324-.891-.098-1.156.223-.27.328-.719.113-1.086-.597-1.021-.698-.97-1.03-.532zM60.495 62.891c-.199 0 .055.312.34.176.285-.145.055-.527 0-.387-.059.144-.254.211-.34.211zM61.315 63.359c.039.172.184.66.223.848.043.184.43.465.82.723.395.25.762.281 1.02.465.254.184.449-.125-.02-.512-.461-.379-1.266-1.168-1.707-1.539-.437-.367-.367-.113-.336.015z" fill="#e2e3e4"/><path d="M62.8 63.473c.367-.367.816-.395 1.496-.254.68.141 2.688.508 3.586.508.906 0 1.586.168 1.695.676.117.512.344 1.047.598 1.277.254.223.227.336.086.504-.141.172.113.344-.848.312-.965-.031-1.695-.312-2.18-.285-.48.031-.789 0-1.07-.164-.285-.172-.91-.344-.852.254.055.594.117.902.484 1.102.367.195.367.535.027 1.105-.34.559-1.5 1.719-2.004 2.258-.512.531-.684 1.301.082 1.75.762.453 1.949 1.27 2.148 1.809.312.055.531.086.762.34.223.254.312.34-.059.453-.363.109-.562.082-.703-.113-.141-.199-.426-.223-.652-.199-.223.031-.422-.082-.566-.367-.137-.281-1.473-1.441-1.918-1.754-.453-.309-1.078-.566-.625-1.355.453-.789.539-1.184.48-1.5-.055-.309-.113-.672.031-.902.137-.227-.145-.875-.82-.93-.68-.059-1.133-.059-1.359-.398-.23-.34-.707-.621-1.043-.535 0-.879.453-2.066 1.414-2.484.477.477 1.469 1.184 2.457 1.547.984.371 1.187.031.762-.73-.421-.769-1.019-1.503-1.409-1.925z" fill="#e2e3e4"/><path d="M65.878 71.899c-.172 0-.625.055-.703.082-.285-.312-.43-.535-.684-.598-.258-.055-.82.312-.281.598.535.285.82.703.902.852.2-.231.594-.852.766-.934zM66.702 68.699c-.105.316-.484.684-.77.793-.281.113-.59.82-.59 1.438 0 .625.277.496.789.453 1.387-.109 3.027-.023 3.539.199.504.226 1.238.316.676-.137-.562-.453-2.18-.68-2.941-.68-.762 0-.961.164-.961-.312 0-.48.027-.566.285-.848.254-.281.395-.594.332-.734-.05-.14-.332-.254-.359-.172zM63.819 74.578c-1.09.18-1.59.797-1.305 1.555l.703.258c-.141-.539-.219-1.191.348-1.414.563-.227.418-.422.254-.399zM78.003 66.551c-.484-.367-.621-.676-1.129-.648-.508.027-1.129.059-1.441.254-.312.199-.766.453-1.246.371-.477-.09-.785.191-.309.562.48.367 1.215.988.309 1.355.344.195.965.793 1.387 1.02.711-.539 1.504-1.16.961-1.75-.312-.34-.395-.684-.453-.879-.055-.199.059-.34.312-.141.254.199.848.336 1.188.336.194-.109.308-.336.421-.48zM78.741 66.922c0 .109-.086.535-.195.703.281-.027.309.117.309.34 0 .227.422.312.395-.195-.032-.512-.228-.68-.509-.848z" fill="#e2e3e4"/><path d="M80.155 67.656c.652.523.422 1.105.707 1.5.281.391-.227.195-.652.254-.43.055-1.102.195-1.188.871-.086.68-.34.367-.508.199-.172-.168-.711.195-.906-.055-.195-.254-.625-.199-.594.195.027.395.258.652.566.594.309-.055.34.281.594.23.254-.062.508.051.449.391-.055.348-.195.848.059 1.078.254.227.367.281.453.027.082-.258.512-.648.766-.793.254-.141.195-.566 0-.371-.199.203-.484-.109-.598 0-.113.121-.309-.082-.195-.418.109-.344.508-.711.648-.48.145.223.34.281.398.082.055-.195.312-.141.223.082-.082.23.199.652.371.402.168-.258.336-.516.422-.824.078-.309.281-.109.426.145.137.25-.055.52-.426 1.043-.395.566-1.461 1.613-2.262 1.922-.363.145-.594.285-.789.055-.199-.223-.43-.191-.371.23.027.199.027.562.141.707-1.496.227-3.137.371-3.727.195-.602-.168-2.633-.113-2.914-.082.172-.426 0-.992-.227-1.078-.223-.082-.426.117-.398.371.031.25.199.562-.422.621-.625.055-1.016.168-1.105.648-.078.48.199.258.316.113.113-.137.648-.082 1.27-.082s1.781.336.68.336c-1.102 0-2.008.172-2.344.43-.34.25-.824.305-.742-.148.09-.453.203-.73.488-.902a.545.545 0 0 0 .223-.68c-.082-.195-.223.035-.539.141-.336.117-1.465-.168-1.129-1.383-.195-.109-.539-.082-.789.059-.254.141-.992.055-.539-.398.453-.453 1.773-1.379 2.973-.789 1.488.738 1.605.109 2.34.508.738.394 2.406.992 3.141.992.738 0 1.43-.582.281-1.219a3.479 3.479 0 0 0-1.074-.34c-.027-.281-.027-.504-.055-.676.504.195 1.043.758 1.129.367.086-.398.281-.43.594-.231.312.199.988.172.789-.281-.195-.449-.594-1.496.059-1.41.648.082.68-.598 1.133-.367.449.223 1.41.422 1.637.055.227-.367.086-1.047.48-1.133.395-.082.512-.25.512-.449-.001-.195.081-.371.225-.254z" fill="#e2e3e4"/><path d="M74.784 69.719c-.336-.715-2.149-1.332-3.703-1.359-1.555-.023-1.582.117-1.41.258.164.145.277.34.25.508-.031.172.086.258.594.137.508-.105 1.465-.305 1.836-.137.367.172.621.113.879.113.254 0 .617.172.367.422-.254.254-.113.312.141.398.249.086 1.413.453 1.046-.34z" fill="#e2e3e4"/><path d="M71.862 69.734c-.316-.109-.726.266-.441.266.281 0 .508-.027.66 0 .16.027.117-.152-.219-.266zM72.89 70.441c.242.078 1.078.254 1.426.449.352.199.211.426-.141.227-.199-.113-.793-.297-1.129-.309-.34-.012-.426-.141-.426-.297 0-.159.141-.112.27-.07z" fill="#e2e3e4"/><path d="M67.233 70.027c.258-.332.625-1.496.598-2.031.934-.141 2.969-.594 3.395-.738.102.145.164.457.219.535-1.809.086-2.824.23-3.109.715-.281.473-.109.73.258.617.371-.113.734.031.762.535.027.512.535.598 1.047.168.281.254.34.516.34.684 0 .164.367.309.703.285.344-.031.938.391.965.648.023.25.055.391.254.223.203-.172.395-.023.281.285-.113.312-.734.508-1.074-.031-.34-.539-1.98-1.559-3.105-1.496-1.139.055-1.784-.063-1.534-.399zM79.515 74.438c-.336 0-.859.152-1.027.324-.172.172-.324.484-.469.539-.141.055 0 .27.453.141.453-.125.934-.492 1.074-.66.141-.176.211-.344-.031-.344zM57.194 72.461c.082.438-.078.621.121.734.195.113.141.367.395.398.254.027.145-.371.227-.598.082-.226.141-.48-.227-.703-.367-.226-.566-.143-.516.169z" fill="#e2e3e4"/><path d="M69.89 57.281c-.082.312-.082 1.016-.027 1.332.059.309.453.277.539-.258.086-.535-.086-.844-.227-1.019-.137-.168-.196-.363-.285-.055zM63.292 69.324c-.082.16-.242.734-.309.887-.07.152.367.281.48.086.106-.195.141-.625.254-.762.11-.144-.28-.492-.425-.211zM65.694 68.207c.117-.367-.309-1.02-.762-1.051-.453-.02-.879.176-.469.355.41.184.684.312.75.566.071.259.395.4.481.13z" fill="#a6b0b6"/><path d="M77.788 80.641c-1.684 0-1.684 2.516 0 2.516 1.68-.001 1.707-2.516 0-2.516zM59.065 80.641c1.68 0 1.68 2.516 0 2.516-1.687-.001-1.711-2.516 0-2.516zM67.405 83.539c-.797-2.055 2.805-2.035 2.066-.027 2.051-.785 2.027 2.809.023 2.066.785 2.055-2.805 2.031-2.07.023-2.046.79-2.027-2.804-.019-2.062z" fill="#e2e3e4" stroke="#a6b0b6" stroke-width=".174"/></g></svg>