<svg xmlns="http://www.w3.org/2000/svg" viewBox="0 0 500 277.8"><defs><style>.cls-1{fill:#c4272f}.cls-3{fill:#f9cf02}</style></defs><g id="Layer_2" data-name="Layer 2"><g id="MNG"><path class="cls-1" d="M0 0h500v277.78H0z"/><path fill="#015197" d="M166.7 0h166.7v277.78H166.7z"/><circle class="cls-3" cx="83.3" cy="99.3" r="22.9"/><circle class="cls-1" cx="83.3" cy="88.9" r="25"/><circle class="cls-3" cx="83.3" cy="93.1" r="16.7"/><path class="cls-3" d="M72.9 61.8a10.4 10.4 0 0 0 20.8 0c0-4.2-2.6-4.7-2.6-6.2s1.6-3.6-1.6-6.2c1.6 2.6-1 3.1-1 5.7s1 2.6 1 4.7a2.1 2.1 0 1 1-4.2 0c0-2.1 2.1-4.2 2.1-7.3s-.5-4.2-2.1-6.8-4.2-4.7-2.1-6.8c-3.1 1-1.6 5.2-1.6 7.8s-2.1 4.2-2.1 7.3 1.6 3.6 1.6 5.7a2.1 2.1 0 1 1-4.2 0c0-2.1 1-2.1 1-4.7s-2.6-3.1-1-5.7c-3.1 2.6-1.6 4.7-1.6 6.3s-2.4 2-2.4 6.2zM37.5 126.4v100h20.8v-100zm70.8 0v100h20.8v-100zm-45.8 16.7v8.3h41.7v-8.3zm0 58.3v8.3h41.7v-8.3zm0-75h41.7l-20.9 12.5zm0 87.5h41.7l-20.9 12.5z"/><circle class="cls-3" cx="83.3" cy="176.4" r="22.1"/><path class="cls-1" d="M83.3 199.7a23.3 23.3 0 1 1 16.5-6.8 23.2 23.2 0 0 1-16.5 6.8zm0-44.2a20.8 20.8 0 1 0 20.8 20.8 20.9 20.9 0 0 0-20.8-20.7z"/><path class="cls-1" d="M83.3 199.7a12.3 12.3 0 1 1 0-24.6 9.8 9.8 0 0 0 0-19.6V153a12.3 12.3 0 0 1 0 24.6 9.8 9.8 0 1 0 0 19.6z"/><circle class="cls-1" cx="83.3" cy="165.3" r="4.2"/><circle class="cls-1" cx="83.3" cy="187.4" r="4.2"/></g></g></svg>