<svg xmlns="http://www.w3.org/2000/svg" viewBox="0 0 499.839 277.402"><path fill="#fff" d="M499.839 98.578h-500V78.793h500v19.785zM-.161 197.535h500v-19.789h-500v19.789z"/><path fill="#00807a" d="M499.839 78.793h-500V-.375h500v79.168z"/><path d="M-.161 177.746h500V98.578h-500v79.168z"/><path fill="#fff100" d="M-.161 276.715h500v-79.18h-500v79.18z"/><path fill="#ec1c2e" d="M199.503 138.516L-.161-.375v277.777l199.664-138.886z"/><path fill="#fff100" d="M73.394 88.535l-12.118 37.457H21.437l32.355 23.317-12.43 37.421 32.032-23.253 32.027 23.253-12.262-37.738 32.188-22.836H85.659L73.394 88.535z"/><path fill="none" stroke="#000" stroke-width=".07" d="M73.394 88.535l-12.118 37.457H21.437l32.355 23.317-12.43 37.421 32.032-23.253 32.027 23.253-12.262-37.738 32.188-22.836H85.659L73.394 88.535z"/><path d="M73.538 131.793c-6.219-1.367-12.578-1.531-19.43 1.023l-2.555 2.734-7.742 24.91h24.684c.762 1.445 3.328 2.215 5.043 2.215 1.711 0 4.32-.77 5.094-2.215h24.684l-7.75-24.91-2.555-2.734c-6.856-2.554-13.254-2.39-19.473-1.023z" fill="#fff"/><path d="M73.538 131.793c-6.219-1.367-12.578-1.531-19.43 1.023l-2.555 2.734-7.742 24.91h24.684c.762 1.445 3.328 2.215 5.043 2.215 1.711 0 4.32-.77 5.094-2.215h24.684l-7.75-24.91-2.555-2.734c-6.856-2.554-13.254-2.39-19.473-1.023zm0 25.465c3.949-2.469 16.941-4.105 24.398-2.062m-24.398 2.062c1.758.047 4.23 1.664 5.094 3.203m19.305-5.266c.344 1.195 3.23 4.586 5.379 5.266m-5.379-5.266l-4.926-22.379m-19.473 24.442c-3.949-2.469-16.891-4.105-24.348-2.062m24.348 2.062c-1.754.047-4.184 1.664-5.043 3.203m-19.305-5.266c-.352 1.195-3.238 4.586-5.379 5.266m5.379-5.266l4.918-22.379m19.43 24.442v-25.465" fill="none" stroke="#000" stroke-width=".07"/><path d="M87.28 124.57l-2.273-2.484-4.023 3.625c.32 1.059-1.09 2.082-2.418 3.285l-8.734 7.879c-1.223-1.34-2.477-2.867-2.332-3.414l-.691.609c-.133.555.492 1.391 1.715 2.73l-3.488 3.156c2.773 2.73 8.527 4.648 14.5 4.641l-.277 5.711c-8.328.004-14.512-2.566-18.484-6.527l-1.086.977c-.285.664 1.094 1.922 1.836 2.73l-4.312 3.906c.047 1.117.621 2.883 1.445 4.785.738 1.715.633 1.914-.645 3.055-1.266 1.145-1.668.66-2.238-.629-.406-.906-.707-1.746-.883-3.426-.184-1.68-2.129-1.633-2.734-2.809l3.277-2.98 2.219.109 2.27-2.043-1.449-1.594-1.785 1.598c.352.391.957 1.129 1.406 1.074-.836.18-1.684-.184-2.004-.535l-6.09 5.5c.164.285-.699 1.445-1.336 2.234-2.207 2.73-7.172 9.203-11.055 13.73-.566.664-1.008.395-1.383-.027-1.504-1.711-3.227-3.406-4.965-5.402-.359-.422-.656-1-.344-1.285 4.539-4.238 5.824-5.367 7.34-6.551 1.414-1.105 2.152-1.312 4.234-1.801 2.707-2.586 3.059-2.906 4.668-4.422.191-.219.715-.191.855-.07l9.105-8.227.93.836 1.367-1.945 6.316-5.699-.504-.543-6.773 6.121-1.328-.824-.645.582.828.355-9.02 8.137c-.371.336-.5-.465-.457-1.285.035-.816.133-1.961.109-2.336.387.203.836-.082 1.375-.508l14.371-11.895c-.066-.223-.027-.543.395-.926.43-.387 4.199-3.793 4.551-4.109-.211.188-.211 1.328.742 2.375.715.781 1.652 1.281 2.012.957l7.027-6.348-.41-.449-6.609 5.977c-.23.172-1.012-.086-1.539-.672-.43-.465-.695-1.035-.422-1.277l7.5-6.773c-.277.359.48 1.195 1.371 2.16l.312-.277c-.75-.828-1.148-1.375-.871-1.625l5.684-4.777 3.312.164 4.574-4.09c-.047-.676-.148-1.641-.121-2.168.035-.738.191-1.512.867-.77a640.21 640.21 0 0 1 1.305 1.438l.312-.285.746.82 1.559-1.41c.34-.297 1.508.965 1.18 1.273-.461.438-.754.684-.754.684l.645.695 17.266-12.547c1.012-.688 2.062-1.008.5.547L99.03 115.664c-.824.809-.965.578-1.715-.156L87.28 124.57z"/><path d="M59.401 117.402c.488.488 1.418.785 2.906 0 5.379 5.98 17.09 19.188 44.543 50.449.93 1.117 3.152-1.059 2.176-2.172-27.445-31.254-39.156-44.469-44.527-50.445.406-.484.652-1.617.277-2.207a130.034 130.034 0 0 0-3.098-3.418c-1.195-1.266-1.195-1.93-2.875-2.445-1.535-.484-2.461.105-3.168.699-.707.594-1.262 1.746-1.309 2.191-.074.707-.406.934-.812 1.332-.734.727-1.348.414-3.215-.109-1.867-.516-2.156-1.109-4.551 2.309-4.621 6.602-6.707 9.57-11.266 16.031l7.387 8.312c6.195-8.09 8.359-10.98 13.5-17.668.691-.891.789-1.738.789-2.48 0-.492-.043-1.375-.043-1.898 0-.891-.141-1.34.301-1.855 1.312-.074 3.359-1 3.547-2.262.106 1.227-1.566 2.777-3.359 2.707.856.781 2.036 2.176 2.797 2.929z"/></svg>