<svg xmlns="http://www.w3.org/2000/svg" viewBox="0 0 499.839 277.402"><path fill="#006233" d="M499.839 277.402V-.375h-500v277.777h500z"/><g fill="#ffc400"><path d="M314.651 71.856c9.574 13.199 15.258 29.395 15.258 46.938 0 44.223-35.848 80.07-80.07 80.07-44.219 0-80.066-35.848-80.066-80.07 0-17.496 5.688-33.703 15.223-46.883-3.961 8.836-6.09 18.625-6.09 28.934 0 39.168 31.762 70.93 70.934 70.93s70.926-31.762 70.926-70.93c-.001-10.31-2.158-20.146-6.115-28.989z"/><path d="M249.487 36.496l-6.777 21.051h-22.277l18.089 13.098-6.949 21.027 17.914-13.066 17.906 13.066-6.855-21.203 18-12.84h-22.191l-6.86-21.133z"/></g></svg>