<svg xmlns="http://www.w3.org/2000/svg" viewBox="0 0 499.839 277.402"><path fill="#009543" d="M-.161 277.402h500V-.375l-500 277.777z"/><path fill="#003580" d="M499.839-.375h-500v277.777l500-277.777z"/><path fill="#fcb727" stroke="#006bb5" stroke-width=".04" d="M76.894 125.992l8.437-21.394 18.301 14.179-2.985-22.617 22.622 2.985L109.245 81l21.238-8.601-21.238-8.59 14.024-18.153-22.622 2.985 2.985-22.617-18.301 14.175-8.437-21.386-8.442 21.386-18.308-14.175 2.988 22.617-22.617-2.985 14.019 18.153-21.234 8.59L44.534 81 30.515 99.145l22.617-2.985-2.988 22.617 18.308-14.179 8.442 21.394z"/><path d="M76.894 102.004c16.348 0 29.605-13.254 29.605-29.605 0-16.348-13.258-29.606-29.605-29.606-16.352 0-29.605 13.258-29.605 29.606-.001 16.351 13.253 29.605 29.605 29.605z" fill="none" stroke="#003580" stroke-width="1.584"/><path fill="#fff" d="M499.839 54.984L99.647 277.402H-.161v-55.355L400.112-.375h99.727v55.359z"/><path fill="#d21034" d="M499.839 36.797L66.745 277.402H-.161v-37.16L432.847-.375h66.992v37.172z"/></svg>