<svg xmlns="http://www.w3.org/2000/svg" viewBox="0 0 499.839 277.402"><path fill="#0067c6" d="M499.839 277.402V-.375h-500v277.777h500z"/><path fill="#fff" d="M499.839 184.812h-500V92.207h500v92.605z"/><path fill="#003876" d="M278.632 154.812l-28.93-49.343-28.934 49.343h57.864z"/><path fill="#ffce46" d="M221.69 154.223l28.012-47.571 28.012 47.571H221.69z"/><path fill="#003876" d="M222.62 153.645l27.082-45.817 27.078 45.817h-54.16z"/><path fill="#fff" d="M275.839 153.055l-26.137-44.063-26.137 44.063h52.274z"/><path fill="none" stroke="#000" stroke-width=".035" d="M275.839 153.055l-26.137-44.063-26.137 44.063h52.274z"/><path d="M248.081 133.25c-.117 0-.211-.031-.367-.031-.129 0-.09-.047-.09-.32 0-1.016.055-1.93.434-2.281.383-.348.836-.414 1.156-.414.332 0 .461-.316.059-.43-.379-.129-.617-.191-1.098-.148-.02-.621.203-1.258.957-1.258.398 0 .621.035 1.227.035.625 0 1.344.887 1.344 1.867 0 1.176-.035 2.316-.035 2.699 0 .355-.223.441-.543.441-.332 0-.598-.008-.812-.008-.184 0-.332-.023-.332.344 0 .383-.047.754-.047 1.098 0 .375-.285.59-.789.332-.49-.258-.72-.668-1.064-1.926z" fill="#ee3e42"/><path fill="#ffce46" d="M210.272 131.148l-.402 2.653 1.203.168.352-2.391.984.156-.348 2.391 1.399.223.406-2.66.875.121-.562 3.734-5.364-.801.563-3.742.894.148zM211.765 128.031c.445.152.934.297.934.297s.152-.504.301-.98c.156-.48-.137-.934-.644-1.074-.496-.168-.856.133-.992.562-.133.398-.289.996-.289.996-.01-.008.322.094.69.199l-.246.977-1.625-.508s.277-.914.676-2.168c.266-.867 1.152-1.281 2.09-.988.809.25 1.504 1.121 1.219 2.027-.16.555-.383 1.203-.383 1.203l1.875.602-.305.938-3.547-1.105.246-.978zM216.823 122.809c.324-.66-.027-1.07-.441-1.262l-3.199-1.582.461-.949s2.543 1.277 3.199 1.59c.781.371 1.453 1.219.789 2.609-.68 1.367-1.766 1.344-2.559.945l-3.207-1.586.469-.926s2.812 1.379 3.215 1.59c.426.188.949.235 1.273-.429zM218.573 118.008c.285.223.625.445.625.445s.609-.855.812-1.148c.215-.285.121-.656-.238-.918-.371-.238-.711-.203-.922.082-.203.301-.836 1.156-.836 1.156.016.004.274.199.559.383l-.637.887c-.59-.434-1.258-.91-1.812-1.297l.637-.867c.266.164.496.355.496.355s.496-.668.793-1.082c.273-.383 0-.75-.121-.832-.211-.145-.633-.191-.848.129-.23.34-.781 1.078-.781 1.078.016.008.238.176.461.352l-.637.867c-.672-.504-1.199-.867-1.199-.867s.344-.488 1.207-1.703c.59-.832 1.512-1.297 2.246-.758.344.223.582.648.637 1.105.445-.121.859-.125 1.402.273.543.379 1.094 1.207.297 2.297-.535.758-1.383 1.938-1.383 1.938s-.617-.434-1.395-.988l.637-.887zM219.792 110.531l3.168 3.094 1.687-1.711.692.672-2.442 2.52-3.863-3.801.758-.774zM226.522 111.574l-3.417-4.226.831-.672 3.434 4.207-.848.691zM229.761 104.863c-.16-.285-.695-.637-1.414-.203-.719.449-.688 1.254-.102 2.156.562.887 1.375 1.258 1.984.859.617-.375.637-1.074.422-1.418l.793-.5c.605.965.277 2.09-.781 2.738-1.062.676-2.371.211-3.234-1.168-.875-1.387-.703-2.758.414-3.473 1.148-.695 2.277-.219 2.734.504l-.816.505zM243.792 100.551c.109.906.219 1.844.219 1.852 0 0 .527-.055.848-.109.348-.039 1.273-.293 1.07-1.996-.176-1.574-1.098-1.59-1.438-1.555-.184.039-.875.117-.875.117s.082.831.176 1.691l-.996.137c-.148-1.312-.285-2.617-.285-2.617.543-.055 1.332-.168 2.008-.23.664-.066 2.156-.055 2.422 2.277.148 1.473-.395 2.941-1.621 3.098-1.227.133-2.203.254-2.203.254s-.164-1.398-.32-2.781l.995-.138zM253.28 98.539l-2.664-.144-.066 1.214 2.406.11-.039 1.015-2.41-.136-.074 1.445 2.672.121-.04.879-3.785-.176.285-5.418 3.77.164-.055.926zM261.147 99.059l.848 3.695.996-3.102 1.02.325-1.657 5.168-.976-.305-.934-3.945-1.058 3.289-1.039-.332 1.66-5.168 1.14.375zM264.065 105.867l2.305-4.91.984.445-2.312 4.914-.977-.449zM271.503 105.879c.191-.277.285-.93-.426-1.359-.727-.465-1.406-.086-1.98.836-.57.883-.531 1.773.082 2.168.602.379 1.227.102 1.449-.246l.793.504c-.594.945-1.742 1.145-2.801.473-1.062-.66-1.211-2.043-.363-3.414.902-1.387 2.184-1.84 3.316-1.121 1.129.695 1.191 1.945.746 2.664l-.816-.505zM287.386 126.621c.43-.371.609-.867.43-1.387-.246-.77-1.129-1.027-2.152-.668-1.004.352-1.551 1.105-1.273 1.883.223.637.773.934 1.465.746l-.348-.984.809-.285.629 1.84-2.602.914-.211-.59c.176-.078.395-.184.547-.312-.535-.121-.926-.496-1.172-1.07-.469-1.16.34-2.547 1.867-3.074 1.512-.527 2.805-.02 3.273 1.324.359 1.059-.035 2.164-.984 2.484l-.278-.821zM285.901 132.297c.113.746.629.852 1.086.773.445-.059 3.527-.57 3.527-.57l.176 1.035s-2.824.445-3.527.578c-.863.121-1.898-.16-2.156-1.656-.238-1.52.645-2.129 1.523-2.277.688-.109 3.516-.578 3.516-.578l.176 1.039s-3.094.508-3.547.574c-.449.074-.895.347-.774 1.082zM216.167 158.895c.203.293.398.613.398.613l1.52-1.727-2.246.574s.176.258.328.54l-.774.441c-.246-.395-.461-.746-.461-.746l-1.121.289-.535-.855 5.52-1.391.617 1.02-3.703 4.312-.527-.855.773-.871s-.312-.48-.562-.902l.773-.442zM218.417 165.418l2.422-3.504-3.078 2.793-.672-.746 4.012-3.66 1.046 1.179-2.433 3.469 3.695-2.094 1.059 1.157-4.032 3.633-.664-.727 3.059-2.797-3.715 2.07-.699-.773zM228.374 168.469l-2.117-1.649-.746.965 1.898 1.473-.609.793-1.914-1.477-.868 1.121 2.102 1.649-.543.711-2.976-2.34 3.332-4.285 2.996 2.332-.555.707zM230.351 171.492c.32.156.754.406.926.512.297.156.691.051.914-.352.203-.375.066-.77-.293-.949-.324-.195-1.18-.68-1.18-.68l-.703 1.266s.14.074.336.203l-.379.887-.434-.246-1.031 1.84-.961-.527s2.664-4.758 2.664-4.75c0 0 1.934 1.078 2.59 1.465.645.352.66 1.238.277 1.926-.371.668-1.156.832-1.391.684.312.184.477.727.137 1.309-.148.293-.73 1.336-.73 1.336l-.922-.516.617-1.113c.336-.57.156-.867-.328-1.125-.184-.094-.34-.203-.488-.281l.379-.889zM233.179 176.391l2.054-5.036.993.422-2.055 5.012-.992-.398zM240.62 175.164c.102-.312-.008-.945-.801-1.172-.832-.227-1.398.344-1.668 1.379-.297 1.031.02 1.871.711 2.039a1.072 1.072 0 0 0 1.332-.645l.887.25c-.285 1.086-1.328 1.613-2.531 1.289-1.227-.352-1.77-1.613-1.328-3.188.441-1.586 1.555-2.395 2.82-2.047 1.297.367 1.711 1.531 1.492 2.352l-.914-.257zM256.55 175.68c-.047-.324-.398-.871-1.242-.746-.82.145-1.109.895-.941 1.945.168 1.039.781 1.699 1.5 1.574.723-.105.996-.727.941-1.137l.938-.16c.156 1.133-.562 2.035-1.805 2.234-1.25.172-2.266-.75-2.512-2.363-.258-1.617.438-2.809 1.73-3.02 1.328-.211 2.184.676 2.313 1.516l-.922.157zM262.436 173.121l-2.55.817.367 1.148 2.305-.742.277.953-2.277.726.441 1.364 2.543-.821.269.836-3.605 1.172-1.648-5.164 3.593-1.176.285.887zM264.729 171.16l3.196 2.063-1.481-2.922.969-.492 2.438 4.851-.911.469-3.437-2.141 1.558 3.074-.968.497-2.442-4.848 1.078-.551zM273.327 172.461l-2.644-3.649-1.293.922-.532-.742 3.356-2.437.539.738-1.289.945 2.664 3.645-.801.578zM281.284 155.637l3.973 2.015 1.094-2.148.875.441-1.594 3.125-4.824-2.461.476-.972zM245.28 177.582c.352.031.719.07.719.07l-.449-2.262-.895 2.133s.285.028.625.059l-.145.887c-.434-.043-.859-.082-.859-.082l-.461 1.07-1.012-.102 2.277-5.234 1.195.133 1.164 5.562-1.016-.098-.215-1.133s-.551-.055-1.074-.117l.146-.886zM281.425 161.789c.219-.293.43-.598.43-.598l-2.199-.738 1.41 1.852a9.24 9.24 0 0 1 .359-.516l.719.562c-.277.355-.508.691-.508.691l.684.934-.59.828-3.391-4.574.691-.984 5.418 1.781-.59.824-1.098-.363s-.332.434-.617.863l-.718-.562zM276.116 166.242c.242-.25.609-.598.738-.75.25-.223.242-.641-.074-.957-.32-.305-.727-.273-1.004.008l-.969.977 1.016 1.004c0-.001.121-.106.293-.282l.746.613-.34.367 1.477 1.473-.75.77s-3.848-3.836-3.848-3.828c0 0 1.555-1.57 2.098-2.109.52-.523 1.375-.297 1.926.254.555.551.496 1.336.297 1.547.25-.262.816-.262 1.297.215a48.026 48.026 0 0 1 1.078 1.074l-.727.723s-.441-.414-.914-.887c-.477-.473-.801-.359-1.176.008-.148.148-.297.281-.418.395l-.746-.615zM287.577 138.43c0 .352-.008.719-.008.719l2.211-.656-2.203-.707v.644l-.922-.043c0-.461.004-.891.004-.891l-1.105-.34.008-1.02 5.418 1.758-.004 1.195-5.434 1.695.008-1 1.105-.336v-1.062l.922.044zM282.675 120.039c.16.312.352.641.352.641l1.594-1.664-2.273.48c-.001 0 .163.266.327.543l-.828.391c-.203-.383-.414-.746-.414-.746l-1.133.227-.496-.887 5.594-1.117.578 1.051-3.914 4.137-.48-.887.781-.824s-.246-.492-.516-.953l.828-.392zM274.706 110.274c.262.246.543.504.543.504l.969-2.105-1.996 1.176c0-.001.246.206.484.425l-.641.641c-.336-.301-.629-.578-.629-.578l-1.004.594-.758-.668 4.902-2.906.887.805-2.32 5.191-.766-.664.484-1.051c0-.004-.41-.363-.797-.723l.642-.641zM235.112 103.883c.355-.121.688-.277.688-.277l-1.461-1.762.199 2.289c0-.004.285-.113.574-.25l.32.871c-.422.16-.816.332-.816.332l.109 1.148-.934.371-.469-5.656 1.105-.461 3.656 4.363-.93.379-.738-.891s-.516.215-.984.414l-.319-.87zM211.065 139.832c0-.348 0-.852-.008-1.059 0-.332-.312-.613-.758-.613-.434 0-.707.312-.699.699.008.398.008 1.375.008 1.375l1.457-.012v-.39l.965-.117v.5l2.105-.004.008 1.078-5.43.027s-.008-2.203-.016-2.969c0-.727.766-1.188 1.531-1.188.789-.004 1.297.586 1.297.875 0-.363.395-.773 1.066-.777.336 0 1.531-.008 1.531-.008l.008 1.047-1.289.008c-.652.004-.82.312-.812.844v.566l-.964.118zM279.581 113.746c.23.281.535.656.672.832.215.258.625.297.957.016.363-.273.379-.695.105-1a48.42 48.42 0 0 0-.84-1.074l-1.133.918c.001 0 .11.125.239.308l-.684.668c-.184-.223-.328-.371-.328-.371l-1.641 1.32-.672-.848s4.258-3.41 4.254-3.402c0 0 1.367 1.715 1.836 2.324.469.578.148 1.41-.461 1.875-.617.492-1.371.359-1.551.129.23.289.168.848-.355 1.277-.285.191-1.199.934-1.199.934l-.652-.809s.469-.379.992-.805c.516-.398.461-.754.129-1.168a4.557 4.557 0 0 1-.352-.457l.684-.667zM212.823 149.699a.928.928 0 0 0 .941-.926.953.953 0 0 0-.941-.949.952.952 0 0 0-.945.949c0 .524.422.926.945.926zM286.573 149.699a.933.933 0 0 1-.941-.926c0-.516.434-.949.941-.949.523 0 .941.434.941.949a.922.922 0 0 1-.941.926z"/><path d="M237.968 128.754l-1.043 1.773 8.41 1.668a6.765 6.765 0 0 1-.023-.555l-7.344-2.886zM240.683 124.176l-.863 1.504 6.152 2.832c.066-.125.148-.266.215-.383l-5.504-3.953zM239.425 126.305l-.859 1.449 6.82 2.645c.023-.195.062-.359.098-.539l-6.059-3.555zM253.233 134.875l9.609 6.785c.922-.059 3.426-.156 3.934-.176l-13.277-7.121c-.082.16-.164.348-.266.512zM249.292 137.129l-.434 4.648c.254-.004.77-.008.848-.012v-4.613h-.004c-.125 0-.266-.011-.41-.023zM249.96 125.887l1.133-14.539-1.391-2.355-.59 1.016.5 15.871c.027-.008.055-.008.09-.008.078-.001.168.007.258.015zM267.78 139.484l-2.195-3.715-11.707-2.492a4.891 4.891 0 0 1-.23.699l14.132 5.508zM263.976 133.055l-1.273-2.148-8.633 1.258a6.116 6.116 0 0 1-.098.699l10.004.191zM262.022 129.766l-.957-1.621-7.012 2.582c.02.227.027.441.035.676l7.934-1.637zM260.163 126.641l-.664-1.121-5.703 3.953c.062.172.117.363.148.559l6.219-3.391zM258.909 124.504l-.84-1.414-4.762 5.191c.098.18.176.367.25.535l5.352-4.312zM257.737 122.531l-.562-.945-4.469 5.816c.113.141.211.266.297.391l4.734-5.262zM256.679 120.738l-.555-.934-4.234 6.82c.117.082.238.195.355.285l4.434-6.171zM255.405 118.613l-.801-1.348-3.316 8.996c.121.062.258.129.387.227l3.73-7.875zM253.581 115.551l-1.086-1.812-2.145 12.215c.137.023.246.047.367.074l2.864-10.477zM247.647 112.445l-1.148 1.938 2.359 11.605c.102-.023.227-.039.328-.062l-1.539-13.481zM245.511 116.043l-.828 1.422 3.418 8.809c.074-.039.164-.078.258-.137l-2.848-10.094zM243.855 118.816l-.656 1.145 4.32 6.66c.074-.055.149-.105.23-.144l-3.894-7.661zM242.491 121.145l-1.117 1.891 5.375 4.305c.09-.109.18-.199.258-.277l-4.516-5.919zM235.222 133.156l-1.426 2.586 11.789-2.262a2.85 2.85 0 0 1-.117-.387l-10.246.063zM231.886 139.012l-1.613 2.703 15.59-7.465c-.047-.117-.109-.242-.148-.359l-13.829 5.121zM238.355 139.777l.664 1.055 7.211-5.859c-.047-.07-.09-.176-.149-.254l-7.726 5.058zM239.636 141.785l.016.031c.602.004 1.484.016 1.648.016l5.484-6.105c-.082-.098-.156-.172-.23-.258l-6.918 6.316zM244.819 139.469a33.563 33.563 0 0 1 1.309-.16l1.391-2.902c-.109-.086-.238-.176-.359-.297l-2.341 3.359zM246.866 139.883c.164.383.574 1.18.629 1.281l1.066-4.215a2.997 2.997 0 0 1-.426-.16l-1.269 3.094zM250.78 141.75c.391-.008 1.008-.012 1.227-.016l-1.352-4.727a1.63 1.63 0 0 1-.426.098l.551 4.645zM253.268 141.715c.27-.008 1.098 0 1.559.008l-3.453-5.012c-.121.09-.277.156-.418.203l2.312 4.801zM255.768 141.73c.551 0 1.777-.016 2.133-.008l-5.727-5.559c-.066.082-.156.133-.23.191l3.824 5.376zM258.796 141.73c.629-.016 1.91-.023 2.285-.027l-8.152-6.371c-.109.18-.25.348-.395.484l6.262 5.914z" fill="#b3d2ee"/><path d="M265.815 136.137c.23 1.113.359 2.285.359 3.461 0 .719-.055 1.402-.137 2.098l.352-.008a19.43 19.43 0 0 0 .117-2.09c0-.891-.07-1.773-.203-2.637l-.488-.824zM259.968 126.285a16.789 16.789 0 0 0-10.266-3.496 16.809 16.809 0 0 0-10.27 3.496l-.496.832a16.493 16.493 0 0 1 10.766-3.996c4.109 0 7.871 1.512 10.754 3.996l-.488-.832zM233.573 136.145l-.473.82c-.145.859-.211 1.75-.211 2.633 0 .816.055 1.617.176 2.402l.34.004a17.501 17.501 0 0 1-.176-2.406c.001-1.176.129-2.348.344-3.453z" fill="#4e2f90"/><path d="M266.304 136.961c.133.863.203 1.746.203 2.637 0 .715-.043 1.395-.117 2.09h.32c.086-.695.129-1.375.129-2.09 0-.633-.035-1.285-.102-1.898l-.433-.739zM259.518 125.551a17.037 17.037 0 0 0-9.816-3.086 17.1 17.1 0 0 0-9.828 3.082l-.441.738a16.8 16.8 0 0 1 10.27-3.496c3.855 0 7.426 1.309 10.266 3.496l-.451-.734zM233.101 136.965l-.441.738a17.392 17.392 0 0 0 .074 4.301l.332-.004a15.75 15.75 0 0 1-.176-2.402c0-.883.066-1.774.211-2.633z" fill="#003876"/><path d="M266.737 137.699c.066.613.102 1.266.102 1.898 0 .715-.043 1.398-.129 2.09h.34c.074-.691.105-1.375.105-2.09 0-.426-.012-.824-.039-1.25l-.379-.648zM259.128 124.895a17.326 17.326 0 0 0-9.426-2.758c-3.48 0-6.707 1.004-9.43 2.758l-.398.652a17.1 17.1 0 0 1 9.828-3.082c3.66 0 7.039 1.141 9.816 3.086l-.39-.656zM232.659 137.703l-.387.645c-.02.426-.043.824-.043 1.25 0 .82.055 1.617.156 2.41l.348-.004a17.548 17.548 0 0 1-.074-4.301z" fill="#009bdb"/><path d="M267.116 138.348c.027.426.039.824.039 1.25 0 .715-.031 1.398-.105 2.09h.332c.094-.695.129-1.375.129-2.09 0-.215 0-.426-.008-.617l-.387-.633zM258.776 124.285a17.726 17.726 0 0 0-9.074-2.496c-3.312 0-6.43.918-9.074 2.496l-.355.609a17.32 17.32 0 0 1 9.43-2.758c3.469 0 6.707 1.004 9.426 2.758l-.353-.609zM232.272 138.348l-.375.633c-.004.199-.012.402-.012.617 0 .82.059 1.633.176 2.418l.324-.008a18.797 18.797 0 0 1-.156-2.41c.001-.426.024-.825.043-1.25z" fill="#00ac8d"/><path d="M267.503 138.98c.008.191.008.398.008.617 0 .719-.043 1.402-.129 2.098l.324-.008c.082-.695.137-1.375.137-2.09v-.039l-.34-.578zM258.421 123.691a18.09 18.09 0 0 0-8.719-2.234c-3.168 0-6.133.816-8.723 2.234l-.352.594a17.696 17.696 0 0 1 9.074-2.496c3.309 0 6.422.918 9.074 2.496l-.354-.594zM231.897 138.98l-.332.578v.039c0 .816.062 1.617.164 2.406l.332.012a16.453 16.453 0 0 1-.176-2.418c.001-.214.008-.425.012-.617z" fill="#fff100"/><path d="M267.843 139.559v.039c0 .715-.055 1.395-.137 2.09h.352c.047-.523.082-1.051.102-1.582l-.317-.547zM258.104 123.149a18.5 18.5 0 0 0-16.8-.008l-.324.551a18.095 18.095 0 0 1 8.723-2.234c3.172 0 6.121.816 8.719 2.234l-.318-.543zM231.565 139.559l-.324.547c.012.633.062 1.27.129 1.898h.359a18.73 18.73 0 0 1-.164-2.406v-.039z" fill="#f9aa53"/><path d="M268.159 140.105c-.02.531-.055 1.059-.102 1.582h.332c.035-.367.062-.703.082-1.059l-.312-.523zM257.792 122.613a18.885 18.885 0 0 0-8.09-1.809c-2.891 0-5.645.648-8.094 1.809l-.305.527a18.58 18.58 0 0 1 8.398-2.012c3.023 0 5.887.738 8.402 2.02l-.311-.535zM230.929 140.629c.035.469.066.914.129 1.375h.312a22.317 22.317 0 0 1-.129-1.898l-.312.523z" fill="#ec1c2e"/><path d="M240.261 142.836c.406.012 1.594.031 1.852.031.266 0 .551.281-.02.281-.57 0-1.473.035-1.602.035l-.23-.347zM240.89 143.711c.266 0 .773-.047.965-.031.184.016.258.16 0 .191-.266.031-.59.094-.836.113l-.129-.273zM248.304 142.738c.258.047 1.742-.012 1.992-.012v.25c-.617.027-1.594.125-1.836.117l-.156-.355zM255.71 142.426c.418 0 1.152.062 1.41.062l-.027.199c-.441-.02-1.105.082-1.246.082l-.137-.343zM260.601 142.516c.461-.027 1.402.016 1.652.016l-.012.254c-.535.023-1.18.035-1.445.035l-.195-.305zM270.655 144.289c-.617.027-1.484.117-1.703.16-.258.043-.359.336.082.27.348-.055 1.289-.109 1.797-.129l-.176-.301zM228.608 144.52c.57.012 1.906.141 2.586.246l.676-.363c-.418-.07-2.223-.211-3.043-.23l-.219.347zM229.186 143.547l-.164.312c.91-.215 2.586-.148 3.473.074l.32-.281c-.672-.328-2.742-.254-3.629-.105zM229.714 142.648l-.316.555c1.145-.246 3.188-.449 4.184-.227l.312-.25c-1.122-.402-3.27-.164-4.18-.078zM234.983 151.984c-.215-.074.07-.223.355-.359 1.246-.539 2.84-.211 3.586-.074.758.16.656.316.449.398.848-.02 1.699-.051 2.473-.07-.57-.023-1.227-.141-2.398-.535-1.664-.543-3.875-.242-4.633 0-.617.199-1.355.312-2.129.199.723.211 1.532.367 2.297.441zM268.952 141.434c-1.254-.008-4.699.145-5.852.219-1.328.062-7.195.098-8.641.062-1.469-.027-8.551.125-10.633.125-1.961 0-11.555-.082-13.555-.117l-.281.504c1.141-.016 6.555.066 8.352.035 1.938-.031 6.949.031 8.672 0 1.723-.031 5.852-.184 6.633-.148.812.031 6.578 0 7.645-.062 1.023-.062 4.859-.168 7.891-.23l-.231-.388zM269.409 142.223c-1.031.023-2.578.09-2.828.113-.277.031-.57.293.082.242.535-.035 2.184-.035 2.949-.035l-.203-.32zM269.815 142.895c-.785.008-2.359.074-2.598.133-.25.047-.426.379.062.289.387-.098 1.98-.121 2.727-.133l-.191-.289zM270.276 143.668c-.727.027-1.953.172-2.191.191-.285.012-.527.285 0 .27.441-.008 1.766-.137 2.355-.176l-.164-.285zM273.659 149.387c-.676.035-1.613-.125-1.992-.277-.441-.18-.836-.234-.246.105.523.301 1.785.535 2.457.516l-.219-.344zM274.163 150.211c-.762.016-2.375-.23-3.5-.77-1.289-.602-2.949-.375-4.359-.184-2.66.332-4.016.152-6.191-.355-2.18-.516-5.102-.426-6.105-.027-1.016.414-.801.535.27.34 1.074-.199 3.562-.5 5.707.074 2.141.57 4.188.664 5.492.57 1.316-.117 2.387-.238 2.941-.211.559.031.477.223 0 .273-3.988.516-5.641.637-7.922 0-2.27-.633-4.379-.398-5.906-.207-1.523.207-3.043.113-4.453-.426-1.434-.543-2.543-.73-3.391-.449-.312.09-.414.27.113.211.516-.07 1.953-.07 3.207.508 1.242.574 3.141.699 4.836.465 1.695-.223 3.77-.5 5.57.234 1.781.75 3.863.578 5.695.301 1.832-.258 3.07-.605 4.535-.219 1.27.324 3.004.41 3.73.344l-.269-.472z" fill="#003876"/><path d="M274.643 151.035c-.812.152-2.902-.016-3.812-.234-1.004-.242-2.629-.031-4.938.414-2.316.434-4.832-.301-6.156-.605-1.316-.309-2.941-.352-4.109-.203-1.168.121-3.047.363-5.695-.422-3.312-.957-5.062-.543-5.887-.305-.828.242-2.586.242-4.465-.27-1.855-.508-3.547-.359-4.684-.062-1.152.301-2.883.547-4.469.062-1.461-.43-3.359-.43-4.512-.355l-.211.383c.984-.16 3.305-.223 4.695.305 1.66.664 3.906.395 4.656.152 1.691-.547 2.789-.453 4.449.059 1.176.375 3.391.438 4.816.07 2.312-.582 3.633-.223 5.52.383 1.918.602 4.539.668 5.941.57 1.438-.094 2.637-.449 4.367.098 1.734.539 4.047.93 6.055.449 1.996-.484 3.805-.547 4.723-.371.902.148 2.496.379 3.883.16l-.167-.278z" fill="#003876"/><path d="M275.042 151.695c-.617.082-2.027.109-3.34-.082-2.16-.293-3.738-.117-5.156.211-2.145.512-3.352.336-5.074-.062-1.734-.418-3.328-.516-5.262-.301-1.934.188-4.812-.152-7.023-.723-2.207-.578-3.996-.332-5.617.062-1.629.414-4.156-.031-4.949-.395-.801-.383-1.973-.422-3.562-.066-1.594.332-2.996.219-4.629-.207-1.508-.422-3.516-.582-4.926-.355l-.168.254c1.043-.117 3.656-.18 5.125.375 1.73.633 3.656.43 4.668.238 1.004-.207 2.727-.277 3.492.094 1.621.812 4.176.621 5.113.363 2.113-.574 3.676-.574 5.453-.027 1.801.539 5.09.895 7.125.621 1.398-.184 3.465-.113 5.16.367 1.699.484 3.352.543 5.246.027 1.91-.508 3.984-.363 5.125-.207 1.086.172 1.945.297 3.371.113l-.172-.3z" fill="#003876"/><path d="M275.511 152.5c-.672.051-2.82.074-3.734-.035-1.004-.098-2.625-.34-4.43.176-1.812.512-4.355.449-5.77-.035-1.426-.48-3.25-.637-4.938-.414-1.703.234-3.84.414-6.41-.336-2.562-.754-3.555-.879-6.246-.16-1.152.301-6.652.227-8.207.309-1.543.059-3.477-.516-4.645-.996-1.117-.457-4.027-.641-6.117-.43l-.242.418c1.965-.398 4.527-.039 5.504.527-1.238-.305-4.266-.18-5.891.105l-.348.629c2.562-.574 6.383-.426 7.773-.133 1.559.34 4.109.609 5.785.211 1.594-.387 4.141.086 5.707.719h7.203c-1.125-.695-2.453-.32-3.426-.211-1.035.098-2.027-.145-2.516-.445-.48-.309 0-.273.82-.516 2.41-.672 4.293.141 5.691 1.172h5.648c1.539-1.035 2.875-.531 3.676-.242.191.07.633.148 1.195.242h5.961c1.445-.59 3.344-.387 4.285-.242.91.125 2.121.273 3.852-.008l-.18-.305z" fill="#003876"/><path d="M271.39 145.547c-3.676-.051-5.215-2.215-6.566-4.484-.699.051-1.688.141-2.352.113-.102.332-.559 1.48-.828 2.371-.793-.504-1.629-2.219-2.125-3.156-.363 0-1.164.031-1.773-.031-.258.512-.977 2.172-1.289 2.836-.59-.602-1.996-2.676-2.516-3.496-.664-.027-1.629.117-2.395.117-.406 1.211-1.25 3.02-2.293 4.074-.738-.754-2.211-3.469-2.691-4.613-.477 0-1.445.207-1.996.207-.48.938-1.871 3.797-2.691 5.281-1.383-1.418-3.113-4.344-4.277-6.301l-1.676.117c-2.07 5.828-5.684 6.629-7.848 6.855l-1.641 2.762c.855.004 2.25.137 3.297.469 1.18.383 3.355.648 5.059.047 1.695-.633 3.484-.516 5.242-.176 1.77.336 4.746.539 7.344-.727 3.316 1.66 5.426.754 7.047.418 1.629-.332 3.871-.574 5.594-.031 2.266.703 5.215.703 7.367.125 2.59-.688 4.137.676 6.117.75l-2.11-3.527z" fill="#00ac8d"/><path d="M235.921 138.582c.141 3.105 1.898 6.336 6.32 10.207.293.012.711.008.996 0-1.168-1.16-3.824-4.051-4.727-5.457a5.248 5.248 0 0 1-.066-.676c2.445 2.789 4.238 4.902 6.555 5.922a9.46 9.46 0 0 0 1.371-.348c-3.844-1.992-5.945-4.898-8.773-9.766-.563.04-1.278.075-1.676.118zM252.339 139.785c-.656 1.992-1.453 3.895-2.59 4.891.195.219.481.441.684.645.488-.359 1.113-1.098 1.273-1.273.281.148.402.719-.383 2.047 1.008.668 2.699 1.613 3.891 1.98-.996.164-2.211.504-2.754.594-2.211-1.582-3.945-2.668-5.641-5.566-.258 1.094-.09 1.613.684 2.484.68.777 1.762 1.984 3.852 3.203-1.227.031-2.535-.23-3.981-.977-.848-1.387-2.504-4.496-2.809-8.328.598-.016 1.438-.195 1.996-.207.625 1.383 1.852 3.68 2.691 4.613.738-.746 1.73-2.375 2.293-4.074.216-.008.677-.024.794-.032zM258.335 140.395c-.203 1.012-.902 2.531-1.383 3.367-.137-.145-.367-.383-.496-.566l1.289-2.836c.141.011.481.038.59.035zM257.132 144.48c.184.09.539.348.672.43.402-.629.488-1.098.379-2.027-.454.387-.512 1.234-1.051 1.597zM261.643 143.547c.184.164.422.324.574.438.367-.941.762-2.176.871-2.809-.254.008-.434.016-.617 0-.355.98-.742 2.019-.828 2.371z" fill="#ffe01b"/><path fill="none" stroke="#000" stroke-width=".056" d="M275.839 153.055l-26.137-44.063-26.137 44.063h52.274z"/></svg>