<svg xmlns="http://www.w3.org/2000/svg" xmlns:xlink="http://www.w3.org/1999/xlink" viewBox="0 0 499.839 277.402"><symbol id="a" viewBox="-60.471 -72.116 120.941 144.231"><path fill="#003263" d="M60.01 1.363h-71.903L60.01-71.991H-60.346V71.896L60.01 1.363z"/><path fill="none" stroke="#000" stroke-width=".25" d="M60.01 1.363h-71.903L60.01-71.991H-60.346V71.896L60.01 1.363z"/><path fill="#e03a3e" d="M39.208 7.002h-64.564l71.931-73.355H-54.686V62.034L39.208 7.002z"/><path fill="none" stroke="#000" stroke-width=".25" d="M39.208 7.002h-64.564l71.931-73.355H-54.686V62.034L39.208 7.002z"/><path fill="#fff" d="M-29.309-51.331l3.549 8.097 7.248-5.184-.806 8.732 8.732-.806-5.117 7.181 8.03 3.616-8.03 3.615 5.117 7.182-8.732-.807.806 8.732-7.248-5.183-3.549 8.096-3.548-8.096-7.248 5.183.806-8.732-8.732.807 5.117-7.182-8.03-3.615 8.03-3.616-5.117-7.181 8.732.806-.806-8.732 7.248 5.184 3.548-8.097zM-38.538 19.395l.812 1.693-4.992 2.141 5.361 1.256-3.605 3.926 5.372-.949-1.64 5.06 4.492-3.015.641 5.281 2.789-4.531 2.789 4.531.641-5.281 4.494 3.015-1.641-5.06 5.371.949-3.604-3.926 5.36-1.256-4.992-2.141.806-1.685A21.711 21.711 0 0 1-8.705 32.39c.057-.621.084-1.241.084-1.877 0-11.425-9.262-20.688-20.688-20.688-11.425 0-20.688 9.263-20.688 20.688 0 .601.043 1.193.094 1.781a21.706 21.706 0 0 1 11.365-12.899z"/></symbol><path fill="#fff" d="M-.161-.375h500v277.777h-500z"/><use xlink:href="#a" width="120.941" height="144.231" x="-60.471" y="-72.116" transform="matrix(1.6306 0 0 -1.6306 260.183 138.516)" overflow="visible"/></svg>