<svg xmlns="http://www.w3.org/2000/svg" viewBox="0 0 499.839 277.402"><path fill="#002b7f" d="M-.161-.375h500v277.777h-500V-.375z"/><path fill="#ffc61e" d="M499.839 153.793h-500V131.41h500v22.383z"/><path fill="#fff" d="M125.858 246.332l5.93-23.012 16.457 17.118-6.195-22.872 22.683 6.387-16.867-16.531 22.883-5.852-22.883-5.859 16.867-16.523-22.683 6.386 6.195-22.875-16.457 17.121-5.93-23.015-5.918 23.015-16.461-17.121 6.2 22.875-22.684-6.386 16.867 16.523-22.883 5.859 22.883 5.852-16.867 16.531 22.684-6.387-6.2 22.872 16.461-17.118 5.918 23.012z"/></svg>