<svg xmlns="http://www.w3.org/2000/svg" viewBox="0 0 499.839 277.402"><path fill="#00247d" d="M499.839 277.402V-.375h-500v277.777h500z"/><path fill="#fff" d="M-.161 41.274h52.726L-.161 14.813V-.375h30.168l73.758 36.766V-.375H145.3v36.766L219.058-.375h30.429v15.188l-52.988 26.461h52.988v41.675h-52.988l52.988 26.453v15.196h-30.429L145.3 87.828v36.77h-41.535v-36.77l-73.758 36.77H-.161v-15.196l52.726-26.453H-.161V41.274z"/><path fill="#cc142b" d="M229.862-.375l-83.328 41.676h19.949L249.487-.375h-19.625zM249.487 124.598l-83.09-41.649h20.036l63.054 31.719v9.93zM83.327 41.301L-.161-.375v9.953l63.367 31.723h20.121zM83.155 82.949L-.161 124.598h19.937l83.325-41.649H83.155z"/><path fill="#cc142b" d="M-.161 49.918h112.773V-.375h24.406v50.293h112.469v24.406H137.018v50.274h-24.406V74.324H-.161V49.918z"/><path fill="#fff" d="M385.948 49.805l-4.5 13.984h-14.797l12.012 8.699-4.609 13.969 11.894-8.676 11.895 8.676-4.555-14.086 11.957-8.523h-14.742l-4.555-14.043zM328.167 107.856l-4.5 13.984h-14.793l12.016 8.699-4.618 13.969 11.895-8.68 11.902 8.68-4.558-14.086 11.957-8.527h-14.739l-4.562-14.039zM435.675 94.371l-4.117 12.793h-13.536l10.993 7.961-4.223 12.781 10.883-7.941 10.883 7.941-4.165-12.882 10.938-7.809h-13.484l-4.172-12.844zM385.925 197.766l-5.032 15.636h-16.55l13.441 9.735-5.164 15.625 13.305-9.707 13.304 9.707-5.093-15.758 13.371-9.531h-16.485l-5.097-15.707z"/><path fill="#cc142b" d="M385.948 56.645l-2.906 9.031h-9.563l7.758 5.625-2.972 9.019 7.683-5.605 7.684 5.605-2.946-9.101 7.727-5.508h-9.523l-2.942-9.066zM328.167 114.695l-2.906 9.028h-9.559l7.762 5.621-2.981 9.023 7.684-5.605 7.691 5.605-2.941-9.101 7.719-5.5h-9.52l-2.949-9.071zM435.675 101.941l-2.449 7.618h-8.063l6.543 4.738-2.512 7.609 6.481-4.73 6.484 4.73-2.484-7.672 6.515-4.644h-8.035l-2.48-7.649zM385.925 205.121l-3.391 10.543h-11.16l9.062 6.559-3.48 10.535 8.969-6.547 8.972 6.547-3.437-10.621 9.016-6.43h-11.114l-3.437-10.586z"/></svg>