<svg xmlns="http://www.w3.org/2000/svg" viewBox="0 0 499.839 277.402"><path fill="#d91f26" d="M-.161-.375h500v277.777h-500z"/><path fill="#0b8040" d="M124.835 184.812h375.004v92.59H124.835z"/><path fill="#fff" d="M124.835-.375h375.004v92.59H124.835z"/><g stroke="#ed3029"><path d="M83.187 44.691H97.62c.793 0 1.438.605 1.438 1.352v6.793c0 .746-.645 1.351-1.438 1.351H83.187c-.789 0-1.441-.605-1.441-1.351v-6.793c-.001-.746.651-1.352 1.441-1.352z" fill="#fff" stroke-width=".113"/><path d="M83.562 45.09h13.684c.758 0 1.367.551 1.367 1.238v6.227c0 .684-.609 1.234-1.367 1.234H83.562c-.75 0-1.367-.551-1.367-1.234v-6.227c-.001-.687.617-1.238 1.367-1.238z" fill="#fff" stroke-width=".106"/><path d="M89.831 47.465l.824.027.047.371.68.352.527-.438.641.344-.606.379.148.524.754-.035v.695l-.602-.031-.301.434.676.492-.527.406-.566-.434-.824.176.031.633-.902.059-.109-.605-.754-.316-.418.43-.641-.32.379-.488-.453-.312h-.637l-.043-.898.641.059.453-.523-.527-.402.672-.461.5.375.828-.117.109-.376z" fill="#fff" stroke-width=".067"/><ellipse cx="90.084" cy="49.339" rx=".912" ry=".779" fill="#fff" stroke-width=".4"/><path d="M84.417 45.484l-1.328 1.184M85.308 45.484l-1.336 1.184M86.194 45.484l-1.336 1.184M87.081 45.484l-1.332 1.184M87.964 45.484l-1.328 1.184M88.854 45.484l-1.332 1.184M89.741 45.484l-1.328 1.184M90.628 45.484L89.3 46.668M91.515 45.484l-1.332 1.184M92.405 45.484l-1.336 1.184M93.288 45.484l-1.324 1.184M94.183 45.484l-1.336 1.184M90.628 45.484L89.3 46.668M95.069 45.484l-1.332 1.184M95.952 45.484l-1.328 1.184M96.843 45.484l-1.332 1.184M97.729 45.484l-1.332 1.184M96.397 45.484l1.332 1.184M95.511 45.484l1.332 1.184M94.624 45.484l1.328 1.184M93.737 45.484l1.332 1.184M92.847 45.484l1.336 1.184M91.964 45.484l1.324 1.184M91.069 45.484l1.336 1.184M90.183 45.484l1.332 1.184M89.3 45.484l1.328 1.184M88.413 45.484l1.328 1.184M87.522 45.484l1.332 1.184M86.636 45.484l1.328 1.184M90.183 45.484l1.332 1.184M85.749 45.484l1.332 1.184M84.858 45.484l1.336 1.184M83.972 45.484l1.336 1.184M83.089 45.484l1.328 1.184M84.417 52.211l-1.328 1.188M85.308 52.211l-1.336 1.188M86.194 52.211l-1.336 1.188M87.081 52.211l-1.332 1.188M87.964 52.211l-1.328 1.188M88.854 52.211l-1.332 1.188M89.741 52.211l-1.328 1.188M90.628 52.211L89.3 53.399M91.515 52.211l-1.332 1.188M92.405 52.211l-1.336 1.188M93.288 52.211l-1.324 1.188M94.183 52.211l-1.336 1.188M90.628 52.211L89.3 53.399M95.069 52.211l-1.332 1.188M95.952 52.211l-1.328 1.188M96.843 52.211l-1.332 1.188M97.729 52.211l-1.332 1.188M96.397 52.211l1.332 1.188M95.511 52.211l1.332 1.188M94.624 52.211l1.328 1.188M93.737 52.211l1.332 1.188M92.847 52.211l1.336 1.188M91.964 52.211l1.324 1.188M91.069 52.211l1.336 1.188M90.183 52.211l1.332 1.188M89.3 52.211l1.328 1.188M88.413 52.211l1.328 1.188M87.522 52.211l1.332 1.188M86.636 52.211l1.328 1.188M90.183 52.211l1.332 1.188M85.749 52.211l1.332 1.188M84.858 52.211l1.336 1.188M83.972 52.211l1.336 1.188M83.089 52.211l1.328 1.188" fill="#fff" stroke-width=".106"/><path d="M25.065 44.297h14.426c.797 0 1.441.605 1.441 1.348v6.801c0 .746-.644 1.344-1.441 1.344H25.065c-.793 0-1.438-.598-1.438-1.344v-6.801c.001-.743.645-1.348 1.438-1.348z" fill="#fff" stroke-width=".113"/><path d="M25.437 44.691h13.688c.75 0 1.363.555 1.363 1.234v6.234c0 .68-.613 1.238-1.363 1.238H25.437c-.754 0-1.371-.559-1.371-1.238v-6.234c-.001-.679.617-1.234 1.371-1.234z" fill="#fff" stroke-width=".106"/><path d="M31.702 47.066l.828.027.043.375.676.344.531-.426.637.34-.605.383.148.512.758-.023v.695l-.602-.031-.305.434.68.492-.531.402-.562-.434-.824.176.035.633-.906.059-.109-.609-.758-.316-.414.434-.645-.316.379-.492-.449-.32h-.641l-.039-.895.637.062.457-.52-.527-.406.68-.465.488.375.832-.113.108-.377z" fill="#fff" stroke-width=".067"/><ellipse cx="31.954" cy="48.941" rx=".91" ry=".781" fill="#fff" stroke-width=".4"/><path d="M26.284 45.09l-1.328 1.188M27.175 45.09l-1.332 1.188M28.062 45.09l-1.328 1.188M28.948 45.09l-1.328 1.188M29.839 45.09l-1.332 1.188M30.726 45.09l-1.336 1.188M31.616 45.09l-1.336 1.188M32.495 45.09l-1.332 1.188M33.386 45.09l-1.328 1.188M34.272 45.09l-1.328 1.188M35.159 45.09l-1.328 1.188M36.05 45.09l-1.332 1.188M32.495 45.09l-1.332 1.188M36.94 45.09l-1.336 1.188M37.827 45.09l-1.332 1.188M38.714 45.09l-1.336 1.188M39.601 45.09l-1.332 1.188M38.269 45.09l1.332 1.188M37.378 45.09l1.336 1.188M36.495 45.09l1.332 1.188M35.604 45.09l1.336 1.188M34.718 45.09l1.332 1.188M33.831 45.09l1.328 1.188M32.944 45.09l1.328 1.188M32.058 45.09l1.328 1.188M31.163 45.09l1.332 1.188M30.28 45.09l1.336 1.188M29.39 45.09l1.336 1.188M28.507 45.09l1.332 1.188M32.058 45.09l1.328 1.188M27.62 45.09l1.328 1.188M26.733 45.09l1.328 1.188M25.843 45.09l1.332 1.188M24.956 45.09l1.328 1.188M26.284 51.809L24.956 53M27.175 51.809L25.843 53M28.062 51.809L26.733 53M28.948 51.809L27.62 53M29.839 51.809L28.507 53M30.726 51.809L29.39 53M31.616 51.809L30.28 53M32.495 51.809L31.163 53M33.386 51.809L32.058 53M34.272 51.809L32.944 53M35.159 51.809L33.831 53M36.05 51.809L34.718 53M32.495 51.809L31.163 53M36.94 51.809L35.604 53M37.827 51.809L36.495 53M38.714 51.809L37.378 53M39.601 51.809L38.269 53M38.269 51.809L39.601 53M37.378 51.809L38.714 53M36.495 51.809L37.827 53M35.604 51.809L36.94 53M34.718 51.809L36.05 53M33.831 51.809L35.159 53M32.944 51.809L34.272 53M32.058 51.809L33.386 53M31.163 51.809L32.495 53M30.28 51.809L31.616 53M29.39 51.809L30.726 53M28.507 51.809L29.839 53M32.058 51.809L33.386 53M27.62 51.809L28.948 53M26.733 51.809L28.062 53M25.843 51.809L27.175 53M24.956 51.809L26.284 53" fill="#fff" stroke-width=".106"/><path d="M50.772 64.203C29.237 85.258 20.054 87.922 24.366 89.617c4.309 1.695 18.176-9.168 32.602-23.605 14.43-14.434 23.266-27.281 18.957-28.977-4.313-1.699-2.258 4.77-25.153 27.168z" fill="#fff" stroke-width=".17"/><path d="M32.647 79.508l7.539 1.977c-7.102 6.727-15.086 9.496-17.305 8.309-2.218-1.185 3.993-3.958 9.766-10.286z" fill="#fff" stroke-width=".132"/><path d="M32.647 80.297l6.211 1.582c-6.918 6.473-13.758 8.309-15.527 7.52-1.781-.79 3.691-3.016 9.316-9.102z" fill="#fff" stroke-width=".132"/><path d="M55.819 63.281c-.02.102-.066.555-.117.734 0 .25-.023.438-.051.637-.074.168-.055.324-.273.391-.148.203-.242.258-.441.344-.133.102-.34.203-.555.289a1.147 1.147 0 0 1-.66.051c-.195-.121-.332-.246-.492-.34-.043-.16-.078-.387-.117-.539.062.156.101.402.117.633-.02.246-.117.355-.223.535M53.776 66.555c-.019-.016-.031-.031-.055-.051.129.117.078.062-.223-.098a2.606 2.606 0 0 0-.715-.195h-.77c-.297 0-.504.043-.711.098-.164.141-.395.219-.559.344-.168.102-.234.223-.332.391-.152.133-.25.34-.387.441-.058.223-.188.215-.269.387.258.02.469.051.602.195.23.105-.195-.102-.27-.195-.183-.047-.23-.098-.5-.098-.254-.07-.402.059-.664.098a.614.614 0 0 1-.383.102M50.8 68.996c-.109.008-.625.09-.828 0-.23-.055-.359-.164-.492-.344-.07-.133 0 .234 0 .395-.023.289-.125.289-.273.488-.16.086-.332.219-.5.289-.137.105-.305.18-.496.246a2.174 2.174 0 0 0-.496.242c-.183.117-.164.258-.269.438.012.242.059.375.215.492.062.164.211.328.332.438.129.227.285.328-.059.391-.184.07-.293.016-.488 0M47.327 72.414a10.32 10.32 0 0 1-.828-.246h-.77c-.297.02-.355.098-.605.191-.164.148-.27.254-.496.348-.121.133-.352.359-.441.535a1.785 1.785 0 0 0-.109.637c.004.285.086.332.109.586.062.207.164.398.336.578.012.07.039.082.105.102M44.702 75.785c-.023 0-.074.129-.152.234-.18.18-.199.191-.473.191-.242-.012-.223-.094-.391-.156-.082-.121-.184-.219-.27-.387-.07-.094-.125-.254-.203-.344-.07-.117-.156-.199-.234-.309-.074-.027-.102-.062-.195-.078.223.039.242.113.395.23.066.109.137.223.195.352.02.164.074.293.074.5 0 .207 0 .359-.074.535-.094.102-.164.199-.273.273a1.826 1.826 0 0 0-.274.305c-.125.074-.215.137-.355.23-.121.066-.242.141-.43.16-.23-.02-.297-.082-.473-.16-.141-.109-.258-.172-.391-.266a1.34 1.34 0 0 1-.273-.309c-.211-.051-.344-.031-.469.078-.105.07-.203.164-.277.266-.059.031-.164.121-.23.156M40.39 77.379c.07.027.293.18.395.242.062.203.156.312.191.531.051.203.047.438.047.672-.051.25-.156.426-.238.621-.156.109-.238.18-.441.293a4.318 4.318 0 0 1-.629.047c-.156.051-.441.074-.59 0-.211-.031-.375-.117-.531-.195-.184-.098-.289-.191-.488-.285-.094-.141-.242-.266-.387-.434-.129-.164-.211-.254-.293-.434.07.207.18.387.238.582.117.199.176.273.199.527.062.199.047.441.047.668-.02.16-.031.453-.094.582v.145M33.198 81.703v.074c0-.188-.008-.094.078.281.145.16.496.207.777.133.254-.18.25-.324.707-.414.445.023.613.145.859.281.297.129.434.191.629.488.102.23.152.395-.156.488-.246.152-.539.238-.863.281-.363 0-.625-.043-.781.137-.25.227-.23.367-.23.762-.086.129-.102.492-.164.633-.215.09-.34.141-.703.141a8.587 8.587 0 0 1-.231-.836c-.059-.25-.082-.605-.238-.773a2.053 2.053 0 0 0-.547-.488c-.098-.117-.277-.215-.469-.277.305.137.352.293.391.625-.27.125-.344.207-.781.215-.434-.035-.539-.133-.703-.352-.031.352-.156.469-.242.773-.156.207-.223.418-.387.691.066.34.219.352.238.77.102.273.086.531.312.699.102.105.168.133.387.137-.449 0-.715-.047-1.012-.207-.238-.129-.41-.285-.629-.422a3.394 3.394 0 0 0-.938-.418c-.363 0-.625-.035-.789.141-.215.141-.363.387-.465.699-.074.359-.098.602.082.836.129.27.16.371 0 .695-.184.231-.457.258-.863.352a3.078 3.078 0 0 1-.781-.137" fill="none" stroke-width=".132"/><path d="M75.339 45.203c9.555-16.496 15.898-30.531 14.152-31.336-1.742-.801-10.906 11.934-20.461 28.426l6.309 2.91z" fill="#fff" stroke-width=".134"/><path d="M74.71 44.91c9.211-15.914 15.566-29.348 14.168-29.988-1.387-.641-9.996 11.754-19.219 27.66" fill="#fff" stroke-width=".118"/><path d="M73.124 36.609c-1.125 1.859-2.309 3.984-3.465 5.973l5.051 2.328c1.148-1.992 2.406-4.086 3.461-5.977l-5.047-2.324z" fill="#fff" stroke-width=".134"/><path d="M73.55 37.25c-1.121 1.863-1.902 3.285-3.051 5.274l3.777 1.742c1.156-1.992 2.012-3.379 3.062-5.273L73.55 37.25z" fill="#fff" stroke-width=".134"/><path fill="#fff" stroke-width=".134" d="M76.292 39.406l-2.523-1.164-2.239 3.871 2.52 1.161zM76.3 39.406l-4.762 2.707M74.05 43.274l-.273-5.031M87.698 19.719l-2.519-1.16"/><path d="M87.382 16.652c-.395.098-.637.461-.555.801.094.348.484.547.875.449.395-.102.641-.461.555-.809-.094-.339-.485-.542-.875-.441z" fill="#ec1c24" stroke-width=".4"/><path d="M71.616 63.809c21.527 21.055 30.719 23.723 26.406 25.418-4.312 1.695-18.176-9.172-32.605-23.609-14.426-14.43-23.266-27.278-18.949-28.977 4.304-1.696 2.25 4.769 25.148 27.168z" fill="#fff" stroke-width=".17"/><path d="M89.741 79.109l-7.547 1.98c7.105 6.723 15.094 9.5 17.309 8.309 2.219-1.183-3.992-3.953-9.762-10.289z" fill="#fff" stroke-width=".132"/><path d="M89.741 79.899l-6.211 1.59c6.918 6.469 13.758 8.305 15.523 7.512 1.782-.786-3.691-3.013-9.312-9.102z" fill="#fff" stroke-width=".132"/><path d="M66.569 62.887c.02.101.066.559.109.738 0 .242.023.434.055.633.07.172.059.324.277.387a.834.834 0 0 0 .438.344c.137.102.34.207.551.293.223.082.422.098.664.051.195-.121.336-.242.496-.344.035-.152.074-.383.113-.535-.062.16-.102.41-.113.633.02.246.113.348.219.535M68.604 66.16c.023-.02.039-.031.059-.051-.129.117-.074.066.223-.098.211-.094.438-.148.719-.191h.77c.297 0 .5.043.719.098.156.133.387.215.547.336.172.105.242.223.332.395.152.133.246.34.383.438.062.223.195.219.277.391-.262.019-.469.055-.605.195-.23.105.191-.102.277-.195.176-.043.227-.094.496-.094.25-.074.402.055.66.094a.604.604 0 0 0 .387.098M71.585 68.602c.109.004.625.094.828 0 .223-.055.355-.164.496-.344.066-.129 0 .234 0 .387.027.293.113.293.27.496.164.09.332.215.504.289.133.109.301.18.496.246.16.07.359.141.492.242.184.117.168.258.277.438-.019.242-.066.375-.223.488a1.392 1.392 0 0 1-.332.445c-.133.223-.289.324.051.387.195.074.301.016.504 0M75.058 72.02c.137-.035.613-.172.828-.242h.766c.305.016.363.098.613.188.16.148.27.25.492.352.121.129.352.359.441.531.066.164.117.395.117.633-.008.289-.094.336-.117.586-.062.211-.16.406-.332.586-.02.062-.039.078-.109.098M77.683 75.391s.074.129.156.227c.176.184.199.199.477.199.234-.008.215-.098.387-.156.078-.129.18-.223.273-.387.062-.102.117-.258.191-.348.074-.113.164-.195.238-.301.074-.035.102-.07.195-.082-.23.035-.246.113-.391.23-.07.113-.137.227-.199.352-.019.16-.074.289-.078.492 0 .219.004.367.078.543.098.094.164.191.277.27.082.09.207.207.273.309.125.078.215.137.352.23.117.07.246.141.434.156.23-.016.293-.078.469-.156.145-.102.258-.176.395-.266.094-.07.203-.211.27-.309.211-.055.348-.031.469.074.109.074.203.168.274.27.066.027.172.129.234.156M81.995 76.984c-.062.027-.289.188-.391.242-.062.203-.156.312-.191.531-.055.207-.047.434-.047.676.055.238.156.422.238.617.156.102.234.18.438.293.199.023.387.043.633.043.148.051.441.078.586 0a1.49 1.49 0 0 0 .531-.191c.18-.094.293-.191.488-.285.098-.141.242-.27.391-.434.121-.164.211-.25.289-.43-.066.199-.176.379-.238.578-.113.199-.176.27-.199.527-.062.203-.059.438-.059.668.035.16.047.457.105.578v.145M89.19 81.313v.066c0-.191.008-.09-.082.285-.148.16-.488.203-.777.137-.25-.188-.25-.328-.707-.422-.441.035-.613.145-.863.285-.289.129-.43.191-.625.488-.098.234-.148.395.16.484.242.156.531.242.859.285.363 0 .617-.043.781.137.25.231.23.359.23.766.09.125.105.492.164.633.215.086.34.137.703.137.082-.219.176-.605.23-.84.062-.246.082-.602.234-.77.148-.191.336-.359.555-.488.09-.117.277-.219.469-.277-.309.141-.352.293-.395.629.27.121.344.207.781.211.438-.039.539-.129.711-.351.027.351.156.469.23.766.164.211.23.43.395.699-.082.336-.219.352-.238.77-.098.277-.09.535-.312.699-.102.105-.168.129-.391.141.453 0 .715-.051 1.016-.211.234-.125.406-.289.625-.418.281-.18.621-.344.941-.422.363 0 .621-.035.781.141.215.141.375.387.473.699.07.363.098.602-.082.836-.129.27-.164.375 0 .695.184.23.453.258.863.352.293-.016.582-.074.785-.141" fill="none" stroke-width=".132"/><path d="M47.05 44.801c-9.555-16.488-15.895-30.527-14.152-31.328 1.734-.801 10.906 11.934 20.461 28.426l-6.309 2.902z" fill="#fff" stroke-width=".134"/><path d="M47.675 44.512c-9.219-15.91-15.566-29.344-14.168-29.984 1.391-.641 10.004 11.754 19.219 27.664" fill="#fff" stroke-width=".118"/><path d="M49.261 36.211c1.121 1.863 2.312 3.988 3.465 5.98l-5.051 2.32c-1.149-1.984-2.406-4.082-3.461-5.973l5.047-2.327z" fill="#fff" stroke-width=".134"/><path d="M48.839 36.852c1.121 1.867 1.902 3.289 3.051 5.273l-3.785 1.746c-1.148-1.988-2.008-3.383-3.055-5.27l3.789-1.749z" fill="#fff" stroke-width=".134"/><path fill="#fff" stroke-width=".134" d="M46.089 39.012l2.519-1.16 2.246 3.867-2.523 1.16zM46.089 39.012l4.762 2.707M48.327 42.879l.289-5.027M34.687 19.324l2.523-1.16"/><path d="M35.007 16.258c.391.098.637.457.547.805-.086.344-.48.543-.871.445-.394-.102-.641-.461-.551-.805.086-.347.48-.547.875-.445z" fill="#ec1c24" stroke-width=".4"/><path d="M54.687 36.383c0 13.852.082 19.066-.938 19.781-.969.766-27.906 0-27.906 3.957s22.191 7.91 28.844 7.91c8.879 0 13.312-3.953 13.312-11.867V36.383H54.687z" fill="#fff" stroke-width=".122"/><path d="M54.687 40.34v1.98c4.438.656 8.879.656 13.312 0v-1.98c-4.434.66-8.875.66-13.312 0zM54.687 36.383v1.98c4.438.656 8.879.656 13.312 0v-1.98c-4.434.66-8.875.66-13.312 0z" fill="#fff" stroke-width=".106"/><path d="M54.687 38.363v1.977c4.438.66 8.879.66 13.312 0v-1.977a45.2 45.2 0 0 1-13.312 0zM54.687 42.32v1.977c4.438.656 8.879.656 13.312 0V42.32a45.2 45.2 0 0 1-13.312 0z" fill="#fff" stroke-width=".106"/><ellipse cx="55.29" cy="39.486" rx=".605" ry=".426" fill="#fff" stroke-width="1.785"/><ellipse cx="57.712" cy="39.699" rx=".605" ry=".426" fill="#fff" stroke-width="1.785"/><ellipse cx="60.132" cy="39.913" rx=".606" ry=".428" fill="#fff" stroke-width="1.785"/><path d="M62.554 39.484c.324 0 .602.195.602.43 0 .234-.277.426-.602.426-.332 0-.605-.191-.605-.426-.001-.234.273-.43.605-.43z" fill="#fff" stroke-width="1.785"/><ellipse cx="64.975" cy="39.699" rx=".604" ry=".426" fill="#fff" stroke-width="1.785"/><ellipse cx="67.395" cy="39.486" rx=".604" ry=".426" fill="#fff" stroke-width="1.785"/><path d="M54.687 46.277l13.312 10.68M56.015 46.277l11.984 9.488M57.788 46.668l10.211 7.914M59.124 46.668l8.875 6.731M60.456 46.668l7.543 5.543M61.78 46.668l6.219 4.356M63.116 46.668l4.883 3.164M64.44 46.668l3.559 2.375M65.78 46.668l2.219 1.586M67.104 46.668l.895.797M54.687 47.465l13.312 10.68M67.999 46.277L53.358 58.145M66.671 46.277L53.8 56.559M64.894 46.668l-10.207 7.914M63.565 46.668l-8.879 6.731M62.229 46.668l-7.543 5.543M60.897 46.668l-6.211 4.356M59.569 46.668l-4.883 3.164M58.233 46.668l-3.547 2.375M56.905 46.668l-2.219 1.586M55.573 46.668l-.887.797M67.999 47.465L53.358 59.328M67.999 48.649L53.358 60.516M67.999 49.832L53.358 61.703M67.999 51.024L53.358 62.891M67.999 52.211L53.358 64.078M67.999 53.399L53.358 65.266M67.999 54.582L53.358 66.449M67.999 55.77L53.358 67.641M67.999 56.957L54.245 68.031M67.999 58.145l-12.426 9.887M67.55 59.731l-9.762 7.91M67.104 61.309l-7.98 6.332M66.222 63.285l-3.992 3.164M54.687 48.649L67.55 58.934M54.687 49.832L67.55 60.121M54.687 51.024l12.418 9.887M54.687 52.211l12.418 9.891M54.687 53.399l11.984 9.492M54.245 54.188l11.977 9.496M54.245 55.375l11.094 8.703M53.8 56.164l11.094 8.707M53.358 56.957l10.645 8.309M53.358 58.145l10.207 7.91M53.358 59.328l8.871 7.121M54.687 44.297v1.98c4.438.656 8.879.656 13.312 0v-1.98a45.269 45.269 0 0 1-13.312 0zM53.358 60.516l7.98 6.332M53.358 61.703l7.098 5.539M53.358 62.891l6.211 4.75M53.358 64.078l4.43 3.562M53.358 65.266l3.547 2.766M53.358 66.449l2.215 1.582" fill="#fff" stroke-width=".106"/><ellipse cx="55.29" cy="45.422" rx=".605" ry=".426" fill="#fff" stroke-width="1.785"/><ellipse cx="57.712" cy="45.635" rx=".605" ry=".426" fill="#fff" stroke-width="1.785"/><ellipse cx="60.132" cy="45.849" rx=".606" ry=".428" fill="#fff" stroke-width="1.785"/><path d="M62.554 45.422c.324 0 .602.191.602.426 0 .238-.277.43-.602.43-.332 0-.605-.191-.605-.43-.001-.235.273-.426.605-.426z" fill="#fff" stroke-width="1.785"/><ellipse cx="64.975" cy="45.635" rx=".604" ry=".426" fill="#fff" stroke-width="1.785"/><ellipse cx="67.395" cy="45.422" rx=".604" ry=".426" fill="#fff" stroke-width="1.785"/><path d="M35.604 64.871l15.977-8.312M34.718 64.473L49.8 56.559M34.272 63.684l13.762-7.125M33.831 62.891l11.98-6.332M32.944 62.102l11.09-5.543M33.386 60.91l7.543-3.953M32.944 60.121l5.769-3.164M32.944 58.934l3.996-1.977M36.94 65.266l15.082-7.91M38.269 65.66l14.195-7.516M39.601 66.055l13.309-7.121M40.929 66.449l11.094-5.934M42.706 66.449l9.758-5.141M44.034 66.848l8.43-4.352M45.37 67.242l6.652-3.559M47.14 67.242l5.324-2.77M48.917 67.641l3.547-1.98M50.694 67.641l2.215-1.191M53.8 56.164h-2.219a32.08 32.08 0 0 0 0 11.867H53.8a31.91 31.91 0 0 1 0-11.867zM27.62 61.703l5.324-3.953M27.62 58.934l5.324 4.75" fill="#fff" stroke-width=".106"/><path d="M35.604 56.957l-2.66.398c-.59 2.5-.59 4.609 0 7.117l2.66.793c-.589-2.507-.589-5.8 0-8.308z" fill="#fff" stroke-width=".075"/><path d="M67.987 37.176v-1.992c-1.996.012-3.332-1.172-3.332-2.375l-6.645.012c0 1.191-1.332 2.375-3.324 2.375v1.98h13.301z" fill="#fff" stroke-width=".129"/><path fill="#fff" stroke-width=".109" d="M58.479 30.449h5.707v2.371h-5.707zM58.96 28.074h4.754v2.375H58.96zM58.96 25.699h4.754v2.375H58.96zM59.433 22.539h3.801v3.16h-3.801z"/><path fill="#fff" stroke-width=".114" d="M59.272 19.766h4.125v2.773h-4.125z"/><ellipse cx="61.562" cy="17.196" rx="5.5" ry="3.756" fill="#fff" stroke-width=".4"/><path d="M64.315 16.996c0 1.043 1.379 2.77 1.379 2.77-1 .684-2.613 1.188-4.133 1.188-1.516 0-3.41-.281-4.125-1.188 0 0 1.379-1.727 1.379-2.77 0-1.035-1.379-2.371-1.379-2.371.988-.68 2.609-1.184 4.125-1.184 1.52 0 3.133.504 4.133 1.184 0 0-1.379 1.336-1.379 2.371z" fill="#fff" stroke-width=".107"/><path d="M63.397 16.996c0 1.043 1.375 3.168 1.375 3.168-.992.68-1.691.789-3.211.789-1.516 0-2.488.117-3.207-.789 0 0 1.379-2.125 1.379-3.168 0-1.035-1.379-2.77-1.379-2.77.996-.68 1.691-.785 3.207-.785 1.52 0 2.219.106 3.211.785 0 .001-1.375 1.735-1.375 2.77z" fill="#fff" stroke-width=".107"/><ellipse cx="56.062" cy="17.395" rx="1.375" ry="1.188" fill="#fff" stroke-width=".4"/><path d="M67.062 16.207c.766 0 1.375.531 1.375 1.188 0 .656-.609 1.188-1.375 1.188-.75 0-1.367-.531-1.367-1.188-.001-.657.617-1.188 1.367-1.188z" fill="#fff" stroke-width=".4"/><ellipse cx="61.562" cy="17.395" rx="1.373" ry="1.188" fill="#fff" stroke-width=".4"/><ellipse cx="61.562" cy="13.439" rx="1.373" ry="1.188" fill="#fff" stroke-width=".4"/><ellipse cx="57.535" cy="35.988" rx="1.424" ry="1.188" fill="#fff" stroke-width=".4"/><path d="M65.132 34.801c.793 0 1.43.531 1.43 1.188 0 .66-.637 1.188-1.43 1.188-.781 0-1.418-.527-1.418-1.188 0-.657.637-1.188 1.418-1.188z" fill="#fff" stroke-width=".4"/><path d="M58.011 32.82h6.645l-3.316 3.562-3.329-3.562z" fill="#fff" stroke-width=".109"/><path d="M61.331 34.012c1.051 0 1.902.707 1.902 1.582s-.852 1.582-1.902 1.582c-1.043 0-1.898-.707-1.898-1.582s.855-1.582 1.898-1.582z" fill="#fff" stroke-width=".4"/><path d="M54.569 47.465h9.102c.305 0 .559.188.559.422v1.531c0 .234-.254.422-.559.422h-9.102c-.305 0-.555-.188-.555-.422v-1.531c.001-.235.251-.422.555-.422zM67.331 45.488c-1.227 0-2.215.922-2.215 2.066v1.801c0 1.145.988 2.066 2.215 2.066 1.23 0 2.223-.922 2.223-2.066v-1.801c0-1.144-.992-2.066-2.223-2.066zm0 .793c-.734 0-1.336.738-1.336 1.652v1.047c0 .918.602 1.648 1.336 1.648.742 0 1.332-.73 1.332-1.648v-1.047c0-.913-.59-1.652-1.332-1.652z" fill="#fff" stroke-width=".132"/><path d="M55.8 45.883c-.742 0-1.332.734-1.332 1.656v1.832c0 .922.59 1.656 1.332 1.656.738 0 1.328-.734 1.328-1.656v-1.832c0-.922-.59-1.656-1.328-1.656zm0-.785c-1.234 0-2.223.922-2.223 2.059v2.598c0 1.148.988 2.066 2.223 2.066 1.223 0 2.215-.918 2.215-2.066v-2.598c0-1.137-.993-2.059-2.215-2.059z" fill="#fff" stroke-width=".132"/><path d="M52.245 46.672c-.734 0-1.328.742-1.328 1.656v.43c0 .918.594 1.656 1.328 1.656.734 0 1.332-.738 1.332-1.656v-.43c0-.914-.598-1.656-1.332-1.656zm0-.789c-1.23 0-2.219.926-2.219 2.07v1.184c0 1.148.988 2.07 2.219 2.07 1.227 0 2.223-.922 2.223-2.07v-1.184c0-1.144-.996-2.07-2.223-2.07z" fill="#fff" stroke-width=".132"/><path d="M46.921 45.582c-1.328 0-2.395.824-2.395 1.848v2.047c0 1.027 1.067 1.852 2.395 1.852s2.395-.824 2.395-1.852V47.43c-.001-1.024-1.067-1.848-2.395-1.848zm0-.887c-2.211 0-3.992 1.035-3.992 2.312v2.898c0 1.281 1.781 2.309 3.992 2.309 2.211 0 3.996-1.027 3.996-2.309v-2.898c0-1.276-1.785-2.312-3.996-2.312zM75.765 45.977c-1.328 0-2.398.828-2.398 1.852v2.051c0 1.023 1.07 1.848 2.398 1.848 1.324 0 2.398-.824 2.398-1.848v-2.051c0-1.024-1.074-1.852-2.398-1.852zm0-.879c-2.215 0-3.996 1.027-3.996 2.305v2.898c0 1.277 1.781 2.309 3.996 2.309 2.211 0 3.992-1.031 3.992-2.309v-2.898c0-1.278-1.781-2.305-3.992-2.305z" fill="#fff" stroke-width=".132"/><path d="M68.507 47.465h4.746c.16 0 .293.188.293.422v1.531c0 .234-.133.422-.293.422h-4.746c-.156 0-.289-.188-.289-.422v-1.531c0-.235.133-.422.289-.422zM63.507 47.074h2.773c.09 0 .168.246.168.559v2.043c0 .309-.078.562-.168.562h-2.773c-.09 0-.168-.254-.168-.562v-2.043c0-.313.078-.559.168-.559zM48.866 47.074h2.77c.094 0 .168.246.168.559v2.043c0 .309-.074.562-.168.562h-2.77c-.094 0-.172-.254-.172-.562v-2.043c0-.313.078-.559.172-.559zM39.272 46.672h5.535c.184 0 .336.316.336.703v2.555c0 .391-.152.699-.336.699h-5.535c-.191 0-.34-.309-.34-.699v-2.555c.001-.387.149-.703.34-.703zM77.854 47.074h5.141c.172 0 .309.312.309.695v2.562c0 .383-.137.695-.309.695h-5.141c-.18 0-.316-.312-.316-.695V47.77c0-.383.137-.696.316-.696z" fill="#fff" stroke-width=".132"/></g></svg>