<svg xmlns="http://www.w3.org/2000/svg" viewBox="0 0 499.839 277.402"><path fill="#fff" d="M-.161 277.402V-.375h124.996v277.777H-.161z"/><path fill="#060" d="M499.839 277.402V-.375H125.12v277.777h374.719z"/><g fill="#fff"><path d="M401.354 176.07c-14.906 31.691-47.121 53.645-84.453 53.645-51.523 0-93.289-41.766-93.289-93.285 0-41.859 27.703-77.305 65.672-89.117-20.676 15.609-33.914 40.371-33.914 68.277 0 47.227 38.289 85.508 85.512 85.508 23.613 0 44.996-9.551 60.472-25.028z"/><path d="M386.468 74.18l-20.785 8.984-15.024-17.16 2.117 22.77-20.886 8.832 22.14 4.98 2.016 22.605 11.711-19.585 22.019 5.21-14.961-17.089 11.653-19.547z"/></g></svg>