<svg xmlns="http://www.w3.org/2000/svg" viewBox="0 0 499.839 277.402"><path fill="#ce1126" d="M499.839 92.215h-500V-.375h500v92.59z"/><path fill="#0038a8" d="M499.839 277.402h-500v-92.597h500v92.597z"/><path fill="#fff" d="M499.839 184.805h-500v-92.59h500v92.59z"/><g><path d="M249.843 168.949c16.805 0 30.438-13.625 30.438-30.438 0-16.805-13.633-30.434-30.438-30.434-16.812 0-30.441 13.629-30.441 30.434-.001 16.813 13.628 30.438 30.441 30.438z" fill="#fff"/><path d="M249.843 168.949c16.805 0 30.438-13.625 30.438-30.438 0-16.805-13.633-30.434-30.438-30.434-16.812 0-30.441 13.629-30.441 30.434-.001 16.813 13.628 30.438 30.441 30.438z" fill="none" stroke="#000" stroke-width=".139" stroke-linecap="round" stroke-linejoin="round"/><path d="M249.843 166.043c15.199 0 27.535-12.324 27.535-27.531 0-15.203-12.336-27.531-27.535-27.531-15.203 0-27.539 12.328-27.539 27.531 0 15.207 12.336 27.531 27.539 27.531z" fill="#ec1c2e"/><path d="M232.05 154.547s-.617-.777-.816-1.02c-.188-.23-.57-.246-.914.027-.34.273-.359.652-.137.93.211.27.766.949.766.949l1.101-.886.738-.598 1.605-1.297.605.746-4.137 3.348s-1.242-1.535-1.664-2.059c-.414-.516-.074-1.301.516-1.777.598-.48 1.316-.379 1.48-.176-.211-.262-.121-.777.391-1.195.254-.207 1.156-.934 1.156-.934l.59.723s-.469.375-.976.785c-.504.406-.461.723-.164 1.094.312.383.598.742.598.742l-.738.598zM269.768 125.656s.5.867.648 1.133c.156.258.531.336.91.113.375-.223.461-.59.277-.898-.168-.293-.617-1.055-.617-1.055l-1.218.707-.82.48-1.785 1.043-.48-.844 4.598-2.668s.988 1.703 1.32 2.285c.336.57-.113 1.297-.77 1.676-.66.395-1.363.184-1.492-.051.168.289.004.797-.566 1.121-.281.172-1.285.746-1.285.746l-.469-.801s.516-.305 1.086-.621c.547-.328.555-.652.316-1.062-.242-.418-.473-.824-.473-.824l.82-.48zM226.616 148.617l1.059 2.133 1.058-.512-.945-1.929.875-.434.949 1.926 1.254-.617-1.051-2.141.774-.383 1.484 3.016-4.773 2.355-1.477-3.027.793-.387zM227.253 145.398s-1.633.391-1.629.398l-.223-.902c-.086-.379.066-.777.57-.902.496-.121.957.078 1.059.508.11.434.223.898.223.898l.809-.199s-.152-.598-.273-1.105c-.203-.828-1.191-1.137-2.02-.934-.922.227-1.48.961-1.281 1.746.27 1.129.48 1.965.48 1.965l5.16-1.27-.211-.859-1.856.457-.808.199zM261.663 118.328s.922-1.402.914-1.398c0 0 .449.289.773.5.328.219.484.621.203 1.051-.277.434-.742.605-1.125.359-.363-.246-.765-.512-.765-.512l-.461.703s.523.34.957.617c.711.465 1.648.016 2.117-.695.512-.793.426-1.707-.254-2.148a384.432 384.432 0 0 0-1.695-1.113l-2.914 4.457.746.484 1.043-1.602.461-.703zM228.194 139.539c-.004-.66-.492-.82-.941-.816-.449.008-3.512.078-3.512.078l-.02-.926s2.801-.066 3.496-.078c.855-.02 1.824.363 1.859 1.727.035 1.359-.922 1.793-1.785 1.805l-3.492.082-.027-.93s3.066-.07 3.52-.082c.449-.008.926-.2.902-.86zM225.327 135.805c.637.133 1.398.297 2.055.43l.195-.934c-.309-.07-.617-.137-.617-.137s.184-.922.254-1.246c.066-.309.359-.457.785-.367.426.09.652.355.59.66l-.266 1.246s-.379-.086-.746-.156l-.195.934c.93.199 1.668.352 1.668.352s.266-1.273.43-2.074c.25-1.184-.578-1.672-1.215-1.801-.637-.141-1.004.004-1.355.25a1.611 1.611 0 0 0-1.012-.695c-.891-.191-1.484.516-1.676 1.406-.277 1.301-.379 1.816-.379 1.816s.644.136 1.484.316l.195-.938c-.289-.059-.59-.125-.609-.129 0 0 .176-.809.25-1.156.07-.348.469-.453.699-.406.145.027.543.219.449.645-.098.441-.246 1.16-.246 1.16s-.27-.059-.543-.113l-.195.937zM225.706 128.707l3.961 1.793.891-1.953.878.398-1.289 2.836-4.832-2.199.391-.875zM231.968 128.055l-4.442-2.926.528-.801 4.449 2.918-.535.809zM232.671 121.52c-.238-.219-.812-.449-1.328.109-.516.543-.25 1.266.516 1.984.754.703 1.594.871 2.035.395.441-.469.258-1.098-.043-1.371l.578-.617c.805.758.828 1.848.074 2.656-.766.816-2.07.648-3.234-.445-1.168-1.094-1.41-2.379-.598-3.238.809-.871 1.973-.652 2.578-.082l-.578.609zM237.065 119.871c-.238.152-.445.297-.445.297l-.672-2.145 1.688 1.473s-.297.192-.571.375l.477.742.793-.52.848.742.758-.496-4.211-3.605-.887.586 1.633 5.289.754-.492-.332-1.074.645-.43-.478-.742zM265.956 122.637c-.195-.199-.367-.383-.367-.383l1.977-1.059-1.141 1.93s-.239-.254-.469-.488l-.645.613c.32.324.66.676.66.676l-.57.973.629.656 2.754-4.801-.738-.773-4.898 2.59.633.652.988-.535s.258.27.543.562l.644-.613zM271.518 131.766c-.082-.262-.152-.508-.152-.508l2.238-.039-1.891 1.207-.195-.66-.855.254c.137.438.277.902.277.91l-.949.602.258.867 4.652-3.016-.312-1.02-5.539.062.262.867 1.129-.023s.105.359.223.75l.854-.253zM270.698 147.809c.113-.254.223-.484.215-.492l1.715 1.457-2.215-.348.285-.617-.801-.375a454.3 454.3 0 0 0-.395.859l-1.105-.172-.379.816 5.473.812.441-.977-4.199-3.602-.371.824.859.723s-.164.348-.324.715l.801.377zM244.831 117.551c.293-.055 1.098-.371.762-2.02-.309-1.512-1.133-1.473-1.434-1.406-.156.027-.777.152-.777.152s.695 3.406.695 3.426c0 0 .461-.09.754-.152l.488.855c-1.078.223-1.934.398-1.934.398l-1.059-5.215c.477-.094 1.188-.242 1.773-.359.574-.121 1.902-.199 2.363 2.07.285 1.41-.051 2.887-1.145 3.105l-.486-.854zM251.925 113.543l-2.387-.066-.039 1.179 2.148.059-.035.984-2.14-.066-.043 1.402 2.386.071-.019.863-3.371-.098.156-5.32 3.363.105-.019.887zM255.124 113.121l-1.016 4.231 2.09.5-.222.949-3.036-.731 1.25-5.171.934.222zM274.245 138.316c.516-.215.82-.594.797-1.078-.031-.723-.766-1.156-1.828-1.109-1.051.051-1.777.559-1.73 1.289.035.613.469.996 1.168 1.016l-.051-.945.836-.039.074 1.75-2.699.117-.027-.562c.176-.004.434-.043.598-.105-.469-.242-.738-.672-.801-1.211-.113-1.109 1.023-2.105 2.598-2.18 1.582-.07 2.66.684 2.711 1.945.051.992-.637 1.848-1.605 1.887l-.041-.775zM271.171 142.465c-.129.648.312.91.754.996l3.445.664-.176.914s-2.746-.531-3.434-.66c-.84-.156-1.707-.746-1.457-2.082.258-1.332 1.281-1.559 2.121-1.391.688.129 3.434.652 3.434.652l-.172.918s-3.008-.578-3.449-.664c-.441-.082-.945 0-1.066.653zM266.589 151.016l1.488 1.172 3.625.945-.641.797-2.414-.719 1.262 2.191-.637.801-1.761-3.305-1.481-1.164.559-.718z" fill="#fff100"/><path d="M249.843 158.074c10.797 0 19.551-8.762 19.551-19.562 0-10.801-8.754-19.559-19.551-19.559-10.805 0-19.566 8.758-19.566 19.559-.001 10.8 8.761 19.562 19.566 19.562z" fill="#fff"/><path d="M249.843 147.691c5.066 0 9.176-4.109 9.176-9.18 0-5.066-4.109-9.176-9.176-9.176-5.078 0-9.184 4.109-9.184 9.176a9.178 9.178 0 0 0 9.184 9.18z" fill="#007cc1"/><path d="M258.311 126.43c.836.68.789 1.387 1.285 2.055.289.215.562.359.777.406-.676-.848-.961-1.664-1.273-2.941-.32-1.273-1.281-.883-1.668-1.844-.395-.953-.469-.352-.59.02-.102.32-.055.922.133 1.43a7.13 7.13 0 0 1 1.336.874z" fill="#009266"/><path d="M258.311 126.43c.836.68.789 1.387 1.285 2.055.289.215.562.359.777.406-.676-.848-.961-1.664-1.273-2.941-.32-1.273-1.281-.883-1.668-1.844-.395-.953-.469-.352-.59.02-.102.32-.055.922.133 1.43a7.13 7.13 0 0 1 1.336.874z" fill="none" stroke="#000" stroke-width=".035" stroke-linecap="round" stroke-linejoin="round"/><path d="M249.753 152.105c-.566-.109-1.312-.18-1.59.031 1.164 1.105 2.812 1.906 4.113 1.297-.976-.745-2.039-1.222-2.523-1.328z" fill="#009266"/><path d="M249.753 152.105c-.566-.109-1.312-.18-1.59.031 1.164 1.105 2.812 1.906 4.113 1.297-.976-.745-2.039-1.222-2.523-1.328z" fill="none" stroke="#000" stroke-width=".035" stroke-linecap="round" stroke-linejoin="round"/><path d="M249.753 152.105c1.516.426 3.324 1.688 3.949 2.902.352.676 2.359.543 1.824-.215-1.25-1.753-4.015-3.776-5.773-2.687z" fill="#009266"/><path d="M249.753 152.105c1.516.426 3.324 1.688 3.949 2.902.352.676 2.359.543 1.824-.215-1.25-1.753-4.015-3.776-5.773-2.687z" fill="none" stroke="#000" stroke-width=".035" stroke-linecap="round" stroke-linejoin="round"/><path d="M255.526 154.793c.535.758-1.473.891-1.824.215-.168-.352 1.356-.867 1.824-.215z" fill="#009266"/><path d="M255.526 154.793c.535.758-1.473.891-1.824.215-.168-.352 1.356-.867 1.824-.215z" fill="none" stroke="#000" stroke-width=".035" stroke-linecap="round" stroke-linejoin="round"/><path d="M248.163 152.137c-2.633-.777-6.043-1.66-9.422-1.574-.379.008-.266.406-.141.602.121.195.176.262.195.609.02.332.293.379 1.078.508 1.844.301 5.988.852 9.445.746v-.008a5.827 5.827 0 0 1-1.155-.883z" fill="#009266"/><path d="M248.163 152.137c-2.633-.777-6.043-1.66-9.422-1.574-.379.008-.266.406-.141.602.121.195.176.262.195.609.02.332.293.379 1.078.508 1.844.301 5.988.852 9.445.746v-.008a5.827 5.827 0 0 1-1.155-.883z" fill="none" stroke="#000" stroke-width=".035" stroke-linecap="round" stroke-linejoin="round"/><path d="M247.21 153.016c-.934.43-1.992 1-2.492 1.375-1.012.746 2.059 1.172 2.359.746.16-.223.691-1.738 1.777-2.098-.543 0-1.093 0-1.644-.023z" fill="#009266"/><path d="M247.21 153.016c-.934.43-1.992 1-2.492 1.375-1.012.746 2.059 1.172 2.359.746.16-.223.691-1.738 1.777-2.098-.543 0-1.093 0-1.644-.023z" fill="none" stroke="#000" stroke-width=".035" stroke-linecap="round" stroke-linejoin="round"/><path d="M247.077 155.137c-.301.426-3.371 0-2.359-.746.304-.215 2.664.109 2.359.746z" fill="#009266"/><path d="M247.077 155.137c-.301.426-3.371 0-2.359-.746.304-.215 2.664.109 2.359.746z" fill="none" stroke="#000" stroke-width=".035" stroke-linecap="round" stroke-linejoin="round"/><path d="M248.163 152.137c-2.109-1.066-5.434-2.98-7.082-6.121-.242-.465-.664-.984-.711.316-.055 1.164.723 3.086 2.008 4.469 2.102.308 4.102.84 5.785 1.336z" fill="#009266"/><path d="M248.163 152.137c-2.109-1.066-5.434-2.98-7.082-6.121-.242-.465-.664-.984-.711.316-.055 1.164.723 3.086 2.008 4.469 2.102.308 4.102.84 5.785 1.336z" fill="none" stroke="#000" stroke-width=".035" stroke-linecap="round" stroke-linejoin="round"/><path d="M241.081 146.016c.348.648.758 1.25 1.215 1.793.719.344 1.625.703 2.398.824.516.074.613-.129.023-.375-.586-.25-1.793-1.293-2.891-2.254-.719-.625-1.105-.734-1.297-.449.165-.168.396.16.552.461z" fill="#009266"/><path d="M241.081 146.016c.348.648.758 1.25 1.215 1.793.719.344 1.625.703 2.398.824.516.074.613-.129.023-.375-.586-.25-1.793-1.293-2.891-2.254-.719-.625-1.105-.734-1.297-.449.165-.168.396.16.552.461z" fill="none" stroke="#000" stroke-width=".035" stroke-linecap="round" stroke-linejoin="round"/><path d="M241.726 152.551a45.848 45.848 0 0 1-1.852-.27c-.672-.109-.969-.164-1.051-.383.086.363.312.539.949.809.711.301 1.758.871 2.145 1.168.391.301 1.152.25.637-.426a5.536 5.536 0 0 0-.828-.898z" fill="#009266"/><path d="M241.726 152.551a45.848 45.848 0 0 1-1.852-.27c-.672-.109-.969-.164-1.051-.383.086.363.312.539.949.809.711.301 1.758.871 2.145 1.168.391.301 1.152.25.637-.426a5.536 5.536 0 0 0-.828-.898z" fill="none" stroke="#000" stroke-width=".035" stroke-linecap="round" stroke-linejoin="round"/><path d="M238.776 151.734l.02.039v-.039h-.02z" fill="#009266"/><path d="M238.776 151.734l.02.039v-.039h-.02z" fill="none" stroke="#000" stroke-width=".035" stroke-linecap="round" stroke-linejoin="round"/><path d="M242.655 150.848c.074.008.148.023.223.031-.074-.008-.148-.024-.223-.031z" fill="#009266"/><path d="M242.655 150.848c.074.008.148.023.223.031-.074-.008-.148-.024-.223-.031z" fill="none" stroke="#000" stroke-width=".035" stroke-linecap="round" stroke-linejoin="round"/><path d="M242.378 150.801a7.86 7.86 0 0 1-.965-1.285c-1.973-1.602-4.605-3.352-5.914-3.738-.625-.184-.555-.086-.617.637-.055.719-.676 1.125.801 1.84 1.125.535 2.789 1.406 4.062 2.316.922.023 1.844.113 2.746.254a1.095 1.095 0 0 0-.113-.024z" fill="#009266"/><path d="M242.378 150.801a7.86 7.86 0 0 1-.965-1.285c-1.973-1.602-4.605-3.352-5.914-3.738-.625-.184-.555-.086-.617.637-.055.719-.676 1.125.801 1.84 1.125.535 2.789 1.406 4.062 2.316.922.023 1.844.113 2.746.254a1.095 1.095 0 0 0-.113-.024z" fill="none" stroke="#000" stroke-width=".035" stroke-linecap="round" stroke-linejoin="round"/><path d="M235.683 148.254c-1.16-.562-1.023-.93-.887-1.406l-.008-.008c-.164.656-.23.742.371 1.469.605.73 1.141 1.879 1.262 2.391.125.516.477.59.531-.031.039-.469 0-1.254-.055-1.809a26.23 26.23 0 0 0-1.214-.606z" fill="#009266"/><path d="M235.683 148.254c-1.16-.562-1.023-.93-.887-1.406l-.008-.008c-.164.656-.23.742.371 1.469.605.73 1.141 1.879 1.262 2.391.125.516.477.59.531-.031.039-.469 0-1.254-.055-1.809a26.23 26.23 0 0 0-1.214-.606z" fill="none" stroke="#000" stroke-width=".035" stroke-linecap="round" stroke-linejoin="round"/><path d="M241.624 149.84c0 .012.008.016.008.027 0-.012-.008-.015-.008-.027z" fill="#009266"/><path d="M241.624 149.84c0 .012.008.016.008.027 0-.012-.008-.015-.008-.027z" fill="none" stroke="#000" stroke-width=".035" stroke-linecap="round" stroke-linejoin="round"/><path d="M241.839 150.145c.008.016.027.039.035.055-.008-.016-.027-.04-.035-.055z" fill="#009266"/><path d="M241.839 150.145c.008.016.027.039.035.055-.008-.016-.027-.04-.035-.055z" fill="none" stroke="#000" stroke-width=".035" stroke-linecap="round" stroke-linejoin="round"/><path d="M242.065 150.445c.02.023.039.047.059.066a1.009 1.009 0 0 1-.059-.066z" fill="#009266"/><path d="M242.065 150.445c.02.023.039.047.059.066a1.009 1.009 0 0 1-.059-.066z" fill="none" stroke="#000" stroke-width=".035" stroke-linecap="round" stroke-linejoin="round"/><path d="M241.413 149.516c-.691-1.133-1.078-2.352-1.043-3.184.004-.234.027-.402.055-.527a12.888 12.888 0 0 1-1.453-6.539c.02-.391-.195-.984-.922.707-.578 1.348-.656 3.945-.035 7.098a36.353 36.353 0 0 1 3.398 2.445z" fill="#009266"/><path d="M241.413 149.516c-.691-1.133-1.078-2.352-1.043-3.184.004-.234.027-.402.055-.527a12.888 12.888 0 0 1-1.453-6.539c.02-.391-.195-.984-.922.707-.578 1.348-.656 3.945-.035 7.098a36.353 36.353 0 0 1 3.398 2.445z" fill="none" stroke="#000" stroke-width=".035" stroke-linecap="round" stroke-linejoin="round"/><path d="M238.397 147.309z" fill="#009266"/><path d="M238.397 147.309z" fill="none" stroke="#000" stroke-width=".035" stroke-linecap="round" stroke-linejoin="round"/><path d="M238.015 147.07a30.471 30.471 0 0 1-.297-1.848c-1.445-2.547-4.441-4.723-5.059-6.207-.238-.57-.559-1.141-.531.184.062 3.172 2.367 4.984 3.352 6.57 0 0 .012 0 .019.008.617.18 1.539.672 2.535 1.301l-.019-.008z" fill="#009266"/><path d="M238.015 147.07a30.471 30.471 0 0 1-.297-1.848c-1.445-2.547-4.441-4.723-5.059-6.207-.238-.57-.559-1.141-.531.184.062 3.172 2.367 4.984 3.352 6.57 0 0 .012 0 .019.008.617.18 1.539.672 2.535 1.301l-.019-.008z" fill="none" stroke="#000" stroke-width=".035" stroke-linecap="round" stroke-linejoin="round"/><path d="M235.71 142.605c.57-4.477-.969-9.746-1.316-10.891-.351-1.168-.418-.77-.672.285-.637 2.648-.922 5.551.789 9.34.386.403.793.825 1.199 1.266z" fill="#009266"/><path d="M235.71 142.605c.57-4.477-.969-9.746-1.316-10.891-.351-1.168-.418-.77-.672.285-.637 2.648-.922 5.551.789 9.34.386.403.793.825 1.199 1.266z" fill="none" stroke="#000" stroke-width=".035" stroke-linecap="round" stroke-linejoin="round"/><path d="M237.78 145.664v0z" fill="#009266"/><path d="M237.78 145.664v0z" fill="none" stroke="#000" stroke-width=".035" stroke-linecap="round" stroke-linejoin="round"/><path d="M237.839 146.055c.008.043.008.094.016.129-.008-.036-.008-.086-.016-.129z" fill="#009266"/><path d="M237.839 146.055c.008.043.008.094.016.129-.008-.036-.008-.086-.016-.129z" fill="none" stroke="#000" stroke-width=".035" stroke-linecap="round" stroke-linejoin="round"/><path d="M235.71 142.605c.141-1.113.156-2.312.09-3.445.777-2.75 3.152-3.82 3.586-4.883.496-1.203.449-.234.359.18-.605 2.68-2.324 5.164-2.109 7.41-.074.941-.094 2.078.082 3.355-.598-1.054-1.481-2.046-2.008-2.617z" fill="#009266"/><path d="M235.71 142.605c.141-1.113.156-2.312.09-3.445.777-2.75 3.152-3.82 3.586-4.883.496-1.203.449-.234.359.18-.605 2.68-2.324 5.164-2.109 7.41-.074.941-.094 2.078.082 3.355-.598-1.054-1.481-2.046-2.008-2.617z" fill="none" stroke="#000" stroke-width=".035" stroke-linecap="round" stroke-linejoin="round"/><path d="M236.991 127.02c-1.113 1.316-1.789 3.48-2.219 6.016.207.797.449 1.844.652 3.039 1.445-1.676 1.988-5.73 2.043-8.754.013-.829-.199-.626-.476-.301z" fill="#009266"/><path d="M236.991 127.02c-1.113 1.316-1.789 3.48-2.219 6.016.207.797.449 1.844.652 3.039 1.445-1.676 1.988-5.73 2.043-8.754.013-.829-.199-.626-.476-.301z" fill="none" stroke="#000" stroke-width=".035" stroke-linecap="round" stroke-linejoin="round"/><path d="M235.358 135.684a.411.411 0 0 1-.016-.094c.001.027.009.062.016.094z" fill="#009266"/><path d="M235.358 135.684a.411.411 0 0 1-.016-.094c.001.027.009.062.016.094z" fill="none" stroke="#000" stroke-width=".035" stroke-linecap="round" stroke-linejoin="round"/><path d="M235.765 138.785c.527-3.574 3.945-5.379 5.242-7.402.5-.789.156-.93-.402-.445-.512.43-2.676 1.289-3.899 2.383-.312 1.137-.73 2.113-1.281 2.754.117.695.25 1.542.34 2.71z" fill="#009266"/><path d="M235.765 138.785c.527-3.574 3.945-5.379 5.242-7.402.5-.789.156-.93-.402-.445-.512.43-2.676 1.289-3.899 2.383-.312 1.137-.73 2.113-1.281 2.754.117.695.25 1.542.34 2.71z" fill="none" stroke="#000" stroke-width=".035" stroke-linecap="round" stroke-linejoin="round"/><path d="M241.374 123.301c-1.152.684-2.984 3.113-3.941 4.953a28.329 28.329 0 0 1-.25 2.684c2.996-2.426 3.762-4.476 4.488-7 .265-.926.066-.848-.297-.637z" fill="#009266"/><path d="M241.374 123.301c-1.152.684-2.984 3.113-3.941 4.953a28.329 28.329 0 0 1-.25 2.684c2.996-2.426 3.762-4.476 4.488-7 .265-.926.066-.848-.297-.637z" fill="none" stroke="#000" stroke-width=".035" stroke-linecap="round" stroke-linejoin="round"/><path d="M236.991 127.02c-1.113 1.316-1.789 3.48-2.219 6.016.207.797.449 1.844.652 3.039 1.445-1.676 1.988-5.73 2.043-8.754.013-.829-.199-.626-.476-.301z" fill="#009266"/><path d="M236.991 127.02c-1.113 1.316-1.789 3.48-2.219 6.016.207.797.449 1.844.652 3.039 1.445-1.676 1.988-5.73 2.043-8.754.013-.829-.199-.626-.476-.301z" fill="none" stroke="#000" stroke-width=".035" stroke-linecap="round" stroke-linejoin="round"/><path d="M241.374 123.301c-1.152.684-2.984 3.113-3.941 4.953a28.329 28.329 0 0 1-.25 2.684c2.996-2.426 3.762-4.476 4.488-7 .265-.926.066-.848-.297-.637z" fill="#009266"/><path d="M241.374 123.301c-1.152.684-2.984 3.113-3.941 4.953a28.329 28.329 0 0 1-.25 2.684c2.996-2.426 3.762-4.476 4.488-7 .265-.926.066-.848-.297-.637z" fill="none" stroke="#000" stroke-width=".035" stroke-linecap="round" stroke-linejoin="round"/><path d="M238.37 132.18c1.414-1.953 4.453-2.41 5.613-3.852.434-.543.738-1.383-.645-.508-.949.602-1.98.129-3.715.645-.496.719-1.73 1.914-2.441 2.473a22.348 22.348 0 0 1-.477 2.383 10.961 10.961 0 0 1 1.665-1.141z" fill="#009266"/><path d="M238.37 132.18c1.414-1.953 4.453-2.41 5.613-3.852.434-.543.738-1.383-.645-.508-.949.602-1.98.129-3.715.645-.496.719-1.73 1.914-2.441 2.473a22.348 22.348 0 0 1-.477 2.383 10.961 10.961 0 0 1 1.665-1.141z" fill="none" stroke="#000" stroke-width=".035" stroke-linecap="round" stroke-linejoin="round"/><path d="M241.347 128.191c1.707-2.473 2.555-1.871 3.676-3.25.168-.219.352-.551-.273-.266-.617.281-2.656.199-3.621.949-.344.867-.93 2.141-1.504 2.84.554-.175 1.108-.284 1.722-.273z" fill="#009266"/><path d="M241.347 128.191c1.707-2.473 2.555-1.871 3.676-3.25.168-.219.352-.551-.273-.266-.617.281-2.656.199-3.621.949-.344.867-.93 2.141-1.504 2.84.554-.175 1.108-.284 1.722-.273z" fill="none" stroke="#000" stroke-width=".035" stroke-linecap="round" stroke-linejoin="round"/><path d="M256.772 149.66c.023-1.141.516-1.992.891-2.379.367-.391.211-.41-.09-.23-.305.18-1.348.266-2.625.992-1.273.73-1.789 3.004-2.582 4.109 1.336-1.199 2.746-2.09 4.406-2.492z" fill="#009266"/><path d="M256.772 149.66c.023-1.141.516-1.992.891-2.379.367-.391.211-.41-.09-.23-.305.18-1.348.266-2.625.992-1.273.73-1.789 3.004-2.582 4.109 1.336-1.199 2.746-2.09 4.406-2.492z" fill="none" stroke="#000" stroke-width=".035" stroke-linecap="round" stroke-linejoin="round"/><path d="M254.569 153.699c1.094.211 2.523.16 3.297-.371.773-.531 1.566-.797 1.938-.746.375.055.402-.078.102-.504-.281-.43-1.43-.91-2.418-.961-.938.828-2.105 1.691-3.902 1.746.382.289.796.633.983.836z" fill="#009266"/><path d="M254.569 153.699c1.094.211 2.523.16 3.297-.371.773-.531 1.566-.797 1.938-.746.375.055.402-.078.102-.504-.281-.43-1.43-.91-2.418-.961-.938.828-2.105 1.691-3.902 1.746.382.289.796.633.983.836z" fill="none" stroke="#000" stroke-width=".035" stroke-linecap="round" stroke-linejoin="round"/><path d="M258.905 149.469c.336-.902.207-1.828-.027-2.496-.238-.668-.027-1.387.316-1.914.348-.531.375-1.012.477-1.383.113-.375.352-.688.691.102.352.805.473 1.887.055 3.035-.422 1.141-.77 1.965-1.305 2.629l-.207.027z" fill="#009266"/><path d="M258.905 149.469c.336-.902.207-1.828-.027-2.496-.238-.668-.027-1.387.316-1.914.348-.531.375-1.012.477-1.383.113-.375.352-.688.691.102.352.805.473 1.887.055 3.035-.422 1.141-.77 1.965-1.305 2.629l-.207.027z" fill="none" stroke="#000" stroke-width=".035" stroke-linecap="round" stroke-linejoin="round"/><path d="M258.237 149.637c.719-.219 1.969-.805 2.598-1.629.645-.824 2.617-1.75 4.051-1.887 1.043-.098 1.016-.133.324.75-.699.871-1.5 2.125-2.902 2.199-1.41.086-2.848.051-3.887.883l-.184-.316z" fill="#009266"/><path d="M258.237 149.637c.719-.219 1.969-.805 2.598-1.629.645-.824 2.617-1.75 4.051-1.887 1.043-.098 1.016-.133.324.75-.699.871-1.5 2.125-2.902 2.199-1.41.086-2.848.051-3.887.883l-.184-.316z" fill="none" stroke="#000" stroke-width=".035" stroke-linecap="round" stroke-linejoin="round"/><path d="M252.366 152.152c1.695-1.52 3.5-2.543 5.793-2.711.445-.027.961-.027.344.641-1.383 1.516-2.836 2.77-4.918 2.781-.426-.289-.746-.527-1.219-.711z" fill="#009266"/><path d="M252.366 152.152c1.695-1.52 3.5-2.543 5.793-2.711.445-.027.961-.027.344.641-1.383 1.516-2.836 2.77-4.918 2.781-.426-.289-.746-.527-1.219-.711z" fill="none" stroke="#000" stroke-width=".035" stroke-linecap="round" stroke-linejoin="round"/><path d="M260.686 145.266c.426-.391 1.094-.695 1.383-.816.34-.145.43-.129.258.246-.184.371-.184.93-.289 1.109-.652.43-1.566 1.297-1.953 1.863.359-.828.555-1.137.601-2.402z" fill="#009266"/><path d="M260.686 145.266c.426-.391 1.094-.695 1.383-.816.34-.145.43-.129.258.246-.184.371-.184.93-.289 1.109-.652.43-1.566 1.297-1.953 1.863.359-.828.555-1.137.601-2.402z" fill="none" stroke="#000" stroke-width=".035" stroke-linecap="round" stroke-linejoin="round"/><path d="M262.628 142.848c-.129-1.023-.211-2.277.195-2.949-.352-.527-.773-1.02-1.133-1.438-.473-.559-.609-.215-.523.293.074.508 0 1.066-.16 2.074-.293 1.809 1.035 2.129 1.707 3.582.019-.5-.028-1.043-.086-1.562z" fill="#009266"/><path d="M262.628 142.848c-.129-1.023-.211-2.277.195-2.949-.352-.527-.773-1.02-1.133-1.438-.473-.559-.609-.215-.523.293.074.508 0 1.066-.16 2.074-.293 1.809 1.035 2.129 1.707 3.582.019-.5-.028-1.043-.086-1.562z" fill="none" stroke="#000" stroke-width=".035" stroke-linecap="round" stroke-linejoin="round"/><path d="M266.851 139.289c-.574 1.129-1.703 1.148-2.34 1.953a5.972 5.972 0 0 1-.691 2.297 20.57 20.57 0 0 1-.582 1.02c.598-.586 1.559-.902 2.102-1.152.691-.312 1.43-.93 1.602-2.684.055-.559.148-1.043.23-1.406.081-.379-.044-.579-.321-.028z" fill="#009266"/><path d="M266.851 139.289c-.574 1.129-1.703 1.148-2.34 1.953a5.972 5.972 0 0 1-.691 2.297 20.57 20.57 0 0 1-.582 1.02c.598-.586 1.559-.902 2.102-1.152.691-.312 1.43-.93 1.602-2.684.055-.559.148-1.043.23-1.406.081-.379-.044-.579-.321-.028z" fill="none" stroke="#000" stroke-width=".035" stroke-linecap="round" stroke-linejoin="round"/><path d="M264.499 140.027c.188-.535.738-1.363 1.07-1.559.332-.195.617-.531.496.02s-.016 1.379-.172 1.785c-.465.27-1.125.602-1.383.969a7.286 7.286 0 0 0-.011-1.215z" fill="#009266"/><path d="M264.499 140.027c.188-.535.738-1.363 1.07-1.559.332-.195.617-.531.496.02s-.016 1.379-.172 1.785c-.465.27-1.125.602-1.383.969a7.286 7.286 0 0 0-.011-1.215z" fill="none" stroke="#000" stroke-width=".035" stroke-linecap="round" stroke-linejoin="round"/><path d="M266.018 134.816c-.184-.441-.469-.641-.328-1.629.145-.996.023-1.156-.438-.73-.422.387-.945 1.203-1.113 2.203.359 1.297-.145 1.93-.238 3.148.039.086.082.195.137.328.074.195.129.383.188.57.211-.707.836-1.551 1.379-2.227.656-.815.581-1.221.413-1.663z" fill="#009266"/><path d="M266.018 134.816c-.184-.441-.469-.641-.328-1.629.145-.996.023-1.156-.438-.73-.422.387-.945 1.203-1.113 2.203.359 1.297-.145 1.93-.238 3.148.039.086.082.195.137.328.074.195.129.383.188.57.211-.707.836-1.551 1.379-2.227.656-.815.581-1.221.413-1.663z" fill="none" stroke="#000" stroke-width=".035" stroke-linecap="round" stroke-linejoin="round"/><path d="M262.179 134.211c-.453-.027-1.105-.281-1.52-.695-.508-.508-.582-.375-.324.078.266.449.266.875.352 1.516.121 1 .91 2.305 2.484 2.234-.699-1.063-1.02-1.918-.992-3.133z" fill="#009266"/><path d="M262.179 134.211c-.453-.027-1.105-.281-1.52-.695-.508-.508-.582-.375-.324.078.266.449.266.875.352 1.516.121 1 .91 2.305 2.484 2.234-.699-1.063-1.02-1.918-.992-3.133z" fill="none" stroke="#000" stroke-width=".035" stroke-linecap="round" stroke-linejoin="round"/><path d="M260.124 129.004c-1.117-.824-.758-1.727-1.812-2.574-1.043-.852-2.23-1.328-2.684-1.422-.469-.086-.969-.184-.434.379.906.934.738 1.828 1.844 2.414 1.227.633 2.422.758 3.039 1.555l.047-.352z" fill="#009266"/><path d="M260.124 129.004c-1.117-.824-.758-1.727-1.812-2.574-1.043-.852-2.23-1.328-2.684-1.422-.469-.086-.969-.184-.434.379.906.934.738 1.828 1.844 2.414 1.227.633 2.422.758 3.039 1.555l.047-.352z" fill="none" stroke="#000" stroke-width=".035" stroke-linecap="round" stroke-linejoin="round"/><path d="M262.343 132.812c.105-.586.184-.77.262-.719a47.66 47.66 0 0 1-.25-.922c-.285-1.172-1.348-1.988-2.176-2.527-.828-.527-.691-.211-.508.137.188.344.406.691.508 1.438.102.691.5 1.785 2.145 2.727.003-.044.011-.087.019-.134z" fill="#009266"/><path d="M262.343 132.812c.105-.586.184-.77.262-.719a47.66 47.66 0 0 1-.25-.922c-.285-1.172-1.348-1.988-2.176-2.527-.828-.527-.691-.211-.508.137.188.344.406.691.508 1.438.102.691.5 1.785 2.145 2.727.003-.044.011-.087.019-.134z" fill="none" stroke="#000" stroke-width=".035" stroke-linecap="round" stroke-linejoin="round"/><path d="M262.768 132.406c.035.133.145.262.258.406-.047-.453.047-1 .258-2.168.297-1.633-.93-1.812-1.113-2.926-.129-.785-.445-.535-.738-.141-.242.336-.379 1.02-.215 1.848.508.461.961 1.047 1.137 1.746.074.277.219.801.25.922.081.067.136.212.163.313z" fill="#009266"/><path d="M262.768 132.406c.035.133.145.262.258.406-.047-.453.047-1 .258-2.168.297-1.633-.93-1.812-1.113-2.926-.129-.785-.445-.535-.738-.141-.242.336-.379 1.02-.215 1.848.508.461.961 1.047 1.137 1.746.074.277.219.801.25.922.081.067.136.212.163.313z" fill="none" stroke="#000" stroke-width=".035" stroke-linecap="round" stroke-linejoin="round"/><path d="M263.882 138.434c-.07-1.867.859-2.398.059-4.363-.324-.777-1.016-1.215-1.172-1.664-.164-.441-.266-.52-.426.406-.43 2.375-.016 3.422 1.328 5.242l.211.379z" fill="#009266"/><path d="M263.882 138.434c-.07-1.867.859-2.398.059-4.363-.324-.777-1.016-1.215-1.172-1.664-.164-.441-.266-.52-.426.406-.43 2.375-.016 3.422 1.328 5.242l.211.379z" fill="none" stroke="#000" stroke-width=".035" stroke-linecap="round" stroke-linejoin="round"/><path d="M262.409 145.719c.402-.688.352-1.828.219-2.871-.129-1.039-.219-2.316.207-2.973.43-.672.668-1.414.719-1.82.055-.391.09-.949.484.082.93 2.48.371 4.312-.219 5.402-.582 1.094-.848 1.336-1.059 2.047l-.351.133z" fill="#009266"/><path d="M262.409 145.719c.402-.688.352-1.828.219-2.871-.129-1.039-.219-2.316.207-2.973.43-.672.668-1.414.719-1.82.055-.391.09-.949.484.082.93 2.48.371 4.312-.219 5.402-.582 1.094-.848 1.336-1.059 2.047l-.351.133z" fill="none" stroke="#000" stroke-width=".035" stroke-linecap="round" stroke-linejoin="round"/><path d="M260.835 148.008c.484-.609 1.691-1.289 2.875-1.648.09-.562.266-1.16.484-1.543.27-.48 0-.395-.375-.109a7.724 7.724 0 0 1-1.273.801c-1.418.711-2.742 2.352-3.445 3.789.625-.294 1.316-.739 1.734-1.29z" fill="#009266"/><path d="M260.835 148.008c.484-.609 1.691-1.289 2.875-1.648.09-.562.266-1.16.484-1.543.27-.48 0-.395-.375-.109a7.724 7.724 0 0 1-1.273.801c-1.418.711-2.742 2.352-3.445 3.789.625-.294 1.316-.739 1.734-1.29z" fill="none" stroke="#000" stroke-width=".035" stroke-linecap="round" stroke-linejoin="round"/><path d="M260.179 130.219v-.004c-.672-.273-1.75-.176-2.109-.273-.395-.105-.523 0-.055.332.605.43 1.18 1.879 2.348 2.109.352.074.832.062 1.152.02-.969-.794-1.254-1.622-1.336-2.184z" fill="#009266"/><path d="M260.179 130.219v-.004c-.672-.273-1.75-.176-2.109-.273-.395-.105-.523 0-.055.332.605.43 1.18 1.879 2.348 2.109.352.074.832.062 1.152.02-.969-.794-1.254-1.622-1.336-2.184z" fill="none" stroke="#000" stroke-width=".035" stroke-linecap="round" stroke-linejoin="round"/><path d="M257.038 127.801c-.574-.309-.809-.691-1.023-1.121-.535-.004-1.012.156-1.351.066-.352-.086-.324.207-.02.531.855.922 1.723 1.422 2.668 1.496.461.035.867-.281 1.383-.297-.512-.187-1.075-.378-1.657-.675z" fill="#009266"/><path d="M257.038 127.801c-.574-.309-.809-.691-1.023-1.121-.535-.004-1.012.156-1.351.066-.352-.086-.324.207-.02.531.855.922 1.723 1.422 2.668 1.496.461.035.867-.281 1.383-.297-.512-.187-1.075-.378-1.657-.675zm-2.848 22.949c1.234-.883 1.445-2.477 2.727-3.223m-3.785 4.672c1.48-.188 3.398-.555 5.059-2.367m-1.419-.172c.801-.555 1.242-1.047 1.492-1.387m1.528 2.536c-.406-.141-1.066-.109-1.711.371m-3.984 1.847c1.633.602 4.598-1.254 5.762-.637m-.954-2.921c.934-.562 4.699-2.309 5.754-2.684m-1.109-1.597c-.332.461-1.262 1.453-1.953 2.129m.39-2.442c-.391.598-1.387 2.105-1.844 2.637m5.211-2.93c-.301.039-.883.199-1.234.391m-4.117-.989c.121 1.547 0 3.793-.957 5.375m1.914-4.312c.207-.371.602-.922.316-1.508m5.535-3.633c-.605 1.668-1.098 3.051-3.316 4.309m.297-5.762c.43 1.965.348 4.184-.875 6.309m-1.484-6.086c.312.527.848 1.566 1.094 2.5m-.145-3.172c.293.375.508.828.562 1.652m2.66-2.234c-.43.375-.992 1.168-1.195 2.156m1.086-7.023c-.395 1.199-.773 3.832-1.273 5.27m-.559-.294c-.055-2.074-.996-3.625-.969-4.613m1.528-.73c-.082.602-.082 1.086.055 1.883m-2.872-.798c.32.215.523.32.793.586m-1.484.079c.527.855 1.195 2 1.992 2.711m-4.305-6.43c.965.43 2.016 1.137 2.496 1.594m-.863-2.922c1.414 1.469 1.953 2.996 2.348 3.535m-.473-5.164c-.285 1.121.797 3.277.746 4.766m-2.476-1.809c-.531-.562-.691-.695-1.121-.91m1.464-1.891c.137.484.348.805.613 1.176m-5.601-3.262c1.199.691 3.262 2.226 4.137 3.449m-5.137-1.914c.801.586 2.238 1.488 3.676 1.488m-1.145-4.601c-.055.527.48 1.707.848 2.363" fill="none" stroke="#000" stroke-width=".035" stroke-linecap="round" stroke-linejoin="round"/><path d="M260.429 126.414c-.523-.027-.406 1.238.156 1.215.57-.008.625-1.18-.156-1.215z" fill="#009266"/><path d="M260.429 126.414c-.523-.027-.406 1.238.156 1.215.57-.008.625-1.18-.156-1.215z" fill="none" stroke="#000" stroke-width=".035" stroke-linecap="round" stroke-linejoin="round"/><path d="M259.222 129.516c.102-.484-1.098-.922-1.309-.316-.219.601 1.199.812 1.309.316z" fill="#009266"/><path d="M259.222 129.516c.102-.484-1.098-.922-1.309-.316-.219.601 1.199.812 1.309.316z" fill="none" stroke="#000" stroke-width=".035" stroke-linecap="round" stroke-linejoin="round"/><path d="M261.737 133.52c.301-.316-.672-1.094-.996-.742-.312.359.535 1.242.996.742z" fill="#009266"/><path d="M261.737 133.52c.301-.316-.672-1.094-.996-.742-.312.359.535 1.242.996.742z" fill="none" stroke="#000" stroke-width=".035" stroke-linecap="round" stroke-linejoin="round"/><path d="M264.573 131.355c-.496-.316-.914.824-.422 1.137.496.32 1.024-.738.422-1.137z" fill="#009266"/><path d="M264.573 131.355c-.496-.316-.914.824-.422 1.137.496.32 1.024-.738.422-1.137z" fill="none" stroke="#000" stroke-width=".035" stroke-linecap="round" stroke-linejoin="round"/><path d="M265.354 137.605c.359.574 1.207-.359.926-.68-.285-.312-1.211.212-.926.68z" fill="#009266"/><path d="M265.354 137.605c.359.574 1.207-.359.926-.68-.285-.312-1.211.212-.926.68z" fill="none" stroke="#000" stroke-width=".035" stroke-linecap="round" stroke-linejoin="round"/><path d="M262.628 138.312c.398-.211-.387-.961-.746-.676-.356.286.074 1.028.746.676z" fill="#009266"/><path d="M262.628 138.312c.398-.211-.387-.961-.746-.676-.356.286.074 1.028.746.676z" fill="none" stroke="#000" stroke-width=".035" stroke-linecap="round" stroke-linejoin="round"/><path d="M261.276 143.879c.559-.281.035-1.211-.461-.965-.496.254.036 1.176.461.965z" fill="#009266"/><path d="M261.276 143.879c.559-.281.035-1.211-.461-.965-.496.254.036 1.176.461.965z" fill="none" stroke="#000" stroke-width=".035" stroke-linecap="round" stroke-linejoin="round"/><path d="M264.995 144.555c-.035.723 1.285.492 1.211-.074-.066-.567-1.172-.536-1.211.074z" fill="#009266"/><path d="M264.995 144.555c-.035.723 1.285.492 1.211-.074-.066-.567-1.172-.536-1.211.074z" fill="none" stroke="#000" stroke-width=".035" stroke-linecap="round" stroke-linejoin="round"/><path d="M258.054 148.379c.43.293.953-.738.422-1.023-.528-.286-.958.671-.422 1.023z" fill="#009266"/><path d="M258.054 148.379c.43.293.953-.738.422-1.023-.528-.286-.958.671-.422 1.023z" fill="none" stroke="#000" stroke-width=".035" stroke-linecap="round" stroke-linejoin="round"/><path d="M259.573 150.75c-.031.645.957.609.957.047 0-.57-.929-.57-.957-.047z" fill="#009266"/><path d="M259.573 150.75c-.031.645.957.609.957.047 0-.57-.929-.57-.957-.047z" fill="none" stroke="#000" stroke-width=".035" stroke-linecap="round" stroke-linejoin="round"/><path fill="#fff100" d="M249.858 131.039l1.789 5.141 5.446.117-4.34 3.289 1.574 5.215-4.469-3.106-4.472 3.106 1.574-5.215-4.332-3.289 5.445-.117 1.785-5.141z"/></g></svg>