<svg xmlns="http://www.w3.org/2000/svg" viewBox="0 0 499.839 277.402"><path fill="#0038a8" d="M499.839 138.52h-500V-.375h500V138.52z"/><path fill="#ce1126" d="M499.839 277.402h-500V138.52h500v138.882z"/><path fill="#fff" d="M-.161-.375L212.374 138.52-.161 277.402V-.375z"/><g fill="#fcd116"><path d="M80.069 116.172a23.123 23.123 0 0 1 6.289 2.633l11.914-15.199 3.445.684-13.507 15.761c.309.234 1.043.812 1.422 1.137l16.379-17.527 2.848.547.551 2.844-17.524 16.383c.316.375.895 1.113 1.129 1.422l15.754-13.504.695 3.438-15.188 11.906c1.16 1.93 2.07 4.031 2.625 6.273l19.176-2.328 1.945 2.922-20.691 1.594c.055.383.164 1.316.207 1.809l23.973-.809 1.625 2.398-1.625 2.402-23.973-.812a43.239 43.239 0 0 1-.207 1.801l20.691 1.605-1.945 2.91-19.203-2.363c-.543 2.18-1.438 4.262-2.625 6.238l15.199 11.918-.691 3.434-15.762-13.496a49.1 49.1 0 0 1-1.125 1.426l17.523 16.375-.547 2.852-2.848.543-16.375-17.523c-.387.312-1.121.898-1.43 1.133l13.504 15.754-3.438.688-11.91-15.176a22.716 22.716 0 0 1-6.266 2.617l2.316 19.172L79.487 182l-1.594-20.691c-.379.055-1.316.164-1.812.211l.809 23.973-2.398 1.625-2.395-1.625.805-23.973a54.572 54.572 0 0 1-1.805-.211L69.503 182l-2.914-1.949 2.309-19.199a22.958 22.958 0 0 1-6.281-2.625l-11.918 15.199-3.438-.688 13.5-15.762a40.431 40.431 0 0 1-1.426-1.137l-16.379 17.527-2.848-.543-.547-2.848 17.527-16.379a55.537 55.537 0 0 1-1.133-1.426l-15.761 13.51-.684-3.441 15.176-11.906a23.038 23.038 0 0 1-2.625-6.273l-19.172 2.328-1.941-2.922 20.688-1.59c-.047-.387-.164-1.32-.199-1.816l-23.977.812-1.629-2.398 1.629-2.398 23.977.809c.035-.492.152-1.422.199-1.809l-20.688-1.594 1.941-2.914 19.207 2.363c.543-2.18 1.438-4.258 2.625-6.234l-15.199-11.922.691-3.441 15.758 13.508c.234-.312.809-1.043 1.137-1.43l-17.531-16.375.551-2.852 2.84-.539 16.383 17.523a55.537 55.537 0 0 1 1.426-1.133l-13.504-15.758 3.441-.688 11.902 15.176a22.808 22.808 0 0 1 6.269-2.621l-2.316-19.176 2.914-1.941 1.594 20.691a53.62 53.62 0 0 1 1.805-.207l-.809-23.973 2.402-1.629 2.402 1.629-.816 23.973c.496.043 1.426.156 1.812.207l1.594-20.691 2.922 1.941-2.32 19.203zM175.874 138.52l-8.816-2.836v-9.34l-5.481 7.582-8.816-2.91 5.476 7.504-5.476 7.503 8.886-2.875 5.375 7.543v-9.296l8.852-2.875zM14.417 43.121l1.98 9.047-8.07 4.691 9.313.938 1.906 9.074 3.742-8.496 9.234.961-6.945-6.242 3.82-8.438-8.043 4.68-6.937-6.215zM14.417 233.91l1.98-9.051-8.07-4.691 9.313-.934 1.906-9.078 3.742 8.496 9.234-.961-6.945 6.247 3.82 8.433-8.043-4.672-6.937 6.211z"/></g></svg>