<svg xmlns="http://www.w3.org/2000/svg" viewBox="0 0 500 277.8"><defs><style>.cls-3{fill:#fff}</style></defs><g id="Layer_2" data-name="Layer 2"><g id="PNG"><path id="rect3372" d="M0 0h500v277.78H0z"/><path id="path4249" d="M0 0h500v277.8z" fill="#cd2028"/><path id="path3348" d="M381.2 79.2c-3.3 4.3-11.3-4.3-20.7-4.5s-16.2 9.1-19 12.3-11.7 19.8-11.5 21.5 5.5-4.9 7.5-6.1c.2 2.4-2.2 5.1-1.6 5.9s6.9-4.7 9.1-4.9c.6 1.6-1.2 3.2-.6 5.5.8.8 4.3-4 6.7-4.9.4 1.8-2.2 5.1-.8 7.3 1 .2 6.9-6.7 8.9-7.5s-1 6.5 0 7.1c1.8-1.2 7.3-7.5 9.1-8.3s-.2 8.1.6 8.1c2.2-1.6 7.7-9.1 8.3-10.3s-.6 11.5 5.5 18.2 15.4 14.4 16.4 14.4c1.2-2.2-.4-6.7.6-6.5 2.8 3 7.9 7.3 9.1 7.3s-.8-4.7.8-4.7c3.2 3 12.2 14.6 30 20-1.2-3.4-3.8-6.3-4-7.9 1.2.2 5.3 2.2 6.1 2s-8.7-11.9-8.1-13.4c2.2-.2 3.2 1.2 4 .2-1-1.6-9.3-10.9-9.3-13s2.6.4 3.4 0-3.2-8.7-2.4-9.7 9.5 5.3 11.7 5.3.6-7.7 1.6-8.1 8.3 4.1 9.9 4.1 1.4-3.4 2-3 17.8 17.6 11.9 37.7c-5.9 14.4-17.8 22.1-35.2 15.8 1 1.6 10.3 9.3 20.4 6.5s22.3-10.7 20.9-30.4-7.9-22.5-8.9-25.5 1.6.8 3.8 1.6-.4-4.2-1-6.3 6.5 4.5 8.3 5.1-4.1-16.2-5.9-17.4 1.8.4 3 .8S460.9 75 458.3 75s2.2-1 3.6-1-13.9-12.2-16.5-12.2 5.5-3.2 6.3-3.4-17.6-10.1-34.6.2c-1-.8 8-7 8.3-9.7.1-.7-3-2.2-3.2-3s4.7-3.2 4.9-4.9-3.4-1-4.5-1.4 4.1-5.1 3.8-6.7-3.6-1.2-4.3-.6 2.1-4.2 1.6-5.5-2-.2-3.6.2 5.1-8.7 4-9.9-17.8 8.7-23.9 19.8-1.4 20-2.2 23.7-1.8 7.5-4.3 7.5-8.5-4-10.5-5.9-2.4-3.4-5.1-4.1-9.1 1.6-11.5 1.8-11.7-1.8-12.2-1.2 9.1 4.2 11.3 5.3 2.4 2.8 4 3.8S386 73 381.2 79.2zm57.9 27.8c4.7 4.7 36.8 26.1 36.8 52.2s-23.3 25.3-30 24.5c7.5 6.3 36 5.1 36-24.5 0-26.1-36.8-52.2-41.5-54.5s-6-2.4-1.3 2.3z" fill="#fbd015"/><g id="use2390"><path id="polygon5131" class="cls-3" d="M129 139.6l4.4 15h15.2l-12 9.2 4.4 14.7-12-9.2-11.9 8.7 4.4-14.2-12-9.2h14.7l4.8-15z"/></g><path id="polygon5131-2" data-name="polygon5131" class="cls-3" d="M83.3 223.1l4.4 15h15.2l-12 9.2 4.4 14.6-12-9.2-11.9 8.8 4.4-14.2-12-9.2h14.8l4.7-15z"/><path id="polygon5133" class="cls-3" d="M103.8 191.1l2.2 7.5h7.6l-6 4.6 2.2 7.3-6-4.6-5.9 4.4 2.2-7.1-6-4.6h7.3l2.4-7.5z"/><g id="use2392"><path id="polygon5131-3" data-name="polygon5131" class="cls-3" d="M83.3 85.1l4.4 15h15.2l-12 9.2 4.4 14.6-12-9.2-11.9 8.8 4.4-14.2-12-9.2h14.8l4.7-15z"/></g><g id="use2394"><path id="polygon5131-4" data-name="polygon5131" class="cls-3" d="M37.4 143.8l4.4 15h15.1L45 168l4.4 14.6-12-9.2-11.9 8.8 4.4-14.2-12-9.2h14.7l4.8-15z"/></g></g></g></svg>