<svg xmlns="http://www.w3.org/2000/svg" viewBox="0 0 499.839 277.402"><path fill="red" d="M192.175 277.402V-.375h307.664v277.777H192.175z"/><path fill="#060" d="M-.161 277.402V-.375h192.336v277.777H-.161z"/><g><path d="M163.405 138.059l-25.371-20.75a121.971 121.971 0 0 1 4.113-5.039l25.371 20.758-4.113 5.031z" fill="#ff0"/><path d="M163.405 138.059l-25.371-20.75a121.971 121.971 0 0 1 4.113-5.039l25.371 20.758-4.113 5.031z" fill="none" stroke="#000" stroke-width=".065"/><path d="M164.272 137.008l-25.379-20.75-1.754 2.141c.906.746 25.371 20.754 25.371 20.754l1.762-2.145z" fill="#ff0"/><path d="M164.272 137.008l-25.379-20.75-1.754 2.141c.906.746 25.371 20.754 25.371 20.754l1.762-2.145z" fill="none" stroke="#000" stroke-width=".065"/><path d="M168.616 131.691s-24.879-20.344-25.379-20.75l-1.758 2.141c.914.746 25.375 20.754 25.375 20.754l1.762-2.145z" fill="#ff0"/><path d="M168.616 131.691s-24.879-20.344-25.379-20.75l-1.758 2.141c.914.746 25.375 20.754 25.375 20.754l1.762-2.145z" fill="none" stroke="#000" stroke-width=".065"/><path d="M249.448 115.051l-34.941 15.828a79.344 79.344 0 0 1-2.301-5.086l34.945-15.828 2.297 5.086z" fill="#ff0"/><path d="M249.448 115.051l-34.941 15.828a79.344 79.344 0 0 1-2.301-5.086l34.945-15.828 2.297 5.086z" fill="none" stroke="#000" stroke-width=".065"/><path d="M248.972 113.984s-34.258 15.516-34.941 15.828l.98 2.18c1.25-.578 34.941-15.836 34.941-15.836l-.98-2.172z" fill="#ff0"/><path d="M248.972 113.984s-34.258 15.516-34.941 15.828l.98 2.18c1.25-.578 34.941-15.836 34.941-15.836l-.98-2.172z" fill="none" stroke="#000" stroke-width=".065"/><path d="M246.538 108.613s-34.254 15.516-34.945 15.836l.984 2.164c1.25-.57 34.945-15.828 34.945-15.828l-.984-2.172z" fill="#ff0"/><path d="M246.538 108.613s-34.254 15.516-34.945 15.836l.984 2.164c1.25-.57 34.945-15.828 34.945-15.828l-.984-2.172z" fill="none" stroke="#000" stroke-width=".065"/><path d="M253.507 145.02l-36.871 10.59c-.508-1.523-1.211-3.965-1.543-5.363l36.871-10.594 1.543 5.367z" fill="#ff0"/><path d="M253.507 145.02l-36.871 10.59c-.508-1.523-1.211-3.965-1.543-5.363l36.871-10.594 1.543 5.367z" fill="none" stroke="#000" stroke-width=".065"/><path d="M253.186 143.898s-36.148 10.383-36.871 10.594l.656 2.285c1.324-.379 36.871-10.594 36.871-10.594l-.656-2.285z" fill="#ff0"/><path d="M253.186 143.898s-36.148 10.383-36.871 10.594l.656 2.285c1.324-.379 36.871-10.594 36.871-10.594l-.656-2.285z" fill="none" stroke="#000" stroke-width=".065"/><path d="M251.554 138.234s-36.141 10.383-36.867 10.59l.66 2.289c1.32-.387 36.871-10.598 36.871-10.598l-.664-2.281z" fill="#ff0"/><path d="M251.554 138.234s-36.141 10.383-36.867 10.59l.66 2.289c1.32-.387 36.871-10.598 36.871-10.598l-.664-2.281z" fill="none" stroke="#000" stroke-width=".065"/><path d="M168.651 160.344l-34.695-16.383c.633-1.473 1.719-3.773 2.391-5.047l34.688 16.379-2.384 5.051z" fill="#ff0"/><path d="M168.651 160.344l-34.695-16.383c.633-1.473 1.719-3.773 2.391-5.047l34.688 16.379-2.384 5.051z" fill="none" stroke="#000" stroke-width=".065"/><path d="M169.147 159.293s-34.008-16.066-34.688-16.383l-1.02 2.156c1.246.582 34.691 16.375 34.691 16.375l1.017-2.148z" fill="#ff0"/><path d="M169.147 159.293s-34.008-16.066-34.688-16.383l-1.02 2.156c1.246.582 34.691 16.375 34.691 16.375l1.017-2.148z" fill="none" stroke="#000" stroke-width=".065"/><path d="M171.671 153.957s-34.012-16.059-34.695-16.379l-1.016 2.148c1.242.59 34.688 16.387 34.688 16.387l1.023-2.156z" fill="#ff0"/><path d="M171.671 153.957s-34.012-16.059-34.695-16.379l-1.016 2.148c1.242.59 34.688 16.387 34.688 16.387l1.023-2.156z" fill="none" stroke="#000" stroke-width=".065"/><path d="M239.128 178.141h-91.707c-.164-2.008-.164-5.188 0-6.992h91.707v6.992z" fill="#ff0"/><path d="M239.128 178.141h-91.707c-.164-2.008-.164-5.188 0-6.992h91.707v6.992z" fill="none" stroke="#000" stroke-width=".065"/><path d="M239.128 177.117h-91.707v2.98h91.707v-2.98z" fill="#ff0"/><path d="M239.128 177.117h-91.707v2.98h91.707v-2.98z" fill="none" stroke="#000" stroke-width=".065"/><path d="M239.128 169.297h-91.707v2.984h91.707v-2.984z" fill="#ff0"/><path d="M239.128 169.297h-91.707v2.984h91.707v-2.984z" fill="none" stroke="#000" stroke-width=".065"/><path d="M193.901 192.543c-29.84 0-54.031-24.184-54.031-54.027 0-29.836 24.191-54.031 54.031-54.031s54.031 24.195 54.031 54.031c.001 29.843-24.191 54.027-54.031 54.027v9.219c34.93 0 63.246-28.316 63.246-63.246 0-34.926-28.316-63.246-63.246-63.246-34.926 0-63.238 28.32-63.238 63.246 0 34.93 28.312 63.246 63.238 63.246v-9.219z" fill="#ff0"/><path d="M193.901 192.543c-29.84 0-54.031-24.184-54.031-54.027 0-29.836 24.191-54.031 54.031-54.031s54.031 24.195 54.031 54.031c.001 29.843-24.191 54.027-54.031 54.027v9.219c34.93 0 63.246-28.316 63.246-63.246 0-34.926-28.316-63.246-63.246-63.246-34.926 0-63.238 28.32-63.238 63.246 0 34.93 28.312 63.246 63.238 63.246v-9.219zm0 7.129c33.777 0 61.156-27.379 61.156-61.156 0-33.781-27.379-61.16-61.156-61.16-33.781 0-61.156 27.379-61.156 61.16 0 33.777 27.375 61.156 61.156 61.156zM193.901 194.652c31.004 0 56.137-25.133 56.137-56.137 0-31.008-25.133-56.141-56.137-56.141s-56.141 25.133-56.141 56.141c.001 31.005 25.137 56.137 56.141 56.137zm0-56.136" fill="none" stroke="#000" stroke-width=".065"/><path d="M189.257 108.242V74.055c2.109-.164 5.457-.219 7.344-.055v34.348" fill="#ff0"/><path d="M189.257 108.242V74.055c2.109-.164 5.457-.219 7.344-.055v34.348" fill="none" stroke="#000" stroke-width=".065"/><path d="M187.202 108.531V75.215c0-2.543 3.137-2.43 3.137 0v33.215" fill="#ff0"/><path d="M187.202 108.531V75.215c0-2.543 3.137-2.43 3.137 0v33.215" fill="none" stroke="#000" stroke-width=".065"/><path d="M195.413 108.531V75.215c0-2.543 3.133-2.43 3.133 0v33.215" fill="#ff0"/><path d="M195.413 108.531V75.215c0-2.543 3.133-2.43 3.133 0v33.215" fill="none" stroke="#000" stroke-width=".065"/><path d="M171.886 116.188s-28.137-10.348-31.273-11.508c-2.391-.875-1.203-3.777 1.078-2.938 1.727.633 31.176 11.469 31.176 11.469" fill="#ff0"/><path d="M171.886 116.188s-28.137-10.348-31.273-11.508c-2.391-.875-1.203-3.777 1.078-2.938 1.727.633 31.176 11.469 31.176 11.469" fill="none" stroke="#000" stroke-width=".065"/><path d="M172.628 114.75l-32.418-11.672c-1.887 2.762-4.695 7.891-5.613 10.379l31.762 11.988" fill="#ff0"/><path d="M172.628 114.75l-32.418-11.672c-1.887 2.762-4.695 7.891-5.613 10.379l31.762 11.988" fill="none" stroke="#000" stroke-width=".065"/><path d="M166.108 126.668l-31.277-11.512c-2.379-.871-1.199-3.777 1.078-2.934 1.727.629 31.176 11.469 31.176 11.469" fill="#ff0"/><path d="M166.108 126.668l-31.277-11.512c-2.379-.871-1.199-3.777 1.078-2.934 1.727.629 31.176 11.469 31.176 11.469" fill="none" stroke="#000" stroke-width=".065"/><path d="M161.71 125.988l-32.105 10.594c-.102 2.074-.02 5.133.188 7.766l33.32-11.129" fill="#ff0"/><path d="M161.71 125.988l-32.105 10.594c-.102 2.074-.02 5.133.188 7.766l33.32-11.129" fill="none" stroke="#000" stroke-width=".065"/><path d="M161.917 127.149s-28.434 9.488-31.613 10.539c-2.41.805-3.297-2.199-.992-2.973 1.742-.574 31.508-10.512 31.508-10.512" fill="#ff0"/><path d="M161.917 127.149s-28.434 9.488-31.613 10.539c-2.41.805-3.297-2.199-.992-2.973 1.742-.574 31.508-10.512 31.508-10.512" fill="none" stroke="#000" stroke-width=".065"/><path d="M162.78 135.027s-28.441 9.496-31.609 10.547c-2.41.809-3.305-2.199-.996-2.969 1.746-.578 31.512-10.512 31.512-10.512" fill="#ff0"/><path d="M162.78 135.027s-28.441 9.496-31.609 10.547c-2.41.809-3.305-2.199-.996-2.969 1.746-.578 31.512-10.512 31.512-10.512" fill="none" stroke="#000" stroke-width=".065"/><path d="M189.257 168.789v34.184c2.109.164 5.457.227 7.344.055V168.68" fill="#ff0"/><path d="M189.257 168.789v34.184c2.109.164 5.457.227 7.344.055V168.68" fill="none" stroke="#000" stroke-width=".065"/><path d="M187.202 168.488v33.328c0 2.543 3.137 2.434 3.137 0v-33.219" fill="#ff0"/><path d="M187.202 168.488v33.328c0 2.543 3.137 2.434 3.137 0v-33.219" fill="none" stroke="#000" stroke-width=".065"/><path d="M195.413 168.488v33.328c0 2.543 3.133 2.434 3.133 0v-33.219" fill="#ff0"/><path d="M195.413 168.488v33.328c0 2.543 3.133 2.434 3.133 0v-33.219" fill="none" stroke="#000" stroke-width=".065"/><path d="M225.143 144.957l26.383 22.141c-1.434 3.027-4.449 8.031-6.141 10.07l-26.332-21.414" fill="#ff0"/><path d="M225.143 144.957l26.383 22.141c-1.434 3.027-4.449 8.031-6.141 10.07l-26.332-21.414" fill="none" stroke="#000" stroke-width=".065"/><path d="M224.276 146.312l25.668 21.246c1.953 1.621 3.871-.859 1.996-2.406l-25.59-21.188" fill="#ff0"/><path d="M224.276 146.312l25.668 21.246c1.953 1.621 3.871-.859 1.996-2.406l-25.59-21.188" fill="none" stroke="#000" stroke-width=".065"/><path d="M218.12 156.582s23.098 19.109 25.672 21.246c1.957 1.621 3.867-.863 2.004-2.414-1.418-1.168-25.594-21.18-25.594-21.18" fill="#ff0"/><path d="M218.12 156.582s23.098 19.109 25.672 21.246c1.957 1.621 3.867-.863 2.004-2.414-1.418-1.168-25.594-21.18-25.594-21.18" fill="none" stroke="#000" stroke-width=".065"/><path d="M226.093 125.988l32.105 10.594c.102 2.074.02 5.133-.184 7.766l-33.324-11.129" fill="#ff0"/><path d="M226.093 125.988l32.105 10.594c.102 2.074.02 5.133-.184 7.766l-33.324-11.129" fill="none" stroke="#000" stroke-width=".065"/><path d="M225.89 127.149s28.438 9.488 31.617 10.539c2.402.805 3.289-2.199.984-2.973-1.738-.574-31.508-10.512-31.508-10.512" fill="#ff0"/><path d="M225.89 127.149s28.438 9.488 31.617 10.539c2.402.805 3.289-2.199.984-2.973-1.738-.574-31.508-10.512-31.508-10.512" fill="none" stroke="#000" stroke-width=".065"/><path d="M225.026 135.027s28.438 9.496 31.613 10.547c2.406.809 3.301-2.199.988-2.969-1.742-.578-31.512-10.512-31.512-10.512" fill="#ff0"/><path d="M225.026 135.027s28.438 9.496 31.613 10.547c2.406.809 3.301-2.199.988-2.969-1.742-.578-31.512-10.512-31.512-10.512" fill="none" stroke="#000" stroke-width=".065"/><path d="M172.186 161.09l-31.441 13.809c-1.16-1.629-2.82-4.312-3.594-5.926l30.934-13.715" fill="#ff0"/><path d="M172.186 161.09l-31.441 13.809c-1.16-1.629-2.82-4.312-3.594-5.926l30.934-13.715" fill="none" stroke="#000" stroke-width=".065"/><path d="M169.011 156.668l-30.789 12.738c-2.344.969-3.375-1.805-1.133-2.734 1.699-.707 30.699-12.695 30.699-12.695" fill="#ff0"/><path d="M169.011 156.668l-30.789 12.738c-2.344.969-3.375-1.805-1.133-2.734 1.699-.707 30.699-12.695 30.699-12.695" fill="none" stroke="#000" stroke-width=".065"/><path d="M172.472 162.719s-27.703 11.453-30.797 12.734c-2.344.973-3.375-1.805-1.129-2.73 1.699-.707 30.699-12.695 30.699-12.695" fill="#ff0"/><path d="M172.472 162.719s-27.703 11.453-30.797 12.734c-2.344.973-3.375-1.805-1.129-2.73 1.699-.707 30.699-12.695 30.699-12.695" fill="none" stroke="#000" stroke-width=".065"/><path d="M228.167 99.879l20.976 5.52c1.004 1.609 2.625 4.586 3.25 6.164l-24.578-6.285" fill="#ff0"/><path d="M228.167 99.879l20.976 5.52c1.004 1.609 2.625 4.586 3.25 6.164l-24.578-6.285" fill="none" stroke="#000" stroke-width=".065"/><path d="M228.237 98.074c8.379 2.109 18.324 4.613 20.145 5.074 2.461.609 1.672 3.316-.688 2.719-.992-.25-10.945-2.754-19.527-4.91" fill="#ff0"/><path d="M228.237 98.074c8.379 2.109 18.324 4.613 20.145 5.074 2.461.609 1.672 3.316-.688 2.719-.992-.25-10.945-2.754-19.527-4.91" fill="none" stroke="#000" stroke-width=".065"/><path d="M227.823 104.586c8.855 2.223 21.801 5.48 23.91 6.008 2.457.625 1.672 3.324-.691 2.727-1.145-.285-14.184-3.566-23.312-5.859" fill="#ff0"/><path d="M227.823 104.586c8.855 2.223 21.801 5.48 23.91 6.008 2.457.625 1.672 3.324-.691 2.727-1.145-.285-14.184-3.566-23.312-5.859" fill="none" stroke="#000" stroke-width=".065"/><path d="M155.476 145.973c0 21.176 17.328 38.344 38.508 38.344s38.297-17.168 38.297-38.344V96.387h-76.805v49.586z" fill="#ec1c2e"/><path d="M155.476 145.973c0 21.176 17.328 38.344 38.508 38.344s38.297-17.168 38.297-38.344V96.387h-76.805v49.586z" fill="none" stroke="#000" stroke-width=".39"/><path d="M155.476 145.973c0 21.176 17.328 38.344 38.508 38.344s38.297-17.168 38.297-38.344V96.387h-76.805v49.586z" fill="red"/><path d="M173.257 143.762c0 12.492 9.312 22.625 20.676 22.625 11.367 0 20.559-10.133 20.559-22.625v-29.254h-41.234v29.254h-.001z" fill="#fff"/><path d="M173.257 143.762c0 12.492 9.312 22.625 20.676 22.625 11.367 0 20.559-10.133 20.559-22.625v-29.254h-41.234v29.254h-.001z" fill="none" stroke="#000" stroke-width=".065"/><path fill="#ff0" d="M167.675 104.93v-5.446h2.246v5.446h-2.246z"/><path fill="none" stroke="#000" stroke-width=".033" d="M167.675 104.93v-5.446h2.246v5.446h-2.246z"/><path fill="#ff0" d="M163.179 104.93v-5.446h2.246v5.446h-2.246z"/><path fill="none" stroke="#000" stroke-width=".033" d="M163.179 104.93v-5.446h2.246v5.446h-2.246z"/><path fill="#ff0" d="M158.69 104.93v-5.446h2.246v5.446h-2.246z"/><path fill="none" stroke="#000" stroke-width=".033" d="M158.69 104.93v-5.446h2.246v5.446h-2.246z"/><path fill="#ff0" d="M165.96 100.156v-1.261h-3.317v1.261h3.317z"/><path fill="none" stroke="#000" stroke-width=".033" d="M165.96 100.156v-1.261h-3.317v1.261h3.317z"/><path fill="#ff0" d="M169.921 111.219v-9.25H158.69v9.25h11.231z"/><path fill="none" stroke="#000" stroke-width=".033" d="M169.921 111.219v-9.25H158.69v9.25h11.231z"/><path fill="#ff0" d="M170.48 105.231v-1.235h-12.352v1.235h12.352z"/><path fill="none" stroke="#000" stroke-width=".033" d="M170.48 105.231v-1.235h-12.352v1.235h12.352z"/><path fill="#ff0" d="M170.48 112.461v-1.242h-12.352v1.242h12.352z"/><path fill="none" stroke="#000" stroke-width=".033" d="M170.48 112.461v-1.242h-12.352v1.242h12.352z"/><path d="M161.425 111.219v-2.184c0-1.535 1.293-2.773 2.879-2.773 1.59 0 2.879 1.238 2.879 2.773v2.184h-5.758z" fill="#ff0"/><path d="M161.425 111.219v-2.184c0-1.535 1.293-2.773 2.879-2.773 1.59 0 2.879 1.238 2.879 2.773v2.184h-5.758z" fill="none" stroke="#000" stroke-width=".033"/><path d="M162.577 111.219v-1.684c0-1.18.773-2.141 1.727-2.141.953 0 1.727.961 1.727 2.141v1.684h-3.454z" fill="#ff0"/><path d="M162.577 111.219v-1.684c0-1.18.773-2.141 1.727-2.141.953 0 1.727.961 1.727 2.141v1.684h-3.454z" fill="none" stroke="#000" stroke-width=".033"/><path fill="#ff0" d="M170.417 100.156v-1.261h-3.309v1.261h3.309z"/><path fill="none" stroke="#000" stroke-width=".033" d="M170.417 100.156v-1.261h-3.309v1.261h3.309z"/><path fill="#ff0" d="M158.19 100.156v-1.261h3.313v1.261h-3.313z"/><path fill="none" stroke="#000" stroke-width=".033" d="M158.19 100.156v-1.261h3.313v1.261h-3.313z"/><path fill="#ff0" d="M226.651 104.844v-5.453h2.25v5.453h-2.25z"/><path fill="none" stroke="#000" stroke-width=".033" d="M226.651 104.844v-5.453h2.25v5.453h-2.25z"/><path fill="#ff0" d="M222.159 104.844v-5.453h2.246v5.453h-2.246z"/><path fill="none" stroke="#000" stroke-width=".033" d="M222.159 104.844v-5.453h2.246v5.453h-2.246z"/><path fill="#ff0" d="M217.671 104.844v-5.453h2.246v5.453h-2.246z"/><path fill="none" stroke="#000" stroke-width=".033" d="M217.671 104.844v-5.453h2.246v5.453h-2.246z"/><path fill="#ff0" d="M224.94 100.063v-1.262h-3.316v1.262h3.316z"/><path fill="none" stroke="#000" stroke-width=".033" d="M224.94 100.063v-1.262h-3.316v1.262h3.316z"/><path fill="#ff0" d="M228.901 111.121v-9.242h-11.23v9.242h11.23z"/><path fill="none" stroke="#000" stroke-width=".033" d="M228.901 111.121v-9.242h-11.23v9.242h11.23z"/><path fill="#ff0" d="M229.46 105.137v-1.235h-12.352v1.235h12.352z"/><path fill="none" stroke="#000" stroke-width=".033" d="M229.46 105.137v-1.235h-12.352v1.235h12.352z"/><path fill="#ff0" d="M229.46 112.363v-1.234h-12.352v1.234h12.352z"/><path fill="none" stroke="#000" stroke-width=".033" d="M229.46 112.363v-1.234h-12.352v1.234h12.352z"/><path d="M220.405 111.121v-2.176c0-1.539 1.285-2.781 2.879-2.781 1.59 0 2.879 1.242 2.879 2.781v2.176h-5.758z" fill="#ff0"/><path d="M220.405 111.121v-2.176c0-1.539 1.285-2.781 2.879-2.781 1.59 0 2.879 1.242 2.879 2.781v2.176h-5.758z" fill="none" stroke="#000" stroke-width=".033"/><path d="M221.558 111.121v-1.672c0-1.188.773-2.145 1.727-2.145.953 0 1.727.957 1.727 2.145v1.672h-3.454z" fill="#ff0"/><path d="M221.558 111.121v-1.672c0-1.188.773-2.145 1.727-2.145.953 0 1.727.957 1.727 2.145v1.672h-3.454z" fill="none" stroke="#000" stroke-width=".033"/><path fill="#ff0" d="M229.397 100.063v-1.262h-3.312v1.262h3.312z"/><path fill="none" stroke="#000" stroke-width=".033" d="M229.397 100.063v-1.262h-3.312v1.262h3.312z"/><path fill="#ff0" d="M217.167 100.063v-1.262h3.316v1.262h-3.316z"/><path fill="none" stroke="#000" stroke-width=".033" d="M217.167 100.063v-1.262h3.316v1.262h-3.316z"/><path fill="#ff0" d="M197.272 104.945V99.5h2.243v5.445h-2.243z"/><path fill="none" stroke="#000" stroke-width=".033" d="M197.272 104.945V99.5h2.243v5.445h-2.243z"/><path fill="#ff0" d="M192.78 104.945V99.5h2.242v5.445h-2.242z"/><path fill="none" stroke="#000" stroke-width=".033" d="M192.78 104.945V99.5h2.242v5.445h-2.242z"/><path fill="#ff0" d="M188.284 104.945V99.5h2.246v5.445h-2.246z"/><path fill="none" stroke="#000" stroke-width=".033" d="M188.284 104.945V99.5h2.246v5.445h-2.246z"/><path fill="#ff0" d="M195.561 100.172V98.91h-3.316v1.262h3.316z"/><path fill="none" stroke="#000" stroke-width=".033" d="M195.561 100.172V98.91h-3.316v1.262h3.316z"/><path fill="#ff0" d="M199.515 111.231v-9.25h-11.231v9.25h11.231z"/><path fill="none" stroke="#000" stroke-width=".033" d="M199.515 111.231v-9.25h-11.231v9.25h11.231z"/><path fill="#ff0" d="M200.077 105.238v-1.23h-12.351v1.23h12.351z"/><path fill="none" stroke="#000" stroke-width=".033" d="M200.077 105.238v-1.23h-12.351v1.23h12.351z"/><path fill="#ff0" d="M200.077 112.465v-1.234h-12.351v1.234h12.351z"/><path fill="none" stroke="#000" stroke-width=".033" d="M200.077 112.465v-1.234h-12.351v1.234h12.351z"/><path d="M191.022 111.231v-2.184c0-1.531 1.289-2.781 2.879-2.781 1.586 0 2.883 1.25 2.883 2.781v2.184h-5.762z" fill="#ff0"/><path d="M191.022 111.231v-2.184c0-1.531 1.289-2.781 2.879-2.781 1.586 0 2.883 1.25 2.883 2.781v2.184h-5.762z" fill="none" stroke="#000" stroke-width=".033"/><path d="M192.175 111.231v-1.688c0-1.18.773-2.137 1.727-2.137.957 0 1.73.957 1.73 2.137v1.688h-3.457z" fill="#ff0"/><path d="M192.175 111.231v-1.688c0-1.18.773-2.137 1.727-2.137.957 0 1.73.957 1.73 2.137v1.688h-3.457z" fill="none" stroke="#000" stroke-width=".033"/><path fill="#ff0" d="M200.018 100.172V98.91h-3.316v1.262h3.316z"/><path fill="none" stroke="#000" stroke-width=".033" d="M200.018 100.172V98.91h-3.316v1.262h3.316z"/><path fill="#ff0" d="M187.788 100.172V98.91h3.32v1.262h-3.32z"/><path fill="none" stroke="#000" stroke-width=".033" d="M187.788 100.172V98.91h3.32v1.262h-3.32z"/><path fill="#ff0" d="M167.675 139.727v-5.446h2.246v5.446h-2.246z"/><path fill="none" stroke="#000" stroke-width=".033" d="M167.675 139.727v-5.446h2.246v5.446h-2.246z"/><path fill="#ff0" d="M163.179 139.727v-5.446h2.246v5.446h-2.246z"/><path fill="none" stroke="#000" stroke-width=".033" d="M163.179 139.727v-5.446h2.246v5.446h-2.246z"/><path fill="#ff0" d="M158.69 139.727v-5.446h2.246v5.446h-2.246z"/><path fill="none" stroke="#000" stroke-width=".033" d="M158.69 139.727v-5.446h2.246v5.446h-2.246z"/><path fill="#ff0" d="M165.96 134.953v-1.265h-3.317v1.265h3.317z"/><path fill="none" stroke="#000" stroke-width=".033" d="M165.96 134.953v-1.265h-3.317v1.265h3.317z"/><path fill="#ff0" d="M169.921 146.008v-9.242H158.69v9.242h11.231z"/><path fill="none" stroke="#000" stroke-width=".033" d="M169.921 146.008v-9.242H158.69v9.242h11.231z"/><path fill="#ff0" d="M170.48 140.02v-1.235h-12.352v1.235h12.352z"/><path fill="none" stroke="#000" stroke-width=".033" d="M170.48 140.02v-1.235h-12.352v1.235h12.352z"/><path fill="#ff0" d="M170.48 147.25v-1.227h-12.352v1.227h12.352z"/><path fill="none" stroke="#000" stroke-width=".033" d="M170.48 147.25v-1.227h-12.352v1.227h12.352z"/><path d="M161.425 146.008v-2.176c0-1.535 1.293-2.781 2.879-2.781 1.59 0 2.879 1.246 2.879 2.781v2.176h-5.758z" fill="#ff0"/><path d="M161.425 146.008v-2.176c0-1.535 1.293-2.781 2.879-2.781 1.59 0 2.879 1.246 2.879 2.781v2.176h-5.758z" fill="none" stroke="#000" stroke-width=".033"/><path d="M162.577 146.008v-1.684c0-1.18.773-2.141 1.727-2.141.953 0 1.727.961 1.727 2.141v1.684h-3.454z" fill="#ff0"/><path d="M162.577 146.008v-1.684c0-1.18.773-2.141 1.727-2.141.953 0 1.727.961 1.727 2.141v1.684h-3.454z" fill="none" stroke="#000" stroke-width=".033"/><path fill="#ff0" d="M170.417 134.953v-1.265h-3.309v1.265h3.309z"/><path fill="none" stroke="#000" stroke-width=".033" d="M170.417 134.953v-1.265h-3.309v1.265h3.309z"/><path fill="#ff0" d="M158.19 134.953v-1.265h3.313v1.265h-3.313z"/><path fill="none" stroke="#000" stroke-width=".033" d="M158.19 134.953v-1.265h3.313v1.265h-3.313z"/><path fill="#ff0" d="M220.128 139.727v-5.446h-2.242v5.446h2.242z"/><path fill="none" stroke="#000" stroke-width=".033" d="M220.128 139.727v-5.446h-2.242v5.446h2.242z"/><path fill="#ff0" d="M224.62 139.727v-5.446h-2.242v5.446h2.242z"/><path fill="none" stroke="#000" stroke-width=".033" d="M224.62 139.727v-5.446h-2.242v5.446h2.242z"/><path fill="#ff0" d="M229.112 139.727v-5.446h-2.242v5.446h2.242z"/><path fill="none" stroke="#000" stroke-width=".033" d="M229.112 139.727v-5.446h-2.242v5.446h2.242z"/><path fill="#ff0" d="M221.843 134.953v-1.265h3.316v1.265h-3.316z"/><path fill="none" stroke="#000" stroke-width=".033" d="M221.843 134.953v-1.265h3.316v1.265h-3.316z"/><path fill="#ff0" d="M217.886 146.008v-9.242h11.226v9.242h-11.226z"/><path fill="none" stroke="#000" stroke-width=".033" d="M217.886 146.008v-9.242h11.226v9.242h-11.226z"/><path fill="#ff0" d="M217.323 140.02v-1.235h12.36v1.235h-12.36z"/><path fill="none" stroke="#000" stroke-width=".033" d="M217.323 140.02v-1.235h12.36v1.235h-12.36z"/><path fill="#ff0" d="M217.323 147.25v-1.227h12.36v1.227h-12.36z"/><path fill="none" stroke="#000" stroke-width=".033" d="M217.323 147.25v-1.227h12.36v1.227h-12.36z"/><path d="M226.378 146.008v-2.176c0-1.535-1.289-2.781-2.875-2.781-1.59 0-2.883 1.246-2.883 2.781v2.176h5.758z" fill="#ff0"/><path d="M226.378 146.008v-2.176c0-1.535-1.289-2.781-2.875-2.781-1.59 0-2.883 1.246-2.883 2.781v2.176h5.758z" fill="none" stroke="#000" stroke-width=".033"/><path d="M225.226 146.008v-1.684c0-1.18-.773-2.141-1.723-2.141-.957 0-1.73.961-1.73 2.141v1.684h3.453z" fill="#ff0"/><path d="M225.226 146.008v-1.684c0-1.18-.773-2.141-1.723-2.141-.957 0-1.73.961-1.73 2.141v1.684h3.453z" fill="none" stroke="#000" stroke-width=".033"/><path fill="#ff0" d="M217.386 134.953v-1.265h3.316v1.265h-3.316z"/><path fill="none" stroke="#000" stroke-width=".033" d="M217.386 134.953v-1.265h3.316v1.265h-3.316z"/><path fill="#ff0" d="M229.612 134.953v-1.265h-3.316v1.265h3.316z"/><path fill="none" stroke="#000" stroke-width=".033" d="M229.612 134.953v-1.265h-3.316v1.265h3.316z"/><path fill="#ff0" d="M179.456 167.086l-4.543-3.012 1.242-1.871 4.543 3.012-1.242 1.871z"/><path fill="none" stroke="#000" stroke-width=".033" d="M179.456 167.086l-4.543-3.012 1.242-1.871 4.543 3.012-1.242 1.871z"/><path fill="#ff0" d="M176.976 170.828l-4.54-3.012 1.243-1.871 4.535 3.012-1.238 1.871z"/><path fill="none" stroke="#000" stroke-width=".033" d="M176.976 170.828l-4.54-3.012 1.243-1.871 4.535 3.012-1.238 1.871z"/><path fill="#ff0" d="M174.499 174.574l-4.543-3.012 1.238-1.871 4.539 3.008-1.234 1.875z"/><path fill="none" stroke="#000" stroke-width=".033" d="M174.499 174.574l-4.543-3.012 1.238-1.871 4.539 3.008-1.234 1.875z"/><path fill="#ff0" d="M174.53 165.871l-1.05-.699-1.837 2.769 1.059.696 1.828-2.766z"/><path fill="none" stroke="#000" stroke-width=".033" d="M174.53 165.871l-1.05-.699-1.837 2.769 1.059.696 1.828-2.766z"/><path fill="#ff0" d="M185.933 168.688l-7.703-5.114-6.208 9.364 7.704 5.105 6.207-9.355z"/><path fill="none" stroke="#000" stroke-width=".033" d="M185.933 168.688l-7.703-5.114-6.208 9.364 7.704 5.105 6.207-9.355z"/><path fill="#ff0" d="M181.253 164.902l-1.023-.679-6.829 10.297 1.032.683 6.82-10.301z"/><path fill="none" stroke="#000" stroke-width=".033" d="M181.253 164.902l-1.023-.679-6.829 10.297 1.032.683 6.82-10.301z"/><path fill="#ff0" d="M187.28 168.895l-1.027-.676-6.828 10.293 1.031.687 6.824-10.304z"/><path fill="none" stroke="#000" stroke-width=".033" d="M187.28 168.895l-1.027-.676-6.828 10.293 1.031.687 6.824-10.304z"/><path d="M181.241 175.766s-1.055-.699-1.816-1.207c-1.277-.848-1.602-2.609-.727-3.934.879-1.328 2.629-1.715 3.91-.867a225.51 225.51 0 0 0 1.812 1.207l-3.179 4.801z" fill="#ff0"/><path d="M181.241 175.766s-1.055-.699-1.816-1.207c-1.277-.848-1.602-2.609-.727-3.934.879-1.328 2.629-1.715 3.91-.867a225.51 225.51 0 0 0 1.812 1.207l-3.179 4.801z" fill="none" stroke="#000" stroke-width=".033"/><path d="M181.878 174.805s-.809-.539-1.402-.93c-.98-.652-1.359-1.824-.828-2.625.527-.793 1.754-.91 2.742-.258.625.422 1.395.93 1.395.93l-1.907 2.883z" fill="#ff0"/><path d="M181.878 174.805s-.809-.539-1.402-.93c-.98-.652-1.359-1.824-.828-2.625.527-.793 1.754-.91 2.742-.258.625.422 1.395.93 1.395.93l-1.907 2.883z" fill="none" stroke="#000" stroke-width=".033"/><path fill="#ff0" d="M176.995 162.156l-1.055-.699-1.828 2.766 1.051.699 1.832-2.766z"/><path fill="none" stroke="#000" stroke-width=".033" d="M176.995 162.156l-1.055-.699-1.828 2.766 1.051.699 1.832-2.766z"/><path fill="#ff0" d="M170.237 172.355l-1.054-.699 1.832-2.765 1.054.699-1.832 2.765z"/><path fill="none" stroke="#000" stroke-width=".033" d="M170.237 172.355l-1.054-.699 1.832-2.765 1.054.699-1.832 2.765z"/><path fill="#ff0" d="M208.249 167.086l4.539-3.012-1.242-1.871-4.535 3.012 1.238 1.871z"/><path fill="none" stroke="#000" stroke-width=".033" d="M208.249 167.086l4.539-3.012-1.242-1.871-4.535 3.012 1.238 1.871z"/><path fill="#ff0" d="M210.726 170.828l4.542-3.012-1.238-1.871-4.547 3.012 1.243 1.871z"/><path fill="none" stroke="#000" stroke-width=".033" d="M210.726 170.828l4.542-3.012-1.238-1.871-4.547 3.012 1.243 1.871z"/><path fill="#ff0" d="M213.21 174.574l4.543-3.012-1.246-1.871-4.539 3.008 1.242 1.875z"/><path fill="none" stroke="#000" stroke-width=".033" d="M213.21 174.574l4.543-3.012-1.246-1.871-4.539 3.008 1.242 1.875z"/><path fill="#ff0" d="M213.175 165.871l1.051-.699 1.832 2.769-1.051.696-1.832-2.766z"/><path fill="none" stroke="#000" stroke-width=".033" d="M213.175 165.871l1.051-.699 1.832 2.769-1.051.696-1.832-2.766z"/><path fill="#ff0" d="M201.768 168.688l7.712-5.114 6.199 9.364-7.707 5.105-6.204-9.355z"/><path fill="none" stroke="#000" stroke-width=".033" d="M201.768 168.688l7.712-5.114 6.199 9.364-7.707 5.105-6.204-9.355z"/><path fill="#ff0" d="M206.448 164.902l1.032-.679 6.82 10.297-1.024.683-6.828-10.301z"/><path fill="none" stroke="#000" stroke-width=".033" d="M206.448 164.902l1.032-.679 6.82 10.297-1.024.683-6.828-10.301z"/><path fill="#ff0" d="M200.429 168.895l1.023-.676 6.824 10.293-1.027.687-6.82-10.304z"/><path fill="none" stroke="#000" stroke-width=".033" d="M200.429 168.895l1.023-.676 6.824 10.293-1.027.687-6.82-10.304z"/><path d="M206.46 175.766l1.82-1.207c1.277-.848 1.602-2.609.73-3.934-.883-1.328-2.633-1.715-3.914-.867-.82.551-1.809 1.207-1.809 1.207l3.173 4.801z" fill="#ff0"/><path d="M206.46 175.766l1.82-1.207c1.277-.848 1.602-2.609.73-3.934-.883-1.328-2.633-1.715-3.914-.867-.82.551-1.809 1.207-1.809 1.207l3.173 4.801z" fill="none" stroke="#000" stroke-width=".033"/><path d="M205.827 174.805l1.398-.93c.984-.652 1.359-1.824.836-2.625-.531-.793-1.758-.91-2.742-.258-.629.422-1.402.93-1.402.93l1.91 2.883z" fill="#ff0"/><path d="M205.827 174.805l1.398-.93c.984-.652 1.359-1.824.836-2.625-.531-.793-1.758-.91-2.742-.258-.629.422-1.402.93-1.402.93l1.91 2.883z" fill="none" stroke="#000" stroke-width=".033"/><path fill="#ff0" d="M210.714 162.156l1.051-.699 1.832 2.766-1.055.699-1.828-2.766z"/><path fill="none" stroke="#000" stroke-width=".033" d="M210.714 162.156l1.051-.699 1.832 2.766-1.055.699-1.828-2.766z"/><path fill="#ff0" d="M217.468 172.355l1.05-.699-1.832-2.765-1.05.699 1.832 2.765z"/><path fill="none" stroke="#000" stroke-width=".033" d="M217.468 172.355l1.05-.699-1.832-2.765-1.05.699 1.832 2.765z"/><path d="M188.89 125.059c0 2.93 2.246 5.297 4.992 5.297s4.965-2.367 4.965-5.297v-6.863h-9.957v6.863z" fill="#007ac1"/><path d="M188.89 125.059c0 2.93 2.246 5.297 4.992 5.297s4.965-2.367 4.965-5.297v-6.863h-9.957v6.863z" fill="none" stroke="#000" stroke-width=".033"/><path d="M188.89 140.977c0 2.93 2.246 5.301 4.992 5.301s4.965-2.371 4.965-5.301v-6.855h-9.957v6.855z" fill="#007ac1"/><path d="M188.89 140.977c0 2.93 2.246 5.301 4.992 5.301s4.965-2.371 4.965-5.301v-6.855h-9.957v6.855z" fill="none" stroke="#000" stroke-width=".033"/><path d="M188.89 156.895c0 2.93 2.246 5.301 4.992 5.301s4.965-2.371 4.965-5.301v-6.859h-9.957v6.859z" fill="#007ac1"/><path d="M188.89 156.895c0 2.93 2.246 5.301 4.992 5.301s4.965-2.371 4.965-5.301v-6.859h-9.957v6.859z" fill="none" stroke="#000" stroke-width=".033"/><path d="M176.018 140.977c0 2.93 2.242 5.301 4.992 5.301 2.742 0 4.961-2.371 4.961-5.301v-6.855h-9.953v6.855z" fill="#007ac1"/><path d="M176.018 140.977c0 2.93 2.242 5.301 4.992 5.301 2.742 0 4.961-2.371 4.961-5.301v-6.855h-9.953v6.855z" fill="none" stroke="#000" stroke-width=".033"/><path d="M211.718 140.977c0 2.93-2.246 5.301-4.996 5.301-2.742 0-4.957-2.371-4.957-5.301v-6.855h9.953v6.855z" fill="#007ac1"/><path d="M211.718 140.977c0 2.93-2.246 5.301-4.996 5.301-2.742 0-4.957-2.371-4.957-5.301v-6.855h9.953v6.855z" fill="none" stroke="#000" stroke-width=".033"/><path d="M193.866 124.332a.925.925 0 1 0 0-1.852.932.932 0 0 0-.93.93c0 .512.422.922.93.922zM191.499 121.254a.925.925 0 1 0 0-1.852.927.927 0 0 0 0 1.852zM196.23 121.254a.922.922 0 0 1-.926-.922.926.926 0 1 1 .926.922zM191.499 125.563a.927.927 0 1 1 0 1.856.928.928 0 0 1 0-1.856zM196.23 125.563a.924.924 0 0 0-.926.93.925.925 0 1 0 1.852 0 .927.927 0 0 0-.926-.93zM193.866 140.258a.93.93 0 1 0 .001-1.859.93.93 0 0 0-.001 1.859zM191.499 137.172a.927.927 0 1 0-.926-.922c0 .516.418.922.926.922zM196.23 137.172a.917.917 0 0 1-.926-.922.926.926 0 1 1 .926.922zM191.499 141.484a.927.927 0 1 1 .006 1.854.927.927 0 0 1-.006-1.854zM196.23 141.484a.924.924 0 0 0-.926.93c0 .508.41.922.926.922a.924.924 0 0 0 .926-.922.927.927 0 0 0-.926-.93zM193.866 156.172c.512 0 .93-.41.93-.922a.933.933 0 0 0-.93-.934.936.936 0 0 0-.93.934c0 .512.422.922.93.922zM191.499 153.102c.516 0 .93-.422.93-.938a.929.929 0 0 0-1.856 0c0 .516.418.938.926.938zM196.23 153.102a.93.93 0 0 1-.926-.938.925.925 0 1 1 1.852 0 .934.934 0 0 1-.926.938zM191.499 157.402c.516 0 .93.414.93.93a.924.924 0 0 1-.93.926.929.929 0 0 1 0-1.856zM196.23 157.402a.924.924 0 0 0-.926.93c0 .516.41.926.926.926.512 0 .926-.41.926-.926a.927.927 0 0 0-.926-.93zM180.995 140.258c.516 0 .93-.414.93-.93 0-.508-.414-.93-.93-.93s-.93.422-.93.93c0 .516.415.93.93.93zM178.628 137.172a.927.927 0 1 0-.926-.922c0 .516.418.922.926.922zM183.358 137.172a.926.926 0 0 1-.934-.922c0-.516.422-.93.934-.93s.926.414.926.93a.92.92 0 0 1-.926.922zM178.628 141.484a.927.927 0 1 1 .006 1.854.927.927 0 0 1-.006-1.854zM183.358 141.484a.933.933 0 0 0-.934.93c0 .508.422.922.934.922s.926-.414.926-.922a.926.926 0 0 0-.926-.93zM206.733 140.258a.931.931 0 0 1 0-1.86c.516 0 .934.422.934.93a.93.93 0 0 1-.934.93zM209.101 137.172a.923.923 0 0 1-.93-.922.93.93 0 0 1 .93-.93.926.926 0 0 1 0 1.852zM204.37 137.172a.927.927 0 1 0-.926-.922c0 .516.418.922.926.922zM209.101 141.484a.93.93 0 0 0-.93.93.928.928 0 0 0 1.856 0 .927.927 0 0 0-.926-.93zM204.37 141.484a.927.927 0 1 1 .006 1.854.927.927 0 0 1-.006-1.854z" fill="#fff"/></g></svg>