<svg xmlns="http://www.w3.org/2000/svg" viewBox="0 0 499.839 277.402"><path fill="#fff" d="M499.839 66.973h-500V50.137h500v16.836zM499.839 226.91h-500v-16.844h500v16.844z"/><path fill="#ed1c27" d="M499.839 210.066h-500V66.973h500v143.093z"/><path fill="#024fa2" d="M499.839 50.137h-500V-.375h500v50.512zM499.839 277.402h-500V226.91h500v50.492z"/><path d="M140.491 191.75c29.398 0 53.234-23.832 53.234-53.23 0-29.399-23.836-53.23-53.234-53.23s-53.23 23.832-53.23 53.23c0 29.398 23.832 53.23 53.23 53.23z" fill="#fff"/><path fill="#ec174c" d="M140.491 92.809l-10.187 31.66H96.796l27.215 19.703-10.457 31.633 26.937-19.657 26.942 19.657-10.317-31.899 27.078-19.3h-33.383l-10.32-31.797z"/></svg>