<svg xmlns="http://www.w3.org/2000/svg" viewBox="0 0 500 277.8"><defs><style>.cls-3{fill:#fff}</style></defs><g id="Layer_2" data-name="Layer 2"><g id="RKS"><path fill="#244aa5" d="M0 0h500v277.78H0z"/><path d="M209.3 131.8l1-.6 1.2-.4a2.9 2.9 0 0 1 .9-.3 2 2 0 0 1 1.2.7 5 5 0 0 0 1.2.8s.7.2.9 0a.9.9 0 0 1 .8-.4c.3 0 .4-.3.4-.6a1.4 1.4 0 0 1 .4-.8 2.1 2.1 0 0 1 .8-.5s.7-.3.8-.7.8-.7 1.2-.8 0-.2 1.1-.1 1.2-.2 1.2-.6 0-.6.7-.6 1 .1 1-.3.6-.6-.5-.8-1-.1-1.1-.6 0-.4-.7-.5-.3-.4-.4-.8a2.7 2.7 0 0 0-.4-.8c-.1-.2-.5-.2-.5-.6s-.1-.6-.5-.6-.5 0-.5-.4.1-.7.5-.7a.5.5 0 0 0 .5-.7 8.6 8.6 0 0 1-.1-1.2l.5-.6a19.7 19.7 0 0 0 1.7-1.5.5.5 0 0 1 .9.1 3.2 3.2 0 0 0 .6.8c.2.2.8.1.9-.2a7.8 7.8 0 0 1 .5-1.6 3.1 3.1 0 0 0 .7-1.1c.1-.4.3-.7.7-.7s.7-.6.7-.9a.7.7 0 0 1 .7-.7c.5-.1.8-.4.9.1s.4.5.7.6.9.4 1.1.2.4-.6.8-.4.6 0 .7-.5l.2-1.1s.1-.3.7-.3.2-.4.5-.6.4-.5.8-.3 1.1-.2.8-.6-1.1-1-.7-1.5.6-1.3.2-1.3-1 .1-1.1-.4-.3-.8.3-.9 1.4-.1 1.6-.3 1.1-.4 1.1-1.1.3-.8.4-1.2a2.1 2.1 0 0 0-.3-1.6 7.2 7.2 0 0 1-.9-1.2 1.5 1.5 0 0 0-.9-.8c-.5-.2-.9-.2-.9-.6s.4.1.4-1-.7-1.2-.7-1.2l-1-.6a18.2 18.2 0 0 0-2.3-.5c-.5 0-1.1-.5-.5-.8a1 1 0 0 0 .5-1.4 1.4 1.4 0 0 0-1.1-1c-.8-.2-1-.4-.6-.8s.4-.8.8-.5a1.7 1.7 0 0 0 1.7.2c.6-.3.8-.5 1.1-.2s.6.5 1.1.1a1.6 1.6 0 0 1 1.5-.3 2.3 2.3 0 0 0 1.5 0c.3-.1.8-.6.8-.8a1.4 1.4 0 0 1 .7-.9c.4-.2.8-.8 1.1-.8s.5-.4.5-.6a4.1 4.1 0 0 1 .4-1 .9.9 0 0 1 1.3-.1 3 3 0 0 0 1.1.5 2.7 2.7 0 0 0 1.1 0 1.4 1.4 0 0 1 1.3.1 2.5 2.5 0 0 0 1.2.3 4.3 4.3 0 0 0 .1-.8c0-.3.1-.7-.1-.9s-.6-.5-.1-.8a1.3 1.3 0 0 1 1.1-.3h1.3c.4 0 1.1.4 1.1.8a1 1 0 0 0 .6.8c.4.2.8.4.6.7s-.1.6.3.5.6.2.6.5.1.5.6.6.6.4.6.7a1.7 1.7 0 0 0 .1.8 5.1 5.1 0 0 0 .6.8s.8.9-.2.5-1.2-.6-1.5-.6l-.6.3h-.8c-.4 0-.7.7-.1.8s.8.3.8.7-.2.3-.5.6-.5.1-1 .1-.6.4-.6.8.2.3.4.6a.5.5 0 0 0 .9.1c.4-.3.6-.5.8.1s.5.6.9.6a1.5 1.5 0 0 0 .9-.2c.4-.2.8 0 .8.5s.4.6.8.8.6.3.6.6.3.5.6.3.9-.3 1.1-.1l.6.8v.6l1.3.5a1.8 1.8 0 0 1 .1.6c0 .3.2.4.6.3h1s.5-.2.5-.6.2-.5.6-.5 1.1.3 1.3-.1a1.1 1.1 0 0 1 1.3-.3l1.8.7s-.1.1.3.7a1.5 1.5 0 0 0 1.2.6 3.2 3.2 0 0 0 .2.8.9.9 0 0 0 1.1.1 2.5 2.5 0 0 1 1.3-.6c.4 0 .7 0 .7-.3s-.4-.5-.4-.8.4-.4.5-.8.5 0 .8.2.6.5.6.8a2.4 2.4 0 0 0 .9 1.3c.4.1 1.3.2 1.5-.1s1-.5.9.3-.2.8.3 1.1a.9.9 0 0 1 .1 1.4c-.4.3-.6.3-.6.8s-.1 1 .2 1.2.6.5.6.7a9.9 9.9 0 0 0 .4 1.4 7.1 7.1 0 0 1 .1 1.4c-.1.3-.2.7.4.6s.8-.1.8.5.2.7-.1.9-.6.8-.2 1a1 1 0 0 1 .7.6c.1.3.6.7 1 .5s.4-.4.7-.5.5-.3.2-.6-.4-.6-.1-.8.4-.8.4-.8a.5.5 0 0 1 .9 0c.5.6.6.4.9.4s.5.3.5.6.7.3.7.8.1 1.7.1 1.7 0 .7.4 1 .4.3.1.6a2.1 2.1 0 0 0-.1 1.1c0 .3.1.4-.2.6a.7.7 0 0 0-.3 1c.2.4.1.6.7 1.1s.5.6.5 1 .6.8.6 1.1.4.7.8.8a1.3 1.3 0 0 1 .8 1c0 .3.1 1.2.1 1.2s-.1.2.4.2.7.5.8-.1.6-.6.8-.7.8-.4 1.1-.2a1.6 1.6 0 0 0 .9.2h1.6s.4-.1.6.5.8 1.1.5 1.4-.4.8.1.8.8 0 .8.3.1.6.4.4.6-.3.7 0 .4.3.8.5.5.1.7-.2a3.2 3.2 0 0 1 1.1-.5 4.7 4.7 0 0 1 1.5-.1l1 .4a1.8 1.8 0 0 1 .1 1c-.1.4-.3.3-.1.9s-.1.6-.4.6-.6-.1-.6.5-.3.6-.3 1.1 0 .4-.3.6-.4.5.1.6.3.5.3.8-.1.8-.1.8.1.3-.4.3-.9-.1-1 .3-.6.8-.1 1.2.4.5.1.6a.5.5 0 0 0 .1 1c.6.2.5.4.1.6s-1.1.5-1.1.8-.1.4-.6.5-.6.6-.1 1.2.6.5 1 .5.4-.5.4-.5h1.5a2.2 2.2 0 0 0 1.1-.2c.3-.2 1.1-.5 1.1.1s.1.5.5.8.4.1.7.5.4.1.6-.4.6-.9 1-.4.4.4.8.4.6.2.6.5.4.3.9.3.6.3.8.6.3.3.6.3a.9.9 0 0 0 .8-.3c.2-.3.5-.6.8-.2a.5.5 0 0 0 1-.1c.1-.5.8-.8 1.1-.3a1.2 1.2 0 0 0 1 .6c.4.1.8.1 1.1.4s.9.8.4 1.2-1.1.9-.6 1a1.9 1.9 0 0 1 1 .6 3.4 3.4 0 0 0 1.6.5 1.4 1.4 0 0 0 1.3-.3c.5-.4 1-.4.9.1a2.3 2.3 0 0 0 .2 1.1 5.1 5.1 0 0 1 .4 1.2c0 .3-.1.4.6.8s.6.6 1.1.3.6-.6.6-.9v-1a3.5 3.5 0 0 0 1-.3c.3-.2 1.4-.8 1.7-.5a.8.8 0 0 0 .9.1h1.1a1.8 1.8 0 0 0 1.3-.4c.6-.5.6-.3.9 0a.7.7 0 0 1 .1 1 .6.6 0 0 0 .5.8c.5 0 .6.3.6.6a4.7 4.7 0 0 0 .1 1c.1.3.1.4.8.6s.6.6.8 1 .1.6-.3.6a.6.6 0 0 0-.6.5c-.1.3-.7.5-.7.5h-.6a.9.9 0 0 0-.6.3c-.2.3-.6.8-.4 1.2s.3.7 0 .9-.4 1.2-.7 1-.6.1-.9.2-.2 1 .4 1.4a1.5 1.5 0 0 1 .7.8l.6 1a1.7 1.7 0 0 0-.4.5c-.1.3-.6 1-.1 1.1s.2.8-.2.8-.9-.2-1 .3-.3.4-.7.3-1.5-.3-1.8.2-.4.7-.8.6-.3.8-.1 1.1a3.3 3.3 0 0 0 .6.8 1.3 1.3 0 0 1 .4 1c0 .6-.3.6-.6.1s-.8-.4-.9.1-.1 1.3-.6 1.3a1 1 0 0 0-.9.4 2.3 2.3 0 0 0-.6 1 .5.5 0 0 1-.4.6c-.4.1-.4.8-.4.8s-.8.1-.9.5.1.8-.6.9a1.8 1.8 0 0 0-1.3.8.6.6 0 0 0 0 .9c.3.3.5 1.4.8 1.6s.6.3.6.8-.5.9.1.9.9.1.7.6-.2.5-.6.7-.6.2-.6.7.1.5-.2.7-.4.5-.4.8-.1.3-.6.7a1.2 1.2 0 0 1-1.3.3c-.4-.1-.4-.1-.5-.5s-.7-.4-1.1-.3a2.6 2.6 0 0 0-.8.5s-.6.4-.4.7.1.8-.4.8-1.6.5-2-.1-1.3-1-1.5-.2.4.7.4 1.5-.2.8-.5 1a1.1 1.1 0 0 0-.4.8c-.1.3-.1 1 .4 1.3a1.7 1.7 0 0 1 .7 1.4c0 .4 0 .8.5.8s.9-.1 1-.5a.6.6 0 0 1 1.1.2c.1.9.1 1.4.4 1.7a9.7 9.7 0 0 0 .9 1.1 7.1 7.1 0 0 1 .8 1.8c-.7.1-.9 1-1.3 1.2s-.5 0-.7.2-.2.4-.4.5-.4-.6-1-.3-.6.9-1.4.6-.7-1.8-.8-2.2a8.1 8.1 0 0 0-.7-1.1c-.5-.7-1.4 0-1.7-.2s-.3-.9-1-.9-.4.9-1 1.1-1.2-1.1-2.1-.4.5.4.3.9-1 .9-1 1.4.7.8.9 1.3-.4 2.3-1.7 1.2-.9-1.7-2-1.6-.4.3-.6.3-.5-.2-.8-.2-.1.4-.1.7l-.7.6c-.3.4-.2.8-.7 1.1s-.7.1-1.1.6-.5 1.2-1 1.6-.5-.7-.8-.1v.2a.4.4 0 0 0 0 .5c.7 1.4-.8 2-1.3 3s.4.8.1 1.1l-.9 1.1a1.7 1.7 0 0 1-.2.6c-.1.1-.5.1-.6.3s.4.4.6.6-.1.4 0 .5.3.6.7 1.2.3-.1.4.2-.2.2-.1.5l.6.8c0 .2-1.1.7-1.3.7s.6-1.4-.5-1.4-.5 1.1-.6 1.2h-.6c-.7 0-1.2.9-1.4 1h-.9l-.9.3-.4-.2-1.2-.4c-.2-.1-.6.2-.7.2s.2-.6-.4-.8a4.7 4.7 0 0 1-.4-1 4.8 4.8 0 0 0 .3-1.9c-.1-.7-1.1-1.2-1.4-1.8s-.4-1.5-.8-1.7a3.7 3.7 0 0 1-1.1-1.3c-.1-.1.1-.4 0-.6s-.5-.3-.6-.7 0-1.1-.3-1.3a17.6 17.6 0 0 0-3-.5.9.9 0 0 1-.7-.2l-.3-.4h-1.2c-.7.5-.9 1.1-1.5 1.6s-1.4.5-2.1 1.1-.7 1.3-1.1 1.7-.5 0-.5.1-.8.7-1.2 1.1-.1.2-.1.3l-.8.2h-.7c-.4.1-.3.5-1.5.7h-.3l-.4.3h-.5l-.8.3c-.6.1-1.7-.3-2.1-.1s-1.1 1-1.4 1.1H257c-.1.1-.4 1.1-.4 1.4l-1.5 1.3-.5.6a.9.9 0 0 1-.6.3l-1-.3a11.8 11.8 0 0 0-2.5 0c-.5.1-.3 1.5-1.5 1.6l-2 .3a1.5 1.5 0 0 0-.9-.2c-.2 0-.7.6-.7.7v.5a9.6 9.6 0 0 0-1.1 1.2l-.2.3c-.2.1-1 .4-1 .6s.6.9.5 1.1-1.1 1.2-1.3 1.8.3 1.1.3 1.3a17.4 17.4 0 0 0-.3 2.5 5.4 5.4 0 0 0 .2 1l.4.4a17.8 17.8 0 0 1 1.1 2.1c.2 1.3-1.8.9-.7 2.2l.5.6 1.7 1.4c0 .2-1.2.4-1.4.6s-1 1.6-1.6 2.1-.6 0-1.1.8 0 1-.2 1.2-.5-.1-.8 0-.2.4-.3.5a13.9 13.9 0 0 1-3.4 1.6c-.1-.1-.3-.5-.3-.7a1.5 1.5 0 0 0-.4-.6 1.8 1.8 0 0 0-2.5 0c-.2.2-.2.5-.4.7l-1.2.9-.4.3c-.3 0-1-.8-1.1-1s-1.2-1.3-1.3-1.7-1.1-2.9-1.6-4.4h.7c.8-.5.6-1.8 2-1.3s.2-.5.5-.7l.4-.2c.5-.7 1-3.5.5-4.2s-.9-.6-1.2-1.7.1-.6 0-1-.5-1.8-.6-1.9l-.4-.4a17.7 17.7 0 0 1-.1-1.9c-.5-1.3-2.1-2.1-2.2-2.3l-.6-1.1a4.2 4.2 0 0 1-.4-1c-.1-.2-.3-.3-.3-.5s.9-1.1.9-1.7-.6-.8-.5-1.1.7-1.1.7-1.5-1-1.6-1.1-2.1.4-.5.3-.6l-1.3-1.4c-.1-.2.4-.5 0-.8s-.1-.2-.1-.5-.5-.6-.6-.9-1-3.3-.9-3.5l-.5-.6c-.1-.2-.2-.6-.3-.8s-.9-.3-1.1-.6-.2-1-.4-1.3-.3-.1-.5-.3-.1-.3-.2-.4-.8 0-1.2-1.5l-1.4-1.1-.2-.2a4.3 4.3 0 0 1-1.2-.5H215c-.1-.1-.2-.5-.3-.5s-1.3 0-1.7-.4-.4-1.7-1-1.5h-.2c-.4-.5-1.7-.6-2.3-.9s-.7 0-.7-.2a2 2 0 0 0 .1-.8l-.7-.8c-.5-.1-.3-.2-.6-.4s-1 .1-1.5.6l-.6.3c-.3.2-.4.7-.8.5l-.3-.3c-.2-.2-.4-.1-.5-.5s-2.7 1-3.2 0-.6 0-.9-.2.4-1.8-1.1-2.4l1-.7c.1-.2 0-.5 0-.6a8 8 0 0 0 .1-1c-.1-.2-.3-.4-.3-.6s0-.5-.1-.8l-.5-.2a6.8 6.8 0 0 1-1.1-.9l-.2-.3c-.3-.2-1.1-.5-1.1-.9s.2-.1.2-.3 0-.4.1-.5 1.3-.3 1.2-1.3-.4-.8-.5-1.3l-.3-.4c-.9-.1-.8-1-1.1-1.2s-1.7-.2-.6-1.5-.9-1.1-1.1-1.3-.2-1.1-.3-1.5-.7-.5-.9-.8-.2-.5-.3-.6c.2-.1.1-.4 0-.6l-.5-.2a9.2 9.2 0 0 0-3-1.5c-.3-.1-.2-.4-.5-.5l-1.8-.7c-.2 0-.3-.7-.4-.9l-.5-.6c0-.6-.4-.7-.8-1s-.1-.3-.1-.4l.4-1.3c.1-.2.4-.4.3-.7a8.6 8.6 0 0 0-.3-1.4c-.5-1.3-1-1.1-.7-2.8s-.1-.5.2-.8v-.2l.7-.5c.3-.4.4-1.2.8-1.4l1.1-.7c.1-.1.3-.5.2-.7a1.7 1.7 0 0 0-.7-.1l-.7-.3c-.1-.1-.2-.2-.2-.3h-.1l-.8-.3-1.1-.3c-.6-.3-1.2-1.2-1.7-1.3a6.3 6.3 0 0 0-1.9.1c-.5 0-.5-.2-.8-.4s-.1.3-1.2-.1.1-.5.1-.6h-.6c-.9-.2-.6-1.1-.8-1.6s-.5-.1-.7-.1a.1.1 0 0 1-.1-.1h.1c.2-.2-.4-.9-.4-.9s1.2-.4 1.3-.4-.1-.3-.1-.4a2.7 2.7 0 0 1 .3-1c-.3-.2-.4-.4-.7-.6s.2-.2.2-.4 1.4-.3 2.1-1.7l.4-.7h.6l.5-.2h.3c1.4-.3 1.1-.8 1.8-1.4l1.1-.3a10.5 10.5 0 0 0 1.3.8l2 .6c.3.2.4.6.6.7s.3-.3 1.1-.1a12.5 12.5 0 0 1 2.1 1.1h.6l1.6-.2.5.2c.2 0 .3-.3.4-.3s.5.3 1.2.2.4-2 .7-2.1.7.5.9.5 0-.4 0-.4a11.2 11.2 0 0 1-.4-1.5h.5a2.8 2.8 0 0 0 1.2-.5l.7-.9c0-.1-.2-.5-.1-.6l.6-.4c.2-.2.3-.6.6-.8s1.7-1.1 2.8-1.2h.4l.2.4.9.5.3-.2a1.5 1.5 0 0 0 .9-.6s-.1-.2-.1-.4l1-.7h.8c.2.1.2.3.4.3h.7c.2 0 .2-.3.4-.3z" fill="#d0a650"/><path class="cls-3" d="M273.1 51.3l-3.7-11.6-3.8 11.6h-12.1l9.8 7.1-3.7 11.5 9.8-7.1 9.8 7.1-3.8-11.5 9.8-7.1h-12.1zM311.3 58l-3.8-11.5-3.7 11.5h-12.1l9.8 7.1-3.8 11.5 9.8-7.1 9.8 7.1-3.7-11.5 9.8-7.1h-12.1zM350 78.3l9.8-7.1h-12.1l-3.8-11.5-3.7 11.5h-12.1l9.8 7.1-3.8 11.6 9.8-7.2 9.8 7.2-3.7-11.6z"/><g id="h"><path class="cls-3" d="M236.7 58.4l9.8-7.1h-12.1l-3.8-11.6-3.7 11.6h-12.1l9.8 7.1-3.8 11.5 9.8-7.1 9.8 7.1-3.7-11.5zM198.5 65.1l9.8-7.1h-12.1l-3.7-11.5-3.8 11.5h-12.1l9.8 7.1-3.7 11.5 9.8-7.1 9.8 7.1-3.8-11.5zM162.1 78.3l9.8-7.1h-12.1l-3.7-11.5-3.8 11.5h-12.1l9.8 7.1-3.7 11.6 9.8-7.2 9.8 7.2-3.8-11.6z"/></g></g></g></svg>