<svg xmlns="http://www.w3.org/2000/svg" viewBox="0 0 500 277.8"><defs><style>.cls-1{fill:#fff}.cls-2{fill:#003283}</style></defs><g id="Layer_2" data-name="Layer 2"><g id="ROC"><path class="cls-1" d="M0 0h500v277.78H0z"/><path class="cls-1" d="M359.6 128.5a58.9 58.9 0 0 0-54.1-58.8 59 59 0 0 0-111 0 58.9 58.9 0 0 0-32.9 104 59 59 0 0 0 88.4 64.5 59 59 0 0 0 88.4-64.5 58.8 58.8 0 0 0 21.1-45.2z"/><path class="cls-2" d="M250.8 88.4a27.3 27.3 0 1 0 27.3 27.3 27.3 27.3 0 0 0-27.3-27.3zm0 40.4a13.2 13.2 0 1 1 13.2-13.1 13.1 13.1 0 0 1-13.2 13.2z"/><path class="cls-2" d="M359.6 128.5a58.9 58.9 0 0 0-54.1-58.8 59 59 0 0 0-111 0 58.9 58.9 0 0 0-32.9 104 59 59 0 0 0 88.4 64.5 59 59 0 0 0 88.4-64.5 58.8 58.8 0 0 0 21.1-45.2zm-31.5 39.8A49.1 49.1 0 0 1 251 225a49.1 49.1 0 0 1-77.4-56 49.1 49.1 0 0 1 26-90.8h3a49.1 49.1 0 0 1 95.2 0h3a49.1 49.1 0 0 1 27.2 90z"/><path d="M343.4 128.6a45 45 0 0 0-45-45l-4.2.2a45 45 0 0 0-87.8 0l-4.2-.2a45 45 0 0 0-22.5 83.9 45 45 0 0 0 71.3 51.4 45 45 0 0 0 71.1-52 44.9 44.9 0 0 0 21.4-38.3zm-29 35.4a39.5 39.5 0 0 1-63.6 46.7 39.5 39.5 0 0 1-64-46.1 39.5 39.5 0 0 1 24.5-74.8 39.5 39.5 0 0 1 78.5-.3 39.5 39.5 0 0 1 24.6 74.5z" fill="#e41f20"/><path class="cls-1" d="M247.5 100.7h6.9l-3.3-10.5-3.6 10.5zM240.5 104.3l5.9-3.4-8.1-7.4 2.2 10.8zM236.2 111l3.4-5.9-10.7-2.4 7.3 8.3zM235.8 119v-6.9l-10.5 3.3 10.5 3.6zM239.4 126l-3.4-5.9-7.4 8.1 10.8-2.2zM246.1 130.3l-5.9-3.4-2.4 10.7 8.3-7.3zM254.1 130.7h-6.9l3.3 10.5 3.6-10.5zM261.2 127.1l-6 3.4 8.1 7.4-2.1-10.8zM265.4 120.4l-3.4 5.9 10.7 2.4-7.3-8.3zM265.8 112.4v6.9l10.5-3.3-10.5-3.6zM262.2 105.4l3.4 5.9 7.4-8.1-10.8 2.2zM255.5 101.1l5.9 3.4 2.4-10.7-8.3 7.3z"/><path d="M231.3 169.8a17.4 17.4 0 1 0-17.4 17.4h1.5q-.1-.7-.1-1.4c0-.5 0-1 .1-1.5h-1.5a14.5 14.5 0 1 1 4.5-.7 15.2 15.2 0 0 0-.2 2.2v.9a17.4 17.4 0 0 0 13-16.8z" fill="#0083ce"/><path d="M306.6 169.8a17.4 17.4 0 0 1-34.7 1.5 13.7 13.7 0 0 1 3 .6 14.6 14.6 0 1 0-.1-3.1l-2.9-.5a17.4 17.4 0 0 1 34.7 1.4z" fill="#e61446"/><path d="M284.9 186.7a14.5 14.5 0 1 1-19-14.7 15.3 15.3 0 0 0 .2-2.2v-.9a17.4 17.4 0 1 0 21.7 18.2 14.9 14.9 0 0 1-2.9-.5zm-14.5-15.4a14.5 14.5 0 0 1 14.3 12.3 13.3 13.3 0 0 0 3 .6 17.4 17.4 0 0 0-17.3-15.8h-1.5v1.4c0 .5 0 1-.1 1.5z" fill="#009c45"/><path d="M250.1 187.2a17.4 17.4 0 1 1-21.7-18.2v.9a15.3 15.3 0 0 1-.2 2.2 14.5 14.5 0 1 0 19 14.7l2.9.5zm-18.9-15.8c0-.5.1-1 .1-1.5v-1.4h1.5a17.4 17.4 0 0 1 17.3 15.8 13.3 13.3 0 0 1-3-.6 14.5 14.5 0 0 0-14.3-12.3z" fill="#f7b000"/><path d="M251.6 184.3a14.5 14.5 0 0 1-14.4-12.3 13.7 13.7 0 0 0-3-.6 17.4 17.4 0 0 0 17.3 15.9h1.5c0-.5-.1-.9-.1-1.4s0-1 .1-1.5zm0-31.9a17.4 17.4 0 0 0-17.3 16l2.9.5a14.5 14.5 0 1 1 19 14.7 14.3 14.3 0 0 0-.2 2.2v.9a17.4 17.4 0 0 0-4.4-34.2z" fill="#000006"/></g></g></svg>