<svg xmlns="http://www.w3.org/2000/svg" viewBox="0 0 499.839 277.402"><path fill="#de3831" d="M499.839 138.516V-.375h-500v138.891h500z"/><path fill="#002395" d="M499.839 138.516v138.886h-500V138.516h500z"/><path fill="#fff" d="M499.839 92.219H266.675L100.007-.375H59.929L259.94 110.75h239.899V92.219zM499.839 184.812H266.675l-166.668 92.59H59.929L259.94 166.289h239.899v18.523z"/><path fill="#007a4d" d="M189.757 138.516L-.161 244.016v33.386h60.09L259.94 166.289h239.899V110.75H259.94L59.929-.375H-.161v33.387l189.918 105.504z"/><path fill="#ffb612" d="M189.757 138.516L-.161 244.016v-22.243l149.879-83.257L-.161 55.254V33.012l189.918 105.504z"/><path fill="#231f20" stroke="#000" stroke-width=".152" d="M-.161 221.773l149.879-83.257L-.161 55.254v166.519z"/></svg>