<svg xmlns="http://www.w3.org/2000/svg" viewBox="0 0 499.839 277.402"><path fill="#ee3e42" d="M499.839 138.516h-500V-.375h500v138.891z"/><path fill="#fff" d="M499.839 138.516h-500v138.886h500V138.516z"/><g fill="#fff"><path d="M105.694 28.035l-2.847 8.848h-9.368l7.606 5.516-2.926 8.843 7.535-5.496 7.532 5.496-2.883-8.922 7.57-5.394h-9.336l-2.883-8.891zM132.71 47.668l-2.848 8.852h-9.367l7.613 5.507-2.925 8.848 7.527-5.5 7.539 5.5-2.879-8.922 7.563-5.398h-9.332l-2.891-8.887zM88.995 79.43l-2.855 8.851h-9.364l7.606 5.512-2.93 8.848 7.543-5.496 7.527 5.496-2.882-8.922 7.574-5.399h-9.332l-2.887-8.89zM78.675 47.668l-2.852 8.848h-9.371l7.61 5.511-2.922 8.848 7.535-5.5 7.527 5.5-2.883-8.922 7.567-5.398h-9.328l-2.883-8.887z"/><path d="M28.757 69.254c0-27.352 22.172-49.516 49.523-49.516 1.656 0 3.289.059 4.91.219-18.699 8.547-31.703 27.551-31.703 49.297s13.004 40.75 31.703 49.297a51.184 51.184 0 0 1-4.91.219c-27.351 0-49.523-22.168-49.523-49.516zM122.394 79.43l-2.852 8.851h-9.371l7.613 5.512-2.926 8.848 7.536-5.496 7.531 5.496-2.883-8.922 7.574-5.399h-9.34l-2.882-8.89z"/></g></svg>