<svg xmlns="http://www.w3.org/2000/svg" viewBox="0 0 499.839 277.402"><path fill="#fff" d="M499.839 92.211h-500V-.375h500v92.586z"/><path fill="#ec1c2e" d="M-.161 277.402h500v-92.59h-500v92.59z"/><path fill="#006bb5" d="M499.839 184.812h-500V92.211h500v92.601z"/><g><path d="M92.101 40.024c11.117 0 27.125 2.996 38.473 8.516 0 0 .008 0-2.207 36.266-1.258 20.652-9.777 37.84-36.266 46.039-26.484-8.199-34.996-25.387-36.262-46.039-2.215-36.266-2.207-36.266-2.207-36.266 11.351-5.52 27.359-8.516 38.469-8.516z" fill="#ec1c2e"/><path d="M92.101 40.024c11.117 0 27.125 2.996 38.473 8.516 0 0 .008 0-2.207 36.266-1.258 20.652-9.777 37.84-36.266 46.039-26.484-8.199-34.996-25.387-36.262-46.039-2.215-36.266-2.207-36.266-2.207-36.266 11.351-5.52 27.359-8.516 38.469-8.516z" fill="none" stroke="#000" stroke-width=".057"/><path d="M92.101 40.024c10.172 0 24.496 2.551 35.543 7.207 0 0 .074-.484-2.25 37.039-1.27 20.41-9.223 35.645-33.293 43.422-24.062-7.777-32.02-23.012-33.285-43.422-2.324-37.524-2.25-37.039-2.25-37.039 11.042-4.657 25.367-7.207 35.535-7.207z" fill="#006bb5"/><path d="M92.101 40.024c10.172 0 24.496 2.551 35.543 7.207 0 0 .074-.484-2.25 37.039-1.27 20.41-9.223 35.645-33.293 43.422-24.062-7.777-32.02-23.012-33.285-43.422-2.324-37.524-2.25-37.039-2.25-37.039 11.042-4.657 25.367-7.207 35.535-7.207z" fill="none" stroke="#000" stroke-width=".057"/><path d="M92.101 109.645c4.77 0 4.77-2.41 9.434-2.41s4.664 2.41 9.43 2.41c1.797 0 2.922-.332 3.871-.762a34.321 34.321 0 0 0 2.223-3.598c-1.805.711-2.836 1.836-6.094 1.836-4.766 0-4.766-2.414-9.43-2.414s-4.664 2.414-9.434 2.414c-4.766 0-4.766-2.414-9.434-2.414-4.66 0-4.66 2.414-9.426 2.414-3.254 0-4.285-1.125-6.098-1.836a35.718 35.718 0 0 0 2.23 3.598c.949.43 2.07.762 3.867.762 4.766 0 4.766-2.41 9.426-2.41 4.669-.001 4.669 2.41 9.435 2.41zM92.101 124.539c9.082-3.055 15.594-7.32 20.191-12.441a12.4 12.4 0 0 1-1.328.07c-4.766 0-4.766-2.41-9.43-2.41s-4.664 2.41-9.434 2.41c-4.766 0-4.766-2.41-9.434-2.41-4.66 0-4.66 2.41-9.426 2.41-.488 0-.922-.027-1.324-.07 4.595 5.121 11.11 9.386 20.185 12.441zM92.101 104.598c4.77 0 4.77-2.41 9.434-2.41s4.664 2.41 9.43 2.41c2.586 0 5.09-1.086 6.535-2.531 2.164-2.16 2.809-4.141 3.32-6.867l-14.359-17.48-5.738 6.984-8.621-16.086-8.613 16.086-5.738-6.984L63.388 95.2c.516 2.727 1.16 4.707 3.32 6.867 1.445 1.445 3.953 2.531 6.535 2.531 4.766 0 4.766-2.41 9.426-2.41 4.666 0 4.666 2.41 9.432 2.41z" fill="#fff"/><path fill="#fff100" d="M102.351 52.008l1.074-2.219 2.465.18-1.391-2.063 1.391-2.058-2.465.179-1.074-2.214-1.075 2.214-2.464-.179 1.394 2.058-1.394 2.063 2.464-.18 1.075 2.219zM81.854 52.008l-1.074-2.219-2.465.18 1.391-2.063-1.391-2.058 2.465.179 1.074-2.214 1.079 2.214 2.461-.179-1.391 2.058 1.391 2.063-2.461-.18-1.079 2.219zM92.101 64.375l-1.075-2.207-2.457.172 1.391-2.059-1.391-2.058 2.457.172 1.075-2.215 1.082 2.215 2.457-.172-1.391 2.058 1.391 2.059-2.457-.172-1.082 2.207z"/></g></svg>