<svg xmlns="http://www.w3.org/2000/svg" viewBox="0 0 499.839 277.402"><path fill="#0060a8" d="M-.161 92.215h500v92.594h-500z"/><path fill="#ec1c2e" d="M-.161 184.809h500v92.594h-500z"/><path d="M499.839 92.215V-.375h-500v92.59h105.203c-.613 10.609-3.75 44.367 3.191 63.418 9.66 26.504 27.301 45.695 56.414 56.59 29.121-10.895 46.754-30.086 56.406-56.59 6.953-19.051 3.816-52.809 3.207-63.418h275.579z" fill="#fff"/><path d="M218.98 69.004c1.004 20.402 2.754 51.703 2.004 67.227-.543 11.254-8.008 52.328-56.336 71.859-48.328-19.531-55.789-60.605-56.34-71.859-.746-15.523 1.004-46.824 2.008-67.227H218.98z" fill="#ec1c2e"/><path d="M164.647 74.887c1.875 0 6.262.062 7.883-.379-1.496 4.891-2.75 14.152-2.75 21.039 5.637 1.496 19.277-1.258 23.414-3.133-.5 4.758-.875 13.519.746 17.398-5.379-2-13.02-3.25-24.16-3.25v14.273c9.266 1.121 25.414-1.629 29.922-3.133-1.129 5.008-1.129 13.145-.375 17.031-6.762-2.891-20.16-3.887-29.547-3.887v22.781c-1.316-.559-3.258-1.188-5.133-1.188-1.871 0-3.812.629-5.133 1.188v-22.781c-9.391 0-22.781.996-29.543 3.887.746-3.887.746-12.023-.379-17.031 4.512 1.504 20.66 4.254 29.922 3.133v-14.273c-11.145 0-18.781 1.25-24.164 3.25 1.629-3.879 1.254-12.641.754-17.398 4.133 1.875 17.773 4.629 23.41 3.133 0-6.887-1.25-16.148-2.758-21.039 1.63.441 6.02.379 7.891.379z" fill="#fff"/><path d="M164.647 208.09c22.504-9.098 36.145-22.852 44.352-36.105-2.406-6.027-7.352-10.906-14.051-10.906s-10.586 4.949-12.898 7.891c-3.191-9.582-10.016-16.461-17.402-16.461-7.387 0-14.203 6.879-17.402 16.461-2.316-2.941-6.195-7.891-12.891-7.891-6.699 0-11.652 4.879-14.059 10.906 8.211 13.253 21.851 27.007 44.351 36.105z" fill="#0060a8"/></svg>