<svg xmlns="http://www.w3.org/2000/svg" viewBox="0 0 499.593 276.922"><path fill="#fff" d="M499.593 276.922V-.375H-.161v277.297h499.754z"/><path fill="#bb1f40" d="M499.593 20.957H199.909V-.375h299.684v21.332zM499.593 63.617H199.909V42.293h299.684v21.324zM499.593 106.277H199.909V84.945h299.684v21.332zM499.593 148.934H199.909v-21.328h299.684v21.328zM499.593 191.594H-.161v-21.328h499.754v21.328zM499.593 234.25H-.161v-21.328h499.754v21.328zM499.593 276.922H-.161v-21.34h499.754v21.34z"/><path fill="#202d61" d="M214.8 149.074V-.375H-.161v149.449H214.8z"/><path fill="#fff" d="M17.647 6.141l-1.925 5.871H9.386l5.144 3.656-1.976 5.867 5.093-3.648 5.098 3.648-1.949-5.914 5.117-3.582h-6.312l-1.954-5.898zM53.491 6.141l-1.926 5.871h-6.339l5.148 3.656-1.977 5.867 5.094-3.648 5.094 3.648-1.957-5.914 5.125-3.582H55.44l-1.949-5.898zM89.331 6.141l-1.926 5.871h-6.34l5.145 3.656-1.973 5.867 5.094-3.648 5.098 3.648-1.953-5.914 5.117-3.582h-6.309l-1.953-5.898zM125.167 6.141l-1.922 5.871h-6.336l5.149 3.656-1.981 5.867 5.09-3.648 5.101 3.648-1.953-5.914 5.118-3.582h-6.309l-1.957-5.898zM161.015 6.141l-1.926 5.871h-6.34l5.148 3.656-1.98 5.867 5.098-3.648 5.093 3.648-1.953-5.914 5.117-3.582h-6.308l-1.949-5.898zM196.855 6.141l-1.926 5.871h-6.336l5.14 3.656-1.98 5.867 5.102-3.648 5.093 3.648-1.949-5.914 5.117-3.582h-6.312l-1.949-5.898zM17.647 35.949l-1.925 5.871H9.386l5.144 3.657-1.976 5.867 5.093-3.645 5.098 3.645-1.949-5.918 5.117-3.582h-6.312l-1.954-5.895zM53.491 35.949l-1.926 5.871h-6.339l5.148 3.657-1.977 5.867 5.094-3.645 5.094 3.645-1.957-5.918 5.125-3.582H55.44l-1.949-5.895zM89.331 35.949l-1.926 5.871h-6.34l5.145 3.657-1.973 5.867 5.094-3.645 5.098 3.645-1.953-5.918 5.117-3.582h-6.309l-1.953-5.895zM125.167 35.949l-1.922 5.871h-6.336l5.149 3.657-1.981 5.867 5.09-3.645 5.101 3.645-1.953-5.918 5.118-3.582h-6.309l-1.957-5.895zM161.015 35.949l-1.926 5.871h-6.34l5.148 3.657-1.98 5.867 5.098-3.645 5.093 3.645-1.953-5.918 5.117-3.582h-6.308l-1.949-5.895zM196.855 35.949l-1.926 5.871h-6.336l5.14 3.657-1.98 5.867 5.102-3.645 5.093 3.645-1.949-5.918 5.117-3.582h-6.312l-1.949-5.895zM17.647 65.754l-1.925 5.875H9.386l5.144 3.652-1.976 5.875 5.093-3.648 5.098 3.648-1.949-5.922 5.117-3.582h-6.312l-1.954-5.898zM53.491 65.754l-1.926 5.875h-6.339l5.148 3.652-1.977 5.875 5.094-3.648 5.094 3.648-1.957-5.922 5.125-3.582H55.44l-1.949-5.898zM89.331 65.754l-1.926 5.875h-6.34l5.145 3.652-1.973 5.875 5.094-3.648 5.098 3.648-1.953-5.922 5.117-3.582h-6.309l-1.953-5.898zM125.167 65.754l-1.922 5.875h-6.336l5.149 3.652-1.981 5.875 5.09-3.648 5.101 3.648-1.953-5.922 5.118-3.582h-6.309l-1.957-5.898zM161.015 65.754l-1.926 5.875h-6.34l5.148 3.652-1.98 5.875 5.098-3.648 5.093 3.648-1.953-5.922 5.117-3.582h-6.308l-1.949-5.898zM196.855 65.754l-1.926 5.875h-6.336l5.14 3.652-1.98 5.875 5.102-3.648 5.093 3.648-1.949-5.922 5.117-3.582h-6.312l-1.949-5.898zM17.647 95.559l-1.925 5.879H9.386l5.144 3.652-1.976 5.867 5.093-3.644 5.098 3.644-1.949-5.918 5.117-3.578h-6.312l-1.954-5.902zM53.491 95.559l-1.926 5.879h-6.339l5.148 3.652-1.977 5.867 5.094-3.644 5.094 3.644-1.957-5.918 5.125-3.578H55.44l-1.949-5.902zM89.331 95.559l-1.926 5.879h-6.34l5.145 3.652-1.973 5.867 5.094-3.644 5.098 3.644-1.953-5.918 5.117-3.578h-6.309l-1.953-5.902zM125.167 95.559l-1.922 5.879h-6.336l5.149 3.652-1.981 5.867 5.09-3.644 5.101 3.644-1.953-5.918 5.118-3.578h-6.309l-1.957-5.902zM161.015 95.559l-1.926 5.879h-6.34l5.148 3.652-1.98 5.867 5.098-3.644 5.093 3.644-1.953-5.918 5.117-3.578h-6.308l-1.949-5.902zM196.855 95.559l-1.926 5.879h-6.336l5.14 3.652-1.98 5.867 5.102-3.644 5.093 3.644-1.949-5.918 5.117-3.578h-6.312l-1.949-5.902zM17.647 125.367l-1.925 5.879H9.386l5.144 3.649-1.976 5.871 5.093-3.645 5.098 3.645-1.949-5.918 5.117-3.578h-6.312l-1.954-5.903zM53.491 125.367l-1.926 5.879h-6.339l5.148 3.649-1.977 5.871 5.094-3.645 5.094 3.645-1.957-5.918 5.125-3.578H55.44l-1.949-5.903zM89.331 125.367l-1.926 5.879h-6.34l5.145 3.649-1.973 5.871 5.094-3.645 5.098 3.645-1.953-5.918 5.117-3.578h-6.309l-1.953-5.903zM125.167 125.367l-1.922 5.879h-6.336l5.149 3.649-1.981 5.871 5.09-3.645 5.101 3.645-1.953-5.918 5.118-3.578h-6.309l-1.957-5.903zM161.015 125.367l-1.926 5.879h-6.34l5.148 3.649-1.98 5.871 5.098-3.645 5.093 3.645-1.953-5.918 5.117-3.578h-6.308l-1.949-5.903zM196.855 125.367l-1.926 5.879h-6.336l5.14 3.649-1.98 5.871 5.102-3.645 5.093 3.645-1.949-5.918 5.117-3.578h-6.312l-1.949-5.903zM35.565 110.555l-1.921 5.875h-6.34l5.148 3.656-1.976 5.867 5.089-3.648 5.102 3.648-1.953-5.918 5.117-3.582h-6.309l-1.957-5.898zM71.409 110.555l-1.926 5.875h-6.336l5.149 3.656-1.981 5.867 5.094-3.648 5.098 3.648-1.953-5.918 5.117-3.582h-6.313l-1.949-5.898zM107.253 110.555l-1.926 5.875h-6.34l5.149 3.656-1.977 5.867 5.094-3.648 5.094 3.648-1.953-5.918 5.117-3.582h-6.305l-1.953-5.898zM143.093 110.555l-1.926 5.875h-6.34l5.149 3.656-1.981 5.867 5.098-3.648 5.097 3.648-1.957-5.918 5.122-3.582h-6.309l-1.953-5.898zM178.933 110.555l-1.93 5.875h-6.332l5.148 3.656-1.98 5.867 5.094-3.648 5.093 3.648-1.949-5.918 5.113-3.582h-6.308l-1.949-5.898zM35.565 80.688l-1.921 5.875h-6.34l5.148 3.652-1.976 5.871 5.089-3.645 5.102 3.645-1.953-5.918 5.117-3.586h-6.309l-1.957-5.894zM71.409 80.688l-1.926 5.875h-6.336l5.149 3.652-1.981 5.871 5.094-3.645 5.098 3.645-1.953-5.918 5.117-3.586h-6.313l-1.949-5.894zM107.253 80.688l-1.926 5.875h-6.34l5.149 3.652-1.977 5.871 5.094-3.645 5.094 3.645-1.953-5.918 5.117-3.586h-6.305l-1.953-5.894zM143.093 80.688l-1.926 5.875h-6.34l5.149 3.652-1.981 5.871 5.098-3.645 5.097 3.645-1.957-5.918 5.122-3.586h-6.309l-1.953-5.894zM178.933 80.688l-1.93 5.875h-6.332l5.148 3.652-1.98 5.871 5.094-3.645 5.093 3.645-1.949-5.918 5.113-3.586h-6.308l-1.949-5.894zM35.565 50.82l-1.921 5.871h-6.34l5.148 3.657-1.976 5.867 5.089-3.645 5.102 3.645-1.953-5.914 5.117-3.582h-6.309l-1.957-5.899zM71.409 50.82l-1.926 5.871h-6.336l5.149 3.657-1.981 5.867 5.094-3.645 5.098 3.645-1.953-5.914 5.117-3.582h-6.313l-1.949-5.899zM107.253 50.82l-1.926 5.871h-6.34l5.149 3.657-1.977 5.867 5.094-3.645 5.094 3.645-1.953-5.914 5.117-3.582h-6.305l-1.953-5.899zM143.093 50.82l-1.926 5.871h-6.34l5.149 3.657-1.981 5.867 5.098-3.645 5.097 3.645-1.957-5.914 5.122-3.582h-6.309l-1.953-5.899zM178.933 50.82l-1.93 5.871h-6.332l5.148 3.657-1.98 5.867 5.094-3.645 5.093 3.645-1.949-5.914 5.113-3.582h-6.308l-1.949-5.899zM35.565 20.949l-1.921 5.879h-6.34l5.148 3.653-1.976 5.867 5.089-3.645 5.102 3.645-1.953-5.918 5.117-3.578h-6.309l-1.957-5.903zM71.409 20.949l-1.926 5.879h-6.336l5.149 3.653-1.981 5.867 5.094-3.645 5.098 3.645-1.953-5.918 5.117-3.578h-6.313l-1.949-5.903zM107.253 20.949l-1.926 5.879h-6.34l5.149 3.653-1.977 5.867 5.094-3.645 5.094 3.645-1.953-5.918 5.117-3.578h-6.305l-1.953-5.903zM143.093 20.949l-1.926 5.879h-6.34l5.149 3.653-1.981 5.867 5.098-3.645 5.097 3.645-1.957-5.918 5.122-3.578h-6.309l-1.953-5.903zM178.933 20.949l-1.93 5.879h-6.332l5.148 3.653-1.98 5.867 5.094-3.645 5.093 3.645-1.949-5.918 5.113-3.578h-6.308l-1.949-5.903z"/></svg>