<svg xmlns="http://www.w3.org/2000/svg" viewBox="0 0 499.839 277.402"><path fill="#f05c2a" d="M499.839 188.551h-500V88.531h500v100.02z"/><path fill="#0093c1" d="M499.839 88.531h-500V-.375h500v88.906z"/><path fill="#fff" d="M499.839 183h-500V94.094h500V183z"/><path fill="#2fb357" d="M499.839 277.402h-500v-88.851h500v88.851z"/><g fill="#fff"><path d="M51.839 42.586c0 12.574 10.192 22.77 22.766 22.77 1.797 0 3.566-.23 5.242-.621a28.64 28.64 0 0 1-18.477 6.699c-15.934 0-28.848-12.918-28.848-28.848S45.437 13.738 61.37 13.738c7.043 0 13.473 2.504 18.477 6.699a23.149 23.149 0 0 0-5.242-.625c-12.575.001-22.766 10.204-22.766 22.774zM171.811 60.535l-1.355 4.223h-4.465l3.629 2.625-1.39 4.215 3.581-2.621 3.598 2.621-1.379-4.25 3.61-2.574h-4.45l-1.379-4.239zM152.39 60.535l1.371 4.239h4.453l-3.609 2.574 1.375 4.25-3.59-2.621-3.59 2.621 1.394-4.215-3.629-2.625h4.469l1.356-4.223zM132.964 60.535l1.375 4.239h4.449l-3.609 2.574 1.375 4.25-3.59-2.621-3.59 2.621 1.394-4.215-3.624-2.625h4.464l1.356-4.223zM113.538 60.535l1.375 4.239h4.445l-3.601 2.574 1.367 4.25-3.586-2.621-3.586 2.621 1.387-4.215-3.621-2.625h4.465l1.355-4.223zM94.112 60.535l-1.359 4.223h-4.465l3.629 2.625-1.395 4.215 3.59-2.621 3.59 2.621-1.375-4.25 3.606-2.574h-4.45l-1.371-4.239zM171.811 13.543l-1.355 4.223h-4.465l3.629 2.625-1.39 4.215 3.581-2.618 3.598 2.618-1.379-4.25 3.61-2.571h-4.45l-1.379-4.242zM152.39 13.543l1.371 4.242h4.453l-3.609 2.571 1.375 4.25-3.59-2.618-3.59 2.618 1.394-4.215-3.629-2.625h4.469l1.356-4.223zM132.964 13.543l1.375 4.242h4.449l-3.609 2.571 1.375 4.25-3.59-2.618-3.59 2.618 1.394-4.215-3.624-2.625h4.464l1.356-4.223zM171.811 37.039l-1.355 4.219h-4.465l3.629 2.629-1.39 4.215 3.581-2.618 3.598 2.618-1.379-4.254 3.61-2.571h-4.45l-1.379-4.238zM152.39 37.039l1.371 4.238h4.453l-3.609 2.571 1.375 4.254-3.59-2.618-3.59 2.618 1.394-4.215-3.629-2.629h4.469l1.356-4.219zM132.964 37.039l1.375 4.238h4.449l-3.609 2.571 1.375 4.254-3.59-2.618-3.59 2.618 1.394-4.215-3.624-2.629h4.464l1.356-4.219zM113.538 37.039l1.375 4.238h4.445l-3.601 2.571 1.367 4.254-3.586-2.618-3.586 2.618 1.387-4.215-3.621-2.629h4.465l1.355-4.219z"/></g></svg>