<svg data-name="Layer 1" xmlns="http://www.w3.org/2000/svg" viewBox="0 0 74.877 89.396"><path d="M22.079 2.28L4.92 27.6H2.88L3.6 3.72C9.24 1.68 18.479 0 28.319 0c21.239 0 30.838 7.44 30.838 21.479 0 11.159-9.119 19.439-30.118 20.879v.48c21.959.24 33.238 7.32 33.238 21.719 0 15.48-13.077 24.843-35.639 24.843C15 89.4 6.6 88.077 1.44 85.2l-.36-26.882h2.04l18 28.439c11.04-.48 17.279-9.84 17.279-22.8 0-12.719-6.84-19.679-18.479-19.679h-5.88v-2.4h5.879c11.4 0 17.52-7.68 17.52-20.639C37.438 8.16 31.2 2.28 22.2 2.28z" fill="#131313"/></svg>