<svg data-name="Layer 1" xmlns="http://www.w3.org/2000/svg" viewBox="0 0 74.877 89.396"><path d="M34.679 89.517C10.919 89.517 0 73.077 0 47.758 0 16.68 17.039 0 41.279 0 49.8 0 57.238 2.4 61.438 6.24v2.4a39.3 39.3 0 0 0-13.08-2.04c-16.079 0-23.278 11.76-24.719 34.919a30.8 30.8 0 0 1 21.359-9c15.479 0 23.52 11.64 23.52 26.4 0 17.518-11.518 30.598-33.839 30.598zm0-2.28c7.8 0 10.8-7.439 10.8-24.239 0-15.12-3.6-21-11.4-21-3.6 0-7.68.48-10.56 1.92-.12 2.4-.12 4.8-.12 7.32C23.4 76.077 27 87.236 34.679 87.236z" fill="#131313"/></svg>