<svg id="Alpine_Skiing_Speed" data-name="Alpine Skiing Speed" xmlns="http://www.w3.org/2000/svg" viewBox="0 0 56.69 56.69"><defs><style>.cls-1{fill:#121212}</style></defs><path class="cls-1" d="M33.721 50.918l1.9-.786-16.306-9.507c.909-.6 1.749-1.134 2.563-1.636l27.431 9.828.081.03 2.252-.933-15.788-5.657 2.385-2.434c1.067-1.087 4.135-4.485 4.166-4.519a1.965 1.965 0 0 0 .264-.388 1.922 1.922 0 0 0-.824-2.593 291 291 0 0 0-5.463-2.757c-.756-.371-1.393-.678-1.843-.892l-.446-.2-.08.232a8.2 8.2 0 0 0-.447 2.809v.113l.1.067c.31.214.67.456 1.068.728.831.558 1.828 1.222 2.887 1.916a99.568 99.568 0 0 0-2.49 2.43l-3.793 3.871-7.646-2.74c.144-.083 1.5-.832 2.816-1.558l.318-.176c1.2-.662 2.314-1.277 2.435-1.346a2.183 2.183 0 0 0 1.095-1.286 6.319 6.319 0 0 0 .129-.633 8.293 8.293 0 0 1 .191-1.105 10.939 10.939 0 0 1 2.578-4.696c.152-.16.312-.318.478-.469a8.771 8.771 0 0 1 .793-.646 7.723 7.723 0 0 1 .7-.475l.471-.275c.242-.131.492-.267.769-.386a7.442 7.442 0 0 1 .7-.3l.07-.025c.1-.037.2-.076.281-.11l.588-.186L48.6 37.584l.1.125 2.276-.8v-.157-.521c-.007-.7-.025-1.634-.1-2.715a26.041 26.041 0 0 0-.443-3.362 18.185 18.185 0 0 0-.84-2.918l-.228-.558c-.053-.142-.121-.289-.217-.5l-.15-.326a15.147 15.147 0 0 0-.2-.423l-.918-1.68-2.916 1.683.42.728.139.254.27.525c.055.1.107.218.172.359l.086.188c.084.182.162.346.22.494l.2.482c.229.595.575 1.492.868 2.46.266.865.525 1.9.752 2.973l.1.5-8.326-10.569a20.223 20.223 0 0 1 3.539-.3h.512a1.966 1.966 0 0 0 1.516-3.247 17.483 17.483 0 0 0-13.2-5.864c-.436 0-.867.016-1.289.048l-2.264.265-.516.089c-.822.169-1.5.331-2.071.5-.414.11-.714.214-.96.3L12.446 5.514l-.27 1.875 14.043 11.118.106-.025c.178-.041.371-.085.579-.123.477-.107 1.1-.216 1.782-.313l2.031-.16.529-.009a15.015 15.015 0 0 1 5.6 1.03 13.744 13.744 0 0 1 1.728.829c-.285.05-.568.1-.851.162l-.391.082c-.072.017-.15.039-.23.063l-1.309.387c-.379.129-.738.253-1.086.41a14.92 14.92 0 0 0-1.291.609l-.258.139a14.16 14.16 0 0 0-5.309 5.157 15.228 15.228 0 0 0-1.8 4.554l-.6.319c-.545.288-1.082.585-1.613.882s-1.073.6-1.6.908l-.469.273c-.375.215-.75.43-1.115.655-1.725 1.017-3.557 2.194-5.764 3.707L3.972 31.681 3.149 33.1l30.476 17.762M53 17.6a3.274 3.274 0 0 0-2.308-1.05h-.131a3.187 3.187 0 0 0-3.273 2.868 2.786 2.786 0 0 0 .809 2.16 3.27 3.27 0 0 0 2.227.963h.127a3.2 3.2 0 0 0 3.283-2.871A2.8 2.8 0 0 0 53 17.6z"/></svg>