<svg id="Alpine_Skiing_Speed" data-name="Alpine Skiing Speed" xmlns="http://www.w3.org/2000/svg" viewBox="0 0 56.69 56.69"><defs><style>.cls-1{fill:#121212}</style></defs><path class="cls-1" d="M7.867 30.984l16.874 7.986 2.207-.82-18.36-8.687-.721 1.521zM51.035 45.621a2.257 2.257 0 0 0 2.206-2.753l-.159-.675c-.047-.19-.1-.37-.152-.566a28.673 28.673 0 0 0-.359-1.179 33.499 33.499 0 0 0-.776-2.152 40.862 40.862 0 0 0-1.733-3.796c0-.006-.184-.372-.53-1-.4-.725-.934-1.63-1.516-2.548a46.511 46.511 0 0 0-5.547-7.047c-.428-.46-.881-.9-1.318-1.327l-.894-.837a29.64 29.64 0 0 0-1.275-1.127l-.275-.232c-.2-.168-.394-.334-.6-.5l-2.43-1.845c-1.074-.752-1.877-1.288-2.45-1.633L32.4 15.9v5.489l.1.066c.165.115.335.232.5.353l1.439 1.068.764.6c.143.114.283.233.424.352l.358.3c.366.3.733.636 1.1.972.162.148.325.295.482.436l.427.416c.376.366.766.743 1.14 1.145a41.728 41.728 0 0 1 4.992 6.34c.537.851 1.02 1.662 1.357 2.292a38.435 38.435 0 0 1 1.618 3.275 3406.372 3406.372 0 0 0-13.892-6.357l-.031-.019c-.8-.709-1.59-1.384-2.469-2.129l-2.742-2.257a175.762 175.762 0 0 0-5.439-4.225 156.573 156.573 0 0 0-10.033-6.924 94.396 94.396 0 0 0-3.332-2.035l-.838-.5c-1.1-.628-2.1-1.175-2.947-1.64l-2.229-1.127.894 4.02.082.049c.75.453 1.531.932 2.5 1.529l.957.611c.918.589 1.955 1.253 3.016 1.989 3.06 2.07 6.381 4.509 9.6 7.059 1.817 1.424 3.657 2.962 5.216 4.275l2.621 2.277c.717.637 1.7 1.511 2.572 2.336a2.1 2.1 0 0 0 .488.338 3840.895 3840.895 0 0 0 18.939 9.111 2.272 2.272 0 0 0 1.001.236z"/><path class="cls-1" d="M26.362 19.679a2.954 2.954 0 0 0 1.788-.594 3.448 3.448 0 0 0 .558-4.744 3.53 3.53 0 0 0-2.172-1.427 3.01 3.01 0 0 0-2.395.539 3.551 3.551 0 0 0 2.221 6.226zM17.965 16.748a2.944 2.944 0 0 0 1.787-.593 3.449 3.449 0 0 0 .559-4.744 3.516 3.516 0 0 0-2.172-1.427 3.027 3.027 0 0 0-2.395.538 3.551 3.551 0 0 0 2.221 6.226zM53.202 50.464l-18.557-8.777-.719 1.521 17.067 8.074"/></svg>