<svg id="Alpine_Skiing_Speed" data-name="Alpine Skiing Speed" xmlns="http://www.w3.org/2000/svg" viewBox="0 0 56.69 56.69"><defs><style>.cls-1{fill:#121212}</style></defs><path class="cls-1" d="M42.351 12.992a3.148 3.148 0 0 0 .623 2.355 2.67 2.67 0 0 0 1.835 1.025c.093.008.185.015.276.015a3.221 3.221 0 0 0 2.437-5.062 2.675 2.675 0 0 0-1.9-1.11 3.1 3.1 0 0 0-3.271 2.777zM37.013 12.095l-.494-1.396 7.49-2.698-.554-1.537-19.331 6.891 1.323 3.745 11.566-5.005z"/><path class="cls-1" d="M40 41.819l.1-.584c.035-.2.072-.412.117-.6L41 37.322l.624-2.358c.127-.441.267-.919.392-1.313l.086-.271a1.8 1.8 0 0 0-.7-2.033 207.07 207.07 0 0 0-3.98-2.664 88.047 88.047 0 0 0-1.328-.85l-.365-.224-.929 3.086.611.564a220.49 220.49 0 0 0 2.4 2.173l-.08.2c-.143.358-.273.715-.4 1.063l-.123.339c-.15.45-.293.889-.426 1.3-.1.334-.186.651-.264.953l-.24.928-.354 1.633c-.05.213-.085.4-.124.638l-.168.962-11.269-.968 2.9-3.967c4.106-5.622 10.263-14.378 13.566-19.1l.058-.083a1.974 1.974 0 0 0-1.846-3.09 21.6 21.6 0 0 0-4.121.938 35.659 35.659 0 0 0-3.564 1.378 39.782 39.782 0 0 0-5.705 3.146 34.907 34.907 0 0 0-3.576 2.722c-.285.247-.516.467-.7.644l-.26.245-17.09-9.884.135 1.971 18.158 10.506.125.072.117-.085c.449-.325.914-.645 1.316-.919l.176-.135a36.209 36.209 0 0 1 3.392-2.281 38.5 38.5 0 0 1 5.339-2.608c.5-.193 1-.38 1.519-.559-4.691 6.189-8.314 11.032-10.769 14.4l-6.115 8.371 1.73 3.48-15.1-3.315-.351 1.6 30.4 6.682 1.973-1.238-15.67-3.45 2.84-3.888 28.5 2.437.088.009 1.861-1.482z"/></svg>