<svg id="Alpine_Skiing_Speed" data-name="Alpine Skiing Speed" xmlns="http://www.w3.org/2000/svg" viewBox="0 0 56.69 56.69"><defs><style>.cls-1{fill:#121212}</style></defs><path class="cls-1" d="M53.691 43.76l1.518-1.531-17.133-1.238c.012-.083.168-.85.3-1.27.061-.2.119-.4.176-.595.1-.341.191-.657.293-.929l.236-.684c.433-1.21 1.236-3.46 2.17-5.564l.1-.216a1.815 1.815 0 0 0-.494-2.109 241.649 241.649 0 0 0-3.84-3.15c-.4-.317-1.129-.886-1.486-1.161l-.221-.167-.119.252a13.979 13.979 0 0 0-.918 2.72l-.027.114.553.609c.644.705 1.451 1.577 2.32 2.5a35.747 35.747 0 0 0-2.143 4.7l-.265.769a17.91 17.91 0 0 0-.369 1.171l-.174.59c-.067.24-.131.509-.192.765l-.178.776a4.41 4.41 0 0 0-.043.251l-.045.313-12.23-.876 8.93-9.932a2.382 2.382 0 0 0 .441-.729s.123-.331.154-.4l.086-.2c.026-.067.055-.136.087-.2l.4-.848c.26-.527.578-1.1.971-1.738a24.349 24.349 0 0 1 2.562-3.42 22.972 22.972 0 0 1 7.166-5.374l.092-.043a2.013 2.013 0 0 0 .061-3.584 3.614 3.614 0 0 0-.24-.118l-.357-.166a27.813 27.813 0 0 0-.537-.227c-.326-.13-.68-.257-1.076-.386a19.823 19.823 0 0 0-2.168-.56 19.525 19.525 0 0 0-2.174-.278 17.42 17.42 0 0 0-2.133 0 14.423 14.423 0 0 0-3.941.819 14.908 14.908 0 0 0-3.171 1.6 16.782 16.782 0 0 0-3.712 3.48 12.013 12.013 0 0 0-.721.972l-.271.4L4.4 21.937l1.057 1.476L24.918 20l.051-.066a12.4 12.4 0 0 1 3.5-3.062 11.827 11.827 0 0 1 5.459-1.563 13.722 13.722 0 0 1 1.631.071c.3.035.592.079.889.132a25.118 25.118 0 0 0-4.557 3.821 27.642 27.642 0 0 0-3.156 3.986c-.5.782-.887 1.44-1.217 2.075L27 26.442c-.057.116-.107.237-.166.371l-.145.308L15.66 39.358l-.09.1 1.348 3.649-14.58-4.132-.445 1.574 35.648 10.09.1.029 1.814-1.188-21.27-6 1.915-2.146zM46.748 15.36a2.648 2.648 0 0 0 .76.109 3.188 3.188 0 0 0 2.953-2.262 3.136 3.136 0 0 0-.144-2.329 2.678 2.678 0 0 0-1.675-1.432 2.708 2.708 0 0 0-.762-.11 3.239 3.239 0 0 0-2.754 4.691 2.678 2.678 0 0 0 1.622 1.333z"/></svg>