<svg id="Alpine_Skiing_Speed" data-name="Alpine Skiing Speed" xmlns="http://www.w3.org/2000/svg" viewBox="0 0 56.69 56.69"><defs><style>.cls-1{fill:#121212}</style></defs><path class="cls-1" d="M40.417 24.346a3.1 3.1 0 0 0 3.812-1.967 3.147 3.147 0 0 0-.027-2.333 2.679 2.679 0 0 0-1.6-1.514 3.1 3.1 0 0 0-3.81 1.966 2.91 2.91 0 0 0 1.625 3.848zM34.161 34.483c-.05-.014-.1-.027-.152-.037-2.1-.411-4.176-.795-5.728-1.068a102.339 102.339 0 0 0-2.232-.371 14.943 14.943 0 0 0-1.055 2.744 4.692 4.692 0 0 0 .682.257c.434.149 1.057.354 1.807.6.971.313 2.157.687 3.429 1.079-.2.608-.388 1.207-.561 1.787l-.455 1.724c-.12.546-.224 1.056-.315 1.515l-.049.251c-.027.16-.083.386-.12.663l-.306 2.022c-.112.735-.159 1.48-.221 2.036l-.092.907h4.475l.051-.492c.057-.508.109-1.189.2-1.866s.2-1.352.281-1.858c.033-.254.086-.462.11-.609l.046-.231c.082-.421.166-.893.258-1.4s.213-1.041.328-1.6.256-1.139.4-1.723l.224-.877.234-.828.075-.268a1.9 1.9 0 0 0-1.314-2.357z"/><path class="cls-1" d="M43.173 39.254c.158.073.3.14.435.2l2.1-2.392a9.222 9.222 0 0 0-.223-.114l-.379-.186c-.148-.076-.312-.174-.5-.276s-.39-.226-.605-.366c-.108-.07-.225-.137-.338-.218l-.352-.253c-.248-.165-.485-.38-.75-.586-.249-.227-.523-.452-.778-.723a14.5 14.5 0 0 1-2.937-4.273 18.291 18.291 0 0 1-1.05-2.895 18.837 18.837 0 0 1-.486-2.378 23.203 23.203 0 0 1-.076-.741 1.858 1.858 0 0 0-1.779-1.84h-.2a17.1 17.1 0 0 0-6.382 1.109 18.325 18.325 0 0 0-5.507 3.358 23.07 23.07 0 0 0-3.937 4.509 24.608 24.608 0 0 0-2.114 3.846l-12.341 6.2v5.155l15.174-7.626h.01a2.3 2.3 0 0 0 1.11-1.236 20.547 20.547 0 0 1 .923-2.062c.274-.535.581-1.076.918-1.616a19.521 19.521 0 0 1 3.191-3.913 14.363 14.363 0 0 1 4.137-2.73 12.832 12.832 0 0 1 3.176-.886c0 .022.009.044.014.066.146.643.32 1.269.514 1.878a21.868 21.868 0 0 0 1.43 3.426 17.723 17.723 0 0 0 3.916 5.1c.34.319.7.587 1.029.851.346.243.66.488.982.679l.459.287c.147.09.3.166.435.245.281.155.539.294.781.401zM52.64 45.853a1.367 1.367 0 0 0-1.365-1.362h-.454l-1.181-2.612a.779.779 0 0 0-.711-.46l-4.375.006.691 1.563h3.179l.684 1.512-5.395.007a1.367 1.367 0 0 0-1.362 1.365v1.363a1.367 1.367 0 0 0 1.266 1.357H46.417l4.864-.006a1.368 1.368 0 0 0 1.361-1.365z"/></svg>