<svg id="Alpine_Skiing_Speed" data-name="Alpine Skiing Speed" xmlns="http://www.w3.org/2000/svg" viewBox="0 0 56.69 56.69"><defs><style>.cls-1{fill:#121212}</style></defs><path class="cls-1" d="M36.311 48.738l-.293-.187c-.309-.2-.656-.425-1.044-.66l-.35-.2c-.423-.244-.862-.5-1.341-.731a28.675 28.675 0 0 0-3.963-1.68 25.532 25.532 0 0 0-3.658-.958s-.3-.053-.756-.126l-.213-.029-.078.07c-.59.524-1.934 1.715-3 2.658l-.672.6.818.018c.111 0 .232 0 .375.013l.266.019c.166.008.336.016.516.038.5.04 1 .106 1.455.17l.667.108c.882.158 2.054.38 3.3.694a33.972 33.972 0 0 1 3.716 1.163c.41.145.795.307 1.192.472l1.763.786c.381.194.684.342.9.445.083.04.182.092.27.141l.066.033.113-.193-.109.2.186.105 1.26-1.963-.508-.363a18.688 18.688 0 0 0-.878-.643zM13.094 46.866a3.326 3.326 0 0 0-.852.109 3.166 3.166 0 0 0-1.891 1.372 2.683 2.683 0 0 0-.309 2.182A3.026 3.026 0 0 0 13 52.618a3.409 3.409 0 0 0 .853-.111A3.152 3.152 0 0 0 15.8 51.04a2.689 2.689 0 0 0 .258-2.086 3.035 3.035 0 0 0-2.964-2.088zM52.529 27.807L36.524 17.534a51.274 51.274 0 0 0 .88-3.041l13.855 7.3-.225-1.968L19.94 3.438l-.76 1.448 14 7.38a31.278 31.278 0 0 1-.5 1.987c-.06.218-.127.45-.2.687L22.8 8.707l-.885 1.375 10.074 6.479a55.275 55.275 0 0 1-.9 2.524 68.794 68.794 0 0 1-2 4.72c-.537 1.147-.943 1.946-1.021 2.1a89.587 89.587 0 0 1-4.83 8.395 86.596 86.596 0 0 1-4.5 6.281l-.063-.164a47.69 47.69 0 0 0-1.466-3.519 45.732 45.732 0 0 0-3.191-5.783 37.558 37.558 0 0 0-2.726-3.686c-.3-.362-.559-.647-.752-.86l-.144-.16-2.3 1.934.2.276c.156.213.369.51.541.744a40.2 40.2 0 0 1 2.3 3.532 44.429 44.429 0 0 1 2.675 5.484 44.095 44.095 0 0 1 1.2 3.31 34.186 34.186 0 0 1 .755 2.64l.106.439c.033.142.07.31.09.411a1.993 1.993 0 0 0 1.955 1.627 1.946 1.946 0 0 0 .373-.035 1.986 1.986 0 0 0 1.094-.6l.154-.171a85.964 85.964 0 0 0 2.344-2.653 82.6 82.6 0 0 0 5.049-6.564 78.65 78.65 0 0 0 2.09-3.187l.545-.734c.516-.707 1.221-1.693 1.988-2.768l2.416-3.277c.4-.525.785-1.037 1.137-1.513s.7-.94 1-1.321l.422-.564c.205-.285.479-.619.787-1l.168-.2c.24-.312.49-.588.719-.843.087-.093.17-.186.232-.259l.248-.25 13.966 8.978z"/></svg>