<svg id="Alpine_Skiing_Speed" data-name="Alpine Skiing Speed" xmlns="http://www.w3.org/2000/svg" viewBox="0 0 56.69 56.69"><defs><style>.cls-1{fill:#121212}</style></defs><path class="cls-1" d="M34.319 43.213c-.4-2.983-1.314-7.8-1.687-9.736-.322-1.665-.627-3.17-.857-4.264-.088-.424-.166-.78-.228-1.064l-.078-.355-.281.229a17.049 17.049 0 0 1-2.562 1.747l-.123.067.008.141c.068 1.083.166 2.482.283 4.016.15 1.941.541 6.789.949 9.836l.643 4.764h-2.417l-.978 1.636h10l.977-1.636h-2.92zM38.543 16.11a2.735 2.735 0 0 0 .879.148 2.65 2.65 0 0 0 1.318-.353 3.093 3.093 0 0 0 1.039-4.16 3.05 3.05 0 0 0-2.656-1.662 2.6 2.6 0 0 0-1.31.347 3.2 3.2 0 0 0 .73 5.681zM53.11 20.255l-.631.124c-.076.015-.156.026-.248.04l-.211.033a18.269 18.269 0 0 1-2.7.221h-.3A26.82 26.82 0 0 1 46 20.5c-.894-.1-1.829-.249-2.855-.445l-.574-.12c-.333-.064-.785-.186-1.182-.29a6.975 6.975 0 0 1-.412-.123l-1.4-.482-1.215 3.28 1.5.519c.176.054.353.112.529.161.535.142 1.047.277 1.437.355.2.04.365.076.49.105l.167.03a21 21 0 0 0 3.3.326c.174 0 .351.007.527.007a23.69 23.69 0 0 0 3.248-.222 17.568 17.568 0 0 0 3.074-.713l.2-.068c.116-.039.222-.076.323-.116l.723-.311zM32.041 24.423a29.136 29.136 0 0 0 2.49-1.889 28.365 28.365 0 0 0 1.721-1.593l.572-.6a2.016 2.016 0 0 0 .449-.768 1.98 1.98 0 0 0-.455-1.948 1.477 1.477 0 0 0-.521-.355l-.223-.089c-.264-.108-.516-.219-.764-.327l-.2-.083c-.18-.075-.359-.151-.543-.238a12.958 12.958 0 0 1-.717-.345l-.1-.051c-.2-.1-.4-.2-.6-.318a23.59 23.59 0 0 1-2.578-1.636 25.362 25.362 0 0 1-3.926-3.561 27.4 27.4 0 0 1-2.213-2.934l-.506-.8-2.463 1.836.292.563a27.554 27.554 0 0 0 2.3 3.485A27.949 27.949 0 0 0 28.33 17.1a26.609 26.609 0 0 0 2.892 2.039c.18.115.359.22.543.325-.641.49-1.326.964-2.04 1.41a20.89 20.89 0 0 1-4.663 2.2 15.023 15.023 0 0 1-4.535.763h-.208a14.841 14.841 0 0 1-1.813-.125l-.922-.156-1.4-.377-1.34-.51a16.6 16.6 0 0 1-3.756-2.278l-.484-.381a5.83 5.83 0 0 1-.469-.4l-1.931-1.89-.392-.412-1.461-1.75-3.546 2.957 1.785 2.1 1.461 1.512 1.045.963a6.725 6.725 0 0 0 .568.48l.588.469a21.211 21.211 0 0 0 4.768 2.875l.988.4 1.584.5c.334.086.68.174 1.051.262l1.256.2a18.68 18.68 0 0 0 2.216.136q.258 0 .518-.009a19.133 19.133 0 0 0 5.861-1.131 24.8 24.8 0 0 0 5.217-2.627z"/></svg>