<svg id="Alpine_Skiing_Speed" data-name="Alpine Skiing Speed" xmlns="http://www.w3.org/2000/svg" viewBox="0 0 56.69 56.69"><defs><style>.cls-1{fill:#121212}</style></defs><path class="cls-1" d="M19.682 36.3a1.833 1.833 0 0 0 1.135-.527 435.473 435.473 0 0 0 4.912-5.01l1.057-1.1-2.414-2.223-.15.123c-.253.2-.529.428-.824.674a443.16 443.16 0 0 0-4.746 3.946l-1.785.064c-.568.03-1.127.081-1.67.128l-.705.062-2.16.28c-.516.078-1 .172-1.512.268l-.309.063c-.066 0-1.135.224-1.154.228l-2.4.59c-.324.068-.635.165-.943.261l-.321.1v4.828l1.62-.5c.266-.081.541-.167.828-.23l2.207-.542c.618-.128 1.029-.206 1.033-.207l1.711-.345 1.988-.353c.289-.041.574-.085.912-.136.416-.063.84-.131 1.262-.182zM50.332 11.817a2.811 2.811 0 0 0-2.019-1.1 3.21 3.21 0 0 0-3.32 2.992 3.288 3.288 0 0 0 .717 2.437 2.8 2.8 0 0 0 1.941 1.014c.072 0 .143.008.213.008a3.353 3.353 0 0 0 2.469-5.346z"/><path class="cls-1" d="M32.827 31.772l.02-.258a18.252 18.252 0 0 1 .193-1.445c.113-.667.265-1.35.449-2.026a17.324 17.324 0 0 1 1.645-4.033 13.81 13.81 0 0 1 1.248-1.822 12.18 12.18 0 0 1 1.561-1.557 10.605 10.605 0 0 1 1.85-1.208 12.187 12.187 0 0 1 2.082-.825l.135-.042a2 2 0 0 0 .969-.664 2.032 2.032 0 0 0-.31-2.852c-.125-.1-.2-.154-.285-.217l-.3-.218c-.18-.122-.36-.245-.541-.358a19.889 19.889 0 0 0-1.094-.649 22.506 22.506 0 0 0-2.249-1.079 22.163 22.163 0 0 0-4.588-1.341 20.754 20.754 0 0 0-4.422-.285 20.259 20.259 0 0 0-3.887.552 21.955 21.955 0 0 0-5.336 2.094c-.338.178-.623.345-.865.494l-.617.392 10.156 14.29a15.616 15.616 0 0 0-.37 2.37l-8.753 15.873h-1.945l-.85 1.63H26.8l.85-1.63h-2.857l7.353-13.324L40.958 46a1.431 1.431 0 0 0 .786.629l7.611 1.963v-2.849l-7.482-1.28zm-1.5-10.022a20.987 20.987 0 0 0-2.152 4.895l-7.456-10.462a19.943 19.943 0 0 1 4.318-1.4 17.284 17.284 0 0 1 6.857.083 18.438 18.438 0 0 1 3.732 1.257l.232.11a13.616 13.616 0 0 0-1.557 1.03 16.09 16.09 0 0 0-2.232 2.094 17.508 17.508 0 0 0-1.742 2.392z"/></svg>