<svg id="Alpine_Skiing_Speed" data-name="Alpine Skiing Speed" xmlns="http://www.w3.org/2000/svg" viewBox="0 0 56.69 56.69"><defs><style>.cls-1{fill:#121212}</style></defs><path class="cls-1" d="M51.16 42.867c-.088-.048-.17-.1-.295-.165l-2.545-1.47-1.343-.821a24.931 24.931 0 0 1-.878-.557 28.627 28.627 0 0 0-.49-.316l-3.921-2.608-3.355-2.355c-2.986-2.122-21.524-15.7-21.715-15.84l-.051-.035a3.1 3.1 0 0 0-4.892 2.525 3.115 3.115 0 0 0 1.3 2.522l.5.4c2.353 1.865 12.2 9.67 13.608 10.776l.173.136 1.512-1.822c2.6 1.984 4.912 3.7 6.883 5.1l3.617 2.533 3.836 2.548c.17.108.342.222.512.332.3.2.605.393.916.58l3.4 2.017 4.738-2.724zM8.125 29.729l33.807 18.818.076.043 3.375-.778L8.9 28.344l-.775 1.385zM10.612 18.163a3.234 3.234 0 0 0 2.3-3.841 3.3 3.3 0 0 0-1.312-2.05 2.82 2.82 0 0 0-2.253-.459 3.227 3.227 0 0 0-2.294 3.837A3.107 3.107 0 0 0 10 18.231a2.853 2.853 0 0 0 .612-.068z"/></svg>