<svg id="Alpine_Skiing_Speed" data-name="Alpine Skiing Speed" xmlns="http://www.w3.org/2000/svg" viewBox="0 0 56.69 56.69"><defs><style>.cls-1{fill:#121212}</style></defs><path class="cls-1" d="M40.564 47.007l.006-.033.068-.269c.02-.075.037-.147.059-.244l-.219-.05.234-.014c.022-.088.043-.18.066-.266.043-.136.081-.267.119-.394l.021-.075c.082-.287.158-.539.238-.756l.189-.546c.316-.89.976-2.742 1.736-4.448l.075-.17a1.558 1.558 0 0 0-.425-1.821 200.572 200.572 0 0 0-3.076-2.524c-.3-.239-.848-.664-1.148-.9l-.333-.255-.174.387a11.6 11.6 0 0 0-.715 2.125l-.039.172.48.532a210 210 0 0 0 1.807 1.942 29.136 29.136 0 0 0-1.687 3.711l-.211.611c-.1.259-.191.584-.293.927l-.145.493c-.057.2-.109.424-.166.667l-.133.577-.057.35-9.459-.683 6.993-7.781a1.954 1.954 0 0 0 .376-.618l.18-.451c.025-.061.051-.125.082-.194a17.34 17.34 0 0 1 1.093-2.051 19.524 19.524 0 0 1 2.039-2.724 18.315 18.315 0 0 1 5.7-4.275l.078-.035a1.722 1.722 0 0 0 .051-3.066 2.209 2.209 0 0 0-.211-.1l-.275-.129a12.38 12.38 0 0 0-.432-.182c-.264-.1-.541-.2-.871-.312a15.41 15.41 0 0 0-1.749-.452 15.856 15.856 0 0 0-1.757-.226 14.556 14.556 0 0 0-1.719 0 11.523 11.523 0 0 0-3.185.662 11.891 11.891 0 0 0-2.566 1.3 13.632 13.632 0 0 0-3 2.8c-.261.316-.444.583-.579.78l-.193.288L14.7 31.524l-.2.038-.489 1.64 15.869-2.783.105-.044.053-.062c.254-.3.682-.767.687-.772a11.25 11.25 0 0 1 2.069-1.641 8.8 8.8 0 0 1 4.32-1.24h.2c.334 0 .691.021 1.089.06.143.018.29.038.436.062a20.286 20.286 0 0 0-3.439 2.911 22.334 22.334 0 0 0-2.539 3.207c-.384.6-.7 1.142-.976 1.665-.135.256-.273.531-.418.848-.045.092-.086.187-.123.27l-.121.261-8.894 9.866-.135.151.986 2.633-11.436-3.236-.418 1.474L40.1 54.978l1.7-1.115-17.09-4.835 1.375-1.528 26.793 1.93.1.008L54.4 48zM47.347 26.5a2.333 2.333 0 0 0 .639.091 2.669 2.669 0 0 0 2.47-1.891 2.627 2.627 0 0 0-.119-1.949 2.266 2.266 0 0 0-1.412-1.2 2.228 2.228 0 0 0-.641-.091 2.666 2.666 0 0 0-2.469 1.888 2.639 2.639 0 0 0 .164 2.031 2.274 2.274 0 0 0 1.368 1.121zM42.441 6.67a2.191 2.191 0 0 0 .309.019 2.661 2.661 0 0 0 2.531-2.3 2.687 2.687 0 0 0-.424-1.933 2.289 2.289 0 0 0-1.6-.99 2.624 2.624 0 0 0-2.838 2.284 2.668 2.668 0 0 0 .478 2.01 2.276 2.276 0 0 0 1.544.91zM33.04 17.636l.26-2.026-18.256 11.211c.084-.124.162-.237.205-.291l1.346-1.8c.076-.1.156-.2.238-.3L18.009 23c.059-.068.113-.139.172-.206l1.234-1.394c.178-.206.365-.4.553-.592l2.447-2.44a61.869 61.869 0 0 1 6.867-5.568c1.346-.94 2.8-1.881 4.334-2.8a102.085 102.085 0 0 1 4.625-2.558l.079-.042a1.721 1.721 0 0 0 0-3.051l-.3-.147a2.813 2.813 0 0 0-.266-.116c-.187-.074-.351-.141-.5-.186a11.145 11.145 0 0 0-.986-.293c-.221-.062-.443-.1-.658-.148l-.316-.059a23.205 23.205 0 0 0-.659-.1l-.284-.039c-.2-.025-.406-.04-.611-.051l-.316-.024c-.275-.026-.547-.026-.834-.028H32c-.135 0-.271 0-.4.014l-.877.057a23.207 23.207 0 0 0-5.943 1.349l-1.18.429-1.889.848c-.133.067-.262.136-.388.2l-.331.174c-.317.173-.582.315-.793.429l-.233.123.673 2.631 1.792-.8.438-.2 1.764-.678 1.085-.334a20.779 20.779 0 0 1 5.219-.945l.853-.022c.1 0 .205.006.31.012l.311.015h.022l-.646.35a70.893 70.893 0 0 0-4.662 2.821 56.709 56.709 0 0 0-7.425 5.84l-1.877 1.84-.764.793c-.192.2-.39.4-.576.618l-1.318 1.485c-.082.093-.162.193-.25.3l-1.256 1.535a43.61 43.61 0 0 1-.2.249l-1.135 1.514c-.1.13-.378.517-.514.705l-.1.135L12.8 28.2 2.491 34.53l.833 1.355 29.624-18.19z"/></svg>