<svg id="Alpine_Skiing_Speed" data-name="Alpine Skiing Speed" xmlns="http://www.w3.org/2000/svg" viewBox="0 0 56.69 56.69"><defs><style>.cls-1{fill:#121212}</style></defs><path class="cls-1" d="M32.649 40.287a3.347 3.347 0 0 0-2.834 3.659 3.394 3.394 0 0 0 1.09 2.266 2.876 2.876 0 0 0 1.939.767 2.619 2.619 0 0 0 .316-.017 3.338 3.338 0 0 0 2.83-3.654 3.124 3.124 0 0 0-3.341-3.021zM15.473 4.113l-.1-.074-1.865.611 9.637 7.6-1.572 3.284c-.879 1.837-2.045 4.871-2.5 6.09-.4 1.057-.752 2.021-1 2.726-.06.171-.114.327-.159.463l-.109.326 3.871-.356.059-.1c.258-.426.537-.9.828-1.392.664-1.128 2.307-3.948 3.178-5.769l1.121-2.345 4.941 3.9-1.118.906c-.146.123-.292.246-.435.376-.791.7-1.584 1.462-2.5 2.391a72.021 72.021 0 0 0-2.315 2.5c-.372.424-.741.855-1.1 1.288-.113.135-.221.264-.328.4-.023 0-8.823-.367-9.743-.4h-.049a.941.941 0 0 0-.383.018 2.236 2.236 0 0 0-1.932 2.52 12.426 12.426 0 0 0 1.664 4.791A15.329 15.329 0 0 0 16.9 37.72a22.037 22.037 0 0 0 4.025 2.655 21.323 21.323 0 0 0-2.568 1.748c-.355.266-.682.548-1.006.834l-.4.345c-.106.1-.213.2-.32.306l-.3.292c-.23.22-.422.4-.592.593l-.126.136c-.343.361-.665.7-.958 1.063l-.928 1.158a25.208 25.208 0 0 0-2.389 3.818c-.105.191-.186.37-.266.542l-.441 1 2.725 1.25.477-.862c.072-.131.152-.278.256-.439a23.922 23.922 0 0 1 2.271-3.208l.871-.977c.236-.266.5-.522.807-.818l.174-.169c.148-.148.312-.29.486-.441l.609-.531.4-.316c.242-.19.542-.43.861-.642a18.4 18.4 0 0 1 2.809-1.675 15.43 15.43 0 0 1 3.176-1.145 1.98 1.98 0 0 0 .2-3.8l-1.012-.363a20.271 20.271 0 0 1-.937-.4 23.239 23.239 0 0 1-1.818-.915 17.945 17.945 0 0 1-3.254-2.295 11.093 11.093 0 0 1-2.313-2.83 7.152 7.152 0 0 1-.206-.388c1.609.087 7.768.376 7.773.376h.086a2.344 2.344 0 0 0 1.836-.884 57.63 57.63 0 0 1 2.031-2.427 63.748 63.748 0 0 1 2.149-2.327 44.306 44.306 0 0 1 2.253-2.156 81.506 81.506 0 0 1 1.408-1.167l.842-.614 2.418 1.908-.5.713c-.158.23-.338.469-.534.725l-.1.132-.316.424c-.265.368-.577.766-.9 1.183l-.289.369c-1.721 2.2-3.894 4.72-5.236 6.216l-.134.156c-.072.089-.183.205-.315.344l-1.188 1.258a5.992 5.992 0 0 1-.45.441l-.978.906.342.125a20.113 20.113 0 0 0 3.581.976l.117.019 1.237-1.31c.141-.149.26-.272.33-.361l.15-.175a55.876 55.876 0 0 0 5.01-6.864 50.967 50.967 0 0 0 1.9-3.257l.236-.471 4.25 3.351 1.863-.611z"/></svg>