<svg id="Alpine_Skiing_Speed" data-name="Alpine Skiing Speed" xmlns="http://www.w3.org/2000/svg" viewBox="0 0 56.69 56.69"><defs><style>.cls-1{fill:#121212}</style></defs><path class="cls-1" d="M46.021 15.566l-.376-.184c-.112-.053-.22-.1-.319-.137a5.951 5.951 0 0 0-.605-.227l-.232-.079c-.125-.041-.25-.084-.373-.116l-.594-.161a11.737 11.737 0 0 0-.791-.176c-.129-.027-.258-.051-.4-.083-.246-.042-.5-.075-.764-.112l-.391-.056c-.24-.029-.478-.047-.761-.064l-.38-.027a9.646 9.646 0 0 0-.941-.034h-.8c-.16 0-.32 0-.475.016l-1.076.071a28.4 28.4 0 0 0-7.283 1.651l-1.771.678-1.991.891c-.217.109-.424.219-.619.324l-1.432.768.908 2.915 1.926-.864c.169-.079.349-.162.529-.239l2.527-.95.986-.309a26.463 26.463 0 0 1 6.463-1.167 21.349 21.349 0 0 1 2.351.029c-.412.22-.823.439-1.234.664a88.487 88.487 0 0 0-5.732 3.467 69.778 69.778 0 0 0-9.12 7.176l-1.187 1.134c-.123.116-.252.242-.4.379l-1.621 1.681c-.25.258-.506.523-.75.806l-1.623 1.826c-.094.11-.186.223-.279.337l-1.471 1.8a8.914 8.914 0 0 0-.342.424l-1.82 2.432c-.082.109-.154.216-.225.319l-.06.089 1.346 4.411-12.662 7.775.881 1.434 36.32-22.3.092-.056.272-2.141-22.777 13.981c.086-.126.5-.731.62-.9l1.216-1.623c.146-.194.762-.981.919-1.179l.985-1.208c.167-.2.842-.99 1.013-1.182q.514-.576 1-1.128c.226-.263.462-.508.7-.748l1.145-1.185c.133-.14.641-.642.756-.752l1.107-1.057a76.387 76.387 0 0 1 8.467-6.871 90.848 90.848 0 0 1 5.346-3.445 123.228 123.228 0 0 1 5.7-3.154l.1-.05a1.983 1.983 0 0 0 0-3.513zM54.014 13.246a2.684 2.684 0 0 0-1.878-1.162 3.107 3.107 0 0 0-3.338 2.7 3.153 3.153 0 0 0 .564 2.368 2.673 2.673 0 0 0 1.809 1.07 2.645 2.645 0 0 0 .35.024 3.225 3.225 0 0 0 2.493-5z"/></svg>