<svg id="Alpine_Skiing_Speed" data-name="Alpine Skiing Speed" xmlns="http://www.w3.org/2000/svg" viewBox="0 0 56.69 56.69"><defs><style>.cls-1{fill:#121212}</style></defs><path class="cls-1" d="M11.926 15.016A60.803 60.803 0 0 0 15.66 18.3c.252.213.514.416.775.619l.943.732.083.039a46.483 46.483 0 0 0 8.989 2.61c.09.019.216.039.353.061l.949.153-.783-.557c-.238-.17-.544-.378-.891-.615l-3-2.32-1.5-1.276-1.021-.91a35.081 35.081 0 0 1-.742-.672l-.66-.61c-.2-.187-.4-.372-.6-.568-.806-.754-1.568-1.5-2.252-2.168l-.152-.149-1.006-.976c-.029-.029-.5-.479-1.1-1.084l-.139-.138L10.2 13.3l.178.181c.822.827 1.507 1.496 1.548 1.535zM40.324 39.112c-.664-1.025-1.655-2.556-1.959-3.022l4.927 1.888a1.962 1.962 0 0 0 2.619-2.257 8.368 8.368 0 0 0-.883-2.331A8.958 8.958 0 0 0 43.6 31.5a10.689 10.689 0 0 0-.762-.724l-.219-.185c-.239-.194-.48-.389-.723-.555a16 16 0 0 0-1.82-1.14 35.86 35.86 0 0 0-7.376-2.824c-1.036-.3-2.052-.557-3.034-.811l-.57-.149c-.3-.077-.595-.155-.883-.234-.2-.053-.388-.107-.58-.16l-3.041-.91-2.754-.908-1.977-.714a22.426 22.426 0 0 1-1.3-.5l-.574-.227a45.589 45.589 0 0 1-1.1-.443 64.485 64.485 0 0 1-4.441-2.051 43.71 43.71 0 0 1-5.137-3.028 15.67 15.67 0 0 1-.361-.258l-.135-.1-3.8 2.9.226.18c.467.368.945.723 1.422 1.051a48.1 48.1 0 0 0 5.685 3.362 67.867 67.867 0 0 0 5.926 2.667l.557.222c.568.225 1.059.42 1.428.547l2.09.747 3.545 1.11 2.537.721a74.81 74.81 0 0 0 1.709.422l.719.171c.9.212 1.794.424 2.69.654.556.145 1.112.293 1.667.452a1.825 1.825 0 0 0-.41.22 1.745 1.745 0 0 0-.709 1.148 1.763 1.763 0 0 0 .31 1.316L36.26 38.8l-20.7-5.646-.215-.059-.445 1.628 35.977 9.813 1.771-1.26-11.691-3.19zM52.793 32.491a2.905 2.905 0 0 0-1.738-.562 3.423 3.423 0 0 0-2.666 1.326A3.289 3.289 0 0 0 47.7 35.7a2.784 2.784 0 0 0 1.1 1.891 2.888 2.888 0 0 0 1.74.565 3.431 3.431 0 0 0 2.667-1.328 3.281 3.281 0 0 0 .7-2.327 2.792 2.792 0 0 0-1.114-2.01z"/></svg>