<svg id="Alpine_Skiing_Speed" data-name="Alpine Skiing Speed" xmlns="http://www.w3.org/2000/svg" viewBox="0 0 56.69 56.69"><defs><style>.cls-1{fill:#121212}</style></defs><path class="cls-1" d="M35.4 33.127a403.827 403.827 0 0 0-6.953-1.638l-.521-.117-.084.139a32.46 32.46 0 0 0-1.418 2.688l-.1.222 1.154.416c1.186.427 2.621.933 4.141 1.462-.238.43-.457.856-.663 1.276a28.7 28.7 0 0 0-1.326 3.188 61.7 61.7 0 0 0-.331 1.03c-.07.212-.135.453-.217.747l-.088.324c-.119.41-.217.84-.309 1.25l-.289 1.443c-.066.361-.127.7-.15.939l-.059.434h-1.862l-.885 1.636h9.23l.887-1.636h-2.72c.031-.224.07-.437.115-.665l.23-1.138c.081-.361.165-.726.262-1.067l.09-.323c.06-.215.113-.416.176-.6l.2-.647c.047-.15.08-.235.085-.25.251-.733.6-1.712 1.052-2.794.182-.433.429-1 .711-1.582.107-.233.227-.463.344-.692l.145-.274c.038-.073.075-.146.114-.213l.33-.595a1.934 1.934 0 0 0 .2-.5 2.035 2.035 0 0 0-1.491-2.463z"/><path class="cls-1" d="M42.169 25.194a.908.908 0 0 0-.043-.088l-.088-.163a5.18 5.18 0 0 0-.16-.278l-.092-.149c-.078-.127-.154-.252-.236-.361l-.072-.105c-.09-.129-.178-.259-.277-.392l-.72-.875-.381-.413c-.16-.176-.33-.335-.525-.519l-.674-.61-1.256-.966-.3-.206c-.18-.124-.359-.246-.547-.361l-.863-.493a21.308 21.308 0 0 0-6.49-2.232c-.465-.079-2.209-.308-2.59-.341s-1.7-.1-1.969-.1H23.63l-.441.007v2.982l1.543.125a37.26 37.26 0 0 1 1.764.2c.33.049 1.836.323 2.266.42a18 18 0 0 1 5.365 2.113l.676.422c.147.1.277.2.41.3.082.064.164.127.228.17l.032.025a21.855 21.855 0 0 0-1.717.009 17.5 17.5 0 0 0-7.224 1.855 16.752 16.752 0 0 0-3.087 2.055l-.3.276a12.508 12.508 0 0 0-.978.954l-.21.221c-.131.141-.264.279-.383.427l-.542.671a20.172 20.172 0 0 0-2.636 4.534c-.208.1-7.014 3.41-11.085 5.383l-3.269 1.572V46.4l5.51-2.678c4.887-2.373 11.3-5.5 11.643-5.658a2.313 2.313 0 0 0 1.142-1.246c.24-.622.48-1.181.736-1.713a15.1 15.1 0 0 1 1.56-2.593l.4-.514c.08-.105.17-.2.26-.3.056-.059.113-.122.168-.187a7.558 7.558 0 0 1 .627-.644l.041-.038c.084-.082.17-.163.24-.233l.074-.064a12.708 12.708 0 0 1 2.133-1.492 13.472 13.472 0 0 1 5.44-1.558 17.68 17.68 0 0 1 2.971.012 17.178 17.178 0 0 1 2.175.32l.828.2a1.943 1.943 0 0 0 2.229-2.714zM49.372 22.318a2.7 2.7 0 0 0-1.982-.979h-.1a3.207 3.207 0 0 0-2.186 5.3 2.679 2.679 0 0 0 1.9.9h.1a3.211 3.211 0 0 0 2.266-5.223z"/></svg>