<svg id="Alpine_Skiing_Speed" data-name="Alpine Skiing Speed" xmlns="http://www.w3.org/2000/svg" viewBox="0 0 56.69 56.69"><defs><style>.cls-1{fill:#121212}</style></defs><path class="cls-1" d="M50.8 28.613a2.914 2.914 0 0 0 2.848-3.522 2.922 2.922 0 0 0-2.844-2.306 2.959 2.959 0 0 0-.608.066 2.911 2.911 0 0 0-2.243 3.456 2.929 2.929 0 0 0 2.847 2.306zM41.813 38.039c-.135-.956-.27-1.86-.379-2.556l-.1-.577-2.761 1.968-.094.1.026 1.33c.031 1.49.08 3.258.143 4.992h-1.181c-.33 0-.764 0-1.162.028l-.455.023-2.6 4.447.567-.053a56.08 56.08 0 0 1 1.831-.147l.851-.043c.328-.021.69-.032 1.137-.047l.782-.027c.272-.01.55-.014.853-.017h.23c.374 0 .757-.009 1.149-.009h.2c.064 0 .135-.006.2-.016a1.949 1.949 0 0 0 1.706-2.162 322.924 322.924 0 0 0-.943-7.234zM52.371 41.476c-.08-.182-.163-.357-.25-.54a19.38 19.38 0 0 1-.437-.968c-.478-1.074-.941-2.306-1.338-3.377a86.522 86.522 0 0 1-.68-1.9l-.029-.083c-.129-.373-.25-.72-.377-1.068a67.411 67.411 0 0 1-.645-1.913c-.149-.47-.3-.939-.4-1.3l-.121-.407-.336.261c-.7.544-1.715 1.348-2.592 2.115l-.109.095.107.341c.273.855.572 1.711.7 2.064.266.725.7 1.859 1.3 3.125.649 1.376 1.239 2.5 1.8 3.443.207.368.426.708.639 1.038l.057.089c.084.131.168.258.252.395.228.339.451.651.648.928l.2.273c.232.294.453.566.619.77l.277.329 1.943-1.4-.617-1.124z"/><path class="cls-1" d="M35.971 39.568V39.5c0-.1 0-.2.008-.306a5.6 5.6 0 0 1 .076-.67 7.118 7.118 0 0 1 .392-1.436 8.755 8.755 0 0 1 1.829-2.852 11.516 11.516 0 0 1 1.742-1.506 19.713 19.713 0 0 1 5.277-2.563l.088-.027a2.022 2.022 0 0 0 .771-3.375 3.638 3.638 0 0 0-.221-.2l-.265-.221c-.128-.1-.257-.2-.431-.324-.3-.212-.59-.4-.869-.569a13.513 13.513 0 0 0-1.807-.895 13.955 13.955 0 0 0-1.867-.608 13.7 13.7 0 0 0-1.852-.319 14.194 14.194 0 0 0-3.5.071 14.364 14.364 0 0 0-1.764.361L33.5 23.9a19.133 19.133 0 0 0-.188-.4l-.044-.095c-.132-.275-.28-.586-.417-.927-.767-1.729-1.5-3.806-2.029-5.329l-.27-.762c-.076-.217-.35-1-.6-1.783-.105-.331-.256-.8-.371-1.205l-.121-.411-.336.263a60.79 60.79 0 0 0-2.427 1.984l-.114.1.1.316c.256.8.539 1.614.658 1.949.248.688.663 1.755 1.225 2.951a36.683 36.683 0 0 0 1.7 3.252c.207.366.422.7.633 1.03l.092.143a19.864 19.864 0 0 0-2.51 1.328c-.352.207-.629.4-.811.53l-.59.412 1.664 2.527.232-.122c.045-.021.1-.051.146-.079l.273-.15c.176-.1.393-.226.658-.352a16.946 16.946 0 0 1 3.377-1.354 11.551 11.551 0 0 1 4.935-.344 10.194 10.194 0 0 1 1.32.3l.309.1c-.207.1-.424.2-.641.315a16.968 16.968 0 0 0-4.268 3.042A12.91 12.91 0 0 0 32.2 35.4a11.352 11.352 0 0 0-.684 2.339 9.5 9.5 0 0 0-.145 1.174l-7.742 7.2-.121.108.622 1.394-3.267 3.017.223 2.191 3.8-3.52.617 1.379 9.771-9.083a2.609 2.609 0 0 0 .697-2.031zM32.011 11.753a2.622 2.622 0 0 0 .575-.062 2.755 2.755 0 0 0 2.119-3.267 2.764 2.764 0 0 0-2.689-2.179 2.989 2.989 0 0 0-.576.061 2.752 2.752 0 0 0-2.121 3.269 2.772 2.772 0 0 0 2.692 2.178zM22.577 29.534c.049 0 .1-.007.155-.013a1.841 1.841 0 0 0 1.632-2.021 292.543 292.543 0 0 0-.814-6.791c-.125-.974-.238-1.8-.328-2.4l-.1-.646-2.622 1.86-.09.068.008 1.333c.016 1.5.043 3.163.08 4.693-.1 0-.179-.006-.252-.006h-.908c-.322 0-.738 0-1.109.027l-.342.016-2.457 4.206.57-.06c.629-.059 1.2-.1 1.614-.128l.8-.042c.311-.02.657-.031 1.044-.042l.212-.008.571-.021c.263-.017.534-.018.841-.018z"/><path class="cls-1" d="M18.008 22.1v-.069a2.683 2.683 0 0 1 .009-.289 4.98 4.98 0 0 1 .07-.631 6.8 6.8 0 0 1 .369-1.354 8.2 8.2 0 0 1 1.727-2.691 11.242 11.242 0 0 1 1.642-1.421 18.7 18.7 0 0 1 4.984-2.42l.084-.026a1.87 1.87 0 0 0 .775-.487A1.914 1.914 0 0 0 27.619 10a4.077 4.077 0 0 0-.211-.19l-.244-.2c-.129-.1-.263-.2-.41-.311-.289-.2-.559-.378-.818-.533a12.179 12.179 0 0 0-1.707-.849 13.622 13.622 0 0 0-1.766-.574 12.878 12.878 0 0 0-1.747-.3 13.251 13.251 0 0 0-3.3.067 14.45 14.45 0 0 0-2.783.68 18.02 18.02 0 0 0-3.7 1.773c-.3.18-.54.342-.755.493l-.568.4 1.578 2.4.359-.2c.068-.037.143-.077.242-.136.168-.1.379-.214.637-.34a15.889 15.889 0 0 1 3.182-1.28 11.029 11.029 0 0 1 4.658-.325 10.5 10.5 0 0 1 1.248.284c.1.029.189.063.281.095-.18.085-.389.184-.6.293a16 16 0 0 0-4.029 2.875 12.147 12.147 0 0 0-2.727 4.034 10.98 10.98 0 0 0-.647 2.212 10.057 10.057 0 0 0-.137 1.112l-7.3 6.783-.121.108.6 1.35-2.985 2.762-.085.076.228 2.022 3.543-3.288.582 1.3 9.231-8.581a2.382 2.382 0 0 0 .66-1.912z"/></svg>