<svg id="Layer_1" data-name="Layer 1" xmlns="http://www.w3.org/2000/svg" xmlns:xlink="http://www.w3.org/1999/xlink" viewBox="0 0 854 134"><defs><style>.cls-1,.cls-2,.cls-3{fill:none;}.cls-2{clip-path:url(#clip-path);}.cls-2,.cls-3{clip-rule:evenodd;}.cls-4{clip-path:url(#clip-path-11);}.cls-5{clip-path:url(#clip-path-12);}.cls-6{clip-path:url(#clip-path-13);}.cls-7{clip-path:url(#clip-path-14);}.cls-16,.cls-20,.cls-8{fill:#0d0d0d;}.cls-9{clip-path:url(#clip-path-15);}.cls-10{clip-path:url(#clip-path-16);}.cls-11{clip-path:url(#clip-path-17);}.cls-12{clip-path:url(#clip-path-18);}.cls-13{clip-path:url(#clip-path-19);}.cls-14{clip-path:url(#clip-path-20);}.cls-15{clip-path:url(#clip-path-21);}.cls-16{font-size:18px;font-family:TE32TextEgyptian-Bold, TE32 Text Egyptian;}.cls-16,.cls-20,.cls-21{font-weight:700;}.cls-17{clip-path:url(#clip-path-22);}.cls-18{fill:#ffe400;}.cls-19{clip-path:url(#clip-path-23);}.cls-20,.cls-21{font-size:32px;font-family:GHGuardianHeadline-Bold, GH Guardian Headline;}.cls-21{fill:#fff;}.cls-22{clip-path:url(#clip-path-24);}</style><clipPath id="clip-path"><rect class="cls-1" width="844" height="124"/></clipPath><clipPath id="clip-path-11" transform="translate(5 5)"><path class="cls-2" d="M200.47,87.89a4.81,4.81,0,0,0,3-1.36c4.38-4.36,9-9.07,12.81-12.94L219,70.74,212.7,65l-.39.32c-.66.52-1.38,1.1-2.15,1.74-3.46,2.8-7.86,6.43-12.38,10.19l-4.65.17c-1.48.08-2.94.21-4.35.33l-1.84.16-5.63.72c-1.35.2-2.62.44-3.94.69l-.81.16c-.17,0-3,.58-3,.59L167.3,81.6c-.84.18-1.65.43-2.46.67l-.84.26V95l4.22-1.28c.69-.21,1.41-.43,2.16-.6l5.76-1.4c1.61-.33,2.68-.53,2.69-.53l4.46-.89,5.18-.91,2.38-.35c1.09-.16,2.19-.34,3.29-.47l6.33-.68Z"/></clipPath><clipPath id="clip-path-12" transform="translate(5 5)"><path class="cls-2" d="M279.24,24.93A7.49,7.49,0,0,0,273.87,22c-4.46-.36-8.34,3.24-8.82,7.87A8.59,8.59,0,0,0,267,36.31,7.47,7.47,0,0,0,272.11,39l.57,0a8.8,8.8,0,0,0,6.56-14.07"/></clipPath><clipPath id="clip-path-13" transform="translate(5 5)"><path class="cls-2" d="M230,50.26A54.37,54.37,0,0,0,224.43,63L205,35.8a52,52,0,0,1,11.25-3.64,45.17,45.17,0,0,1,17.86.22,48.12,48.12,0,0,1,9.72,3.27l.6.29h0a35.52,35.52,0,0,0-4.05,2.68,41.91,41.91,0,0,0-5.82,5.44A45.53,45.53,0,0,0,230,50.26Zm3.91,26,.05-.67c0-.41.08-.81.13-1.22.1-.82.22-1.68.38-2.53.29-1.73.69-3.51,1.17-5.26A44.93,44.93,0,0,1,240,56.13a35.73,35.73,0,0,1,3.25-4.74,31.73,31.73,0,0,1,4.06-4,27.57,27.57,0,0,1,4.82-3.14,31.48,31.48,0,0,1,5.42-2.14l.35-.11a5.27,5.27,0,0,0,1.71-9.14c-.33-.26-.51-.4-.74-.56L258,31.7c-.47-.32-.94-.64-1.41-.93-1-.64-1.95-1.19-2.85-1.69a58.41,58.41,0,0,0-5.84-2.8,57.72,57.72,0,0,0-12-3.48,54.09,54.09,0,0,0-11.52-.74,52.85,52.85,0,0,0-10.12,1.43,57.31,57.31,0,0,0-13.9,5.44c-.88.46-1.62.9-2.26,1.28l-1.61,1L223,68.36a40.53,40.53,0,0,0-1,6.16h0l-22.8,41.24h-5.07L192,120h26.25l2.21-4.24H213l19.15-34.62,23,32.13a3.73,3.73,0,0,0,2,1.63L277,120v-7.4l-19.49-3.33-23.56-33Z"/></clipPath><clipPath id="clip-path-14" transform="translate(5 5)"><path class="cls-2" d="M398.7,105.86c-1-7.71-3.35-20.17-4.3-25.17-.82-4.3-1.6-8.2-2.19-11-.22-1.1-.42-2-.58-2.75l-.2-.92-.72.59a43.68,43.68,0,0,1-6.54,4.52l-.31.17,0,.36c.18,2.8.42,6.42.72,10.38C385,87,386,99.58,387,107.45l1.64,12.32H382.5L380,124h25.51l2.49-4.23h-7.45l-1.85-13.91Z"/></clipPath><clipPath id="clip-path-15" transform="translate(5 5)"><path class="cls-2" d="M410.6,35.62a7,7,0,0,0,2.27.38,6.83,6.83,0,0,0,3.41-.91c3.57-2,4.78-6.86,2.69-10.78A7.88,7.88,0,0,0,412.1,20a6.73,6.73,0,0,0-3.39.9c-3.57,2-4.78,6.87-2.69,10.79a8.08,8.08,0,0,0,4.57,3.93"/></clipPath><clipPath id="clip-path-16" transform="translate(5 5)"><path class="cls-2" d="M447,46.05l-1.63.31-.64.1-.54.08a48.46,48.46,0,0,1-6.95.55h-.78a71.07,71.07,0,0,1-7.78-.44c-2.31-.26-4.72-.62-7.36-1.12l-1.48-.3c-.86-.16-2-.47-3-.73-.45-.12-.77-.22-1.06-.31L412.13,43,409,51.23l3.87,1.3c.45.14.91.28,1.36.4,1.38.36,2.7.69,3.71.89l1.26.26.43.08a55.6,55.6,0,0,0,8.5.82l1.36,0a62.92,62.92,0,0,0,8.37-.55,46.13,46.13,0,0,0,7.92-1.79l.53-.17.83-.29,1.86-.78-2-5.36Z"/></clipPath><clipPath id="clip-path-17" transform="translate(5 5)"><path class="cls-2" d="M394.14,57.63a75.46,75.46,0,0,0,6.48-4.91c1.08-.92,2.07-1.8,3-2.73.49-.46,1-.92,1.45-1.41L406.6,47a5.13,5.13,0,0,0,0-7.06,3.84,3.84,0,0,0-1.36-.92l-.58-.23-2-.85-.52-.22c-.47-.2-.93-.4-1.41-.62s-1.24-.56-1.87-.89l-.26-.13c-.52-.27-1-.53-1.56-.83A61.45,61.45,0,0,1,390.32,31a66.08,66.08,0,0,1-10.22-9.26,71.22,71.22,0,0,1-5.76-7.63L373,12l-6.42,4.79.76,1.46a71.34,71.34,0,0,0,6,9.07,72.84,72.84,0,0,0,11.14,11.25,69.4,69.4,0,0,0,7.53,5.3c.47.3.93.57,1.41.85-1.67,1.27-3.46,2.51-5.31,3.67A54.34,54.34,0,0,1,376,54.11a39.05,39.05,0,0,1-11.81,2h-.54a38.65,38.65,0,0,1-4.72-.33l-2.4-.41-3.64-1-3.49-1.33a43.34,43.34,0,0,1-9.78-5.93l-1.26-1a14.8,14.8,0,0,1-1.22-1l-5-4.91-1-1.07-3.8-4.55L318,42.26l4.65,5.45,3.8,3.93,2.72,2.5a17.59,17.59,0,0,0,1.48,1.25l1.53,1.22a55.25,55.25,0,0,0,12.42,7.48l2.57,1,4.13,1.31c.87.22,1.77.45,2.74.68l3.27.53c.76.08,1.57.16,2.39.22C361,68,362,68,363.07,68l1.35,0A49.89,49.89,0,0,0,379.68,65a64.77,64.77,0,0,0,13.59-6.83l.87-.58Z"/></clipPath><clipPath id="clip-path-18" transform="translate(5 5)"><path class="cls-2" d="M92.71,57.61c3.84,1.36,8.21-1,9.75-5.15a8.39,8.39,0,0,0-.07-6.11,6.93,6.93,0,0,0-4.1-4c-3.83-1.36-8.21,1-9.75,5.15s.34,8.71,4.17,10.07"/></clipPath><clipPath id="clip-path-19" transform="translate(5 5)"><path class="cls-2" d="M76.46,84.88l-.39-.1C70.69,83.71,65.38,82.69,61.41,82c-2-.36-3.64-.65-4.8-.83L55.7,81A39.86,39.86,0,0,0,53,88.22a11.63,11.63,0,0,0,1.74.68c1.11.39,2.7.93,4.62,1.57,2.48.82,5.52,1.81,8.77,2.84-.52,1.6-1,3.18-1.44,4.7s-.8,3.11-1.16,4.54-.57,2.78-.81,4l-.13.66c-.07.42-.21,1-.31,1.74-.21,1.45-.5,3.38-.78,5.32s-.41,3.89-.56,5.36L62.72,122H74.17c0-.36.08-.79.13-1.29.15-1.34.28-3.13.51-4.91s.52-3.56.72-4.89c.08-.67.22-1.22.28-1.6l.12-.61c.21-1.11.42-2.35.66-3.68s.54-2.74.84-4.22.65-3,1-4.53L79,94l.6-2.18.19-.7a5,5,0,0,0-3.36-6.19"/></clipPath><clipPath id="clip-path-20" transform="translate(5 5)"><path class="cls-3" d="M99.4,95.41l1.13.53L106,89.71l-.58-.3-1-.48c-.39-.2-.81-.45-1.3-.72s-1-.59-1.57-1c-.28-.18-.59-.36-.88-.57L99.77,86c-.65-.43-1.26-1-2-1.53s-1.36-1.18-2-1.88a37.79,37.79,0,0,1-7.64-11.13A47.55,47.55,0,0,1,85.42,64c-.37-1.34-.68-2.72-.93-4.11-.13-.7-.24-1.4-.33-2.09-.05-.35-.2-1.89-.2-1.93h0A4.84,4.84,0,0,0,79.32,51H78.8a44.41,44.41,0,0,0-16.61,2.89,47.7,47.7,0,0,0-14.33,8.74A60,60,0,0,0,37.62,74.38a63.73,63.73,0,0,0-5.5,10L0,100.54V114L39.49,94.14h0A6,6,0,0,0,42.4,90.9a53.81,53.81,0,0,1,2.4-5.37c.72-1.39,1.51-2.8,2.39-4.21A50.83,50.83,0,0,1,55.5,71.15,37.38,37.38,0,0,1,66.26,64a33.36,33.36,0,0,1,8.26-2.31l0,.17c.38,1.67.83,3.31,1.34,4.89a57.12,57.12,0,0,0,3.72,8.93A46.2,46.2,0,0,0,89.81,89c.88.83,1.82,1.53,2.68,2.22S94.2,92.49,95,93l1.19.75c.39.23.77.43,1.13.64.73.4,1.4.77,2,1"/></clipPath><clipPath id="clip-path-21" transform="translate(5 5)"><path class="cls-2" d="M125,113.13a3.51,3.51,0,0,0-3.58-3.42h-1.19l-3.1-6.56a2.05,2.05,0,0,0-1.87-1.15h0l-11.48,0,1.81,3.92h8.34l1.79,3.79-14.15,0A3.51,3.51,0,0,0,98,113.16v3.42a3.49,3.49,0,0,0,3.32,3.41h7.34l12.76,0a3.51,3.51,0,0,0,3.57-3.43v-3.42Z"/></clipPath><clipPath id="clip-path-22" transform="translate(5 5)"><rect class="cls-1" x="591" y="41" width="253" height="41"/></clipPath><clipPath id="clip-path-23" transform="translate(5 5)"><rect class="cls-1" x="469" width="257" height="41"/></clipPath><clipPath id="clip-path-24" transform="translate(5 5)"><rect class="cls-1" x="479" width="272" height="39"/></clipPath></defs><title>for-antonio</title><g class="cls-4"><rect x="164" y="65" width="65" height="40"/></g><g class="cls-5"><rect x="265" y="22" width="26" height="27"/></g><g class="cls-6"><rect x="192" y="22" width="95" height="108"/></g><g class="cls-7"><rect class="cls-8" x="380" y="66" width="38" height="68"/></g><g class="cls-9"><rect class="cls-8" x="405" y="20" width="25" height="26"/></g><g class="cls-10"><rect class="cls-8" x="409" y="43" width="50" height="22"/></g><g class="cls-11"><rect class="cls-8" x="318" y="12" width="100" height="66"/></g><g class="cls-12"><rect class="cls-8" x="88" y="42" width="25" height="26"/></g><g class="cls-13"><rect class="cls-8" x="53" y="81" width="37" height="51"/></g><g class="cls-14"><rect class="cls-8" y="51" width="116" height="73"/></g><g class="cls-15"><rect class="cls-8" x="98" y="102" width="37" height="28"/></g><text class="cls-16" transform="translate(535 114)">Stay up to date</text><g class="cls-17"><rect class="cls-18" x="591" y="41" width="263" height="51"/></g><g class="cls-19"><rect class="cls-8" x="469" width="267" height="51"/></g><text class="cls-20" transform="translate(602 76)">Event schedule</text><text class="cls-21" transform="translate(484 37)">Winter Ol</text><g class="cls-22"><text class="cls-21" transform="translate(631.45 37)">y</text></g><text class="cls-21" transform="translate(649.86 37)">mpic</text></svg>