<svg id="Layer_1" data-name="Layer 1" xmlns="http://www.w3.org/2000/svg" xmlns:xlink="http://www.w3.org/1999/xlink" viewBox="0 0 385 262"><defs><style>.cls-1,.cls-2,.cls-3{fill:none;}.cls-2{clip-path:url(#clip-path);}.cls-2,.cls-3{clip-rule:evenodd;}.cls-3{clip-path:url(#clip-path-2);}.cls-4{clip-path:url(#clip-path-14);}.cls-5{fill:#00b1ff;}.cls-6{clip-path:url(#clip-path-15);}.cls-7{fill:#ffe400;}.cls-8{clip-path:url(#clip-path-16);}.cls-9{clip-path:url(#clip-path-17);}.cls-10{fill:#0d0d0d;}.cls-11{clip-path:url(#clip-path-18);}.cls-12{clip-path:url(#clip-path-19);}.cls-13{clip-path:url(#clip-path-20);}.cls-14{clip-path:url(#clip-path-21);}.cls-15{clip-path:url(#clip-path-22);}.cls-16{clip-path:url(#clip-path-23);}.cls-17{clip-path:url(#clip-path-24);}.cls-18{clip-path:url(#clip-path-25);}.cls-19{clip-path:url(#clip-path-26);}.cls-20{clip-path:url(#clip-path-27);}.cls-21{clip-path:url(#clip-path-28);}.cls-22{clip-path:url(#clip-path-29);}.cls-23,.cls-25{fill:#fff;}.cls-24{clip-path:url(#clip-path-30);}.cls-25{font-size:32px;font-family:GHGuardianHeadline-Bold, GH Guardian Headline;font-weight:700;}</style><clipPath id="clip-path"><rect class="cls-1" width="375" height="252"/></clipPath><clipPath id="clip-path-2"><rect class="cls-1" width="375" height="252"/></clipPath><clipPath id="clip-path-14" transform="translate(5 5)"><rect class="cls-1" width="375" height="252"/></clipPath><clipPath id="clip-path-15" transform="translate(5 5)"><path class="cls-3" d="M31,227a21,21,0,1,0-21-21,21,21,0,0,0,21,21Z"/></clipPath><clipPath id="clip-path-16" transform="translate(5 5)"><polygon class="cls-3" points="20 206.91 37.47 206.91 30.62 215.11 31.51 216 41.03 206.46 41.03 205.54 31.51 196 30.62 196.89 37.47 205.09 20 205.09 20 206.91 20 206.91"/></clipPath><clipPath id="clip-path-17" transform="translate(5 5)"><path class="cls-3" d="M171.4,152.36a3.6,3.6,0,0,0,2.22-1c3.29-3.3,6.8-6.88,9.62-9.81l2.07-2.16L180.59,135l-.3.24c-.5.4-1,.84-1.61,1.32-2.6,2.13-5.9,4.87-9.3,7.73l-3.5.13c-1.11.06-2.21.16-3.27.25l-1.38.12-4.23.55c-1,.15-2,.34-3,.52l-.61.12c-.13,0-2.22.44-2.26.45l-4.7,1.15c-.63.14-1.24.33-1.85.51l-.63.2v9.46l3.17-1c.52-.16,1.06-.33,1.62-.45l4.32-1.06,2-.41,3.35-.67,3.89-.69,1.79-.27c.82-.12,1.65-.26,2.47-.35l4.75-.51Z"/></clipPath><clipPath id="clip-path-18" transform="translate(5 5)"><path class="cls-3" d="M230.5,105.18a5.51,5.51,0,0,0-4-2.16,6.29,6.29,0,0,0-6.5,5.86,6.44,6.44,0,0,0,1.4,4.77,5.49,5.49,0,0,0,3.8,2l.42,0a6.57,6.57,0,0,0,4.84-10.47"/></clipPath><clipPath id="clip-path-19" transform="translate(5 5)"><path class="cls-2" d="M193.61,124.3a41,41,0,0,0-4.22,9.59l-14.6-20.49a39,39,0,0,1,8.46-2.74,33.89,33.89,0,0,1,13.43.16,36.12,36.12,0,0,1,7.31,2.46l.45.22h0a26.7,26.7,0,0,0-3,2,31.55,31.55,0,0,0-4.37,4.1,34.32,34.32,0,0,0-3.42,4.68Zm2.94,19.63,0-.5c0-.31.06-.61.1-.92.07-.62.17-1.26.28-1.91.22-1.31.52-2.64.88-4a33.92,33.92,0,0,1,3.22-7.9,26.94,26.94,0,0,1,2.44-3.57,23.89,23.89,0,0,1,3.06-3,20.73,20.73,0,0,1,3.62-2.37,23.65,23.65,0,0,1,4.08-1.62l.26-.08a4,4,0,0,0,1.29-6.89c-.24-.2-.39-.3-.56-.43l-.6-.43c-.35-.24-.71-.48-1.06-.7-.76-.48-1.47-.9-2.14-1.27a43.89,43.89,0,0,0-4.4-2.11,43.33,43.33,0,0,0-9-2.63,40.58,40.58,0,0,0-8.66-.56,39.65,39.65,0,0,0-7.61,1.08,43,43,0,0,0-10.45,4.1c-.66.35-1.22.68-1.7,1l-1.21.77,19.89,28a30.62,30.62,0,0,0-.72,4.64h0l-17.15,31.09h-3.81L165,176.88h19.74l1.66-3.19h-5.6l14.4-26.1,17.26,24.22A2.81,2.81,0,0,0,214,173l14.91,3.85V171.3l-14.66-2.51-17.72-24.86Z"/></clipPath><clipPath id="clip-path-20" transform="translate(5 5)"><path class="cls-3" d="M321.35,166.2c-.79-5.84-2.57-15.28-3.3-19.07-.63-3.26-1.23-6.21-1.68-8.35-.17-.83-.33-1.53-.45-2.08l-.15-.7-.55.45a33.54,33.54,0,0,1-5,3.42L310,140v.28c.14,2.12.33,4.86.56,7.86.29,3.8,1.06,13.3,1.86,19.27l1.26,9.33h-4.73l-1.92,3.2h19.58l1.91-3.2h-5.72l-1.42-10.54Z"/></clipPath><clipPath id="clip-path-21" transform="translate(5 5)"><path class="cls-3" d="M330.24,112.81a5.34,5.34,0,0,0,1.72.29,5.17,5.17,0,0,0,2.58-.69,6.06,6.06,0,0,0,2-8.15,6,6,0,0,0-5.2-3.26,5.1,5.1,0,0,0-2.57.68,6.28,6.28,0,0,0,1.43,11.13"/></clipPath><clipPath id="clip-path-22" transform="translate(5 5)"><path class="cls-3" d="M357.89,121.38l-1.24.24-.49.08-.41.06a35.87,35.87,0,0,1-5.28.43h-.59a52.59,52.59,0,0,1-5.92-.35c-1.75-.2-3.58-.49-5.59-.87l-1.12-.24c-.65-.13-1.54-.36-2.32-.57-.34-.09-.58-.17-.81-.24l-2.75-.94L329,125.43l2.94,1,1,.32c1,.28,2.05.54,2.82.7l1,.21.33.06a41.17,41.17,0,0,0,6.46.64h1a46.57,46.57,0,0,0,6.36-.43,34.28,34.28,0,0,0,6-1.4l.4-.14.63-.23,1.41-.61-1.52-4.19Z"/></clipPath><clipPath id="clip-path-23" transform="translate(5 5)"><path class="cls-3" d="M317.27,129.36a56.76,56.76,0,0,0,4.88-3.7c.81-.69,1.55-1.36,2.28-2.05.37-.35.73-.69,1.09-1.06l1.12-1.19a3.87,3.87,0,0,0,0-5.32,2.89,2.89,0,0,0-1-.69l-.44-.17-1.49-.64-.39-.16c-.35-.15-.7-.3-1.06-.47s-.93-.43-1.4-.67l-.2-.1c-.39-.2-.79-.4-1.18-.62a46.22,46.22,0,0,1-5-3.2,49.72,49.72,0,0,1-7.69-7,53.63,53.63,0,0,1-4.33-5.75l-1-1.58-4.83,3.61.57,1.1a53.73,53.73,0,0,0,4.5,6.83A54.82,54.82,0,0,0,310,115a52.2,52.2,0,0,0,5.67,4c.35.23.7.43,1.06.64-1.26,1-2.6,1.89-4,2.76a40.85,40.85,0,0,1-9.14,4.31,29.34,29.34,0,0,1-8.88,1.49h-.41a29,29,0,0,1-3.55-.24l-1.81-.31-2.74-.74-2.62-1a32.59,32.59,0,0,1-7.36-4.46l-1-.75a11.13,11.13,0,0,1-.92-.78l-3.78-3.7-.77-.81L267,112l-7,5.79,3.5,4.1,2.86,3,2,1.89a13.23,13.23,0,0,0,1.11.94l1.15.92a41.55,41.55,0,0,0,9.34,5.63l1.94.78,3.1,1c.65.17,1.33.34,2.06.51l2.46.4,1.79.17c.95.07,1.75.1,2.54.1l1,0a37.48,37.48,0,0,0,11.48-2.21,48.69,48.69,0,0,0,10.22-5.15l.65-.43Z"/></clipPath><clipPath id="clip-path-24" transform="translate(5 5)"><path class="cls-3" d="M89.55,129.53a6,6,0,0,0,7.35-3.8,6.08,6.08,0,0,0-.05-4.51,5.17,5.17,0,0,0-3.09-2.93,6,6,0,0,0-7.35,3.8,5.63,5.63,0,0,0,3.14,7.44"/></clipPath><clipPath id="clip-path-25" transform="translate(5 5)"><path class="cls-3" d="M77.85,149.92l-.3-.07c-4.09-.81-8.13-1.57-11.16-2.11-1.51-.27-2.77-.49-3.65-.63l-.69-.11A29.74,29.74,0,0,0,60,152.43a8.91,8.91,0,0,0,1.33.51c.84.29,2.06.7,3.52,1.18,1.89.62,4.2,1.36,6.68,2.13-.4,1.2-.76,2.39-1.09,3.54l-.89,3.41c-.23,1.08-.43,2.09-.61,3l-.1.5c-.05.32-.16.76-.23,1.31l-.6,4c-.19,1.46-.31,2.93-.43,4l-.18,1.8h8.71c0-.27.06-.6.1-1,.11-1,.21-2.35.39-3.69s.4-2.67.55-3.68c.06-.5.17-.91.21-1.2l.09-.46c.16-.83.32-1.77.5-2.77l.64-3.17c.25-1.1.5-2.25.78-3.41l.44-1.74.46-1.64.15-.53a3.77,3.77,0,0,0-2.55-4.65"/></clipPath><clipPath id="clip-path-26" transform="translate(5 5)"><path class="cls-3" d="M95.16,158.68l.86.4,4.13-4.72-.44-.23-.75-.37c-.29-.15-.61-.34-1-.55s-.77-.45-1.19-.72c-.21-.14-.44-.27-.67-.43l-.69-.5c-.49-.33-1-.75-1.48-1.16s-1-.89-1.53-1.43a28.66,28.66,0,0,1-5.78-8.44,36.13,36.13,0,0,1-2.07-5.72c-.28-1-.51-2.06-.71-3.12-.1-.53-.18-1.06-.25-1.59,0-.26-.15-1.43-.15-1.46h0A3.67,3.67,0,0,0,80,125h-.4A33.49,33.49,0,0,0,67,127.2a36,36,0,0,0-10.83,6.63,45.44,45.44,0,0,0-7.75,8.91,48.38,48.38,0,0,0-4.16,7.6L20,162.57v10.21l29.85-15.06h0a4.53,4.53,0,0,0,2.19-2.44,40.86,40.86,0,0,1,1.81-4.07c.54-1.05,1.15-2.12,1.81-3.19A38.52,38.52,0,0,1,62,140.28a28.25,28.25,0,0,1,8.14-5.39,25.16,25.16,0,0,1,6.25-1.75l0,.13c.29,1.27.63,2.51,1,3.71a43.39,43.39,0,0,0,2.81,6.77,35,35,0,0,0,7.7,10.07c.67.63,1.38,1.16,2,1.68s1.3,1,1.93,1.34l.9.57c.29.18.58.33.86.48.55.31,1.06.58,1.54.79"/></clipPath><clipPath id="clip-path-27" transform="translate(5 5)"><path class="cls-3" d="M114,171.58a2.65,2.65,0,0,0-2.66-2.63h-.88l-2.3-5.05a1.52,1.52,0,0,0-1.38-.89H98.29l1.35,3h6.19l1.33,2.92H96.65A2.65,2.65,0,0,0,94,171.6v2.63a2.65,2.65,0,0,0,2.46,2.62h14.92a2.65,2.65,0,0,0,2.65-2.64v-2.64Z"/></clipPath><clipPath id="clip-path-28" transform="translate(5 5)"><rect class="cls-1" x="122" y="41" width="253" height="41"/></clipPath><clipPath id="clip-path-29" transform="translate(5 5)"><rect class="cls-1" width="257" height="41"/></clipPath><clipPath id="clip-path-30" transform="translate(5 5)"><rect class="cls-1" x="10" width="272" height="39"/></clipPath></defs><title>WinterOlympicEventSchedule</title><g class="cls-4"><rect class="cls-5" width="385" height="262"/></g><g class="cls-6"><rect class="cls-7" x="10" y="185" width="52" height="52"/></g><g class="cls-8"><rect x="20" y="196" width="31.03" height="30"/></g><g class="cls-9"><rect class="cls-10" x="144" y="135" width="51.31" height="32.75"/></g><g class="cls-11"><rect class="cls-10" x="220" y="103" width="21.79" height="22.65"/></g><g class="cls-12"><rect class="cls-10" x="165" y="103" width="73.92" height="83.88"/></g><g class="cls-13"><rect class="cls-10" x="307" y="136" width="31.49" height="53.95"/></g><g class="cls-14"><rect class="cls-10" x="326" y="101" width="21.36" height="22.1"/></g><g class="cls-15"><rect class="cls-10" x="329" y="119" width="40.41" height="19.37"/></g><g class="cls-16"><rect class="cls-10" x="260" y="95" width="77.69" height="52.17"/></g><g class="cls-17"><rect class="cls-10" x="86" y="118" width="21.3" height="21.82"/></g><g class="cls-18"><rect class="cls-10" x="60" y="147" width="30.55" height="40.82"/></g><g class="cls-19"><rect class="cls-10" x="20" y="125" width="90.14" height="57.78"/></g><g class="cls-20"><rect class="cls-10" x="94" y="163" width="30.04" height="23.87"/></g><path class="cls-10" d="M57.81,209.59l-.18-3.12h1.89l.47,1.69a3.73,3.73,0,0,0,1.76.36c1.26,0,2-.65,2-1.66s-.77-1.49-2.12-2.05l-.94-.38c-1.8-.7-2.92-1.64-2.92-3.83s1.42-3.82,4.7-3.82a10,10,0,0,1,3.46.5l.18,2.84H64.24l-.34-1.35a3.38,3.38,0,0,0-1.53-.34c-1.13,0-1.82.49-1.82,1.48s.56,1.37,1.87,1.85l.92.34c2.11.79,3.38,1.53,3.38,4s-1.69,4.14-4.93,4.14A11.3,11.3,0,0,1,57.81,209.59Z" transform="translate(5 5)"/><path class="cls-10" d="M68.79,207.53v-5.89H67.53v-1.15l1.26-.43v-2.29h2.94v2.32H74v1.55H71.73V207c0,1,.34,1.33,1.37,1.33a4.36,4.36,0,0,0,1-.13v1.28a4.67,4.67,0,0,1-2.41.67C69.83,210.2,68.79,209.55,68.79,207.53Z" transform="translate(5 5)"/><path class="cls-10" d="M74.89,207.5c0-1.94,1.3-2.48,3.38-2.92l1.84-.36v-.67c0-1.28-.36-2.16-1.78-2.16-.2,0-.41,0-.61,0L77.45,203H75.59v-2.5a12.61,12.61,0,0,1,3.92-.61c2.48,0,3.55,1,3.55,3.19v5c0,.5.29.63.7.63h.36v1.13a4.08,4.08,0,0,1-1.87.43,1.6,1.6,0,0,1-1.8-1.24h-.11a3.07,3.07,0,0,1-2.59,1.28A2.65,2.65,0,0,1,74.89,207.5Zm5.22.65V205.5l-1.08.07c-.88.05-1.22.5-1.22,1.5s.36,1.57,1.17,1.57A1.59,1.59,0,0,0,80.11,208.15Z" transform="translate(5 5)"/><path class="cls-10" d="M85.49,213.4v-1.5a4.75,4.75,0,0,0,1.13.16,1.87,1.87,0,0,0,2-1.33l.25-.68-3.56-8.5-.85-.25V200.1h5v1.21l-1,.22,1.08,2.92a24.71,24.71,0,0,1,.83,3.24h.07s.49-2,.92-3.24l.94-2.92-1-.22V200.1h3.66v1.21l-.79.25-3.51,9.65c-.7,1.89-1.51,2.75-3.19,2.75A3.31,3.31,0,0,1,85.49,213.4Z" transform="translate(5 5)"/><path class="cls-10" d="M100.24,207.44v-5.62l-1.12-.31v-1.22l3.8-.38.25.14v6.75c0,.94.29,1.37,1.28,1.37a3.51,3.51,0,0,0,1.49-.34v-6l-1-.31v-1.22l3.71-.38.29.14v8.19l1.12.29v1.19l-3.67.45-.29-.13v-1.17H106a3.8,3.8,0,0,1-3,1.33A2.45,2.45,0,0,1,100.24,207.44Z" transform="translate(5 5)"/><path class="cls-10" d="M110.78,212.75l1.12-.27V201.93l-1.15-.31v-1.28l3.71-.45.25.14v1.06h.11a3.9,3.9,0,0,1,2.84-1.24c1.76,0,3.55,1,3.55,4.79,0,4-2.05,5.47-4.79,5.47a4,4,0,0,1-1.57-.25v2.63l1.3.25v1.15h-5.37Zm7.33-7.69c0-2.41-.63-3.22-1.82-3.22a3.45,3.45,0,0,0-1.44.31v6.12a2.18,2.18,0,0,0,1.3.36C117.36,208.63,118.11,207.95,118.11,205.07Z" transform="translate(5 5)"/><path class="cls-10" d="M127.06,207.53v-5.89h-1.26v-1.15l1.26-.43v-2.29H130v2.32h2.27v1.55H130V207c0,1,.34,1.33,1.37,1.33a4.36,4.36,0,0,0,1-.13v1.28a4.67,4.67,0,0,1-2.41.67C128.1,210.2,127.06,209.55,127.06,207.53Z" transform="translate(5 5)"/><path class="cls-10" d="M133.27,205.1c0-3.33,2.16-5.22,4.9-5.22,3.11,0,4.92,1.91,4.92,5.11s-2.18,5.26-4.9,5.26C135.07,210.25,133.27,208.24,133.27,205.1Zm6.7,0c0-3-.81-3.69-1.82-3.69s-1.78.63-1.78,3.53.79,3.71,1.84,3.71S140,208,140,205.12Z" transform="translate(5 5)"/><path class="cls-10" d="M147.86,205.28c0-3.91,2-5.4,4.74-5.4a3,3,0,0,1,1.62.36v-2.58l-1.22-.29v-1.24l3.89-.45.29.14v12.42l1.12.29v1.19l-3.51.45-.27-.13V209h-.11a3.16,3.16,0,0,1-2.72,1.24C149.88,210.22,147.86,209.08,147.86,205.28Zm6.36,2.65v-6a1.78,1.78,0,0,0-1.3-.41c-1.19,0-2,.63-2,3.51,0,2.56.67,3.35,1.85,3.35A2.5,2.5,0,0,0,154.22,207.93Z" transform="translate(5 5)"/><path class="cls-10" d="M159.08,207.5c0-1.94,1.3-2.48,3.38-2.92l1.84-.36v-.67c0-1.28-.36-2.16-1.78-2.16-.2,0-.41,0-.61,0l-.27,1.57h-1.85v-2.5a12.61,12.61,0,0,1,3.92-.61c2.48,0,3.55,1,3.55,3.19v5c0,.5.29.63.7.63h.36v1.13a4.08,4.08,0,0,1-1.87.43,1.6,1.6,0,0,1-1.8-1.24h-.11a3.07,3.07,0,0,1-2.59,1.28A2.65,2.65,0,0,1,159.08,207.5Zm5.22.65V205.5l-1.08.07c-.88.05-1.22.5-1.22,1.5s.36,1.57,1.17,1.57A1.59,1.59,0,0,0,164.3,208.15Z" transform="translate(5 5)"/><path class="cls-10" d="M170,207.53v-5.89h-1.26v-1.15l1.26-.43v-2.29H173v2.32h2.27v1.55H173V207c0,1,.34,1.33,1.37,1.33a4.36,4.36,0,0,0,1-.13v1.28a4.67,4.67,0,0,1-2.41.67C171.08,210.2,170,209.55,170,207.53Z" transform="translate(5 5)"/><path class="cls-10" d="M176.21,205c0-3.22,1.94-5.11,4.77-5.11s4.29,1.62,4.29,5.53h-6c.14,2.25,1.13,3,2.79,3a8.42,8.42,0,0,0,2.77-.47v1.28a5.86,5.86,0,0,1-3.55,1C177.89,210.23,176.21,208.29,176.21,205Zm6.14-.9c0-2.18-.56-2.74-1.44-2.74s-1.58.63-1.71,2.74Z" transform="translate(5 5)"/><g class="cls-21"><rect class="cls-7" x="122" y="41" width="263" height="51"/></g><g class="cls-22"><rect class="cls-10" width="267" height="51"/></g><path class="cls-10" d="M128.58,69.27l2.14-.77v-18l-2.11-.77V47.93h18.53l.13,6.46h-2.62l-1.15-4.22h-6V58h2.66l.86-2.66h2v7.74h-2l-.86-2.69H137.5V68.7h6.14L145,63.83h2.69L147.55,71h-19Z" transform="translate(5 5)"/><path class="cls-10" d="M159.49,65.91h.13l3.26-10.18L161,54.91V53.47h5.92v1.44l-1.41.8L160.16,71h-4.83L150,55.74l-1.5-.83V53.47h9.89v1.44l-1.92.83Z" transform="translate(5 5)"/><path class="cls-10" d="M173.63,62.71c.19,3.62,1.54,5.31,5.38,5.31a9.1,9.1,0,0,0,4.42-1v1.6a8.56,8.56,0,0,1-6.78,2.88c-6,0-9-3.58-9-9.31s3.33-9.09,8.7-9.09c5.06,0,7.68,2.53,7.68,9.18v.45Zm-.1-1.76,5-.32c0-4.48-.77-5.79-2.3-5.79S173.53,56.63,173.53,61Z" transform="translate(5 5)"/><path class="cls-10" d="M187.17,68.76V56.28l-1.92-.77V54.17l7-1,.7.06v2h.19a9.2,9.2,0,0,1,6-2.21c3,0,4.38,1.44,4.38,4.64V68.76l1.82.83V71H196V69.59l1.63-.74V58.65c0-1.76-.77-2.46-2.21-2.46a6,6,0,0,0-2.4.54V68.86l1.6.74V71h-9.28V69.59Z" transform="translate(5 5)"/><path class="cls-10" d="M205.82,55.83v-1.5l2.5-.86V50.33l5.82-.93v4.06H218v2.37h-3.87v10.3c0,1.79.51,2.53,2.43,2.53a11.8,11.8,0,0,0,1.63-.1v1.66a9.59,9.59,0,0,1-4.7,1.12c-3.49,0-5.18-1.54-5.18-5.31V55.83Z" transform="translate(5 5)"/><path class="cls-10" d="M239,65.3c0,3.9-2.34,6.11-7.55,6.11a18.57,18.57,0,0,1-6-1l-.19-4.58h2.11l1.34,3a5.7,5.7,0,0,0,2.72.61c2,0,2.88-.86,2.88-2.21,0-1.15-.61-1.76-2.4-2.18l-1.18-.29c-3.74-.93-5.47-2.72-5.47-6,0-3.42,2.27-5.86,7.26-5.86a16.27,16.27,0,0,1,5.38.74V58h-2.11l-.93-2.75a5.06,5.06,0,0,0-2.21-.38c-1.73,0-2.59.77-2.59,2s.61,1.73,2.56,2.24l1.18.29C237.41,60.38,239,62,239,65.3Z" transform="translate(5 5)"/><path class="cls-10" d="M240.29,62.17c0-5.6,3.58-9.12,9.28-9.12a21.26,21.26,0,0,1,5.57.61V59h-2.59l-1-4a3.86,3.86,0,0,0-1.47-.22c-2.46,0-3.87,2.14-3.87,6.72S247.93,68,251.33,68a7.67,7.67,0,0,0,3.94-.93v1.6a7.82,7.82,0,0,1-6.43,2.72C243.13,71.42,240.29,67.64,240.29,62.17Z" transform="translate(5 5)"/><path class="cls-10" d="M258.65,68.79V48.92l-1.92-.77V46.75l6.94-1,.74.1v9.44h.19a9.27,9.27,0,0,1,6-2.21c3,0,4.38,1.44,4.38,4.64v11.1l1.82.83V71h-9.28V69.62l1.63-.74V58.65c0-1.76-.77-2.46-2.21-2.46a5.91,5.91,0,0,0-2.4.51V68.89l1.6.74V71h-9.28V69.62Z" transform="translate(5 5)"/><path class="cls-10" d="M283.61,62.71c.19,3.62,1.54,5.31,5.38,5.31a9.1,9.1,0,0,0,4.42-1v1.6a8.56,8.56,0,0,1-6.78,2.88c-6,0-9-3.58-9-9.31s3.33-9.09,8.7-9.09c5.06,0,7.68,2.53,7.68,9.18v.45Zm-.1-1.76,5-.32c0-4.48-.77-5.79-2.3-5.79S283.52,56.63,283.52,61Z" transform="translate(5 5)"/><path class="cls-10" d="M306.59,53.66v-4.8l-1.92-.67V46.75l7.07-1,.67.1V68.25l2,.93v1.41l-7,.8-.54-.06V69.5h-.16a6.22,6.22,0,0,1-4.64,2c-3.81,0-6.59-2.91-6.59-8.86,0-6.27,3.23-9.47,8.13-9.47A6.94,6.94,0,0,1,306.59,53.66Zm0,14.4V55.61a3.23,3.23,0,0,0-1.89-.54c-1.89,0-3.1,2-3.1,7.07,0,4.58,1.12,6.37,3.36,6.37A2.83,2.83,0,0,0,306.59,68.06Z" transform="translate(5 5)"/><path class="cls-10" d="M314.78,55.51V54.11l7-1,.77.06V66.14c0,1.66.8,2.18,2.14,2.18A5.64,5.64,0,0,0,327,67.8V56.35l-1.92-.83V54.11l7-1,.7.06v15.1l1.89,1v1.31l-6.91.8-.7-.06V69.24h-.19a7.76,7.76,0,0,1-5.25,2.21c-3.36,0-4.9-2-4.9-5V56.35Z" transform="translate(5 5)"/><path class="cls-10" d="M342.68,45.72l.7.1V68.76l1.82.83V71h-9.5V69.59l1.82-.83V48.89l-2-.74V46.75Z" transform="translate(5 5)"/><path class="cls-10" d="M352.09,62.71c.19,3.62,1.54,5.31,5.38,5.31a9.1,9.1,0,0,0,4.42-1v1.6a8.56,8.56,0,0,1-6.78,2.88c-6,0-9-3.58-9-9.31s3.33-9.09,8.7-9.09c5.06,0,7.68,2.53,7.68,9.18v.45ZM352,61l5-.32c0-4.48-.77-5.79-2.3-5.79S352,56.63,352,61Z" transform="translate(5 5)"/><path class="cls-23" d="M11.76,11.47l-1.5-.8V8.94H20.4v1.73l-2,.8,2.56,13.31h.19L24.88,8.94h4.83l4.35,15.94h.22l2.78-13.41-2.27-.8V8.94h6.88v1.73l-1.6.8L35.44,32H29.81L26,17.45h-.22L22.25,32H16.62Z" transform="translate(5 5)"/><path class="cls-23" d="M49.55,14.15l.61.06V29.83l1.79.8V32H42.48V30.63l1.82-.8V17.32l-2-.77V15.18ZM50.19,10a3,3,0,0,1-3.1,3,3,3,0,1,1,0-6A3.07,3.07,0,0,1,50.19,10Z" transform="translate(5 5)"/><path class="cls-23" d="M54.74,29.77V17.29l-1.92-.77V15.18l7-1,.7.06v2h.19a9.2,9.2,0,0,1,6-2.21c3,0,4.38,1.44,4.38,4.64V29.77l1.82.83V32H63.57V30.6l1.63-.74V19.66c0-1.76-.77-2.46-2.21-2.46a6,6,0,0,0-2.4.54V29.86l1.6.74V32H52.91V30.6Z" transform="translate(5 5)"/><path class="cls-23" d="M73.39,16.84v-1.5l2.5-.86V11.34l5.82-.93v4.06h3.87v2.37H81.71v10.3c0,1.79.51,2.53,2.43,2.53a11.78,11.78,0,0,0,1.63-.1v1.66a9.59,9.59,0,0,1-4.7,1.12c-3.49,0-5.18-1.54-5.18-5.31V16.84Z" transform="translate(5 5)"/><path class="cls-23" d="M93,23.72c.19,3.62,1.54,5.31,5.38,5.31a9.1,9.1,0,0,0,4.42-1v1.6A8.56,8.56,0,0,1,96,32.49c-6,0-9-3.58-9-9.31s3.33-9.09,8.7-9.09c5.06,0,7.68,2.53,7.68,9.18v.45ZM92.88,22l5-.32c0-4.48-.77-5.79-2.3-5.79S92.88,17.64,92.88,22Z" transform="translate(5 5)"/><path class="cls-23" d="M111.6,14.15l.58.06v4h.16c.93-2.88,2.4-4.22,4.42-4.22a2.24,2.24,0,0,1,.86.13v5.28a6,6,0,0,0-1.44-.13,9.94,9.94,0,0,0-3.81.58v10l2.37.8V32h-10V30.63l1.82-.8V17.32l-1.92-.77V15.18Z" transform="translate(5 5)"/><path class="cls-23" d="M135.18,32.39c-6.4,0-11.07-4.06-11.07-11.81,0-8.19,5.44-12,11.26-12,6.37,0,11.07,4,11.07,11.77C146.44,28.46,141,32.39,135.18,32.39Zm-3.74-12c0,7.81,1.09,9.79,3.87,9.79,2.59,0,3.74-2,3.74-9.6,0-7.94-1.15-9.82-3.81-9.82S131.44,12.87,131.44,20.39Z" transform="translate(5 5)"/><path class="cls-23" d="M154.6,6.73l.7.1V29.77l1.82.83V32h-9.5V30.6l1.82-.83V9.9l-2-.74V7.75Z" transform="translate(5 5)"/><g class="cls-24"><text class="cls-25" transform="translate(162.45 37.01)">y</text></g><text class="cls-25" transform="translate(180.85 37.01)">mpic</text></svg>