<svg width="205" height="95" xmlns="http://www.w3.org/2000/svg"><g fill="none" fill-rule="evenodd"><g fill="#121212"><path d="M17.952 33.703l-6.185-22.844L10 9.663v-.58h10.773v.58L18.7 10.688l3.908 15.605h.204l4.214-17.21h3.806l5.267 17.586h.238l3.568-15.367-3.262-1.639v-.58h6.66v.58l-2.684 1.708-5.233 22.332h-3.807l-5.301-17.654h-.238l-4.282 17.654h-3.806zM49.047 7c1.767 0 3.296 1.4 3.296 3.21s-1.529 3.175-3.296 3.175c-1.835 0-3.263-1.365-3.263-3.175 0-1.81 1.428-3.21 3.263-3.21zm-5.03 8.742l7.443-1.093.85.068v17.859l1.902.546v.58H44.153v-.58l1.937-.546V17.142l-2.073-.82v-.58zm11.215 17.38l1.937-.546V17.142l-2.04-.82v-.58l7.41-1.093.747.068v2.39h.204c1.597-1.639 3.976-2.56 6.32-2.56 3.23 0 4.656 1.536 4.656 4.95v13.079l1.937.546v.58h-9.855v-.58l1.733-.444V19.84c0-1.844-.815-2.663-2.412-2.663-.986 0-1.768.239-2.481.614v14.888l1.699.444v.58h-9.855v-.58zm24.4-16.834h-2.65v-.615l2.65-.683v-3.346l6.185-.99v4.336h4.112v1.298h-4.112v12.43c0 1.912.578 2.697 2.617 2.697.645 0 1.29-.068 1.699-.17v.58c-1.088 1.16-2.957 2.253-5.166 2.253-3.534 0-5.335-1.639-5.335-5.668V16.288zm29.192 7.41H97.677c.238 4.61 1.7 7.444 6.457 7.444 1.563 0 2.888-.205 4.146-.751v.546c-1.054 1.605-3.636 3.278-7.34 3.278-6.288 0-9.516-3.824-9.516-9.937 0-5.975 3.534-9.697 9.244-9.697 5.743 0 8.156 3.073 8.156 8.639v.478zm-8.292-8.469c-1.768 0-2.855 2.39-2.855 7.786l5.267-.24c0-5.872-.781-7.546-2.412-7.546zm9.583.513l7.51-1.093.612.068v5.327h.17c.951-4.063 2.515-5.6 4.622-5.6.34 0 .713.034.917.137v5.634c-.34-.103-.951-.137-1.53-.137-1.698 0-2.956.17-4.043.615V32.61l2.515.512v.58h-10.671v-.58l1.937-.512V17.142l-2.04-.82v-.58zM76.466 51.806c0 8.578-5.713 12.731-11.936 12.731-6.801 0-11.8-4.288-11.8-12.46 0-8.645 5.78-12.697 11.97-12.697 6.767 0 11.766 4.22 11.766 12.426zM64.598 39.987c-2.857 0-4.08 2.6-4.08 11.887 0 9.624 1.087 12.055 4.08 12.055 2.856 0 4.013-2.498 4.013-11.819 0-9.792-1.157-12.123-4.013-12.123zm12.99-1.452l7.55-1.08.748.101v25.462l1.938.54v.574h-10.1v-.574l1.939-.54V39.886l-2.075-.777v-.574zm22.07 27.218c-1.088 3.208-3.162 5.335-6.529 6.045l-2.006-3.647v-.507h7.21l-8.4-20.666L88.3 46.2v-.574h10.474v.574l-2.108.878 4.523 12.325 3.91-11.751-2.652-1.452v-.574h5.407v.574l-2.04 1.35-6.156 18.202zm8.876-2.195l1.938-.507V47.754l-2.04-.81v-.574l7.38-1.08.748.067v2.431h.204c1.598-1.62 3.366-2.6 5.78-2.6 2.143 0 3.47.675 4.183 2.634h.136c1.667-1.689 3.537-2.634 5.951-2.634 3.061 0 4.727 1.553 4.727 4.93v12.933l1.973.507v.574h-9.59v-.574l1.53-.507V50.22c0-1.688-.782-2.363-2.312-2.363-.748 0-1.496.236-2.109.574V63.05l1.53.507v.574h-9.045v-.574l1.564-.507V50.22c0-1.688-.68-2.363-2.278-2.363-.85 0-1.53.27-2.142.607v14.588l1.496.507v.574h-9.624v-.574zm51.724-9.219c0 7.26-4.013 10.232-8.672 10.232-1.394 0-2.585-.203-3.129-.405v6.146l2.21.472v.575h-10.371v-.575l1.938-.472V47.754l-2.04-.81v-.574l7.515-1.08.714.067v2.127h.204c.953-1.114 2.72-2.296 5.237-2.296 3.571 0 6.394 2.431 6.394 9.151zm-6.496.676c0-5.64-1.224-7.26-3.332-7.26a5.39 5.39 0 0 0-1.973.37v14.926a2.94 2.94 0 0 0 1.87.642c2.143 0 3.435-2.195 3.435-8.678zm12.685-17.29c1.768 0 3.298 1.384 3.298 3.174s-1.53 3.14-3.298 3.14c-1.837 0-3.265-1.35-3.265-3.14s1.428-3.174 3.265-3.174zm-5.033 8.645l7.447-1.08.85.067v17.66l1.905.541v.574H161.55v-.574l1.938-.54V47.754l-2.074-.81v-.574zM181.85 64.57c-6.053 0-9.08-3.985-9.08-9.76 0-5.909 3.81-9.623 9.863-9.623 2.414 0 4.556.202 5.883.608l.102 6.247h-.578l-4.557-6.18c-.136-.034-.238-.034-.374-.034-2.653 0-4.149 2.77-4.149 7.801 0 5.268 1.802 7.936 6.02 7.936 1.563 0 2.72-.27 3.706-.71v.575c-1.224 1.654-3.367 3.14-6.836 3.14zm17.684-12.562c3.502 1.621 5.339 3.073 5.339 6.45 0 3.816-2.687 6.112-7.652 6.112-2.244 0-4.557-.27-6.359-.945l-.204-5.471h.578l4.863 5.64c.34.1.714.168 1.02.168 2.075 0 3.027-1.114 3.027-2.836 0-1.52-.816-2.094-2.959-3.107l-1.122-.507c-3.4-1.587-5.373-3.241-5.373-6.348 0-3.782 2.653-6.01 7.21-6.01 1.87 0 3.91.168 5.474.607l.17 5.099h-.578l-3.706-4.93a3.832 3.832 0 0 0-1.19-.203c-1.837 0-2.653 1.047-2.653 2.567 0 1.654.782 2.195 3.06 3.241l1.055.473zM31.026 88.929l-.473 5.074H13.885v-2.977l4.936-4.702c3.82-3.62 5.342-6.8 5.342-10.522 0-3.755-1.251-5.886-4.125-5.886l-5.207 7.578h-.575l.17-7.07c1.96-.779 4.699-1.185 7.64-1.185 5.579 0 8.757 2.267 8.757 6.665 0 4.364-2.908 7.273-8.993 10.487l-4.598 2.436v.102h13.794zm11.9 5.48c-5.68 0-10.514-4.263-10.514-12.483 0-8.593 5.038-12.72 10.751-12.72 5.647 0 10.346 4.093 10.346 12.517 0 8.457-4.8 12.686-10.582 12.686zm.102-.609c2.435 0 3.246-3.857 3.246-11.807 0-8.39-.811-12.178-3.28-12.178-2.4 0-3.347 3.89-3.347 11.84 0 8.255.913 12.145 3.381 12.145zm12.138.203v-.575l3.516-1.015V72.69l-3.482.812v-.744l7.032-3.35h2.637v23.005l3.381 1.015v.575H55.166zm32.525-6.394c0 4.263-3.28 6.868-9.264 6.868-6.086 0-8.926-2.335-8.926-6.124 0-3.349 2.57-5.379 5.85-5.954-3.01-1.894-4.768-3.924-4.768-6.8 0-3.924 2.975-6.393 8.317-6.393 5.781 0 8.148 2.266 8.148 5.277 0 3.112-2.57 4.702-5.578 5.311l.946.576c3.347 1.962 5.275 3.653 5.275 7.24zm-8.453-9.1l1.522.88c1.014-1.185 1.69-2.74 1.69-4.872 0-3.112-1.319-4.669-3.618-4.669-2.265 0-3.482 1.489-3.482 3.857 0 2.3 1.657 3.518 3.888 4.804zm-4.97 9.608c0 3.416 1.454 5.717 4.362 5.717 2.535 0 4.09-1.692 4.09-4.398 0-2.402-1.622-3.552-3.65-4.77l-3.044-1.827c-1.115 1.117-1.758 3.011-1.758 5.278z"/></g><path d="M.5 1.364V33.64" stroke="#ABBFC6" stroke-linecap="square"/></g></svg>