<svg width="831" height="126" xmlns="http://www.w3.org/2000/svg"><g fill="none" fill-rule="evenodd"><path d="M200.475 87.889a4.81 4.81 0 0 0 2.96-1.362 1151.84 1151.84 0 0 0 12.809-12.94L219 70.74 212.705 65l-.394.318c-.66.522-1.38 1.103-2.149 1.74-3.463 2.803-7.86 6.427-12.376 10.194l-4.655.165c-1.484.08-2.939.21-4.355.33l-1.838.16-5.633.724c-1.346.201-2.618.444-3.943.692l-.806.163c-.172 0-2.96.579-3.009.589l-6.25 1.521c-.846.179-1.654.43-2.46.675l-.837.258V95l4.225-1.281c.693-.21 1.41-.432 2.159-.597l5.755-1.4c1.612-.33 2.683-.532 2.694-.535l4.462-.888 5.184-.915c.754-.106 1.5-.22 2.378-.35 1.088-.164 2.19-.34 3.291-.468l6.327-.677zM279.24 24.93c-1.35-1.713-3.256-2.75-5.369-2.905-4.462-.36-8.345 3.24-8.823 7.874-.244 2.35.452 4.69 1.906 6.411 1.318 1.561 3.149 2.514 5.158 2.669.194.013.38.021.566.021 4.17 0 7.803-3.471 8.276-7.903.226-2.261-.385-4.45-1.714-6.167" fill="#000"/><path d="M230.04 50.258c-2.311 3.776-4.147 7.93-5.606 12.719l-19.418-27.181c3.672-1.658 7.457-2.884 11.247-3.635 5.814-1.123 12.094-1.04 17.86.215a48.118 48.118 0 0 1 9.724 3.267l.604.285v.006c-1.555.896-2.883 1.772-4.053 2.678a41.913 41.913 0 0 0-5.816 5.439c-1.623 1.847-3.107 3.882-4.543 6.207zm3.91 26.04l.051-.667c.037-.408.084-.81.128-1.221.099-.821.224-1.676.378-2.534a54.657 54.657 0 0 1 1.169-5.264c1.094-3.936 2.537-7.462 4.285-10.479a35.731 35.731 0 0 1 3.25-4.737 31.73 31.73 0 0 1 4.064-4.043c1.318-1.099 2.896-2.123 4.819-3.139 1.724-.927 3.63-1.577 5.423-2.143l.351-.11a5.271 5.271 0 0 0 1.714-9.136c-.325-.261-.513-.4-.742-.563l-.795-.566c-.468-.317-.937-.637-1.409-.93a51.833 51.833 0 0 0-2.85-1.687 58.409 58.409 0 0 0-5.844-2.803 57.72 57.72 0 0 0-11.95-3.485 54.089 54.089 0 0 0-11.519-.74 52.85 52.85 0 0 0-10.122 1.431c-4.879 1.209-9.424 2.994-13.899 5.441-.88.463-1.622.897-2.255 1.284l-1.607 1.018 26.453 37.133c-.721 2.887-.977 6.158-.964 6.158h.003L199.28 115.76h-5.066L192 119.995h26.253l2.211-4.235h-7.441l19.152-34.62 22.953 32.125c.67.936 1.279 1.421 2.047 1.634L277 120v-7.397l-19.489-3.326-23.562-32.978z" fill="#000"/><path d="M398.699 105.862c-1.026-7.71-3.353-20.17-4.305-25.17-.824-4.304-1.6-8.195-2.19-11.024-.224-1.096-.423-2.016-.58-2.75L391.42 66l-.717.59a43.674 43.674 0 0 1-6.537 4.518l-.314.174.018.364c.176 2.8.424 6.417.725 10.38.382 5.02 1.38 17.551 2.421 25.428l1.638 12.317h-6.16L380 124h25.507l2.493-4.23h-7.451l-1.85-13.908zM410.6 35.617a7.043 7.043 0 0 0 2.275.383c1.198 0 2.38-.319 3.41-.915 3.573-2.026 4.78-6.858 2.688-10.779C417.555 21.653 414.92 20 412.1 20c-1.208 0-2.349.3-3.389.897-3.573 2.028-4.776 6.871-2.685 10.786 1.011 1.894 2.633 3.294 4.574 3.934M447.003 46.052l-1.626.311c-.196.038-.402.065-.64.1l-.543.083a48.454 48.454 0 0 1-6.95.554l-.775.005c-2.476 0-5.174-.15-7.785-.444a101.114 101.114 0 0 1-7.36-1.116l-1.478-.3c-.858-.163-2.023-.467-3.046-.728-.45-.118-.765-.215-1.062-.308L412.126 43 409 51.228l3.865 1.302c.454.135.91.28 1.363.404 1.379.356 2.698.694 3.706.892.518.1.94.19 1.262.264l.43.075c2.48.459 5.5.75 8.504.82a62.924 62.924 0 0 0 9.728-.54c3.72-.513 6.558-1.338 7.921-1.787l.526-.173c.301-.098.572-.191.835-.291l1.86-.778-1.997-5.364zM394.142 57.627a75.456 75.456 0 0 0 6.484-4.913 71.99 71.99 0 0 0 3.037-2.729c.49-.463.966-.92 1.446-1.412l1.49-1.574a5.189 5.189 0 0 0 1.169-1.997 5.141 5.141 0 0 0-1.185-5.067 3.842 3.842 0 0 0-1.357-.92l-.581-.232c-.685-.284-1.341-.57-1.987-.85l-.516-.217a34.09 34.09 0 0 1-1.414-.621 34.619 34.619 0 0 1-1.867-.895l-.263-.133c-.524-.268-1.045-.525-1.563-.827-2.065-1.11-4.14-2.419-6.714-4.255a66.08 66.08 0 0 1-10.225-9.262c-3.016-3.525-4.906-6.297-5.76-7.63L373.016 12l-6.422 4.794.76 1.464c.85 1.571 2.756 4.835 5.983 9.067a72.845 72.845 0 0 0 11.139 11.25c2.753 2.184 5.154 3.878 7.534 5.303.466.3.935.572 1.414.845a69.247 69.247 0 0 1-5.313 3.668 54.343 54.343 0 0 1-12.146 5.72 39.056 39.056 0 0 1-11.811 1.984l-.542.008c-1.422 0-2.89-.104-4.722-.325l-2.4-.406-3.64-.98-3.486-1.327c-2.813-1.119-6.381-3.277-9.783-5.925l-1.263-.991c-.442-.354-.862-.68-1.218-1.035l-5.03-4.914-1.02-1.071-3.805-4.552L318 42.26l4.649 5.45 3.805 3.932 2.721 2.505c.467.458.977.856 1.48 1.251l1.531 1.217c4.162 3.244 8.688 5.975 12.418 7.478l2.573 1.038 4.125 1.311c.87.224 1.769.453 2.737.679l3.269.528c.763.083 1.573.159 2.385.224a47.16 47.16 0 0 0 3.378.127c.448 0 .899-.008 1.35-.023 5.107-.16 10.386-1.17 15.264-2.94 4.703-1.695 9.276-3.997 13.587-6.832l.87-.578zM92.706 57.609c3.838 1.363 8.21-.953 9.753-5.149.742-2.02.722-4.193-.069-6.106-.788-1.895-2.244-3.31-4.104-3.962-3.833-1.364-8.208.95-9.748 5.145-1.538 4.201.335 8.713 4.168 10.072M76.456 84.884a5.974 5.974 0 0 0-.389-.097 801.461 801.461 0 0 0-14.657-2.81 255.17 255.17 0 0 0-4.8-.835c-.353-.058-.655-.103-.91-.142-1.022 2.016-1.897 4.371-2.7 7.221.003.045.635.287 1.745.676 1.108.392 2.702.932 4.62 1.569 2.485.82 5.52 1.805 8.773 2.837-.521 1.6-.992 3.176-1.435 4.702-.407 1.59-.795 3.113-1.164 4.537-.307 1.437-.57 2.78-.806 3.987l-.125.66c-.07.422-.213 1.016-.307 1.745l-.783 5.321c-.253 1.94-.407 3.895-.563 5.356-.125 1.273-.215 2.173-.235 2.389h11.446c.036-.355.082-.792.13-1.295.147-1.337.282-3.129.515-4.91.264-1.78.522-3.556.721-4.89.085-.668.22-1.216.282-1.602.074-.387.118-.608.118-.608.21-1.11.424-2.35.66-3.682.26-1.324.545-2.742.839-4.218.322-1.466.655-2.998 1.018-4.534.192-.764.381-1.535.573-2.308.197-.727.4-1.453.599-2.18l.192-.702c.737-2.663-.768-5.432-3.357-6.187" fill="#121212"/><path d="M99.403 95.415c.411.19.778.364 1.132.526L106 89.71a28.581 28.581 0 0 0-.578-.297c-.27-.133-.596-.294-.986-.484-.388-.198-.812-.453-1.298-.722-.492-.255-1.013-.588-1.575-.95-.28-.185-.585-.36-.88-.568l-.913-.659c-.648-.432-1.264-.99-1.951-1.526-.648-.594-1.364-1.177-2.028-1.883-2.75-2.714-5.511-6.47-7.642-11.132-1.08-2.318-2.002-4.857-2.733-7.537a49.094 49.094 0 0 1-.934-4.11 42.108 42.108 0 0 1-.33-2.094 48.258 48.258 0 0 1-.198-1.93v-.013c-.154-2.617-2.035-4.747-4.632-4.792l-.523-.007c-5.494-.094-11.26.823-16.608 2.888-5.358 2.04-10.235 5.149-14.33 8.743-4.115 3.6-7.5 7.654-10.245 11.746A63.73 63.73 0 0 0 32.114 84.4C31.466 84.724 0 100.543 0 100.543V114l39.487-19.861.023-.013a5.984 5.984 0 0 0 2.891-3.222 53.804 53.804 0 0 1 2.4-5.37c.715-1.391 1.514-2.8 2.388-4.207 2.243-3.573 5.007-7.107 8.307-10.178 3.153-2.938 6.794-5.425 10.765-7.11 2.641-1.133 5.431-1.888 8.262-2.307l.037.171a60.665 60.665 0 0 0 1.337 4.892c1.025 3.17 2.272 6.164 3.719 8.925 2.862 5.532 6.544 10.064 10.19 13.28.885.83 1.822 1.529 2.68 2.216.898.63 1.718 1.271 2.556 1.769.411.258.81.508 1.194.747.385.235.773.433 1.135.638.731.404 1.403.766 2.032 1.045M124.995 113.13c-.003-1.883-1.614-3.421-3.581-3.419l-1.191.003-3.098-6.56c-.328-.7-1.06-1.154-1.866-1.154h-.002l-11.478.015 1.813 3.922 8.34-.012 1.794 3.794-14.153.018c-1.97.002-3.576 1.545-3.573 3.427l.005 3.418c.003 1.8 1.472 3.28 3.319 3.405.089.008.176.013.262.013l7.08-.008 12.764-.015c1.967-.002 3.57-1.545 3.57-3.427l-.005-3.42z" fill="#121212"/><g transform="translate(473 84)"><path d="M51.788 27.216c-1.494 0-3.042-.234-3.978-.63l-.18-3.114h1.89l.468 1.692c.468.234.99.36 1.764.36 1.26 0 1.998-.648 1.998-1.656 0-1.062-.774-1.494-2.124-2.052l-.936-.378c-1.8-.702-2.916-1.638-2.916-3.834 0-2.232 1.422-3.816 4.698-3.816 1.71 0 2.754.252 3.456.504l.18 2.844h-1.872l-.342-1.35a3.366 3.366 0 0 0-1.53-.342c-1.134 0-1.818.486-1.818 1.476 0 .9.558 1.368 1.872 1.854l.918.342c2.106.792 3.384 1.53 3.384 3.96 0 2.484-1.692 4.14-4.932 4.14zm9.918-.018c-1.872 0-2.916-.648-2.916-2.664v-5.886h-1.26v-1.152l1.26-.432v-2.286h2.934V17.1h2.268v1.548h-2.268v5.4c0 1.026.342 1.332 1.368 1.332.378 0 .738-.054 1.026-.126v1.278c-.576.36-1.44.666-2.412.666zm6.048.054c-1.746 0-2.862-1.116-2.862-2.754 0-1.944 1.296-2.484 3.384-2.916l1.836-.36v-.666c0-1.278-.36-2.16-1.782-2.16-.198 0-.414.018-.612.036l-.27 1.566h-1.854v-2.502c.882-.306 2.322-.612 3.924-.612 2.484 0 3.546 1.008 3.546 3.186v4.95c0 .504.288.63.702.63h.36v1.134c-.306.198-1.098.432-1.872.432-.954 0-1.566-.342-1.8-1.242h-.108c-.486.702-1.368 1.278-2.592 1.278zm1.224-1.62c.486 0 .9-.234 1.134-.486V22.5l-1.08.072c-.882.054-1.224.504-1.224 1.494 0 1.062.36 1.566 1.17 1.566zm8.442 5.328c-.936 0-1.512-.288-1.926-.558v-1.494c.396.09.72.162 1.134.162 1.08 0 1.638-.414 1.998-1.332l.252-.684-3.564-8.496-.846-.252V17.1h4.95v1.206l-1.008.216 1.08 2.916c.468 1.278.828 3.24.828 3.24h.072s.486-1.98.918-3.24l.936-2.916-.99-.216V17.1h3.654v1.206l-.792.252-3.51 9.648c-.702 1.89-1.512 2.754-3.186 2.754zm15.588-3.744c-1.962 0-2.772-1.044-2.772-2.772v-5.616l-1.116-.306v-1.224l3.798-.378.252.144v6.75c0 .936.288 1.368 1.278 1.368.72 0 1.134-.198 1.494-.342v-6.012l-1.026-.306v-1.224l3.708-.378.288.144v8.19l1.116.288v1.188l-3.672.45-.288-.126v-1.17h-.108c-.666.756-1.62 1.332-2.952 1.332zm7.776 3.69v-1.152l1.116-.27V18.936l-1.152-.306v-1.278l3.708-.45.252.144v1.062h.108c.612-.63 1.548-1.242 2.844-1.242 1.764 0 3.546 1.044 3.546 4.788 0 3.978-2.052 5.472-4.788 5.472-.774 0-1.206-.108-1.566-.252v2.628l1.296.252v1.152h-5.364zm5.364-5.274c1.206 0 1.962-.684 1.962-3.564 0-2.412-.63-3.222-1.818-3.222-.63 0-1.134.162-1.44.306v6.12c.27.162.594.36 1.296.36zm13.824 1.566c-1.872 0-2.916-.648-2.916-2.664v-5.886h-1.26v-1.152l1.26-.432v-2.286h2.934V17.1h2.268v1.548h-2.268v5.4c0 1.026.342 1.332 1.368 1.332.378 0 .738-.054 1.026-.126v1.278c-.576.36-1.44.666-2.412.666zm8.226-1.53c.99 0 1.764-.666 1.764-3.546 0-2.97-.81-3.69-1.818-3.69-1.026 0-1.782.63-1.782 3.528 0 2.988.792 3.708 1.836 3.708zm-.018 1.584c-3.114 0-4.914-2.016-4.914-5.148 0-3.33 2.16-5.22 4.896-5.22 3.114 0 4.914 1.908 4.914 5.112 0 3.348-2.178 5.256-4.896 5.256zm13.5-.036c-1.8 0-3.816-1.134-3.816-4.932 0-3.906 2.034-5.4 4.734-5.4.756 0 1.206.126 1.62.36V14.67l-1.224-.288V13.14l3.888-.45.288.144v12.42l1.116.288v1.188l-3.51.45-.27-.126v-1.08h-.108c-.504.756-1.476 1.242-2.718 1.242zm1.134-1.89c.576 0 1.062-.162 1.404-.396v-6.048c-.288-.234-.594-.414-1.296-.414-1.188 0-1.962.63-1.962 3.51 0 2.556.666 3.348 1.854 3.348zm9.126 1.926c-1.746 0-2.862-1.116-2.862-2.754 0-1.944 1.296-2.484 3.384-2.916l1.836-.36v-.666c0-1.278-.36-2.16-1.782-2.16-.198 0-.414.018-.612.036l-.27 1.566h-1.854v-2.502c.882-.306 2.322-.612 3.924-.612 2.484 0 3.546 1.008 3.546 3.186v4.95c0 .504.288.63.702.63h.36v1.134c-.306.198-1.098.432-1.872.432-.954 0-1.566-.342-1.8-1.242h-.108c-.486.702-1.368 1.278-2.592 1.278zm1.224-1.62c.486 0 .9-.234 1.134-.486V22.5l-1.08.072c-.882.054-1.224.504-1.224 1.494 0 1.062.36 1.566 1.17 1.566zm9.792 1.566c-1.872 0-2.916-.648-2.916-2.664v-5.886h-1.26v-1.152l1.26-.432v-2.286h2.934V17.1h2.268v1.548h-2.268v5.4c0 1.026.342 1.332 1.368 1.332.378 0 .738-.054 1.026-.126v1.278c-.576.36-1.44.666-2.412.666zm8.298.036c-3.366 0-5.04-1.944-5.04-5.238 0-3.222 1.944-5.112 4.77-5.112 2.916 0 4.284 1.62 4.284 5.526h-6.03c.144 2.25 1.134 2.97 2.79 2.97 1.278 0 2.07-.252 2.772-.468v1.278c-.684.486-1.782 1.044-3.546 1.044zm-2.052-6.138h3.15c0-2.178-.558-2.736-1.44-2.736-.918 0-1.584.63-1.71 2.736z" fill="#121212"/><circle fill="#FFE500" cx="21" cy="21" r="21"/><path fill="#000" d="M10 21.913h17.466l-6.85 8.197.89.89 9.521-9.543v-.914L21.507 11l-.89.89 6.849 8.197H10z"/></g><g><path fill="#FFE500" d="M584 40h247v40H584z"/><path fill="#121212" d="M467 0h254v40H467zM590.576 69v-1.728l2.144-.768V48.456l-2.112-.768v-1.76h18.528l.128 6.464h-2.624l-1.152-4.224h-5.984v7.872h2.656l.864-2.656h2.048v7.744h-2.048l-.864-2.688h-2.656v8.256h6.144l1.376-4.864h2.688l-.16 7.168h-18.976zm27.936-15.264l2.976 10.176h.128l3.264-10.176-1.888-.832v-1.44h5.92v1.44l-1.408.8L622.16 69h-4.832l-5.28-15.264-1.504-.832v-1.44h9.888v1.44l-1.92.832zm27.52 6.976h-10.4c.192 3.616 1.536 5.312 5.376 5.312 1.856 0 3.168-.384 4.416-1.024v1.6c-.96 1.312-3.392 2.88-6.784 2.88-5.952 0-8.992-3.584-8.992-9.312 0-5.6 3.328-9.088 8.704-9.088 5.056 0 7.68 2.528 7.68 9.184v.448zm-7.84-7.872c-1.632 0-2.656 1.792-2.656 6.112l4.96-.32c0-4.48-.768-5.792-2.304-5.792zm9.152 14.752l1.824-.832V54.28l-1.92-.768v-1.344l6.976-1.024.704.064v2.048h.192c1.504-1.344 3.744-2.208 5.952-2.208 3.04 0 4.384 1.44 4.384 4.64V66.76l1.824.832V69H658v-1.408l1.632-.736V56.648c0-1.76-.768-2.464-2.208-2.464-.928 0-1.728.256-2.4.544v12.128l1.6.736V69h-9.28v-1.408zm22.976-13.76h-2.496v-1.504l2.496-.864v-3.136l5.824-.928v4.064h3.872v2.368h-3.872v10.304c0 1.792.512 2.528 2.432 2.528.576 0 1.248-.032 1.632-.096v1.664c-1.024.608-2.72 1.12-4.704 1.12-3.488 0-5.184-1.536-5.184-5.312V53.832zm25.408 3.648c3.68.896 5.248 2.528 5.248 5.824 0 3.904-2.336 6.112-7.552 6.112-2.048 0-4.288-.32-6.048-.96l-.192-4.576h2.112l1.344 3.04c.704.384 1.632.608 2.72.608 1.984 0 2.88-.864 2.88-2.208 0-1.152-.608-1.76-2.4-2.176l-1.184-.288c-3.744-.928-5.472-2.72-5.472-5.984 0-3.424 2.272-5.856 7.264-5.856 2.048 0 4.032.224 5.376.736v4.288h-2.112l-.928-2.752c-.512-.256-1.248-.384-2.208-.384-1.728 0-2.592.768-2.592 2.048 0 1.152.608 1.728 2.56 2.24l1.184.288zm15.104 11.936c-5.696 0-8.544-3.776-8.544-9.248 0-5.6 3.584-9.12 9.28-9.12 2.272 0 4.512.256 5.568.608v5.376h-2.592l-1.024-3.968c-.384-.16-.864-.224-1.472-.224-2.464 0-3.872 2.144-3.872 6.72 0 4.48 1.76 6.464 5.152 6.464 1.76 0 2.976-.384 3.936-.928v1.6c-1.152 1.44-3.168 2.72-6.432 2.72zm8-1.792l1.824-.832V46.92l-1.92-.768v-1.408l6.944-1.024.736.096v9.44h.192c1.536-1.344 3.744-2.208 5.952-2.208 3.04 0 4.384 1.44 4.384 4.64v11.104l1.824.832V69h-9.28v-1.376l1.632-.736v-10.24c0-1.76-.768-2.464-2.208-2.464-.96 0-1.728.224-2.4.512v12.192l1.6.736V69h-9.28v-1.376zm37.184-6.912h-10.4c.192 3.616 1.536 5.312 5.376 5.312 1.856 0 3.168-.384 4.416-1.024v1.6c-.96 1.312-3.392 2.88-6.784 2.88-5.952 0-8.992-3.584-8.992-9.312 0-5.6 3.328-9.088 8.704-9.088 5.056 0 7.68 2.528 7.68 9.184v.448zm-7.84-7.872c-1.632 0-2.656 1.792-2.656 6.112l4.96-.32c0-4.48-.768-5.792-2.304-5.792zm17.408-1.728c1.408 0 2.464.256 3.008.544v-4.8l-1.92-.672v-1.44l7.072-1.024.672.096v22.432l1.952.928v1.408l-6.976.8-.544-.064v-1.824h-.16c-1.024 1.024-2.432 1.952-4.64 1.952-3.808 0-6.592-2.912-6.592-8.864 0-6.272 3.232-9.472 8.128-9.472zm1.376 15.392c.704 0 1.28-.192 1.632-.448V53.608c-.448-.288-.992-.544-1.888-.544-1.888 0-3.104 1.984-3.104 7.072 0 4.576 1.12 6.368 3.36 6.368zm11.744-12.16l-1.92-.832v-1.408l7.008-.96.768.064v12.928c0 1.664.8 2.176 2.144 2.176.864 0 1.6-.224 2.272-.512V54.344l-1.92-.832v-1.408l7.008-.96.704.064v15.104l1.888.96v1.312l-6.912.8-.704-.064v-2.08h-.192c-1.28 1.184-3.072 2.208-5.248 2.208-3.36 0-4.896-1.984-4.896-4.992V54.344zm18.88-9.6l7.104-1.024.704.096V66.76l1.824.832V69h-9.504v-1.408l1.824-.832V46.888l-1.952-.736v-1.408zm26.912 15.968h-10.4c.192 3.616 1.536 5.312 5.376 5.312 1.856 0 3.168-.384 4.416-1.024v1.6c-.96 1.312-3.392 2.88-6.784 2.88-5.952 0-8.992-3.584-8.992-9.312 0-5.6 3.328-9.088 8.704-9.088 5.056 0 7.68 2.528 7.68 9.184v.448zm-7.84-7.872c-1.632 0-2.656 1.792-2.656 6.112l4.96-.32c0-4.48-.768-5.792-2.304-5.792z"/><path d="M479.624 29L474.76 8.456l-1.504-.8V5.928H483.4v1.728l-2.016.8 2.56 13.312h.192l3.744-15.84h4.832l4.352 15.936h.224l2.784-13.408-2.272-.8V5.928h6.88v1.728l-1.6.8L498.44 29h-5.632L489 14.44h-.224L485.256 29h-5.632zm30.464-25.024c1.664 0 3.104 1.312 3.104 3.008s-1.44 2.976-3.104 2.976c-1.728 0-3.072-1.28-3.072-2.976s1.344-3.008 3.072-3.008zm-4.736 8.192l7.2-1.024.608.064v15.616l1.792.8V29h-9.472v-1.376l1.824-.8V14.312l-1.952-.768v-1.376zm10.56 15.424l1.824-.832V14.28l-1.92-.768v-1.344l6.976-1.024.704.064v2.048h.192c1.504-1.344 3.744-2.208 5.952-2.208 3.04 0 4.384 1.44 4.384 4.64V26.76l1.824.832V29h-9.28v-1.408l1.632-.736V16.648c0-1.76-.768-2.464-2.208-2.464-.928 0-1.728.256-2.4.544v12.128l1.6.736V29h-9.28v-1.408zm22.976-13.76h-2.496v-1.504l2.496-.864V8.328l5.824-.928v4.064h3.872v2.368h-3.872v10.304c0 1.792.512 2.528 2.432 2.528.576 0 1.248-.032 1.632-.096v1.664c-1.024.608-2.72 1.12-4.704 1.12-3.488 0-5.184-1.536-5.184-5.312V13.832zm27.488 6.88h-10.4c.192 3.616 1.536 5.312 5.376 5.312 1.856 0 3.168-.384 4.416-1.024v1.6c-.96 1.312-3.392 2.88-6.784 2.88-5.952 0-8.992-3.584-8.992-9.312 0-5.6 3.328-9.088 8.704-9.088 5.056 0 7.68 2.528 7.68 9.184v.448zm-7.84-7.872c-1.632 0-2.656 1.792-2.656 6.112l4.96-.32c0-4.48-.768-5.792-2.304-5.792zm9.056-.672l7.008-1.024.576.064v3.968h.16c.928-2.88 2.4-4.224 4.416-4.224.32 0 .672.032.864.128v5.28c-.32-.096-.896-.128-1.44-.128-1.6 0-2.784.16-3.808.576v10.016l2.368.8V29h-10.048v-1.376l1.824-.8V14.312l-1.92-.768v-1.376zm41.856 5.152c0 8.128-5.408 12.064-11.264 12.064-6.4 0-11.072-4.064-11.072-11.808 0-8.192 5.44-12.032 11.264-12.032 6.368 0 11.072 4 11.072 11.776zm-11.2-9.568c-2.592 0-3.808 2.112-3.808 9.632 0 7.808 1.088 9.792 3.872 9.792 2.592 0 3.744-2.048 3.744-9.6 0-7.936-1.152-9.824-3.808-9.824zm12.256-3.008l7.104-1.024.704.096V26.76l1.824.832V29h-9.504v-1.408l1.824-.832V6.888l-1.952-.736V4.744zm13.28 28.704c1.952 0 3.488-.768 4.32-3.04l.32-.864-6.592-15.872-1.312-.768v-1.44h9.472v1.44l-1.888.8 3.168 9.184h.128l3.328-9.152-1.952-.832v-1.44h5.952v1.44l-1.472.768-6.464 16.928c-1.568 4.128-3.296 5.536-5.984 5.536-1.056 0-2.048-.256-2.944-.864v-2.048c.64.128 1.28.224 1.92.224zm15.584-5.824l1.824-.8V14.312l-1.92-.768v-1.376l6.944-1.024.704.064v2.048h.192c1.504-1.344 3.168-2.208 5.44-2.208 2.016 0 3.264.608 3.936 2.24h.128c1.568-1.376 3.328-2.24 5.6-2.24 2.88 0 4.448 1.472 4.448 4.672v11.104l1.856.8V29h-9.024v-1.376l1.44-.8V16.616c0-1.76-.768-2.464-2.08-2.464-.736 0-1.472.256-2.08.512v12.16l1.44.8V29h-8.512v-1.376l1.472-.8V16.616c0-1.76-.672-2.464-2.048-2.464-.832 0-1.504.224-2.112.544v12.128l1.408.8V29h-9.056v-1.376zm48.672-7.904c0 6.88-3.776 9.696-8.096 9.696-1.376 0-2.496-.288-3.008-.576v4.8l2.08.768v1.44h-9.76v-1.44l1.824-.768v-19.2l-1.888-.928v-1.344l7.008-1.024.704.064v2.016h.192c.896-1.056 2.56-2.176 4.928-2.176 3.36 0 6.016 2.304 6.016 8.672zm-6.112.64c0-4.8-1.152-6.176-3.136-6.176-.736 0-1.376.224-1.856.48v12.224c.416.32.96.576 1.76.576 2.016 0 3.232-1.856 3.232-7.104zm11.936-16.384c1.664 0 3.104 1.312 3.104 3.008s-1.44 2.976-3.104 2.976c-1.728 0-3.072-1.28-3.072-2.976s1.344-3.008 3.072-3.008zm-4.736 8.192l7.2-1.024.608.064v15.616l1.792.8V29h-9.472v-1.376l1.824-.8V14.312l-1.952-.768v-1.376zm19.232 17.248c-5.696 0-8.544-3.776-8.544-9.248 0-5.6 3.584-9.12 9.28-9.12 2.272 0 4.512.256 5.568.608v5.376h-2.592l-1.024-3.968c-.384-.16-.864-.224-1.472-.224-2.464 0-3.872 2.144-3.872 6.72 0 4.48 1.76 6.464 5.152 6.464 1.76 0 2.976-.384 3.936-.928v1.6c-1.152 1.44-3.168 2.72-6.432 2.72z" fill="#FFF"/></g></g></svg>