<svg width="375" height="227" xmlns="http://www.w3.org/2000/svg"><g fill="none" fill-rule="evenodd"><path fill="#FFE500" d="M121 40h254v40H121z"/><path fill="#121212" d="M0 0h258v40H0zM127.576 69v-1.728l2.144-.768V48.456l-2.112-.768v-1.76h18.528l.128 6.464h-2.624l-1.152-4.224h-5.984v7.872h2.656l.864-2.656h2.048v7.744h-2.048l-.864-2.688h-2.656v8.256h6.144l1.376-4.864h2.688l-.16 7.168h-18.976zm27.936-15.264l2.976 10.176h.128l3.264-10.176-1.888-.832v-1.44h5.92v1.44l-1.408.8L159.16 69h-4.832l-5.28-15.264-1.504-.832v-1.44h9.888v1.44l-1.92.832zm27.52 6.976h-10.4c.192 3.616 1.536 5.312 5.376 5.312 1.856 0 3.168-.384 4.416-1.024v1.6c-.96 1.312-3.392 2.88-6.784 2.88-5.952 0-8.992-3.584-8.992-9.312 0-5.6 3.328-9.088 8.704-9.088 5.056 0 7.68 2.528 7.68 9.184v.448zm-7.84-7.872c-1.632 0-2.656 1.792-2.656 6.112l4.96-.32c0-4.48-.768-5.792-2.304-5.792zm9.152 14.752l1.824-.832V54.28l-1.92-.768v-1.344l6.976-1.024.704.064v2.048h.192c1.504-1.344 3.744-2.208 5.952-2.208 3.04 0 4.384 1.44 4.384 4.64V66.76l1.824.832V69H195v-1.408l1.632-.736V56.648c0-1.76-.768-2.464-2.208-2.464-.928 0-1.728.256-2.4.544v12.128l1.6.736V69h-9.28v-1.408zm22.976-13.76h-2.496v-1.504l2.496-.864v-3.136l5.824-.928v4.064h3.872v2.368h-3.872v10.304c0 1.792.512 2.528 2.432 2.528.576 0 1.248-.032 1.632-.096v1.664c-1.024.608-2.72 1.12-4.704 1.12-3.488 0-5.184-1.536-5.184-5.312V53.832zm25.408 3.648c3.68.896 5.248 2.528 5.248 5.824 0 3.904-2.336 6.112-7.552 6.112-2.048 0-4.288-.32-6.048-.96l-.192-4.576h2.112l1.344 3.04c.704.384 1.632.608 2.72.608 1.984 0 2.88-.864 2.88-2.208 0-1.152-.608-1.76-2.4-2.176l-1.184-.288c-3.744-.928-5.472-2.72-5.472-5.984 0-3.424 2.272-5.856 7.264-5.856 2.048 0 4.032.224 5.376.736v4.288h-2.112l-.928-2.752c-.512-.256-1.248-.384-2.208-.384-1.728 0-2.592.768-2.592 2.048 0 1.152.608 1.728 2.56 2.24l1.184.288zm15.104 11.936c-5.696 0-8.544-3.776-8.544-9.248 0-5.6 3.584-9.12 9.28-9.12 2.272 0 4.512.256 5.568.608v5.376h-2.592l-1.024-3.968c-.384-.16-.864-.224-1.472-.224-2.464 0-3.872 2.144-3.872 6.72 0 4.48 1.76 6.464 5.152 6.464 1.76 0 2.976-.384 3.936-.928v1.6c-1.152 1.44-3.168 2.72-6.432 2.72zm8-1.792l1.824-.832V46.92l-1.92-.768v-1.408l6.944-1.024.736.096v9.44h.192c1.536-1.344 3.744-2.208 5.952-2.208 3.04 0 4.384 1.44 4.384 4.64v11.104l1.824.832V69h-9.28v-1.376l1.632-.736v-10.24c0-1.76-.768-2.464-2.208-2.464-.96 0-1.728.224-2.4.512v12.192l1.6.736V69h-9.28v-1.376zm37.184-6.912h-10.4c.192 3.616 1.536 5.312 5.376 5.312 1.856 0 3.168-.384 4.416-1.024v1.6c-.96 1.312-3.392 2.88-6.784 2.88-5.952 0-8.992-3.584-8.992-9.312 0-5.6 3.328-9.088 8.704-9.088 5.056 0 7.68 2.528 7.68 9.184v.448zm-7.84-7.872c-1.632 0-2.656 1.792-2.656 6.112l4.96-.32c0-4.48-.768-5.792-2.304-5.792zm17.408-1.728c1.408 0 2.464.256 3.008.544v-4.8l-1.92-.672v-1.44l7.072-1.024.672.096v22.432l1.952.928v1.408l-6.976.8-.544-.064v-1.824h-.16c-1.024 1.024-2.432 1.952-4.64 1.952-3.808 0-6.592-2.912-6.592-8.864 0-6.272 3.232-9.472 8.128-9.472zm1.376 15.392c.704 0 1.28-.192 1.632-.448V53.608c-.448-.288-.992-.544-1.888-.544-1.888 0-3.104 1.984-3.104 7.072 0 4.576 1.12 6.368 3.36 6.368zm11.744-12.16l-1.92-.832v-1.408l7.008-.96.768.064v12.928c0 1.664.8 2.176 2.144 2.176.864 0 1.6-.224 2.272-.512V54.344l-1.92-.832v-1.408l7.008-.96.704.064v15.104l1.888.96v1.312l-6.912.8-.704-.064v-2.08h-.192c-1.28 1.184-3.072 2.208-5.248 2.208-3.36 0-4.896-1.984-4.896-4.992V54.344zm18.88-9.6l7.104-1.024.704.096V66.76l1.824.832V69h-9.504v-1.408l1.824-.832V46.888l-1.952-.736v-1.408zm26.912 15.968h-10.4c.192 3.616 1.536 5.312 5.376 5.312 1.856 0 3.168-.384 4.416-1.024v1.6c-.96 1.312-3.392 2.88-6.784 2.88-5.952 0-8.992-3.584-8.992-9.312 0-5.6 3.328-9.088 8.704-9.088 5.056 0 7.68 2.528 7.68 9.184v.448zm-7.84-7.872c-1.632 0-2.656 1.792-2.656 6.112l4.96-.32c0-4.48-.768-5.792-2.304-5.792z"/><path d="M16.624 29L11.76 8.456l-1.504-.8V5.928H20.4v1.728l-2.016.8 2.56 13.312h.192l3.744-15.84h4.832l4.352 15.936h.224l2.784-13.408-2.272-.8V5.928h6.88v1.728l-1.6.8L35.44 29h-5.632L26 14.44h-.224L22.256 29h-5.632zM47.088 3.976c1.664 0 3.104 1.312 3.104 3.008s-1.44 2.976-3.104 2.976c-1.728 0-3.072-1.28-3.072-2.976s1.344-3.008 3.072-3.008zm-4.736 8.192l7.2-1.024.608.064v15.616l1.792.8V29H42.48v-1.376l1.824-.8V14.312l-1.952-.768v-1.376zm10.56 15.424l1.824-.832V14.28l-1.92-.768v-1.344l6.976-1.024.704.064v2.048h.192c1.504-1.344 3.744-2.208 5.952-2.208 3.04 0 4.384 1.44 4.384 4.64V26.76l1.824.832V29h-9.28v-1.408l1.632-.736V16.648c0-1.76-.768-2.464-2.208-2.464-.928 0-1.728.256-2.4.544v12.128l1.6.736V29h-9.28v-1.408zm22.976-13.76h-2.496v-1.504l2.496-.864V8.328l5.824-.928v4.064h3.872v2.368h-3.872v10.304c0 1.792.512 2.528 2.432 2.528.576 0 1.248-.032 1.632-.096v1.664c-1.024.608-2.72 1.12-4.704 1.12-3.488 0-5.184-1.536-5.184-5.312V13.832zm27.488 6.88h-10.4c.192 3.616 1.536 5.312 5.376 5.312 1.856 0 3.168-.384 4.416-1.024v1.6c-.96 1.312-3.392 2.88-6.784 2.88-5.952 0-8.992-3.584-8.992-9.312 0-5.6 3.328-9.088 8.704-9.088 5.056 0 7.68 2.528 7.68 9.184v.448zm-7.84-7.872c-1.632 0-2.656 1.792-2.656 6.112l4.96-.32c0-4.48-.768-5.792-2.304-5.792zm9.056-.672l7.008-1.024.576.064v3.968h.16c.928-2.88 2.4-4.224 4.416-4.224.32 0 .672.032.864.128v5.28c-.32-.096-.896-.128-1.44-.128-1.6 0-2.784.16-3.808.576v10.016l2.368.8V29h-10.048v-1.376l1.824-.8V14.312l-1.92-.768v-1.376zm41.856 5.152c0 8.128-5.408 12.064-11.264 12.064-6.4 0-11.072-4.064-11.072-11.808 0-8.192 5.44-12.032 11.264-12.032 6.368 0 11.072 4 11.072 11.776zm-11.2-9.568c-2.592 0-3.808 2.112-3.808 9.632 0 7.808 1.088 9.792 3.872 9.792 2.592 0 3.744-2.048 3.744-9.6 0-7.936-1.152-9.824-3.808-9.824zm12.256-3.008l7.104-1.024.704.096V26.76l1.824.832V29h-9.504v-1.408l1.824-.832V6.888l-1.952-.736V4.744zm13.28 28.704c1.952 0 3.488-.768 4.32-3.04l.32-.864-6.592-15.872-1.312-.768v-1.44h9.472v1.44l-1.888.8 3.168 9.184h.128l3.328-9.152-1.952-.832v-1.44h5.952v1.44l-1.472.768-6.464 16.928c-1.568 4.128-3.296 5.536-5.984 5.536-1.056 0-2.048-.256-2.944-.864v-2.048c.64.128 1.28.224 1.92.224zm15.584-5.824l1.824-.8V14.312l-1.92-.768v-1.376l6.944-1.024.704.064v2.048h.192c1.504-1.344 3.168-2.208 5.44-2.208 2.016 0 3.264.608 3.936 2.24h.128c1.568-1.376 3.328-2.24 5.6-2.24 2.88 0 4.448 1.472 4.448 4.672v11.104l1.856.8V29h-9.024v-1.376l1.44-.8V16.616c0-1.76-.768-2.464-2.08-2.464-.736 0-1.472.256-2.08.512v12.16l1.44.8V29h-8.512v-1.376l1.472-.8V16.616c0-1.76-.672-2.464-2.048-2.464-.832 0-1.504.224-2.112.544v12.128l1.408.8V29h-9.056v-1.376zm48.672-7.904c0 6.88-3.776 9.696-8.096 9.696-1.376 0-2.496-.288-3.008-.576v4.8l2.08.768v1.44h-9.76v-1.44l1.824-.768v-19.2l-1.888-.928v-1.344l7.008-1.024.704.064v2.016h.192c.896-1.056 2.56-2.176 4.928-2.176 3.36 0 6.016 2.304 6.016 8.672zm-6.112.64c0-4.8-1.152-6.176-3.136-6.176-.736 0-1.376.224-1.856.48v12.224c.416.32.96.576 1.76.576 2.016 0 3.232-1.856 3.232-7.104zm11.936-16.384c1.664 0 3.104 1.312 3.104 3.008s-1.44 2.976-3.104 2.976c-1.728 0-3.072-1.28-3.072-2.976s1.344-3.008 3.072-3.008zm-4.736 8.192l7.2-1.024.608.064v15.616l1.792.8V29h-9.472v-1.376l1.824-.8V14.312l-1.952-.768v-1.376zm19.232 17.248c-5.696 0-8.544-3.776-8.544-9.248 0-5.6 3.584-9.12 9.28-9.12 2.272 0 4.512.256 5.568.608v5.376h-2.592l-1.024-3.968c-.384-.16-.864-.224-1.472-.224-2.464 0-3.872 2.144-3.872 6.72 0 4.48 1.76 6.464 5.152 6.464 1.76 0 2.976-.384 3.936-.928v1.6c-1.152 1.44-3.168 2.72-6.432 2.72z" fill="#FFF"/><g transform="translate(10 185)"><circle fill="#FFE500" cx="21" cy="21" r="21"/><path fill="#000" d="M10 21.913h17.466l-6.85 8.197.89.89 9.521-9.543v-.914L21.507 11l-.89.89 6.849 8.197H10z"/></g><g fill="#121212"><path d="M171.399 152.357a3.598 3.598 0 0 0 2.223-1.032 869.529 869.529 0 0 0 9.622-9.814l2.07-2.158-4.728-4.353-.296.24c-.496.397-1.036.837-1.614 1.321a868.09 868.09 0 0 0-9.297 7.73l-3.497.125c-1.114.061-2.207.159-3.27.251l-1.382.121-4.231.549c-1.01.153-1.967.337-2.962.525l-.605.123c-.13 0-2.223.44-2.26.447l-4.696 1.154c-.635.135-1.242.325-1.847.51l-.629.197v9.457l3.173-.971c.521-.16 1.06-.328 1.622-.453l4.323-1.062c1.211-.25 2.016-.403 2.024-.405l3.352-.674 3.894-.693c.566-.08 1.126-.167 1.786-.267.817-.123 1.646-.256 2.472-.354l4.753-.514zM230.496 105.181c-.995-1.275-2.4-2.047-3.957-2.162-3.29-.269-6.151 2.41-6.504 5.86-.18 1.75.333 3.491 1.405 4.772.972 1.162 2.321 1.87 3.802 1.987.143.01.28.015.417.015 3.074 0 5.752-2.584 6.1-5.882.167-1.683-.284-3.313-1.263-4.59"/><path d="M193.607 124.304c-1.737 2.846-3.118 5.978-4.215 9.588l-14.604-20.491a39.016 39.016 0 0 1 8.459-2.74c4.372-.847 9.095-.784 13.432.162a36.125 36.125 0 0 1 7.312 2.462l.455.215v.004c-1.17.676-2.169 1.336-3.048 2.02a31.551 31.551 0 0 0-4.375 4.1c-1.22 1.393-2.336 2.926-3.416 4.68zm2.94 19.631l.04-.503c.027-.308.062-.611.096-.92.074-.62.168-1.264.284-1.91.221-1.307.517-2.643.88-3.97.822-2.967 1.907-5.625 3.222-7.9a26.94 26.94 0 0 1 2.444-3.57 23.89 23.89 0 0 1 3.056-3.048c.991-.829 2.178-1.6 3.624-2.367 1.297-.699 2.73-1.189 4.078-1.616l.265-.082a3.949 3.949 0 0 0 1.896-1.3 3.98 3.98 0 0 0-.607-5.587 10.588 10.588 0 0 0-.559-.425l-.597-.427c-.353-.24-.705-.48-1.06-.702a38.96 38.96 0 0 0-2.143-1.271 43.879 43.879 0 0 0-4.396-2.114 43.327 43.327 0 0 0-8.987-2.627 40.579 40.579 0 0 0-8.662-.558 39.655 39.655 0 0 0-7.612 1.08c-3.669.91-7.087 2.256-10.452 4.101-.663.35-1.22.676-1.697.968l-1.208.768 19.894 27.994c-.543 2.176-.735 4.643-.725 4.643h.002l-17.148 31.093h-3.81L165 176.877h19.743l1.663-3.192h-5.596l14.403-26.1 17.262 24.219c.503.705.962 1.072 1.54 1.232l14.909 3.845v-5.576l-14.657-2.508-17.72-24.862zM321.355 166.204c-.788-5.842-2.574-15.283-3.305-19.072a544.85 544.85 0 0 0-1.68-8.352c-.173-.83-.326-1.528-.447-2.085l-.155-.695-.55.447a33.544 33.544 0 0 1-5.02 3.424l-.24.131.014.276c.135 2.122.325 4.862.556 7.865.294 3.804 1.06 13.299 1.859 19.267l1.257 9.332h-4.728L307 179.947h19.58l1.915-3.205h-5.72l-1.42-10.538zM330.24 112.806a5.34 5.34 0 0 0 1.723.29c.907 0 1.802-.241 2.581-.692 2.706-1.531 3.62-5.185 2.036-8.148-1.074-2.006-3.068-3.256-5.203-3.256-.915 0-1.779.227-2.566.678-2.705 1.534-3.616 5.195-2.034 8.155.766 1.431 1.995 2.49 3.464 2.973M357.89 121.384l-1.237.243c-.149.03-.305.05-.486.078l-.413.065c-.94.153-2.877.411-5.283.433l-.59.004c-1.882 0-3.933-.118-5.917-.347a74.949 74.949 0 0 1-5.595-.872l-1.124-.235c-.652-.127-1.538-.364-2.316-.568a15.748 15.748 0 0 1-.807-.24l-2.746-.945-2.376 6.427 2.938 1.017c.345.105.692.22 1.037.315 1.048.278 2.05.543 2.816.697.394.079.715.15.96.206l.327.059c1.885.358 4.18.586 6.465.64a46.574 46.574 0 0 0 7.395-.421c2.828-.401 4.985-1.046 6.02-1.396l.4-.136c.23-.076.435-.148.635-.227l1.414-.607-1.518-4.19zM317.27 129.362a56.761 56.761 0 0 0 4.877-3.7 54.171 54.171 0 0 0 2.284-2.055c.368-.348.727-.693 1.087-1.063l1.12-1.186c.414-.45.702-.936.88-1.504.417-1.33.074-2.8-.891-3.816a2.89 2.89 0 0 0-1.02-.693l-.438-.175c-.515-.213-1.008-.429-1.494-.64l-.388-.163c-.35-.147-.703-.297-1.064-.468-.462-.21-.932-.425-1.404-.674l-.198-.1c-.394-.201-.786-.395-1.175-.623-1.554-.836-3.115-1.821-5.05-3.204a49.724 49.724 0 0 1-7.69-6.976c-2.27-2.654-3.691-4.742-4.334-5.745L301.381 95l-4.83 3.61.571 1.103c.639 1.183 2.073 3.642 4.5 6.829a54.826 54.826 0 0 0 8.378 8.472c2.07 1.645 3.877 2.92 5.667 3.994.35.225.703.43 1.064.636-1.256.96-2.6 1.889-3.997 2.762a40.85 40.85 0 0 1-9.136 4.308 29.341 29.341 0 0 1-8.883 1.495l-.408.005c-1.069 0-2.174-.078-3.55-.244l-1.807-.306-2.737-.738-2.622-1c-2.116-.842-4.8-2.468-7.358-4.462l-.95-.746c-.333-.267-.648-.511-.917-.78l-3.782-3.7-.768-.807-2.862-3.428-6.954 5.786 3.497 4.104 2.861 2.962 2.047 1.886c.351.345.735.645 1.113.943l1.152.916c3.13 2.443 6.535 4.5 9.34 5.632l1.935.782 3.103.987c.654.168 1.33.34 2.059.511l2.458.398c.574.063 1.183.12 1.794.168.947.067 1.75.096 2.541.096a29.3 29.3 0 0 0 1.015-.017 37.482 37.482 0 0 0 11.48-2.214 48.689 48.689 0 0 0 10.22-5.146l.654-.435zM89.546 129.527c2.892 1.007 6.186-.703 7.349-3.802.559-1.492.544-3.096-.052-4.51-.594-1.399-1.69-2.445-3.092-2.926-2.888-1.007-6.185.702-7.346 3.8-1.158 3.103.253 6.435 3.14 7.438M77.852 149.92a4.593 4.593 0 0 0-.296-.073 616.727 616.727 0 0 0-11.155-2.113c-1.51-.271-2.77-.487-3.653-.627-.27-.044-.499-.077-.694-.107-.777 1.516-1.443 3.286-2.054 5.429.002.034.483.216 1.328.508.843.295 2.056.7 3.517 1.18 1.89.617 4.2 1.357 6.677 2.132a110.448 110.448 0 0 0-1.093 3.536c-.31 1.195-.605 2.34-.886 3.41a164.71 164.71 0 0 0-.613 2.998l-.095.497c-.053.316-.162.763-.234 1.311-.162 1.09-.378 2.545-.596 4-.193 1.459-.31 2.929-.428 4.027l-.18 1.796h8.713c.027-.267.062-.595.099-.973.11-1.005.214-2.352.391-3.692.2-1.337.398-2.673.55-3.676.064-.502.167-.914.214-1.205.056-.29.09-.457.09-.457.159-.835.322-1.766.502-2.768.198-.995.414-2.061.638-3.171.246-1.102.499-2.253.775-3.409.146-.574.29-1.153.436-1.735.15-.546.304-1.092.456-1.638l.146-.528c.561-2.003-.584-4.084-2.555-4.652"/><path d="M95.156 158.683c.31.144.588.277.856.4l4.132-4.725c-.105-.056-.248-.13-.437-.226-.205-.1-.45-.223-.746-.367-.293-.15-.614-.344-.982-.547a15.437 15.437 0 0 1-1.19-.72c-.212-.141-.443-.273-.665-.432l-.69-.5c-.49-.327-.957-.75-1.476-1.157-.49-.45-1.031-.892-1.533-1.428-2.08-2.058-4.167-4.906-5.778-8.441a36.131 36.131 0 0 1-2.066-5.717 37.329 37.329 0 0 1-.707-3.116c-.096-.53-.18-1.061-.25-1.588a36.707 36.707 0 0 1-.149-1.464v-.01c-.116-1.985-1.539-3.6-3.502-3.634l-.396-.006c-4.153-.071-8.513.624-12.556 2.19-4.051 1.547-7.738 3.905-10.835 6.631-3.11 2.73-5.67 5.805-7.746 8.908a48.377 48.377 0 0 0-4.16 7.596c-.49.245-24.28 12.242-24.28 12.242v10.206s28.835-14.547 29.855-15.063l.017-.01a4.533 4.533 0 0 0 2.186-2.443c.492-1.3 1.1-2.672 1.814-4.072a45.438 45.438 0 0 1 1.806-3.19c1.696-2.71 3.786-5.39 6.28-7.72 2.385-2.227 5.138-4.113 8.14-5.391a25.161 25.161 0 0 1 6.247-1.75c.01.043.018.087.027.13.29 1.27.63 2.506 1.012 3.71a43.393 43.393 0 0 0 2.811 6.768c2.165 4.195 4.949 7.632 7.705 10.071.669.63 1.377 1.16 2.026 1.681.68.478 1.299.964 1.933 1.341.31.196.611.386.903.567.29.178.584.328.857.484.553.306 1.06.58 1.537.792M114.032 171.576c-.002-1.45-1.197-2.635-2.657-2.633l-.884.001-2.3-5.054a1.52 1.52 0 0 0-1.383-.89h-.002l-8.517.012 1.345 3.022 6.189-.01 1.331 2.924-10.503.014c-1.462.002-2.653 1.191-2.651 2.641l.004 2.634a2.648 2.648 0 0 0 2.463 2.624c.066.006.13.01.194.01l5.254-.006 9.471-.011a2.654 2.654 0 0 0 2.65-2.642l-.004-2.636z"/></g><g fill="#121212"><path d="M61.788 212.216c-1.494 0-3.042-.234-3.978-.63l-.18-3.114h1.89l.468 1.692c.468.234.99.36 1.764.36 1.26 0 1.998-.648 1.998-1.656 0-1.062-.774-1.494-2.124-2.052l-.936-.378c-1.8-.702-2.916-1.638-2.916-3.834 0-2.232 1.422-3.816 4.698-3.816 1.71 0 2.754.252 3.456.504l.18 2.844h-1.872l-.342-1.35a3.366 3.366 0 0 0-1.53-.342c-1.134 0-1.818.486-1.818 1.476 0 .9.558 1.368 1.872 1.854l.918.342c2.106.792 3.384 1.53 3.384 3.96 0 2.484-1.692 4.14-4.932 4.14zm9.918-.018c-1.872 0-2.916-.648-2.916-2.664v-5.886h-1.26v-1.152l1.26-.432v-2.286h2.934v2.322h2.268v1.548h-2.268v5.4c0 1.026.342 1.332 1.368 1.332.378 0 .738-.054 1.026-.126v1.278c-.576.36-1.44.666-2.412.666zm6.048.054c-1.746 0-2.862-1.116-2.862-2.754 0-1.944 1.296-2.484 3.384-2.916l1.836-.36v-.666c0-1.278-.36-2.16-1.782-2.16-.198 0-.414.018-.612.036l-.27 1.566h-1.854v-2.502c.882-.306 2.322-.612 3.924-.612 2.484 0 3.546 1.008 3.546 3.186v4.95c0 .504.288.63.702.63h.36v1.134c-.306.198-1.098.432-1.872.432-.954 0-1.566-.342-1.8-1.242h-.108c-.486.702-1.368 1.278-2.592 1.278zm1.224-1.62c.486 0 .9-.234 1.134-.486V207.5l-1.08.072c-.882.054-1.224.504-1.224 1.494 0 1.062.36 1.566 1.17 1.566zm8.442 5.328c-.936 0-1.512-.288-1.926-.558v-1.494c.396.09.72.162 1.134.162 1.08 0 1.638-.414 1.998-1.332l.252-.684-3.564-8.496-.846-.252V202.1h4.95v1.206l-1.008.216 1.08 2.916c.468 1.278.828 3.24.828 3.24h.072s.486-1.98.918-3.24l.936-2.916-.99-.216V202.1h3.654v1.206l-.792.252-3.51 9.648c-.702 1.89-1.512 2.754-3.186 2.754zm15.588-3.744c-1.962 0-2.772-1.044-2.772-2.772v-5.616l-1.116-.306v-1.224l3.798-.378.252.144v6.75c0 .936.288 1.368 1.278 1.368.72 0 1.134-.198 1.494-.342v-6.012l-1.026-.306v-1.224l3.708-.378.288.144v8.19l1.116.288v1.188l-3.672.45-.288-.126v-1.17h-.108c-.666.756-1.62 1.332-2.952 1.332zm7.776 3.69v-1.152l1.116-.27v-10.548l-1.152-.306v-1.278l3.708-.45.252.144v1.062h.108c.612-.63 1.548-1.242 2.844-1.242 1.764 0 3.546 1.044 3.546 4.788 0 3.978-2.052 5.472-4.788 5.472-.774 0-1.206-.108-1.566-.252v2.628l1.296.252v1.152h-5.364zm5.364-5.274c1.206 0 1.962-.684 1.962-3.564 0-2.412-.63-3.222-1.818-3.222-.63 0-1.134.162-1.44.306v6.12c.27.162.594.36 1.296.36zm13.824 1.566c-1.872 0-2.916-.648-2.916-2.664v-5.886h-1.26v-1.152l1.26-.432v-2.286h2.934v2.322h2.268v1.548h-2.268v5.4c0 1.026.342 1.332 1.368 1.332.378 0 .738-.054 1.026-.126v1.278c-.576.36-1.44.666-2.412.666zm8.226-1.53c.99 0 1.764-.666 1.764-3.546 0-2.97-.81-3.69-1.818-3.69-1.026 0-1.782.63-1.782 3.528 0 2.988.792 3.708 1.836 3.708zm-.018 1.584c-3.114 0-4.914-2.016-4.914-5.148 0-3.33 2.16-5.22 4.896-5.22 3.114 0 4.914 1.908 4.914 5.112 0 3.348-2.178 5.256-4.896 5.256zm13.5-.036c-1.8 0-3.816-1.134-3.816-4.932 0-3.906 2.034-5.4 4.734-5.4.756 0 1.206.126 1.62.36v-2.574l-1.224-.288v-1.242l3.888-.45.288.144v12.42l1.116.288v1.188l-3.51.45-.27-.126v-1.08h-.108c-.504.756-1.476 1.242-2.718 1.242zm1.134-1.89c.576 0 1.062-.162 1.404-.396v-6.048c-.288-.234-.594-.414-1.296-.414-1.188 0-1.962.63-1.962 3.51 0 2.556.666 3.348 1.854 3.348zm9.126 1.926c-1.746 0-2.862-1.116-2.862-2.754 0-1.944 1.296-2.484 3.384-2.916l1.836-.36v-.666c0-1.278-.36-2.16-1.782-2.16-.198 0-.414.018-.612.036l-.27 1.566h-1.854v-2.502c.882-.306 2.322-.612 3.924-.612 2.484 0 3.546 1.008 3.546 3.186v4.95c0 .504.288.63.702.63h.36v1.134c-.306.198-1.098.432-1.872.432-.954 0-1.566-.342-1.8-1.242h-.108c-.486.702-1.368 1.278-2.592 1.278zm1.224-1.62c.486 0 .9-.234 1.134-.486V207.5l-1.08.072c-.882.054-1.224.504-1.224 1.494 0 1.062.36 1.566 1.17 1.566zm9.792 1.566c-1.872 0-2.916-.648-2.916-2.664v-5.886h-1.26v-1.152l1.26-.432v-2.286h2.934v2.322h2.268v1.548h-2.268v5.4c0 1.026.342 1.332 1.368 1.332.378 0 .738-.054 1.026-.126v1.278c-.576.36-1.44.666-2.412.666zm8.298.036c-3.366 0-5.04-1.944-5.04-5.238 0-3.222 1.944-5.112 4.77-5.112 2.916 0 4.284 1.62 4.284 5.526h-6.03c.144 2.25 1.134 2.97 2.79 2.97 1.278 0 2.07-.252 2.772-.468v1.278c-.684.486-1.782 1.044-3.546 1.044zm-2.052-6.138h3.15c0-2.178-.558-2.736-1.44-2.736-.918 0-1.584.63-1.71 2.736z"/></g></g></svg>